<?xml version="1.0" encoding="UTF-8" standalone="no"?>
<!DOCTYPE svg PUBLIC "-//W3C//DTD SVG 1.1//EN"
 "http://www.w3.org/Graphics/SVG/1.1/DTD/svg11.dtd">
<!-- Generated by graphviz version 2.43.0 (0)
 -->
<!-- Title: /home/runner/work/CLIP/CLIP/src/boundary/Boundary.cu Pages: 1 -->
<svg width="1236pt" height="368pt"
 viewBox="0.00 0.00 1236.00 368.00" xmlns="http://www.w3.org/2000/svg" xmlns:xlink="http://www.w3.org/1999/xlink">
<g id="graph0" class="graph" transform="scale(1 1) rotate(0) translate(4 364)">
<title>/home/runner/work/CLIP/CLIP/src/boundary/Boundary.cu</title>
<!-- Node1 -->
<g id="Node000001" class="node">
<title>Node1</title>
<g id="a_Node000001"><a xlink:title="Implements the Boundary class methods responsible for reading, parsing, and managing boundary conditi...">
<polygon fill="#999999" stroke="#666666" points="531.5,-360 362.5,-360 362.5,-330 531.5,-330 531.5,-360"/>
<text text-anchor="start" x="370.5" y="-348" font-family="Helvetica,sans-Serif" font-size="10.00">/home/runner/work/CLIP</text>
<text text-anchor="middle" x="447" y="-337" font-family="Helvetica,sans-Serif" font-size="10.00">/CLIP/src/boundary/Boundary.cu</text>
</a>
</g>
</g>
<!-- Node2 -->
<g id="Node000002" class="node">
<title>Node2</title>
<g id="a_Node000002"><a xlink:href="Boundary_8cuh.html" target="_top" xlink:title="Defines the Boundary class for handling physical and computational boundary conditions in the CLIP LB...">
<polygon fill="white" stroke="#666666" points="526,-294 444,-294 444,-275 526,-275 526,-294"/>
<text text-anchor="middle" x="485" y="-282" font-family="Helvetica,sans-Serif" font-size="10.00">Boundary.cuh</text>
</a>
</g>
</g>
<!-- Node1&#45;&gt;Node2 -->
<g id="edge1_Node000001_Node000002" class="edge">
<title>Node1&#45;&gt;Node2</title>
<g id="a_edge1_Node000001_Node000002"><a xlink:title=" ">
<path fill="none" stroke="#63b8ff" d="M456.2,-329.84C461.49,-321.69 468.18,-311.4 473.78,-302.78"/>
<polygon fill="#63b8ff" stroke="#63b8ff" points="476.79,-304.56 479.31,-294.27 470.92,-300.75 476.79,-304.56"/>
</a>
</g>
</g>
<!-- Node4 -->
<g id="Node000004" class="node">
<title>Node4</title>
<g id="a_Node000004"><a xlink:href="includes_8h.html" target="_top" xlink:title="Common include header that provides core system libraries, CUDA headers, and project&#45;level dependenci...">
<polygon fill="white" stroke="#666666" points="519,-129 453,-129 453,-110 519,-110 519,-129"/>
<text text-anchor="middle" x="486" y="-117" font-family="Helvetica,sans-Serif" font-size="10.00">includes.h</text>
</a>
</g>
</g>
<!-- Node1&#45;&gt;Node4 -->
<g id="edge27_Node000001_Node000004" class="edge">
<title>Node1&#45;&gt;Node4</title>
<g id="a_edge27_Node000001_Node000004"><a xlink:title=" ">
<path fill="none" stroke="#63b8ff" d="M441.95,-329.78C437.62,-315.86 432.45,-294.04 435,-275 441.73,-224.77 447.45,-212.54 465,-165 468.33,-155.98 472.79,-146.3 476.74,-138.27"/>
<polygon fill="#63b8ff" stroke="#63b8ff" points="479.95,-139.67 481.35,-129.17 473.71,-136.51 479.95,-139.67"/>
</a>
</g>
</g>
<!-- Node3 -->
<g id="Node000003" class="node">
<title>Node3</title>
<g id="a_Node000003"><a xlink:href="InputData_8cuh.html" target="_top" xlink:title="Defines the InputData class responsible for reading and storing simulation parameters in the CLIP LBM...">
<polygon fill="white" stroke="#666666" points="564.5,-184 479.5,-184 479.5,-165 564.5,-165 564.5,-184"/>
<text text-anchor="middle" x="522" y="-172" font-family="Helvetica,sans-Serif" font-size="10.00">InputData.cuh</text>
</a>
</g>
</g>
<!-- Node2&#45;&gt;Node3 -->
<g id="edge2_Node000002_Node000003" class="edge">
<title>Node2&#45;&gt;Node3</title>
<g id="a_edge2_Node000002_Node000003"><a xlink:title=" ">
<path fill="none" stroke="#63b8ff" d="M488.03,-274.66C494.07,-257.01 507.75,-217.09 515.79,-193.64"/>
<polygon fill="#63b8ff" stroke="#63b8ff" points="519.1,-194.75 519.03,-184.16 512.48,-192.48 519.1,-194.75"/>
</a>
</g>
</g>
<!-- Node2&#45;&gt;Node4 -->
<g id="edge23_Node000002_Node000004" class="edge">
<title>Node2&#45;&gt;Node4</title>
<g id="a_edge23_Node000002_Node000004"><a xlink:title=" ">
<path fill="none" stroke="#63b8ff" d="M482.14,-274.83C476.04,-255.2 462.88,-205.86 470,-165 471.57,-156 474.8,-146.42 477.94,-138.46"/>
<polygon fill="#63b8ff" stroke="#63b8ff" points="481.22,-139.69 481.89,-129.12 474.77,-136.97 481.22,-139.69"/>
</a>
</g>
</g>
<!-- Node21 -->
<g id="Node000021" class="node">
<title>Node21</title>
<g id="a_Node000021"><a xlink:href="Domain_8cuh.html" target="_top" xlink:title="Defines the Domain class for managing spatial extents, indexing, and boundary checks in the CLIP LBM ...">
<polygon fill="white" stroke="#666666" points="592.5,-239 517.5,-239 517.5,-220 592.5,-220 592.5,-239"/>
<text text-anchor="middle" x="555" y="-227" font-family="Helvetica,sans-Serif" font-size="10.00">Domain.cuh</text>
</a>
</g>
</g>
<!-- Node2&#45;&gt;Node21 -->
<g id="edge24_Node000002_Node000021" class="edge">
<title>Node2&#45;&gt;Node21</title>
<g id="a_edge24_Node000002_Node000021"><a xlink:title=" ">
<path fill="none" stroke="#63b8ff" d="M496.25,-274.98C506.8,-267 522.8,-254.88 535.44,-245.31"/>
<polygon fill="#63b8ff" stroke="#63b8ff" points="537.69,-248 543.55,-239.17 533.46,-242.42 537.69,-248"/>
</a>
</g>
</g>
<!-- Node3&#45;&gt;Node4 -->
<g id="edge3_Node000003_Node000004" class="edge">
<title>Node3&#45;&gt;Node4</title>
<g id="a_edge3_Node000003_Node000004"><a xlink:title=" ">
<path fill="none" stroke="#63b8ff" d="M516.06,-164.75C511.02,-157.34 503.66,-146.5 497.49,-137.41"/>
<polygon fill="#63b8ff" stroke="#63b8ff" points="500.35,-135.39 491.83,-129.09 494.56,-139.33 500.35,-135.39"/>
</a>
</g>
</g>
<!-- Node5 -->
<g id="Node000005" class="node">
<title>Node5</title>
<g id="a_Node000005"><a xlink:title=" ">
<polygon fill="#e0e0e0" stroke="#999999" points="60,-19 0,-19 0,0 60,0 60,-19"/>
<text text-anchor="middle" x="30" y="-7" font-family="Helvetica,sans-Serif" font-size="10.00">iostream</text>
</a>
</g>
</g>
<!-- Node4&#45;&gt;Node5 -->
<g id="edge4_Node000004_Node000005" class="edge">
<title>Node4&#45;&gt;Node5</title>
<g id="a_edge4_Node000004_Node000005"><a xlink:title=" ">
<path fill="none" stroke="#63b8ff" d="M452.87,-117.52C354.45,-114.3 68.76,-102.55 39,-74 27.33,-62.81 26.01,-43.89 27.04,-29.6"/>
<polygon fill="#63b8ff" stroke="#63b8ff" points="30.55,-29.71 28.23,-19.38 23.6,-28.91 30.55,-29.71"/>
</a>
</g>
</g>
<!-- Node6 -->
<g id="Node000006" class="node">
<title>Node6</title>
<g id="a_Node000006"><a xlink:title=" ">
<polygon fill="#e0e0e0" stroke="#999999" points="267.5,-74 212.5,-74 212.5,-55 267.5,-55 267.5,-74"/>
<text text-anchor="middle" x="240" y="-62" font-family="Helvetica,sans-Serif" font-size="10.00">fstream</text>
</a>
</g>
</g>
<!-- Node4&#45;&gt;Node6 -->
<g id="edge5_Node000004_Node000006" class="edge">
<title>Node4&#45;&gt;Node6</title>
<g id="a_edge5_Node000004_Node000006"><a xlink:title=" ">
<path fill="none" stroke="#63b8ff" d="M452.66,-111.57C413.32,-103.36 345.66,-89.12 277.87,-74.16"/>
<polygon fill="#63b8ff" stroke="#63b8ff" points="278.39,-70.69 267.87,-71.95 276.88,-77.53 278.39,-70.69"/>
</a>
</g>
</g>
<!-- Node7 -->
<g id="Node000007" class="node">
<title>Node7</title>
<g id="a_Node000007"><a xlink:title=" ">
<polygon fill="#e0e0e0" stroke="#999999" points="127,-19 83,-19 83,0 127,0 127,-19"/>
<text text-anchor="middle" x="105" y="-7" font-family="Helvetica,sans-Serif" font-size="10.00">string</text>
</a>
</g>
</g>
<!-- Node4&#45;&gt;Node7 -->
<g id="edge6_Node000004_Node000007" class="edge">
<title>Node4&#45;&gt;Node7</title>
<g id="a_edge6_Node000004_Node000007"><a xlink:title=" ">
<path fill="none" stroke="#63b8ff" d="M452.99,-119.03C396.1,-118.77 276.94,-113.1 186,-74 160.24,-62.92 135.62,-41.56 120.43,-26.69"/>
<polygon fill="#63b8ff" stroke="#63b8ff" points="122.53,-23.84 113.01,-19.2 117.56,-28.77 122.53,-23.84"/>
</a>
</g>
</g>
<!-- Node8 -->
<g id="Node000008" class="node">
<title>Node8</title>
<g id="a_Node000008"><a xlink:title=" ">
<polygon fill="#e0e0e0" stroke="#999999" points="342,-74 286,-74 286,-55 342,-55 342,-74"/>
<text text-anchor="middle" x="314" y="-62" font-family="Helvetica,sans-Serif" font-size="10.00">sstream</text>
</a>
</g>
</g>
<!-- Node4&#45;&gt;Node8 -->
<g id="edge7_Node000004_Node000008" class="edge">
<title>Node4&#45;&gt;Node8</title>
<g id="a_edge7_Node000004_Node000008"><a xlink:title=" ">
<path fill="none" stroke="#63b8ff" d="M458.37,-109.98C429.49,-101.09 383.99,-87.07 351.8,-77.15"/>
<polygon fill="#63b8ff" stroke="#63b8ff" points="352.44,-73.68 341.85,-74.08 350.38,-80.37 352.44,-73.68"/>
</a>
</g>
</g>
<!-- Node9 -->
<g id="Node000009" class="node">
<title>Node9</title>
<g id="a_Node000009"><a xlink:title=" ">
<polygon fill="#e0e0e0" stroke="#999999" points="407.5,-74 360.5,-74 360.5,-55 407.5,-55 407.5,-74"/>
<text text-anchor="middle" x="384" y="-62" font-family="Helvetica,sans-Serif" font-size="10.00">vector</text>
</a>
</g>
</g>
<!-- Node4&#45;&gt;Node9 -->
<g id="edge8_Node000004_Node000009" class="edge">
<title>Node4&#45;&gt;Node9</title>
<g id="a_edge8_Node000004_Node000009"><a xlink:title=" ">
<path fill="none" stroke="#63b8ff" d="M469.61,-109.98C453.43,-101.57 428.43,-88.59 409.62,-78.81"/>
<polygon fill="#63b8ff" stroke="#63b8ff" points="411.17,-75.68 400.69,-74.17 407.95,-81.89 411.17,-75.68"/>
</a>
</g>
</g>
<!-- Node10 -->
<g id="Node000010" class="node">
<title>Node10</title>
<g id="a_Node000010"><a xlink:title=" ">
<polygon fill="#e0e0e0" stroke="#999999" points="476,-74 426,-74 426,-55 476,-55 476,-74"/>
<text text-anchor="middle" x="451" y="-62" font-family="Helvetica,sans-Serif" font-size="10.00">cstring</text>
</a>
</g>
</g>
<!-- Node4&#45;&gt;Node10 -->
<g id="edge9_Node000004_Node000010" class="edge">
<title>Node4&#45;&gt;Node10</title>
<g id="a_edge9_Node000004_Node000010"><a xlink:title=" ">
<path fill="none" stroke="#63b8ff" d="M480.22,-109.75C475.38,-102.42 468.32,-91.73 462.36,-82.7"/>
<polygon fill="#63b8ff" stroke="#63b8ff" points="465.1,-80.5 456.67,-74.09 459.26,-84.36 465.1,-80.5"/>
</a>
</g>
</g>
<!-- Node11 -->
<g id="Node000011" class="node">
<title>Node11</title>
<g id="a_Node000011"><a xlink:title=" ">
<polygon fill="#e0e0e0" stroke="#999999" points="550,-74 494,-74 494,-55 550,-55 550,-74"/>
<text text-anchor="middle" x="522" y="-62" font-family="Helvetica,sans-Serif" font-size="10.00">iomanip</text>
</a>
</g>
</g>
<!-- Node4&#45;&gt;Node11 -->
<g id="edge10_Node000004_Node000011" class="edge">
<title>Node4&#45;&gt;Node11</title>
<g id="a_edge10_Node000004_Node000011"><a xlink:title=" ">
<path fill="none" stroke="#63b8ff" d="M491.94,-109.75C496.98,-102.34 504.34,-91.5 510.51,-82.41"/>
<polygon fill="#63b8ff" stroke="#63b8ff" points="513.44,-84.33 516.17,-74.09 507.65,-80.39 513.44,-84.33"/>
</a>
</g>
</g>
<!-- Node12 -->
<g id="Node000012" class="node">
<title>Node12</title>
<g id="a_Node000012"><a xlink:title=" ">
<polygon fill="#e0e0e0" stroke="#999999" points="636,-74 568,-74 568,-55 636,-55 636,-74"/>
<text text-anchor="middle" x="602" y="-62" font-family="Helvetica,sans-Serif" font-size="10.00">filesystem</text>
</a>
</g>
</g>
<!-- Node4&#45;&gt;Node12 -->
<g id="edge11_Node000004_Node000012" class="edge">
<title>Node4&#45;&gt;Node12</title>
<g id="a_edge11_Node000004_Node000012"><a xlink:title=" ">
<path fill="none" stroke="#63b8ff" d="M504.64,-109.98C523.3,-101.46 552.25,-88.23 573.74,-78.41"/>
<polygon fill="#63b8ff" stroke="#63b8ff" points="575.38,-81.51 583.02,-74.17 572.47,-75.14 575.38,-81.51"/>
</a>
</g>
</g>
<!-- Node13 -->
<g id="Node000013" class="node">
<title>Node13</title>
<g id="a_Node000013"><a xlink:title=" ">
<polygon fill="#e0e0e0" stroke="#999999" points="213.5,-19 148.5,-19 148.5,0 213.5,0 213.5,-19"/>
<text text-anchor="middle" x="181" y="-7" font-family="Helvetica,sans-Serif" font-size="10.00">stdexcept</text>
</a>
</g>
</g>
<!-- Node4&#45;&gt;Node13 -->
<g id="edge12_Node000004_Node000013" class="edge">
<title>Node4&#45;&gt;Node13</title>
<g id="a_edge12_Node000004_Node000013"><a xlink:title=" ">
<path fill="none" stroke="#63b8ff" d="M452.81,-117.47C386.41,-114.74 240.38,-105.27 203,-74 189.87,-63.01 184.56,-43.75 182.42,-29.32"/>
<polygon fill="#63b8ff" stroke="#63b8ff" points="185.87,-28.59 181.3,-19.02 178.91,-29.34 185.87,-28.59"/>
</a>
</g>
</g>
<!-- Node14 -->
<g id="Node000014" class="node">
<title>Node14</title>
<g id="a_Node000014"><a xlink:title=" ">
<polygon fill="#e0e0e0" stroke="#999999" points="718,-74 654,-74 654,-55 718,-55 718,-74"/>
<text text-anchor="middle" x="686" y="-62" font-family="Helvetica,sans-Serif" font-size="10.00">algorithm</text>
</a>
</g>
</g>
<!-- Node4&#45;&gt;Node14 -->
<g id="edge13_Node000004_Node000014" class="edge">
<title>Node4&#45;&gt;Node14</title>
<g id="a_edge13_Node000004_Node000014"><a xlink:title=" ">
<path fill="none" stroke="#63b8ff" d="M518.13,-109.98C552.25,-100.94 606.32,-86.62 643.83,-76.67"/>
<polygon fill="#63b8ff" stroke="#63b8ff" points="645.18,-79.94 653.95,-73.99 643.38,-73.17 645.18,-79.94"/>
</a>
</g>
</g>
<!-- Node15 -->
<g id="Node000015" class="node">
<title>Node15</title>
<g id="a_Node000015"><a xlink:title=" ">
<polygon fill="#e0e0e0" stroke="#999999" points="785.5,-74 736.5,-74 736.5,-55 785.5,-55 785.5,-74"/>
<text text-anchor="middle" x="761" y="-62" font-family="Helvetica,sans-Serif" font-size="10.00">cctype</text>
</a>
</g>
</g>
<!-- Node4&#45;&gt;Node15 -->
<g id="edge14_Node000004_Node000015" class="edge">
<title>Node4&#45;&gt;Node15</title>
<g id="a_edge14_Node000004_Node000015"><a xlink:title=" ">
<path fill="none" stroke="#63b8ff" d="M519.27,-113.03C563.97,-105.54 646.1,-91.26 725.93,-74.11"/>
<polygon fill="#63b8ff" stroke="#63b8ff" points="727.13,-77.44 736.16,-71.9 725.65,-70.6 727.13,-77.44"/>
</a>
</g>
</g>
<!-- Node16 -->
<g id="Node000016" class="node">
<title>Node16</title>
<g id="a_Node000016"><a xlink:title=" ">
<polygon fill="#e0e0e0" stroke="#999999" points="836,-74 804,-74 804,-55 836,-55 836,-74"/>
<text text-anchor="middle" x="820" y="-62" font-family="Helvetica,sans-Serif" font-size="10.00">set</text>
</a>
</g>
</g>
<!-- Node4&#45;&gt;Node16 -->
<g id="edge15_Node000004_Node000016" class="edge">
<title>Node4&#45;&gt;Node16</title>
<g id="a_edge15_Node000004_Node000016"><a xlink:title=" ">
<path fill="none" stroke="#63b8ff" d="M519.31,-115.74C574.63,-110.71 688.98,-98.47 794.17,-73.78"/>
<polygon fill="#63b8ff" stroke="#63b8ff" points="795.08,-77.16 803.99,-71.43 793.45,-70.35 795.08,-77.16"/>
</a>
</g>
</g>
<!-- Node17 -->
<g id="Node000017" class="node">
<title>Node17</title>
<g id="a_Node000017"><a xlink:title=" ">
<polygon fill="#e0e0e0" stroke="#999999" points="946,-74 854,-74 854,-55 946,-55 946,-74"/>
<text text-anchor="middle" x="900" y="-62" font-family="Helvetica,sans-Serif" font-size="10.00">cuda_runtime.h</text>
</a>
</g>
</g>
<!-- Node4&#45;&gt;Node17 -->
<g id="edge16_Node000004_Node000017" class="edge">
<title>Node4&#45;&gt;Node17</title>
<g id="a_edge16_Node000004_Node000017"><a xlink:title=" ">
<path fill="none" stroke="#63b8ff" d="M519.2,-114.72C580.93,-107.62 717.79,-91.55 843.61,-74.16"/>
<polygon fill="#63b8ff" stroke="#63b8ff" points="844.38,-77.58 853.8,-72.74 843.41,-70.65 844.38,-77.58"/>
</a>
</g>
</g>
<!-- Node18 -->
<g id="Node000018" class="node">
<title>Node18</title>
<g id="a_Node000018"><a xlink:title=" ">
<polygon fill="#e0e0e0" stroke="#999999" points="1121.5,-74 964.5,-74 964.5,-55 1121.5,-55 1121.5,-74"/>
<text text-anchor="middle" x="1043" y="-62" font-family="Helvetica,sans-Serif" font-size="10.00">device_launch_parameters.h</text>
</a>
</g>
</g>
<!-- Node4&#45;&gt;Node18 -->
<g id="edge17_Node000004_Node000018" class="edge">
<title>Node4&#45;&gt;Node18</title>
<g id="a_edge17_Node000004_Node000018"><a xlink:title=" ">
<path fill="none" stroke="#63b8ff" d="M519.27,-115.36C594.55,-108.26 783.96,-90.36 954.17,-74.08"/>
<polygon fill="#63b8ff" stroke="#63b8ff" points="954.7,-77.54 964.32,-73.11 954.03,-70.58 954.7,-77.54"/>
</a>
</g>
</g>
<!-- Node19 -->
<g id="Node000019" class="node">
<title>Node19</title>
<g id="a_Node000019"><a xlink:href="DataTypes_8cuh.html" target="_top" xlink:title="Core type definitions and macros for precision control, dimensionality, and indexing in CLIP.">
<polygon fill="white" stroke="#666666" points="1228,-74 1140,-74 1140,-55 1228,-55 1228,-74"/>
<text text-anchor="middle" x="1184" y="-62" font-family="Helvetica,sans-Serif" font-size="10.00">DataTypes.cuh</text>
</a>
</g>
</g>
<!-- Node4&#45;&gt;Node19 -->
<g id="edge18_Node000004_Node000019" class="edge">
<title>Node4&#45;&gt;Node19</title>
<g id="a_edge18_Node000004_Node000019"><a xlink:title=" ">
<path fill="none" stroke="#63b8ff" d="M519.33,-117.26C613.53,-113.54 889.95,-101.05 1129.84,-74.03"/>
<polygon fill="#63b8ff" stroke="#63b8ff" points="1130.25,-77.5 1139.79,-72.9 1129.46,-70.55 1130.25,-77.5"/>
</a>
</g>
</g>
<!-- Node20 -->
<g id="Node000020" class="node">
<title>Node20</title>
<g id="a_Node000020"><a xlink:href="Logger_8cuh.html" target="_top" xlink:title="Defines the Logger class for standardized colored console output and error handling in the CLIP frame...">
<polygon fill="white" stroke="#666666" points="117.5,-74 48.5,-74 48.5,-55 117.5,-55 117.5,-74"/>
<text text-anchor="middle" x="83" y="-62" font-family="Helvetica,sans-Serif" font-size="10.00">Logger.cuh</text>
</a>
</g>
</g>
<!-- Node4&#45;&gt;Node20 -->
<g id="edge19_Node000004_Node000020" class="edge">
<title>Node4&#45;&gt;Node20</title>
<g id="a_edge19_Node000004_Node000020"><a xlink:title=" ">
<path fill="none" stroke="#63b8ff" d="M452.74,-114.84C389.94,-107.82 249.62,-91.58 132,-74 130.53,-73.78 129.04,-73.55 127.54,-73.32"/>
<polygon fill="#63b8ff" stroke="#63b8ff" points="127.93,-69.84 117.5,-71.69 126.81,-76.75 127.93,-69.84"/>
</a>
</g>
</g>
<!-- Node20&#45;&gt;Node5 -->
<g id="edge20_Node000020_Node000005" class="edge">
<title>Node20&#45;&gt;Node5</title>
<g id="a_edge20_Node000020_Node000005"><a xlink:title=" ">
<path fill="none" stroke="#63b8ff" d="M74.25,-54.75C66.53,-47.03 55.1,-35.6 45.78,-26.28"/>
<polygon fill="#63b8ff" stroke="#63b8ff" points="48.14,-23.69 38.59,-19.09 43.19,-28.64 48.14,-23.69"/>
</a>
</g>
</g>
<!-- Node20&#45;&gt;Node7 -->
<g id="edge21_Node000020_Node000007" class="edge">
<title>Node20&#45;&gt;Node7</title>
<g id="a_edge21_Node000020_Node000007"><a xlink:title=" ">
<path fill="none" stroke="#63b8ff" d="M86.63,-54.75C89.58,-47.65 93.83,-37.4 97.51,-28.56"/>
<polygon fill="#63b8ff" stroke="#63b8ff" points="100.83,-29.67 101.43,-19.09 94.37,-26.98 100.83,-29.67"/>
</a>
</g>
</g>
<!-- Node20&#45;&gt;Node13 -->
<g id="edge22_Node000020_Node000013" class="edge">
<title>Node20&#45;&gt;Node13</title>
<g id="a_edge22_Node000020_Node000013"><a xlink:title=" ">
<path fill="none" stroke="#63b8ff" d="M98.75,-54.98C114.23,-46.61 138.09,-33.7 156.14,-23.95"/>
<polygon fill="#63b8ff" stroke="#63b8ff" points="157.84,-27.01 164.97,-19.17 154.51,-20.85 157.84,-27.01"/>
</a>
</g>
</g>
<!-- Node21&#45;&gt;Node3 -->
<g id="edge26_Node000021_Node000003" class="edge">
<title>Node21&#45;&gt;Node3</title>
<g id="a_edge26_Node000021_Node000003"><a xlink:title=" ">
<path fill="none" stroke="#63b8ff" d="M549.55,-219.75C544.99,-212.42 538.33,-201.73 532.71,-192.7"/>
<polygon fill="#63b8ff" stroke="#63b8ff" points="535.6,-190.73 527.35,-184.09 529.66,-194.43 535.6,-190.73"/>
</a>
</g>
</g>
<!-- Node21&#45;&gt;Node4 -->
<g id="edge25_Node000021_Node000004" class="edge">
<title>Node21&#45;&gt;Node4</title>
<g id="a_edge25_Node000021_Node000004"><a xlink:title=" ">
<path fill="none" stroke="#63b8ff" d="M561.9,-219.7C571.05,-206.87 584.85,-182.64 574,-165 564.03,-148.79 546.12,-138.26 529.05,-131.54"/>
<polygon fill="#63b8ff" stroke="#63b8ff" points="529.76,-128.08 519.16,-128.01 527.4,-134.67 529.76,-128.08"/>
</a>
</g>
</g>
</g>
</svg>
