<?xml version="1.0" encoding="UTF-8" standalone="no"?>
<!DOCTYPE svg PUBLIC "-//W3C//DTD SVG 1.1//EN"
 "http://www.w3.org/Graphics/SVG/1.1/DTD/svg11.dtd">
<!-- Generated by graphviz version 2.43.0 (0)
 -->
<!-- Title: /home/runner/work/CLIP/CLIP/include/boundary/Boundary.cuh Pages: 1 -->
<!--zoomable 324 -->

<svg id="main" version="1.1" xmlns="http://www.w3.org/2000/svg" xmlns:xlink="http://www.w3.org/1999/xlink" xml:space="preserve" onload="init(evt)">
<style type="text/css"><![CDATA[
.node, .edge {opacity: 0.7;}
.node.selected, .edge.selected {opacity: 1;}
.edge:hover path { stroke: red; }
.edge:hover polygon { stroke: red; fill: red; }
]]></style>

<defs>
  <circle id="rim" cx="0" cy="0" r="7"/>
  <circle id="rim2" cx="0" cy="0" r="3.5"/>
  <g id="zoomPlus">
    <use xlink:href="#rim" fill="#404040"><set attributeName="fill" to="#808080" begin="zoomplus.mouseover" end="zoomplus.mouseout"/></use>
    <path d="M-4,0h8M0,-4v8" fill="none" stroke="white" stroke-width="1.5" pointer-events="none"/>
  </g>
  <g id="zoomMin">
    <use xlink:href="#rim" fill="#404040"><set attributeName="fill" to="#808080" begin="zoomminus.mouseover" end="zoomminus.mouseout"/></use>
    <path d="M-4,0h8" fill="none" stroke="white" stroke-width="1.5" pointer-events="none"/>
  </g>
  <g id="arrowUp" transform="translate(30 24)">
    <use xlink:href="#rim"/>
    <path pointer-events="none" fill="none" stroke="white" stroke-width="1.5" d="M0,-3.0v7 M-2.5,-0.5L0,-3.0L2.5,-0.5"/>
  </g>
  <g id="arrowRight" transform="rotate(90) translate(36 -43)">
    <use xlink:href="#rim"/>
    <path pointer-events="none" fill="none" stroke="white" stroke-width="1.5" d="M0,-3.0v7 M-2.5,-0.5L0,-3.0L2.5,-0.5"/>
  </g>
  <g id="arrowDown" transform="rotate(180) translate(-30 -48)">
    <use xlink:href="#rim"/>
    <path pointer-events="none" fill="none" stroke="white" stroke-width="1.5" d="M0,-3.0v7 M-2.5,-0.5L0,-3.0L2.5,-0.5"/>
  </g>
  <g id="arrowLeft" transform="rotate(270) translate(-36 17)">
    <use xlink:href="#rim"/>
    <path pointer-events="none" fill="none" stroke="white" stroke-width="1.5" d="M0,-3.0v7 M-2.5,-0.5L0,-3.0L2.5,-0.5"/>
  </g>
  <g id="resetDef">
    <use xlink:href="#rim2" fill="#404040"><set attributeName="fill" to="#808080" begin="reset.mouseover" end="reset.mouseout"/></use>
  </g>
</defs>
<script type="application/ecmascript">
var viewWidth = 1041;
var viewHeight = 324;
var sectionId = 'dynsection-1';
</script>
<script type="application/ecmascript" xlink:href="svg.min.js"/>
<svg id="graph" class="graph">
<g id="viewport">
<title>/home/runner/work/CLIP/CLIP/include/boundary/Boundary.cuh</title>
<!-- Node1 -->
<g id="Node000001" class="node">
<title>Node1</title>
<g id="a_Node000001"><a xlink:title="Defines the Boundary class for handling physical and computational boundary conditions in the CLIP LB...">
<polygon fill="#999999" stroke="#666666" points="483.29,-316 350.29,-316 350.29,-275 483.29,-275 483.29,-316"/>
<text text-anchor="start" x="358.29" y="-304" font-family="Helvetica,sans-Serif" font-size="10.00">/home/runner/work/CLIP</text>
<text text-anchor="start" x="358.29" y="-293" font-family="Helvetica,sans-Serif" font-size="10.00">/CLIP/include/boundary</text>
<text text-anchor="middle" x="416.79" y="-282" font-family="Helvetica,sans-Serif" font-size="10.00">/Boundary.cuh</text>
</a>
</g>
</g>
<!-- Node2 -->
<g id="Node000002" class="node">
<title>Node2</title>
<g id="a_Node000002"><a xlink:href="DataArray_8cuh.html" target="_top" xlink:title="Defines the DataArray class for managing all host/device memory allocation, data transfer,...">
<polygon fill="white" stroke="#666666" points="504.29,-239 329.29,-239 329.29,-209 504.29,-209 504.29,-239"/>
<text text-anchor="start" x="337.29" y="-227" font-family="Helvetica,sans-Serif" font-size="10.00">/home/runner/work/CLIP</text>
<text text-anchor="middle" x="416.79" y="-216" font-family="Helvetica,sans-Serif" font-size="10.00">/CLIP/include/data/DataArray.cuh</text>
</a>
</g>
</g>
<!-- Node1&#45;&gt;Node2 -->
<g id="edge1_Node000001_Node000002" class="edge">
<title>Node1&#45;&gt;Node2</title>
<g id="a_edge1_Node000001_Node000002"><a xlink:title=" ">
<path fill="none" stroke="#63b8ff" d="M416.79,-264.66C416.79,-255.76 416.79,-246.42 416.79,-239.04"/>
<polygon fill="#63b8ff" stroke="#63b8ff" points="413.29,-264.77 416.79,-274.77 420.29,-264.77 413.29,-264.77"/>
</a>
</g>
</g>
<!-- Node5 -->
<g id="Node000005" class="node">
<title>Node5</title>
<g id="a_Node000005"><a xlink:href="main_8cu.html" target="_top" xlink:title="Main entry point for CLIP: CUDA Lattice Boltzmann Solver for Interfacial Phenomena.">
<polygon fill="white" stroke="#666666" points="435.29,-30 302.29,-30 302.29,0 435.29,0 435.29,-30"/>
<text text-anchor="start" x="310.29" y="-18" font-family="Helvetica,sans-Serif" font-size="10.00">/home/runner/work/CLIP</text>
<text text-anchor="middle" x="368.79" y="-7" font-family="Helvetica,sans-Serif" font-size="10.00">/CLIP/src/main.cu</text>
</a>
</g>
</g>
<!-- Node1&#45;&gt;Node5 -->
<g id="edge23_Node000001_Node000005" class="edge">
<title>Node1&#45;&gt;Node5</title>
<g id="a_edge23_Node000001_Node000005"><a xlink:title=" ">
<path fill="none" stroke="#63b8ff" d="M340.07,-282C234.58,-263.15 53.06,-224.12 11.79,-173 -6.71,-150.08 7.13,-136.42 5.79,-107 4.97,-88.8 -6.18,-79.74 5.79,-66 43.47,-22.78 208.05,-15.64 302.15,-15.19"/>
<polygon fill="#63b8ff" stroke="#63b8ff" points="339.58,-285.47 350.04,-283.77 340.8,-278.58 339.58,-285.47"/>
</a>
</g>
</g>
<!-- Node6 -->
<g id="Node000006" class="node">
<title>Node6</title>
<g id="a_Node000006"><a xlink:href="CheckPointer_8cuh.html" target="_top" xlink:title="Defines the CheckPointer class for saving and restoring simulation state in the CLIP LBM framework.">
<polygon fill="white" stroke="#666666" points="198.79,-173 20.79,-173 20.79,-143 198.79,-143 198.79,-173"/>
<text text-anchor="start" x="28.79" y="-161" font-family="Helvetica,sans-Serif" font-size="10.00">/home/runner/work/CLIP</text>
<text text-anchor="middle" x="109.79" y="-150" font-family="Helvetica,sans-Serif" font-size="10.00">/CLIP/include/io/CheckPointer.cuh</text>
</a>
</g>
</g>
<!-- Node1&#45;&gt;Node6 -->
<g id="edge20_Node000001_Node000006" class="edge">
<title>Node1&#45;&gt;Node6</title>
<g id="a_edge20_Node000001_Node000006"><a xlink:title=" ">
<path fill="none" stroke="#63b8ff" d="M362.96,-270.74C299,-242.51 194.35,-196.32 141.89,-173.17"/>
<polygon fill="#63b8ff" stroke="#63b8ff" points="361.92,-274.11 372.48,-274.94 364.75,-267.7 361.92,-274.11"/>
</a>
</g>
</g>
<!-- Node10 -->
<g id="Node000010" class="node">
<title>Node10</title>
<g id="a_Node000010"><a xlink:href="Solver_8cuh.html" target="_top" xlink:title="Declares the base Solver class that implements common boundary condition logic and field&#45;level utilit...">
<polygon fill="white" stroke="#666666" points="989.29,-173 824.29,-173 824.29,-143 989.29,-143 989.29,-173"/>
<text text-anchor="start" x="832.29" y="-161" font-family="Helvetica,sans-Serif" font-size="10.00">/home/runner/work/CLIP</text>
<text text-anchor="middle" x="906.79" y="-150" font-family="Helvetica,sans-Serif" font-size="10.00">/CLIP/include/solver/Solver.cuh</text>
</a>
</g>
</g>
<!-- Node1&#45;&gt;Node10 -->
<g id="edge21_Node000001_Node000010" class="edge">
<title>Node1&#45;&gt;Node10</title>
<g id="a_edge21_Node000001_Node000010"><a xlink:title=" ">
<path fill="none" stroke="#63b8ff" d="M462.84,-270C479.25,-260.79 497.65,-249.9 513.79,-239 531.63,-226.96 532.01,-217.46 551.79,-209 558.04,-206.33 721.18,-184.01 824.1,-170.1"/>
<polygon fill="#63b8ff" stroke="#63b8ff" points="461,-267.02 453.96,-274.93 464.4,-273.14 461,-267.02"/>
</a>
</g>
</g>
<!-- Node15 -->
<g id="Node000015" class="node">
<title>Node15</title>
<g id="a_Node000015"><a xlink:href="Boundary_8cu.html" target="_top" xlink:title="Implements the Boundary class methods responsible for reading, parsing, and managing boundary conditi...">
<polygon fill="white" stroke="#666666" points="729.29,-239 560.29,-239 560.29,-209 729.29,-209 729.29,-239"/>
<text text-anchor="start" x="568.29" y="-227" font-family="Helvetica,sans-Serif" font-size="10.00">/home/runner/work/CLIP</text>
<text text-anchor="middle" x="644.79" y="-216" font-family="Helvetica,sans-Serif" font-size="10.00">/CLIP/src/boundary/Boundary.cu</text>
</a>
</g>
</g>
<!-- Node1&#45;&gt;Node15 -->
<g id="edge22_Node000001_Node000015" class="edge">
<title>Node1&#45;&gt;Node15</title>
<g id="a_edge22_Node000001_Node000015"><a xlink:title=" ">
<path fill="none" stroke="#63b8ff" d="M490.77,-271.95C526.35,-261.1 567.89,-248.44 598.85,-239"/>
<polygon fill="#63b8ff" stroke="#63b8ff" points="489.46,-268.69 480.91,-274.96 491.5,-275.39 489.46,-268.69"/>
</a>
</g>
</g>
<!-- Node3 -->
<g id="Node000003" class="node">
<title>Node3</title>
<g id="a_Node000003"><a xlink:href="NsAllen_8cuh.html" target="_top" xlink:title="Defines the NSAllen class, a Navier–Stokes solver using the Allen–Cahn phase&#45;field approach within th...">
<polygon fill="white" stroke="#666666" points="860.29,-107 727.29,-107 727.29,-66 860.29,-66 860.29,-107"/>
<text text-anchor="start" x="735.29" y="-95" font-family="Helvetica,sans-Serif" font-size="10.00">/home/runner/work/CLIP</text>
<text text-anchor="start" x="735.29" y="-84" font-family="Helvetica,sans-Serif" font-size="10.00">/CLIP/include/equation</text>
<text text-anchor="middle" x="793.79" y="-73" font-family="Helvetica,sans-Serif" font-size="10.00">/NsAllen.cuh</text>
</a>
</g>
</g>
<!-- Node2&#45;&gt;Node3 -->
<g id="edge2_Node000002_Node000003" class="edge">
<title>Node2&#45;&gt;Node3</title>
<g id="a_edge2_Node000002_Node000003"><a xlink:title=" ">
<path fill="none" stroke="#63b8ff" d="M514.45,-209.52C620.96,-194.81 776.49,-173.28 776.79,-173 794.52,-156.28 796.67,-126.77 795.83,-107.18"/>
<polygon fill="#63b8ff" stroke="#63b8ff" points="513.73,-206.09 504.3,-210.92 514.69,-213.02 513.73,-206.09"/>
</a>
</g>
</g>
<!-- Node2&#45;&gt;Node5 -->
<g id="edge19_Node000002_Node000005" class="edge">
<title>Node2&#45;&gt;Node5</title>
<g id="a_edge19_Node000002_Node000005"><a xlink:title=" ">
<path fill="none" stroke="#63b8ff" d="M326.04,-206.69C290.75,-198.34 256.26,-186.97 245.79,-173 205.71,-119.52 295.98,-57.45 342.83,-30.13"/>
<polygon fill="#63b8ff" stroke="#63b8ff" points="325.46,-210.15 335.99,-208.96 327.02,-203.33 325.46,-210.15"/>
</a>
</g>
</g>
<!-- Node2&#45;&gt;Node6 -->
<g id="edge5_Node000002_Node000006" class="edge">
<title>Node2&#45;&gt;Node6</title>
<g id="a_edge5_Node000002_Node000006"><a xlink:title=" ">
<path fill="none" stroke="#63b8ff" d="M339.61,-206.91C289.55,-196.47 224.96,-183.01 177.01,-173.01"/>
<polygon fill="#63b8ff" stroke="#63b8ff" points="338.92,-210.34 349.42,-208.95 340.35,-203.49 338.92,-210.34"/>
</a>
</g>
</g>
<!-- Node8 -->
<g id="Node000008" class="node">
<title>Node8</title>
<g id="a_Node000008"><a xlink:href="VTSwriter_8cuh.html" target="_top" xlink:title="Defines the VTSwriter class, which writes CLIP simulation output in VTK Structured Grid (....">
<polygon fill="white" stroke="#666666" points="767.29,-173 606.29,-173 606.29,-143 767.29,-143 767.29,-173"/>
<text text-anchor="start" x="614.29" y="-161" font-family="Helvetica,sans-Serif" font-size="10.00">/home/runner/work/CLIP</text>
<text text-anchor="middle" x="686.79" y="-150" font-family="Helvetica,sans-Serif" font-size="10.00">/CLIP/include/io/VTSwriter.cuh</text>
</a>
</g>
</g>
<!-- Node2&#45;&gt;Node8 -->
<g id="edge8_Node000002_Node000008" class="edge">
<title>Node2&#45;&gt;Node8</title>
<g id="a_edge8_Node000002_Node000008"><a xlink:title=" ">
<path fill="none" stroke="#63b8ff" d="M485.78,-206.65C529.65,-196.25 585.86,-182.93 627.68,-173.01"/>
<polygon fill="#63b8ff" stroke="#63b8ff" points="484.97,-203.24 476.05,-208.95 486.58,-210.05 484.97,-203.24"/>
</a>
</g>
</g>
<!-- Node2&#45;&gt;Node10 -->
<g id="edge11_Node000002_Node000010" class="edge">
<title>Node2&#45;&gt;Node10</title>
<g id="a_edge11_Node000002_Node000010"><a xlink:title=" ">
<path fill="none" stroke="#63b8ff" d="M514.36,-209.58C515.85,-209.39 517.33,-209.19 518.79,-209 648.02,-192.14 680.63,-190.31 809.79,-173 814.52,-172.37 819.36,-171.71 824.26,-171.03"/>
<polygon fill="#63b8ff" stroke="#63b8ff" points="513.87,-206.11 504.42,-210.9 514.79,-213.05 513.87,-206.11"/>
</a>
</g>
</g>
<!-- Node12 -->
<g id="Node000012" class="node">
<title>Node12</title>
<g id="a_Node000012"><a xlink:href="Reporter_8cuh_source.html" target="_top" xlink:title=" ">
<polygon fill="white" stroke="#666666" points="588.29,-173 421.29,-173 421.29,-143 588.29,-143 588.29,-173"/>
<text text-anchor="start" x="429.29" y="-161" font-family="Helvetica,sans-Serif" font-size="10.00">/home/runner/work/CLIP</text>
<text text-anchor="middle" x="504.79" y="-150" font-family="Helvetica,sans-Serif" font-size="10.00">/CLIP/include/utils/Reporter.cuh</text>
</a>
</g>
</g>
<!-- Node2&#45;&gt;Node12 -->
<g id="edge15_Node000002_Node000012" class="edge">
<title>Node2&#45;&gt;Node12</title>
<g id="a_edge15_Node000002_Node000012"><a xlink:title=" ">
<path fill="none" stroke="#63b8ff" d="M444.63,-202.75C457.87,-193.13 473.37,-181.86 485.32,-173.16"/>
<polygon fill="#63b8ff" stroke="#63b8ff" points="442.35,-200.08 436.32,-208.8 446.47,-205.75 442.35,-200.08"/>
</a>
</g>
</g>
<!-- Node14 -->
<g id="Node000014" class="node">
<title>Node14</title>
<g id="a_Node000014"><a xlink:href="DataArray_8cu.html" target="_top" xlink:title="Implements the DataArray class, responsible for memory management and data synchronization between ho...">
<polygon fill="white" stroke="#666666" points="402.79,-173 254.79,-173 254.79,-143 402.79,-143 402.79,-173"/>
<text text-anchor="start" x="262.79" y="-161" font-family="Helvetica,sans-Serif" font-size="10.00">/home/runner/work/CLIP</text>
<text text-anchor="middle" x="328.79" y="-150" font-family="Helvetica,sans-Serif" font-size="10.00">/CLIP/src/data/DataArray.cu</text>
</a>
</g>
</g>
<!-- Node2&#45;&gt;Node14 -->
<g id="edge18_Node000002_Node000014" class="edge">
<title>Node2&#45;&gt;Node14</title>
<g id="a_edge18_Node000002_Node000014"><a xlink:title=" ">
<path fill="none" stroke="#63b8ff" d="M388.95,-202.75C375.72,-193.13 360.22,-181.86 348.27,-173.16"/>
<polygon fill="#63b8ff" stroke="#63b8ff" points="387.12,-205.75 397.26,-208.8 391.23,-200.08 387.12,-205.75"/>
</a>
</g>
</g>
<!-- Node4 -->
<g id="Node000004" class="node">
<title>Node4</title>
<g id="a_Node000004"><a xlink:href="NsAllen_8cu.html" target="_top" xlink:title="Implementation of a two&#45;phase Lattice Boltzmann Method (LBM) solver using the Allen–Cahn phase&#45;field ...">
<polygon fill="white" stroke="#666666" points="997.79,-30 839.79,-30 839.79,0 997.79,0 997.79,-30"/>
<text text-anchor="start" x="847.79" y="-18" font-family="Helvetica,sans-Serif" font-size="10.00">/home/runner/work/CLIP</text>
<text text-anchor="middle" x="918.79" y="-7" font-family="Helvetica,sans-Serif" font-size="10.00">/CLIP/src/equation/NsAllen.cu</text>
</a>
</g>
</g>
<!-- Node3&#45;&gt;Node4 -->
<g id="edge3_Node000003_Node000004" class="edge">
<title>Node3&#45;&gt;Node4</title>
<g id="a_edge3_Node000003_Node000004"><a xlink:title=" ">
<path fill="none" stroke="#63b8ff" d="M837.85,-61C856.46,-50.66 877.46,-38.98 893.41,-30.11"/>
<polygon fill="#63b8ff" stroke="#63b8ff" points="835.98,-58.04 828.95,-65.96 839.39,-64.15 835.98,-58.04"/>
</a>
</g>
</g>
<!-- Node3&#45;&gt;Node5 -->
<g id="edge4_Node000003_Node000005" class="edge">
<title>Node3&#45;&gt;Node5</title>
<g id="a_edge4_Node000003_Node000005"><a xlink:title=" ">
<path fill="none" stroke="#63b8ff" d="M717.12,-65.98C613.14,-45.63 503.71,-31.39 435.42,-23.36"/>
<polygon fill="#63b8ff" stroke="#63b8ff" points="716.67,-69.46 727.16,-67.97 718.03,-62.59 716.67,-69.46"/>
</a>
</g>
</g>
<!-- Node6&#45;&gt;Node5 -->
<g id="edge7_Node000006_Node000005" class="edge">
<title>Node6&#45;&gt;Node5</title>
<g id="a_edge7_Node000006_Node000005"><a xlink:title=" ">
<path fill="none" stroke="#63b8ff" d="M137.37,-136.7C149.1,-127.83 162.82,-117.15 174.79,-107 195.19,-89.72 195.81,-79.65 218.79,-66 246.05,-49.81 279.25,-38.05 307.47,-30.02"/>
<polygon fill="#63b8ff" stroke="#63b8ff" points="135.12,-134.01 129.22,-142.81 139.32,-139.61 135.12,-134.01"/>
</a>
</g>
</g>
<!-- Node7 -->
<g id="Node000007" class="node">
<title>Node7</title>
<g id="a_Node000007"><a xlink:href="CheckPointer_8cu.html" target="_top" xlink:title="Handles checkpointing functionality for saving and restoring LBM simulation state.">
<polygon fill="white" stroke="#666666" points="166.29,-101.5 15.29,-101.5 15.29,-71.5 166.29,-71.5 166.29,-101.5"/>
<text text-anchor="start" x="23.29" y="-89.5" font-family="Helvetica,sans-Serif" font-size="10.00">/home/runner/work/CLIP</text>
<text text-anchor="middle" x="90.79" y="-78.5" font-family="Helvetica,sans-Serif" font-size="10.00">/CLIP/src/io/CheckPointer.cu</text>
</a>
</g>
</g>
<!-- Node6&#45;&gt;Node7 -->
<g id="edge6_Node000006_Node000007" class="edge">
<title>Node6&#45;&gt;Node7</title>
<g id="a_edge6_Node000006_Node000007"><a xlink:title=" ">
<path fill="none" stroke="#63b8ff" d="M103.25,-133.08C100.38,-122.56 97.1,-110.58 94.63,-101.54"/>
<polygon fill="#63b8ff" stroke="#63b8ff" points="99.94,-134.21 105.95,-142.94 106.69,-132.37 99.94,-134.21"/>
</a>
</g>
</g>
<!-- Node8&#45;&gt;Node5 -->
<g id="edge10_Node000008_Node000005" class="edge">
<title>Node8&#45;&gt;Node5</title>
<g id="a_edge10_Node000008_Node000005"><a xlink:title=" ">
<path fill="none" stroke="#63b8ff" d="M636.6,-139.27C614.35,-130.65 588.2,-119.47 565.79,-107 538.52,-91.83 536.43,-80.5 508.79,-66 480.23,-51.01 446.18,-38.74 418.81,-30.1"/>
<polygon fill="#63b8ff" stroke="#63b8ff" points="635.61,-142.64 646.2,-142.92 638.1,-136.09 635.61,-142.64"/>
</a>
</g>
</g>
<!-- Node9 -->
<g id="Node000009" class="node">
<title>Node9</title>
<g id="a_Node000009"><a xlink:href="VTSwriter_8cu.html" target="_top" xlink:title="Writes scalar and vector fields to .vts (VTK structured grid) files for ParaView visualization.">
<polygon fill="white" stroke="#666666" points="708.79,-101.5 574.79,-101.5 574.79,-71.5 708.79,-71.5 708.79,-101.5"/>
<text text-anchor="start" x="582.79" y="-89.5" font-family="Helvetica,sans-Serif" font-size="10.00">/home/runner/work/CLIP</text>
<text text-anchor="middle" x="641.79" y="-78.5" font-family="Helvetica,sans-Serif" font-size="10.00">/CLIP/src/io/VTSwriter.cu</text>
</a>
</g>
</g>
<!-- Node8&#45;&gt;Node9 -->
<g id="edge9_Node000008_Node000009" class="edge">
<title>Node8&#45;&gt;Node9</title>
<g id="a_edge9_Node000008_Node000009"><a xlink:title=" ">
<path fill="none" stroke="#63b8ff" d="M672.15,-134.38C665.15,-123.57 656.98,-110.96 650.89,-101.54"/>
<polygon fill="#63b8ff" stroke="#63b8ff" points="669.31,-136.44 677.69,-142.94 675.19,-132.64 669.31,-136.44"/>
</a>
</g>
</g>
<!-- Node10&#45;&gt;Node3 -->
<g id="edge12_Node000010_Node000003" class="edge">
<title>Node10&#45;&gt;Node3</title>
<g id="a_edge12_Node000010_Node000003"><a xlink:title=" ">
<path fill="none" stroke="#63b8ff" d="M875.22,-137.58C859.74,-128.06 841.13,-116.62 825.62,-107.07"/>
<polygon fill="#63b8ff" stroke="#63b8ff" points="873.57,-140.68 883.93,-142.94 877.24,-134.72 873.57,-140.68"/>
</a>
</g>
</g>
<!-- Node10&#45;&gt;Node4 -->
<g id="edge13_Node000010_Node000004" class="edge">
<title>Node10&#45;&gt;Node4</title>
<g id="a_edge13_Node000010_Node000004"><a xlink:title=" ">
<path fill="none" stroke="#63b8ff" d="M985.77,-139.02C1001.55,-131.71 1016.2,-121.43 1025.79,-107 1035.88,-91.82 1035.58,-81.37 1025.79,-66 1014.89,-48.88 996.42,-37.52 977.86,-30.03"/>
<polygon fill="#63b8ff" stroke="#63b8ff" points="984.22,-135.87 976.37,-142.99 986.95,-142.32 984.22,-135.87"/>
</a>
</g>
</g>
<!-- Node11 -->
<g id="Node000011" class="node">
<title>Node11</title>
<g id="a_Node000011"><a xlink:href="Solver_8cu.html" target="_top" xlink:title="Core LBM solver class with all CUDA boundary condition kernels.">
<polygon fill="white" stroke="#666666" points="1016.79,-101.5 878.79,-101.5 878.79,-71.5 1016.79,-71.5 1016.79,-101.5"/>
<text text-anchor="start" x="886.79" y="-89.5" font-family="Helvetica,sans-Serif" font-size="10.00">/home/runner/work/CLIP</text>
<text text-anchor="middle" x="947.79" y="-78.5" font-family="Helvetica,sans-Serif" font-size="10.00">/CLIP/src/solver/Solver.cu</text>
</a>
</g>
</g>
<!-- Node10&#45;&gt;Node11 -->
<g id="edge14_Node000010_Node000011" class="edge">
<title>Node10&#45;&gt;Node11</title>
<g id="a_edge14_Node000010_Node000011"><a xlink:title=" ">
<path fill="none" stroke="#63b8ff" d="M920.33,-134.06C926.66,-123.32 934.01,-110.86 939.51,-101.54"/>
<polygon fill="#63b8ff" stroke="#63b8ff" points="917.16,-132.54 915.09,-142.94 923.19,-136.1 917.16,-132.54"/>
</a>
</g>
</g>
<!-- Node12&#45;&gt;Node5 -->
<g id="edge16_Node000012_Node000005" class="edge">
<title>Node12&#45;&gt;Node5</title>
<g id="a_edge16_Node000012_Node000005"><a xlink:title=" ">
<path fill="none" stroke="#63b8ff" d="M505.61,-132.82C505.03,-112.82 501.15,-84.75 485.79,-66 471.79,-48.91 450.88,-37.55 430.59,-30.04"/>
<polygon fill="#63b8ff" stroke="#63b8ff" points="502.11,-133.01 505.65,-142.99 509.11,-132.98 502.11,-133.01"/>
</a>
</g>
</g>
<!-- Node13 -->
<g id="Node000013" class="node">
<title>Node13</title>
<g id="a_Node000013"><a xlink:href="Reporter_8cu.html" target="_top" xlink:title="Reporting and diagnostics for CLIP simulations.">
<polygon fill="white" stroke="#666666" points="476.79,-101.5 336.79,-101.5 336.79,-71.5 476.79,-71.5 476.79,-101.5"/>
<text text-anchor="start" x="344.79" y="-89.5" font-family="Helvetica,sans-Serif" font-size="10.00">/home/runner/work/CLIP</text>
<text text-anchor="middle" x="406.79" y="-78.5" font-family="Helvetica,sans-Serif" font-size="10.00">/CLIP/src/utils/Reporter.cu</text>
</a>
</g>
</g>
<!-- Node12&#45;&gt;Node13 -->
<g id="edge17_Node000012_Node000013" class="edge">
<title>Node12&#45;&gt;Node13</title>
<g id="a_edge17_Node000012_Node000013"><a xlink:title=" ">
<path fill="none" stroke="#63b8ff" d="M476.51,-136.94C460.52,-125.6 440.93,-111.71 426.6,-101.54"/>
<polygon fill="#63b8ff" stroke="#63b8ff" points="474.78,-140.01 484.96,-142.94 478.83,-134.3 474.78,-140.01"/>
</a>
</g>
</g>
</g>
</svg>

<g id="navigator" transform="translate(0 0)" fill="#404254">
  <rect fill="#f2f5e9" fill-opacity="0.5" stroke="#606060" stroke-width=".5" x="0" y="0" width="60" height="60"/>
  <use id="zoomplus" xlink:href="#zoomPlus" x="17" y="9" onmousedown="handleZoom(evt,'in')"/>
  <use id="zoomminus" xlink:href="#zoomMin" x="42" y="9" onmousedown="handleZoom(evt,'out')"/>
  <use id="reset" xlink:href="#resetDef" x="30" y="36" onmousedown="handleReset()"/>
   <use id="arrowup" xlink:href="#arrowUp" x="0" y="0" onmousedown="handlePan(0,-1)"/>
  <use id="arrowright" xlink:href="#arrowRight" x="0" y="0" onmousedown="handlePan(1,0)"/>
  <use id="arrowdown" xlink:href="#arrowDown" x="0" y="0" onmousedown="handlePan(0,1)"/>
  <use id="arrowleft" xlink:href="#arrowLeft" x="0" y="0" onmousedown="handlePan(-1,0)"/>
</g>
<svg viewBox="0 0 15 15" width="100%" height="30px" preserveAspectRatio="xMaxYMin meet">
 <g id="arrow_out" transform="scale(0.3 0.3)">
  <a xlink:href="Boundary_8cuh__dep__incl_org.svg" target="_base">
   <rect id="button" ry="5" rx="5" y="6" x="6" height="38" width="38"
        fill="#f2f5e9" fill-opacity="0.5" stroke="#606060" stroke-width="1.0"/>
   <path id="arrow"
     d="M 11.500037,31.436501 C 11.940474,20.09759 22.043105,11.32322 32.158766,21.979434 L 37.068811,17.246167 C 37.068811,17.246167 37.088388,32 37.088388,32 L 22.160133,31.978069 C 22.160133,31.978069 26.997745,27.140456 26.997745,27.140456 C 18.528582,18.264221 13.291696,25.230495 11.500037,31.436501 z"
     style="fill:#404040;"/>
  </a>
 </g>
</svg>

<style type='text/css'>
<![CDATA[
[data-mouse-over-selected='false'] { opacity: 0.7; }
[data-mouse-over-selected='true']  { opacity: 1.0; }
]]>
</style>
<script type="application/ecmascript"><![CDATA[
document.addEventListener('DOMContentLoaded', (event) => {
  highlightEdges();
  highlightAdjacentNodes();
});
]]></script>
</svg>
