<?xml version="1.0" encoding="UTF-8" standalone="no"?>
<!DOCTYPE svg PUBLIC "-//W3C//DTD SVG 1.1//EN"
 "http://www.w3.org/Graphics/SVG/1.1/DTD/svg11.dtd">
<!-- Generated by graphviz version 2.43.0 (0)
 -->
<!-- Title: clip::Geometry::getDeviceStruct Pages: 1 -->
<svg width="311pt" height="64pt"
 viewBox="0.00 0.00 311.00 64.00" xmlns="http://www.w3.org/2000/svg" xmlns:xlink="http://www.w3.org/1999/xlink">
<g id="graph0" class="graph" transform="scale(1 1) rotate(0) translate(4 60)">
<title>clip::Geometry::getDeviceStruct</title>
<!-- Node1 -->
<g id="Node000001" class="node">
<title>Node1</title>
<g id="a_Node000001"><a xlink:title="Returns the device&#45;side structure containing all geometry data.">
<polygon fill="#999999" stroke="#666666" points="303,-42.5 160,-42.5 160,-12.5 303,-12.5 303,-42.5"/>
<text text-anchor="start" x="168" y="-30.5" font-family="Helvetica,sans-Serif" font-size="10.00">clip::Geometry::getDevice</text>
<text text-anchor="middle" x="231.5" y="-19.5" font-family="Helvetica,sans-Serif" font-size="10.00">Struct</text>
</a>
</g>
</g>
<!-- Node2 -->
<g id="Node000002" class="node">
<title>Node2</title>
<g id="a_Node000002"><a xlink:href="classclip_1_1NSAllen.html#a68c7d5be88dbcaf2bb987cefdfda5344" target="_top" xlink:title="Constructor for NSAllen solver.">
<polygon fill="white" stroke="#666666" points="124,-56 0,-56 0,-37 124,-37 124,-56"/>
<text text-anchor="middle" x="62" y="-44" font-family="Helvetica,sans-Serif" font-size="10.00">clip::NSAllen::NSAllen</text>
</a>
</g>
</g>
<!-- Node1&#45;&gt;Node2 -->
<g id="edge1_Node000001_Node000002" class="edge">
<title>Node1&#45;&gt;Node2</title>
<g id="a_edge1_Node000001_Node000002"><a xlink:title=" ">
<path fill="none" stroke="#63b8ff" d="M149.85,-36.65C141.22,-37.63 132.53,-38.61 124.18,-39.56"/>
<polygon fill="#63b8ff" stroke="#63b8ff" points="150.41,-40.11 159.95,-35.5 149.62,-33.15 150.41,-40.11"/>
</a>
</g>
</g>
<!-- Node3 -->
<g id="Node000003" class="node">
<title>Node3</title>
<g id="a_Node000003"><a xlink:href="classclip_1_1Solver.html#a67732a41fa608d748fbbaf5516d9792c" target="_top" xlink:title="Constructs a Solver and links input, domain, and geometry data.">
<polygon fill="white" stroke="#666666" points="115.5,-19 8.5,-19 8.5,0 115.5,0 115.5,-19"/>
<text text-anchor="middle" x="62" y="-7" font-family="Helvetica,sans-Serif" font-size="10.00">clip::Solver::Solver</text>
</a>
</g>
</g>
<!-- Node1&#45;&gt;Node3 -->
<g id="edge2_Node000001_Node000003" class="edge">
<title>Node1&#45;&gt;Node3</title>
<g id="a_edge2_Node000001_Node000003"><a xlink:title=" ">
<path fill="none" stroke="#63b8ff" d="M149.8,-18.83C138.2,-17.58 126.52,-16.33 115.65,-15.16"/>
<polygon fill="#63b8ff" stroke="#63b8ff" points="149.63,-22.33 159.95,-19.92 150.38,-15.37 149.63,-22.33"/>
</a>
</g>
</g>
</g>
</svg>
