<?xml version="1.0" encoding="UTF-8" standalone="no"?>
<!DOCTYPE svg PUBLIC "-//W3C//DTD SVG 1.1//EN"
 "http://www.w3.org/Graphics/SVG/1.1/DTD/svg11.dtd">
<!-- Generated by graphviz version 2.43.0 (0)
 -->
<!-- Title: clip::DataArray Pages: 1 -->
<svg width="316pt" height="104pt"
 viewBox="0.00 0.00 315.50 104.00" xmlns="http://www.w3.org/2000/svg" xmlns:xlink="http://www.w3.org/1999/xlink">
<g id="graph0" class="graph" transform="scale(1 1) rotate(0) translate(4 100)">
<title>clip::DataArray</title>
<!-- Node1 -->
<g id="Node000001" class="node">
<title>Node1</title>
<g id="a_Node000001"><a xlink:title="Manages all host and device memory allocations for the CLIP LBM solver.">
<polygon fill="#999999" stroke="#666666" points="200.5,-19 111.5,-19 111.5,0 200.5,0 200.5,-19"/>
<text text-anchor="middle" x="156" y="-7" font-family="Helvetica,sans-Serif" font-size="10.00">clip::DataArray</text>
</a>
</g>
</g>
<!-- Node2 -->
<g id="Node000002" class="node">
<title>Node2</title>
<g id="a_Node000002"><a xlink:href="structclip_1_1DataArray_1_1deviceDataArray.html" target="_top" xlink:title="Struct holding all device&#45;side (GPU) pointers for LBM fields.">
<polygon fill="white" stroke="#666666" points="150,-96 0,-96 0,-66 150,-66 150,-96"/>
<text text-anchor="start" x="8" y="-84" font-family="Helvetica,sans-Serif" font-size="10.00">clip::DataArray::deviceData</text>
<text text-anchor="middle" x="75" y="-73" font-family="Helvetica,sans-Serif" font-size="10.00">Array</text>
</a>
</g>
</g>
<!-- Node2&#45;&gt;Node1 -->
<g id="edge1_Node000001_Node000002" class="edge">
<title>Node2&#45;&gt;Node1</title>
<g id="a_edge1_Node000001_Node000002"><a xlink:title=" ">
<path fill="none" stroke="#9a32cd" stroke-dasharray="5,2" d="M99.12,-59.31C114.68,-45.95 134.13,-29.26 145.78,-19.27"/>
<polygon fill="#9a32cd" stroke="#9a32cd" points="96.7,-56.77 91.39,-65.94 101.26,-62.08 96.7,-56.77"/>
</a>
</g>
<text text-anchor="middle" x="148" y="-40" font-family="Helvetica,sans-Serif" font-size="10.00" fill="grey"> deviceDA</text>
</g>
<!-- Node3 -->
<g id="Node000003" class="node">
<title>Node3</title>
<g id="a_Node000003"><a xlink:href="structclip_1_1DataArray_1_1hostDataArray.html" target="_top" xlink:title="Struct holding all host&#45;side (CPU) pointers for LBM fields.">
<polygon fill="white" stroke="#666666" points="307.5,-96 168.5,-96 168.5,-66 307.5,-66 307.5,-96"/>
<text text-anchor="start" x="176.5" y="-84" font-family="Helvetica,sans-Serif" font-size="10.00">clip::DataArray::hostData</text>
<text text-anchor="middle" x="238" y="-73" font-family="Helvetica,sans-Serif" font-size="10.00">Array</text>
</a>
</g>
</g>
<!-- Node3&#45;&gt;Node1 -->
<g id="edge2_Node000001_Node000003" class="edge">
<title>Node3&#45;&gt;Node1</title>
<g id="a_edge2_Node000001_Node000003"><a xlink:title=" ">
<path fill="none" stroke="#9a32cd" stroke-dasharray="5,2" d="M213.59,-59.31C197.83,-45.95 178.14,-29.26 166.34,-19.27"/>
<polygon fill="#9a32cd" stroke="#9a32cd" points="211.51,-62.14 221.41,-65.94 216.04,-56.8 211.51,-62.14"/>
</a>
</g>
<text text-anchor="middle" x="218.5" y="-40" font-family="Helvetica,sans-Serif" font-size="10.00" fill="grey"> hostDA</text>
</g>
</g>
</svg>
