<?xml version="1.0" encoding="UTF-8" standalone="no"?>
<!DOCTYPE svg PUBLIC "-//W3C//DTD SVG 1.1//EN"
 "http://www.w3.org/Graphics/SVG/1.1/DTD/svg11.dtd">
<!-- Generated by graphviz version 2.43.0 (0)
 -->
<!-- Title: clip::Domain::getIndex Pages: 1 -->
<svg width="346pt" height="962pt"
 viewBox="0.00 0.00 346.00 962.00" xmlns="http://www.w3.org/2000/svg" xmlns:xlink="http://www.w3.org/1999/xlink">
<g id="graph0" class="graph" transform="scale(1 1) rotate(0) translate(4 958)">
<title>clip::Domain::getIndex</title>
<!-- Node1 -->
<g id="Node000001" class="node">
<title>Node1</title>
<g id="a_Node000001"><a xlink:title="Computes a flattened 1D index for multi&#45;DOF data.">
<polygon fill="#999999" stroke="#666666" points="338,-486 211,-486 211,-467 338,-467 338,-486"/>
<text text-anchor="middle" x="274.5" y="-474" font-family="Helvetica,sans-Serif" font-size="10.00">clip::Domain::getIndex</text>
</a>
</g>
</g>
<!-- Node2 -->
<g id="Node000002" class="node">
<title>Node2</title>
<g id="a_Node000002"><a xlink:href="NsAllen_8cu.html#a75d26e8bcf2c697e0e96ab56556bc9c8" target="_top" xlink:title="Computes chemical potential from current phase field using Allen–Cahn model.">
<polygon fill="white" stroke="#666666" points="154.5,-936 20.5,-936 20.5,-917 154.5,-917 154.5,-936"/>
<text text-anchor="middle" x="87.5" y="-924" font-family="Helvetica,sans-Serif" font-size="10.00">clip::Chemical_Potential</text>
</a>
</g>
</g>
<!-- Node1&#45;&gt;Node2 -->
<g id="edge1_Node000001_Node000002" class="edge">
<title>Node1&#45;&gt;Node2</title>
<g id="a_edge1_Node000001_Node000002"><a xlink:title=" ">
<path fill="none" stroke="#63b8ff" d="M271.76,-496.5C264.66,-573.49 235.32,-849.31 175,-908.5 169.31,-914.09 162.36,-918.15 154.9,-921.07"/>
<polygon fill="#63b8ff" stroke="#63b8ff" points="275.27,-496.55 272.68,-486.27 268.3,-495.92 275.27,-496.55"/>
</a>
</g>
</g>
<!-- Node3 -->
<g id="Node000003" class="node">
<title>Node3</title>
<g id="a_Node000003"><a xlink:href="classclip_1_1NSAllen.html#aade5ed277f55de9d81fcdd5640e9d2d6" target="_top" xlink:title="Sets the initial state of the simulation.">
<polygon fill="white" stroke="#666666" points="167,-899 8,-899 8,-880 167,-880 167,-899"/>
<text text-anchor="middle" x="87.5" y="-887" font-family="Helvetica,sans-Serif" font-size="10.00">clip::NSAllen::initialCondition</text>
</a>
</g>
</g>
<!-- Node1&#45;&gt;Node3 -->
<g id="edge3_Node000001_Node000003" class="edge">
<title>Node1&#45;&gt;Node3</title>
<g id="a_edge3_Node000001_Node000003"><a xlink:title=" ">
<path fill="none" stroke="#63b8ff" d="M271.34,-496.18C263.01,-568.48 230.61,-818.03 175,-871.5 171.57,-874.8 167.71,-877.56 163.56,-879.87"/>
<polygon fill="#63b8ff" stroke="#63b8ff" points="274.83,-496.48 272.47,-486.15 267.87,-495.7 274.83,-496.48"/>
</a>
</g>
</g>
<!-- Node4 -->
<g id="Node000004" class="node">
<title>Node4</title>
<g id="a_Node000004"><a xlink:href="NsAllen_8cu.html#a5546789ca3c4c5758b8967319c56db08" target="_top" xlink:title="Computes isotropic central difference gradient of phase field c.">
<polygon fill="white" stroke="#666666" points="152,-844 23,-844 23,-825 152,-825 152,-844"/>
<text text-anchor="middle" x="87.5" y="-832" font-family="Helvetica,sans-Serif" font-size="10.00">clip::Isotropic_Gradient</text>
</a>
</g>
</g>
<!-- Node1&#45;&gt;Node4 -->
<g id="edge4_Node000001_Node000004" class="edge">
<title>Node1&#45;&gt;Node4</title>
<g id="a_edge4_Node000001_Node000004"><a xlink:title=" ">
<path fill="none" stroke="#63b8ff" d="M274.26,-496.21C275.36,-554.66 270.12,-728.42 175,-816.5 168.58,-822.44 160.74,-826.63 152.42,-829.55"/>
<polygon fill="#63b8ff" stroke="#63b8ff" points="277.76,-496.02 273.98,-486.12 270.76,-496.21 277.76,-496.02"/>
</a>
</g>
</g>
<!-- Node5 -->
<g id="Node000005" class="node">
<title>Node5</title>
<g id="a_Node000005"><a xlink:href="Solver_8cu.html#ab311646a75605c814a6112f965b08f28" target="_top" xlink:title="Enforces velocity inlet boundaries using equilibrium&#45;based reflection.">
<polygon fill="white" stroke="#666666" points="137,-789 38,-789 38,-770 137,-770 137,-789"/>
<text text-anchor="middle" x="87.5" y="-777" font-family="Helvetica,sans-Serif" font-size="10.00">clip::JetBoundary</text>
</a>
</g>
</g>
<!-- Node1&#45;&gt;Node5 -->
<g id="edge6_Node000001_Node000005" class="edge">
<title>Node1&#45;&gt;Node5</title>
<g id="a_edge6_Node000001_Node000005"><a xlink:title=" ">
<path fill="none" stroke="#63b8ff" d="M272.98,-496.42C270.46,-548.59 256.12,-690.13 175,-761.5 164.64,-770.62 150.87,-775.55 137.37,-778.11"/>
<polygon fill="#63b8ff" stroke="#63b8ff" points="276.48,-496.31 273.37,-486.18 269.49,-496.04 276.48,-496.31"/>
</a>
</g>
</g>
<!-- Node6 -->
<g id="Node000006" class="node">
<title>Node6</title>
<g id="a_Node000006"><a xlink:href="NsAllen_8cu.html#aedad68d26df71048d527a28ddff8d870" target="_top" xlink:title="Applies MRT collision operator for momentum distribution f, including force correction.">
<polygon fill="white" stroke="#666666" points="156,-734 19,-734 19,-715 156,-715 156,-734"/>
<text text-anchor="middle" x="87.5" y="-722" font-family="Helvetica,sans-Serif" font-size="10.00">clip::kernelCollisionMRTf</text>
</a>
</g>
</g>
<!-- Node1&#45;&gt;Node6 -->
<g id="edge8_Node000001_Node000006" class="edge">
<title>Node1&#45;&gt;Node6</title>
<g id="a_edge8_Node000001_Node000006"><a xlink:title=" ">
<path fill="none" stroke="#63b8ff" d="M271.17,-496.15C264.75,-540.99 242.57,-651.22 175,-706.5 169.42,-711.06 162.97,-714.56 156.17,-717.23"/>
<polygon fill="#63b8ff" stroke="#63b8ff" points="274.64,-496.61 272.48,-486.24 267.7,-495.69 274.64,-496.61"/>
</a>
</g>
</g>
<!-- Node7 -->
<g id="Node000007" class="node">
<title>Node7</title>
<g id="a_Node000007"><a xlink:href="NsAllen_8cu.html#ab1715d7bdc80b87a920ae9087c026f76" target="_top" xlink:title="Applies MRT collision operator for phase field distribution g.">
<polygon fill="white" stroke="#666666" points="157,-679 18,-679 18,-660 157,-660 157,-679"/>
<text text-anchor="middle" x="87.5" y="-667" font-family="Helvetica,sans-Serif" font-size="10.00">clip::kernelCollisionMRTg</text>
</a>
</g>
</g>
<!-- Node1&#45;&gt;Node7 -->
<g id="edge10_Node000001_Node000007" class="edge">
<title>Node1&#45;&gt;Node7</title>
<g id="a_edge10_Node000001_Node000007"><a xlink:title=" ">
<path fill="none" stroke="#63b8ff" d="M268.26,-496.36C257.45,-533.2 229.06,-611.95 175,-651.5 169.55,-655.49 163.42,-658.63 157.01,-661.11"/>
<polygon fill="#63b8ff" stroke="#63b8ff" points="271.73,-496.94 271.06,-486.36 264.99,-495.05 271.73,-496.94"/>
</a>
</g>
</g>
<!-- Node8 -->
<g id="Node000008" class="node">
<title>Node8</title>
<g id="a_Node000008"><a xlink:href="Solver_8cu.html#ad085f7f00f151a309263f19341385e5b" target="_top" xlink:title="Implements free&#45;convective outlet boundary (do&#45;nothing).">
<polygon fill="white" stroke="#666666" points="153,-624 22,-624 22,-605 153,-605 153,-624"/>
<text text-anchor="middle" x="87.5" y="-612" font-family="Helvetica,sans-Serif" font-size="10.00">clip::kernelFreeConvect</text>
</a>
</g>
</g>
<!-- Node1&#45;&gt;Node8 -->
<g id="edge12_Node000001_Node000008" class="edge">
<title>Node1&#45;&gt;Node8</title>
<g id="a_edge12_Node000001_Node000008"><a xlink:title=" ">
<path fill="none" stroke="#63b8ff" d="M263.79,-494.95C248.62,-521.82 216.69,-571.27 175,-596.5 168.31,-600.55 160.85,-603.7 153.19,-606.15"/>
<polygon fill="#63b8ff" stroke="#63b8ff" points="266.87,-496.61 268.6,-486.16 260.73,-493.25 266.87,-496.61"/>
</a>
</g>
</g>
<!-- Node9 -->
<g id="Node000009" class="node">
<title>Node9</title>
<g id="a_Node000009"><a xlink:href="Solver_8cu.html#a6962e3a0a004a09790daddd08ae7658f" target="_top" xlink:title="Applies full bounce&#45;back for walls (legacy implementation).">
<polygon fill="white" stroke="#666666" points="158,-569 17,-569 17,-550 158,-550 158,-569"/>
<text text-anchor="middle" x="87.5" y="-557" font-family="Helvetica,sans-Serif" font-size="10.00">clip::kernelFullBouncBack</text>
</a>
</g>
</g>
<!-- Node1&#45;&gt;Node9 -->
<g id="edge14_Node000001_Node000009" class="edge">
<title>Node1&#45;&gt;Node9</title>
<g id="a_edge14_Node000001_Node000009"><a xlink:title=" ">
<path fill="none" stroke="#63b8ff" d="M254.33,-492.37C235.34,-507.27 204.86,-529.08 175,-541.5 166.79,-544.92 157.85,-547.71 148.95,-549.99"/>
<polygon fill="#63b8ff" stroke="#63b8ff" points="256.58,-495.05 262.2,-486.06 252.2,-489.58 256.58,-495.05"/>
</a>
</g>
</g>
<!-- Node10 -->
<g id="Node000010" class="node">
<title>Node10</title>
<g id="a_Node000010"><a xlink:href="Solver_8cu.html#a6248cdec673b75e10b3a664ec2c54a54" target="_top" xlink:title="Applies half&#45;way bounce&#45;back for wall and slip boundaries.">
<polygon fill="white" stroke="#666666" points="162.5,-514 12.5,-514 12.5,-495 162.5,-495 162.5,-514"/>
<text text-anchor="middle" x="87.5" y="-502" font-family="Helvetica,sans-Serif" font-size="10.00">clip::kernelHalfBounceBack</text>
</a>
</g>
</g>
<!-- Node1&#45;&gt;Node10 -->
<g id="edge16_Node000001_Node000010" class="edge">
<title>Node1&#45;&gt;Node10</title>
<g id="a_edge16_Node000001_Node000010"><a xlink:title=" ">
<path fill="none" stroke="#63b8ff" d="M200.83,-487.5C184.49,-489.97 167.28,-492.58 151.38,-494.98"/>
<polygon fill="#63b8ff" stroke="#63b8ff" points="201.5,-490.94 210.87,-485.98 200.46,-484.02 201.5,-490.94"/>
</a>
</g>
</g>
<!-- Node11 -->
<g id="Node000011" class="node">
<title>Node11</title>
<g id="a_Node000011"><a xlink:href="NsAllen_8cu.html#ad1d2ac4e591cb614c31cb6ef292bab8b" target="_top" xlink:title="Initializes device&#45;side distributions, density, pressure, velocity, and normals.">
<polygon fill="white" stroke="#666666" points="175,-459 0,-459 0,-440 175,-440 175,-459"/>
<text text-anchor="middle" x="87.5" y="-447" font-family="Helvetica,sans-Serif" font-size="10.00">clip::KernelInitializeDistributions</text>
</a>
</g>
</g>
<!-- Node1&#45;&gt;Node11 -->
<g id="edge18_Node000001_Node000011" class="edge">
<title>Node1&#45;&gt;Node11</title>
<g id="a_edge18_Node000001_Node000011"><a xlink:title=" ">
<path fill="none" stroke="#63b8ff" d="M200.77,-465.89C185.2,-463.61 168.85,-461.23 153.59,-459"/>
<polygon fill="#63b8ff" stroke="#63b8ff" points="200.47,-469.38 210.87,-467.36 201.48,-462.45 200.47,-469.38"/>
</a>
</g>
</g>
<!-- Node12 -->
<g id="Node000012" class="node">
<title>Node12</title>
<g id="a_Node000012"><a xlink:href="NsAllen_8cu.html#aa10e41daef6dce572416e72c28c8c79e" target="_top" xlink:title="Computes macroscopic velocity and pressure from f_post, including body forces.">
<polygon fill="white" stroke="#666666" points="154.5,-404 20.5,-404 20.5,-385 154.5,-385 154.5,-404"/>
<text text-anchor="middle" x="87.5" y="-392" font-family="Helvetica,sans-Serif" font-size="10.00">clip::kernelMacroscopicf</text>
</a>
</g>
</g>
<!-- Node1&#45;&gt;Node12 -->
<g id="edge20_Node000001_Node000012" class="edge">
<title>Node1&#45;&gt;Node12</title>
<g id="a_edge20_Node000001_Node000012"><a xlink:title=" ">
<path fill="none" stroke="#63b8ff" d="M243.54,-462.59C224.07,-453.6 198.09,-441.71 175,-431.5 153.49,-421.99 128.81,-411.47 111.33,-404.09"/>
<polygon fill="#63b8ff" stroke="#63b8ff" points="242.27,-465.85 252.81,-466.87 245.21,-459.5 242.27,-465.85"/>
</a>
</g>
</g>
<!-- Node13 -->
<g id="Node000013" class="node">
<title>Node13</title>
<g id="a_Node000013"><a xlink:href="NsAllen_8cu.html#a06808fca5cf4f4ceaf738a5c2060eb2a" target="_top" xlink:title="Computes phase field c and density rho from g_post.">
<polygon fill="white" stroke="#666666" points="156,-349 19,-349 19,-330 156,-330 156,-349"/>
<text text-anchor="middle" x="87.5" y="-337" font-family="Helvetica,sans-Serif" font-size="10.00">clip::kernelMacroscopicg</text>
</a>
</g>
</g>
<!-- Node1&#45;&gt;Node13 -->
<g id="edge22_Node000001_Node000013" class="edge">
<title>Node1&#45;&gt;Node13</title>
<g id="a_edge22_Node000001_Node000013"><a xlink:title=" ">
<path fill="none" stroke="#63b8ff" d="M259.64,-458.66C241.96,-436.88 209.5,-400.03 175,-376.5 157.59,-364.63 135.76,-355.33 118.39,-349.02"/>
<polygon fill="#63b8ff" stroke="#63b8ff" points="257.1,-461.1 266.07,-466.73 262.58,-456.73 257.1,-461.1"/>
</a>
</g>
</g>
<!-- Node14 -->
<g id="Node000014" class="node">
<title>Node14</title>
<g id="a_Node000014"><a xlink:href="Solver_8cu.html#ad8daf35d0201707359499f0f350e2f3b" target="_top" xlink:title="Applies mirror boundary for scalar fields (copies inner value to ghost).">
<polygon fill="white" stroke="#666666" points="160.5,-294 14.5,-294 14.5,-275 160.5,-275 160.5,-294"/>
<text text-anchor="middle" x="87.5" y="-282" font-family="Helvetica,sans-Serif" font-size="10.00">clip::kernelMirrorBoundary</text>
</a>
</g>
</g>
<!-- Node1&#45;&gt;Node14 -->
<g id="edge24_Node000001_Node000014" class="edge">
<title>Node1&#45;&gt;Node14</title>
<g id="a_edge24_Node000001_Node000014"><a xlink:title=" ">
<path fill="none" stroke="#63b8ff" d="M265.76,-457.14C252.01,-424.93 220.4,-360.09 175,-321.5 160.19,-308.91 140.46,-300.03 123.58,-294.13"/>
<polygon fill="#63b8ff" stroke="#63b8ff" points="262.68,-458.83 269.74,-466.73 269.14,-456.15 262.68,-458.83"/>
</a>
</g>
</g>
<!-- Node15 -->
<g id="Node000015" class="node">
<title>Node15</title>
<g id="a_Node000015"><a xlink:href="Solver_8cu.html#abcd55b8677d3f06dc1d5f03220485354" target="_top" xlink:title="Applies zero&#45;gradient Neumann boundary conditions.">
<polygon fill="white" stroke="#666666" points="146,-239 29,-239 29,-220 146,-220 146,-239"/>
<text text-anchor="middle" x="87.5" y="-227" font-family="Helvetica,sans-Serif" font-size="10.00">clip::kernelNeumann</text>
</a>
</g>
</g>
<!-- Node1&#45;&gt;Node15 -->
<g id="edge26_Node000001_Node000015" class="edge">
<title>Node1&#45;&gt;Node15</title>
<g id="a_edge26_Node000001_Node000015"><a xlink:title=" ">
<path fill="none" stroke="#63b8ff" d="M269.3,-456.93C259.61,-416.21 232.04,-321.61 175,-266.5 161.61,-253.56 142.99,-244.81 126.46,-239.08"/>
<polygon fill="#63b8ff" stroke="#63b8ff" points="265.89,-457.72 271.52,-466.7 272.72,-456.17 265.89,-457.72"/>
</a>
</g>
</g>
<!-- Node16 -->
<g id="Node000016" class="node">
<title>Node16</title>
<g id="a_Node000016"><a xlink:href="Solver_8cu.html#a12a43b64ed599d8a4243232662ab021c" target="_top" xlink:title="Applies periodic boundary conditions in X, Y (and Z if 3D).">
<polygon fill="white" stroke="#666666" points="165,-184 10,-184 10,-165 165,-165 165,-184"/>
<text text-anchor="middle" x="87.5" y="-172" font-family="Helvetica,sans-Serif" font-size="10.00">clip::kernelPeriodicBoundary</text>
</a>
</g>
</g>
<!-- Node1&#45;&gt;Node16 -->
<g id="edge28_Node000001_Node000016" class="edge">
<title>Node1&#45;&gt;Node16</title>
<g id="a_edge28_Node000001_Node000016"><a xlink:title=" ">
<path fill="none" stroke="#63b8ff" d="M271.48,-456.88C265.54,-408.82 243.96,-283.87 175,-211.5 162.49,-198.37 144.57,-189.67 128.28,-184.03"/>
<polygon fill="#63b8ff" stroke="#63b8ff" points="268.01,-457.35 272.62,-466.89 274.97,-456.56 268.01,-457.35"/>
</a>
</g>
</g>
<!-- Node17 -->
<g id="Node000017" class="node">
<title>Node17</title>
<g id="a_Node000017"><a xlink:href="NsAllen_8cu.html#a14d1249e96c913f2cb859cd166e72b67" target="_top" xlink:title="Streams lattice values from neighboring nodes to current node for f or g.">
<polygon fill="white" stroke="#666666" points="147.5,-129 27.5,-129 27.5,-110 147.5,-110 147.5,-129"/>
<text text-anchor="middle" x="87.5" y="-117" font-family="Helvetica,sans-Serif" font-size="10.00">clip::kernelStreaming</text>
</a>
</g>
</g>
<!-- Node1&#45;&gt;Node17 -->
<g id="edge30_Node000001_Node000017" class="edge">
<title>Node1&#45;&gt;Node17</title>
<g id="a_edge30_Node000001_Node000017"><a xlink:title=" ">
<path fill="none" stroke="#63b8ff" d="M272.95,-456.6C270.38,-401.74 255.94,-246.47 175,-156.5 163.2,-143.39 145.96,-134.75 129.97,-129.15"/>
<polygon fill="#63b8ff" stroke="#63b8ff" points="269.45,-456.86 273.33,-466.72 276.45,-456.6 269.45,-456.86"/>
</a>
</g>
</g>
<!-- Node18 -->
<g id="Node000018" class="node">
<title>Node18</title>
<g id="a_Node000018"><a xlink:href="NsAllen_8cu.html#af6165f4be8fc7f72e36315f84d938026" target="_top" xlink:title="Computes normalized interface normals using finite difference of c.">
<polygon fill="white" stroke="#666666" points="134,-74 41,-74 41,-55 134,-55 134,-74"/>
<text text-anchor="middle" x="87.5" y="-62" font-family="Helvetica,sans-Serif" font-size="10.00">clip::normal_FD</text>
</a>
</g>
</g>
<!-- Node1&#45;&gt;Node18 -->
<g id="edge32_Node000001_Node000018" class="edge">
<title>Node1&#45;&gt;Node18</title>
<g id="a_edge32_Node000001_Node000018"><a xlink:title=" ">
<path fill="none" stroke="#63b8ff" d="M274.03,-456.52C274.58,-395.55 268.14,-209.48 175,-101.5 163.59,-88.27 146.6,-79.63 130.7,-74.06"/>
<polygon fill="#63b8ff" stroke="#63b8ff" points="270.53,-456.64 273.86,-466.69 277.53,-456.75 270.53,-456.64"/>
</a>
</g>
</g>
<!-- Node19 -->
<g id="Node000019" class="node">
<title>Node19</title>
<g id="a_Node000019"><a xlink:href="Reporter_8cu.html#ac2b96b9e65eff713340612465fcdbc2a" target="_top" xlink:title="CUDA kernel for parallel sum reduction over a scalar field.">
<polygon fill="white" stroke="#666666" points="157.5,-19 17.5,-19 17.5,0 157.5,0 157.5,-19"/>
<text text-anchor="middle" x="87.5" y="-7" font-family="Helvetica,sans-Serif" font-size="10.00">clip::sumReductionKernel</text>
</a>
</g>
</g>
<!-- Node1&#45;&gt;Node19 -->
<g id="edge34_Node000001_Node000019" class="edge">
<title>Node1&#45;&gt;Node19</title>
<g id="a_edge34_Node000001_Node000019"><a xlink:title=" ">
<path fill="none" stroke="#63b8ff" d="M271.38,-456.93C262.85,-381.56 228.94,-111.07 175,-46.5 163.9,-33.21 147.16,-24.58 131.36,-19.04"/>
<polygon fill="#63b8ff" stroke="#63b8ff" points="267.91,-457.39 272.49,-466.94 274.86,-456.62 267.91,-457.39"/>
</a>
</g>
</g>
<!-- Node2&#45;&gt;Node2 -->
<g id="edge2_Node000002_Node000002" class="edge">
<title>Node2&#45;&gt;Node2</title>
<g id="a_edge2_Node000002_Node000002"><a xlink:title=" ">
<path fill="none" stroke="#63b8ff" d="M122.36,-944.07C121.85,-949.62 110.23,-954 87.5,-954 54.44,-954 44.89,-944.73 58.83,-936.08"/>
<polygon fill="#63b8ff" stroke="#63b8ff" points="125.06,-941.84 116.17,-936.08 119.53,-946.13 125.06,-941.84"/>
</a>
</g>
</g>
<!-- Node4&#45;&gt;Node4 -->
<g id="edge5_Node000004_Node000004" class="edge">
<title>Node4&#45;&gt;Node4</title>
<g id="a_edge5_Node000004_Node000004"><a xlink:title=" ">
<path fill="none" stroke="#63b8ff" d="M122.36,-852.07C121.85,-857.62 110.23,-862 87.5,-862 54.44,-862 44.89,-852.73 58.83,-844.08"/>
<polygon fill="#63b8ff" stroke="#63b8ff" points="125.06,-849.84 116.17,-844.08 119.53,-854.13 125.06,-849.84"/>
</a>
</g>
</g>
<!-- Node5&#45;&gt;Node5 -->
<g id="edge7_Node000005_Node000005" class="edge">
<title>Node5&#45;&gt;Node5</title>
<g id="a_edge7_Node000005_Node000005"><a xlink:title=" ">
<path fill="none" stroke="#63b8ff" d="M122.36,-797.07C121.85,-802.62 110.23,-807 87.5,-807 54.44,-807 44.89,-797.73 58.83,-789.08"/>
<polygon fill="#63b8ff" stroke="#63b8ff" points="125.06,-794.84 116.17,-789.08 119.53,-799.13 125.06,-794.84"/>
</a>
</g>
</g>
<!-- Node6&#45;&gt;Node6 -->
<g id="edge9_Node000006_Node000006" class="edge">
<title>Node6&#45;&gt;Node6</title>
<g id="a_edge9_Node000006_Node000006"><a xlink:title=" ">
<path fill="none" stroke="#63b8ff" d="M122.36,-742.07C121.85,-747.62 110.23,-752 87.5,-752 54.44,-752 44.89,-742.73 58.83,-734.08"/>
<polygon fill="#63b8ff" stroke="#63b8ff" points="125.06,-739.84 116.17,-734.08 119.53,-744.13 125.06,-739.84"/>
</a>
</g>
</g>
<!-- Node7&#45;&gt;Node7 -->
<g id="edge11_Node000007_Node000007" class="edge">
<title>Node7&#45;&gt;Node7</title>
<g id="a_edge11_Node000007_Node000007"><a xlink:title=" ">
<path fill="none" stroke="#63b8ff" d="M122.36,-687.07C121.85,-692.62 110.23,-697 87.5,-697 54.44,-697 44.89,-687.73 58.83,-679.08"/>
<polygon fill="#63b8ff" stroke="#63b8ff" points="125.06,-684.84 116.17,-679.08 119.53,-689.13 125.06,-684.84"/>
</a>
</g>
</g>
<!-- Node8&#45;&gt;Node8 -->
<g id="edge13_Node000008_Node000008" class="edge">
<title>Node8&#45;&gt;Node8</title>
<g id="a_edge13_Node000008_Node000008"><a xlink:title=" ">
<path fill="none" stroke="#63b8ff" d="M122.36,-632.07C121.85,-637.62 110.23,-642 87.5,-642 54.44,-642 44.89,-632.73 58.83,-624.08"/>
<polygon fill="#63b8ff" stroke="#63b8ff" points="125.06,-629.84 116.17,-624.08 119.53,-634.13 125.06,-629.84"/>
</a>
</g>
</g>
<!-- Node9&#45;&gt;Node9 -->
<g id="edge15_Node000009_Node000009" class="edge">
<title>Node9&#45;&gt;Node9</title>
<g id="a_edge15_Node000009_Node000009"><a xlink:title=" ">
<path fill="none" stroke="#63b8ff" d="M122.36,-577.07C121.85,-582.62 110.23,-587 87.5,-587 54.44,-587 44.89,-577.73 58.83,-569.08"/>
<polygon fill="#63b8ff" stroke="#63b8ff" points="125.06,-574.84 116.17,-569.08 119.53,-579.13 125.06,-574.84"/>
</a>
</g>
</g>
<!-- Node10&#45;&gt;Node10 -->
<g id="edge17_Node000010_Node000010" class="edge">
<title>Node10&#45;&gt;Node10</title>
<g id="a_edge17_Node000010_Node000010"><a xlink:title=" ">
<path fill="none" stroke="#63b8ff" d="M122.36,-522.07C121.85,-527.62 110.23,-532 87.5,-532 54.44,-532 44.89,-522.73 58.83,-514.08"/>
<polygon fill="#63b8ff" stroke="#63b8ff" points="125.06,-519.84 116.17,-514.08 119.53,-524.13 125.06,-519.84"/>
</a>
</g>
</g>
<!-- Node11&#45;&gt;Node11 -->
<g id="edge19_Node000011_Node000011" class="edge">
<title>Node11&#45;&gt;Node11</title>
<g id="a_edge19_Node000011_Node000011"><a xlink:title=" ">
<path fill="none" stroke="#63b8ff" d="M122.36,-467.07C121.85,-472.62 110.23,-477 87.5,-477 54.44,-477 44.89,-467.73 58.83,-459.08"/>
<polygon fill="#63b8ff" stroke="#63b8ff" points="125.06,-464.84 116.17,-459.08 119.53,-469.13 125.06,-464.84"/>
</a>
</g>
</g>
<!-- Node12&#45;&gt;Node12 -->
<g id="edge21_Node000012_Node000012" class="edge">
<title>Node12&#45;&gt;Node12</title>
<g id="a_edge21_Node000012_Node000012"><a xlink:title=" ">
<path fill="none" stroke="#63b8ff" d="M122.36,-412.07C121.85,-417.62 110.23,-422 87.5,-422 54.44,-422 44.89,-412.73 58.83,-404.08"/>
<polygon fill="#63b8ff" stroke="#63b8ff" points="125.06,-409.84 116.17,-404.08 119.53,-414.13 125.06,-409.84"/>
</a>
</g>
</g>
<!-- Node13&#45;&gt;Node13 -->
<g id="edge23_Node000013_Node000013" class="edge">
<title>Node13&#45;&gt;Node13</title>
<g id="a_edge23_Node000013_Node000013"><a xlink:title=" ">
<path fill="none" stroke="#63b8ff" d="M122.36,-357.07C121.85,-362.62 110.23,-367 87.5,-367 54.44,-367 44.89,-357.73 58.83,-349.08"/>
<polygon fill="#63b8ff" stroke="#63b8ff" points="125.06,-354.84 116.17,-349.08 119.53,-359.13 125.06,-354.84"/>
</a>
</g>
</g>
<!-- Node14&#45;&gt;Node14 -->
<g id="edge25_Node000014_Node000014" class="edge">
<title>Node14&#45;&gt;Node14</title>
<g id="a_edge25_Node000014_Node000014"><a xlink:title=" ">
<path fill="none" stroke="#63b8ff" d="M122.36,-302.07C121.85,-307.62 110.23,-312 87.5,-312 54.44,-312 44.89,-302.73 58.83,-294.08"/>
<polygon fill="#63b8ff" stroke="#63b8ff" points="125.06,-299.84 116.17,-294.08 119.53,-304.13 125.06,-299.84"/>
</a>
</g>
</g>
<!-- Node15&#45;&gt;Node15 -->
<g id="edge27_Node000015_Node000015" class="edge">
<title>Node15&#45;&gt;Node15</title>
<g id="a_edge27_Node000015_Node000015"><a xlink:title=" ">
<path fill="none" stroke="#63b8ff" d="M122.36,-247.07C121.85,-252.62 110.23,-257 87.5,-257 54.44,-257 44.89,-247.73 58.83,-239.08"/>
<polygon fill="#63b8ff" stroke="#63b8ff" points="125.06,-244.84 116.17,-239.08 119.53,-249.13 125.06,-244.84"/>
</a>
</g>
</g>
<!-- Node16&#45;&gt;Node16 -->
<g id="edge29_Node000016_Node000016" class="edge">
<title>Node16&#45;&gt;Node16</title>
<g id="a_edge29_Node000016_Node000016"><a xlink:title=" ">
<path fill="none" stroke="#63b8ff" d="M122.36,-192.07C121.85,-197.62 110.23,-202 87.5,-202 54.44,-202 44.89,-192.73 58.83,-184.08"/>
<polygon fill="#63b8ff" stroke="#63b8ff" points="125.06,-189.84 116.17,-184.08 119.53,-194.13 125.06,-189.84"/>
</a>
</g>
</g>
<!-- Node17&#45;&gt;Node17 -->
<g id="edge31_Node000017_Node000017" class="edge">
<title>Node17&#45;&gt;Node17</title>
<g id="a_edge31_Node000017_Node000017"><a xlink:title=" ">
<path fill="none" stroke="#63b8ff" d="M122.36,-137.07C121.85,-142.62 110.23,-147 87.5,-147 54.44,-147 44.89,-137.73 58.83,-129.08"/>
<polygon fill="#63b8ff" stroke="#63b8ff" points="125.06,-134.84 116.17,-129.08 119.53,-139.13 125.06,-134.84"/>
</a>
</g>
</g>
<!-- Node18&#45;&gt;Node18 -->
<g id="edge33_Node000018_Node000018" class="edge">
<title>Node18&#45;&gt;Node18</title>
<g id="a_edge33_Node000018_Node000018"><a xlink:title=" ">
<path fill="none" stroke="#63b8ff" d="M122.36,-82.07C121.85,-87.62 110.23,-92 87.5,-92 54.44,-92 44.89,-82.73 58.83,-74.08"/>
<polygon fill="#63b8ff" stroke="#63b8ff" points="125.06,-79.84 116.17,-74.08 119.53,-84.13 125.06,-79.84"/>
</a>
</g>
</g>
<!-- Node19&#45;&gt;Node19 -->
<g id="edge35_Node000019_Node000019" class="edge">
<title>Node19&#45;&gt;Node19</title>
<g id="a_edge35_Node000019_Node000019"><a xlink:title=" ">
<path fill="none" stroke="#63b8ff" d="M122.36,-27.07C121.85,-32.62 110.23,-37 87.5,-37 54.44,-37 44.89,-27.73 58.83,-19.08"/>
<polygon fill="#63b8ff" stroke="#63b8ff" points="125.06,-24.84 116.17,-19.08 119.53,-29.13 125.06,-24.84"/>
</a>
</g>
</g>
</g>
</svg>
