<?xml version="1.0" encoding="UTF-8" standalone="no"?>
<!DOCTYPE svg PUBLIC "-//W3C//DTD SVG 1.1//EN"
 "http://www.w3.org/Graphics/SVG/1.1/DTD/svg11.dtd">
<!-- Generated by graphviz version 2.43.0 (0)
 -->
<!-- Title: clip::Reporter::print Pages: 1 -->
<svg width="317pt" height="101pt"
 viewBox="0.00 0.00 317.00 101.00" xmlns="http://www.w3.org/2000/svg" xmlns:xlink="http://www.w3.org/1999/xlink">
<g id="graph0" class="graph" transform="scale(1 1) rotate(0) translate(4 97)">
<title>clip::Reporter::print</title>
<!-- Node1 -->
<g id="Node000001" class="node">
<title>Node1</title>
<g id="a_Node000001"><a xlink:title="Prints simulation progress and scalar diagnostics at regular intervals.">
<polygon fill="#999999" stroke="#666666" points="110,-56 0,-56 0,-37 110,-37 110,-56"/>
<text text-anchor="middle" x="55" y="-44" font-family="Helvetica,sans-Serif" font-size="10.00">clip::Reporter::print</text>
</a>
</g>
</g>
<!-- Node2 -->
<g id="Node000002" class="node">
<title>Node2</title>
<g id="a_Node000002"><a xlink:href="classclip_1_1Logger.html#aca10474f9539f6b7bf3b9251e972122f" target="_top" xlink:title="Prints an error message to stderr and optionally throws an exception.">
<polygon fill="white" stroke="#666666" points="278.5,-93 176.5,-93 176.5,-74 278.5,-74 278.5,-93"/>
<text text-anchor="middle" x="227.5" y="-81" font-family="Helvetica,sans-Serif" font-size="10.00">clip::Logger::Error</text>
</a>
</g>
</g>
<!-- Node1&#45;&gt;Node2 -->
<g id="edge1_Node000001_Node000002" class="edge">
<title>Node1&#45;&gt;Node2</title>
<g id="a_edge1_Node000001_Node000002"><a xlink:title=" ">
<path fill="none" stroke="#63b8ff" d="M99.91,-56.03C122.1,-60.84 149.21,-66.73 172.65,-71.81"/>
<polygon fill="#63b8ff" stroke="#63b8ff" points="171.93,-75.24 182.44,-73.94 173.41,-68.4 171.93,-75.24"/>
</a>
</g>
</g>
<!-- Node3 -->
<g id="Node000003" class="node">
<title>Node3</title>
<g id="a_Node000003"><a xlink:href="classclip_1_1TimeInfo.html#a5234fefe54a7e7cadde351dacc44c409" target="_top" xlink:title="Returns the current time step index.">
<polygon fill="white" stroke="#666666" points="309,-56 146,-56 146,-37 309,-37 309,-56"/>
<text text-anchor="middle" x="227.5" y="-44" font-family="Helvetica,sans-Serif" font-size="10.00">clip::TimeInfo::getCurrentStep</text>
</a>
</g>
</g>
<!-- Node1&#45;&gt;Node3 -->
<g id="edge2_Node000001_Node000003" class="edge">
<title>Node1&#45;&gt;Node3</title>
<g id="a_edge2_Node000001_Node000003"><a xlink:title=" ">
<path fill="none" stroke="#63b8ff" d="M110.42,-46.5C118.54,-46.5 127.1,-46.5 135.73,-46.5"/>
<polygon fill="#63b8ff" stroke="#63b8ff" points="135.88,-50 145.88,-46.5 135.88,-43 135.88,-50"/>
</a>
</g>
</g>
<!-- Node4 -->
<g id="Node000004" class="node">
<title>Node4</title>
<g id="a_Node000004"><a xlink:href="classclip_1_1Logger.html#ab64c522dd5e3e1d7fd6aa235c00bcf9d" target="_top" xlink:title="Prints an informational message to stdout.">
<polygon fill="white" stroke="#666666" points="276.5,-19 178.5,-19 178.5,0 276.5,0 276.5,-19"/>
<text text-anchor="middle" x="227.5" y="-7" font-family="Helvetica,sans-Serif" font-size="10.00">clip::Logger::Info</text>
</a>
</g>
</g>
<!-- Node1&#45;&gt;Node4 -->
<g id="edge3_Node000001_Node000004" class="edge">
<title>Node1&#45;&gt;Node4</title>
<g id="a_edge3_Node000001_Node000004"><a xlink:title=" ">
<path fill="none" stroke="#63b8ff" d="M99.91,-36.97C122.1,-32.16 149.21,-26.27 172.65,-21.19"/>
<polygon fill="#63b8ff" stroke="#63b8ff" points="173.41,-24.6 182.44,-19.06 171.93,-17.76 173.41,-24.6"/>
</a>
</g>
</g>
</g>
</svg>
