<?xml version="1.0" encoding="UTF-8" standalone="no"?>
<!DOCTYPE svg PUBLIC "-//W3C//DTD SVG 1.1//EN"
 "http://www.w3.org/Graphics/SVG/1.1/DTD/svg11.dtd">
<!-- Generated by graphviz version 2.43.0 (0)
 -->
<!-- Title: clip::CheckPointer::save Pages: 1 -->
<svg width="311pt" height="64pt"
 viewBox="0.00 0.00 311.00 64.00" xmlns="http://www.w3.org/2000/svg" xmlns:xlink="http://www.w3.org/1999/xlink">
<g id="graph0" class="graph" transform="scale(1 1) rotate(0) translate(4 60)">
<title>clip::CheckPointer::save</title>
<!-- Node1 -->
<g id="Node000001" class="node">
<title>Node1</title>
<g id="a_Node000001"><a xlink:title="Saves the current simulation state to a binary checkpoint folder.">
<polygon fill="#999999" stroke="#666666" points="104,-42.5 0,-42.5 0,-12.5 104,-12.5 104,-42.5"/>
<text text-anchor="start" x="8" y="-30.5" font-family="Helvetica,sans-Serif" font-size="10.00">clip::CheckPointer</text>
<text text-anchor="middle" x="52" y="-19.5" font-family="Helvetica,sans-Serif" font-size="10.00">::save</text>
</a>
</g>
</g>
<!-- Node2 -->
<g id="Node000002" class="node">
<title>Node2</title>
<g id="a_Node000002"><a xlink:href="classclip_1_1TimeInfo.html#a5234fefe54a7e7cadde351dacc44c409" target="_top" xlink:title="Returns the current time step index.">
<polygon fill="white" stroke="#666666" points="303,-56 140,-56 140,-37 303,-37 303,-56"/>
<text text-anchor="middle" x="221.5" y="-44" font-family="Helvetica,sans-Serif" font-size="10.00">clip::TimeInfo::getCurrentStep</text>
</a>
</g>
</g>
<!-- Node1&#45;&gt;Node2 -->
<g id="edge1_Node000001_Node000002" class="edge">
<title>Node1&#45;&gt;Node2</title>
<g id="a_edge1_Node000001_Node000002"><a xlink:title=" ">
<path fill="none" stroke="#63b8ff" d="M104.17,-33.3C112.26,-34.22 120.83,-35.19 129.5,-36.18"/>
<polygon fill="#63b8ff" stroke="#63b8ff" points="129.38,-39.69 139.71,-37.34 130.17,-32.73 129.38,-39.69"/>
</a>
</g>
</g>
<!-- Node3 -->
<g id="Node000003" class="node">
<title>Node3</title>
<g id="a_Node000003"><a xlink:href="classclip_1_1Logger.html#a5928f7a930aa27932050a05167ccfc68" target="_top" xlink:title="Prints a success message to stdout in green.">
<polygon fill="white" stroke="#666666" points="280.5,-19 162.5,-19 162.5,0 280.5,0 280.5,-19"/>
<text text-anchor="middle" x="221.5" y="-7" font-family="Helvetica,sans-Serif" font-size="10.00">clip::Logger::Success</text>
</a>
</g>
</g>
<!-- Node1&#45;&gt;Node3 -->
<g id="edge2_Node000001_Node000003" class="edge">
<title>Node1&#45;&gt;Node3</title>
<g id="a_edge2_Node000001_Node000003"><a xlink:title=" ">
<path fill="none" stroke="#63b8ff" d="M104.17,-22C119.24,-20.38 135.98,-18.58 151.96,-16.87"/>
<polygon fill="#63b8ff" stroke="#63b8ff" points="152.76,-20.3 162.32,-15.75 152.01,-13.34 152.76,-20.3"/>
</a>
</g>
</g>
</g>
</svg>
