<?xml version="1.0" encoding="UTF-8" standalone="no"?>
<!DOCTYPE svg PUBLIC "-//W3C//DTD SVG 1.1//EN"
 "http://www.w3.org/Graphics/SVG/1.1/DTD/svg11.dtd">
<!-- Generated by graphviz version 2.43.0 (0)
 -->
<!-- Title: clip::Geometry::sdf Pages: 1 -->
<svg width="312pt" height="82pt"
 viewBox="0.00 0.00 312.00 82.00" xmlns="http://www.w3.org/2000/svg" xmlns:xlink="http://www.w3.org/1999/xlink">
<g id="graph0" class="graph" transform="scale(1 1) rotate(0) translate(4 78)">
<title>clip::Geometry::sdf</title>
<!-- Node1 -->
<g id="Node000001" class="node">
<title>Node1</title>
<g id="a_Node000001"><a xlink:title="Evaluates the signed distance function (SDF) to a given object at a spatial location.">
<polygon fill="#999999" stroke="#666666" points="304,-46 195,-46 195,-27 304,-27 304,-46"/>
<text text-anchor="middle" x="249.5" y="-34" font-family="Helvetica,sans-Serif" font-size="10.00">clip::Geometry::sdf</text>
</a>
</g>
</g>
<!-- Node2 -->
<g id="Node000002" class="node">
<title>Node2</title>
<g id="a_Node000002"><a xlink:href="classclip_1_1NSAllen.html#aade5ed277f55de9d81fcdd5640e9d2d6" target="_top" xlink:title="Sets the initial state of the simulation.">
<polygon fill="white" stroke="#666666" points="159,-74 0,-74 0,-55 159,-55 159,-74"/>
<text text-anchor="middle" x="79.5" y="-62" font-family="Helvetica,sans-Serif" font-size="10.00">clip::NSAllen::initialCondition</text>
</a>
</g>
</g>
<!-- Node1&#45;&gt;Node2 -->
<g id="edge1_Node000001_Node000002" class="edge">
<title>Node1&#45;&gt;Node2</title>
<g id="a_edge1_Node000001_Node000002"><a xlink:title=" ">
<path fill="none" stroke="#63b8ff" d="M184.86,-47.11C169.35,-49.69 152.85,-52.44 137.67,-54.97"/>
<polygon fill="#63b8ff" stroke="#63b8ff" points="185.59,-50.53 194.88,-45.44 184.44,-43.63 185.59,-50.53"/>
</a>
</g>
</g>
<!-- Node3 -->
<g id="Node000003" class="node">
<title>Node3</title>
<g id="a_Node000003"><a xlink:href="Solver_8cu.html#ab311646a75605c814a6112f965b08f28" target="_top" xlink:title="Enforces velocity inlet boundaries using equilibrium&#45;based reflection.">
<polygon fill="white" stroke="#666666" points="129,-19 30,-19 30,0 129,0 129,-19"/>
<text text-anchor="middle" x="79.5" y="-7" font-family="Helvetica,sans-Serif" font-size="10.00">clip::JetBoundary</text>
</a>
</g>
</g>
<!-- Node1&#45;&gt;Node3 -->
<g id="edge2_Node000001_Node000003" class="edge">
<title>Node1&#45;&gt;Node3</title>
<g id="a_edge2_Node000001_Node000003"><a xlink:title=" ">
<path fill="none" stroke="#63b8ff" d="M184.79,-26.26C166.31,-23.29 146.45,-20.1 129.06,-17.3"/>
<polygon fill="#63b8ff" stroke="#63b8ff" points="184.45,-29.75 194.88,-27.88 185.56,-22.84 184.45,-29.75"/>
</a>
</g>
</g>
<!-- Node3&#45;&gt;Node3 -->
<g id="edge3_Node000003_Node000003" class="edge">
<title>Node3&#45;&gt;Node3</title>
<g id="a_edge3_Node000003_Node000003"><a xlink:title=" ">
<path fill="none" stroke="#63b8ff" d="M111.31,-27.45C110.4,-32.82 99.8,-37 79.5,-37 49.29,-37 40.55,-27.73 53.3,-19.08"/>
<polygon fill="#63b8ff" stroke="#63b8ff" points="114.18,-25.44 105.7,-19.08 108.36,-29.34 114.18,-25.44"/>
</a>
</g>
</g>
</g>
</svg>
