<?xml version="1.0" encoding="UTF-8" standalone="no"?>
<!DOCTYPE svg PUBLIC "-//W3C//DTD SVG 1.1//EN"
 "http://www.w3.org/Graphics/SVG/1.1/DTD/svg11.dtd">
<!-- Generated by graphviz version 2.43.0 (0)
 -->
<!-- Title: clip::Solver Pages: 1 -->
<!--zoomable 502 -->

<svg id="main" version="1.1" xmlns="http://www.w3.org/2000/svg" xmlns:xlink="http://www.w3.org/1999/xlink" xml:space="preserve" onload="init(evt)">
<style type="text/css"><![CDATA[
.node, .edge {opacity: 0.7;}
.node.selected, .edge.selected {opacity: 1;}
.edge:hover path { stroke: red; }
.edge:hover polygon { stroke: red; fill: red; }
]]></style>

<defs>
  <circle id="rim" cx="0" cy="0" r="7"/>
  <circle id="rim2" cx="0" cy="0" r="3.5"/>
  <g id="zoomPlus">
    <use xlink:href="#rim" fill="#404040"><set attributeName="fill" to="#808080" begin="zoomplus.mouseover" end="zoomplus.mouseout"/></use>
    <path d="M-4,0h8M0,-4v8" fill="none" stroke="white" stroke-width="1.5" pointer-events="none"/>
  </g>
  <g id="zoomMin">
    <use xlink:href="#rim" fill="#404040"><set attributeName="fill" to="#808080" begin="zoomminus.mouseover" end="zoomminus.mouseout"/></use>
    <path d="M-4,0h8" fill="none" stroke="white" stroke-width="1.5" pointer-events="none"/>
  </g>
  <g id="arrowUp" transform="translate(30 24)">
    <use xlink:href="#rim"/>
    <path pointer-events="none" fill="none" stroke="white" stroke-width="1.5" d="M0,-3.0v7 M-2.5,-0.5L0,-3.0L2.5,-0.5"/>
  </g>
  <g id="arrowRight" transform="rotate(90) translate(36 -43)">
    <use xlink:href="#rim"/>
    <path pointer-events="none" fill="none" stroke="white" stroke-width="1.5" d="M0,-3.0v7 M-2.5,-0.5L0,-3.0L2.5,-0.5"/>
  </g>
  <g id="arrowDown" transform="rotate(180) translate(-30 -48)">
    <use xlink:href="#rim"/>
    <path pointer-events="none" fill="none" stroke="white" stroke-width="1.5" d="M0,-3.0v7 M-2.5,-0.5L0,-3.0L2.5,-0.5"/>
  </g>
  <g id="arrowLeft" transform="rotate(270) translate(-36 17)">
    <use xlink:href="#rim"/>
    <path pointer-events="none" fill="none" stroke="white" stroke-width="1.5" d="M0,-3.0v7 M-2.5,-0.5L0,-3.0L2.5,-0.5"/>
  </g>
  <g id="resetDef">
    <use xlink:href="#rim2" fill="#404040"><set attributeName="fill" to="#808080" begin="reset.mouseover" end="reset.mouseout"/></use>
  </g>
</defs>
<script type="application/ecmascript">
var viewWidth = 816;
var viewHeight = 502;
var sectionId = 'dynsection-1';
</script>
<script type="application/ecmascript" xlink:href="svg.min.js"/>
<svg id="graph" class="graph">
<g id="viewport">
<title>clip::Solver</title>
<!-- Node1 -->
<g id="Node000001" class="node">
<title>Node1</title>
<g id="a_Node000001"><a xlink:title="Base class providing reusable boundary condition and solver infrastructure for CLIP.">
<polygon fill="#999999" stroke="#666666" points="808,-245.5 737,-245.5 737,-226.5 808,-226.5 808,-245.5"/>
<text text-anchor="middle" x="772.5" y="-233.5" font-family="Helvetica,sans-Serif" font-size="10.00">clip::Solver</text>
</a>
</g>
</g>
<!-- Node2 -->
<g id="Node000002" class="node">
<title>Node2</title>
<g id="a_Node000002"><a xlink:href="classclip_1_1Domain.html" target="_top" xlink:title="Represents the simulation domain and provides indexing and boundary utility functions.">
<polygon fill="white" stroke="#666666" points="574.5,-414.5 496.5,-414.5 496.5,-395.5 574.5,-395.5 574.5,-414.5"/>
<text text-anchor="middle" x="535.5" y="-402.5" font-family="Helvetica,sans-Serif" font-size="10.00">clip::Domain</text>
</a>
</g>
</g>
<!-- Node2&#45;&gt;Node1 -->
<g id="edge1_Node000001_Node000002" class="edge">
<title>Node2&#45;&gt;Node1</title>
<g id="a_edge1_Node000001_Node000002"><a xlink:title=" ">
<path fill="none" stroke="#9a32cd" stroke-dasharray="5,2" d="M584.92,-411.16C625.12,-413.54 681.56,-410.2 719,-380 762.08,-345.25 769.81,-271.91 771.2,-245.62"/>
<polygon fill="#9a32cd" stroke="#9a32cd" points="585.05,-407.66 574.82,-410.42 584.54,-414.64 585.05,-407.66"/>
</a>
</g>
<text text-anchor="middle" x="673.5" y="-413" font-family="Helvetica,sans-Serif" font-size="10.00" fill="grey"> m_domain</text>
</g>
<!-- Node3 -->
<g id="Node000003" class="node">
<title>Node3</title>
<g id="a_Node000003"><a xlink:href="structclip_1_1Domain_1_1DomainInfo.html" target="_top" xlink:title="Holds global domain metadata, including extent and boundaries.">
<polygon fill="white" stroke="#666666" points="370.5,-455.5 229.5,-455.5 229.5,-436.5 370.5,-436.5 370.5,-455.5"/>
<text text-anchor="middle" x="300" y="-443.5" font-family="Helvetica,sans-Serif" font-size="10.00">clip::Domain::DomainInfo</text>
</a>
</g>
</g>
<!-- Node3&#45;&gt;Node1 -->
<g id="edge10_Node000001_Node000003" class="edge">
<title>Node3&#45;&gt;Node1</title>
<g id="a_edge10_Node000001_Node000003"><a xlink:title=" ">
<path fill="none" stroke="#9a32cd" stroke-dasharray="5,2" d="M341.75,-458.13C423.48,-479.74 609.01,-514.73 719,-425 747.76,-401.54 765.61,-280.98 770.27,-245.71"/>
<polygon fill="#9a32cd" stroke="#9a32cd" points="342.64,-454.75 332.07,-455.51 340.81,-461.5 342.64,-454.75"/>
</a>
</g>
<text text-anchor="middle" x="535.5" y="-486" font-family="Helvetica,sans-Serif" font-size="10.00" fill="grey"> m_info</text>
</g>
<!-- Node3&#45;&gt;Node2 -->
<g id="edge2_Node000002_Node000003" class="edge">
<title>Node3&#45;&gt;Node2</title>
<g id="a_edge2_Node000002_Node000003"><a xlink:title=" ">
<path fill="none" stroke="#9a32cd" stroke-dasharray="5,2" d="M365.04,-434.76C407.12,-427.37 460.77,-417.95 496.3,-411.71"/>
<polygon fill="#9a32cd" stroke="#9a32cd" points="364.4,-431.31 355.16,-436.49 365.61,-438.21 364.4,-431.31"/>
</a>
</g>
<text text-anchor="middle" x="418" y="-432" font-family="Helvetica,sans-Serif" font-size="10.00" fill="grey"> info</text>
</g>
<!-- Node4 -->
<g id="Node000004" class="node">
<title>Node4</title>
<g id="a_Node000004"><a xlink:href="classclip_1_1InputData.html" target="_top" xlink:title="Reads simulation parameters from a configuration file and stores them in a structured format.">
<polygon fill="white" stroke="#666666" points="344,-390.5 256,-390.5 256,-371.5 344,-371.5 344,-390.5"/>
<text text-anchor="middle" x="300" y="-378.5" font-family="Helvetica,sans-Serif" font-size="10.00">clip::InputData</text>
</a>
</g>
</g>
<!-- Node4&#45;&gt;Node1 -->
<g id="edge5_Node000001_Node000004" class="edge">
<title>Node4&#45;&gt;Node1</title>
<g id="a_edge5_Node000001_Node000004"><a xlink:title=" ">
<path fill="none" stroke="#9a32cd" stroke-dasharray="5,2" d="M354.38,-376.38C452.93,-367.06 658.85,-343.61 719,-306 742.7,-291.18 759.45,-261.5 767,-245.98"/>
<polygon fill="#9a32cd" stroke="#9a32cd" points="353.97,-372.9 344.34,-377.32 354.62,-379.87 353.97,-372.9"/>
</a>
</g>
<text text-anchor="middle" x="535.5" y="-367" font-family="Helvetica,sans-Serif" font-size="10.00" fill="grey"> m_idata</text>
</g>
<!-- Node4&#45;&gt;Node2 -->
<g id="edge3_Node000002_Node000004" class="edge">
<title>Node4&#45;&gt;Node2</title>
<g id="a_edge3_Node000002_Node000004"><a xlink:title=" ">
<path fill="none" stroke="#9a32cd" stroke-dasharray="5,2" d="M354.17,-386.47C397.49,-390.92 457.62,-397.1 496.29,-401.07"/>
<polygon fill="#9a32cd" stroke="#9a32cd" points="354.41,-382.97 344.1,-385.43 353.69,-389.93 354.41,-382.97"/>
</a>
</g>
<text text-anchor="middle" x="418" y="-398" font-family="Helvetica,sans-Serif" font-size="10.00" fill="grey"> m_idata</text>
</g>
<!-- Node5 -->
<g id="Node000005" class="node">
<title>Node5</title>
<g id="a_Node000005"><a xlink:href="structclip_1_1InputData_1_1SimParams.html" target="_top" xlink:title="Struct holding all simulation parameters, parsed from input.">
<polygon fill="white" stroke="#666666" points="149,-390.5 0,-390.5 0,-371.5 149,-371.5 149,-390.5"/>
<text text-anchor="middle" x="74.5" y="-378.5" font-family="Helvetica,sans-Serif" font-size="10.00">clip::InputData::SimParams</text>
</a>
</g>
</g>
<!-- Node5&#45;&gt;Node4 -->
<g id="edge4_Node000004_Node000005" class="edge">
<title>Node5&#45;&gt;Node4</title>
<g id="a_edge4_Node000004_Node000005"><a xlink:title=" ">
<path fill="none" stroke="#9a32cd" stroke-dasharray="5,2" d="M159.38,-381C192.26,-381 228.57,-381 255.93,-381"/>
<polygon fill="#9a32cd" stroke="#9a32cd" points="159.3,-377.5 149.3,-381 159.3,-384.5 159.3,-377.5"/>
</a>
</g>
<text text-anchor="middle" x="187" y="-384" font-family="Helvetica,sans-Serif" font-size="10.00" fill="grey"> params</text>
</g>
<!-- Node6 -->
<g id="Node000006" class="node">
<title>Node6</title>
<g id="a_Node000006"><a xlink:href="classclip_1_1Boundary.html" target="_top" xlink:title="Class for handling boundary condition definitions and utilities in a simulation domain.">
<polygon fill="white" stroke="#666666" points="578.5,-282.5 492.5,-282.5 492.5,-263.5 578.5,-263.5 578.5,-282.5"/>
<text text-anchor="middle" x="535.5" y="-270.5" font-family="Helvetica,sans-Serif" font-size="10.00">clip::Boundary</text>
</a>
</g>
</g>
<!-- Node6&#45;&gt;Node1 -->
<g id="edge6_Node000001_Node000006" class="edge">
<title>Node6&#45;&gt;Node1</title>
<g id="a_edge6_Node000001_Node000006"><a xlink:title=" ">
<path fill="none" stroke="#9a32cd" stroke-dasharray="5,2" d="M588.77,-268.31C625.42,-264.56 675.45,-258.51 719,-250 725.3,-248.77 731.95,-247.21 738.33,-245.57"/>
<polygon fill="#9a32cd" stroke="#9a32cd" points="588.4,-264.83 578.8,-269.31 589.1,-271.79 588.4,-264.83"/>
</a>
</g>
<text text-anchor="middle" x="673.5" y="-266" font-family="Helvetica,sans-Serif" font-size="10.00" fill="grey"> m_boundary</text>
</g>
<!-- Node7 -->
<g id="Node000007" class="node">
<title>Node7</title>
<g id="a_Node000007"><a xlink:href="structclip_1_1Boundary_1_1BCTypeMap.html" target="_top" xlink:title="Struct used for device&#45;side access to all boundary types and values.">
<polygon fill="white" stroke="#666666" points="374.5,-305.5 225.5,-305.5 225.5,-286.5 374.5,-286.5 374.5,-305.5"/>
<text text-anchor="middle" x="300" y="-293.5" font-family="Helvetica,sans-Serif" font-size="10.00">clip::Boundary::BCTypeMap</text>
</a>
</g>
</g>
<!-- Node7&#45;&gt;Node1 -->
<g id="edge11_Node000001_Node000007" class="edge">
<title>Node7&#45;&gt;Node1</title>
<g id="a_edge11_Node000001_Node000007"><a xlink:title=" ">
<path fill="none" stroke="#9a32cd" stroke-dasharray="5,2" d="M384.84,-300.75C387.59,-300.84 390.32,-300.93 393,-301 538.2,-304.94 585.29,-334.73 719,-278 736.41,-270.61 752.81,-255.76 762.5,-245.84"/>
<polygon fill="#9a32cd" stroke="#9a32cd" points="384.93,-297.25 374.8,-300.36 384.66,-304.24 384.93,-297.25"/>
</a>
</g>
<text text-anchor="middle" x="535.5" y="-315" font-family="Helvetica,sans-Serif" font-size="10.00" fill="grey"> m_BCMap</text>
</g>
<!-- Node7&#45;&gt;Node6 -->
<g id="edge7_Node000006_Node000007" class="edge">
<title>Node7&#45;&gt;Node6</title>
<g id="a_edge7_Node000006_Node000007"><a xlink:title=" ">
<path fill="none" stroke="#9a32cd" stroke-dasharray="5,2" d="M384.71,-287.75C421.16,-284.16 462.3,-280.11 492.23,-277.16"/>
<polygon fill="#9a32cd" stroke="#9a32cd" points="384.17,-284.29 374.56,-288.75 384.86,-291.26 384.17,-284.29"/>
</a>
</g>
<text text-anchor="middle" x="418" y="-289" font-family="Helvetica,sans-Serif" font-size="10.00" fill="grey"> BCMap</text>
</g>
<!-- Node8 -->
<g id="Node000008" class="node">
<title>Node8</title>
<g id="a_Node000008"><a xlink:href="classclip_1_1Geometry.html" target="_top" xlink:title="Represents one or more geometric objects for level&#45;set&#45;based boundary embedding.">
<polygon fill="white" stroke="#666666" points="580,-245.5 491,-245.5 491,-226.5 580,-226.5 580,-245.5"/>
<text text-anchor="middle" x="535.5" y="-233.5" font-family="Helvetica,sans-Serif" font-size="10.00">clip::Geometry</text>
</a>
</g>
</g>
<!-- Node8&#45;&gt;Node1 -->
<g id="edge8_Node000001_Node000008" class="edge">
<title>Node8&#45;&gt;Node1</title>
<g id="a_edge8_Node000001_Node000008"><a xlink:title=" ">
<path fill="none" stroke="#9a32cd" stroke-dasharray="5,2" d="M590.33,-236C635.36,-236 698.27,-236 736.87,-236"/>
<polygon fill="#9a32cd" stroke="#9a32cd" points="590.15,-232.5 580.15,-236 590.15,-239.5 590.15,-232.5"/>
</a>
</g>
<text text-anchor="middle" x="673.5" y="-239" font-family="Helvetica,sans-Serif" font-size="10.00" fill="grey"> m_geom</text>
</g>
<!-- Node9 -->
<g id="Node000009" class="node">
<title>Node9</title>
<g id="a_Node000009"><a xlink:href="structclip_1_1Geometry_1_1GeometryDevice.html" target="_top" xlink:title="Device&#45;side flattened structure storing all geometry info used in kernels.">
<polygon fill="white" stroke="#666666" points="607,-208 464,-208 464,-178 607,-178 607,-208"/>
<text text-anchor="start" x="472" y="-196" font-family="Helvetica,sans-Serif" font-size="10.00">clip::Geometry::Geometry</text>
<text text-anchor="middle" x="535.5" y="-185" font-family="Helvetica,sans-Serif" font-size="10.00">Device</text>
</a>
</g>
</g>
<!-- Node9&#45;&gt;Node1 -->
<g id="edge9_Node000001_Node000009" class="edge">
<title>Node9&#45;&gt;Node1</title>
<g id="a_edge9_Node000001_Node000009"><a xlink:title=" ">
<path fill="none" stroke="#9a32cd" stroke-dasharray="5,2" d="M617.24,-203.15C649.11,-207.74 685.94,-213.77 719,-221 726.04,-222.54 733.52,-224.49 740.57,-226.46"/>
<polygon fill="#9a32cd" stroke="#9a32cd" points="617.47,-199.65 607.08,-201.71 616.49,-206.58 617.47,-199.65"/>
</a>
</g>
<text text-anchor="middle" x="673.5" y="-224" font-family="Helvetica,sans-Serif" font-size="10.00" fill="grey"> m_geomPool</text>
</g>
<!-- Node10 -->
<g id="Node000010" class="node">
<title>Node10</title>
<g id="a_Node000010"><a xlink:href="structclip_1_1WMRT_1_1wallBCMap.html" target="_top" xlink:title="Mapping of wall boundary directions for bounce&#45;back in 2D/3D.">
<polygon fill="white" stroke="#666666" points="601,-159.5 470,-159.5 470,-140.5 601,-140.5 601,-159.5"/>
<text text-anchor="middle" x="535.5" y="-147.5" font-family="Helvetica,sans-Serif" font-size="10.00">clip::WMRT::wallBCMap</text>
</a>
</g>
</g>
<!-- Node10&#45;&gt;Node1 -->
<g id="edge12_Node000001_Node000010" class="edge">
<title>Node10&#45;&gt;Node1</title>
<g id="a_edge12_Node000001_Node000010"><a xlink:title=" ">
<path fill="none" stroke="#9a32cd" stroke-dasharray="5,2" d="M611.26,-157.07C645.49,-162.51 685.75,-172.09 719,-189 737.32,-198.31 754.21,-215.64 763.65,-226.46"/>
<polygon fill="#9a32cd" stroke="#9a32cd" points="611.72,-153.6 601.31,-155.58 610.68,-160.53 611.72,-153.6"/>
</a>
</g>
<text text-anchor="middle" x="673.5" y="-192" font-family="Helvetica,sans-Serif" font-size="10.00" fill="grey"> m_wallBCMap</text>
</g>
<!-- Node11 -->
<g id="Node000011" class="node">
<title>Node11</title>
<g id="a_Node000011"><a xlink:href="structclip_1_1WMRT_1_1slipWallBCMap.html" target="_top" xlink:title="Mapping of slip wall boundary directions for specular reflection.">
<polygon fill="white" stroke="#666666" points="610,-122.5 461,-122.5 461,-103.5 610,-103.5 610,-122.5"/>
<text text-anchor="middle" x="535.5" y="-110.5" font-family="Helvetica,sans-Serif" font-size="10.00">clip::WMRT::slipWallBCMap</text>
</a>
</g>
</g>
<!-- Node11&#45;&gt;Node1 -->
<g id="edge13_Node000001_Node000011" class="edge">
<title>Node11&#45;&gt;Node1</title>
<g id="a_edge13_Node000001_Node000011"><a xlink:title=" ">
<path fill="none" stroke="#9a32cd" stroke-dasharray="5,2" d="M620.57,-112.76C653.71,-116.3 690.58,-125.11 719,-145 748.14,-165.39 763.35,-207.52 768.94,-226.44"/>
<polygon fill="#9a32cd" stroke="#9a32cd" points="620.69,-109.26 610.41,-111.83 620.05,-116.23 620.69,-109.26"/>
</a>
</g>
<text text-anchor="middle" x="673.5" y="-148" font-family="Helvetica,sans-Serif" font-size="10.00" fill="grey"> m_slipWallBCMap</text>
</g>
<!-- Node12 -->
<g id="Node000012" class="node">
<title>Node12</title>
<g id="a_Node000012"><a xlink:href="structclip_1_1WMRT_1_1WMRTvelSet.html" target="_top" xlink:title="Defines the discrete velocity set and weights for the WMRT model.">
<polygon fill="white" stroke="#666666" points="604,-85.5 467,-85.5 467,-66.5 604,-66.5 604,-85.5"/>
<text text-anchor="middle" x="535.5" y="-73.5" font-family="Helvetica,sans-Serif" font-size="10.00">clip::WMRT::WMRTvelSet</text>
</a>
</g>
</g>
<!-- Node12&#45;&gt;Node1 -->
<g id="edge14_Node000001_Node000012" class="edge">
<title>Node12&#45;&gt;Node1</title>
<g id="a_edge14_Node000001_Node000012"><a xlink:title=" ">
<path fill="none" stroke="#9a32cd" stroke-dasharray="5,2" d="M614.34,-68.08C649.6,-68.54 689.83,-75.19 719,-98 760.8,-130.68 769.33,-200.74 771.06,-226.36"/>
<polygon fill="#9a32cd" stroke="#9a32cd" points="614.04,-64.58 604.06,-68.12 614.07,-71.58 614.04,-64.58"/>
</a>
</g>
<text text-anchor="middle" x="673.5" y="-101" font-family="Helvetica,sans-Serif" font-size="10.00" fill="grey"> m_velSet</text>
</g>
<!-- Node13 -->
<g id="Node000013" class="node">
<title>Node13</title>
<g id="a_Node000013"><a xlink:href="classclip_1_1DataArray.html" target="_top" xlink:title="Manages all host and device memory allocations for the CLIP LBM solver.">
<polygon fill="white" stroke="#666666" points="580,-48.5 491,-48.5 491,-29.5 580,-29.5 580,-48.5"/>
<text text-anchor="middle" x="535.5" y="-36.5" font-family="Helvetica,sans-Serif" font-size="10.00">clip::DataArray</text>
</a>
</g>
</g>
<!-- Node13&#45;&gt;Node1 -->
<g id="edge15_Node000001_Node000013" class="edge">
<title>Node13&#45;&gt;Node1</title>
<g id="a_edge15_Node000001_Node000013"><a xlink:title=" ">
<path fill="none" stroke="#9a32cd" stroke-dasharray="5,2" d="M590.39,-28.09C630.25,-23.27 683.54,-24.09 719,-53 746.8,-75.66 765.19,-191.39 770.15,-226.13"/>
<polygon fill="#9a32cd" stroke="#9a32cd" points="589.75,-24.64 580.31,-29.46 590.69,-31.58 589.75,-24.64"/>
</a>
</g>
<text text-anchor="middle" x="673.5" y="-56" font-family="Helvetica,sans-Serif" font-size="10.00" fill="grey"> m_DA</text>
</g>
<!-- Node14 -->
<g id="Node000014" class="node">
<title>Node14</title>
<g id="a_Node000014"><a xlink:href="structclip_1_1DataArray_1_1deviceDataArray.html" target="_top" xlink:title="Struct holding all device&#45;side (GPU) pointers for LBM fields.">
<polygon fill="white" stroke="#666666" points="375,-78 225,-78 225,-48 375,-48 375,-78"/>
<text text-anchor="start" x="233" y="-66" font-family="Helvetica,sans-Serif" font-size="10.00">clip::DataArray::deviceData</text>
<text text-anchor="middle" x="300" y="-55" font-family="Helvetica,sans-Serif" font-size="10.00">Array</text>
</a>
</g>
</g>
<!-- Node14&#45;&gt;Node13 -->
<g id="edge16_Node000013_Node000014" class="edge">
<title>Node14&#45;&gt;Node13</title>
<g id="a_edge16_Node000013_Node000014"><a xlink:title=" ">
<path fill="none" stroke="#9a32cd" stroke-dasharray="5,2" d="M385.16,-54.35C420.91,-50.68 461.1,-46.54 490.77,-43.49"/>
<polygon fill="#9a32cd" stroke="#9a32cd" points="384.79,-50.87 375.2,-55.37 385.51,-57.83 384.79,-50.87"/>
</a>
</g>
<text text-anchor="middle" x="418" y="-56" font-family="Helvetica,sans-Serif" font-size="10.00" fill="grey"> deviceDA</text>
</g>
<!-- Node15 -->
<g id="Node000015" class="node">
<title>Node15</title>
<g id="a_Node000015"><a xlink:href="structclip_1_1DataArray_1_1hostDataArray.html" target="_top" xlink:title="Struct holding all host&#45;side (CPU) pointers for LBM fields.">
<polygon fill="white" stroke="#666666" points="369.5,-30 230.5,-30 230.5,0 369.5,0 369.5,-30"/>
<text text-anchor="start" x="238.5" y="-18" font-family="Helvetica,sans-Serif" font-size="10.00">clip::DataArray::hostData</text>
<text text-anchor="middle" x="300" y="-7" font-family="Helvetica,sans-Serif" font-size="10.00">Array</text>
</a>
</g>
</g>
<!-- Node15&#45;&gt;Node13 -->
<g id="edge17_Node000013_Node000015" class="edge">
<title>Node15&#45;&gt;Node13</title>
<g id="a_edge17_Node000013_Node000015"><a xlink:title=" ">
<path fill="none" stroke="#9a32cd" stroke-dasharray="5,2" d="M380.07,-23.13C417.06,-26.93 459.72,-31.31 490.81,-34.51"/>
<polygon fill="#9a32cd" stroke="#9a32cd" points="380.1,-19.61 369.79,-22.07 379.38,-26.58 380.1,-19.61"/>
</a>
</g>
<text text-anchor="middle" x="418" y="-33" font-family="Helvetica,sans-Serif" font-size="10.00" fill="grey"> hostDA</text>
</g>
</g>
</svg>

<g id="navigator" transform="translate(0 0)" fill="#404254">
  <rect fill="#f2f5e9" fill-opacity="0.5" stroke="#606060" stroke-width=".5" x="0" y="0" width="60" height="60"/>
  <use id="zoomplus" xlink:href="#zoomPlus" x="17" y="9" onmousedown="handleZoom(evt,'in')"/>
  <use id="zoomminus" xlink:href="#zoomMin" x="42" y="9" onmousedown="handleZoom(evt,'out')"/>
  <use id="reset" xlink:href="#resetDef" x="30" y="36" onmousedown="handleReset()"/>
   <use id="arrowup" xlink:href="#arrowUp" x="0" y="0" onmousedown="handlePan(0,-1)"/>
  <use id="arrowright" xlink:href="#arrowRight" x="0" y="0" onmousedown="handlePan(1,0)"/>
  <use id="arrowdown" xlink:href="#arrowDown" x="0" y="0" onmousedown="handlePan(0,1)"/>
  <use id="arrowleft" xlink:href="#arrowLeft" x="0" y="0" onmousedown="handlePan(-1,0)"/>
</g>
<svg viewBox="0 0 15 15" width="100%" height="30px" preserveAspectRatio="xMaxYMin meet">
 <g id="arrow_out" transform="scale(0.3 0.3)">
  <a xlink:href="classclip_1_1Solver__coll__graph_org.svg" target="_base">
   <rect id="button" ry="5" rx="5" y="6" x="6" height="38" width="38"
        fill="#f2f5e9" fill-opacity="0.5" stroke="#606060" stroke-width="1.0"/>
   <path id="arrow"
     d="M 11.500037,31.436501 C 11.940474,20.09759 22.043105,11.32322 32.158766,21.979434 L 37.068811,17.246167 C 37.068811,17.246167 37.088388,32 37.088388,32 L 22.160133,31.978069 C 22.160133,31.978069 26.997745,27.140456 26.997745,27.140456 C 18.528582,18.264221 13.291696,25.230495 11.500037,31.436501 z"
     style="fill:#404040;"/>
  </a>
 </g>
</svg>

<style type='text/css'>
<![CDATA[
[data-mouse-over-selected='false'] { opacity: 0.7; }
[data-mouse-over-selected='true']  { opacity: 1.0; }
]]>
</style>
<script type="application/ecmascript"><![CDATA[
document.addEventListener('DOMContentLoaded', (event) => {
  highlightEdges();
  highlightAdjacentNodes();
});
]]></script>
</svg>
