<?xml version="1.0" encoding="UTF-8" standalone="no"?>
<!DOCTYPE svg PUBLIC "-//W3C//DTD SVG 1.1//EN"
 "http://www.w3.org/Graphics/SVG/1.1/DTD/svg11.dtd">
<!-- Generated by graphviz version 2.43.0 (0)
 -->
<!-- Title: clip::DataArray::createVectors Pages: 1 -->
<svg width="339pt" height="124pt"
 viewBox="0.00 0.00 339.00 123.50" xmlns="http://www.w3.org/2000/svg" xmlns:xlink="http://www.w3.org/1999/xlink">
<g id="graph0" class="graph" transform="scale(1 1) rotate(0) translate(4 119.5)">
<title>clip::DataArray::createVectors</title>
<!-- Node1 -->
<g id="Node000001" class="node">
<title>Node1</title>
<g id="a_Node000001"><a xlink:title="Allocate and initialize all host/device field arrays.">
<polygon fill="#999999" stroke="#666666" points="161,-62 0,-62 0,-43 161,-43 161,-62"/>
<text text-anchor="middle" x="80.5" y="-50" font-family="Helvetica,sans-Serif" font-size="10.00">clip::DataArray::createVectors</text>
</a>
</g>
</g>
<!-- Node2 -->
<g id="Node000002" class="node">
<title>Node2</title>
<g id="a_Node000002"><a xlink:href="classclip_1_1DataArray.html#a375e8c20df4f51f68cc217bcd01da287" target="_top" xlink:title="Allocates device memory on GPU for a given pointer.">
<polygon fill="white" stroke="#666666" points="331,-115.5 197,-115.5 197,-85.5 331,-85.5 331,-115.5"/>
<text text-anchor="start" x="205" y="-103.5" font-family="Helvetica,sans-Serif" font-size="10.00">clip::DataArray::allocate</text>
<text text-anchor="middle" x="264" y="-92.5" font-family="Helvetica,sans-Serif" font-size="10.00">OnDevice</text>
</a>
</g>
</g>
<!-- Node1&#45;&gt;Node2 -->
<g id="edge1_Node000001_Node000002" class="edge">
<title>Node1&#45;&gt;Node2</title>
<g id="a_edge1_Node000001_Node000002"><a xlink:title=" ">
<path fill="none" stroke="#63b8ff" d="M117.79,-62.1C140.18,-68.02 169.57,-75.79 196.06,-82.8"/>
<polygon fill="#63b8ff" stroke="#63b8ff" points="195.48,-86.26 206.04,-85.44 197.27,-79.5 195.48,-86.26"/>
</a>
</g>
</g>
<!-- Node3 -->
<g id="Node000003" class="node">
<title>Node3</title>
<g id="a_Node000003"><a xlink:href="classclip_1_1DataArray.html#ad92bc0b32c737083b300cb7bbc029b32" target="_top" xlink:title="Allocates host memory (CPU) for a given pointer.">
<polygon fill="white" stroke="#666666" points="331,-67.5 197,-67.5 197,-37.5 331,-37.5 331,-67.5"/>
<text text-anchor="start" x="205" y="-55.5" font-family="Helvetica,sans-Serif" font-size="10.00">clip::DataArray::allocate</text>
<text text-anchor="middle" x="264" y="-44.5" font-family="Helvetica,sans-Serif" font-size="10.00">OnHost</text>
</a>
</g>
</g>
<!-- Node1&#45;&gt;Node3 -->
<g id="edge2_Node000001_Node000003" class="edge">
<title>Node1&#45;&gt;Node3</title>
<g id="a_edge2_Node000001_Node000003"><a xlink:title=" ">
<path fill="none" stroke="#63b8ff" d="M161.11,-52.5C169.57,-52.5 178.17,-52.5 186.59,-52.5"/>
<polygon fill="#63b8ff" stroke="#63b8ff" points="186.77,-56 196.77,-52.5 186.77,-49 186.77,-56"/>
</a>
</g>
</g>
<!-- Node4 -->
<g id="Node000004" class="node">
<title>Node4</title>
<g id="a_Node000004"><a xlink:href="classclip_1_1Logger.html#a5928f7a930aa27932050a05167ccfc68" target="_top" xlink:title="Prints a success message to stdout in green.">
<polygon fill="white" stroke="#666666" points="323,-19 205,-19 205,0 323,0 323,-19"/>
<text text-anchor="middle" x="264" y="-7" font-family="Helvetica,sans-Serif" font-size="10.00">clip::Logger::Success</text>
</a>
</g>
</g>
<!-- Node1&#45;&gt;Node4 -->
<g id="edge3_Node000001_Node000004" class="edge">
<title>Node1&#45;&gt;Node4</title>
<g id="a_edge3_Node000001_Node000004"><a xlink:title=" ">
<path fill="none" stroke="#63b8ff" d="M121.78,-42.96C148.69,-36.58 184.27,-28.15 212.99,-21.35"/>
<polygon fill="#63b8ff" stroke="#63b8ff" points="213.91,-24.73 222.83,-19.02 212.29,-17.92 213.91,-24.73"/>
</a>
</g>
</g>
</g>
</svg>
