<?xml version="1.0" encoding="UTF-8" standalone="no"?>
<!DOCTYPE svg PUBLIC "-//W3C//DTD SVG 1.1//EN"
 "http://www.w3.org/Graphics/SVG/1.1/DTD/svg11.dtd">
<!-- Generated by graphviz version 2.43.0 (0)
 -->
<!-- Title: clip::Logger::Error Pages: 1 -->
<svg width="288pt" height="124pt"
 viewBox="0.00 0.00 288.00 123.50" xmlns="http://www.w3.org/2000/svg" xmlns:xlink="http://www.w3.org/1999/xlink">
<g id="graph0" class="graph" transform="scale(1 1) rotate(0) translate(4 119.5)">
<title>clip::Logger::Error</title>
<!-- Node1 -->
<g id="Node000001" class="node">
<title>Node1</title>
<g id="a_Node000001"><a xlink:title="Prints an error message to stderr and optionally throws an exception.">
<polygon fill="#999999" stroke="#666666" points="280,-72.5 178,-72.5 178,-53.5 280,-53.5 280,-72.5"/>
<text text-anchor="middle" x="229" y="-60.5" font-family="Helvetica,sans-Serif" font-size="10.00">clip::Logger::Error</text>
</a>
</g>
</g>
<!-- Node2 -->
<g id="Node000002" class="node">
<title>Node2</title>
<g id="a_Node000002"><a xlink:href="classclip_1_1Reporter.html#a4548a5004878c98e2c991f413b67aae8" target="_top" xlink:title="Prints simulation progress and scalar diagnostics at regular intervals.">
<polygon fill="white" stroke="#666666" points="126,-115.5 16,-115.5 16,-96.5 126,-96.5 126,-115.5"/>
<text text-anchor="middle" x="71" y="-103.5" font-family="Helvetica,sans-Serif" font-size="10.00">clip::Reporter::print</text>
</a>
</g>
</g>
<!-- Node1&#45;&gt;Node2 -->
<g id="edge1_Node000001_Node000002" class="edge">
<title>Node1&#45;&gt;Node2</title>
<g id="a_edge1_Node000001_Node000002"><a xlink:title=" ">
<path fill="none" stroke="#63b8ff" d="M184.11,-75.31C170.61,-79.08 155.7,-83.23 142,-87 130.71,-90.11 118.38,-93.47 107.27,-96.48"/>
<polygon fill="#63b8ff" stroke="#63b8ff" points="185.42,-78.58 194.11,-72.52 183.54,-71.84 185.42,-78.58"/>
</a>
</g>
</g>
<!-- Node3 -->
<g id="Node000003" class="node">
<title>Node3</title>
<g id="a_Node000003"><a xlink:href="classclip_1_1DataArray.html#acec5c45bc83d1dc7ed338091d7ff1a59" target="_top" xlink:title="Reads a host&#45;side array from a binary file.">
<polygon fill="white" stroke="#666666" points="140.5,-78 1.5,-78 1.5,-48 140.5,-48 140.5,-78"/>
<text text-anchor="start" x="9.5" y="-66" font-family="Helvetica,sans-Serif" font-size="10.00">clip::DataArray::readHost</text>
<text text-anchor="middle" x="71" y="-55" font-family="Helvetica,sans-Serif" font-size="10.00">FromFile</text>
</a>
</g>
</g>
<!-- Node1&#45;&gt;Node3 -->
<g id="edge2_Node000001_Node000003" class="edge">
<title>Node1&#45;&gt;Node3</title>
<g id="a_edge2_Node000001_Node000003"><a xlink:title=" ">
<path fill="none" stroke="#63b8ff" d="M167.58,-63C158.74,-63 149.59,-63 140.6,-63"/>
<polygon fill="#63b8ff" stroke="#63b8ff" points="167.78,-66.5 177.78,-63 167.78,-59.5 167.78,-66.5"/>
</a>
</g>
</g>
<!-- Node4 -->
<g id="Node000004" class="node">
<title>Node4</title>
<g id="a_Node000004"><a xlink:href="classclip_1_1DataArray.html#afe42bf305fa3f5b57693d5891192bd54" target="_top" xlink:title="Writes a host&#45;side array to a binary file.">
<polygon fill="white" stroke="#666666" points="142,-30 0,-30 0,0 142,0 142,-30"/>
<text text-anchor="start" x="8" y="-18" font-family="Helvetica,sans-Serif" font-size="10.00">clip::DataArray::writeHost</text>
<text text-anchor="middle" x="71" y="-7" font-family="Helvetica,sans-Serif" font-size="10.00">ToFile</text>
</a>
</g>
</g>
<!-- Node1&#45;&gt;Node4 -->
<g id="edge3_Node000001_Node000004" class="edge">
<title>Node1&#45;&gt;Node4</title>
<g id="a_edge3_Node000001_Node000004"><a xlink:title=" ">
<path fill="none" stroke="#63b8ff" d="M187.23,-50.46C166.94,-44.21 142.26,-36.62 120.95,-30.06"/>
<polygon fill="#63b8ff" stroke="#63b8ff" points="186.22,-53.81 196.81,-53.4 188.28,-47.12 186.22,-53.81"/>
</a>
</g>
</g>
</g>
</svg>
