<?xml version="1.0" encoding="UTF-8" standalone="no"?>
<!DOCTYPE svg PUBLIC "-//W3C//DTD SVG 1.1//EN"
 "http://www.w3.org/Graphics/SVG/1.1/DTD/svg11.dtd">
<!-- Generated by graphviz version 2.43.0 (0)
 -->
<!-- Title: clip::Logger::Success Pages: 1 -->
<svg width="323pt" height="198pt"
 viewBox="0.00 0.00 323.00 197.50" xmlns="http://www.w3.org/2000/svg" xmlns:xlink="http://www.w3.org/1999/xlink">
<g id="graph0" class="graph" transform="scale(1 1) rotate(0) translate(4 193.5)">
<title>clip::Logger::Success</title>
<!-- Node1 -->
<g id="Node000001" class="node">
<title>Node1</title>
<g id="a_Node000001"><a xlink:title="Prints a success message to stdout in green.">
<polygon fill="#999999" stroke="#666666" points="315,-115.5 197,-115.5 197,-96.5 315,-96.5 315,-115.5"/>
<text text-anchor="middle" x="256" y="-103.5" font-family="Helvetica,sans-Serif" font-size="10.00">clip::Logger::Success</text>
</a>
</g>
</g>
<!-- Node2 -->
<g id="Node000002" class="node">
<title>Node2</title>
<g id="a_Node000002"><a xlink:href="classclip_1_1DataArray.html#a8fc70afb353dc09c6057b791ace02cc2" target="_top" xlink:title="Allocate and initialize all host/device field arrays.">
<polygon fill="white" stroke="#666666" points="161,-189.5 0,-189.5 0,-170.5 161,-170.5 161,-189.5"/>
<text text-anchor="middle" x="80.5" y="-177.5" font-family="Helvetica,sans-Serif" font-size="10.00">clip::DataArray::createVectors</text>
</a>
</g>
</g>
<!-- Node1&#45;&gt;Node2 -->
<g id="edge1_Node000001_Node000002" class="edge">
<title>Node1&#45;&gt;Node2</title>
<g id="a_edge1_Node000001_Node000002"><a xlink:title=" ">
<path fill="none" stroke="#63b8ff" d="M233.75,-121.32C215.33,-133.93 187.53,-151.4 161,-162 152.59,-165.36 143.41,-168.16 134.38,-170.48"/>
<polygon fill="#63b8ff" stroke="#63b8ff" points="235.8,-124.16 242,-115.57 231.79,-118.42 235.8,-124.16"/>
</a>
</g>
</g>
<!-- Node3 -->
<g id="Node000003" class="node">
<title>Node3</title>
<g id="a_Node000003"><a xlink:href="classclip_1_1Geometry.html#ab35d3f3713aa7001eff031b00cf11e05" target="_top" xlink:title="Constructs the Geometry manager using simulation input parameters.">
<polygon fill="white" stroke="#666666" points="152,-152.5 9,-152.5 9,-133.5 152,-133.5 152,-152.5"/>
<text text-anchor="middle" x="80.5" y="-140.5" font-family="Helvetica,sans-Serif" font-size="10.00">clip::Geometry::Geometry</text>
</a>
</g>
</g>
<!-- Node1&#45;&gt;Node3 -->
<g id="edge2_Node000001_Node000003" class="edge">
<title>Node1&#45;&gt;Node3</title>
<g id="a_edge2_Node000001_Node000003"><a xlink:title=" ">
<path fill="none" stroke="#63b8ff" d="M200.36,-117.65C176.53,-122.73 148.93,-128.62 126.33,-133.44"/>
<polygon fill="#63b8ff" stroke="#63b8ff" points="201.27,-121.04 210.32,-115.53 199.81,-114.19 201.27,-121.04"/>
</a>
</g>
</g>
<!-- Node4 -->
<g id="Node000004" class="node">
<title>Node4</title>
<g id="a_Node000004"><a xlink:href="classclip_1_1InputData.html#a76f672f8ebc161d1d1ff557007c44a7a" target="_top" xlink:title="Constructs the InputData object and optionally sets the config file path.">
<polygon fill="white" stroke="#666666" points="151.5,-115.5 9.5,-115.5 9.5,-96.5 151.5,-96.5 151.5,-115.5"/>
<text text-anchor="middle" x="80.5" y="-103.5" font-family="Helvetica,sans-Serif" font-size="10.00">clip::InputData::InputData</text>
</a>
</g>
</g>
<!-- Node1&#45;&gt;Node4 -->
<g id="edge3_Node000001_Node000004" class="edge">
<title>Node1&#45;&gt;Node4</title>
<g id="a_edge3_Node000001_Node000004"><a xlink:title=" ">
<path fill="none" stroke="#63b8ff" d="M186.4,-106C174.97,-106 163.1,-106 151.64,-106"/>
<polygon fill="#63b8ff" stroke="#63b8ff" points="186.74,-109.5 196.74,-106 186.74,-102.5 186.74,-109.5"/>
</a>
</g>
</g>
<!-- Node5 -->
<g id="Node000005" class="node">
<title>Node5</title>
<g id="a_Node000005"><a xlink:href="classclip_1_1CheckPointer.html#a078b994634c304e83f1ba8cb24afaf34" target="_top" xlink:title="Loads simulation state from the latest checkpoint folder.">
<polygon fill="white" stroke="#666666" points="132.5,-78 28.5,-78 28.5,-48 132.5,-48 132.5,-78"/>
<text text-anchor="start" x="36.5" y="-66" font-family="Helvetica,sans-Serif" font-size="10.00">clip::CheckPointer</text>
<text text-anchor="middle" x="80.5" y="-55" font-family="Helvetica,sans-Serif" font-size="10.00">::load</text>
</a>
</g>
</g>
<!-- Node1&#45;&gt;Node5 -->
<g id="edge4_Node000001_Node000005" class="edge">
<title>Node1&#45;&gt;Node5</title>
<g id="a_edge4_Node000001_Node000005"><a xlink:title=" ">
<path fill="none" stroke="#63b8ff" d="M206.61,-94.01C183.6,-88.31 156.1,-81.49 132.74,-75.7"/>
<polygon fill="#63b8ff" stroke="#63b8ff" points="205.95,-97.45 216.49,-96.46 207.63,-90.65 205.95,-97.45"/>
</a>
</g>
</g>
<!-- Node6 -->
<g id="Node000006" class="node">
<title>Node6</title>
<g id="a_Node000006"><a xlink:href="classclip_1_1CheckPointer.html#a9a0e77ad279ce0cec65af1ff7abe8212" target="_top" xlink:title="Saves the current simulation state to a binary checkpoint folder.">
<polygon fill="white" stroke="#666666" points="132.5,-30 28.5,-30 28.5,0 132.5,0 132.5,-30"/>
<text text-anchor="start" x="36.5" y="-18" font-family="Helvetica,sans-Serif" font-size="10.00">clip::CheckPointer</text>
<text text-anchor="middle" x="80.5" y="-7" font-family="Helvetica,sans-Serif" font-size="10.00">::save</text>
</a>
</g>
</g>
<!-- Node1&#45;&gt;Node6 -->
<g id="edge5_Node000001_Node000006" class="edge">
<title>Node1&#45;&gt;Node6</title>
<g id="a_edge5_Node000001_Node000006"><a xlink:title=" ">
<path fill="none" stroke="#63b8ff" d="M236.17,-89.74C217.98,-74.75 189.14,-52.81 161,-39 152.2,-34.68 142.46,-30.96 132.91,-27.83"/>
<polygon fill="#63b8ff" stroke="#63b8ff" points="234.28,-92.72 244.19,-96.47 238.78,-87.36 234.28,-92.72"/>
</a>
</g>
</g>
</g>
</svg>
