<?xml version="1.0" encoding="UTF-8" standalone="no"?>
<!DOCTYPE svg PUBLIC "-//W3C//DTD SVG 1.1//EN"
 "http://www.w3.org/Graphics/SVG/1.1/DTD/svg11.dtd">
<!-- Generated by graphviz version 2.43.0 (0)
 -->
<!-- Title: clip::WMRT::convertD3Q19Weighted Pages: 1 -->
<svg width="327pt" height="100pt"
 viewBox="0.00 0.00 327.00 100.00" xmlns="http://www.w3.org/2000/svg" xmlns:xlink="http://www.w3.org/1999/xlink">
<g id="graph0" class="graph" transform="scale(1 1) rotate(0) translate(4 96)">
<title>clip::WMRT::convertD3Q19Weighted</title>
<!-- Node1 -->
<g id="Node000001" class="node">
<title>Node1</title>
<g id="a_Node000001"><a xlink:title="Converts a D3Q19 distribution function to weighted moment space.">
<polygon fill="#999999" stroke="#666666" points="319,-51.5 173,-51.5 173,-21.5 319,-21.5 319,-51.5"/>
<text text-anchor="start" x="181" y="-39.5" font-family="Helvetica,sans-Serif" font-size="10.00">clip::WMRT::convertD3Q19</text>
<text text-anchor="middle" x="246" y="-28.5" font-family="Helvetica,sans-Serif" font-size="10.00">Weighted</text>
</a>
</g>
</g>
<!-- Node2 -->
<g id="Node000002" class="node">
<title>Node2</title>
<g id="a_Node000002"><a xlink:href="NsAllen_8cu.html#aedad68d26df71048d527a28ddff8d870" target="_top" xlink:title="Applies MRT collision operator for momentum distribution f, including force correction.">
<polygon fill="white" stroke="#666666" points="137,-74 0,-74 0,-55 137,-55 137,-74"/>
<text text-anchor="middle" x="68.5" y="-62" font-family="Helvetica,sans-Serif" font-size="10.00">clip::kernelCollisionMRTf</text>
</a>
</g>
</g>
<!-- Node1&#45;&gt;Node2 -->
<g id="edge1_Node000001_Node000002" class="edge">
<title>Node1&#45;&gt;Node2</title>
<g id="a_edge1_Node000001_Node000002"><a xlink:title=" ">
<path fill="none" stroke="#63b8ff" d="M162.89,-49.6C151.49,-51.42 139.96,-53.26 129.08,-54.99"/>
<polygon fill="#63b8ff" stroke="#63b8ff" points="163.53,-53.04 172.86,-48.01 162.43,-46.13 163.53,-53.04"/>
</a>
</g>
</g>
<!-- Node3 -->
<g id="Node000003" class="node">
<title>Node3</title>
<g id="a_Node000003"><a xlink:href="NsAllen_8cu.html#aa10e41daef6dce572416e72c28c8c79e" target="_top" xlink:title="Computes macroscopic velocity and pressure from f_post, including body forces.">
<polygon fill="white" stroke="#666666" points="135.5,-19 1.5,-19 1.5,0 135.5,0 135.5,-19"/>
<text text-anchor="middle" x="68.5" y="-7" font-family="Helvetica,sans-Serif" font-size="10.00">clip::kernelMacroscopicf</text>
</a>
</g>
</g>
<!-- Node1&#45;&gt;Node3 -->
<g id="edge3_Node000001_Node000003" class="edge">
<title>Node1&#45;&gt;Node3</title>
<g id="a_edge3_Node000001_Node000003"><a xlink:title=" ">
<path fill="none" stroke="#63b8ff" d="M162.76,-23.85C152.16,-22.22 141.46,-20.57 131.28,-19"/>
<polygon fill="#63b8ff" stroke="#63b8ff" points="162.44,-27.34 172.86,-25.4 163.51,-20.42 162.44,-27.34"/>
</a>
</g>
</g>
<!-- Node2&#45;&gt;Node2 -->
<g id="edge2_Node000002_Node000002" class="edge">
<title>Node2&#45;&gt;Node2</title>
<g id="a_edge2_Node000002_Node000002"><a xlink:title=" ">
<path fill="none" stroke="#63b8ff" d="M101.43,-82.45C100.5,-87.82 89.52,-92 68.5,-92 37.22,-92 28.18,-82.73 41.37,-74.08"/>
<polygon fill="#63b8ff" stroke="#63b8ff" points="104.2,-80.3 95.63,-74.08 98.45,-84.29 104.2,-80.3"/>
</a>
</g>
</g>
<!-- Node3&#45;&gt;Node3 -->
<g id="edge4_Node000003_Node000003" class="edge">
<title>Node3&#45;&gt;Node3</title>
<g id="a_edge4_Node000003_Node000003"><a xlink:title=" ">
<path fill="none" stroke="#63b8ff" d="M101.43,-27.45C100.5,-32.82 89.52,-37 68.5,-37 37.22,-37 28.18,-27.73 41.37,-19.08"/>
<polygon fill="#63b8ff" stroke="#63b8ff" points="104.2,-25.3 95.63,-19.08 98.45,-29.29 104.2,-25.3"/>
</a>
</g>
</g>
</g>
</svg>
