<?xml version="1.0" encoding="UTF-8" standalone="no"?>
<!DOCTYPE svg PUBLIC "-//W3C//DTD SVG 1.1//EN"
 "http://www.w3.org/Graphics/SVG/1.1/DTD/svg11.dtd">
<!-- Generated by graphviz version 2.43.0 (0)
 -->
<!-- Title: clip::VTSwriter::writeToFile Pages: 1 -->
<svg width="532pt" height="70pt"
 viewBox="0.00 0.00 532.00 69.50" xmlns="http://www.w3.org/2000/svg" xmlns:xlink="http://www.w3.org/1999/xlink">
<g id="graph0" class="graph" transform="scale(1 1) rotate(0) translate(4 65.5)">
<title>clip::VTSwriter::writeToFile</title>
<!-- Node1 -->
<g id="Node000001" class="node">
<title>Node1</title>
<g id="a_Node000001"><a xlink:title="Writes the current state of the simulation to a .vts file.">
<polygon fill="#999999" stroke="#666666" points="146,-42.5 0,-42.5 0,-23.5 146,-23.5 146,-42.5"/>
<text text-anchor="middle" x="73" y="-30.5" font-family="Helvetica,sans-Serif" font-size="10.00">clip::VTSwriter::writeToFile</text>
</a>
</g>
</g>
<!-- Node2 -->
<g id="Node000002" class="node">
<title>Node2</title>
<g id="a_Node000002"><a xlink:href="classclip_1_1TimeInfo.html#a5234fefe54a7e7cadde351dacc44c409" target="_top" xlink:title="Returns the current time step index.">
<polygon fill="white" stroke="#666666" points="345,-61.5 182,-61.5 182,-42.5 345,-42.5 345,-61.5"/>
<text text-anchor="middle" x="263.5" y="-49.5" font-family="Helvetica,sans-Serif" font-size="10.00">clip::TimeInfo::getCurrentStep</text>
</a>
</g>
</g>
<!-- Node1&#45;&gt;Node2 -->
<g id="edge1_Node000001_Node000002" class="edge">
<title>Node1&#45;&gt;Node2</title>
<g id="a_edge1_Node000001_Node000002"><a xlink:title=" ">
<path fill="none" stroke="#63b8ff" d="M146.07,-40.26C154.51,-41.12 163.21,-41.99 171.86,-42.86"/>
<polygon fill="#63b8ff" stroke="#63b8ff" points="171.68,-46.36 181.98,-43.88 172.38,-39.4 171.68,-46.36"/>
</a>
</g>
</g>
<!-- Node3 -->
<g id="Node000003" class="node">
<title>Node3</title>
<g id="a_Node000003"><a xlink:href="classclip_1_1DataArray.html#a40ab776122c1ae67d827eb06cc85186a" target="_top" xlink:title="Copy all device&#45;side fields to host.">
<polygon fill="white" stroke="#666666" points="339,-24.5 188,-24.5 188,-5.5 339,-5.5 339,-24.5"/>
<text text-anchor="middle" x="263.5" y="-12.5" font-family="Helvetica,sans-Serif" font-size="10.00">clip::DataArray::updateHost</text>
</a>
</g>
</g>
<!-- Node1&#45;&gt;Node3 -->
<g id="edge2_Node000001_Node000003" class="edge">
<title>Node1&#45;&gt;Node3</title>
<g id="a_edge2_Node000001_Node000003"><a xlink:title=" ">
<path fill="none" stroke="#63b8ff" d="M146.07,-26.12C156.47,-25.13 167.25,-24.1 177.86,-23.08"/>
<polygon fill="#63b8ff" stroke="#63b8ff" points="178.35,-26.55 187.97,-22.12 177.68,-19.58 178.35,-26.55"/>
</a>
</g>
</g>
<!-- Node4 -->
<g id="Node000004" class="node">
<title>Node4</title>
<g id="a_Node000004"><a xlink:href="classclip_1_1DataArray.html#af31724dcf1ee75538cd6045b0ce0b5e6" target="_top" xlink:title="Copies data from device to host.">
<polygon fill="white" stroke="#666666" points="524,-30 381,-30 381,0 524,0 524,-30"/>
<text text-anchor="start" x="389" y="-18" font-family="Helvetica,sans-Serif" font-size="10.00">clip::DataArray::copyFrom</text>
<text text-anchor="middle" x="452.5" y="-7" font-family="Helvetica,sans-Serif" font-size="10.00">Device</text>
</a>
</g>
</g>
<!-- Node3&#45;&gt;Node4 -->
<g id="edge3_Node000003_Node000004" class="edge">
<title>Node3&#45;&gt;Node4</title>
<g id="a_edge3_Node000003_Node000004"><a xlink:title=" ">
<path fill="none" stroke="#63b8ff" d="M339.21,-15C349.51,-15 360.13,-15 370.54,-15"/>
<polygon fill="#63b8ff" stroke="#63b8ff" points="370.85,-18.5 380.85,-15 370.85,-11.5 370.85,-18.5"/>
</a>
</g>
</g>
</g>
</svg>
