<?xml version="1.0" encoding="UTF-8" standalone="no"?>
<!DOCTYPE svg PUBLIC "-//W3C//DTD SVG 1.1//EN"
 "http://www.w3.org/Graphics/SVG/1.1/DTD/svg11.dtd">
<!-- Generated by graphviz version 2.43.0 (0)
 -->
<!-- Title: clip::WMRT::reconvertD3Q19Weighted Pages: 1 -->
<svg width="336pt" height="100pt"
 viewBox="0.00 0.00 336.00 100.00" xmlns="http://www.w3.org/2000/svg" xmlns:xlink="http://www.w3.org/1999/xlink">
<g id="graph0" class="graph" transform="scale(1 1) rotate(0) translate(4 96)">
<title>clip::WMRT::reconvertD3Q19Weighted</title>
<!-- Node1 -->
<g id="Node000001" class="node">
<title>Node1</title>
<g id="a_Node000001"><a xlink:title="Reconstructs the D3Q19 distribution function from weighted moments.">
<polygon fill="#999999" stroke="#666666" points="328,-51.5 173,-51.5 173,-21.5 328,-21.5 328,-51.5"/>
<text text-anchor="start" x="181" y="-39.5" font-family="Helvetica,sans-Serif" font-size="10.00">clip::WMRT::reconvertD3Q19</text>
<text text-anchor="middle" x="250.5" y="-28.5" font-family="Helvetica,sans-Serif" font-size="10.00">Weighted</text>
</a>
</g>
</g>
<!-- Node2 -->
<g id="Node000002" class="node">
<title>Node2</title>
<g id="a_Node000002"><a xlink:href="NsAllen_8cu.html#aedad68d26df71048d527a28ddff8d870" target="_top" xlink:title="Applies MRT collision operator for momentum distribution f, including force correction.">
<polygon fill="white" stroke="#666666" points="137,-74 0,-74 0,-55 137,-55 137,-74"/>
<text text-anchor="middle" x="68.5" y="-62" font-family="Helvetica,sans-Serif" font-size="10.00">clip::kernelCollisionMRTf</text>
</a>
</g>
</g>
<!-- Node1&#45;&gt;Node2 -->
<g id="edge1_Node000001_Node000002" class="edge">
<title>Node1&#45;&gt;Node2</title>
<g id="a_edge1_Node000001_Node000002"><a xlink:title=" ">
<path fill="none" stroke="#63b8ff" d="M162.96,-49.96C152.09,-51.65 141.15,-53.35 130.78,-54.97"/>
<polygon fill="#63b8ff" stroke="#63b8ff" points="163.56,-53.41 172.9,-48.42 162.48,-46.49 163.56,-53.41"/>
</a>
</g>
</g>
<!-- Node3 -->
<g id="Node000003" class="node">
<title>Node3</title>
<g id="a_Node000003"><a xlink:href="NsAllen_8cu.html#aa10e41daef6dce572416e72c28c8c79e" target="_top" xlink:title="Computes macroscopic velocity and pressure from f_post, including body forces.">
<polygon fill="white" stroke="#666666" points="135.5,-19 1.5,-19 1.5,0 135.5,0 135.5,-19"/>
<text text-anchor="middle" x="68.5" y="-7" font-family="Helvetica,sans-Serif" font-size="10.00">clip::kernelMacroscopicf</text>
</a>
</g>
</g>
<!-- Node1&#45;&gt;Node3 -->
<g id="edge3_Node000001_Node000003" class="edge">
<title>Node1&#45;&gt;Node3</title>
<g id="a_edge3_Node000001_Node000003"><a xlink:title=" ">
<path fill="none" stroke="#63b8ff" d="M162.87,-23.51C152.8,-22 142.68,-20.48 133,-19.03"/>
<polygon fill="#63b8ff" stroke="#63b8ff" points="162.49,-26.99 172.9,-25.01 163.53,-20.07 162.49,-26.99"/>
</a>
</g>
</g>
<!-- Node2&#45;&gt;Node2 -->
<g id="edge2_Node000002_Node000002" class="edge">
<title>Node2&#45;&gt;Node2</title>
<g id="a_edge2_Node000002_Node000002"><a xlink:title=" ">
<path fill="none" stroke="#63b8ff" d="M102.61,-82.07C102.11,-87.62 90.74,-92 68.5,-92 36.15,-92 26.8,-82.73 40.45,-74.08"/>
<polygon fill="#63b8ff" stroke="#63b8ff" points="105.38,-79.94 96.55,-74.08 99.8,-84.17 105.38,-79.94"/>
</a>
</g>
</g>
<!-- Node3&#45;&gt;Node3 -->
<g id="edge4_Node000003_Node000003" class="edge">
<title>Node3&#45;&gt;Node3</title>
<g id="a_edge4_Node000003_Node000003"><a xlink:title=" ">
<path fill="none" stroke="#63b8ff" d="M102.61,-27.07C102.11,-32.62 90.74,-37 68.5,-37 36.15,-37 26.8,-27.73 40.45,-19.08"/>
<polygon fill="#63b8ff" stroke="#63b8ff" points="105.38,-24.94 96.55,-19.08 99.8,-29.17 105.38,-24.94"/>
</a>
</g>
</g>
</g>
</svg>
