<?xml version="1.0" encoding="UTF-8" standalone="no"?>
<!DOCTYPE svg PUBLIC "-//W3C//DTD SVG 1.1//EN"
 "http://www.w3.org/Graphics/SVG/1.1/DTD/svg11.dtd">
<!-- Generated by graphviz version 2.43.0 (0)
 -->
<!-- Title: clip::NSAllen::Equilibrium_new Pages: 1 -->
<svg width="385pt" height="210pt"
 viewBox="0.00 0.00 385.00 210.00" xmlns="http://www.w3.org/2000/svg" xmlns:xlink="http://www.w3.org/1999/xlink">

<svg id="main" version="1.1" xmlns="http://www.w3.org/2000/svg" xmlns:xlink="http://www.w3.org/1999/xlink" xml:space="preserve" onload="init(evt)">
<style type="text/css"><![CDATA[
.node, .edge {opacity: 0.7;}
.node.selected, .edge.selected {opacity: 1;}
.edge:hover path { stroke: red; }
.edge:hover polygon { stroke: red; fill: red; }
]]></style>
<script type="application/ecmascript" xlink:href="svg.min.js"/>
<svg id="graph" class="graph">
<g id="graph0" class="graph" transform="scale(1 1) rotate(0) translate(4 206)">
<title>clip::NSAllen::Equilibrium_new</title>
<!-- Node1 -->
<g id="Node000001" class="node">
<title>Node1</title>
<g id="a_Node000001"><a xlink:title="Computes equilibrium distribution for a given velocity set.">
<polygon fill="#999999" stroke="#666666" points="377,-101 211,-101 211,-82 377,-82 377,-101"/>
<text text-anchor="middle" x="294" y="-89" font-family="Helvetica,sans-Serif" font-size="10.00">clip::NSAllen::Equilibrium_new</text>
</a>
</g>
</g>
<!-- Node2 -->
<g id="Node000002" class="node">
<title>Node2</title>
<g id="a_Node000002"><a xlink:href="NsAllen_8cu.html#aedad68d26df71048d527a28ddff8d870" target="_top" xlink:title="Applies MRT collision operator for momentum distribution f, including force correction.">
<polygon fill="white" stroke="#666666" points="156,-184 19,-184 19,-165 156,-165 156,-184"/>
<text text-anchor="middle" x="87.5" y="-172" font-family="Helvetica,sans-Serif" font-size="10.00">clip::kernelCollisionMRTf</text>
</a>
</g>
</g>
<!-- Node1&#45;&gt;Node2 -->
<g id="edge1_Node000001_Node000002" class="edge">
<title>Node1&#45;&gt;Node2</title>
<g id="a_edge1_Node000001_Node000002"><a xlink:title=" ">
<path fill="none" stroke="#63b8ff" d="M270.38,-106.65C247.32,-121.43 210.05,-143.53 175,-156.5 165.94,-159.85 156.1,-162.65 146.41,-164.95"/>
<polygon fill="#63b8ff" stroke="#63b8ff" points="272.3,-109.57 278.77,-101.19 268.48,-103.71 272.3,-109.57"/>
</a>
</g>
</g>
<!-- Node3 -->
<g id="Node000003" class="node">
<title>Node3</title>
<g id="a_Node000003"><a xlink:href="NsAllen_8cu.html#ab1715d7bdc80b87a920ae9087c026f76" target="_top" xlink:title="Applies MRT collision operator for phase field distribution g.">
<polygon fill="white" stroke="#666666" points="157,-129 18,-129 18,-110 157,-110 157,-129"/>
<text text-anchor="middle" x="87.5" y="-117" font-family="Helvetica,sans-Serif" font-size="10.00">clip::kernelCollisionMRTg</text>
</a>
</g>
</g>
<!-- Node1&#45;&gt;Node3 -->
<g id="edge3_Node000001_Node000003" class="edge">
<title>Node1&#45;&gt;Node3</title>
<g id="a_edge3_Node000001_Node000003"><a xlink:title=" ">
<path fill="none" stroke="#63b8ff" d="M213.56,-102.38C194.93,-104.93 175.24,-107.62 157.13,-110.1"/>
<polygon fill="#63b8ff" stroke="#63b8ff" points="214.05,-105.84 223.48,-101.02 213.1,-98.91 214.05,-105.84"/>
</a>
</g>
</g>
<!-- Node4 -->
<g id="Node000004" class="node">
<title>Node4</title>
<g id="a_Node000004"><a xlink:href="NsAllen_8cu.html#ad1d2ac4e591cb614c31cb6ef292bab8b" target="_top" xlink:title="Initializes device&#45;side distributions, density, pressure, velocity, and normals.">
<polygon fill="white" stroke="#666666" points="175,-74 0,-74 0,-55 175,-55 175,-74"/>
<text text-anchor="middle" x="87.5" y="-62" font-family="Helvetica,sans-Serif" font-size="10.00">clip::KernelInitializeDistributions</text>
</a>
</g>
</g>
<!-- Node1&#45;&gt;Node4 -->
<g id="edge5_Node000001_Node000004" class="edge">
<title>Node1&#45;&gt;Node4</title>
<g id="a_edge5_Node000001_Node000004"><a xlink:title=" ">
<path fill="none" stroke="#63b8ff" d="M210.69,-80.63C194.12,-78.45 176.83,-76.16 160.64,-74.02"/>
<polygon fill="#63b8ff" stroke="#63b8ff" points="210.53,-84.14 220.9,-81.98 211.45,-77.2 210.53,-84.14"/>
</a>
</g>
</g>
<!-- Node5 -->
<g id="Node000005" class="node">
<title>Node5</title>
<g id="a_Node000005"><a xlink:href="NsAllen_8cu.html#aa10e41daef6dce572416e72c28c8c79e" target="_top" xlink:title="Computes macroscopic velocity and pressure from f_post, including body forces.">
<polygon fill="white" stroke="#666666" points="154.5,-19 20.5,-19 20.5,0 154.5,0 154.5,-19"/>
<text text-anchor="middle" x="87.5" y="-7" font-family="Helvetica,sans-Serif" font-size="10.00">clip::kernelMacroscopicf</text>
</a>
</g>
</g>
<!-- Node1&#45;&gt;Node5 -->
<g id="edge7_Node000001_Node000005" class="edge">
<title>Node1&#45;&gt;Node5</title>
<g id="a_edge7_Node000001_Node000005"><a xlink:title=" ">
<path fill="none" stroke="#63b8ff" d="M259.76,-78.17C218.34,-61.56 148.59,-33.6 112.21,-19.01"/>
<polygon fill="#63b8ff" stroke="#63b8ff" points="258.56,-81.46 269.14,-81.93 261.16,-74.96 258.56,-81.46"/>
</a>
</g>
</g>
<!-- Node2&#45;&gt;Node2 -->
<g id="edge2_Node000002_Node000002" class="edge">
<title>Node2&#45;&gt;Node2</title>
<g id="a_edge2_Node000002_Node000002"><a xlink:title=" ">
<path fill="none" stroke="#63b8ff" d="M126.12,-191.69C126.12,-197.42 113.24,-202 87.5,-202 50.89,-202 40.3,-192.73 55.75,-184.08"/>
<polygon fill="#63b8ff" stroke="#63b8ff" points="128.55,-189.16 119.25,-184.08 123.36,-193.85 128.55,-189.16"/>
</a>
</g>
</g>
<!-- Node3&#45;&gt;Node3 -->
<g id="edge4_Node000003_Node000003" class="edge">
<title>Node3&#45;&gt;Node3</title>
<g id="a_edge4_Node000003_Node000003"><a xlink:title=" ">
<path fill="none" stroke="#63b8ff" d="M126.12,-136.69C126.12,-142.42 113.24,-147 87.5,-147 50.89,-147 40.3,-137.73 55.75,-129.08"/>
<polygon fill="#63b8ff" stroke="#63b8ff" points="128.55,-134.16 119.25,-129.08 123.36,-138.85 128.55,-134.16"/>
</a>
</g>
</g>
<!-- Node4&#45;&gt;Node4 -->
<g id="edge6_Node000004_Node000004" class="edge">
<title>Node4&#45;&gt;Node4</title>
<g id="a_edge6_Node000004_Node000004"><a xlink:title=" ">
<path fill="none" stroke="#63b8ff" d="M126.12,-81.69C126.12,-87.42 113.24,-92 87.5,-92 50.89,-92 40.3,-82.73 55.75,-74.08"/>
<polygon fill="#63b8ff" stroke="#63b8ff" points="128.55,-79.16 119.25,-74.08 123.36,-83.85 128.55,-79.16"/>
</a>
</g>
</g>
<!-- Node5&#45;&gt;Node5 -->
<g id="edge8_Node000005_Node000005" class="edge">
<title>Node5&#45;&gt;Node5</title>
<g id="a_edge8_Node000005_Node000005"><a xlink:title=" ">
<path fill="none" stroke="#63b8ff" d="M126.12,-26.69C126.12,-32.42 113.24,-37 87.5,-37 50.89,-37 40.3,-27.73 55.75,-19.08"/>
<polygon fill="#63b8ff" stroke="#63b8ff" points="128.55,-24.16 119.25,-19.08 123.36,-28.85 128.55,-24.16"/>
</a>
</g>
</g>
</g>
</svg>
</svg>

<style type='text/css'>
<![CDATA[
[data-mouse-over-selected='false'] { opacity: 0.7; }
[data-mouse-over-selected='true']  { opacity: 1.0; }
]]>
</style>
<script type="application/ecmascript"><![CDATA[
document.addEventListener('DOMContentLoaded', (event) => {
  highlightEdges();
  highlightAdjacentNodes();
});
]]></script>
</svg>
