<?xml version="1.0" encoding="UTF-8" standalone="no"?>
<!DOCTYPE svg PUBLIC "-//W3C//DTD SVG 1.1//EN"
 "http://www.w3.org/Graphics/SVG/1.1/DTD/svg11.dtd">
<!-- Generated by graphviz version 2.43.0 (0)
 -->
<!-- Title: clip::WMRT::convertD2Q9Weighted Pages: 1 -->
<svg width="366pt" height="100pt"
 viewBox="0.00 0.00 366.00 100.00" xmlns="http://www.w3.org/2000/svg" xmlns:xlink="http://www.w3.org/1999/xlink">
<g id="graph0" class="graph" transform="scale(1 1) rotate(0) translate(4 96)">
<title>clip::WMRT::convertD2Q9Weighted</title>
<!-- Node1 -->
<g id="Node000001" class="node">
<title>Node1</title>
<g id="a_Node000001"><a xlink:title="Converts a D2Q9 distribution function to weighted moment space.">
<polygon fill="#999999" stroke="#666666" points="358,-46 173,-46 173,-27 358,-27 358,-46"/>
<text text-anchor="middle" x="265.5" y="-34" font-family="Helvetica,sans-Serif" font-size="10.00">clip::WMRT::convertD2Q9Weighted</text>
</a>
</g>
</g>
<!-- Node2 -->
<g id="Node000002" class="node">
<title>Node2</title>
<g id="a_Node000002"><a xlink:href="NsAllen_8cu.html#aedad68d26df71048d527a28ddff8d870" target="_top" xlink:title="Applies MRT collision operator for momentum distribution f, including force correction.">
<polygon fill="white" stroke="#666666" points="137,-74 0,-74 0,-55 137,-55 137,-74"/>
<text text-anchor="middle" x="68.5" y="-62" font-family="Helvetica,sans-Serif" font-size="10.00">clip::kernelCollisionMRTf</text>
</a>
</g>
</g>
<!-- Node1&#45;&gt;Node2 -->
<g id="edge1_Node000001_Node000002" class="edge">
<title>Node1&#45;&gt;Node2</title>
<g id="a_edge1_Node000001_Node000002"><a xlink:title=" ">
<path fill="none" stroke="#63b8ff" d="M188.18,-47.46C170.93,-49.94 152.74,-52.55 135.94,-54.96"/>
<polygon fill="#63b8ff" stroke="#63b8ff" points="188.81,-50.9 198.21,-46.02 187.81,-43.98 188.81,-50.9"/>
</a>
</g>
</g>
<!-- Node3 -->
<g id="Node000003" class="node">
<title>Node3</title>
<g id="a_Node000003"><a xlink:href="NsAllen_8cu.html#aa10e41daef6dce572416e72c28c8c79e" target="_top" xlink:title="Computes macroscopic velocity and pressure from f_post, including body forces.">
<polygon fill="white" stroke="#666666" points="135.5,-19 1.5,-19 1.5,0 135.5,0 135.5,-19"/>
<text text-anchor="middle" x="68.5" y="-7" font-family="Helvetica,sans-Serif" font-size="10.00">clip::kernelMacroscopicf</text>
</a>
</g>
</g>
<!-- Node1&#45;&gt;Node3 -->
<g id="edge3_Node000001_Node000003" class="edge">
<title>Node1&#45;&gt;Node3</title>
<g id="a_edge3_Node000001_Node000003"><a xlink:title=" ">
<path fill="none" stroke="#63b8ff" d="M185.55,-25.57C169,-23.28 151.7,-20.88 135.66,-18.66"/>
<polygon fill="#63b8ff" stroke="#63b8ff" points="185.36,-29.08 195.75,-26.98 186.32,-22.14 185.36,-29.08"/>
</a>
</g>
</g>
<!-- Node2&#45;&gt;Node2 -->
<g id="edge2_Node000002_Node000002" class="edge">
<title>Node2&#45;&gt;Node2</title>
<g id="a_edge2_Node000002_Node000002"><a xlink:title=" ">
<path fill="none" stroke="#63b8ff" d="M105.25,-81.69C105.24,-87.42 92.99,-92 68.5,-92 33.66,-92 23.59,-82.73 38.29,-74.08"/>
<polygon fill="#63b8ff" stroke="#63b8ff" points="107.88,-79.38 98.71,-74.08 102.57,-83.95 107.88,-79.38"/>
</a>
</g>
</g>
<!-- Node3&#45;&gt;Node3 -->
<g id="edge4_Node000003_Node000003" class="edge">
<title>Node3&#45;&gt;Node3</title>
<g id="a_edge4_Node000003_Node000003"><a xlink:title=" ">
<path fill="none" stroke="#63b8ff" d="M105.25,-26.69C105.24,-32.42 92.99,-37 68.5,-37 33.66,-37 23.59,-27.73 38.29,-19.08"/>
<polygon fill="#63b8ff" stroke="#63b8ff" points="107.88,-24.38 98.71,-19.08 102.57,-28.95 107.88,-24.38"/>
</a>
</g>
</g>
</g>
</svg>
