<?xml version="1.0" encoding="UTF-8" standalone="no"?>
<!DOCTYPE svg PUBLIC "-//W3C//DTD SVG 1.1//EN"
 "http://www.w3.org/Graphics/SVG/1.1/DTD/svg11.dtd">
<!-- Generated by graphviz version 2.43.0 (0)
 -->
<!-- Title: clip::InputData::InputData Pages: 1 -->
<svg width="304pt" height="113pt"
 viewBox="0.00 0.00 304.00 113.00" xmlns="http://www.w3.org/2000/svg" xmlns:xlink="http://www.w3.org/1999/xlink">
<g id="graph0" class="graph" transform="scale(1 1) rotate(0) translate(4 109)">
<title>clip::InputData::InputData</title>
<!-- Node1 -->
<g id="Node000001" class="node">
<title>Node1</title>
<g id="a_Node000001"><a xlink:title="Constructs the InputData object and optionally sets the config file path.">
<polygon fill="#999999" stroke="#666666" points="142,-62 0,-62 0,-43 142,-43 142,-62"/>
<text text-anchor="middle" x="71" y="-50" font-family="Helvetica,sans-Serif" font-size="10.00">clip::InputData::InputData</text>
</a>
</g>
</g>
<!-- Node2 -->
<g id="Node000002" class="node">
<title>Node2</title>
<g id="a_Node000002"><a xlink:href="classclip_1_1Logger.html#ab64c522dd5e3e1d7fd6aa235c00bcf9d" target="_top" xlink:title="Prints an informational message to stdout.">
<polygon fill="white" stroke="#666666" points="286,-105 188,-105 188,-86 286,-86 286,-105"/>
<text text-anchor="middle" x="237" y="-93" font-family="Helvetica,sans-Serif" font-size="10.00">clip::Logger::Info</text>
</a>
</g>
</g>
<!-- Node1&#45;&gt;Node2 -->
<g id="edge1_Node000001_Node000002" class="edge">
<title>Node1&#45;&gt;Node2</title>
<g id="a_edge1_Node000001_Node000002"><a xlink:title=" ">
<path fill="none" stroke="#63b8ff" d="M108.4,-62.04C132.39,-68.33 164.02,-76.63 189.79,-83.38"/>
<polygon fill="#63b8ff" stroke="#63b8ff" points="189.14,-86.83 199.7,-85.98 190.92,-80.06 189.14,-86.83"/>
</a>
</g>
</g>
<!-- Node3 -->
<g id="Node000003" class="node">
<title>Node3</title>
<g id="a_Node000003"><a xlink:href="classclip_1_1InputData.html#a25aaecdfb44c48b11785dacff0c949ac" target="_top" xlink:title="Parses the configuration file and fills the SimParams structure.">
<polygon fill="white" stroke="#666666" points="295,-67.5 179,-67.5 179,-37.5 295,-37.5 295,-67.5"/>
<text text-anchor="start" x="187" y="-55.5" font-family="Helvetica,sans-Serif" font-size="10.00">clip::InputData::read</text>
<text text-anchor="middle" x="237" y="-44.5" font-family="Helvetica,sans-Serif" font-size="10.00">_config</text>
</a>
</g>
</g>
<!-- Node1&#45;&gt;Node3 -->
<g id="edge2_Node000001_Node000003" class="edge">
<title>Node1&#45;&gt;Node3</title>
<g id="a_edge2_Node000001_Node000003"><a xlink:title=" ">
<path fill="none" stroke="#63b8ff" d="M142.03,-52.5C150.85,-52.5 159.86,-52.5 168.64,-52.5"/>
<polygon fill="#63b8ff" stroke="#63b8ff" points="168.82,-56 178.82,-52.5 168.82,-49 168.82,-56"/>
</a>
</g>
</g>
<!-- Node4 -->
<g id="Node000004" class="node">
<title>Node4</title>
<g id="a_Node000004"><a xlink:href="classclip_1_1Logger.html#a5928f7a930aa27932050a05167ccfc68" target="_top" xlink:title="Prints a success message to stdout in green.">
<polygon fill="white" stroke="#666666" points="296,-19 178,-19 178,0 296,0 296,-19"/>
<text text-anchor="middle" x="237" y="-7" font-family="Helvetica,sans-Serif" font-size="10.00">clip::Logger::Success</text>
</a>
</g>
</g>
<!-- Node1&#45;&gt;Node4 -->
<g id="edge3_Node000001_Node000004" class="edge">
<title>Node1&#45;&gt;Node4</title>
<g id="a_edge3_Node000001_Node000004"><a xlink:title=" ">
<path fill="none" stroke="#63b8ff" d="M108.4,-42.96C132.39,-36.67 164.02,-28.37 189.79,-21.62"/>
<polygon fill="#63b8ff" stroke="#63b8ff" points="190.92,-24.94 199.7,-19.02 189.14,-18.17 190.92,-24.94"/>
</a>
</g>
</g>
</g>
</svg>
