<?xml version="1.0" encoding="UTF-8" standalone="no"?>
<!DOCTYPE svg PUBLIC "-//W3C//DTD SVG 1.1//EN"
 "http://www.w3.org/Graphics/SVG/1.1/DTD/svg11.dtd">
<!-- Generated by graphviz version 2.43.0 (0)
 -->
<!-- Title: clip::Solver::Equilibrium_new Pages: 1 -->
<svg width="301pt" height="45pt"
 viewBox="0.00 0.00 301.00 45.00" xmlns="http://www.w3.org/2000/svg" xmlns:xlink="http://www.w3.org/1999/xlink">
<g id="graph0" class="graph" transform="scale(1 1) rotate(0) translate(4 41)">
<title>clip::Solver::Equilibrium_new</title>
<!-- Node1 -->
<g id="Node000001" class="node">
<title>Node1</title>
<g id="a_Node000001"><a xlink:title="Computes the equilibrium distribution function for WMRT&#45;based solvers.">
<polygon fill="#999999" stroke="#666666" points="293,-19 135,-19 135,0 293,0 293,-19"/>
<text text-anchor="middle" x="214" y="-7" font-family="Helvetica,sans-Serif" font-size="10.00">clip::Solver::Equilibrium_new</text>
</a>
</g>
</g>
<!-- Node2 -->
<g id="Node000002" class="node">
<title>Node2</title>
<g id="a_Node000002"><a xlink:href="Solver_8cu.html#ab311646a75605c814a6112f965b08f28" target="_top" xlink:title="Enforces velocity inlet boundaries using equilibrium&#45;based reflection.">
<polygon fill="white" stroke="#666666" points="99,-19 0,-19 0,0 99,0 99,-19"/>
<text text-anchor="middle" x="49.5" y="-7" font-family="Helvetica,sans-Serif" font-size="10.00">clip::JetBoundary</text>
</a>
</g>
</g>
<!-- Node1&#45;&gt;Node2 -->
<g id="edge1_Node000001_Node000002" class="edge">
<title>Node1&#45;&gt;Node2</title>
<g id="a_edge1_Node000001_Node000002"><a xlink:title=" ">
<path fill="none" stroke="#63b8ff" d="M124.47,-9.5C115.87,-9.5 107.37,-9.5 99.37,-9.5"/>
<polygon fill="#63b8ff" stroke="#63b8ff" points="124.61,-13 134.61,-9.5 124.61,-6 124.61,-13"/>
</a>
</g>
</g>
<!-- Node2&#45;&gt;Node2 -->
<g id="edge2_Node000002_Node000002" class="edge">
<title>Node2&#45;&gt;Node2</title>
<g id="a_edge2_Node000002_Node000002"><a xlink:title=" ">
<path fill="none" stroke="#63b8ff" d="M80.11,-27.82C78.83,-33.01 68.63,-37 49.5,-37 20.35,-37 11.93,-27.73 24.22,-19.08"/>
<polygon fill="#63b8ff" stroke="#63b8ff" points="82.98,-25.79 74.78,-19.08 77,-29.44 82.98,-25.79"/>
</a>
</g>
</g>
</g>
</svg>
