<?xml version="1.0" encoding="UTF-8" standalone="no"?>
<!DOCTYPE svg PUBLIC "-//W3C//DTD SVG 1.1//EN"
 "http://www.w3.org/Graphics/SVG/1.1/DTD/svg11.dtd">
<!-- Generated by graphviz version 2.43.0 (0)
 -->
<!-- Title: clip::WMRT::reconvertD2Q9Weighted Pages: 1 -->
<svg width="330pt" height="100pt"
 viewBox="0.00 0.00 330.00 100.00" xmlns="http://www.w3.org/2000/svg" xmlns:xlink="http://www.w3.org/1999/xlink">
<g id="graph0" class="graph" transform="scale(1 1) rotate(0) translate(4 96)">
<title>clip::WMRT::reconvertD2Q9Weighted</title>
<!-- Node1 -->
<g id="Node000001" class="node">
<title>Node1</title>
<g id="a_Node000001"><a xlink:title="Reconstructs the D2Q9 distribution function from weighted moments.">
<polygon fill="#999999" stroke="#666666" points="322,-51.5 173,-51.5 173,-21.5 322,-21.5 322,-51.5"/>
<text text-anchor="start" x="181" y="-39.5" font-family="Helvetica,sans-Serif" font-size="10.00">clip::WMRT::reconvertD2Q9</text>
<text text-anchor="middle" x="247.5" y="-28.5" font-family="Helvetica,sans-Serif" font-size="10.00">Weighted</text>
</a>
</g>
</g>
<!-- Node2 -->
<g id="Node000002" class="node">
<title>Node2</title>
<g id="a_Node000002"><a xlink:href="NsAllen_8cu.html#aedad68d26df71048d527a28ddff8d870" target="_top" xlink:title="Applies MRT collision operator for momentum distribution f, including force correction.">
<polygon fill="white" stroke="#666666" points="137,-74 0,-74 0,-55 137,-55 137,-74"/>
<text text-anchor="middle" x="68.5" y="-62" font-family="Helvetica,sans-Serif" font-size="10.00">clip::kernelCollisionMRTf</text>
</a>
</g>
</g>
<!-- Node1&#45;&gt;Node2 -->
<g id="edge1_Node000001_Node000002" class="edge">
<title>Node1&#45;&gt;Node2</title>
<g id="a_edge1_Node000001_Node000002"><a xlink:title=" ">
<path fill="none" stroke="#63b8ff" d="M163.1,-49.69C151.8,-51.48 140.39,-53.29 129.62,-54.99"/>
<polygon fill="#63b8ff" stroke="#63b8ff" points="163.64,-53.15 172.97,-48.13 162.55,-46.24 163.64,-53.15"/>
</a>
</g>
</g>
<!-- Node3 -->
<g id="Node000003" class="node">
<title>Node3</title>
<g id="a_Node000003"><a xlink:href="NsAllen_8cu.html#aa10e41daef6dce572416e72c28c8c79e" target="_top" xlink:title="Computes macroscopic velocity and pressure from f_post, including body forces.">
<polygon fill="white" stroke="#666666" points="135.5,-19 1.5,-19 1.5,0 135.5,0 135.5,-19"/>
<text text-anchor="middle" x="68.5" y="-7" font-family="Helvetica,sans-Serif" font-size="10.00">clip::kernelMacroscopicf</text>
</a>
</g>
</g>
<!-- Node1&#45;&gt;Node3 -->
<g id="edge3_Node000001_Node000003" class="edge">
<title>Node1&#45;&gt;Node3</title>
<g id="a_edge3_Node000001_Node000003"><a xlink:title=" ">
<path fill="none" stroke="#63b8ff" d="M162.97,-23.76C152.48,-22.16 141.91,-20.54 131.83,-19.01"/>
<polygon fill="#63b8ff" stroke="#63b8ff" points="162.56,-27.24 172.97,-25.28 163.62,-20.32 162.56,-27.24"/>
</a>
</g>
</g>
<!-- Node2&#45;&gt;Node2 -->
<g id="edge2_Node000002_Node000002" class="edge">
<title>Node2&#45;&gt;Node2</title>
<g id="a_edge2_Node000002_Node000002"><a xlink:title=" ">
<path fill="none" stroke="#63b8ff" d="M101.81,-82.45C100.86,-87.82 89.76,-92 68.5,-92 36.86,-92 27.72,-82.73 41.07,-74.08"/>
<polygon fill="#63b8ff" stroke="#63b8ff" points="104.55,-80.26 95.93,-74.08 98.82,-84.28 104.55,-80.26"/>
</a>
</g>
</g>
<!-- Node3&#45;&gt;Node3 -->
<g id="edge4_Node000003_Node000003" class="edge">
<title>Node3&#45;&gt;Node3</title>
<g id="a_edge4_Node000003_Node000003"><a xlink:title=" ">
<path fill="none" stroke="#63b8ff" d="M101.81,-27.45C100.86,-32.82 89.76,-37 68.5,-37 36.86,-37 27.72,-27.73 41.07,-19.08"/>
<polygon fill="#63b8ff" stroke="#63b8ff" points="104.55,-25.26 95.93,-19.08 98.82,-29.28 104.55,-25.26"/>
</a>
</g>
</g>
</g>
</svg>
