<?xml version="1.0" encoding="UTF-8" standalone="no"?>
<!DOCTYPE svg PUBLIC "-//W3C//DTD SVG 1.1//EN"
 "http://www.w3.org/Graphics/SVG/1.1/DTD/svg11.dtd">
<!-- Generated by graphviz version 2.43.0 (0)
 -->
<!-- Title: clip::NSAllen::initialCondition Pages: 1 -->
<svg width="330pt" height="64pt"
 viewBox="0.00 0.00 330.00 64.00" xmlns="http://www.w3.org/2000/svg" xmlns:xlink="http://www.w3.org/1999/xlink">
<g id="graph0" class="graph" transform="scale(1 1) rotate(0) translate(4 60)">
<title>clip::NSAllen::initialCondition</title>
<!-- Node1 -->
<g id="Node000001" class="node">
<title>Node1</title>
<g id="a_Node000001"><a xlink:title="Sets the initial state of the simulation.">
<polygon fill="#999999" stroke="#666666" points="159,-37 0,-37 0,-18 159,-18 159,-37"/>
<text text-anchor="middle" x="79.5" y="-25" font-family="Helvetica,sans-Serif" font-size="10.00">clip::NSAllen::initialCondition</text>
</a>
</g>
</g>
<!-- Node2 -->
<g id="Node000002" class="node">
<title>Node2</title>
<g id="a_Node000002"><a xlink:href="classclip_1_1Domain.html#aefd93098e1eb64eab548417bdb281ebf" target="_top" xlink:title="Computes a flattened 1D index for multi&#45;DOF data.">
<polygon fill="white" stroke="#666666" points="322,-56 195,-56 195,-37 322,-37 322,-56"/>
<text text-anchor="middle" x="258.5" y="-44" font-family="Helvetica,sans-Serif" font-size="10.00">clip::Domain::getIndex</text>
</a>
</g>
</g>
<!-- Node1&#45;&gt;Node2 -->
<g id="edge1_Node000001_Node000002" class="edge">
<title>Node1&#45;&gt;Node2</title>
<g id="a_edge1_Node000001_Node000002"><a xlink:title=" ">
<path fill="none" stroke="#63b8ff" d="M159.17,-35.94C167.63,-36.85 176.22,-37.78 184.62,-38.68"/>
<polygon fill="#63b8ff" stroke="#63b8ff" points="184.42,-42.18 194.74,-39.76 185.17,-35.22 184.42,-42.18"/>
</a>
</g>
</g>
<!-- Node3 -->
<g id="Node000003" class="node">
<title>Node3</title>
<g id="a_Node000003"><a xlink:href="classclip_1_1Geometry.html#a712c5758502870111af3681060cd5ec9" target="_top" xlink:title="Evaluates the signed distance function (SDF) to a given object at a spatial location.">
<polygon fill="white" stroke="#666666" points="313,-19 204,-19 204,0 313,0 313,-19"/>
<text text-anchor="middle" x="258.5" y="-7" font-family="Helvetica,sans-Serif" font-size="10.00">clip::Geometry::sdf</text>
</a>
</g>
</g>
<!-- Node1&#45;&gt;Node3 -->
<g id="edge2_Node000001_Node000003" class="edge">
<title>Node1&#45;&gt;Node3</title>
<g id="a_edge2_Node000001_Node000003"><a xlink:title=" ">
<path fill="none" stroke="#63b8ff" d="M159.17,-19.5C170.76,-18.32 182.58,-17.12 193.82,-15.98"/>
<polygon fill="#63b8ff" stroke="#63b8ff" points="194.36,-19.44 203.96,-14.95 193.65,-12.48 194.36,-19.44"/>
</a>
</g>
</g>
</g>
</svg>
