<?xml version="1.0" encoding="UTF-8" standalone="no"?>
<!DOCTYPE svg PUBLIC "-//W3C//DTD SVG 1.1//EN"
 "http://www.w3.org/Graphics/SVG/1.1/DTD/svg11.dtd">
<!-- Generated by graphviz version 2.43.0 (0)
 -->
<!-- Title: /home/runner/work/CLIP/CLIP/include/data/DataArray.cuh Pages: 1 -->
<svg width="997pt" height="247pt"
 viewBox="0.00 0.00 997.18 247.00" xmlns="http://www.w3.org/2000/svg" xmlns:xlink="http://www.w3.org/1999/xlink">
<g id="graph0" class="graph" transform="scale(1 1) rotate(0) translate(4 243)">
<title>/home/runner/work/CLIP/CLIP/include/data/DataArray.cuh</title>
<!-- Node1 -->
<g id="Node000001" class="node">
<title>Node1</title>
<g id="a_Node000001"><a xlink:title="Defines the DataArray class for managing all host/device memory allocation, data transfer,...">
<polygon fill="#999999" stroke="#666666" points="605.68,-239 430.68,-239 430.68,-209 605.68,-209 605.68,-239"/>
<text text-anchor="start" x="438.68" y="-227" font-family="Helvetica,sans-Serif" font-size="10.00">/home/runner/work/CLIP</text>
<text text-anchor="middle" x="518.18" y="-216" font-family="Helvetica,sans-Serif" font-size="10.00">/CLIP/include/data/DataArray.cuh</text>
</a>
</g>
</g>
<!-- Node2 -->
<g id="Node000002" class="node">
<title>Node2</title>
<g id="a_Node000002"><a xlink:href="NsAllen_8cuh.html" target="_top" xlink:title="Defines the NSAllen class, a Navier–Stokes solver using the Allen–Cahn phase&#45;field approach within th...">
<polygon fill="white" stroke="#666666" points="750.68,-107 617.68,-107 617.68,-66 750.68,-66 750.68,-107"/>
<text text-anchor="start" x="625.68" y="-95" font-family="Helvetica,sans-Serif" font-size="10.00">/home/runner/work/CLIP</text>
<text text-anchor="start" x="625.68" y="-84" font-family="Helvetica,sans-Serif" font-size="10.00">/CLIP/include/equation</text>
<text text-anchor="middle" x="684.18" y="-73" font-family="Helvetica,sans-Serif" font-size="10.00">/NsAllen.cuh</text>
</a>
</g>
</g>
<!-- Node1&#45;&gt;Node2 -->
<g id="edge1_Node000001_Node000002" class="edge">
<title>Node1&#45;&gt;Node2</title>
<g id="a_edge1_Node000001_Node000002"><a xlink:title=" ">
<path fill="none" stroke="#63b8ff" d="M560.43,-204.45C577.11,-196.1 595.89,-185.33 611.18,-173 635.03,-153.76 657.09,-125.96 670.58,-107.34"/>
<polygon fill="#63b8ff" stroke="#63b8ff" points="558.88,-201.32 551.42,-208.84 561.95,-207.61 558.88,-201.32"/>
</a>
</g>
</g>
<!-- Node4 -->
<g id="Node000004" class="node">
<title>Node4</title>
<g id="a_Node000004"><a xlink:href="main_8cu.html" target="_top" xlink:title="Main entry point for CLIP: CUDA Lattice Boltzmann Solver for Interfacial Phenomena.">
<polygon fill="white" stroke="#666666" points="307.68,-30 174.68,-30 174.68,0 307.68,0 307.68,-30"/>
<text text-anchor="start" x="182.68" y="-18" font-family="Helvetica,sans-Serif" font-size="10.00">/home/runner/work/CLIP</text>
<text text-anchor="middle" x="241.18" y="-7" font-family="Helvetica,sans-Serif" font-size="10.00">/CLIP/src/main.cu</text>
</a>
</g>
</g>
<!-- Node1&#45;&gt;Node4 -->
<g id="edge18_Node000001_Node000004" class="edge">
<title>Node1&#45;&gt;Node4</title>
<g id="a_edge18_Node000001_Node000004"><a xlink:title=" ">
<path fill="none" stroke="#63b8ff" d="M420.44,-223.01C301.39,-221.26 108.86,-212.2 50.18,-173 8.46,-145.13 -17.25,-105.11 14.18,-66 34.03,-41.31 114.91,-28.1 174.5,-21.57"/>
<polygon fill="#63b8ff" stroke="#63b8ff" points="420.62,-226.52 430.66,-223.15 420.71,-219.52 420.62,-226.52"/>
</a>
</g>
</g>
<!-- Node5 -->
<g id="Node000005" class="node">
<title>Node5</title>
<g id="a_Node000005"><a xlink:href="CheckPointer_8cuh.html" target="_top" xlink:title="Defines the CheckPointer class for saving and restoring simulation state in the CLIP LBM framework.">
<polygon fill="white" stroke="#666666" points="237.18,-173 59.18,-173 59.18,-143 237.18,-143 237.18,-173"/>
<text text-anchor="start" x="67.18" y="-161" font-family="Helvetica,sans-Serif" font-size="10.00">/home/runner/work/CLIP</text>
<text text-anchor="middle" x="148.18" y="-150" font-family="Helvetica,sans-Serif" font-size="10.00">/CLIP/include/io/CheckPointer.cuh</text>
</a>
</g>
</g>
<!-- Node1&#45;&gt;Node5 -->
<g id="edge4_Node000001_Node000005" class="edge">
<title>Node1&#45;&gt;Node5</title>
<g id="a_edge4_Node000001_Node000005"><a xlink:title=" ">
<path fill="none" stroke="#63b8ff" d="M427.04,-207.24C366.45,-196.75 287.58,-183.11 229.19,-173.01"/>
<polygon fill="#63b8ff" stroke="#63b8ff" points="426.53,-210.7 436.98,-208.95 427.73,-203.8 426.53,-210.7"/>
</a>
</g>
</g>
<!-- Node7 -->
<g id="Node000007" class="node">
<title>Node7</title>
<g id="a_Node000007"><a xlink:href="VTSwriter_8cuh.html" target="_top" xlink:title="Defines the VTSwriter class, which writes CLIP simulation output in VTK Structured Grid (....">
<polygon fill="white" stroke="#666666" points="416.68,-173 255.68,-173 255.68,-143 416.68,-143 416.68,-173"/>
<text text-anchor="start" x="263.68" y="-161" font-family="Helvetica,sans-Serif" font-size="10.00">/home/runner/work/CLIP</text>
<text text-anchor="middle" x="336.18" y="-150" font-family="Helvetica,sans-Serif" font-size="10.00">/CLIP/include/io/VTSwriter.cuh</text>
</a>
</g>
</g>
<!-- Node1&#45;&gt;Node7 -->
<g id="edge7_Node000001_Node000007" class="edge">
<title>Node1&#45;&gt;Node7</title>
<g id="a_edge7_Node000001_Node000007"><a xlink:title=" ">
<path fill="none" stroke="#63b8ff" d="M468.67,-205.59C439.57,-195.36 403.27,-182.59 376.03,-173.01"/>
<polygon fill="#63b8ff" stroke="#63b8ff" points="467.65,-208.94 478.24,-208.95 469.97,-202.34 467.65,-208.94"/>
</a>
</g>
</g>
<!-- Node9 -->
<g id="Node000009" class="node">
<title>Node9</title>
<g id="a_Node000009"><a xlink:href="Solver_8cuh.html" target="_top" xlink:title="Declares the base Solver class that implements common boundary condition logic and field&#45;level utilit...">
<polygon fill="white" stroke="#666666" points="822.68,-173 657.68,-173 657.68,-143 822.68,-143 822.68,-173"/>
<text text-anchor="start" x="665.68" y="-161" font-family="Helvetica,sans-Serif" font-size="10.00">/home/runner/work/CLIP</text>
<text text-anchor="middle" x="740.18" y="-150" font-family="Helvetica,sans-Serif" font-size="10.00">/CLIP/include/solver/Solver.cuh</text>
</a>
</g>
</g>
<!-- Node1&#45;&gt;Node9 -->
<g id="edge10_Node000001_Node000009" class="edge">
<title>Node1&#45;&gt;Node9</title>
<g id="a_edge10_Node000001_Node000009"><a xlink:title=" ">
<path fill="none" stroke="#63b8ff" d="M576.73,-206.12C612.52,-195.8 657.77,-182.76 691.58,-173.01"/>
<polygon fill="#63b8ff" stroke="#63b8ff" points="575.54,-202.82 566.9,-208.95 577.48,-209.55 575.54,-202.82"/>
</a>
</g>
</g>
<!-- Node11 -->
<g id="Node000011" class="node">
<title>Node11</title>
<g id="a_Node000011"><a xlink:href="Reporter_8cuh_source.html" target="_top" xlink:title=" ">
<polygon fill="white" stroke="#666666" points="601.68,-173 434.68,-173 434.68,-143 601.68,-143 601.68,-173"/>
<text text-anchor="start" x="442.68" y="-161" font-family="Helvetica,sans-Serif" font-size="10.00">/home/runner/work/CLIP</text>
<text text-anchor="middle" x="518.18" y="-150" font-family="Helvetica,sans-Serif" font-size="10.00">/CLIP/include/utils/Reporter.cuh</text>
</a>
</g>
</g>
<!-- Node1&#45;&gt;Node11 -->
<g id="edge14_Node000001_Node000011" class="edge">
<title>Node1&#45;&gt;Node11</title>
<g id="a_edge14_Node000001_Node000011"><a xlink:title=" ">
<path fill="none" stroke="#63b8ff" d="M518.18,-198.54C518.18,-189.96 518.18,-180.61 518.18,-173.16"/>
<polygon fill="#63b8ff" stroke="#63b8ff" points="514.68,-198.8 518.18,-208.8 521.68,-198.8 514.68,-198.8"/>
</a>
</g>
</g>
<!-- Node13 -->
<g id="Node000013" class="node">
<title>Node13</title>
<g id="a_Node000013"><a xlink:href="DataArray_8cu.html" target="_top" xlink:title="Implements the DataArray class, responsible for memory management and data synchronization between ho...">
<polygon fill="white" stroke="#666666" points="989.18,-173 841.18,-173 841.18,-143 989.18,-143 989.18,-173"/>
<text text-anchor="start" x="849.18" y="-161" font-family="Helvetica,sans-Serif" font-size="10.00">/home/runner/work/CLIP</text>
<text text-anchor="middle" x="915.18" y="-150" font-family="Helvetica,sans-Serif" font-size="10.00">/CLIP/src/data/DataArray.cu</text>
</a>
</g>
</g>
<!-- Node1&#45;&gt;Node13 -->
<g id="edge17_Node000001_Node000013" class="edge">
<title>Node1&#45;&gt;Node13</title>
<g id="a_edge17_Node000001_Node000013"><a xlink:title=" ">
<path fill="none" stroke="#63b8ff" d="M616.02,-207.66C677.99,-197.88 759.81,-184.87 832.18,-173 835.07,-172.53 838.01,-172.04 840.98,-171.55"/>
<polygon fill="#63b8ff" stroke="#63b8ff" points="615.19,-204.25 605.86,-209.26 616.28,-211.16 615.19,-204.25"/>
</a>
</g>
</g>
<!-- Node3 -->
<g id="Node000003" class="node">
<title>Node3</title>
<g id="a_Node000003"><a xlink:href="NsAllen_8cu.html" target="_top" xlink:title="Implementation of a two&#45;phase Lattice Boltzmann Method (LBM) solver using the Allen–Cahn phase&#45;field ...">
<polygon fill="white" stroke="#666666" points="888.18,-30 730.18,-30 730.18,0 888.18,0 888.18,-30"/>
<text text-anchor="start" x="738.18" y="-18" font-family="Helvetica,sans-Serif" font-size="10.00">/home/runner/work/CLIP</text>
<text text-anchor="middle" x="809.18" y="-7" font-family="Helvetica,sans-Serif" font-size="10.00">/CLIP/src/equation/NsAllen.cu</text>
</a>
</g>
</g>
<!-- Node2&#45;&gt;Node3 -->
<g id="edge2_Node000002_Node000003" class="edge">
<title>Node2&#45;&gt;Node3</title>
<g id="a_edge2_Node000002_Node000003"><a xlink:title=" ">
<path fill="none" stroke="#63b8ff" d="M728.24,-61C746.85,-50.66 767.85,-38.98 783.8,-30.11"/>
<polygon fill="#63b8ff" stroke="#63b8ff" points="726.37,-58.04 719.33,-65.96 729.77,-64.15 726.37,-58.04"/>
</a>
</g>
</g>
<!-- Node2&#45;&gt;Node4 -->
<g id="edge3_Node000002_Node000004" class="edge">
<title>Node2&#45;&gt;Node4</title>
<g id="a_edge3_Node000002_Node000004"><a xlink:title=" ">
<path fill="none" stroke="#63b8ff" d="M607.56,-66C496.93,-44.75 379.53,-30.51 307.86,-22.74"/>
<polygon fill="#63b8ff" stroke="#63b8ff" points="607.07,-69.47 617.55,-67.94 608.4,-62.6 607.07,-69.47"/>
</a>
</g>
</g>
<!-- Node5&#45;&gt;Node4 -->
<g id="edge6_Node000005_Node000004" class="edge">
<title>Node5&#45;&gt;Node4</title>
<g id="a_edge6_Node000005_Node000004"><a xlink:title=" ">
<path fill="none" stroke="#63b8ff" d="M164.35,-134.35C170.34,-125.83 177.15,-116.02 183.18,-107 201.09,-80.21 221.11,-48.34 232.33,-30.31"/>
<polygon fill="#63b8ff" stroke="#63b8ff" points="161.38,-132.49 158.46,-142.67 167.09,-136.53 161.38,-132.49"/>
</a>
</g>
</g>
<!-- Node6 -->
<g id="Node000006" class="node">
<title>Node6</title>
<g id="a_Node000006"><a xlink:href="CheckPointer_8cu.html" target="_top" xlink:title="Handles checkpointing functionality for saving and restoring LBM simulation state.">
<polygon fill="white" stroke="#666666" points="174.68,-101.5 23.68,-101.5 23.68,-71.5 174.68,-71.5 174.68,-101.5"/>
<text text-anchor="start" x="31.68" y="-89.5" font-family="Helvetica,sans-Serif" font-size="10.00">/home/runner/work/CLIP</text>
<text text-anchor="middle" x="99.18" y="-78.5" font-family="Helvetica,sans-Serif" font-size="10.00">/CLIP/src/io/CheckPointer.cu</text>
</a>
</g>
</g>
<!-- Node5&#45;&gt;Node6 -->
<g id="edge5_Node000005_Node000006" class="edge">
<title>Node5&#45;&gt;Node6</title>
<g id="a_edge5_Node000005_Node000006"><a xlink:title=" ">
<path fill="none" stroke="#63b8ff" d="M132.46,-134.71C124.79,-123.82 115.79,-111.05 109.08,-101.54"/>
<polygon fill="#63b8ff" stroke="#63b8ff" points="129.64,-136.78 138.27,-142.94 135.36,-132.75 129.64,-136.78"/>
</a>
</g>
</g>
<!-- Node7&#45;&gt;Node4 -->
<g id="edge9_Node000007_Node000004" class="edge">
<title>Node7&#45;&gt;Node4</title>
<g id="a_edge9_Node000007_Node000004"><a xlink:title=" ">
<path fill="none" stroke="#63b8ff" d="M294.82,-137.88C281.93,-130.02 268.84,-119.73 260.18,-107 244.2,-83.51 241.22,-49.31 240.91,-30.23"/>
<polygon fill="#63b8ff" stroke="#63b8ff" points="293.23,-141 303.65,-142.93 296.71,-134.92 293.23,-141"/>
</a>
</g>
</g>
<!-- Node8 -->
<g id="Node000008" class="node">
<title>Node8</title>
<g id="a_Node000008"><a xlink:href="VTSwriter_8cu.html" target="_top" xlink:title="Writes scalar and vector fields to .vts (VTK structured grid) files for ParaView visualization.">
<polygon fill="white" stroke="#666666" points="403.18,-101.5 269.18,-101.5 269.18,-71.5 403.18,-71.5 403.18,-101.5"/>
<text text-anchor="start" x="277.18" y="-89.5" font-family="Helvetica,sans-Serif" font-size="10.00">/home/runner/work/CLIP</text>
<text text-anchor="middle" x="336.18" y="-78.5" font-family="Helvetica,sans-Serif" font-size="10.00">/CLIP/src/io/VTSwriter.cu</text>
</a>
</g>
</g>
<!-- Node7&#45;&gt;Node8 -->
<g id="edge8_Node000007_Node000008" class="edge">
<title>Node7&#45;&gt;Node8</title>
<g id="a_edge8_Node000007_Node000008"><a xlink:title=" ">
<path fill="none" stroke="#63b8ff" d="M336.18,-132.75C336.18,-122.31 336.18,-110.49 336.18,-101.54"/>
<polygon fill="#63b8ff" stroke="#63b8ff" points="332.68,-132.94 336.18,-142.94 339.68,-132.94 332.68,-132.94"/>
</a>
</g>
</g>
<!-- Node9&#45;&gt;Node2 -->
<g id="edge11_Node000009_Node000002" class="edge">
<title>Node9&#45;&gt;Node2</title>
<g id="a_edge11_Node000009_Node000002"><a xlink:title=" ">
<path fill="none" stroke="#63b8ff" d="M722.57,-135.14C715.32,-126.15 707,-115.81 699.95,-107.07"/>
<polygon fill="#63b8ff" stroke="#63b8ff" points="719.85,-137.34 728.85,-142.94 725.3,-132.95 719.85,-137.34"/>
</a>
</g>
</g>
<!-- Node9&#45;&gt;Node3 -->
<g id="edge12_Node000009_Node000003" class="edge">
<title>Node9&#45;&gt;Node3</title>
<g id="a_edge12_Node000009_Node000003"><a xlink:title=" ">
<path fill="none" stroke="#63b8ff" d="M832.65,-141.21C869.28,-132.91 905.28,-121.42 916.18,-107 927.17,-92.46 925.97,-81.37 916.18,-66 905.28,-48.88 886.81,-37.52 868.25,-30.03"/>
<polygon fill="#63b8ff" stroke="#63b8ff" points="831.86,-137.8 822.84,-143.36 833.35,-144.64 831.86,-137.8"/>
</a>
</g>
</g>
<!-- Node10 -->
<g id="Node000010" class="node">
<title>Node10</title>
<g id="a_Node000010"><a xlink:href="Solver_8cu.html" target="_top" xlink:title="Core LBM solver class with all CUDA boundary condition kernels.">
<polygon fill="white" stroke="#666666" points="907.18,-101.5 769.18,-101.5 769.18,-71.5 907.18,-71.5 907.18,-101.5"/>
<text text-anchor="start" x="777.18" y="-89.5" font-family="Helvetica,sans-Serif" font-size="10.00">/home/runner/work/CLIP</text>
<text text-anchor="middle" x="838.18" y="-78.5" font-family="Helvetica,sans-Serif" font-size="10.00">/CLIP/src/solver/Solver.cu</text>
</a>
</g>
</g>
<!-- Node9&#45;&gt;Node10 -->
<g id="edge13_Node000009_Node000010" class="edge">
<title>Node9&#45;&gt;Node10</title>
<g id="a_edge13_Node000009_Node000010"><a xlink:title=" ">
<path fill="none" stroke="#63b8ff" d="M768.47,-136.94C784.45,-125.6 804.04,-111.71 818.38,-101.54"/>
<polygon fill="#63b8ff" stroke="#63b8ff" points="766.15,-134.3 760.01,-142.94 770.2,-140.01 766.15,-134.3"/>
</a>
</g>
</g>
<!-- Node11&#45;&gt;Node4 -->
<g id="edge15_Node000011_Node000004" class="edge">
<title>Node11&#45;&gt;Node4</title>
<g id="a_edge15_Node000011_Node000004"><a xlink:title=" ">
<path fill="none" stroke="#63b8ff" d="M488.33,-136.91C476.1,-128.21 462.06,-117.6 450.18,-107 431.65,-90.46 433.31,-79.07 412.18,-66 380.61,-46.48 341.07,-34.27 307.96,-26.81"/>
<polygon fill="#63b8ff" stroke="#63b8ff" points="486.66,-140.01 496.86,-142.88 490.67,-134.28 486.66,-140.01"/>
</a>
</g>
</g>
<!-- Node12 -->
<g id="Node000012" class="node">
<title>Node12</title>
<g id="a_Node000012"><a xlink:href="Reporter_8cu.html" target="_top" xlink:title="Reporting and diagnostics for CLIP simulations.">
<polygon fill="white" stroke="#666666" points="599.18,-101.5 459.18,-101.5 459.18,-71.5 599.18,-71.5 599.18,-101.5"/>
<text text-anchor="start" x="467.18" y="-89.5" font-family="Helvetica,sans-Serif" font-size="10.00">/home/runner/work/CLIP</text>
<text text-anchor="middle" x="529.18" y="-78.5" font-family="Helvetica,sans-Serif" font-size="10.00">/CLIP/src/utils/Reporter.cu</text>
</a>
</g>
</g>
<!-- Node11&#45;&gt;Node12 -->
<g id="edge16_Node000011_Node000012" class="edge">
<title>Node11&#45;&gt;Node12</title>
<g id="a_edge16_Node000011_Node000012"><a xlink:title=" ">
<path fill="none" stroke="#63b8ff" d="M522.02,-132.75C523.67,-122.31 525.54,-110.49 526.96,-101.54"/>
<polygon fill="#63b8ff" stroke="#63b8ff" points="518.51,-132.51 520.41,-142.94 525.43,-133.61 518.51,-132.51"/>
</a>
</g>
</g>
</g>
</svg>
