<?xml version="1.0" encoding="UTF-8" standalone="no"?>
<!DOCTYPE svg PUBLIC "-//W3C//DTD SVG 1.1//EN"
 "http://www.w3.org/Graphics/SVG/1.1/DTD/svg11.dtd">
<!-- Generated by graphviz version 2.43.0 (0)
 -->
<!-- Title: /home/runner/work/CLIP/CLIP/include Pages: 1 -->
<!--zoomable 479 -->

<svg id="main" version="1.1" xmlns="http://www.w3.org/2000/svg" xmlns:xlink="http://www.w3.org/1999/xlink" xml:space="preserve" onload="init(evt)">
<style type="text/css"><![CDATA[
.node, .edge {opacity: 0.7;}
.node.selected, .edge.selected {opacity: 1;}
.edge:hover path { stroke: red; }
.edge:hover polygon { stroke: red; fill: red; }
]]></style>

<defs>
  <circle id="rim" cx="0" cy="0" r="7"/>
  <circle id="rim2" cx="0" cy="0" r="3.5"/>
  <g id="zoomPlus">
    <use xlink:href="#rim" fill="#404040"><set attributeName="fill" to="#808080" begin="zoomplus.mouseover" end="zoomplus.mouseout"/></use>
    <path d="M-4,0h8M0,-4v8" fill="none" stroke="white" stroke-width="1.5" pointer-events="none"/>
  </g>
  <g id="zoomMin">
    <use xlink:href="#rim" fill="#404040"><set attributeName="fill" to="#808080" begin="zoomminus.mouseover" end="zoomminus.mouseout"/></use>
    <path d="M-4,0h8" fill="none" stroke="white" stroke-width="1.5" pointer-events="none"/>
  </g>
  <g id="arrowUp" transform="translate(30 24)">
    <use xlink:href="#rim"/>
    <path pointer-events="none" fill="none" stroke="white" stroke-width="1.5" d="M0,-3.0v7 M-2.5,-0.5L0,-3.0L2.5,-0.5"/>
  </g>
  <g id="arrowRight" transform="rotate(90) translate(36 -43)">
    <use xlink:href="#rim"/>
    <path pointer-events="none" fill="none" stroke="white" stroke-width="1.5" d="M0,-3.0v7 M-2.5,-0.5L0,-3.0L2.5,-0.5"/>
  </g>
  <g id="arrowDown" transform="rotate(180) translate(-30 -48)">
    <use xlink:href="#rim"/>
    <path pointer-events="none" fill="none" stroke="white" stroke-width="1.5" d="M0,-3.0v7 M-2.5,-0.5L0,-3.0L2.5,-0.5"/>
  </g>
  <g id="arrowLeft" transform="rotate(270) translate(-36 17)">
    <use xlink:href="#rim"/>
    <path pointer-events="none" fill="none" stroke="white" stroke-width="1.5" d="M0,-3.0v7 M-2.5,-0.5L0,-3.0L2.5,-0.5"/>
  </g>
  <g id="resetDef">
    <use xlink:href="#rim2" fill="#404040"><set attributeName="fill" to="#808080" begin="reset.mouseover" end="reset.mouseout"/></use>
  </g>
</defs>
<script type="application/ecmascript">
var viewWidth = 358;
var viewHeight = 479;
var sectionId = 'dynsection-0';
</script>
<script type="application/ecmascript" xlink:href="svg.min.js"/>
<svg id="graph" class="graph">
<g id="viewport">
<title>/home/runner/work/CLIP/CLIP/include</title>
<g id="clust1" class="cluster">
<title>clusterdir_a00d95d650398c3096b696bd01ad93e7</title>
<g id="a_clust1"><a xlink:href="dir_a00d95d650398c3096b696bd01ad93e7.html" target="_top" xlink:title="CLIP">
<polygon fill="#eaf4f9" stroke="#7f7f7f" stroke-dasharray="5,2" points="8,-8 8,-463 342,-463 342,-8 8,-8"/>
<text text-anchor="middle" x="175" y="-451" font-family="Helvetica,sans-Serif" font-size="10.00">CLIP</text>
</a>
</g>
</g>
<g id="clust2" class="cluster">
<title>clusterdir_6908fc755251ca5483e0608c44e35ec6</title>
<g id="a_clust2"><a xlink:href="dir_6908fc755251ca5483e0608c44e35ec6.html" target="_top">
<polygon fill="#eaf4f9" stroke="#404040" stroke-width="2" points="16,-16 16,-436 334,-436 334,-16 16,-16"/>
</a>
</g>
</g>
<!-- dir_6908fc755251ca5483e0608c44e35ec6 -->
<g id="node1" class="node">
<title>dir_6908fc755251ca5483e0608c44e35ec6</title>
<text text-anchor="middle" x="263" y="-416" font-family="Helvetica,sans-Serif" font-size="10.00">include</text>
</g>
<!-- dir_665a141f8823d5390fac0a4c308a86b7 -->
<g id="node2" class="node">
<title>dir_665a141f8823d5390fac0a4c308a86b7</title>
<g id="a_node2"><a xlink:href="dir_665a141f8823d5390fac0a4c308a86b7.html" target="_top" xlink:title="boundary">
<polygon fill="#95c9e3" stroke="#404040" points="154,-373 92,-373 92,-354 154,-354 154,-373"/>
<text text-anchor="middle" x="123" y="-361" font-family="Helvetica,sans-Serif" font-size="10.00">boundary</text>
</a>
</g>
</g>
<!-- dir_0a0706fbedcbc99a31914f2a16c1502c -->
<g id="node4" class="node">
<title>dir_0a0706fbedcbc99a31914f2a16c1502c</title>
<g id="a_node4"><a xlink:href="dir_0a0706fbedcbc99a31914f2a16c1502c.html" target="_top" xlink:title="domain">
<polygon fill="#95c9e3" stroke="#404040" points="99.5,-318 46.5,-318 46.5,-299 99.5,-299 99.5,-318"/>
<text text-anchor="middle" x="73" y="-306" font-family="Helvetica,sans-Serif" font-size="10.00">domain</text>
</a>
</g>
</g>
<!-- dir_665a141f8823d5390fac0a4c308a86b7&#45;&gt;dir_0a0706fbedcbc99a31914f2a16c1502c -->
<g id="edge1" class="edge">
<title>dir_665a141f8823d5390fac0a4c308a86b7&#45;&gt;dir_0a0706fbedcbc99a31914f2a16c1502c</title>
<g id="a_edge1"><a xlink:href="dir_000000_000007.html" target="_top">
<path fill="none" stroke="#63b8ff" d="M114.74,-353.75C107.54,-346.11 96.89,-334.82 88.15,-325.56"/>
<polygon fill="#63b8ff" stroke="#63b8ff" points="90.51,-322.96 81.1,-318.09 85.42,-327.76 90.51,-322.96"/>
</a>
</g>
<g id="a_edge1&#45;headlabel"><a xlink:href="dir_000000_000007.html" target="_top" xlink:title="1">
<text text-anchor="middle" x="95.04" y="-321.13" font-family="Helvetica,sans-Serif" font-size="10.00" fill="#63b8ff">1</text>
</a>
</g>
</g>
<!-- dir_e37b6fd53fba6aa0d5a52f0b9a87f85b -->
<g id="node7" class="node">
<title>dir_e37b6fd53fba6aa0d5a52f0b9a87f85b</title>
<g id="a_node7"><a xlink:href="dir_e37b6fd53fba6aa0d5a52f0b9a87f85b.html" target="_top" xlink:title="input">
<polygon fill="#95c9e3" stroke="#404040" points="165.5,-263 124.5,-263 124.5,-244 165.5,-244 165.5,-263"/>
<text text-anchor="middle" x="145" y="-251" font-family="Helvetica,sans-Serif" font-size="10.00">input</text>
</a>
</g>
</g>
<!-- dir_665a141f8823d5390fac0a4c308a86b7&#45;&gt;dir_e37b6fd53fba6aa0d5a52f0b9a87f85b -->
<g id="edge3" class="edge">
<title>dir_665a141f8823d5390fac0a4c308a86b7&#45;&gt;dir_e37b6fd53fba6aa0d5a52f0b9a87f85b</title>
<g id="a_edge3"><a xlink:href="dir_000000_000015.html" target="_top">
<path fill="none" stroke="#63b8ff" d="M124.8,-353.66C128.36,-336.17 136.38,-296.8 141.18,-273.27"/>
<polygon fill="#63b8ff" stroke="#63b8ff" points="144.67,-273.66 143.24,-263.16 137.81,-272.26 144.67,-273.66"/>
</a>
</g>
<g id="a_edge3&#45;headlabel"><a xlink:href="dir_000000_000015.html" target="_top" xlink:title="1">
<text text-anchor="middle" x="146.73" y="-275.24" font-family="Helvetica,sans-Serif" font-size="10.00" fill="#63b8ff">1</text>
</a>
</g>
</g>
<!-- dir_1bbfc613eeba4b86a6a6b87201c3600e -->
<g id="node10" class="node">
<title>dir_1bbfc613eeba4b86a6a6b87201c3600e</title>
<g id="a_node10"><a xlink:href="dir_1bbfc613eeba4b86a6a6b87201c3600e.html" target="_top" xlink:title="utils">
<polygon fill="#95c9e3" stroke="#404040" points="222,-208 184,-208 184,-189 222,-189 222,-208"/>
<text text-anchor="middle" x="203" y="-196" font-family="Helvetica,sans-Serif" font-size="10.00">utils</text>
</a>
</g>
</g>
<!-- dir_665a141f8823d5390fac0a4c308a86b7&#45;&gt;dir_1bbfc613eeba4b86a6a6b87201c3600e -->
<g id="edge2" class="edge">
<title>dir_665a141f8823d5390fac0a4c308a86b7&#45;&gt;dir_1bbfc613eeba4b86a6a6b87201c3600e</title>
<g id="a_edge2"><a xlink:href="dir_000000_000023.html" target="_top">
<path fill="none" stroke="#63b8ff" d="M129.69,-353.95C142.4,-337.34 170.16,-299.14 186,-263 192.31,-248.61 196.75,-231.33 199.5,-218.43"/>
<polygon fill="#63b8ff" stroke="#63b8ff" points="202.98,-218.9 201.5,-208.41 196.11,-217.54 202.98,-218.9"/>
</a>
</g>
<g id="a_edge2&#45;headlabel"><a xlink:href="dir_000000_000023.html" target="_top" xlink:title="1">
<text text-anchor="middle" x="205.06" y="-220.48" font-family="Helvetica,sans-Serif" font-size="10.00" fill="#63b8ff">1</text>
</a>
</g>
</g>
<!-- dir_e855e9ad895732ad8af5bd60e34e92bd -->
<g id="node3" class="node">
<title>dir_e855e9ad895732ad8af5bd60e34e92bd</title>
<g id="a_node3"><a xlink:href="dir_e855e9ad895732ad8af5bd60e34e92bd.html" target="_top" xlink:title="data">
<polygon fill="#95c9e3" stroke="#404040" points="202,-153 164,-153 164,-134 202,-134 202,-153"/>
<text text-anchor="middle" x="183" y="-141" font-family="Helvetica,sans-Serif" font-size="10.00">data</text>
</a>
</g>
</g>
<!-- dir_e855e9ad895732ad8af5bd60e34e92bd&#45;&gt;dir_665a141f8823d5390fac0a4c308a86b7 -->
<g id="edge7" class="edge">
<title>dir_e855e9ad895732ad8af5bd60e34e92bd&#45;&gt;dir_665a141f8823d5390fac0a4c308a86b7</title>
<g id="a_edge7"><a xlink:href="dir_000004_000000.html" target="_top">
<path fill="none" stroke="#63b8ff" d="M174.48,-153.13C159.19,-169.29 127.61,-205.96 116,-244 105.56,-278.2 112.49,-320.48 118.04,-344.17"/>
<polygon fill="#63b8ff" stroke="#63b8ff" points="114.66,-345.09 120.49,-353.93 121.44,-343.38 114.66,-345.09"/>
</a>
</g>
<g id="a_edge7&#45;headlabel"><a xlink:href="dir_000004_000000.html" target="_top" xlink:title="1">
<text text-anchor="middle" x="111.03" y="-339.79" font-family="Helvetica,sans-Serif" font-size="10.00" fill="#63b8ff">1</text>
</a>
</g>
</g>
<!-- dir_e855e9ad895732ad8af5bd60e34e92bd&#45;&gt;dir_0a0706fbedcbc99a31914f2a16c1502c -->
<g id="edge4" class="edge">
<title>dir_e855e9ad895732ad8af5bd60e34e92bd&#45;&gt;dir_0a0706fbedcbc99a31914f2a16c1502c</title>
<g id="a_edge4"><a xlink:href="dir_000004_000007.html" target="_top">
<path fill="none" stroke="#63b8ff" d="M163.79,-149.69C144.67,-155.86 115.96,-168.07 100,-189 77.48,-218.54 73.17,-263.49 72.67,-288.69"/>
<polygon fill="#63b8ff" stroke="#63b8ff" points="69.17,-288.74 72.65,-298.75 76.17,-288.75 69.17,-288.74"/>
</a>
</g>
<g id="a_edge4&#45;headlabel"><a xlink:href="dir_000004_000007.html" target="_top" xlink:title="1">
<text text-anchor="middle" x="66.33" y="-282.64" font-family="Helvetica,sans-Serif" font-size="10.00" fill="#63b8ff">1</text>
</a>
</g>
</g>
<!-- dir_e855e9ad895732ad8af5bd60e34e92bd&#45;&gt;dir_e37b6fd53fba6aa0d5a52f0b9a87f85b -->
<g id="edge8" class="edge">
<title>dir_e855e9ad895732ad8af5bd60e34e92bd&#45;&gt;dir_e37b6fd53fba6aa0d5a52f0b9a87f85b</title>
<g id="a_edge8"><a xlink:href="dir_000004_000015.html" target="_top">
<path fill="none" stroke="#63b8ff" d="M179.95,-153.16C173.8,-170.66 159.76,-210.56 151.47,-234.12"/>
<polygon fill="#63b8ff" stroke="#63b8ff" points="148.13,-233.07 148.11,-243.66 154.73,-235.39 148.13,-233.07"/>
</a>
</g>
<g id="a_edge8&#45;headlabel"><a xlink:href="dir_000004_000015.html" target="_top" xlink:title="1">
<text text-anchor="middle" x="146.64" y="-226.23" font-family="Helvetica,sans-Serif" font-size="10.00" fill="#63b8ff">1</text>
</a>
</g>
</g>
<!-- dir_228718aea31f3abffd2fce3abf7b4c71 -->
<g id="node9" class="node">
<title>dir_228718aea31f3abffd2fce3abf7b4c71</title>
<g id="a_node9"><a xlink:href="dir_228718aea31f3abffd2fce3abf7b4c71.html" target="_top" xlink:title="solver">
<polygon fill="#95c9e3" stroke="#404040" points="206.5,-98 159.5,-98 159.5,-79 206.5,-79 206.5,-98"/>
<text text-anchor="middle" x="183" y="-86" font-family="Helvetica,sans-Serif" font-size="10.00">solver</text>
</a>
</g>
</g>
<!-- dir_e855e9ad895732ad8af5bd60e34e92bd&#45;&gt;dir_228718aea31f3abffd2fce3abf7b4c71 -->
<g id="edge6" class="edge">
<title>dir_e855e9ad895732ad8af5bd60e34e92bd&#45;&gt;dir_228718aea31f3abffd2fce3abf7b4c71</title>
<g id="a_edge6"><a xlink:href="dir_000004_000020.html" target="_top">
<path fill="none" stroke="#63b8ff" d="M177.83,-133.75C176.34,-126.8 175.9,-116.85 176.52,-108.13"/>
<polygon fill="#63b8ff" stroke="#63b8ff" points="180.01,-108.47 177.87,-98.09 173.07,-107.53 180.01,-108.47"/>
</a>
</g>
<g id="a_edge6&#45;headlabel"><a xlink:href="dir_000004_000020.html" target="_top" xlink:title="1">
<text text-anchor="middle" x="182.34" y="-109.91" font-family="Helvetica,sans-Serif" font-size="10.00" fill="#63b8ff">1</text>
</a>
</g>
</g>
<!-- dir_e855e9ad895732ad8af5bd60e34e92bd&#45;&gt;dir_1bbfc613eeba4b86a6a6b87201c3600e -->
<g id="edge5" class="edge">
<title>dir_e855e9ad895732ad8af5bd60e34e92bd&#45;&gt;dir_1bbfc613eeba4b86a6a6b87201c3600e</title>
<g id="a_edge5"><a xlink:href="dir_000004_000023.html" target="_top">
<path fill="none" stroke="#63b8ff" d="M191.37,-153.09C195.53,-160.06 199.78,-170.15 202.47,-178.95"/>
<polygon fill="#63b8ff" stroke="#63b8ff" points="199.09,-179.86 204.86,-188.75 205.89,-178.2 199.09,-179.86"/>
</a>
</g>
<g id="a_edge5&#45;headlabel"><a xlink:href="dir_000004_000023.html" target="_top" xlink:title="1">
<text text-anchor="middle" x="195.48" y="-174.54" font-family="Helvetica,sans-Serif" font-size="10.00" fill="#63b8ff">1</text>
</a>
</g>
</g>
<!-- dir_0a0706fbedcbc99a31914f2a16c1502c&#45;&gt;dir_e37b6fd53fba6aa0d5a52f0b9a87f85b -->
<g id="edge10" class="edge">
<title>dir_0a0706fbedcbc99a31914f2a16c1502c&#45;&gt;dir_e37b6fd53fba6aa0d5a52f0b9a87f85b</title>
<g id="a_edge10"><a xlink:href="dir_000007_000015.html" target="_top">
<path fill="none" stroke="#63b8ff" d="M84.57,-298.98C95.42,-291 111.88,-278.88 124.88,-269.31"/>
<polygon fill="#63b8ff" stroke="#63b8ff" points="127.24,-271.92 133.22,-263.17 123.09,-266.28 127.24,-271.92"/>
</a>
</g>
<g id="a_edge10&#45;headlabel"><a xlink:href="dir_000007_000015.html" target="_top" xlink:title="1">
<text text-anchor="middle" x="126.03" y="-273.83" font-family="Helvetica,sans-Serif" font-size="10.00" fill="#63b8ff">1</text>
</a>
</g>
</g>
<!-- dir_0a0706fbedcbc99a31914f2a16c1502c&#45;&gt;dir_1bbfc613eeba4b86a6a6b87201c3600e -->
<g id="edge9" class="edge">
<title>dir_0a0706fbedcbc99a31914f2a16c1502c&#45;&gt;dir_1bbfc613eeba4b86a6a6b87201c3600e</title>
<g id="a_edge9"><a xlink:href="dir_000007_000023.html" target="_top">
<path fill="none" stroke="#63b8ff" d="M99.76,-299.41C120.17,-292.78 147.52,-281.41 166,-263 178.52,-250.53 185.88,-231.52 191.58,-217.54"/>
<polygon fill="#63b8ff" stroke="#63b8ff" points="194.93,-218.6 195.67,-208.03 188.5,-215.83 194.93,-218.6"/>
</a>
</g>
<g id="a_edge9&#45;headlabel"><a xlink:href="dir_000007_000023.html" target="_top" xlink:title="1">
<text text-anchor="middle" x="196.12" y="-220.52" font-family="Helvetica,sans-Serif" font-size="10.00" fill="#63b8ff">1</text>
</a>
</g>
</g>
<!-- dir_7b10d05a40f2419481dcb2aee6da9208 -->
<g id="node5" class="node">
<title>dir_7b10d05a40f2419481dcb2aee6da9208</title>
<g id="a_node5"><a xlink:href="dir_7b10d05a40f2419481dcb2aee6da9208.html" target="_top" xlink:title="equation">
<polygon fill="#95c9e3" stroke="#404040" points="303.5,-318 244.5,-318 244.5,-299 303.5,-299 303.5,-318"/>
<text text-anchor="middle" x="274" y="-306" font-family="Helvetica,sans-Serif" font-size="10.00">equation</text>
</a>
</g>
</g>
<!-- dir_7b10d05a40f2419481dcb2aee6da9208&#45;&gt;dir_e855e9ad895732ad8af5bd60e34e92bd -->
<g id="edge15" class="edge">
<title>dir_7b10d05a40f2419481dcb2aee6da9208&#45;&gt;dir_e855e9ad895732ad8af5bd60e34e92bd</title>
<g id="a_edge15"><a xlink:href="dir_000009_000004.html" target="_top">
<path fill="none" stroke="#63b8ff" d="M272.33,-298.82C268.08,-278.32 255.44,-225.84 231,-189 223.52,-177.72 212.61,-167.3 203.08,-159.39"/>
<polygon fill="#63b8ff" stroke="#63b8ff" points="205.19,-156.6 195.18,-153.12 200.84,-162.08 205.19,-156.6"/>
</a>
</g>
<g id="a_edge15&#45;headlabel"><a xlink:href="dir_000009_000004.html" target="_top" xlink:title="1">
<text text-anchor="middle" x="209.77" y="-154.11" font-family="Helvetica,sans-Serif" font-size="10.00" fill="#63b8ff">1</text>
</a>
</g>
</g>
<!-- dir_d37319ac813eed3885db79dcdbfa88a5 -->
<g id="node6" class="node">
<title>dir_d37319ac813eed3885db79dcdbfa88a5</title>
<g id="a_node6"><a xlink:href="dir_d37319ac813eed3885db79dcdbfa88a5.html" target="_top" xlink:title="geometry">
<polygon fill="#95c9e3" stroke="#404040" points="215,-43 151,-43 151,-24 215,-24 215,-43"/>
<text text-anchor="middle" x="183" y="-31" font-family="Helvetica,sans-Serif" font-size="10.00">geometry</text>
</a>
</g>
</g>
<!-- dir_7b10d05a40f2419481dcb2aee6da9208&#45;&gt;dir_d37319ac813eed3885db79dcdbfa88a5 -->
<g id="edge13" class="edge">
<title>dir_7b10d05a40f2419481dcb2aee6da9208&#45;&gt;dir_d37319ac813eed3885db79dcdbfa88a5</title>
<g id="a_edge13"><a xlink:href="dir_000009_000011.html" target="_top">
<path fill="none" stroke="#63b8ff" d="M278.31,-298.78C286.83,-280.73 305,-237.73 305,-199.5 305,-199.5 305,-199.5 305,-142.5 305,-94.85 252.18,-63.15 216.05,-47.04"/>
<polygon fill="#63b8ff" stroke="#63b8ff" points="217.38,-43.8 206.81,-43.09 214.63,-50.24 217.38,-43.8"/>
</a>
</g>
<g id="a_edge13&#45;headlabel"><a xlink:href="dir_000009_000011.html" target="_top" xlink:title="1">
<text text-anchor="middle" x="221.8" y="-40.1" font-family="Helvetica,sans-Serif" font-size="10.00" fill="#63b8ff">1</text>
</a>
</g>
</g>
<!-- dir_7b10d05a40f2419481dcb2aee6da9208&#45;&gt;dir_e37b6fd53fba6aa0d5a52f0b9a87f85b -->
<g id="edge14" class="edge">
<title>dir_7b10d05a40f2419481dcb2aee6da9208&#45;&gt;dir_e37b6fd53fba6aa0d5a52f0b9a87f85b</title>
<g id="a_edge14"><a xlink:href="dir_000009_000015.html" target="_top">
<path fill="none" stroke="#63b8ff" d="M253.27,-298.98C232.12,-290.29 199.06,-276.71 175.04,-266.84"/>
<polygon fill="#63b8ff" stroke="#63b8ff" points="176.25,-263.56 165.67,-262.99 173.59,-270.03 176.25,-263.56"/>
</a>
</g>
<g id="a_edge14&#45;headlabel"><a xlink:href="dir_000009_000015.html" target="_top" xlink:title="1">
<text text-anchor="middle" x="180.66" y="-259.8" font-family="Helvetica,sans-Serif" font-size="10.00" fill="#63b8ff">1</text>
</a>
</g>
</g>
<!-- dir_7b10d05a40f2419481dcb2aee6da9208&#45;&gt;dir_228718aea31f3abffd2fce3abf7b4c71 -->
<g id="edge12" class="edge">
<title>dir_7b10d05a40f2419481dcb2aee6da9208&#45;&gt;dir_228718aea31f3abffd2fce3abf7b4c71</title>
<g id="a_edge12"><a xlink:href="dir_000009_000020.html" target="_top">
<path fill="none" stroke="#63b8ff" d="M273.51,-298.72C272.64,-286.32 270.4,-263.07 265,-244 250.46,-192.68 244.05,-179.97 217,-134 211.28,-124.28 203.76,-114.23 197.25,-106.14"/>
<polygon fill="#63b8ff" stroke="#63b8ff" points="199.78,-103.72 190.71,-98.25 194.39,-108.18 199.78,-103.72"/>
</a>
</g>
<g id="a_edge12&#45;headlabel"><a xlink:href="dir_000009_000020.html" target="_top" xlink:title="2">
<text text-anchor="middle" x="204.26" y="-102.17" font-family="Helvetica,sans-Serif" font-size="10.00" fill="#63b8ff">2</text>
</a>
</g>
</g>
<!-- dir_7b10d05a40f2419481dcb2aee6da9208&#45;&gt;dir_1bbfc613eeba4b86a6a6b87201c3600e -->
<g id="edge11" class="edge">
<title>dir_7b10d05a40f2419481dcb2aee6da9208&#45;&gt;dir_1bbfc613eeba4b86a6a6b87201c3600e</title>
<g id="a_edge11"><a xlink:href="dir_000009_000023.html" target="_top">
<path fill="none" stroke="#63b8ff" d="M268.19,-298.66C256.43,-280.77 229.63,-240 214.3,-216.69"/>
<polygon fill="#63b8ff" stroke="#63b8ff" points="217.11,-214.59 208.69,-208.16 211.26,-218.44 217.11,-214.59"/>
</a>
</g>
<g id="a_edge11&#45;headlabel"><a xlink:href="dir_000009_000023.html" target="_top" xlink:title="1">
<text text-anchor="middle" x="221.46" y="-213.54" font-family="Helvetica,sans-Serif" font-size="10.00" fill="#63b8ff">1</text>
</a>
</g>
</g>
<!-- dir_d37319ac813eed3885db79dcdbfa88a5&#45;&gt;dir_0a0706fbedcbc99a31914f2a16c1502c -->
<g id="edge16" class="edge">
<title>dir_d37319ac813eed3885db79dcdbfa88a5&#45;&gt;dir_0a0706fbedcbc99a31914f2a16c1502c</title>
<g id="a_edge16"><a xlink:href="dir_000011_000007.html" target="_top">
<path fill="none" stroke="#63b8ff" d="M173.74,-43.22C164.83,-51.86 151.23,-65.69 141,-79 105.98,-124.58 92.66,-134.99 73,-189 61.69,-220.09 62.06,-230.05 65,-263 65.76,-271.5 67.32,-280.81 68.86,-288.71"/>
<polygon fill="#63b8ff" stroke="#63b8ff" points="65.47,-289.62 70.94,-298.7 72.32,-288.19 65.47,-289.62"/>
</a>
</g>
<g id="a_edge16&#45;headlabel"><a xlink:href="dir_000011_000007.html" target="_top" xlink:title="1">
<text text-anchor="middle" x="61.96" y="-284.18" font-family="Helvetica,sans-Serif" font-size="10.00" fill="#63b8ff">1</text>
</a>
</g>
</g>
<!-- dir_d37319ac813eed3885db79dcdbfa88a5&#45;&gt;dir_e37b6fd53fba6aa0d5a52f0b9a87f85b -->
<g id="edge18" class="edge">
<title>dir_d37319ac813eed3885db79dcdbfa88a5&#45;&gt;dir_e37b6fd53fba6aa0d5a52f0b9a87f85b</title>
<g id="a_edge18"><a xlink:href="dir_000011_000015.html" target="_top">
<path fill="none" stroke="#63b8ff" d="M174.6,-43.22C167.03,-51.65 156.31,-65.14 151,-79 130.64,-132.12 137.04,-201.22 141.81,-233.87"/>
<polygon fill="#63b8ff" stroke="#63b8ff" points="138.36,-234.48 143.38,-243.81 145.28,-233.38 138.36,-234.48"/>
</a>
</g>
<g id="a_edge18&#45;headlabel"><a xlink:href="dir_000011_000015.html" target="_top" xlink:title="1">
<text text-anchor="middle" x="135" y="-228.87" font-family="Helvetica,sans-Serif" font-size="10.00" fill="#63b8ff">1</text>
</a>
</g>
</g>
<!-- dir_d37319ac813eed3885db79dcdbfa88a5&#45;&gt;dir_1bbfc613eeba4b86a6a6b87201c3600e -->
<g id="edge17" class="edge">
<title>dir_d37319ac813eed3885db79dcdbfa88a5&#45;&gt;dir_1bbfc613eeba4b86a6a6b87201c3600e</title>
<g id="a_edge17"><a xlink:href="dir_000011_000023.html" target="_top">
<path fill="none" stroke="#63b8ff" d="M191.96,-43.06C199.97,-51.38 211.16,-64.8 216,-79 221.57,-95.38 219.44,-137.12 217,-153 215.65,-161.81 212.87,-171.26 210.15,-179.18"/>
<polygon fill="#63b8ff" stroke="#63b8ff" points="206.77,-178.23 206.6,-188.82 213.34,-180.65 206.77,-178.23"/>
</a>
</g>
<g id="a_edge17&#45;headlabel"><a xlink:href="dir_000011_000023.html" target="_top" xlink:title="1">
<text text-anchor="middle" x="205.34" y="-171.38" font-family="Helvetica,sans-Serif" font-size="10.00" fill="#63b8ff">1</text>
</a>
</g>
</g>
<!-- dir_e37b6fd53fba6aa0d5a52f0b9a87f85b&#45;&gt;dir_1bbfc613eeba4b86a6a6b87201c3600e -->
<g id="edge19" class="edge">
<title>dir_e37b6fd53fba6aa0d5a52f0b9a87f85b&#45;&gt;dir_1bbfc613eeba4b86a6a6b87201c3600e</title>
<g id="a_edge19"><a xlink:href="dir_000015_000023.html" target="_top">
<path fill="none" stroke="#63b8ff" d="M149.41,-243.75C156.4,-235.8 169.09,-223.91 180.49,-214.45"/>
<polygon fill="#63b8ff" stroke="#63b8ff" points="182.83,-217.06 188.47,-208.09 178.47,-211.59 182.83,-217.06"/>
</a>
</g>
<g id="a_edge19&#45;headlabel"><a xlink:href="dir_000015_000023.html" target="_top" xlink:title="1">
<text text-anchor="middle" x="181.8" y="-219.02" font-family="Helvetica,sans-Serif" font-size="10.00" fill="#63b8ff">1</text>
</a>
</g>
</g>
<!-- dir_b6d20638262928ea980dc088b16922c9 -->
<g id="node8" class="node">
<title>dir_b6d20638262928ea980dc088b16922c9</title>
<g id="a_node8"><a xlink:href="dir_b6d20638262928ea980dc088b16922c9.html" target="_top" xlink:title="io">
<polygon fill="#95c9e3" stroke="#404040" points="187.5,-428 158.5,-428 158.5,-409 187.5,-409 187.5,-428"/>
<text text-anchor="middle" x="173" y="-416" font-family="Helvetica,sans-Serif" font-size="10.00">io</text>
</a>
</g>
</g>
<!-- dir_b6d20638262928ea980dc088b16922c9&#45;&gt;dir_665a141f8823d5390fac0a4c308a86b7 -->
<g id="edge22" class="edge">
<title>dir_b6d20638262928ea980dc088b16922c9&#45;&gt;dir_665a141f8823d5390fac0a4c308a86b7</title>
<g id="a_edge22"><a xlink:href="dir_000017_000000.html" target="_top">
<path fill="none" stroke="#63b8ff" d="M164.74,-408.75C157.54,-401.11 146.89,-389.82 138.15,-380.56"/>
<polygon fill="#63b8ff" stroke="#63b8ff" points="140.51,-377.96 131.1,-373.09 135.42,-382.76 140.51,-377.96"/>
</a>
</g>
<g id="a_edge22&#45;headlabel"><a xlink:href="dir_000017_000000.html" target="_top" xlink:title="1">
<text text-anchor="middle" x="145.04" y="-376.13" font-family="Helvetica,sans-Serif" font-size="10.00" fill="#63b8ff">1</text>
</a>
</g>
</g>
<!-- dir_b6d20638262928ea980dc088b16922c9&#45;&gt;dir_e855e9ad895732ad8af5bd60e34e92bd -->
<g id="edge24" class="edge">
<title>dir_b6d20638262928ea980dc088b16922c9&#45;&gt;dir_e855e9ad895732ad8af5bd60e34e92bd</title>
<g id="a_edge24"><a xlink:href="dir_000017_000004.html" target="_top">
<path fill="none" stroke="#63b8ff" d="M187.57,-414.51C225.62,-405.77 325,-376.51 325,-309.5 325,-309.5 325,-309.5 325,-252.5 325,-196.13 253.23,-165.33 211.74,-152.23"/>
<polygon fill="#63b8ff" stroke="#63b8ff" points="212.74,-148.87 202.15,-149.34 210.72,-155.57 212.74,-148.87"/>
</a>
</g>
<g id="a_edge24&#45;headlabel"><a xlink:href="dir_000017_000004.html" target="_top" xlink:title="2">
<text text-anchor="middle" x="217" y="-144.69" font-family="Helvetica,sans-Serif" font-size="10.00" fill="#63b8ff">2</text>
</a>
</g>
</g>
<!-- dir_b6d20638262928ea980dc088b16922c9&#45;&gt;dir_0a0706fbedcbc99a31914f2a16c1502c -->
<g id="edge20" class="edge">
<title>dir_b6d20638262928ea980dc088b16922c9&#45;&gt;dir_0a0706fbedcbc99a31914f2a16c1502c</title>
<g id="a_edge20"><a xlink:href="dir_000017_000007.html" target="_top">
<path fill="none" stroke="#63b8ff" d="M158.49,-414.67C138.12,-409.88 101.48,-398.14 83,-373 73.6,-360.21 71.56,-342.04 71.6,-328.41"/>
<polygon fill="#63b8ff" stroke="#63b8ff" points="75.1,-328.38 72.01,-318.25 68.11,-328.1 75.1,-328.38"/>
</a>
</g>
<g id="a_edge20&#45;headlabel"><a xlink:href="dir_000017_000007.html" target="_top" xlink:title="2">
<text text-anchor="middle" x="77.8" y="-329.59" font-family="Helvetica,sans-Serif" font-size="10.00" fill="#63b8ff">2</text>
</a>
</g>
</g>
<!-- dir_b6d20638262928ea980dc088b16922c9&#45;&gt;dir_e37b6fd53fba6aa0d5a52f0b9a87f85b -->
<g id="edge23" class="edge">
<title>dir_b6d20638262928ea980dc088b16922c9&#45;&gt;dir_e37b6fd53fba6aa0d5a52f0b9a87f85b</title>
<g id="a_edge23"><a xlink:href="dir_000017_000015.html" target="_top">
<path fill="none" stroke="#63b8ff" d="M171.7,-408.86C169.85,-396.64 166.31,-373.59 163,-354 158.2,-325.65 152.18,-292.85 148.46,-272.9"/>
<polygon fill="#63b8ff" stroke="#63b8ff" points="151.89,-272.19 146.61,-263.01 145.01,-273.48 151.89,-272.19"/>
</a>
</g>
<g id="a_edge23&#45;headlabel"><a xlink:href="dir_000017_000015.html" target="_top" xlink:title="2">
<text text-anchor="middle" x="155.34" y="-272.7" font-family="Helvetica,sans-Serif" font-size="10.00" fill="#63b8ff">2</text>
</a>
</g>
</g>
<!-- dir_b6d20638262928ea980dc088b16922c9&#45;&gt;dir_1bbfc613eeba4b86a6a6b87201c3600e -->
<g id="edge21" class="edge">
<title>dir_b6d20638262928ea980dc088b16922c9&#45;&gt;dir_1bbfc613eeba4b86a6a6b87201c3600e</title>
<g id="a_edge21"><a xlink:href="dir_000017_000023.html" target="_top">
<path fill="none" stroke="#63b8ff" d="M174.18,-408.95C178.58,-376.95 194.17,-263.68 200.4,-218.4"/>
<polygon fill="#63b8ff" stroke="#63b8ff" points="203.9,-218.61 201.8,-208.22 196.97,-217.65 203.9,-218.61"/>
</a>
</g>
<g id="a_edge21&#45;headlabel"><a xlink:href="dir_000017_000023.html" target="_top" xlink:title="4">
<text text-anchor="middle" x="206.23" y="-220.06" font-family="Helvetica,sans-Serif" font-size="10.00" fill="#63b8ff">4</text>
</a>
</g>
</g>
<!-- dir_228718aea31f3abffd2fce3abf7b4c71&#45;&gt;dir_665a141f8823d5390fac0a4c308a86b7 -->
<g id="edge27" class="edge">
<title>dir_228718aea31f3abffd2fce3abf7b4c71&#45;&gt;dir_665a141f8823d5390fac0a4c308a86b7</title>
<g id="a_edge27"><a xlink:href="dir_000020_000000.html" target="_top">
<path fill="none" stroke="#63b8ff" d="M163.14,-98.09C146.95,-105.8 124.2,-118.3 108,-134 50.8,-189.44 50.22,-220.28 38,-299 36.7,-307.34 33.63,-310.78 38,-318 47.73,-334.08 65.4,-344.63 82.12,-351.4"/>
<polygon fill="#63b8ff" stroke="#63b8ff" points="81.19,-354.79 91.79,-354.97 83.61,-348.22 81.19,-354.79"/>
</a>
</g>
<g id="a_edge27&#45;headlabel"><a xlink:href="dir_000020_000000.html" target="_top" xlink:title="1">
<text text-anchor="middle" x="76.84" y="-353.71" font-family="Helvetica,sans-Serif" font-size="10.00" fill="#63b8ff">1</text>
</a>
</g>
</g>
<!-- dir_228718aea31f3abffd2fce3abf7b4c71&#45;&gt;dir_e855e9ad895732ad8af5bd60e34e92bd -->
<g id="edge30" class="edge">
<title>dir_228718aea31f3abffd2fce3abf7b4c71&#45;&gt;dir_e855e9ad895732ad8af5bd60e34e92bd</title>
<g id="a_edge30"><a xlink:href="dir_000020_000004.html" target="_top">
<path fill="none" stroke="#63b8ff" d="M188.13,-98.09C189.64,-104.99 190.09,-114.93 189.49,-123.66"/>
<polygon fill="#63b8ff" stroke="#63b8ff" points="186,-123.38 188.17,-133.75 192.94,-124.29 186,-123.38"/>
</a>
</g>
<g id="a_edge30&#45;headlabel"><a xlink:href="dir_000020_000004.html" target="_top" xlink:title="1">
<text text-anchor="middle" x="183.65" y="-116.94" font-family="Helvetica,sans-Serif" font-size="10.00" fill="#63b8ff">1</text>
</a>
</g>
</g>
<!-- dir_228718aea31f3abffd2fce3abf7b4c71&#45;&gt;dir_0a0706fbedcbc99a31914f2a16c1502c -->
<g id="edge25" class="edge">
<title>dir_228718aea31f3abffd2fce3abf7b4c71&#45;&gt;dir_0a0706fbedcbc99a31914f2a16c1502c</title>
<g id="a_edge25"><a xlink:href="dir_000020_000007.html" target="_top">
<path fill="none" stroke="#63b8ff" d="M171.07,-98.22C150.38,-113.97 107.85,-149.28 85,-189 67.02,-220.26 67.97,-263.92 70.4,-288.58"/>
<polygon fill="#63b8ff" stroke="#63b8ff" points="66.95,-289.22 71.6,-298.74 73.9,-288.4 66.95,-289.22"/>
</a>
</g>
<g id="a_edge25&#45;headlabel"><a xlink:href="dir_000020_000007.html" target="_top" xlink:title="1">
<text text-anchor="middle" x="63.71" y="-283.48" font-family="Helvetica,sans-Serif" font-size="10.00" fill="#63b8ff">1</text>
</a>
</g>
</g>
<!-- dir_228718aea31f3abffd2fce3abf7b4c71&#45;&gt;dir_d37319ac813eed3885db79dcdbfa88a5 -->
<g id="edge28" class="edge">
<title>dir_228718aea31f3abffd2fce3abf7b4c71&#45;&gt;dir_d37319ac813eed3885db79dcdbfa88a5</title>
<g id="a_edge28"><a xlink:href="dir_000020_000011.html" target="_top">
<path fill="none" stroke="#63b8ff" d="M183,-78.75C183,-71.8 183,-61.85 183,-53.13"/>
<polygon fill="#63b8ff" stroke="#63b8ff" points="186.5,-53.09 183,-43.09 179.5,-53.09 186.5,-53.09"/>
</a>
</g>
<g id="a_edge28&#45;headlabel"><a xlink:href="dir_000020_000011.html" target="_top" xlink:title="1">
<text text-anchor="middle" x="189.34" y="-54.18" font-family="Helvetica,sans-Serif" font-size="10.00" fill="#63b8ff">1</text>
</a>
</g>
</g>
<!-- dir_228718aea31f3abffd2fce3abf7b4c71&#45;&gt;dir_e37b6fd53fba6aa0d5a52f0b9a87f85b -->
<g id="edge29" class="edge">
<title>dir_228718aea31f3abffd2fce3abf7b4c71&#45;&gt;dir_e37b6fd53fba6aa0d5a52f0b9a87f85b</title>
<g id="a_edge29"><a xlink:href="dir_000020_000015.html" target="_top">
<path fill="none" stroke="#63b8ff" d="M175.84,-98.06C169.17,-106.58 159.58,-120.32 155,-134 143.68,-167.82 143.09,-209.95 143.89,-233.78"/>
<polygon fill="#63b8ff" stroke="#63b8ff" points="140.4,-234.06 144.36,-243.89 147.4,-233.74 140.4,-234.06"/>
</a>
</g>
<g id="a_edge29&#45;headlabel"><a xlink:href="dir_000020_000015.html" target="_top" xlink:title="2">
<text text-anchor="middle" x="137.4" y="-228.1" font-family="Helvetica,sans-Serif" font-size="10.00" fill="#63b8ff">2</text>
</a>
</g>
</g>
<!-- dir_228718aea31f3abffd2fce3abf7b4c71&#45;&gt;dir_1bbfc613eeba4b86a6a6b87201c3600e -->
<g id="edge26" class="edge">
<title>dir_228718aea31f3abffd2fce3abf7b4c71&#45;&gt;dir_1bbfc613eeba4b86a6a6b87201c3600e</title>
<g id="a_edge26"><a xlink:href="dir_000020_000023.html" target="_top">
<path fill="none" stroke="#63b8ff" d="M190.67,-98.3C197.52,-106.79 207.05,-120.32 211,-134 215.24,-148.7 212.61,-165.95 209.26,-178.76"/>
<polygon fill="#63b8ff" stroke="#63b8ff" points="205.81,-178.12 206.3,-188.7 212.51,-180.12 205.81,-178.12"/>
</a>
</g>
<g id="a_edge26&#45;headlabel"><a xlink:href="dir_000020_000023.html" target="_top" xlink:title="2">
<text text-anchor="middle" x="204.11" y="-171.36" font-family="Helvetica,sans-Serif" font-size="10.00" fill="#63b8ff">2</text>
</a>
</g>
</g>
<!-- dir_1bbfc613eeba4b86a6a6b87201c3600e&#45;&gt;dir_e855e9ad895732ad8af5bd60e34e92bd -->
<g id="edge33" class="edge">
<title>dir_1bbfc613eeba4b86a6a6b87201c3600e&#45;&gt;dir_e855e9ad895732ad8af5bd60e34e92bd</title>
<g id="a_edge33"><a xlink:href="dir_000023_000004.html" target="_top">
<path fill="none" stroke="#63b8ff" d="M194.53,-188.75C190.37,-181.72 186.13,-171.62 183.47,-162.84"/>
<polygon fill="#63b8ff" stroke="#63b8ff" points="186.86,-161.99 181.11,-153.09 180.05,-163.63 186.86,-161.99"/>
</a>
</g>
<g id="a_edge33&#45;headlabel"><a xlink:href="dir_000023_000004.html" target="_top" xlink:title="1">
<text text-anchor="middle" x="190.46" y="-162.32" font-family="Helvetica,sans-Serif" font-size="10.00" fill="#63b8ff">1</text>
</a>
</g>
</g>
<!-- dir_1bbfc613eeba4b86a6a6b87201c3600e&#45;&gt;dir_0a0706fbedcbc99a31914f2a16c1502c -->
<g id="edge31" class="edge">
<title>dir_1bbfc613eeba4b86a6a6b87201c3600e&#45;&gt;dir_0a0706fbedcbc99a31914f2a16c1502c</title>
<g id="a_edge31"><a xlink:href="dir_000023_000007.html" target="_top">
<path fill="none" stroke="#63b8ff" d="M206.99,-208.03C207.3,-221.4 199.71,-247.35 184,-263 164,-282.92 133.6,-294.6 109.51,-300.95"/>
<polygon fill="#63b8ff" stroke="#63b8ff" points="108.51,-297.6 99.63,-303.36 110.17,-304.4 108.51,-297.6"/>
</a>
</g>
<g id="a_edge31&#45;headlabel"><a xlink:href="dir_000023_000007.html" target="_top" xlink:title="1">
<text text-anchor="middle" x="111.34" y="-291.49" font-family="Helvetica,sans-Serif" font-size="10.00" fill="#63b8ff">1</text>
</a>
</g>
</g>
<!-- dir_1bbfc613eeba4b86a6a6b87201c3600e&#45;&gt;dir_e37b6fd53fba6aa0d5a52f0b9a87f85b -->
<g id="edge32" class="edge">
<title>dir_1bbfc613eeba4b86a6a6b87201c3600e&#45;&gt;dir_e37b6fd53fba6aa0d5a52f0b9a87f85b</title>
<g id="a_edge32"><a xlink:href="dir_000023_000015.html" target="_top">
<path fill="none" stroke="#63b8ff" d="M198.66,-208.17C191.67,-216.13 178.9,-228.11 167.44,-237.6"/>
<polygon fill="#63b8ff" stroke="#63b8ff" points="165.07,-235.01 159.43,-243.98 169.44,-240.49 165.07,-235.01"/>
</a>
</g>
<g id="a_edge32&#45;headlabel"><a xlink:href="dir_000023_000015.html" target="_top" xlink:title="2">
<text text-anchor="middle" x="166.11" y="-228.05" font-family="Helvetica,sans-Serif" font-size="10.00" fill="#63b8ff">2</text>
</a>
</g>
</g>
</g>
</svg>

<g id="navigator" transform="translate(0 0)" fill="#404254">
  <rect fill="#f2f5e9" fill-opacity="0.5" stroke="#606060" stroke-width=".5" x="0" y="0" width="60" height="60"/>
  <use id="zoomplus" xlink:href="#zoomPlus" x="17" y="9" onmousedown="handleZoom(evt,'in')"/>
  <use id="zoomminus" xlink:href="#zoomMin" x="42" y="9" onmousedown="handleZoom(evt,'out')"/>
  <use id="reset" xlink:href="#resetDef" x="30" y="36" onmousedown="handleReset()"/>
   <use id="arrowup" xlink:href="#arrowUp" x="0" y="0" onmousedown="handlePan(0,-1)"/>
  <use id="arrowright" xlink:href="#arrowRight" x="0" y="0" onmousedown="handlePan(1,0)"/>
  <use id="arrowdown" xlink:href="#arrowDown" x="0" y="0" onmousedown="handlePan(0,1)"/>
  <use id="arrowleft" xlink:href="#arrowLeft" x="0" y="0" onmousedown="handlePan(-1,0)"/>
</g>
<svg viewBox="0 0 15 15" width="100%" height="30px" preserveAspectRatio="xMaxYMin meet">
 <g id="arrow_out" transform="scale(0.3 0.3)">
  <a xlink:href="dir_6908fc755251ca5483e0608c44e35ec6_dep_org.svg" target="_base">
   <rect id="button" ry="5" rx="5" y="6" x="6" height="38" width="38"
        fill="#f2f5e9" fill-opacity="0.5" stroke="#606060" stroke-width="1.0"/>
   <path id="arrow"
     d="M 11.500037,31.436501 C 11.940474,20.09759 22.043105,11.32322 32.158766,21.979434 L 37.068811,17.246167 C 37.068811,17.246167 37.088388,32 37.088388,32 L 22.160133,31.978069 C 22.160133,31.978069 26.997745,27.140456 26.997745,27.140456 C 18.528582,18.264221 13.291696,25.230495 11.500037,31.436501 z"
     style="fill:#404040;"/>
  </a>
 </g>
</svg>

<style type='text/css'>
<![CDATA[
[data-mouse-over-selected='false'] { opacity: 0.7; }
[data-mouse-over-selected='true']  { opacity: 1.0; }
]]>
</style>
<script type="application/ecmascript"><![CDATA[
document.addEventListener('DOMContentLoaded', (event) => {
  highlightEdges();
  highlightAdjacentNodes();
});
]]></script>
</svg>
