<?xml version="1.0" encoding="UTF-8" standalone="no"?>
<!DOCTYPE svg PUBLIC "-//W3C//DTD SVG 1.1//EN"
 "http://www.w3.org/Graphics/SVG/1.1/DTD/svg11.dtd">
<!-- Generated by graphviz version 2.43.0 (0)
 -->
<!-- Title: /home/runner/work/CLIP/CLIP/src Pages: 1 -->
<svg width="683pt" height="141pt"
 viewBox="0.00 0.00 683.00 141.00" xmlns="http://www.w3.org/2000/svg" xmlns:xlink="http://www.w3.org/1999/xlink">
<g id="graph0" class="graph" transform="scale(1 1) rotate(0) translate(4 137)">
<title>/home/runner/work/CLIP/CLIP/src</title>
<g id="clust1" class="cluster">
<title>clusterdir_a00d95d650398c3096b696bd01ad93e7</title>
<g id="a_clust1"><a xlink:href="dir_a00d95d650398c3096b696bd01ad93e7.html" target="_top" xlink:title="CLIP">
<polygon fill="#eaf4f9" stroke="#7f7f7f" stroke-dasharray="5,2" points="8,-8 8,-125 667,-125 667,-8 8,-8"/>
<text text-anchor="middle" x="337.5" y="-113" font-family="Helvetica,sans-Serif" font-size="10.00">CLIP</text>
</a>
</g>
</g>
<g id="clust2" class="cluster">
<title>clusterdir_125561ca49cee03e947aa4fe8b2fe097</title>
<g id="a_clust2"><a xlink:href="dir_125561ca49cee03e947aa4fe8b2fe097.html" target="_top">
<polygon fill="#eaf4f9" stroke="#404040" stroke-width="2" points="16,-63 16,-98 659,-98 659,-63 16,-63"/>
</a>
</g>
</g>
<!-- dir_6908fc755251ca5483e0608c44e35ec6 -->
<g id="node1" class="node">
<title>dir_6908fc755251ca5483e0608c44e35ec6</title>
<g id="a_node1"><a xlink:href="dir_6908fc755251ca5483e0608c44e35ec6.html" target="_top" xlink:title="include">
<polygon fill="#95c9e3" stroke="red" points="350,-35 298,-35 298,-16 350,-16 350,-35"/>
<text text-anchor="middle" x="324" y="-23" font-family="Helvetica,sans-Serif" font-size="10.00">include</text>
</a>
</g>
</g>
<!-- dir_125561ca49cee03e947aa4fe8b2fe097 -->
<g id="node2" class="node">
<title>dir_125561ca49cee03e947aa4fe8b2fe097</title>
<text text-anchor="middle" x="635" y="-78" font-family="Helvetica,sans-Serif" font-size="10.00">src</text>
</g>
<!-- dir_125561ca49cee03e947aa4fe8b2fe097&#45;&gt;dir_6908fc755251ca5483e0608c44e35ec6 -->
<g id="edge1" class="edge">
<title>dir_125561ca49cee03e947aa4fe8b2fe097&#45;&gt;dir_6908fc755251ca5483e0608c44e35ec6</title>
<g id="a_edge1"><a xlink:href="dir_000022_000014.html" target="_top">
<path fill="none" stroke="#63b8ff" d="M624.39,-70.95C620.15,-67.96 615.07,-64.88 610,-63 524.47,-31.28 415.76,-26.22 360.23,-25.94"/>
<polygon fill="#63b8ff" stroke="#63b8ff" points="360.18,-22.44 350.18,-25.94 360.18,-29.44 360.18,-22.44"/>
</a>
</g>
<g id="a_edge1&#45;headlabel"><a xlink:href="dir_000022_000014.html" target="_top" xlink:title="21">
<text text-anchor="middle" x="363.77" y="-17.1" font-family="Helvetica,sans-Serif" font-size="10.00" fill="#63b8ff">21</text>
</a>
</g>
</g>
<!-- dir_6bde46e4570246c02bf0a5b928b2e26e -->
<g id="node3" class="node">
<title>dir_6bde46e4570246c02bf0a5b928b2e26e</title>
<g id="a_node3"><a xlink:href="dir_6bde46e4570246c02bf0a5b928b2e26e.html" target="_top" xlink:title="boundary">
<polygon fill="#95c9e3" stroke="#404040" points="601,-90 539,-90 539,-71 601,-71 601,-90"/>
<text text-anchor="middle" x="570" y="-78" font-family="Helvetica,sans-Serif" font-size="10.00">boundary</text>
</a>
</g>
</g>
<!-- dir_6bde46e4570246c02bf0a5b928b2e26e&#45;&gt;dir_6908fc755251ca5483e0608c44e35ec6 -->
<g id="edge2" class="edge">
<title>dir_6bde46e4570246c02bf0a5b928b2e26e&#45;&gt;dir_6908fc755251ca5483e0608c44e35ec6</title>
<g id="a_edge2"><a xlink:href="dir_000001_000014.html" target="_top">
<path fill="none" stroke="#63b8ff" d="M551.58,-70.93C544.89,-68.08 537.21,-65.1 530,-63 471.77,-46.05 401.87,-35.68 360.29,-30.52"/>
<polygon fill="#63b8ff" stroke="#63b8ff" points="360.45,-27.02 350.1,-29.29 359.61,-33.97 360.45,-27.02"/>
</a>
</g>
<g id="a_edge2&#45;headlabel"><a xlink:href="dir_000001_000014.html" target="_top" xlink:title="2">
<text text-anchor="middle" x="364.36" y="-22.13" font-family="Helvetica,sans-Serif" font-size="10.00" fill="#63b8ff">2</text>
</a>
</g>
</g>
<!-- dir_529c25df70b78b687b096705e61f2443 -->
<g id="node4" class="node">
<title>dir_529c25df70b78b687b096705e61f2443</title>
<g id="a_node4"><a xlink:href="dir_529c25df70b78b687b096705e61f2443.html" target="_top" xlink:title="data">
<polygon fill="#95c9e3" stroke="#404040" points="521,-90 483,-90 483,-71 521,-71 521,-90"/>
<text text-anchor="middle" x="502" y="-78" font-family="Helvetica,sans-Serif" font-size="10.00">data</text>
</a>
</g>
</g>
<!-- dir_529c25df70b78b687b096705e61f2443&#45;&gt;dir_6908fc755251ca5483e0608c44e35ec6 -->
<g id="edge3" class="edge">
<title>dir_529c25df70b78b687b096705e61f2443&#45;&gt;dir_6908fc755251ca5483e0608c44e35ec6</title>
<g id="a_edge3"><a xlink:href="dir_000005_000014.html" target="_top">
<path fill="none" stroke="#63b8ff" d="M489.3,-70.95C484.64,-68.1 479.23,-65.12 474,-63 436.52,-47.78 391.09,-37.82 360.12,-32.21"/>
<polygon fill="#63b8ff" stroke="#63b8ff" points="360.65,-28.75 350.2,-30.47 359.44,-35.64 360.65,-28.75"/>
</a>
</g>
<g id="a_edge3&#45;headlabel"><a xlink:href="dir_000005_000014.html" target="_top" xlink:title="1">
<text text-anchor="middle" x="364.68" y="-24.07" font-family="Helvetica,sans-Serif" font-size="10.00" fill="#63b8ff">1</text>
</a>
</g>
</g>
<!-- dir_77930978b9eebd3a4a661f2210362457 -->
<g id="node5" class="node">
<title>dir_77930978b9eebd3a4a661f2210362457</title>
<g id="a_node5"><a xlink:href="dir_77930978b9eebd3a4a661f2210362457.html" target="_top" xlink:title="domain">
<polygon fill="#95c9e3" stroke="#404040" points="464.5,-90 411.5,-90 411.5,-71 464.5,-71 464.5,-90"/>
<text text-anchor="middle" x="438" y="-78" font-family="Helvetica,sans-Serif" font-size="10.00">domain</text>
</a>
</g>
</g>
<!-- dir_77930978b9eebd3a4a661f2210362457&#45;&gt;dir_6908fc755251ca5483e0608c44e35ec6 -->
<g id="edge4" class="edge">
<title>dir_77930978b9eebd3a4a661f2210362457&#45;&gt;dir_6908fc755251ca5483e0608c44e35ec6</title>
<g id="a_edge4"><a xlink:href="dir_000008_000014.html" target="_top">
<path fill="none" stroke="#63b8ff" d="M419.85,-70.91C414.43,-68.36 408.48,-65.56 403,-63 386.04,-55.09 367,-46.28 351.86,-39.31"/>
<polygon fill="#63b8ff" stroke="#63b8ff" points="353.08,-36.02 342.53,-35.01 350.15,-42.38 353.08,-36.02"/>
</a>
</g>
<g id="a_edge4&#45;headlabel"><a xlink:href="dir_000008_000014.html" target="_top" xlink:title="1">
<text text-anchor="middle" x="357.53" y="-32.44" font-family="Helvetica,sans-Serif" font-size="10.00" fill="#63b8ff">1</text>
</a>
</g>
</g>
<!-- dir_5daf1b484bf68637d8d2c48f4582be08 -->
<g id="node6" class="node">
<title>dir_5daf1b484bf68637d8d2c48f4582be08</title>
<g id="a_node6"><a xlink:href="dir_5daf1b484bf68637d8d2c48f4582be08.html" target="_top" xlink:title="equation">
<polygon fill="#95c9e3" stroke="#404040" points="393.5,-90 334.5,-90 334.5,-71 393.5,-71 393.5,-90"/>
<text text-anchor="middle" x="364" y="-78" font-family="Helvetica,sans-Serif" font-size="10.00">equation</text>
</a>
</g>
</g>
<!-- dir_5daf1b484bf68637d8d2c48f4582be08&#45;&gt;dir_6908fc755251ca5483e0608c44e35ec6 -->
<g id="edge5" class="edge">
<title>dir_5daf1b484bf68637d8d2c48f4582be08&#45;&gt;dir_6908fc755251ca5483e0608c44e35ec6</title>
<g id="a_edge5"><a xlink:href="dir_000010_000014.html" target="_top">
<path fill="none" stroke="#63b8ff" d="M357.39,-70.75C351.74,-63.26 343.46,-52.28 336.55,-43.13"/>
<polygon fill="#63b8ff" stroke="#63b8ff" points="339.3,-40.96 330.48,-35.09 333.71,-45.18 339.3,-40.96"/>
</a>
</g>
<g id="a_edge5&#45;headlabel"><a xlink:href="dir_000010_000014.html" target="_top" xlink:title="2">
<text text-anchor="middle" x="343.73" y="-39.62" font-family="Helvetica,sans-Serif" font-size="10.00" fill="#63b8ff">2</text>
</a>
</g>
</g>
<!-- dir_3cf17a41f14c37c7796e7afe571e0216 -->
<g id="node7" class="node">
<title>dir_3cf17a41f14c37c7796e7afe571e0216</title>
<g id="a_node7"><a xlink:href="dir_3cf17a41f14c37c7796e7afe571e0216.html" target="_top" xlink:title="geometry">
<polygon fill="#95c9e3" stroke="#404040" points="316,-90 252,-90 252,-71 316,-71 316,-90"/>
<text text-anchor="middle" x="284" y="-78" font-family="Helvetica,sans-Serif" font-size="10.00">geometry</text>
</a>
</g>
</g>
<!-- dir_3cf17a41f14c37c7796e7afe571e0216&#45;&gt;dir_6908fc755251ca5483e0608c44e35ec6 -->
<g id="edge6" class="edge">
<title>dir_3cf17a41f14c37c7796e7afe571e0216&#45;&gt;dir_6908fc755251ca5483e0608c44e35ec6</title>
<g id="a_edge6"><a xlink:href="dir_000012_000014.html" target="_top">
<path fill="none" stroke="#63b8ff" d="M290.61,-70.75C296.26,-63.26 304.54,-52.28 311.45,-43.13"/>
<polygon fill="#63b8ff" stroke="#63b8ff" points="314.29,-45.18 317.52,-35.09 308.7,-40.96 314.29,-45.18"/>
</a>
</g>
<g id="a_edge6&#45;headlabel"><a xlink:href="dir_000012_000014.html" target="_top" xlink:title="1">
<text text-anchor="middle" x="314.39" y="-47.26" font-family="Helvetica,sans-Serif" font-size="10.00" fill="#63b8ff">1</text>
</a>
</g>
</g>
<!-- dir_3100af315197b2555104d6a8f94287cc -->
<g id="node8" class="node">
<title>dir_3100af315197b2555104d6a8f94287cc</title>
<g id="a_node8"><a xlink:href="dir_3100af315197b2555104d6a8f94287cc.html" target="_top" xlink:title="input">
<polygon fill="#95c9e3" stroke="#404040" points="233.5,-90 192.5,-90 192.5,-71 233.5,-71 233.5,-90"/>
<text text-anchor="middle" x="213" y="-78" font-family="Helvetica,sans-Serif" font-size="10.00">input</text>
</a>
</g>
</g>
<!-- dir_3100af315197b2555104d6a8f94287cc&#45;&gt;dir_6908fc755251ca5483e0608c44e35ec6 -->
<g id="edge7" class="edge">
<title>dir_3100af315197b2555104d6a8f94287cc&#45;&gt;dir_6908fc755251ca5483e0608c44e35ec6</title>
<g id="a_edge7"><a xlink:href="dir_000016_000014.html" target="_top">
<path fill="none" stroke="#63b8ff" d="M228.14,-70.87C232.86,-68.26 238.11,-65.44 243,-63 259.75,-54.63 278.83,-45.99 294.27,-39.22"/>
<polygon fill="#63b8ff" stroke="#63b8ff" points="296.05,-42.26 303.82,-35.06 293.25,-35.85 296.05,-42.26"/>
</a>
</g>
<g id="a_edge7&#45;headlabel"><a xlink:href="dir_000016_000014.html" target="_top" xlink:title="1">
<text text-anchor="middle" x="293.89" y="-43.8" font-family="Helvetica,sans-Serif" font-size="10.00" fill="#63b8ff">1</text>
</a>
</g>
</g>
<!-- dir_76bad2f101dc1087ae15ff0901cbb410 -->
<g id="node9" class="node">
<title>dir_76bad2f101dc1087ae15ff0901cbb410</title>
<g id="a_node9"><a xlink:href="dir_76bad2f101dc1087ae15ff0901cbb410.html" target="_top" xlink:title="io">
<polygon fill="#95c9e3" stroke="#404040" points="174.5,-90 145.5,-90 145.5,-71 174.5,-71 174.5,-90"/>
<text text-anchor="middle" x="160" y="-78" font-family="Helvetica,sans-Serif" font-size="10.00">io</text>
</a>
</g>
</g>
<!-- dir_76bad2f101dc1087ae15ff0901cbb410&#45;&gt;dir_6908fc755251ca5483e0608c44e35ec6 -->
<g id="edge8" class="edge">
<title>dir_76bad2f101dc1087ae15ff0901cbb410&#45;&gt;dir_6908fc755251ca5483e0608c44e35ec6</title>
<g id="a_edge8"><a xlink:href="dir_000018_000014.html" target="_top">
<path fill="none" stroke="#63b8ff" d="M170.75,-70.93C174.73,-68.08 179.4,-65.1 184,-63 217.57,-47.66 258.73,-37.9 287.71,-32.37"/>
<polygon fill="#63b8ff" stroke="#63b8ff" points="288.59,-35.77 297.8,-30.53 287.33,-28.89 288.59,-35.77"/>
</a>
</g>
<g id="a_edge8&#45;headlabel"><a xlink:href="dir_000018_000014.html" target="_top" xlink:title="2">
<text text-anchor="middle" x="285.57" y="-36.71" font-family="Helvetica,sans-Serif" font-size="10.00" fill="#63b8ff">2</text>
</a>
</g>
</g>
<!-- dir_6d9dc250dca3fd4de9517dfe51c6bdcd -->
<g id="node10" class="node">
<title>dir_6d9dc250dca3fd4de9517dfe51c6bdcd</title>
<g id="a_node10"><a xlink:href="dir_6d9dc250dca3fd4de9517dfe51c6bdcd.html" target="_top" xlink:title="solver">
<polygon fill="#95c9e3" stroke="#404040" points="127.5,-90 80.5,-90 80.5,-71 127.5,-71 127.5,-90"/>
<text text-anchor="middle" x="104" y="-78" font-family="Helvetica,sans-Serif" font-size="10.00">solver</text>
</a>
</g>
</g>
<!-- dir_6d9dc250dca3fd4de9517dfe51c6bdcd&#45;&gt;dir_6908fc755251ca5483e0608c44e35ec6 -->
<g id="edge9" class="edge">
<title>dir_6d9dc250dca3fd4de9517dfe51c6bdcd&#45;&gt;dir_6908fc755251ca5483e0608c44e35ec6</title>
<g id="a_edge9"><a xlink:href="dir_000021_000014.html" target="_top">
<path fill="none" stroke="#63b8ff" d="M119.07,-70.89C124.57,-68.03 130.94,-65.06 137,-63 187.8,-45.7 249.32,-35.67 287.57,-30.64"/>
<polygon fill="#63b8ff" stroke="#63b8ff" points="288.23,-34.08 297.71,-29.35 287.35,-27.14 288.23,-34.08"/>
</a>
</g>
<g id="a_edge9&#45;headlabel"><a xlink:href="dir_000021_000014.html" target="_top" xlink:title="1">
<text text-anchor="middle" x="285.02" y="-34.85" font-family="Helvetica,sans-Serif" font-size="10.00" fill="#63b8ff">1</text>
</a>
</g>
</g>
<!-- dir_1f1910698ba9a9277d2b753ca75296a7 -->
<g id="node11" class="node">
<title>dir_1f1910698ba9a9277d2b753ca75296a7</title>
<g id="a_node11"><a xlink:href="dir_1f1910698ba9a9277d2b753ca75296a7.html" target="_top" xlink:title="utils">
<polygon fill="#95c9e3" stroke="#404040" points="62,-90 24,-90 24,-71 62,-71 62,-90"/>
<text text-anchor="middle" x="43" y="-78" font-family="Helvetica,sans-Serif" font-size="10.00">utils</text>
</a>
</g>
</g>
<!-- dir_1f1910698ba9a9277d2b753ca75296a7&#45;&gt;dir_6908fc755251ca5483e0608c44e35ec6 -->
<g id="edge10" class="edge">
<title>dir_1f1910698ba9a9277d2b753ca75296a7&#45;&gt;dir_6908fc755251ca5483e0608c44e35ec6</title>
<g id="a_edge10"><a xlink:href="dir_000024_000014.html" target="_top">
<path fill="none" stroke="#63b8ff" d="M55.79,-70.85C60.67,-67.93 66.41,-64.92 72,-63 145.82,-37.67 237.67,-29.92 287.58,-27.55"/>
<polygon fill="#63b8ff" stroke="#63b8ff" points="288.02,-31.03 297.86,-27.11 287.72,-24.04 288.02,-31.03"/>
</a>
</g>
<g id="a_edge10&#45;headlabel"><a xlink:href="dir_000024_000014.html" target="_top" xlink:title="1">
<text text-anchor="middle" x="284.55" y="-31.52" font-family="Helvetica,sans-Serif" font-size="10.00" fill="#63b8ff">1</text>
</a>
</g>
</g>
</g>
</svg>
