<?xml version="1.0" encoding="UTF-8" standalone="no"?>
<!DOCTYPE svg PUBLIC "-//W3C//DTD SVG 1.1//EN"
 "http://www.w3.org/Graphics/SVG/1.1/DTD/svg11.dtd">
<!-- Generated by graphviz version 2.43.0 (0)
 -->
<!-- Title: /home/runner/work/CLIP/CLIP/include/domain/Domain.cuh Pages: 1 -->
<!--zoomable 401 -->

<svg id="main" version="1.1" xmlns="http://www.w3.org/2000/svg" xmlns:xlink="http://www.w3.org/1999/xlink" xml:space="preserve" onload="init(evt)">
<style type="text/css"><![CDATA[
.node, .edge {opacity: 0.7;}
.node.selected, .edge.selected {opacity: 1;}
.edge:hover path { stroke: red; }
.edge:hover polygon { stroke: red; fill: red; }
]]></style>

<defs>
  <circle id="rim" cx="0" cy="0" r="7"/>
  <circle id="rim2" cx="0" cy="0" r="3.5"/>
  <g id="zoomPlus">
    <use xlink:href="#rim" fill="#404040"><set attributeName="fill" to="#808080" begin="zoomplus.mouseover" end="zoomplus.mouseout"/></use>
    <path d="M-4,0h8M0,-4v8" fill="none" stroke="white" stroke-width="1.5" pointer-events="none"/>
  </g>
  <g id="zoomMin">
    <use xlink:href="#rim" fill="#404040"><set attributeName="fill" to="#808080" begin="zoomminus.mouseover" end="zoomminus.mouseout"/></use>
    <path d="M-4,0h8" fill="none" stroke="white" stroke-width="1.5" pointer-events="none"/>
  </g>
  <g id="arrowUp" transform="translate(30 24)">
    <use xlink:href="#rim"/>
    <path pointer-events="none" fill="none" stroke="white" stroke-width="1.5" d="M0,-3.0v7 M-2.5,-0.5L0,-3.0L2.5,-0.5"/>
  </g>
  <g id="arrowRight" transform="rotate(90) translate(36 -43)">
    <use xlink:href="#rim"/>
    <path pointer-events="none" fill="none" stroke="white" stroke-width="1.5" d="M0,-3.0v7 M-2.5,-0.5L0,-3.0L2.5,-0.5"/>
  </g>
  <g id="arrowDown" transform="rotate(180) translate(-30 -48)">
    <use xlink:href="#rim"/>
    <path pointer-events="none" fill="none" stroke="white" stroke-width="1.5" d="M0,-3.0v7 M-2.5,-0.5L0,-3.0L2.5,-0.5"/>
  </g>
  <g id="arrowLeft" transform="rotate(270) translate(-36 17)">
    <use xlink:href="#rim"/>
    <path pointer-events="none" fill="none" stroke="white" stroke-width="1.5" d="M0,-3.0v7 M-2.5,-0.5L0,-3.0L2.5,-0.5"/>
  </g>
  <g id="resetDef">
    <use xlink:href="#rim2" fill="#404040"><set attributeName="fill" to="#808080" begin="reset.mouseover" end="reset.mouseout"/></use>
  </g>
</defs>
<script type="application/ecmascript">
var viewWidth = 1259;
var viewHeight = 401;
var sectionId = 'dynsection-1';
</script>
<script type="application/ecmascript" xlink:href="svg.min.js"/>
<svg id="graph" class="graph">
<g id="viewport">
<title>/home/runner/work/CLIP/CLIP/include/domain/Domain.cuh</title>
<!-- Node1 -->
<g id="Node000001" class="node">
<title>Node1</title>
<g id="a_Node000001"><a xlink:title="Defines the Domain class for managing spatial extents, indexing, and boundary checks in the CLIP LBM ...">
<polygon fill="#999999" stroke="#666666" points="764.74,-393 584.74,-393 584.74,-363 764.74,-363 764.74,-393"/>
<text text-anchor="start" x="592.74" y="-381" font-family="Helvetica,sans-Serif" font-size="10.00">/home/runner/work/CLIP</text>
<text text-anchor="middle" x="674.74" y="-370" font-family="Helvetica,sans-Serif" font-size="10.00">/CLIP/include/domain/Domain.cuh</text>
</a>
</g>
</g>
<!-- Node2 -->
<g id="Node000002" class="node">
<title>Node2</title>
<g id="a_Node000002"><a xlink:href="Boundary_8cuh.html" target="_top" xlink:title="Defines the Boundary class for handling physical and computational boundary conditions in the CLIP LB...">
<polygon fill="white" stroke="#666666" points="584.24,-327 451.24,-327 451.24,-286 584.24,-286 584.24,-327"/>
<text text-anchor="start" x="459.24" y="-315" font-family="Helvetica,sans-Serif" font-size="10.00">/home/runner/work/CLIP</text>
<text text-anchor="start" x="459.24" y="-304" font-family="Helvetica,sans-Serif" font-size="10.00">/CLIP/include/boundary</text>
<text text-anchor="middle" x="517.74" y="-293" font-family="Helvetica,sans-Serif" font-size="10.00">/Boundary.cuh</text>
</a>
</g>
</g>
<!-- Node1&#45;&gt;Node2 -->
<g id="edge1_Node000001_Node000002" class="edge">
<title>Node1&#45;&gt;Node2</title>
<g id="a_edge1_Node000001_Node000002"><a xlink:title=" ">
<path fill="none" stroke="#63b8ff" d="M633.56,-358.77C611.54,-349.02 584.42,-337.02 561.96,-327.07"/>
<polygon fill="#63b8ff" stroke="#63b8ff" points="632.41,-362.09 642.97,-362.94 635.24,-355.69 632.41,-362.09"/>
</a>
</g>
</g>
<!-- Node3 -->
<g id="Node000003" class="node">
<title>Node3</title>
<g id="a_Node000003"><a xlink:href="DataArray_8cuh.html" target="_top" xlink:title="Defines the DataArray class for managing all host/device memory allocation, data transfer,...">
<polygon fill="white" stroke="#666666" points="822.24,-244.5 647.24,-244.5 647.24,-214.5 822.24,-214.5 822.24,-244.5"/>
<text text-anchor="start" x="655.24" y="-232.5" font-family="Helvetica,sans-Serif" font-size="10.00">/home/runner/work/CLIP</text>
<text text-anchor="middle" x="734.74" y="-221.5" font-family="Helvetica,sans-Serif" font-size="10.00">/CLIP/include/data/DataArray.cuh</text>
</a>
</g>
</g>
<!-- Node1&#45;&gt;Node3 -->
<g id="edge25_Node000001_Node000003" class="edge">
<title>Node1&#45;&gt;Node3</title>
<g id="a_edge25_Node000001_Node000003"><a xlink:title=" ">
<path fill="none" stroke="#63b8ff" d="M684.39,-353.45C696.97,-322.73 718.59,-269.94 728.92,-244.72"/>
<polygon fill="#63b8ff" stroke="#63b8ff" points="681.05,-352.37 680.49,-362.95 687.52,-355.03 681.05,-352.37"/>
</a>
</g>
</g>
<!-- Node7 -->
<g id="Node000007" class="node">
<title>Node7</title>
<g id="a_Node000007"><a xlink:href="CheckPointer_8cuh.html" target="_top" xlink:title="Defines the CheckPointer class for saving and restoring simulation state in the CLIP LBM framework.">
<polygon fill="white" stroke="#666666" points="643.74,-173 465.74,-173 465.74,-143 643.74,-143 643.74,-173"/>
<text text-anchor="start" x="473.74" y="-161" font-family="Helvetica,sans-Serif" font-size="10.00">/home/runner/work/CLIP</text>
<text text-anchor="middle" x="554.74" y="-150" font-family="Helvetica,sans-Serif" font-size="10.00">/CLIP/include/io/CheckPointer.cuh</text>
</a>
</g>
</g>
<!-- Node1&#45;&gt;Node7 -->
<g id="edge31_Node000001_Node000007" class="edge">
<title>Node1&#45;&gt;Node7</title>
<g id="a_edge31_Node000001_Node000007"><a xlink:title=" ">
<path fill="none" stroke="#63b8ff" d="M662.03,-353.91C637.15,-308.71 582.69,-209.78 562.49,-173.07"/>
<polygon fill="#63b8ff" stroke="#63b8ff" points="658.98,-355.62 666.87,-362.7 665.11,-352.25 658.98,-355.62"/>
</a>
</g>
</g>
<!-- Node9 -->
<g id="Node000009" class="node">
<title>Node9</title>
<g id="a_Node000009"><a xlink:href="VTSwriter_8cuh.html" target="_top" xlink:title="Defines the VTSwriter class, which writes CLIP simulation output in VTK Structured Grid (....">
<polygon fill="white" stroke="#666666" points="1065.24,-173 904.24,-173 904.24,-143 1065.24,-143 1065.24,-173"/>
<text text-anchor="start" x="912.24" y="-161" font-family="Helvetica,sans-Serif" font-size="10.00">/home/runner/work/CLIP</text>
<text text-anchor="middle" x="984.74" y="-150" font-family="Helvetica,sans-Serif" font-size="10.00">/CLIP/include/io/VTSwriter.cuh</text>
</a>
</g>
</g>
<!-- Node1&#45;&gt;Node9 -->
<g id="edge32_Node000001_Node000009" class="edge">
<title>Node1&#45;&gt;Node9</title>
<g id="a_edge32_Node000001_Node000009"><a xlink:title=" ">
<path fill="none" stroke="#63b8ff" d="M701.34,-356.56C733,-331.98 787.21,-289.13 831.74,-250 851.58,-232.57 852.86,-223.78 874.74,-209 896.73,-194.15 923.85,-181.76 945.66,-173.04"/>
<polygon fill="#63b8ff" stroke="#63b8ff" points="698.79,-354.1 693.03,-362.99 703.08,-359.64 698.79,-354.1"/>
</a>
</g>
</g>
<!-- Node11 -->
<g id="Node000011" class="node">
<title>Node11</title>
<g id="a_Node000011"><a xlink:href="Solver_8cuh.html" target="_top" xlink:title="Declares the base Solver class that implements common boundary condition logic and field&#45;level utilit...">
<polygon fill="white" stroke="#666666" points="409.24,-173 244.24,-173 244.24,-143 409.24,-143 409.24,-173"/>
<text text-anchor="start" x="252.24" y="-161" font-family="Helvetica,sans-Serif" font-size="10.00">/home/runner/work/CLIP</text>
<text text-anchor="middle" x="326.74" y="-150" font-family="Helvetica,sans-Serif" font-size="10.00">/CLIP/include/solver/Solver.cuh</text>
</a>
</g>
</g>
<!-- Node1&#45;&gt;Node11 -->
<g id="edge33_Node000001_Node000011" class="edge">
<title>Node1&#45;&gt;Node11</title>
<g id="a_edge33_Node000001_Node000011"><a xlink:title=" ">
<path fill="none" stroke="#63b8ff" d="M579.51,-361.14C471.61,-340.89 306.35,-302.12 272.74,-250 262.87,-234.69 265.45,-225.7 272.74,-209 279.19,-194.25 292.37,-181.91 304.1,-173.17"/>
<polygon fill="#63b8ff" stroke="#63b8ff" points="578.97,-364.6 589.44,-362.98 580.24,-357.72 578.97,-364.6"/>
</a>
</g>
</g>
<!-- Node13 -->
<g id="Node000013" class="node">
<title>Node13</title>
<g id="a_Node000013"><a xlink:href="Reporter_8cuh_source.html" target="_top" xlink:title=" ">
<polygon fill="white" stroke="#666666" points="1250.24,-173 1083.24,-173 1083.24,-143 1250.24,-143 1250.24,-173"/>
<text text-anchor="start" x="1091.24" y="-161" font-family="Helvetica,sans-Serif" font-size="10.00">/home/runner/work/CLIP</text>
<text text-anchor="middle" x="1166.74" y="-150" font-family="Helvetica,sans-Serif" font-size="10.00">/CLIP/include/utils/Reporter.cuh</text>
</a>
</g>
</g>
<!-- Node1&#45;&gt;Node13 -->
<g id="edge34_Node000001_Node000013" class="edge">
<title>Node1&#45;&gt;Node13</title>
<g id="a_edge34_Node000001_Node000013"><a xlink:title=" ">
<path fill="none" stroke="#63b8ff" d="M716.03,-358.7C812.1,-316.14 1048.94,-211.2 1134.91,-173.1"/>
<polygon fill="#63b8ff" stroke="#63b8ff" points="714.37,-355.61 706.64,-362.86 717.2,-362.01 714.37,-355.61"/>
</a>
</g>
</g>
<!-- Node17 -->
<g id="Node000017" class="node">
<title>Node17</title>
<g id="a_Node000017"><a xlink:href="Geometry_8cuh.html" target="_top" xlink:title="Defines the Geometry class for managing embedded objects and generating signed distance functions (SD...">
<polygon fill="white" stroke="#666666" points="226.24,-250 93.24,-250 93.24,-209 226.24,-209 226.24,-250"/>
<text text-anchor="start" x="101.24" y="-238" font-family="Helvetica,sans-Serif" font-size="10.00">/home/runner/work/CLIP</text>
<text text-anchor="start" x="101.24" y="-227" font-family="Helvetica,sans-Serif" font-size="10.00">/CLIP/include/geometry</text>
<text text-anchor="middle" x="159.74" y="-216" font-family="Helvetica,sans-Serif" font-size="10.00">/Geometry.cuh</text>
</a>
</g>
</g>
<!-- Node1&#45;&gt;Node17 -->
<g id="edge26_Node000001_Node000017" class="edge">
<title>Node1&#45;&gt;Node17</title>
<g id="a_edge26_Node000001_Node000017"><a xlink:title=" ">
<path fill="none" stroke="#63b8ff" d="M574.62,-373.98C464.77,-369.18 296.61,-357.06 240.74,-327 208.19,-309.49 183.32,-273.04 170.17,-250.29"/>
<polygon fill="#63b8ff" stroke="#63b8ff" points="574.59,-377.48 584.73,-374.4 574.89,-370.48 574.59,-377.48"/>
</a>
</g>
</g>
<!-- Node19 -->
<g id="Node000019" class="node">
<title>Node19</title>
<g id="a_Node000019"><a xlink:href="Domain_8cu.html" target="_top" xlink:title="Implements the Domain class, which sets up spatial grid extents, indexing, and ghost region boundarie...">
<polygon fill="white" stroke="#666666" points="1070.24,-321.5 917.24,-321.5 917.24,-291.5 1070.24,-291.5 1070.24,-321.5"/>
<text text-anchor="start" x="925.24" y="-309.5" font-family="Helvetica,sans-Serif" font-size="10.00">/home/runner/work/CLIP</text>
<text text-anchor="middle" x="993.74" y="-298.5" font-family="Helvetica,sans-Serif" font-size="10.00">/CLIP/src/domain/Domain.cu</text>
</a>
</g>
</g>
<!-- Node1&#45;&gt;Node19 -->
<g id="edge35_Node000001_Node000019" class="edge">
<title>Node1&#45;&gt;Node19</title>
<g id="a_edge35_Node000001_Node000019"><a xlink:title=" ">
<path fill="none" stroke="#63b8ff" d="M749.26,-360.76C803.85,-348.87 877.21,-332.89 929.28,-321.54"/>
<polygon fill="#63b8ff" stroke="#63b8ff" points="748.32,-357.39 739.3,-362.94 749.81,-364.23 748.32,-357.39"/>
</a>
</g>
</g>
<!-- Node2&#45;&gt;Node3 -->
<g id="edge2_Node000002_Node000003" class="edge">
<title>Node2&#45;&gt;Node3</title>
<g id="a_edge2_Node000002_Node000003"><a xlink:title=" ">
<path fill="none" stroke="#63b8ff" d="M584.1,-282.57C619.96,-270.17 663.09,-255.26 694,-244.58"/>
<polygon fill="#63b8ff" stroke="#63b8ff" points="582.5,-279.42 574.19,-285.99 584.78,-286.03 582.5,-279.42"/>
</a>
</g>
</g>
<!-- Node6 -->
<g id="Node000006" class="node">
<title>Node6</title>
<g id="a_Node000006"><a xlink:href="main_8cu.html" target="_top" xlink:title="Main entry point for CLIP: CUDA Lattice Boltzmann Solver for Interfacial Phenomena.">
<polygon fill="white" stroke="#666666" points="557.24,-30 424.24,-30 424.24,0 557.24,0 557.24,-30"/>
<text text-anchor="start" x="432.24" y="-18" font-family="Helvetica,sans-Serif" font-size="10.00">/home/runner/work/CLIP</text>
<text text-anchor="middle" x="490.74" y="-7" font-family="Helvetica,sans-Serif" font-size="10.00">/CLIP/src/main.cu</text>
</a>
</g>
</g>
<!-- Node2&#45;&gt;Node6 -->
<g id="edge24_Node000002_Node000006" class="edge">
<title>Node2&#45;&gt;Node6</title>
<g id="a_edge24_Node000002_Node000006"><a xlink:title=" ">
<path fill="none" stroke="#63b8ff" d="M512.84,-275.97C508.68,-256.13 501.48,-229.88 489.74,-209 479.1,-190.08 464.61,-193.23 456.74,-173 437.13,-122.58 466.77,-58.41 482.27,-30.29"/>
<polygon fill="#63b8ff" stroke="#63b8ff" points="509.44,-276.84 514.79,-285.99 516.31,-275.5 509.44,-276.84"/>
</a>
</g>
</g>
<!-- Node2&#45;&gt;Node7 -->
<g id="edge21_Node000002_Node000007" class="edge">
<title>Node2&#45;&gt;Node7</title>
<g id="a_edge21_Node000002_Node000007"><a xlink:title=" ">
<path fill="none" stroke="#63b8ff" d="M525.23,-275.85C533.12,-244.63 545.2,-196.79 551.16,-173.18"/>
<polygon fill="#63b8ff" stroke="#63b8ff" points="521.79,-275.19 522.73,-285.74 528.57,-276.9 521.79,-275.19"/>
</a>
</g>
</g>
<!-- Node2&#45;&gt;Node11 -->
<g id="edge22_Node000002_Node000011" class="edge">
<title>Node2&#45;&gt;Node11</title>
<g id="a_edge22_Node000002_Node000011"><a xlink:title=" ">
<path fill="none" stroke="#63b8ff" d="M506.56,-276.57C497.01,-255.28 481.36,-227.01 459.74,-209 439.56,-192.18 413.15,-180.71 389.19,-173.04"/>
<polygon fill="#63b8ff" stroke="#63b8ff" points="503.36,-278 510.52,-285.81 509.79,-275.24 503.36,-278"/>
</a>
</g>
</g>
<!-- Node16 -->
<g id="Node000016" class="node">
<title>Node16</title>
<g id="a_Node000016"><a xlink:href="Boundary_8cu.html" target="_top" xlink:title="Implements the Boundary class methods responsible for reading, parsing, and managing boundary conditi...">
<polygon fill="white" stroke="#666666" points="451.24,-244.5 282.24,-244.5 282.24,-214.5 451.24,-214.5 451.24,-244.5"/>
<text text-anchor="start" x="290.24" y="-232.5" font-family="Helvetica,sans-Serif" font-size="10.00">/home/runner/work/CLIP</text>
<text text-anchor="middle" x="366.74" y="-221.5" font-family="Helvetica,sans-Serif" font-size="10.00">/CLIP/src/boundary/Boundary.cu</text>
</a>
</g>
</g>
<!-- Node2&#45;&gt;Node16 -->
<g id="edge23_Node000002_Node000016" class="edge">
<title>Node2&#45;&gt;Node16</title>
<g id="a_edge23_Node000002_Node000016"><a xlink:title=" ">
<path fill="none" stroke="#63b8ff" d="M469.35,-281.46C444.94,-269.34 416.18,-255.06 395.33,-244.7"/>
<polygon fill="#63b8ff" stroke="#63b8ff" points="467.95,-284.68 478.46,-285.99 471.06,-278.41 467.95,-284.68"/>
</a>
</g>
</g>
<!-- Node4 -->
<g id="Node000004" class="node">
<title>Node4</title>
<g id="a_Node000004"><a xlink:href="NsAllen_8cuh.html" target="_top" xlink:title="Defines the NSAllen class, a Navier–Stokes solver using the Allen–Cahn phase&#45;field approach within th...">
<polygon fill="white" stroke="#666666" points="409.24,-107 276.24,-107 276.24,-66 409.24,-66 409.24,-107"/>
<text text-anchor="start" x="284.24" y="-95" font-family="Helvetica,sans-Serif" font-size="10.00">/home/runner/work/CLIP</text>
<text text-anchor="start" x="284.24" y="-84" font-family="Helvetica,sans-Serif" font-size="10.00">/CLIP/include/equation</text>
<text text-anchor="middle" x="342.74" y="-73" font-family="Helvetica,sans-Serif" font-size="10.00">/NsAllen.cuh</text>
</a>
</g>
</g>
<!-- Node3&#45;&gt;Node4 -->
<g id="edge3_Node000003_Node000004" class="edge">
<title>Node3&#45;&gt;Node4</title>
<g id="a_edge3_Node000003_Node000004"><a xlink:title=" ">
<path fill="none" stroke="#63b8ff" d="M774.93,-209.63C805.81,-192.64 839.9,-166.77 818.74,-143 818.53,-142.76 540.33,-110.44 409.39,-95.24"/>
<polygon fill="#63b8ff" stroke="#63b8ff" points="773.14,-206.62 765.94,-214.39 776.41,-212.81 773.14,-206.62"/>
</a>
</g>
</g>
<!-- Node3&#45;&gt;Node6 -->
<g id="edge20_Node000003_Node000006" class="edge">
<title>Node3&#45;&gt;Node6</title>
<g id="a_edge20_Node000003_Node000006"><a xlink:title=" ">
<path fill="none" stroke="#63b8ff" d="M784.61,-210.42C818.21,-195.22 853.42,-171.45 835.74,-143 777.37,-49.09 639.99,-24.12 557.28,-17.79"/>
<polygon fill="#63b8ff" stroke="#63b8ff" points="783.01,-207.3 775.22,-214.48 785.79,-213.73 783.01,-207.3"/>
</a>
</g>
</g>
<!-- Node3&#45;&gt;Node7 -->
<g id="edge6_Node000003_Node000007" class="edge">
<title>Node3&#45;&gt;Node7</title>
<g id="a_edge6_Node000003_Node000007"><a xlink:title=" ">
<path fill="none" stroke="#63b8ff" d="M688.81,-210.76C658.47,-199.05 619.28,-183.92 591.11,-173.04"/>
<polygon fill="#63b8ff" stroke="#63b8ff" points="687.73,-214.1 698.32,-214.44 690.25,-207.57 687.73,-214.1"/>
</a>
</g>
</g>
<!-- Node3&#45;&gt;Node9 -->
<g id="edge9_Node000003_Node000009" class="edge">
<title>Node3&#45;&gt;Node9</title>
<g id="a_edge9_Node000003_Node000009"><a xlink:title=" ">
<path fill="none" stroke="#63b8ff" d="M795.02,-211.74C837.59,-199.91 894.01,-184.22 934.23,-173.04"/>
<polygon fill="#63b8ff" stroke="#63b8ff" points="794.03,-208.39 785.33,-214.44 795.91,-215.13 794.03,-208.39"/>
</a>
</g>
</g>
<!-- Node3&#45;&gt;Node11 -->
<g id="edge12_Node000003_Node000011" class="edge">
<title>Node3&#45;&gt;Node11</title>
<g id="a_edge12_Node000003_Node000011"><a xlink:title=" ">
<path fill="none" stroke="#63b8ff" d="M642.03,-212.71C571.95,-200.77 476.62,-184.53 409.18,-173.04"/>
<polygon fill="#63b8ff" stroke="#63b8ff" points="641.73,-216.21 652.18,-214.44 642.91,-209.31 641.73,-216.21"/>
</a>
</g>
</g>
<!-- Node3&#45;&gt;Node13 -->
<g id="edge16_Node000003_Node000013" class="edge">
<title>Node3&#45;&gt;Node13</title>
<g id="a_edge16_Node000003_Node000013"><a xlink:title=" ">
<path fill="none" stroke="#63b8ff" d="M831.9,-212.87C907.44,-200.72 1011.12,-184.04 1083.02,-172.47"/>
<polygon fill="#63b8ff" stroke="#63b8ff" points="831.22,-209.43 821.9,-214.48 832.33,-216.34 831.22,-209.43"/>
</a>
</g>
</g>
<!-- Node15 -->
<g id="Node000015" class="node">
<title>Node15</title>
<g id="a_Node000015"><a xlink:href="DataArray_8cu.html" target="_top" xlink:title="Implements the DataArray class, responsible for memory management and data synchronization between ho...">
<polygon fill="white" stroke="#666666" points="809.74,-173 661.74,-173 661.74,-143 809.74,-143 809.74,-173"/>
<text text-anchor="start" x="669.74" y="-161" font-family="Helvetica,sans-Serif" font-size="10.00">/home/runner/work/CLIP</text>
<text text-anchor="middle" x="735.74" y="-150" font-family="Helvetica,sans-Serif" font-size="10.00">/CLIP/src/data/DataArray.cu</text>
</a>
</g>
</g>
<!-- Node3&#45;&gt;Node15 -->
<g id="edge19_Node000003_Node000015" class="edge">
<title>Node3&#45;&gt;Node15</title>
<g id="a_edge19_Node000003_Node000015"><a xlink:title=" ">
<path fill="none" stroke="#63b8ff" d="M735.09,-204.25C735.24,-193.81 735.41,-181.99 735.54,-173.04"/>
<polygon fill="#63b8ff" stroke="#63b8ff" points="731.59,-204.39 734.94,-214.44 738.59,-204.49 731.59,-204.39"/>
</a>
</g>
</g>
<!-- Node5 -->
<g id="Node000005" class="node">
<title>Node5</title>
<g id="a_Node000005"><a xlink:href="NsAllen_8cu.html" target="_top" xlink:title="Implementation of a two&#45;phase Lattice Boltzmann Method (LBM) solver using the Allen–Cahn phase&#45;field ...">
<polygon fill="white" stroke="#666666" points="288.74,-30 130.74,-30 130.74,0 288.74,0 288.74,-30"/>
<text text-anchor="start" x="138.74" y="-18" font-family="Helvetica,sans-Serif" font-size="10.00">/home/runner/work/CLIP</text>
<text text-anchor="middle" x="209.74" y="-7" font-family="Helvetica,sans-Serif" font-size="10.00">/CLIP/src/equation/NsAllen.cu</text>
</a>
</g>
</g>
<!-- Node4&#45;&gt;Node5 -->
<g id="edge4_Node000004_Node000005" class="edge">
<title>Node4&#45;&gt;Node5</title>
<g id="a_edge4_Node000004_Node000005"><a xlink:title=" ">
<path fill="none" stroke="#63b8ff" d="M296.4,-61.28C276.47,-50.87 253.87,-39.06 236.75,-30.11"/>
<polygon fill="#63b8ff" stroke="#63b8ff" points="294.86,-64.43 305.34,-65.96 298.1,-58.22 294.86,-64.43"/>
</a>
</g>
</g>
<!-- Node4&#45;&gt;Node6 -->
<g id="edge5_Node000004_Node000006" class="edge">
<title>Node4&#45;&gt;Node6</title>
<g id="a_edge5_Node000004_Node000006"><a xlink:title=" ">
<path fill="none" stroke="#63b8ff" d="M393.71,-61.56C416.04,-51.08 441.46,-39.14 460.69,-30.11"/>
<polygon fill="#63b8ff" stroke="#63b8ff" points="391.93,-58.54 384.36,-65.96 394.9,-64.87 391.93,-58.54"/>
</a>
</g>
</g>
<!-- Node7&#45;&gt;Node6 -->
<g id="edge8_Node000007_Node000006" class="edge">
<title>Node7&#45;&gt;Node6</title>
<g id="a_edge8_Node000007_Node000006"><a xlink:title=" ">
<path fill="none" stroke="#63b8ff" d="M531.47,-135.43C523.83,-127.21 515.97,-117.32 510.74,-107 498.02,-81.89 493.35,-48.88 491.67,-30.3"/>
<polygon fill="#63b8ff" stroke="#63b8ff" points="529.14,-138.05 538.63,-142.75 534.14,-133.16 529.14,-138.05"/>
</a>
</g>
</g>
<!-- Node8 -->
<g id="Node000008" class="node">
<title>Node8</title>
<g id="a_Node000008"><a xlink:href="CheckPointer_8cu.html" target="_top" xlink:title="Handles checkpointing functionality for saving and restoring LBM simulation state.">
<polygon fill="white" stroke="#666666" points="670.24,-101.5 519.24,-101.5 519.24,-71.5 670.24,-71.5 670.24,-101.5"/>
<text text-anchor="start" x="527.24" y="-89.5" font-family="Helvetica,sans-Serif" font-size="10.00">/home/runner/work/CLIP</text>
<text text-anchor="middle" x="594.74" y="-78.5" font-family="Helvetica,sans-Serif" font-size="10.00">/CLIP/src/io/CheckPointer.cu</text>
</a>
</g>
</g>
<!-- Node7&#45;&gt;Node8 -->
<g id="edge7_Node000007_Node000008" class="edge">
<title>Node7&#45;&gt;Node8</title>
<g id="a_edge7_Node000007_Node000008"><a xlink:title=" ">
<path fill="none" stroke="#63b8ff" d="M567.95,-134.06C574.13,-123.32 581.29,-110.86 586.66,-101.54"/>
<polygon fill="#63b8ff" stroke="#63b8ff" points="564.79,-132.52 562.84,-142.94 570.86,-136.01 564.79,-132.52"/>
</a>
</g>
</g>
<!-- Node9&#45;&gt;Node6 -->
<g id="edge11_Node000009_Node000006" class="edge">
<title>Node9&#45;&gt;Node6</title>
<g id="a_edge11_Node000009_Node000006"><a xlink:title=" ">
<path fill="none" stroke="#63b8ff" d="M1020.07,-137.11C1030.64,-129.22 1040.95,-119.11 1046.74,-107 1054.6,-90.56 1059.04,-79.45 1046.74,-66 1014.29,-30.5 697.88,-19.99 557.38,-17.06"/>
<polygon fill="#63b8ff" stroke="#63b8ff" points="1017.85,-134.39 1011.62,-142.96 1021.83,-140.15 1017.85,-134.39"/>
</a>
</g>
</g>
<!-- Node10 -->
<g id="Node000010" class="node">
<title>Node10</title>
<g id="a_Node000010"><a xlink:href="VTSwriter_8cu.html" target="_top" xlink:title="Writes scalar and vector fields to .vts (VTK structured grid) files for ParaView visualization.">
<polygon fill="white" stroke="#666666" points="1037.74,-101.5 903.74,-101.5 903.74,-71.5 1037.74,-71.5 1037.74,-101.5"/>
<text text-anchor="start" x="911.74" y="-89.5" font-family="Helvetica,sans-Serif" font-size="10.00">/home/runner/work/CLIP</text>
<text text-anchor="middle" x="970.74" y="-78.5" font-family="Helvetica,sans-Serif" font-size="10.00">/CLIP/src/io/VTSwriter.cu</text>
</a>
</g>
</g>
<!-- Node9&#45;&gt;Node10 -->
<g id="edge10_Node000009_Node000010" class="edge">
<title>Node9&#45;&gt;Node10</title>
<g id="a_edge10_Node000009_Node000010"><a xlink:title=" ">
<path fill="none" stroke="#63b8ff" d="M979.92,-133.08C977.81,-122.56 975.39,-110.58 973.57,-101.54"/>
<polygon fill="#63b8ff" stroke="#63b8ff" points="976.5,-133.82 981.91,-142.94 983.37,-132.44 976.5,-133.82"/>
</a>
</g>
</g>
<!-- Node11&#45;&gt;Node4 -->
<g id="edge13_Node000011_Node000004" class="edge">
<title>Node11&#45;&gt;Node4</title>
<g id="a_edge13_Node000011_Node000004"><a xlink:title=" ">
<path fill="none" stroke="#63b8ff" d="M332.29,-132.91C334.23,-124.47 336.39,-115.1 338.24,-107.07"/>
<polygon fill="#63b8ff" stroke="#63b8ff" points="328.81,-132.41 329.98,-142.94 335.63,-133.98 328.81,-132.41"/>
</a>
</g>
</g>
<!-- Node11&#45;&gt;Node5 -->
<g id="edge14_Node000011_Node000005" class="edge">
<title>Node11&#45;&gt;Node5</title>
<g id="a_edge14_Node000011_Node000005"><a xlink:title=" ">
<path fill="none" stroke="#63b8ff" d="M234.05,-147.04C182.84,-139.41 126.46,-126.77 110.74,-107 99.4,-92.74 101.19,-81.52 110.74,-66 121.19,-49.03 139.37,-37.6 157.32,-30.02"/>
<polygon fill="#63b8ff" stroke="#63b8ff" points="233.82,-150.54 244.21,-148.5 234.81,-143.61 233.82,-150.54"/>
</a>
</g>
</g>
<!-- Node12 -->
<g id="Node000012" class="node">
<title>Node12</title>
<g id="a_Node000012"><a xlink:href="Solver_8cu.html" target="_top" xlink:title="Core LBM solver class with all CUDA boundary condition kernels.">
<polygon fill="white" stroke="#666666" points="257.74,-101.5 119.74,-101.5 119.74,-71.5 257.74,-71.5 257.74,-101.5"/>
<text text-anchor="start" x="127.74" y="-89.5" font-family="Helvetica,sans-Serif" font-size="10.00">/home/runner/work/CLIP</text>
<text text-anchor="middle" x="188.74" y="-78.5" font-family="Helvetica,sans-Serif" font-size="10.00">/CLIP/src/solver/Solver.cu</text>
</a>
</g>
</g>
<!-- Node11&#45;&gt;Node12 -->
<g id="edge15_Node000011_Node000012" class="edge">
<title>Node11&#45;&gt;Node12</title>
<g id="a_edge15_Node000011_Node000012"><a xlink:title=" ">
<path fill="none" stroke="#63b8ff" d="M289.7,-138.34C266.71,-126.77 237.66,-112.14 216.63,-101.54"/>
<polygon fill="#63b8ff" stroke="#63b8ff" points="288.31,-141.56 298.82,-142.94 291.46,-135.31 288.31,-141.56"/>
</a>
</g>
</g>
<!-- Node13&#45;&gt;Node6 -->
<g id="edge17_Node000013_Node000006" class="edge">
<title>Node13&#45;&gt;Node6</title>
<g id="a_edge17_Node000013_Node000006"><a xlink:title=" ">
<path fill="none" stroke="#63b8ff" d="M1211.32,-137.81C1223.75,-130.14 1235.75,-119.98 1242.74,-107 1251.39,-90.96 1255.19,-79.31 1242.74,-66 1196.45,-16.53 732.8,-14.38 557.44,-15.36"/>
<polygon fill="#63b8ff" stroke="#63b8ff" points="1209.23,-134.98 1202.27,-142.96 1212.69,-141.06 1209.23,-134.98"/>
</a>
</g>
</g>
<!-- Node14 -->
<g id="Node000014" class="node">
<title>Node14</title>
<g id="a_Node000014"><a xlink:href="Reporter_8cu.html" target="_top" xlink:title="Reporting and diagnostics for CLIP simulations.">
<polygon fill="white" stroke="#666666" points="1233.74,-101.5 1093.74,-101.5 1093.74,-71.5 1233.74,-71.5 1233.74,-101.5"/>
<text text-anchor="start" x="1101.74" y="-89.5" font-family="Helvetica,sans-Serif" font-size="10.00">/home/runner/work/CLIP</text>
<text text-anchor="middle" x="1163.74" y="-78.5" font-family="Helvetica,sans-Serif" font-size="10.00">/CLIP/src/utils/Reporter.cu</text>
</a>
</g>
</g>
<!-- Node13&#45;&gt;Node14 -->
<g id="edge18_Node000013_Node000014" class="edge">
<title>Node13&#45;&gt;Node14</title>
<g id="a_edge18_Node000013_Node000014"><a xlink:title=" ">
<path fill="none" stroke="#63b8ff" d="M1165.7,-132.75C1165.24,-122.31 1164.73,-110.49 1164.35,-101.54"/>
<polygon fill="#63b8ff" stroke="#63b8ff" points="1162.21,-133.1 1166.13,-142.94 1169.2,-132.79 1162.21,-133.1"/>
</a>
</g>
</g>
<!-- Node17&#45;&gt;Node4 -->
<g id="edge27_Node000017_Node000004" class="edge">
<title>Node17&#45;&gt;Node4</title>
<g id="a_edge27_Node000017_Node000004"><a xlink:title=" ">
<path fill="none" stroke="#63b8ff" d="M179.84,-200.56C193.79,-182.55 213.61,-159.5 234.74,-143 253.11,-128.67 275.74,-116.37 295.53,-107.02"/>
<polygon fill="#63b8ff" stroke="#63b8ff" points="176.74,-198.86 173.49,-208.94 182.32,-203.09 176.74,-198.86"/>
</a>
</g>
</g>
<!-- Node17&#45;&gt;Node6 -->
<g id="edge30_Node000017_Node000006" class="edge">
<title>Node17&#45;&gt;Node6</title>
<g id="a_edge30_Node000017_Node000006"><a xlink:title=" ">
<path fill="none" stroke="#63b8ff" d="M83.09,-215.86C34.76,-203.93 -15.07,-181.87 4.74,-143 31.18,-91.12 56.66,-87.57 110.74,-66 166.21,-43.87 330.72,-28.19 424.08,-20.8"/>
<polygon fill="#63b8ff" stroke="#63b8ff" points="82.5,-219.32 93.03,-218.18 84.09,-212.5 82.5,-219.32"/>
</a>
</g>
</g>
<!-- Node17&#45;&gt;Node11 -->
<g id="edge28_Node000017_Node000011" class="edge">
<title>Node17&#45;&gt;Node11</title>
<g id="a_edge28_Node000017_Node000011"><a xlink:title=" ">
<path fill="none" stroke="#63b8ff" d="M215.94,-205.11C241.54,-194.46 270.99,-182.2 293.09,-173"/>
<polygon fill="#63b8ff" stroke="#63b8ff" points="214.59,-201.88 206.71,-208.96 217.28,-208.34 214.59,-201.88"/>
</a>
</g>
</g>
<!-- Node18 -->
<g id="Node000018" class="node">
<title>Node18</title>
<g id="a_Node000018"><a xlink:href="Geometry_8cu.html" target="_top" xlink:title="Reads, parses, and manages user&#45;defined geometries for use in LBM simulations.">
<polygon fill="white" stroke="#666666" points="187.24,-173 14.24,-173 14.24,-143 187.24,-143 187.24,-173"/>
<text text-anchor="start" x="22.24" y="-161" font-family="Helvetica,sans-Serif" font-size="10.00">/home/runner/work/CLIP</text>
<text text-anchor="middle" x="100.74" y="-150" font-family="Helvetica,sans-Serif" font-size="10.00">/CLIP/src/geometry/Geometry.cu</text>
</a>
</g>
</g>
<!-- Node17&#45;&gt;Node18 -->
<g id="edge29_Node000017_Node000018" class="edge">
<title>Node17&#45;&gt;Node18</title>
<g id="a_edge29_Node000017_Node000018"><a xlink:title=" ">
<path fill="none" stroke="#63b8ff" d="M136.38,-200.98C128.25,-191.4 119.47,-181.06 112.66,-173.04"/>
<polygon fill="#63b8ff" stroke="#63b8ff" points="133.85,-203.41 142.99,-208.77 139.19,-198.88 133.85,-203.41"/>
</a>
</g>
</g>
</g>
</svg>

<g id="navigator" transform="translate(0 0)" fill="#404254">
  <rect fill="#f2f5e9" fill-opacity="0.5" stroke="#606060" stroke-width=".5" x="0" y="0" width="60" height="60"/>
  <use id="zoomplus" xlink:href="#zoomPlus" x="17" y="9" onmousedown="handleZoom(evt,'in')"/>
  <use id="zoomminus" xlink:href="#zoomMin" x="42" y="9" onmousedown="handleZoom(evt,'out')"/>
  <use id="reset" xlink:href="#resetDef" x="30" y="36" onmousedown="handleReset()"/>
   <use id="arrowup" xlink:href="#arrowUp" x="0" y="0" onmousedown="handlePan(0,-1)"/>
  <use id="arrowright" xlink:href="#arrowRight" x="0" y="0" onmousedown="handlePan(1,0)"/>
  <use id="arrowdown" xlink:href="#arrowDown" x="0" y="0" onmousedown="handlePan(0,1)"/>
  <use id="arrowleft" xlink:href="#arrowLeft" x="0" y="0" onmousedown="handlePan(-1,0)"/>
</g>
<svg viewBox="0 0 15 15" width="100%" height="30px" preserveAspectRatio="xMaxYMin meet">
 <g id="arrow_out" transform="scale(0.3 0.3)">
  <a xlink:href="Domain_8cuh__dep__incl_org.svg" target="_base">
   <rect id="button" ry="5" rx="5" y="6" x="6" height="38" width="38"
        fill="#f2f5e9" fill-opacity="0.5" stroke="#606060" stroke-width="1.0"/>
   <path id="arrow"
     d="M 11.500037,31.436501 C 11.940474,20.09759 22.043105,11.32322 32.158766,21.979434 L 37.068811,17.246167 C 37.068811,17.246167 37.088388,32 37.088388,32 L 22.160133,31.978069 C 22.160133,31.978069 26.997745,27.140456 26.997745,27.140456 C 18.528582,18.264221 13.291696,25.230495 11.500037,31.436501 z"
     style="fill:#404040;"/>
  </a>
 </g>
</svg>

<style type='text/css'>
<![CDATA[
[data-mouse-over-selected='false'] { opacity: 0.7; }
[data-mouse-over-selected='true']  { opacity: 1.0; }
]]>
</style>
<script type="application/ecmascript"><![CDATA[
document.addEventListener('DOMContentLoaded', (event) => {
  highlightEdges();
  highlightAdjacentNodes();
});
]]></script>
</svg>
