<?xml version="1.0" encoding="UTF-8" standalone="no"?>
<!DOCTYPE svg PUBLIC "-//W3C//DTD SVG 1.1//EN"
 "http://www.w3.org/Graphics/SVG/1.1/DTD/svg11.dtd">
<!-- Generated by graphviz version 2.43.0 (0)
 -->
<!-- Title: /home/runner/work/CLIP/CLIP/include/geometry/Geometry.cuh Pages: 1 -->
<svg width="1224pt" height="324pt"
 viewBox="0.00 0.00 1224.20 324.00" xmlns="http://www.w3.org/2000/svg" xmlns:xlink="http://www.w3.org/1999/xlink">
<g id="graph0" class="graph" transform="scale(1 1) rotate(0) translate(4 320)">
<title>/home/runner/work/CLIP/CLIP/include/geometry/Geometry.cuh</title>
<!-- Node1 -->
<g id="Node000001" class="node">
<title>Node1</title>
<g id="a_Node000001"><a xlink:title="Defines the Geometry class for managing embedded objects and generating signed distance functions (SD...">
<polygon fill="#999999" stroke="#666666" points="666.7,-316 533.7,-316 533.7,-275 666.7,-275 666.7,-316"/>
<text text-anchor="start" x="541.7" y="-304" font-family="Helvetica,sans-Serif" font-size="10.00">/home/runner/work/CLIP</text>
<text text-anchor="start" x="541.7" y="-293" font-family="Helvetica,sans-Serif" font-size="10.00">/CLIP/include/geometry</text>
<text text-anchor="middle" x="600.2" y="-282" font-family="Helvetica,sans-Serif" font-size="10.00">/Geometry.cuh</text>
</a>
</g>
</g>
<!-- Node2 -->
<g id="Node000002" class="node">
<title>Node2</title>
<g id="a_Node000002"><a xlink:href="InputData_8cuh.html" target="_top" xlink:title="Defines the InputData class responsible for reading and storing simulation parameters in the CLIP LBM...">
<polygon fill="white" stroke="#666666" points="652.7,-184 567.7,-184 567.7,-165 652.7,-165 652.7,-184"/>
<text text-anchor="middle" x="610.2" y="-172" font-family="Helvetica,sans-Serif" font-size="10.00">InputData.cuh</text>
</a>
</g>
</g>
<!-- Node1&#45;&gt;Node2 -->
<g id="edge1_Node000001_Node000002" class="edge">
<title>Node1&#45;&gt;Node2</title>
<g id="a_edge1_Node000001_Node000002"><a xlink:title=" ">
<path fill="none" stroke="#63b8ff" d="M605.95,-274.92C608.75,-264.38 611.81,-251.09 613.2,-239 614.17,-230.61 613.49,-228.44 613.2,-220 612.92,-211.48 612.32,-202.06 611.74,-194.08"/>
<polygon fill="#63b8ff" stroke="#63b8ff" points="615.22,-193.72 610.95,-184.02 608.24,-194.26 615.22,-193.72"/>
</a>
</g>
</g>
<!-- Node3 -->
<g id="Node000003" class="node">
<title>Node3</title>
<g id="a_Node000003"><a xlink:href="includes_8h.html" target="_top" xlink:title="Common include header that provides core system libraries, CUDA headers, and project&#45;level dependenci...">
<polygon fill="white" stroke="#666666" points="553.2,-129 487.2,-129 487.2,-110 553.2,-110 553.2,-129"/>
<text text-anchor="middle" x="520.2" y="-117" font-family="Helvetica,sans-Serif" font-size="10.00">includes.h</text>
</a>
</g>
</g>
<!-- Node1&#45;&gt;Node3 -->
<g id="edge22_Node000001_Node000003" class="edge">
<title>Node1&#45;&gt;Node3</title>
<g id="a_edge22_Node000001_Node000003"><a xlink:title=" ">
<path fill="none" stroke="#63b8ff" d="M557.46,-274.85C543.3,-266.02 529.15,-254.14 521.2,-239 504.45,-207.09 510.16,-163.37 515.43,-138.94"/>
<polygon fill="#63b8ff" stroke="#63b8ff" points="518.84,-139.72 517.74,-129.18 512.03,-138.11 518.84,-139.72"/>
</a>
</g>
</g>
<!-- Node6 -->
<g id="Node000006" class="node">
<title>Node6</title>
<g id="a_Node000006"><a xlink:title=" ">
<polygon fill="#e0e0e0" stroke="#999999" points="1200.2,-19 1156.2,-19 1156.2,0 1200.2,0 1200.2,-19"/>
<text text-anchor="middle" x="1178.2" y="-7" font-family="Helvetica,sans-Serif" font-size="10.00">string</text>
</a>
</g>
</g>
<!-- Node1&#45;&gt;Node6 -->
<g id="edge26_Node000001_Node000006" class="edge">
<title>Node1&#45;&gt;Node6</title>
<g id="a_edge26_Node000001_Node000006"><a xlink:title=" ">
<path fill="none" stroke="#63b8ff" d="M666.71,-288.59C825.99,-273.53 1216.2,-230.98 1216.2,-175.5 1216.2,-175.5 1216.2,-175.5 1216.2,-118.5 1216.2,-85.02 1199.75,-48.84 1188.5,-28.01"/>
<polygon fill="#63b8ff" stroke="#63b8ff" points="1191.44,-26.1 1183.49,-19.1 1185.34,-29.53 1191.44,-26.1"/>
</a>
</g>
</g>
<!-- Node20 -->
<g id="Node000020" class="node">
<title>Node20</title>
<g id="a_Node000020"><a xlink:href="Domain_8cuh.html" target="_top" xlink:title="Defines the Domain class for managing spatial extents, indexing, and boundary checks in the CLIP LBM ...">
<polygon fill="white" stroke="#666666" points="604.7,-239 529.7,-239 529.7,-220 604.7,-220 604.7,-239"/>
<text text-anchor="middle" x="567.2" y="-227" font-family="Helvetica,sans-Serif" font-size="10.00">Domain.cuh</text>
</a>
</g>
</g>
<!-- Node1&#45;&gt;Node20 -->
<g id="edge23_Node000001_Node000020" class="edge">
<title>Node1&#45;&gt;Node20</title>
<g id="a_edge23_Node000001_Node000020"><a xlink:title=" ">
<path fill="none" stroke="#63b8ff" d="M590.12,-274.95C585.76,-266.48 580.68,-256.64 576.42,-248.37"/>
<polygon fill="#63b8ff" stroke="#63b8ff" points="579.41,-246.54 571.72,-239.26 573.19,-249.75 579.41,-246.54"/>
</a>
</g>
</g>
<!-- Node2&#45;&gt;Node3 -->
<g id="edge2_Node000002_Node000003" class="edge">
<title>Node2&#45;&gt;Node3</title>
<g id="a_edge2_Node000002_Node000003"><a xlink:title=" ">
<path fill="none" stroke="#63b8ff" d="M595.74,-164.98C581.79,-156.77 560.41,-144.18 543.95,-134.49"/>
<polygon fill="#63b8ff" stroke="#63b8ff" points="545.32,-131.23 534.93,-129.17 541.77,-137.26 545.32,-131.23"/>
</a>
</g>
</g>
<!-- Node4 -->
<g id="Node000004" class="node">
<title>Node4</title>
<g id="a_Node000004"><a xlink:title=" ">
<polygon fill="#e0e0e0" stroke="#999999" points="271.2,-19 211.2,-19 211.2,0 271.2,0 271.2,-19"/>
<text text-anchor="middle" x="241.2" y="-7" font-family="Helvetica,sans-Serif" font-size="10.00">iostream</text>
</a>
</g>
</g>
<!-- Node3&#45;&gt;Node4 -->
<g id="edge3_Node000003_Node000004" class="edge">
<title>Node3&#45;&gt;Node4</title>
<g id="a_edge3_Node000003_Node000004"><a xlink:title=" ">
<path fill="none" stroke="#63b8ff" d="M486.87,-118.18C377.83,-116.78 36.84,-109.57 4.2,-74 -1.51,-67.78 -1.19,-61.5 4.2,-55 28.71,-25.46 139.73,-15.4 200.74,-12.08"/>
<polygon fill="#63b8ff" stroke="#63b8ff" points="200.99,-15.57 210.8,-11.57 200.63,-8.58 200.99,-15.57"/>
</a>
</g>
</g>
<!-- Node5 -->
<g id="Node000005" class="node">
<title>Node5</title>
<g id="a_Node000005"><a xlink:title=" ">
<polygon fill="#e0e0e0" stroke="#999999" points="101.7,-74 46.7,-74 46.7,-55 101.7,-55 101.7,-74"/>
<text text-anchor="middle" x="74.2" y="-62" font-family="Helvetica,sans-Serif" font-size="10.00">fstream</text>
</a>
</g>
</g>
<!-- Node3&#45;&gt;Node5 -->
<g id="edge4_Node000003_Node000005" class="edge">
<title>Node3&#45;&gt;Node5</title>
<g id="a_edge4_Node000003_Node000005"><a xlink:title=" ">
<path fill="none" stroke="#63b8ff" d="M487.15,-116.23C418.93,-111.25 257.42,-98.02 112.01,-73.93"/>
<polygon fill="#63b8ff" stroke="#63b8ff" points="112.45,-70.46 102.01,-72.26 111.3,-77.36 112.45,-70.46"/>
</a>
</g>
</g>
<!-- Node3&#45;&gt;Node6 -->
<g id="edge5_Node000003_Node000006" class="edge">
<title>Node3&#45;&gt;Node6</title>
<g id="a_edge5_Node000003_Node000006"><a xlink:title=" ">
<path fill="none" stroke="#63b8ff" d="M553.41,-118.36C677.82,-117.56 1111.66,-112.04 1159.2,-74 1172.39,-63.45 1176.7,-44.12 1177.98,-29.55"/>
<polygon fill="#63b8ff" stroke="#63b8ff" points="1181.5,-29.3 1178.47,-19.15 1174.5,-28.97 1181.5,-29.3"/>
</a>
</g>
</g>
<!-- Node7 -->
<g id="Node000007" class="node">
<title>Node7</title>
<g id="a_Node000007"><a xlink:title=" ">
<polygon fill="#e0e0e0" stroke="#999999" points="176.2,-74 120.2,-74 120.2,-55 176.2,-55 176.2,-74"/>
<text text-anchor="middle" x="148.2" y="-62" font-family="Helvetica,sans-Serif" font-size="10.00">sstream</text>
</a>
</g>
</g>
<!-- Node3&#45;&gt;Node7 -->
<g id="edge6_Node000003_Node000007" class="edge">
<title>Node3&#45;&gt;Node7</title>
<g id="a_edge6_Node000003_Node000007"><a xlink:title=" ">
<path fill="none" stroke="#63b8ff" d="M486.76,-115.11C428.01,-108.92 302.28,-94.68 186.52,-74.09"/>
<polygon fill="#63b8ff" stroke="#63b8ff" points="186.89,-70.6 176.43,-72.27 185.65,-77.49 186.89,-70.6"/>
</a>
</g>
</g>
<!-- Node8 -->
<g id="Node000008" class="node">
<title>Node8</title>
<g id="a_Node000008"><a xlink:title=" ">
<polygon fill="#e0e0e0" stroke="#999999" points="241.7,-74 194.7,-74 194.7,-55 241.7,-55 241.7,-74"/>
<text text-anchor="middle" x="218.2" y="-62" font-family="Helvetica,sans-Serif" font-size="10.00">vector</text>
</a>
</g>
</g>
<!-- Node3&#45;&gt;Node8 -->
<g id="edge7_Node000003_Node000008" class="edge">
<title>Node3&#45;&gt;Node8</title>
<g id="a_edge7_Node000003_Node000008"><a xlink:title=" ">
<path fill="none" stroke="#63b8ff" d="M486.9,-113.95C437.69,-107.03 342.5,-92.84 251.83,-73.96"/>
<polygon fill="#63b8ff" stroke="#63b8ff" points="252.44,-70.51 241.94,-71.88 251,-77.36 252.44,-70.51"/>
</a>
</g>
</g>
<!-- Node9 -->
<g id="Node000009" class="node">
<title>Node9</title>
<g id="a_Node000009"><a xlink:title=" ">
<polygon fill="#e0e0e0" stroke="#999999" points="310.2,-74 260.2,-74 260.2,-55 310.2,-55 310.2,-74"/>
<text text-anchor="middle" x="285.2" y="-62" font-family="Helvetica,sans-Serif" font-size="10.00">cstring</text>
</a>
</g>
</g>
<!-- Node3&#45;&gt;Node9 -->
<g id="edge8_Node000003_Node000009" class="edge">
<title>Node3&#45;&gt;Node9</title>
<g id="a_edge8_Node000003_Node000009"><a xlink:title=" ">
<path fill="none" stroke="#63b8ff" d="M487.06,-111.45C449.11,-103.32 384.84,-89.35 320.36,-74.23"/>
<polygon fill="#63b8ff" stroke="#63b8ff" points="320.97,-70.77 310.43,-71.89 319.37,-77.59 320.97,-70.77"/>
</a>
</g>
</g>
<!-- Node10 -->
<g id="Node000010" class="node">
<title>Node10</title>
<g id="a_Node000010"><a xlink:title=" ">
<polygon fill="#e0e0e0" stroke="#999999" points="384.2,-74 328.2,-74 328.2,-55 384.2,-55 384.2,-74"/>
<text text-anchor="middle" x="356.2" y="-62" font-family="Helvetica,sans-Serif" font-size="10.00">iomanip</text>
</a>
</g>
</g>
<!-- Node3&#45;&gt;Node10 -->
<g id="edge9_Node000003_Node000010" class="edge">
<title>Node3&#45;&gt;Node10</title>
<g id="a_edge9_Node000003_Node000010"><a xlink:title=" ">
<path fill="none" stroke="#63b8ff" d="M493.85,-109.98C466.44,-101.13 423.31,-87.19 392.64,-77.28"/>
<polygon fill="#63b8ff" stroke="#63b8ff" points="393.35,-73.83 382.76,-74.08 391.2,-80.49 393.35,-73.83"/>
</a>
</g>
</g>
<!-- Node11 -->
<g id="Node000011" class="node">
<title>Node11</title>
<g id="a_Node000011"><a xlink:title=" ">
<polygon fill="#e0e0e0" stroke="#999999" points="470.2,-74 402.2,-74 402.2,-55 470.2,-55 470.2,-74"/>
<text text-anchor="middle" x="436.2" y="-62" font-family="Helvetica,sans-Serif" font-size="10.00">filesystem</text>
</a>
</g>
</g>
<!-- Node3&#45;&gt;Node11 -->
<g id="edge10_Node000003_Node000011" class="edge">
<title>Node3&#45;&gt;Node11</title>
<g id="a_edge10_Node000003_Node000011"><a xlink:title=" ">
<path fill="none" stroke="#63b8ff" d="M506.71,-109.98C493.8,-101.84 474.1,-89.41 458.8,-79.76"/>
<polygon fill="#63b8ff" stroke="#63b8ff" points="460.27,-76.55 449.94,-74.17 456.53,-82.47 460.27,-76.55"/>
</a>
</g>
</g>
<!-- Node12 -->
<g id="Node000012" class="node">
<title>Node12</title>
<g id="a_Node000012"><a xlink:title=" ">
<polygon fill="#e0e0e0" stroke="#999999" points="876.7,-19 811.7,-19 811.7,0 876.7,0 876.7,-19"/>
<text text-anchor="middle" x="844.2" y="-7" font-family="Helvetica,sans-Serif" font-size="10.00">stdexcept</text>
</a>
</g>
</g>
<!-- Node3&#45;&gt;Node12 -->
<g id="edge11_Node000003_Node000012" class="edge">
<title>Node3&#45;&gt;Node12</title>
<g id="a_edge11_Node000003_Node000012"><a xlink:title=" ">
<path fill="none" stroke="#63b8ff" d="M487.19,-117.97C383.2,-115.98 67.49,-107.21 37.2,-74 31.51,-67.76 31.4,-61.13 37.2,-55 63.66,-27.05 637.68,-14.32 801.13,-11.25"/>
<polygon fill="#63b8ff" stroke="#63b8ff" points="801.36,-14.75 811.29,-11.07 801.23,-7.75 801.36,-14.75"/>
</a>
</g>
</g>
<!-- Node13 -->
<g id="Node000013" class="node">
<title>Node13</title>
<g id="a_Node000013"><a xlink:title=" ">
<polygon fill="#e0e0e0" stroke="#999999" points="552.2,-74 488.2,-74 488.2,-55 552.2,-55 552.2,-74"/>
<text text-anchor="middle" x="520.2" y="-62" font-family="Helvetica,sans-Serif" font-size="10.00">algorithm</text>
</a>
</g>
</g>
<!-- Node3&#45;&gt;Node13 -->
<g id="edge12_Node000003_Node000013" class="edge">
<title>Node3&#45;&gt;Node13</title>
<g id="a_edge12_Node000003_Node000013"><a xlink:title=" ">
<path fill="none" stroke="#63b8ff" d="M520.2,-109.75C520.2,-102.8 520.2,-92.85 520.2,-84.13"/>
<polygon fill="#63b8ff" stroke="#63b8ff" points="523.7,-84.09 520.2,-74.09 516.7,-84.09 523.7,-84.09"/>
</a>
</g>
</g>
<!-- Node14 -->
<g id="Node000014" class="node">
<title>Node14</title>
<g id="a_Node000014"><a xlink:title=" ">
<polygon fill="#e0e0e0" stroke="#999999" points="619.7,-74 570.7,-74 570.7,-55 619.7,-55 619.7,-74"/>
<text text-anchor="middle" x="595.2" y="-62" font-family="Helvetica,sans-Serif" font-size="10.00">cctype</text>
</a>
</g>
</g>
<!-- Node3&#45;&gt;Node14 -->
<g id="edge13_Node000003_Node000014" class="edge">
<title>Node3&#45;&gt;Node14</title>
<g id="a_edge13_Node000003_Node000014"><a xlink:title=" ">
<path fill="none" stroke="#63b8ff" d="M532.25,-109.98C543.67,-101.92 561.03,-89.65 574.64,-80.03"/>
<polygon fill="#63b8ff" stroke="#63b8ff" points="576.79,-82.8 582.93,-74.17 572.75,-77.08 576.79,-82.8"/>
</a>
</g>
</g>
<!-- Node15 -->
<g id="Node000015" class="node">
<title>Node15</title>
<g id="a_Node000015"><a xlink:title=" ">
<polygon fill="#e0e0e0" stroke="#999999" points="670.2,-74 638.2,-74 638.2,-55 670.2,-55 670.2,-74"/>
<text text-anchor="middle" x="654.2" y="-62" font-family="Helvetica,sans-Serif" font-size="10.00">set</text>
</a>
</g>
</g>
<!-- Node3&#45;&gt;Node15 -->
<g id="edge14_Node000003_Node000015" class="edge">
<title>Node3&#45;&gt;Node15</title>
<g id="a_edge14_Node000003_Node000015"><a xlink:title=" ">
<path fill="none" stroke="#63b8ff" d="M541.73,-109.98C565.4,-100.62 603.4,-85.59 628.59,-75.63"/>
<polygon fill="#63b8ff" stroke="#63b8ff" points="630.18,-78.76 638.19,-71.83 627.61,-72.26 630.18,-78.76"/>
</a>
</g>
</g>
<!-- Node16 -->
<g id="Node000016" class="node">
<title>Node16</title>
<g id="a_Node000016"><a xlink:title=" ">
<polygon fill="#e0e0e0" stroke="#999999" points="780.2,-74 688.2,-74 688.2,-55 780.2,-55 780.2,-74"/>
<text text-anchor="middle" x="734.2" y="-62" font-family="Helvetica,sans-Serif" font-size="10.00">cuda_runtime.h</text>
</a>
</g>
</g>
<!-- Node3&#45;&gt;Node16 -->
<g id="edge15_Node000003_Node000016" class="edge">
<title>Node3&#45;&gt;Node16</title>
<g id="a_edge15_Node000003_Node000016"><a xlink:title=" ">
<path fill="none" stroke="#63b8ff" d="M553.64,-110.22C590.27,-101.15 649.19,-86.55 689.7,-76.52"/>
<polygon fill="#63b8ff" stroke="#63b8ff" points="690.72,-79.88 699.58,-74.07 689.03,-73.08 690.72,-79.88"/>
</a>
</g>
</g>
<!-- Node17 -->
<g id="Node000017" class="node">
<title>Node17</title>
<g id="a_Node000017"><a xlink:title=" ">
<polygon fill="#e0e0e0" stroke="#999999" points="955.7,-74 798.7,-74 798.7,-55 955.7,-55 955.7,-74"/>
<text text-anchor="middle" x="877.2" y="-62" font-family="Helvetica,sans-Serif" font-size="10.00">device_launch_parameters.h</text>
</a>
</g>
</g>
<!-- Node3&#45;&gt;Node17 -->
<g id="edge16_Node000003_Node000017" class="edge">
<title>Node3&#45;&gt;Node17</title>
<g id="a_edge16_Node000003_Node000017"><a xlink:title=" ">
<path fill="none" stroke="#63b8ff" d="M553.47,-113.56C611.7,-104.92 733.16,-86.88 809.63,-75.53"/>
<polygon fill="#63b8ff" stroke="#63b8ff" points="810.27,-78.98 819.65,-74.04 809.24,-72.05 810.27,-78.98"/>
</a>
</g>
</g>
<!-- Node18 -->
<g id="Node000018" class="node">
<title>Node18</title>
<g id="a_Node000018"><a xlink:href="DataTypes_8cuh.html" target="_top" xlink:title="Core type definitions and macros for precision control, dimensionality, and indexing in CLIP.">
<polygon fill="white" stroke="#666666" points="1062.2,-74 974.2,-74 974.2,-55 1062.2,-55 1062.2,-74"/>
<text text-anchor="middle" x="1018.2" y="-62" font-family="Helvetica,sans-Serif" font-size="10.00">DataTypes.cuh</text>
</a>
</g>
</g>
<!-- Node3&#45;&gt;Node18 -->
<g id="edge17_Node000003_Node000018" class="edge">
<title>Node3&#45;&gt;Node18</title>
<g id="a_edge17_Node000003_Node000018"><a xlink:title=" ">
<path fill="none" stroke="#63b8ff" d="M553.22,-115.87C625.64,-109.97 804.08,-94.63 963.97,-74.09"/>
<polygon fill="#63b8ff" stroke="#63b8ff" points="964.52,-77.55 973.98,-72.79 963.62,-70.61 964.52,-77.55"/>
</a>
</g>
</g>
<!-- Node19 -->
<g id="Node000019" class="node">
<title>Node19</title>
<g id="a_Node000019"><a xlink:href="Logger_8cuh.html" target="_top" xlink:title="Defines the Logger class for standardized colored console output and error handling in the CLIP frame...">
<polygon fill="white" stroke="#666666" points="1149.7,-74 1080.7,-74 1080.7,-55 1149.7,-55 1149.7,-74"/>
<text text-anchor="middle" x="1115.2" y="-62" font-family="Helvetica,sans-Serif" font-size="10.00">Logger.cuh</text>
</a>
</g>
</g>
<!-- Node3&#45;&gt;Node19 -->
<g id="edge18_Node000003_Node000019" class="edge">
<title>Node3&#45;&gt;Node19</title>
<g id="a_edge18_Node000003_Node000019"><a xlink:title=" ">
<path fill="none" stroke="#63b8ff" d="M553.26,-117.1C637.67,-113.26 868.2,-101.08 1070.75,-73.89"/>
<polygon fill="#63b8ff" stroke="#63b8ff" points="1071.24,-77.36 1080.67,-72.54 1070.29,-70.42 1071.24,-77.36"/>
</a>
</g>
</g>
<!-- Node19&#45;&gt;Node4 -->
<g id="edge19_Node000019_Node000004" class="edge">
<title>Node19&#45;&gt;Node4</title>
<g id="a_edge19_Node000019_Node000004"><a xlink:title=" ">
<path fill="none" stroke="#63b8ff" d="M1080.69,-56.37C1077.49,-55.85 1074.29,-55.38 1071.2,-55 769.5,-17.95 402.35,-11.74 281.72,-10.71"/>
<polygon fill="#63b8ff" stroke="#63b8ff" points="281.51,-7.2 271.48,-10.63 281.45,-14.2 281.51,-7.2"/>
</a>
</g>
</g>
<!-- Node19&#45;&gt;Node6 -->
<g id="edge20_Node000019_Node000006" class="edge">
<title>Node19&#45;&gt;Node6</title>
<g id="a_edge20_Node000019_Node000006"><a xlink:title=" ">
<path fill="none" stroke="#63b8ff" d="M1125.32,-54.98C1134.64,-47.15 1148.67,-35.34 1159.94,-25.86"/>
<polygon fill="#63b8ff" stroke="#63b8ff" points="1162.5,-28.29 1167.9,-19.17 1157.99,-22.93 1162.5,-28.29"/>
</a>
</g>
</g>
<!-- Node19&#45;&gt;Node12 -->
<g id="edge21_Node000019_Node000012" class="edge">
<title>Node19&#45;&gt;Node12</title>
<g id="a_edge21_Node000019_Node000012"><a xlink:title=" ">
<path fill="none" stroke="#63b8ff" d="M1080.6,-56.73C1031.14,-47.06 940.29,-29.29 886.76,-18.82"/>
<polygon fill="#63b8ff" stroke="#63b8ff" points="887.39,-15.38 876.9,-16.9 886.04,-22.25 887.39,-15.38"/>
</a>
</g>
</g>
<!-- Node20&#45;&gt;Node2 -->
<g id="edge25_Node000020_Node000002" class="edge">
<title>Node20&#45;&gt;Node2</title>
<g id="a_edge25_Node000020_Node000002"><a xlink:title=" ">
<path fill="none" stroke="#63b8ff" d="M574.3,-219.75C580.38,-212.26 589.29,-201.28 596.71,-192.13"/>
<polygon fill="#63b8ff" stroke="#63b8ff" points="599.65,-194.06 603.23,-184.09 594.22,-189.65 599.65,-194.06"/>
</a>
</g>
</g>
<!-- Node20&#45;&gt;Node3 -->
<g id="edge24_Node000020_Node000003" class="edge">
<title>Node20&#45;&gt;Node3</title>
<g id="a_edge24_Node000020_Node000003"><a xlink:title=" ">
<path fill="none" stroke="#63b8ff" d="M563.36,-219.66C555.68,-202.01 538.3,-162.09 528.09,-138.64"/>
<polygon fill="#63b8ff" stroke="#63b8ff" points="531.17,-136.93 523.97,-129.16 524.75,-139.72 531.17,-136.93"/>
</a>
</g>
</g>
</g>
</svg>
