<?xml version="1.0" encoding="UTF-8" standalone="no"?>
<!DOCTYPE svg PUBLIC "-//W3C//DTD SVG 1.1//EN"
 "http://www.w3.org/Graphics/SVG/1.1/DTD/svg11.dtd">
<!-- Generated by graphviz version 2.43.0 (0)
 -->
<!-- Title: /home/runner/work/CLIP/CLIP/src/geometry/Geometry.cu Pages: 1 -->
<!--zoomable 368 -->

<svg id="main" version="1.1" xmlns="http://www.w3.org/2000/svg" xmlns:xlink="http://www.w3.org/1999/xlink" xml:space="preserve" onload="init(evt)">
<style type="text/css"><![CDATA[
.node, .edge {opacity: 0.7;}
.node.selected, .edge.selected {opacity: 1;}
.edge:hover path { stroke: red; }
.edge:hover polygon { stroke: red; fill: red; }
]]></style>

<defs>
  <circle id="rim" cx="0" cy="0" r="7"/>
  <circle id="rim2" cx="0" cy="0" r="3.5"/>
  <g id="zoomPlus">
    <use xlink:href="#rim" fill="#404040"><set attributeName="fill" to="#808080" begin="zoomplus.mouseover" end="zoomplus.mouseout"/></use>
    <path d="M-4,0h8M0,-4v8" fill="none" stroke="white" stroke-width="1.5" pointer-events="none"/>
  </g>
  <g id="zoomMin">
    <use xlink:href="#rim" fill="#404040"><set attributeName="fill" to="#808080" begin="zoomminus.mouseover" end="zoomminus.mouseout"/></use>
    <path d="M-4,0h8" fill="none" stroke="white" stroke-width="1.5" pointer-events="none"/>
  </g>
  <g id="arrowUp" transform="translate(30 24)">
    <use xlink:href="#rim"/>
    <path pointer-events="none" fill="none" stroke="white" stroke-width="1.5" d="M0,-3.0v7 M-2.5,-0.5L0,-3.0L2.5,-0.5"/>
  </g>
  <g id="arrowRight" transform="rotate(90) translate(36 -43)">
    <use xlink:href="#rim"/>
    <path pointer-events="none" fill="none" stroke="white" stroke-width="1.5" d="M0,-3.0v7 M-2.5,-0.5L0,-3.0L2.5,-0.5"/>
  </g>
  <g id="arrowDown" transform="rotate(180) translate(-30 -48)">
    <use xlink:href="#rim"/>
    <path pointer-events="none" fill="none" stroke="white" stroke-width="1.5" d="M0,-3.0v7 M-2.5,-0.5L0,-3.0L2.5,-0.5"/>
  </g>
  <g id="arrowLeft" transform="rotate(270) translate(-36 17)">
    <use xlink:href="#rim"/>
    <path pointer-events="none" fill="none" stroke="white" stroke-width="1.5" d="M0,-3.0v7 M-2.5,-0.5L0,-3.0L2.5,-0.5"/>
  </g>
  <g id="resetDef">
    <use xlink:href="#rim2" fill="#404040"><set attributeName="fill" to="#808080" begin="reset.mouseover" end="reset.mouseout"/></use>
  </g>
</defs>
<script type="application/ecmascript">
var viewWidth = 1282;
var viewHeight = 368;
var sectionId = 'dynsection-0';
</script>
<script type="application/ecmascript" xlink:href="svg.min.js"/>
<svg id="graph" class="graph">
<g id="viewport">
<title>/home/runner/work/CLIP/CLIP/src/geometry/Geometry.cu</title>
<!-- Node1 -->
<g id="Node000001" class="node">
<title>Node1</title>
<g id="a_Node000001"><a xlink:title="Reads, parses, and manages user&#45;defined geometries for use in LBM simulations.">
<polygon fill="#999999" stroke="#666666" points="1221.82,-360 1048.82,-360 1048.82,-330 1221.82,-330 1221.82,-360"/>
<text text-anchor="start" x="1056.82" y="-348" font-family="Helvetica,sans-Serif" font-size="10.00">/home/runner/work/CLIP</text>
<text text-anchor="middle" x="1135.32" y="-337" font-family="Helvetica,sans-Serif" font-size="10.00">/CLIP/src/geometry/Geometry.cu</text>
</a>
</g>
</g>
<!-- Node2 -->
<g id="Node000002" class="node">
<title>Node2</title>
<g id="a_Node000002"><a xlink:href="Geometry_8cuh.html" target="_top" xlink:title="Defines the Geometry class for managing embedded objects and generating signed distance functions (SD...">
<polygon fill="white" stroke="#666666" points="564.32,-294 480.32,-294 480.32,-275 564.32,-275 564.32,-294"/>
<text text-anchor="middle" x="522.32" y="-282" font-family="Helvetica,sans-Serif" font-size="10.00">Geometry.cuh</text>
</a>
</g>
</g>
<!-- Node1&#45;&gt;Node2 -->
<g id="edge1_Node000001_Node000002" class="edge">
<title>Node1&#45;&gt;Node2</title>
<g id="a_edge1_Node000001_Node000002"><a xlink:title=" ">
<path fill="none" stroke="#63b8ff" d="M1048.79,-335.74C919.6,-323.41 680.2,-300.57 574.64,-290.49"/>
<polygon fill="#63b8ff" stroke="#63b8ff" points="574.84,-287 564.55,-289.53 574.17,-293.96 574.84,-287"/>
</a>
</g>
</g>
<!-- Node6 -->
<g id="Node000006" class="node">
<title>Node6</title>
<g id="a_Node000006"><a xlink:title=" ">
<polygon fill="#e0e0e0" stroke="#999999" points="1088.82,-74 1033.82,-74 1033.82,-55 1088.82,-55 1088.82,-74"/>
<text text-anchor="middle" x="1061.32" y="-62" font-family="Helvetica,sans-Serif" font-size="10.00">fstream</text>
</a>
</g>
</g>
<!-- Node1&#45;&gt;Node6 -->
<g id="edge28_Node000001_Node000006" class="edge">
<title>Node1&#45;&gt;Node6</title>
<g id="a_edge28_Node000001_Node000006"><a xlink:title=" ">
<path fill="none" stroke="#63b8ff" d="M1122.89,-329.7C1106.4,-309.21 1079.32,-269.61 1079.32,-230.5 1079.32,-230.5 1079.32,-230.5 1079.32,-173.5 1079.32,-141.61 1071.59,-105.14 1066.26,-83.78"/>
<polygon fill="#63b8ff" stroke="#63b8ff" points="1069.65,-82.9 1063.75,-74.1 1062.87,-84.66 1069.65,-82.9"/>
</a>
</g>
</g>
<!-- Node8 -->
<g id="Node000008" class="node">
<title>Node8</title>
<g id="a_Node000008"><a xlink:title=" ">
<polygon fill="#e0e0e0" stroke="#999999" points="1163.32,-74 1107.32,-74 1107.32,-55 1163.32,-55 1163.32,-74"/>
<text text-anchor="middle" x="1135.32" y="-62" font-family="Helvetica,sans-Serif" font-size="10.00">sstream</text>
</a>
</g>
</g>
<!-- Node1&#45;&gt;Node8 -->
<g id="edge29_Node000001_Node000008" class="edge">
<title>Node1&#45;&gt;Node8</title>
<g id="a_edge29_Node000001_Node000008"><a xlink:title=" ">
<path fill="none" stroke="#63b8ff" d="M1135.32,-329.67C1135.32,-308.14 1135.32,-266.17 1135.32,-230.5 1135.32,-230.5 1135.32,-230.5 1135.32,-173.5 1135.32,-142.19 1135.32,-105.77 1135.32,-84.23"/>
<polygon fill="#63b8ff" stroke="#63b8ff" points="1138.82,-84.18 1135.32,-74.18 1131.82,-84.18 1138.82,-84.18"/>
</a>
</g>
</g>
<!-- Node13 -->
<g id="Node000013" class="node">
<title>Node13</title>
<g id="a_Node000013"><a xlink:title=" ">
<polygon fill="#e0e0e0" stroke="#999999" points="340.82,-19 275.82,-19 275.82,0 340.82,0 340.82,-19"/>
<text text-anchor="middle" x="308.32" y="-7" font-family="Helvetica,sans-Serif" font-size="10.00">stdexcept</text>
</a>
</g>
</g>
<!-- Node1&#45;&gt;Node13 -->
<g id="edge31_Node000001_Node000013" class="edge">
<title>Node1&#45;&gt;Node13</title>
<g id="a_edge31_Node000001_Node000013"><a xlink:title=" ">
<path fill="none" stroke="#63b8ff" d="M1176.73,-329.97C1217.38,-313.25 1273.32,-281.06 1273.32,-230.5 1273.32,-230.5 1273.32,-230.5 1273.32,-118.5 1273.32,-89.04 1277.53,-73.14 1254.32,-55 1218.31,-26.84 530.63,-14.02 350.97,-11.14"/>
<polygon fill="#63b8ff" stroke="#63b8ff" points="350.9,-7.64 340.84,-10.98 350.79,-14.64 350.9,-7.64"/>
</a>
</g>
</g>
<!-- Node14 -->
<g id="Node000014" class="node">
<title>Node14</title>
<g id="a_Node000014"><a xlink:title=" ">
<polygon fill="#e0e0e0" stroke="#999999" points="1245.32,-74 1181.32,-74 1181.32,-55 1245.32,-55 1245.32,-74"/>
<text text-anchor="middle" x="1213.32" y="-62" font-family="Helvetica,sans-Serif" font-size="10.00">algorithm</text>
</a>
</g>
</g>
<!-- Node1&#45;&gt;Node14 -->
<g id="edge30_Node000001_Node000014" class="edge">
<title>Node1&#45;&gt;Node14</title>
<g id="a_edge30_Node000001_Node000014"><a xlink:title=" ">
<path fill="none" stroke="#63b8ff" d="M1148.19,-329.78C1165.28,-309.38 1193.32,-269.89 1193.32,-230.5 1193.32,-230.5 1193.32,-230.5 1193.32,-173.5 1193.32,-141.51 1201.91,-105.07 1207.83,-83.75"/>
<polygon fill="#63b8ff" stroke="#63b8ff" points="1211.21,-84.66 1210.63,-74.08 1204.49,-82.71 1211.21,-84.66"/>
</a>
</g>
</g>
<!-- Node3 -->
<g id="Node000003" class="node">
<title>Node3</title>
<g id="a_Node000003"><a xlink:href="InputData_8cuh.html" target="_top" xlink:title="Defines the InputData class responsible for reading and storing simulation parameters in the CLIP LBM...">
<polygon fill="white" stroke="#666666" points="580.82,-184 495.82,-184 495.82,-165 580.82,-165 580.82,-184"/>
<text text-anchor="middle" x="538.32" y="-172" font-family="Helvetica,sans-Serif" font-size="10.00">InputData.cuh</text>
</a>
</g>
</g>
<!-- Node2&#45;&gt;Node3 -->
<g id="edge2_Node000002_Node000003" class="edge">
<title>Node2&#45;&gt;Node3</title>
<g id="a_edge2_Node000002_Node000003"><a xlink:title=" ">
<path fill="none" stroke="#63b8ff" d="M523.63,-274.66C526.22,-257.17 532.05,-217.8 535.54,-194.27"/>
<polygon fill="#63b8ff" stroke="#63b8ff" points="539.04,-194.56 537.04,-184.16 532.11,-193.54 539.04,-194.56"/>
</a>
</g>
</g>
<!-- Node4 -->
<g id="Node000004" class="node">
<title>Node4</title>
<g id="a_Node000004"><a xlink:href="includes_8h.html" target="_top" xlink:title="Common include header that provides core system libraries, CUDA headers, and project&#45;level dependenci...">
<polygon fill="white" stroke="#666666" points="571.32,-129 505.32,-129 505.32,-110 571.32,-110 571.32,-129"/>
<text text-anchor="middle" x="538.32" y="-117" font-family="Helvetica,sans-Serif" font-size="10.00">includes.h</text>
</a>
</g>
</g>
<!-- Node2&#45;&gt;Node4 -->
<g id="edge23_Node000002_Node000004" class="edge">
<title>Node2&#45;&gt;Node4</title>
<g id="a_edge23_Node000002_Node000004"><a xlink:title=" ">
<path fill="none" stroke="#63b8ff" d="M515.55,-274.88C500.75,-254.92 468.25,-204.26 486.32,-165 492.07,-152.52 503.23,-142.24 513.75,-134.71"/>
<polygon fill="#63b8ff" stroke="#63b8ff" points="515.89,-137.49 522.29,-129.05 512.02,-131.65 515.89,-137.49"/>
</a>
</g>
</g>
<!-- Node7 -->
<g id="Node000007" class="node">
<title>Node7</title>
<g id="a_Node000007"><a xlink:title=" ">
<polygon fill="#e0e0e0" stroke="#999999" points="166.32,-19 122.32,-19 122.32,0 166.32,0 166.32,-19"/>
<text text-anchor="middle" x="144.32" y="-7" font-family="Helvetica,sans-Serif" font-size="10.00">string</text>
</a>
</g>
</g>
<!-- Node2&#45;&gt;Node7 -->
<g id="edge27_Node000002_Node000007" class="edge">
<title>Node2&#45;&gt;Node7</title>
<g id="a_edge27_Node000002_Node000007"><a xlink:title=" ">
<path fill="none" stroke="#63b8ff" d="M480.05,-283.71C355.78,-283.22 0.32,-273.25 0.32,-175.5 0.32,-175.5 0.32,-175.5 0.32,-118.5 0.32,-89.04 -0.97,-76.36 19.32,-55 43.66,-29.38 83.71,-18.49 111.91,-13.87"/>
<polygon fill="#63b8ff" stroke="#63b8ff" points="112.69,-17.29 122.08,-12.39 111.68,-10.37 112.69,-17.29"/>
</a>
</g>
</g>
<!-- Node21 -->
<g id="Node000021" class="node">
<title>Node21</title>
<g id="a_Node000021"><a xlink:href="Domain_8cuh.html" target="_top" xlink:title="Defines the Domain class for managing spatial extents, indexing, and boundary checks in the CLIP LBM ...">
<polygon fill="white" stroke="#666666" points="625.82,-239 550.82,-239 550.82,-220 625.82,-220 625.82,-239"/>
<text text-anchor="middle" x="588.32" y="-227" font-family="Helvetica,sans-Serif" font-size="10.00">Domain.cuh</text>
</a>
</g>
</g>
<!-- Node2&#45;&gt;Node21 -->
<g id="edge24_Node000002_Node000021" class="edge">
<title>Node2&#45;&gt;Node21</title>
<g id="a_edge24_Node000002_Node000021"><a xlink:title=" ">
<path fill="none" stroke="#63b8ff" d="M532.93,-274.98C542.78,-267.07 557.67,-255.11 569.54,-245.58"/>
<polygon fill="#63b8ff" stroke="#63b8ff" points="571.92,-248.16 577.53,-239.17 567.54,-242.7 571.92,-248.16"/>
</a>
</g>
</g>
<!-- Node3&#45;&gt;Node4 -->
<g id="edge3_Node000003_Node000004" class="edge">
<title>Node3&#45;&gt;Node4</title>
<g id="a_edge3_Node000003_Node000004"><a xlink:title=" ">
<path fill="none" stroke="#63b8ff" d="M538.32,-164.75C538.32,-157.8 538.32,-147.85 538.32,-139.13"/>
<polygon fill="#63b8ff" stroke="#63b8ff" points="541.82,-139.09 538.32,-129.09 534.82,-139.09 541.82,-139.09"/>
</a>
</g>
</g>
<!-- Node5 -->
<g id="Node000005" class="node">
<title>Node5</title>
<g id="a_Node000005"><a xlink:title=" ">
<polygon fill="#e0e0e0" stroke="#999999" points="251.32,-19 191.32,-19 191.32,0 251.32,0 251.32,-19"/>
<text text-anchor="middle" x="221.32" y="-7" font-family="Helvetica,sans-Serif" font-size="10.00">iostream</text>
</a>
</g>
</g>
<!-- Node4&#45;&gt;Node5 -->
<g id="edge4_Node000004_Node000005" class="edge">
<title>Node4&#45;&gt;Node5</title>
<g id="a_edge4_Node000004_Node000005"><a xlink:title=" ">
<path fill="none" stroke="#63b8ff" d="M505.31,-116.58C424.37,-111.52 221.21,-96.69 201.32,-74 189.95,-61.02 198.64,-41.59 207.87,-27.64"/>
<polygon fill="#63b8ff" stroke="#63b8ff" points="210.8,-29.55 213.8,-19.38 205.12,-25.46 210.8,-29.55"/>
</a>
</g>
</g>
<!-- Node4&#45;&gt;Node6 -->
<g id="edge5_Node000004_Node000006" class="edge">
<title>Node4&#45;&gt;Node6</title>
<g id="a_edge5_Node000004_Node000006"><a xlink:title=" ">
<path fill="none" stroke="#63b8ff" d="M571.59,-117.08C649.23,-113.41 848.48,-102.01 1023.59,-74.08"/>
<polygon fill="#63b8ff" stroke="#63b8ff" points="1024.18,-77.53 1033.49,-72.48 1023.06,-70.62 1024.18,-77.53"/>
</a>
</g>
</g>
<!-- Node4&#45;&gt;Node7 -->
<g id="edge6_Node000004_Node000007" class="edge">
<title>Node4&#45;&gt;Node7</title>
<g id="a_edge6_Node000004_Node000007"><a xlink:title=" ">
<path fill="none" stroke="#63b8ff" d="M505.13,-117.47C429.16,-114.61 245.1,-104.62 192.32,-74 174.26,-63.52 160.79,-43.28 152.79,-28.46"/>
<polygon fill="#63b8ff" stroke="#63b8ff" points="155.77,-26.6 148.14,-19.25 149.53,-29.76 155.77,-26.6"/>
</a>
</g>
</g>
<!-- Node4&#45;&gt;Node8 -->
<g id="edge7_Node000004_Node000008" class="edge">
<title>Node4&#45;&gt;Node8</title>
<g id="a_edge7_Node000004_Node000008"><a xlink:title=" ">
<path fill="none" stroke="#63b8ff" d="M571.34,-117.56C656.74,-114.79 892,-104.86 1097.07,-73.96"/>
<polygon fill="#63b8ff" stroke="#63b8ff" points="1097.77,-77.4 1107.12,-72.43 1096.71,-70.48 1097.77,-77.4"/>
</a>
</g>
</g>
<!-- Node9 -->
<g id="Node000009" class="node">
<title>Node9</title>
<g id="a_Node000009"><a xlink:title=" ">
<polygon fill="#e0e0e0" stroke="#999999" points="383.82,-74 336.82,-74 336.82,-55 383.82,-55 383.82,-74"/>
<text text-anchor="middle" x="360.32" y="-62" font-family="Helvetica,sans-Serif" font-size="10.00">vector</text>
</a>
</g>
</g>
<!-- Node4&#45;&gt;Node9 -->
<g id="edge8_Node000004_Node000009" class="edge">
<title>Node4&#45;&gt;Node9</title>
<g id="a_edge8_Node000004_Node000009"><a xlink:title=" ">
<path fill="none" stroke="#63b8ff" d="M509.72,-109.98C478.11,-100.57 427.23,-85.42 393.79,-75.46"/>
<polygon fill="#63b8ff" stroke="#63b8ff" points="394.59,-72.05 384.01,-72.55 392.6,-78.76 394.59,-72.05"/>
</a>
</g>
</g>
<!-- Node10 -->
<g id="Node000010" class="node">
<title>Node10</title>
<g id="a_Node000010"><a xlink:title=" ">
<polygon fill="#e0e0e0" stroke="#999999" points="452.32,-74 402.32,-74 402.32,-55 452.32,-55 452.32,-74"/>
<text text-anchor="middle" x="427.32" y="-62" font-family="Helvetica,sans-Serif" font-size="10.00">cstring</text>
</a>
</g>
</g>
<!-- Node4&#45;&gt;Node10 -->
<g id="edge9_Node000004_Node000010" class="edge">
<title>Node4&#45;&gt;Node10</title>
<g id="a_edge9_Node000004_Node000010"><a xlink:title=" ">
<path fill="none" stroke="#63b8ff" d="M520.49,-109.98C502.71,-101.5 475.18,-88.35 454.64,-78.54"/>
<polygon fill="#63b8ff" stroke="#63b8ff" points="456.01,-75.32 445.48,-74.17 453,-81.64 456.01,-75.32"/>
</a>
</g>
</g>
<!-- Node11 -->
<g id="Node000011" class="node">
<title>Node11</title>
<g id="a_Node000011"><a xlink:title=" ">
<polygon fill="#e0e0e0" stroke="#999999" points="526.32,-74 470.32,-74 470.32,-55 526.32,-55 526.32,-74"/>
<text text-anchor="middle" x="498.32" y="-62" font-family="Helvetica,sans-Serif" font-size="10.00">iomanip</text>
</a>
</g>
</g>
<!-- Node4&#45;&gt;Node11 -->
<g id="edge10_Node000004_Node000011" class="edge">
<title>Node4&#45;&gt;Node11</title>
<g id="a_edge10_Node000004_Node000011"><a xlink:title=" ">
<path fill="none" stroke="#63b8ff" d="M531.72,-109.75C526.07,-102.26 517.78,-91.28 510.87,-82.13"/>
<polygon fill="#63b8ff" stroke="#63b8ff" points="513.62,-79.96 504.8,-74.09 508.04,-84.18 513.62,-79.96"/>
</a>
</g>
</g>
<!-- Node12 -->
<g id="Node000012" class="node">
<title>Node12</title>
<g id="a_Node000012"><a xlink:title=" ">
<polygon fill="#e0e0e0" stroke="#999999" points="612.32,-74 544.32,-74 544.32,-55 612.32,-55 612.32,-74"/>
<text text-anchor="middle" x="578.32" y="-62" font-family="Helvetica,sans-Serif" font-size="10.00">filesystem</text>
</a>
</g>
</g>
<!-- Node4&#45;&gt;Node12 -->
<g id="edge11_Node000004_Node000012" class="edge">
<title>Node4&#45;&gt;Node12</title>
<g id="a_edge11_Node000004_Node000012"><a xlink:title=" ">
<path fill="none" stroke="#63b8ff" d="M544.93,-109.75C550.58,-102.26 558.87,-91.28 565.77,-82.13"/>
<polygon fill="#63b8ff" stroke="#63b8ff" points="568.61,-84.18 571.84,-74.09 563.02,-79.96 568.61,-84.18"/>
</a>
</g>
</g>
<!-- Node4&#45;&gt;Node13 -->
<g id="edge12_Node000004_Node000013" class="edge">
<title>Node4&#45;&gt;Node13</title>
<g id="a_edge12_Node000004_Node000013"><a xlink:title=" ">
<path fill="none" stroke="#63b8ff" d="M504.94,-115.58C452.18,-110.32 352.87,-97.51 327.32,-74 315.03,-62.69 310.57,-43.78 309.01,-29.53"/>
<polygon fill="#63b8ff" stroke="#63b8ff" points="312.49,-29.07 308.29,-19.34 305.5,-29.56 312.49,-29.07"/>
</a>
</g>
</g>
<!-- Node4&#45;&gt;Node14 -->
<g id="edge13_Node000004_Node000014" class="edge">
<title>Node4&#45;&gt;Node14</title>
<g id="a_edge13_Node000004_Node000014"><a xlink:title=" ">
<path fill="none" stroke="#63b8ff" d="M571.49,-117.74C664.53,-115.28 936.04,-105.82 1171.06,-73.98"/>
<polygon fill="#63b8ff" stroke="#63b8ff" points="1171.73,-77.42 1181.16,-72.59 1170.78,-70.48 1171.73,-77.42"/>
</a>
</g>
</g>
<!-- Node15 -->
<g id="Node000015" class="node">
<title>Node15</title>
<g id="a_Node000015"><a xlink:title=" ">
<polygon fill="#e0e0e0" stroke="#999999" points="679.82,-74 630.82,-74 630.82,-55 679.82,-55 679.82,-74"/>
<text text-anchor="middle" x="655.32" y="-62" font-family="Helvetica,sans-Serif" font-size="10.00">cctype</text>
</a>
</g>
</g>
<!-- Node4&#45;&gt;Node15 -->
<g id="edge14_Node000004_Node000015" class="edge">
<title>Node4&#45;&gt;Node15</title>
<g id="a_edge14_Node000004_Node000015"><a xlink:title=" ">
<path fill="none" stroke="#63b8ff" d="M557.12,-109.98C575.94,-101.46 605.15,-88.23 626.82,-78.41"/>
<polygon fill="#63b8ff" stroke="#63b8ff" points="628.52,-81.48 636.18,-74.17 625.63,-75.11 628.52,-81.48"/>
</a>
</g>
</g>
<!-- Node16 -->
<g id="Node000016" class="node">
<title>Node16</title>
<g id="a_Node000016"><a xlink:title=" ">
<polygon fill="#e0e0e0" stroke="#999999" points="730.32,-74 698.32,-74 698.32,-55 730.32,-55 730.32,-74"/>
<text text-anchor="middle" x="714.32" y="-62" font-family="Helvetica,sans-Serif" font-size="10.00">set</text>
</a>
</g>
</g>
<!-- Node4&#45;&gt;Node16 -->
<g id="edge15_Node000004_Node000016" class="edge">
<title>Node4&#45;&gt;Node16</title>
<g id="a_edge15_Node000004_Node000016"><a xlink:title=" ">
<path fill="none" stroke="#63b8ff" d="M568.52,-110C597.11,-101.86 641.46,-89.01 688.47,-74.18"/>
<polygon fill="#63b8ff" stroke="#63b8ff" points="689.74,-77.45 698.22,-71.08 687.63,-70.77 689.74,-77.45"/>
</a>
</g>
</g>
<!-- Node17 -->
<g id="Node000017" class="node">
<title>Node17</title>
<g id="a_Node000017"><a xlink:title=" ">
<polygon fill="#e0e0e0" stroke="#999999" points="840.32,-74 748.32,-74 748.32,-55 840.32,-55 840.32,-74"/>
<text text-anchor="middle" x="794.32" y="-62" font-family="Helvetica,sans-Serif" font-size="10.00">cuda_runtime.h</text>
</a>
</g>
</g>
<!-- Node4&#45;&gt;Node17 -->
<g id="edge16_Node000004_Node000017" class="edge">
<title>Node4&#45;&gt;Node17</title>
<g id="a_edge16_Node000004_Node000017"><a xlink:title=" ">
<path fill="none" stroke="#63b8ff" d="M571.53,-111.63C615.16,-102.59 692.22,-86.64 743.28,-76.07"/>
<polygon fill="#63b8ff" stroke="#63b8ff" points="744.05,-79.48 753.13,-74.03 742.63,-72.63 744.05,-79.48"/>
</a>
</g>
</g>
<!-- Node18 -->
<g id="Node000018" class="node">
<title>Node18</title>
<g id="a_Node000018"><a xlink:title=" ">
<polygon fill="#e0e0e0" stroke="#999999" points="1015.82,-74 858.82,-74 858.82,-55 1015.82,-55 1015.82,-74"/>
<text text-anchor="middle" x="937.32" y="-62" font-family="Helvetica,sans-Serif" font-size="10.00">device_launch_parameters.h</text>
</a>
</g>
</g>
<!-- Node4&#45;&gt;Node18 -->
<g id="edge17_Node000004_Node000018" class="edge">
<title>Node4&#45;&gt;Node18</title>
<g id="a_edge17_Node000004_Node000018"><a xlink:title=" ">
<path fill="none" stroke="#63b8ff" d="M571.65,-114.07C635.43,-105.6 776.12,-86.91 863.2,-75.35"/>
<polygon fill="#63b8ff" stroke="#63b8ff" points="863.84,-78.79 873.29,-74.01 862.91,-71.85 863.84,-78.79"/>
</a>
</g>
</g>
<!-- Node19 -->
<g id="Node000019" class="node">
<title>Node19</title>
<g id="a_Node000019"><a xlink:href="DataTypes_8cuh.html" target="_top" xlink:title="Core type definitions and macros for precision control, dimensionality, and indexing in CLIP.">
<polygon fill="white" stroke="#666666" points="116.32,-74 28.32,-74 28.32,-55 116.32,-55 116.32,-74"/>
<text text-anchor="middle" x="72.32" y="-62" font-family="Helvetica,sans-Serif" font-size="10.00">DataTypes.cuh</text>
</a>
</g>
</g>
<!-- Node4&#45;&gt;Node19 -->
<g id="edge18_Node000004_Node000019" class="edge">
<title>Node4&#45;&gt;Node19</title>
<g id="a_edge18_Node000004_Node000019"><a xlink:title=" ">
<path fill="none" stroke="#63b8ff" d="M505.22,-115.31C435.69,-108.51 269.38,-91.77 130.32,-74 129.21,-73.86 128.09,-73.71 126.96,-73.56"/>
<polygon fill="#63b8ff" stroke="#63b8ff" points="127.01,-70.04 116.63,-72.17 126.07,-76.98 127.01,-70.04"/>
</a>
</g>
</g>
<!-- Node20 -->
<g id="Node000020" class="node">
<title>Node20</title>
<g id="a_Node000020"><a xlink:href="Logger_8cuh.html" target="_top" xlink:title="Defines the Logger class for standardized colored console output and error handling in the CLIP frame...">
<polygon fill="white" stroke="#666666" points="279.82,-74 210.82,-74 210.82,-55 279.82,-55 279.82,-74"/>
<text text-anchor="middle" x="245.32" y="-62" font-family="Helvetica,sans-Serif" font-size="10.00">Logger.cuh</text>
</a>
</g>
</g>
<!-- Node4&#45;&gt;Node20 -->
<g id="edge19_Node000004_Node000020" class="edge">
<title>Node4&#45;&gt;Node20</title>
<g id="a_edge19_Node000004_Node000020"><a xlink:title=" ">
<path fill="none" stroke="#63b8ff" d="M505.28,-112.52C452.62,-103 349.56,-84.36 290.25,-73.63"/>
<polygon fill="#63b8ff" stroke="#63b8ff" points="290.52,-70.12 280.06,-71.78 289.27,-77.01 290.52,-70.12"/>
</a>
</g>
</g>
<!-- Node20&#45;&gt;Node5 -->
<g id="edge20_Node000020_Node000005" class="edge">
<title>Node20&#45;&gt;Node5</title>
<g id="a_edge20_Node000020_Node000005"><a xlink:title=" ">
<path fill="none" stroke="#63b8ff" d="M241.36,-54.75C238.11,-47.57 233.4,-37.18 229.37,-28.27"/>
<polygon fill="#63b8ff" stroke="#63b8ff" points="232.53,-26.75 225.21,-19.09 226.15,-29.64 232.53,-26.75"/>
</a>
</g>
</g>
<!-- Node20&#45;&gt;Node7 -->
<g id="edge21_Node000020_Node000007" class="edge">
<title>Node20&#45;&gt;Node7</title>
<g id="a_edge21_Node000020_Node000007"><a xlink:title=" ">
<path fill="none" stroke="#63b8ff" d="M229.09,-54.98C213.14,-46.61 188.54,-33.7 169.95,-23.95"/>
<polygon fill="#63b8ff" stroke="#63b8ff" points="171.33,-20.72 160.85,-19.17 168.07,-26.92 171.33,-20.72"/>
</a>
</g>
</g>
<!-- Node20&#45;&gt;Node13 -->
<g id="edge22_Node000020_Node000013" class="edge">
<title>Node20&#45;&gt;Node13</title>
<g id="a_edge22_Node000020_Node000013"><a xlink:title=" ">
<path fill="none" stroke="#63b8ff" d="M255.44,-54.98C264.76,-47.15 278.79,-35.34 290.06,-25.86"/>
<polygon fill="#63b8ff" stroke="#63b8ff" points="292.62,-28.29 298.02,-19.17 288.11,-22.93 292.62,-28.29"/>
</a>
</g>
</g>
<!-- Node21&#45;&gt;Node3 -->
<g id="edge26_Node000021_Node000003" class="edge">
<title>Node21&#45;&gt;Node3</title>
<g id="a_edge26_Node000021_Node000003"><a xlink:title=" ">
<path fill="none" stroke="#63b8ff" d="M580.07,-219.75C572.86,-212.11 562.21,-200.82 553.48,-191.56"/>
<polygon fill="#63b8ff" stroke="#63b8ff" points="555.83,-188.96 546.43,-184.09 550.74,-193.76 555.83,-188.96"/>
</a>
</g>
</g>
<!-- Node21&#45;&gt;Node4 -->
<g id="edge25_Node000021_Node000004" class="edge">
<title>Node21&#45;&gt;Node4</title>
<g id="a_edge25_Node000021_Node000004"><a xlink:title=" ">
<path fill="none" stroke="#63b8ff" d="M590.94,-219.8C594.26,-207.1 598.63,-183.03 590.32,-165 584.58,-152.52 573.41,-142.24 562.9,-134.71"/>
<polygon fill="#63b8ff" stroke="#63b8ff" points="564.62,-131.65 554.35,-129.05 560.76,-137.49 564.62,-131.65"/>
</a>
</g>
</g>
</g>
</svg>

<g id="navigator" transform="translate(0 0)" fill="#404254">
  <rect fill="#f2f5e9" fill-opacity="0.5" stroke="#606060" stroke-width=".5" x="0" y="0" width="60" height="60"/>
  <use id="zoomplus" xlink:href="#zoomPlus" x="17" y="9" onmousedown="handleZoom(evt,'in')"/>
  <use id="zoomminus" xlink:href="#zoomMin" x="42" y="9" onmousedown="handleZoom(evt,'out')"/>
  <use id="reset" xlink:href="#resetDef" x="30" y="36" onmousedown="handleReset()"/>
   <use id="arrowup" xlink:href="#arrowUp" x="0" y="0" onmousedown="handlePan(0,-1)"/>
  <use id="arrowright" xlink:href="#arrowRight" x="0" y="0" onmousedown="handlePan(1,0)"/>
  <use id="arrowdown" xlink:href="#arrowDown" x="0" y="0" onmousedown="handlePan(0,1)"/>
  <use id="arrowleft" xlink:href="#arrowLeft" x="0" y="0" onmousedown="handlePan(-1,0)"/>
</g>
<svg viewBox="0 0 15 15" width="100%" height="30px" preserveAspectRatio="xMaxYMin meet">
 <g id="arrow_out" transform="scale(0.3 0.3)">
  <a xlink:href="Geometry_8cu__incl_org.svg" target="_base">
   <rect id="button" ry="5" rx="5" y="6" x="6" height="38" width="38"
        fill="#f2f5e9" fill-opacity="0.5" stroke="#606060" stroke-width="1.0"/>
   <path id="arrow"
     d="M 11.500037,31.436501 C 11.940474,20.09759 22.043105,11.32322 32.158766,21.979434 L 37.068811,17.246167 C 37.068811,17.246167 37.088388,32 37.088388,32 L 22.160133,31.978069 C 22.160133,31.978069 26.997745,27.140456 26.997745,27.140456 C 18.528582,18.264221 13.291696,25.230495 11.500037,31.436501 z"
     style="fill:#404040;"/>
  </a>
 </g>
</svg>

<style type='text/css'>
<![CDATA[
[data-mouse-over-selected='false'] { opacity: 0.7; }
[data-mouse-over-selected='true']  { opacity: 1.0; }
]]>
</style>
<script type="application/ecmascript"><![CDATA[
document.addEventListener('DOMContentLoaded', (event) => {
  highlightEdges();
  highlightAdjacentNodes();
});
]]></script>
</svg>
