<?xml version="1.0" encoding="UTF-8" standalone="no"?>
<!DOCTYPE svg PUBLIC "-//W3C//DTD SVG 1.1//EN"
 "http://www.w3.org/Graphics/SVG/1.1/DTD/svg11.dtd">
<!-- Generated by graphviz version 2.43.0 (0)
 -->
<!-- Title: /home/runner/work/CLIP/CLIP/include/utils/includes.h Pages: 1 -->
<svg width="1236pt" height="148pt"
 viewBox="0.00 0.00 1236.00 148.00" xmlns="http://www.w3.org/2000/svg" xmlns:xlink="http://www.w3.org/1999/xlink">
<g id="graph0" class="graph" transform="scale(1 1) rotate(0) translate(4 144)">
<title>/home/runner/work/CLIP/CLIP/include/utils/includes.h</title>
<!-- Node1 -->
<g id="Node000001" class="node">
<title>Node1</title>
<g id="a_Node000001"><a xlink:title="Common include header that provides core system libraries, CUDA headers, and project&#45;level dependenci...">
<polygon fill="#999999" stroke="#666666" points="563.5,-140 408.5,-140 408.5,-110 563.5,-110 563.5,-140"/>
<text text-anchor="start" x="416.5" y="-128" font-family="Helvetica,sans-Serif" font-size="10.00">/home/runner/work/CLIP</text>
<text text-anchor="middle" x="486" y="-117" font-family="Helvetica,sans-Serif" font-size="10.00">/CLIP/include/utils/includes.h</text>
</a>
</g>
</g>
<!-- Node2 -->
<g id="Node000002" class="node">
<title>Node2</title>
<g id="a_Node000002"><a xlink:title=" ">
<polygon fill="#e0e0e0" stroke="#999999" points="60,-19 0,-19 0,0 60,0 60,-19"/>
<text text-anchor="middle" x="30" y="-7" font-family="Helvetica,sans-Serif" font-size="10.00">iostream</text>
</a>
</g>
</g>
<!-- Node1&#45;&gt;Node2 -->
<g id="edge1_Node000001_Node000002" class="edge">
<title>Node1&#45;&gt;Node2</title>
<g id="a_edge1_Node000001_Node000002"><a xlink:title=" ">
<path fill="none" stroke="#63b8ff" d="M408.39,-120.43C287.41,-114.11 64.95,-99.19 39,-74 27.4,-62.74 26.06,-43.83 27.08,-29.56"/>
<polygon fill="#63b8ff" stroke="#63b8ff" points="30.59,-29.69 28.25,-19.36 23.63,-28.89 30.59,-29.69"/>
</a>
</g>
</g>
<!-- Node3 -->
<g id="Node000003" class="node">
<title>Node3</title>
<g id="a_Node000003"><a xlink:title=" ">
<polygon fill="#e0e0e0" stroke="#999999" points="267.5,-74 212.5,-74 212.5,-55 267.5,-55 267.5,-74"/>
<text text-anchor="middle" x="240" y="-62" font-family="Helvetica,sans-Serif" font-size="10.00">fstream</text>
</a>
</g>
</g>
<!-- Node1&#45;&gt;Node3 -->
<g id="edge2_Node000001_Node000003" class="edge">
<title>Node1&#45;&gt;Node3</title>
<g id="a_edge2_Node000001_Node000003"><a xlink:title=" ">
<path fill="none" stroke="#63b8ff" d="M427.08,-109.99C380.66,-98.95 317.34,-83.89 277.57,-74.44"/>
<polygon fill="#63b8ff" stroke="#63b8ff" points="278.29,-71.01 267.75,-72.1 276.67,-77.82 278.29,-71.01"/>
</a>
</g>
</g>
<!-- Node4 -->
<g id="Node000004" class="node">
<title>Node4</title>
<g id="a_Node000004"><a xlink:title=" ">
<polygon fill="#e0e0e0" stroke="#999999" points="127,-19 83,-19 83,0 127,0 127,-19"/>
<text text-anchor="middle" x="105" y="-7" font-family="Helvetica,sans-Serif" font-size="10.00">string</text>
</a>
</g>
</g>
<!-- Node1&#45;&gt;Node4 -->
<g id="edge3_Node000001_Node000004" class="edge">
<title>Node1&#45;&gt;Node4</title>
<g id="a_edge3_Node000001_Node000004"><a xlink:title=" ">
<path fill="none" stroke="#63b8ff" d="M408.42,-121.59C346.01,-117.22 257.27,-105.4 186,-74 160.34,-62.69 135.7,-41.39 120.47,-26.59"/>
<polygon fill="#63b8ff" stroke="#63b8ff" points="122.58,-23.74 113.03,-19.14 117.63,-28.69 122.58,-23.74"/>
</a>
</g>
</g>
<!-- Node5 -->
<g id="Node000005" class="node">
<title>Node5</title>
<g id="a_Node000005"><a xlink:title=" ">
<polygon fill="#e0e0e0" stroke="#999999" points="342,-74 286,-74 286,-55 342,-55 342,-74"/>
<text text-anchor="middle" x="314" y="-62" font-family="Helvetica,sans-Serif" font-size="10.00">sstream</text>
</a>
</g>
</g>
<!-- Node1&#45;&gt;Node5 -->
<g id="edge4_Node000001_Node000005" class="edge">
<title>Node1&#45;&gt;Node5</title>
<g id="a_edge4_Node000001_Node000005"><a xlink:title=" ">
<path fill="none" stroke="#63b8ff" d="M444.8,-109.99C415.5,-100.02 376.58,-86.78 348.83,-77.35"/>
<polygon fill="#63b8ff" stroke="#63b8ff" points="349.74,-73.96 339.15,-74.05 347.49,-80.59 349.74,-73.96"/>
</a>
</g>
</g>
<!-- Node6 -->
<g id="Node000006" class="node">
<title>Node6</title>
<g id="a_Node000006"><a xlink:title=" ">
<polygon fill="#e0e0e0" stroke="#999999" points="407.5,-74 360.5,-74 360.5,-55 407.5,-55 407.5,-74"/>
<text text-anchor="middle" x="384" y="-62" font-family="Helvetica,sans-Serif" font-size="10.00">vector</text>
</a>
</g>
</g>
<!-- Node1&#45;&gt;Node6 -->
<g id="edge5_Node000001_Node000006" class="edge">
<title>Node1&#45;&gt;Node6</title>
<g id="a_edge5_Node000001_Node000006"><a xlink:title=" ">
<path fill="none" stroke="#63b8ff" d="M461.57,-109.99C445.31,-100.66 424.05,-88.47 407.9,-79.21"/>
<polygon fill="#63b8ff" stroke="#63b8ff" points="409.48,-76.08 399.06,-74.14 406,-82.15 409.48,-76.08"/>
</a>
</g>
</g>
<!-- Node7 -->
<g id="Node000007" class="node">
<title>Node7</title>
<g id="a_Node000007"><a xlink:title=" ">
<polygon fill="#e0e0e0" stroke="#999999" points="476,-74 426,-74 426,-55 476,-55 476,-74"/>
<text text-anchor="middle" x="451" y="-62" font-family="Helvetica,sans-Serif" font-size="10.00">cstring</text>
</a>
</g>
</g>
<!-- Node1&#45;&gt;Node7 -->
<g id="edge6_Node000001_Node000007" class="edge">
<title>Node1&#45;&gt;Node7</title>
<g id="a_edge6_Node000001_Node000007"><a xlink:title=" ">
<path fill="none" stroke="#63b8ff" d="M477.53,-109.84C472.71,-101.78 466.63,-91.62 461.5,-83.06"/>
<polygon fill="#63b8ff" stroke="#63b8ff" points="464.38,-81.05 456.24,-74.27 458.38,-84.64 464.38,-81.05"/>
</a>
</g>
</g>
<!-- Node8 -->
<g id="Node000008" class="node">
<title>Node8</title>
<g id="a_Node000008"><a xlink:title=" ">
<polygon fill="#e0e0e0" stroke="#999999" points="550,-74 494,-74 494,-55 550,-55 550,-74"/>
<text text-anchor="middle" x="522" y="-62" font-family="Helvetica,sans-Serif" font-size="10.00">iomanip</text>
</a>
</g>
</g>
<!-- Node1&#45;&gt;Node8 -->
<g id="edge7_Node000001_Node000008" class="edge">
<title>Node1&#45;&gt;Node8</title>
<g id="a_edge7_Node000001_Node000008"><a xlink:title=" ">
<path fill="none" stroke="#63b8ff" d="M494.71,-109.84C499.67,-101.78 505.93,-91.62 511.2,-83.06"/>
<polygon fill="#63b8ff" stroke="#63b8ff" points="514.35,-84.62 516.61,-74.27 508.38,-80.95 514.35,-84.62"/>
</a>
</g>
</g>
<!-- Node9 -->
<g id="Node000009" class="node">
<title>Node9</title>
<g id="a_Node000009"><a xlink:title=" ">
<polygon fill="#e0e0e0" stroke="#999999" points="636,-74 568,-74 568,-55 636,-55 636,-74"/>
<text text-anchor="middle" x="602" y="-62" font-family="Helvetica,sans-Serif" font-size="10.00">filesystem</text>
</a>
</g>
</g>
<!-- Node1&#45;&gt;Node9 -->
<g id="edge8_Node000001_Node000009" class="edge">
<title>Node1&#45;&gt;Node9</title>
<g id="a_edge8_Node000001_Node000009"><a xlink:title=" ">
<path fill="none" stroke="#63b8ff" d="M513.78,-109.99C532.62,-100.49 557.35,-88.02 575.84,-78.69"/>
<polygon fill="#63b8ff" stroke="#63b8ff" points="577.52,-81.77 584.87,-74.14 574.36,-75.52 577.52,-81.77"/>
</a>
</g>
</g>
<!-- Node10 -->
<g id="Node000010" class="node">
<title>Node10</title>
<g id="a_Node000010"><a xlink:title=" ">
<polygon fill="#e0e0e0" stroke="#999999" points="213.5,-19 148.5,-19 148.5,0 213.5,0 213.5,-19"/>
<text text-anchor="middle" x="181" y="-7" font-family="Helvetica,sans-Serif" font-size="10.00">stdexcept</text>
</a>
</g>
</g>
<!-- Node1&#45;&gt;Node10 -->
<g id="edge9_Node000001_Node000010" class="edge">
<title>Node1&#45;&gt;Node10</title>
<g id="a_edge9_Node000001_Node000010"><a xlink:title=" ">
<path fill="none" stroke="#63b8ff" d="M408.25,-118.86C335.71,-112.57 234.25,-99.45 204,-74 190.97,-63.04 185.32,-44.09 182.88,-29.73"/>
<polygon fill="#63b8ff" stroke="#63b8ff" points="186.3,-28.9 181.52,-19.45 179.36,-29.82 186.3,-28.9"/>
</a>
</g>
</g>
<!-- Node11 -->
<g id="Node000011" class="node">
<title>Node11</title>
<g id="a_Node000011"><a xlink:title=" ">
<polygon fill="#e0e0e0" stroke="#999999" points="718,-74 654,-74 654,-55 718,-55 718,-74"/>
<text text-anchor="middle" x="686" y="-62" font-family="Helvetica,sans-Serif" font-size="10.00">algorithm</text>
</a>
</g>
</g>
<!-- Node1&#45;&gt;Node11 -->
<g id="edge10_Node000001_Node000011" class="edge">
<title>Node1&#45;&gt;Node11</title>
<g id="a_edge10_Node000001_Node000011"><a xlink:title=" ">
<path fill="none" stroke="#63b8ff" d="M533.9,-109.99C568.42,-99.89 614.42,-86.44 646.77,-76.98"/>
<polygon fill="#63b8ff" stroke="#63b8ff" points="648.14,-80.22 656.76,-74.05 646.18,-73.5 648.14,-80.22"/>
</a>
</g>
</g>
<!-- Node12 -->
<g id="Node000012" class="node">
<title>Node12</title>
<g id="a_Node000012"><a xlink:title=" ">
<polygon fill="#e0e0e0" stroke="#999999" points="785.5,-74 736.5,-74 736.5,-55 785.5,-55 785.5,-74"/>
<text text-anchor="middle" x="761" y="-62" font-family="Helvetica,sans-Serif" font-size="10.00">cctype</text>
</a>
</g>
</g>
<!-- Node1&#45;&gt;Node12 -->
<g id="edge11_Node000001_Node000012" class="edge">
<title>Node1&#45;&gt;Node12</title>
<g id="a_edge11_Node000001_Node000012"><a xlink:title=" ">
<path fill="none" stroke="#63b8ff" d="M557.34,-109.98C602.96,-100.84 663.61,-88.35 726.1,-74.13"/>
<polygon fill="#63b8ff" stroke="#63b8ff" points="727.18,-77.48 736.15,-71.84 725.62,-70.65 727.18,-77.48"/>
</a>
</g>
</g>
<!-- Node13 -->
<g id="Node000013" class="node">
<title>Node13</title>
<g id="a_Node000013"><a xlink:title=" ">
<polygon fill="#e0e0e0" stroke="#999999" points="836,-74 804,-74 804,-55 836,-55 836,-74"/>
<text text-anchor="middle" x="820" y="-62" font-family="Helvetica,sans-Serif" font-size="10.00">set</text>
</a>
</g>
</g>
<!-- Node1&#45;&gt;Node13 -->
<g id="edge12_Node000001_Node000013" class="edge">
<title>Node1&#45;&gt;Node13</title>
<g id="a_edge12_Node000001_Node000013"><a xlink:title=" ">
<path fill="none" stroke="#63b8ff" d="M563.55,-115.11C624.09,-107.33 710.35,-94.4 794.05,-73.86"/>
<polygon fill="#63b8ff" stroke="#63b8ff" points="795.12,-77.2 803.98,-71.39 793.43,-70.41 795.12,-77.2"/>
</a>
</g>
</g>
<!-- Node14 -->
<g id="Node000014" class="node">
<title>Node14</title>
<g id="a_Node000014"><a xlink:title=" ">
<polygon fill="#e0e0e0" stroke="#999999" points="946,-74 854,-74 854,-55 946,-55 946,-74"/>
<text text-anchor="middle" x="900" y="-62" font-family="Helvetica,sans-Serif" font-size="10.00">cuda_runtime.h</text>
</a>
</g>
</g>
<!-- Node1&#45;&gt;Node14 -->
<g id="edge13_Node000001_Node000014" class="edge">
<title>Node1&#45;&gt;Node14</title>
<g id="a_edge13_Node000001_Node000014"><a xlink:title=" ">
<path fill="none" stroke="#63b8ff" d="M563.78,-113.51C634.26,-103.92 741.25,-89.18 843.88,-74.15"/>
<polygon fill="#63b8ff" stroke="#63b8ff" points="844.41,-77.61 853.79,-72.69 843.39,-70.68 844.41,-77.61"/>
</a>
</g>
</g>
<!-- Node15 -->
<g id="Node000015" class="node">
<title>Node15</title>
<g id="a_Node000015"><a xlink:title=" ">
<polygon fill="#e0e0e0" stroke="#999999" points="1121.5,-74 964.5,-74 964.5,-55 1121.5,-55 1121.5,-74"/>
<text text-anchor="middle" x="1043" y="-62" font-family="Helvetica,sans-Serif" font-size="10.00">device_launch_parameters.h</text>
</a>
</g>
</g>
<!-- Node1&#45;&gt;Node15 -->
<g id="edge14_Node000001_Node000015" class="edge">
<title>Node1&#45;&gt;Node15</title>
<g id="a_edge14_Node000001_Node000015"><a xlink:title=" ">
<path fill="none" stroke="#63b8ff" d="M563.74,-115.84C666.19,-105.08 846,-86.19 953.85,-74.86"/>
<polygon fill="#63b8ff" stroke="#63b8ff" points="954.47,-78.32 964.05,-73.79 953.74,-71.36 954.47,-78.32"/>
</a>
</g>
</g>
<!-- Node16 -->
<g id="Node000016" class="node">
<title>Node16</title>
<g id="a_Node000016"><a xlink:href="DataTypes_8cuh.html" target="_top" xlink:title="Core type definitions and macros for precision control, dimensionality, and indexing in CLIP.">
<polygon fill="white" stroke="#666666" points="1228,-74 1140,-74 1140,-55 1228,-55 1228,-74"/>
<text text-anchor="middle" x="1184" y="-62" font-family="Helvetica,sans-Serif" font-size="10.00">DataTypes.cuh</text>
</a>
</g>
</g>
<!-- Node1&#45;&gt;Node16 -->
<g id="edge15_Node000001_Node000016" class="edge">
<title>Node1&#45;&gt;Node16</title>
<g id="a_edge15_Node000001_Node000016"><a xlink:title=" ">
<path fill="none" stroke="#63b8ff" d="M563.64,-120.03C683.11,-113.48 919.37,-98.71 1129.79,-74.05"/>
<polygon fill="#63b8ff" stroke="#63b8ff" points="1130.27,-77.52 1139.79,-72.87 1129.45,-70.56 1130.27,-77.52"/>
</a>
</g>
</g>
<!-- Node17 -->
<g id="Node000017" class="node">
<title>Node17</title>
<g id="a_Node000017"><a xlink:href="Logger_8cuh.html" target="_top" xlink:title="Defines the Logger class for standardized colored console output and error handling in the CLIP frame...">
<polygon fill="white" stroke="#666666" points="117.5,-74 48.5,-74 48.5,-55 117.5,-55 117.5,-74"/>
<text text-anchor="middle" x="83" y="-62" font-family="Helvetica,sans-Serif" font-size="10.00">Logger.cuh</text>
</a>
</g>
</g>
<!-- Node1&#45;&gt;Node17 -->
<g id="edge16_Node000001_Node000017" class="edge">
<title>Node1&#45;&gt;Node17</title>
<g id="a_edge16_Node000001_Node000017"><a xlink:title=" ">
<path fill="none" stroke="#63b8ff" d="M408.2,-113.73C336.41,-104.08 226.88,-88.93 132,-74 130.53,-73.77 129.04,-73.53 127.54,-73.29"/>
<polygon fill="#63b8ff" stroke="#63b8ff" points="127.95,-69.81 117.51,-71.63 126.8,-76.71 127.95,-69.81"/>
</a>
</g>
</g>
<!-- Node17&#45;&gt;Node2 -->
<g id="edge17_Node000017_Node000002" class="edge">
<title>Node17&#45;&gt;Node2</title>
<g id="a_edge17_Node000017_Node000002"><a xlink:title=" ">
<path fill="none" stroke="#63b8ff" d="M74.25,-54.75C66.53,-47.03 55.1,-35.6 45.78,-26.28"/>
<polygon fill="#63b8ff" stroke="#63b8ff" points="48.14,-23.69 38.59,-19.09 43.19,-28.64 48.14,-23.69"/>
</a>
</g>
</g>
<!-- Node17&#45;&gt;Node4 -->
<g id="edge18_Node000017_Node000004" class="edge">
<title>Node17&#45;&gt;Node4</title>
<g id="a_edge18_Node000017_Node000004"><a xlink:title=" ">
<path fill="none" stroke="#63b8ff" d="M86.63,-54.75C89.58,-47.65 93.83,-37.4 97.51,-28.56"/>
<polygon fill="#63b8ff" stroke="#63b8ff" points="100.83,-29.67 101.43,-19.09 94.37,-26.98 100.83,-29.67"/>
</a>
</g>
</g>
<!-- Node17&#45;&gt;Node10 -->
<g id="edge19_Node000017_Node000010" class="edge">
<title>Node17&#45;&gt;Node10</title>
<g id="a_edge19_Node000017_Node000010"><a xlink:title=" ">
<path fill="none" stroke="#63b8ff" d="M98.75,-54.98C114.23,-46.61 138.09,-33.7 156.14,-23.95"/>
<polygon fill="#63b8ff" stroke="#63b8ff" points="157.84,-27.01 164.97,-19.17 154.51,-20.85 157.84,-27.01"/>
</a>
</g>
</g>
</g>
</svg>
