<?xml version="1.0" encoding="UTF-8" standalone="no"?>
<!DOCTYPE svg PUBLIC "-//W3C//DTD SVG 1.1//EN"
 "http://www.w3.org/Graphics/SVG/1.1/DTD/svg11.dtd">
<!-- Generated by graphviz version 2.43.0 (0)
 -->
<!-- Title: /home/runner/work/CLIP/CLIP/include/input/InputData.cuh Pages: 1 -->
<!--zoomable 467 -->

<svg id="main" version="1.1" xmlns="http://www.w3.org/2000/svg" xmlns:xlink="http://www.w3.org/1999/xlink" xml:space="preserve" onload="init(evt)">
<style type="text/css"><![CDATA[
.node, .edge {opacity: 0.7;}
.node.selected, .edge.selected {opacity: 1;}
.edge:hover path { stroke: red; }
.edge:hover polygon { stroke: red; fill: red; }
]]></style>

<defs>
  <circle id="rim" cx="0" cy="0" r="7"/>
  <circle id="rim2" cx="0" cy="0" r="3.5"/>
  <g id="zoomPlus">
    <use xlink:href="#rim" fill="#404040"><set attributeName="fill" to="#808080" begin="zoomplus.mouseover" end="zoomplus.mouseout"/></use>
    <path d="M-4,0h8M0,-4v8" fill="none" stroke="white" stroke-width="1.5" pointer-events="none"/>
  </g>
  <g id="zoomMin">
    <use xlink:href="#rim" fill="#404040"><set attributeName="fill" to="#808080" begin="zoomminus.mouseover" end="zoomminus.mouseout"/></use>
    <path d="M-4,0h8" fill="none" stroke="white" stroke-width="1.5" pointer-events="none"/>
  </g>
  <g id="arrowUp" transform="translate(30 24)">
    <use xlink:href="#rim"/>
    <path pointer-events="none" fill="none" stroke="white" stroke-width="1.5" d="M0,-3.0v7 M-2.5,-0.5L0,-3.0L2.5,-0.5"/>
  </g>
  <g id="arrowRight" transform="rotate(90) translate(36 -43)">
    <use xlink:href="#rim"/>
    <path pointer-events="none" fill="none" stroke="white" stroke-width="1.5" d="M0,-3.0v7 M-2.5,-0.5L0,-3.0L2.5,-0.5"/>
  </g>
  <g id="arrowDown" transform="rotate(180) translate(-30 -48)">
    <use xlink:href="#rim"/>
    <path pointer-events="none" fill="none" stroke="white" stroke-width="1.5" d="M0,-3.0v7 M-2.5,-0.5L0,-3.0L2.5,-0.5"/>
  </g>
  <g id="arrowLeft" transform="rotate(270) translate(-36 17)">
    <use xlink:href="#rim"/>
    <path pointer-events="none" fill="none" stroke="white" stroke-width="1.5" d="M0,-3.0v7 M-2.5,-0.5L0,-3.0L2.5,-0.5"/>
  </g>
  <g id="resetDef">
    <use xlink:href="#rim2" fill="#404040"><set attributeName="fill" to="#808080" begin="reset.mouseover" end="reset.mouseout"/></use>
  </g>
</defs>
<script type="application/ecmascript">
var viewWidth = 1764;
var viewHeight = 467;
var sectionId = 'dynsection-1';
</script>
<script type="application/ecmascript" xlink:href="svg.min.js"/>
<svg id="graph" class="graph">
<g id="viewport">
<title>/home/runner/work/CLIP/CLIP/include/input/InputData.cuh</title>
<!-- Node1 -->
<g id="Node000001" class="node">
<title>Node1</title>
<g id="a_Node000001"><a xlink:title="Defines the InputData class responsible for reading and storing simulation parameters in the CLIP LBM...">
<polygon fill="#999999" stroke="#666666" points="966,-459 788,-459 788,-429 966,-429 966,-459"/>
<text text-anchor="start" x="796" y="-447" font-family="Helvetica,sans-Serif" font-size="10.00">/home/runner/work/CLIP</text>
<text text-anchor="middle" x="877" y="-436" font-family="Helvetica,sans-Serif" font-size="10.00">/CLIP/include/input/InputData.cuh</text>
</a>
</g>
</g>
<!-- Node2 -->
<g id="Node000002" class="node">
<title>Node2</title>
<g id="a_Node000002"><a xlink:href="Boundary_8cuh.html" target="_top" xlink:title="Defines the Boundary class for handling physical and computational boundary conditions in the CLIP LB...">
<polygon fill="white" stroke="#666666" points="732.5,-327 599.5,-327 599.5,-286 732.5,-286 732.5,-327"/>
<text text-anchor="start" x="607.5" y="-315" font-family="Helvetica,sans-Serif" font-size="10.00">/home/runner/work/CLIP</text>
<text text-anchor="start" x="607.5" y="-304" font-family="Helvetica,sans-Serif" font-size="10.00">/CLIP/include/boundary</text>
<text text-anchor="middle" x="666" y="-293" font-family="Helvetica,sans-Serif" font-size="10.00">/Boundary.cuh</text>
</a>
</g>
</g>
<!-- Node1&#45;&gt;Node2 -->
<g id="edge1_Node000001_Node000002" class="edge">
<title>Node1&#45;&gt;Node2</title>
<g id="a_edge1_Node000001_Node000002"><a xlink:title=" ">
<path fill="none" stroke="#63b8ff" d="M836.22,-424.5C817.98,-415.7 796.48,-404.58 778,-393 745.66,-372.73 711.15,-345.42 689.12,-327.17"/>
<polygon fill="#63b8ff" stroke="#63b8ff" points="834.89,-427.75 845.43,-428.88 837.9,-421.43 834.89,-427.75"/>
</a>
</g>
</g>
<!-- Node3 -->
<g id="Node000003" class="node">
<title>Node3</title>
<g id="a_Node000003"><a xlink:href="DataArray_8cuh.html" target="_top" xlink:title="Defines the DataArray class for managing all host/device memory allocation, data transfer,...">
<polygon fill="white" stroke="#666666" points="658.5,-244.5 483.5,-244.5 483.5,-214.5 658.5,-214.5 658.5,-244.5"/>
<text text-anchor="start" x="491.5" y="-232.5" font-family="Helvetica,sans-Serif" font-size="10.00">/home/runner/work/CLIP</text>
<text text-anchor="middle" x="571" y="-221.5" font-family="Helvetica,sans-Serif" font-size="10.00">/CLIP/include/data/DataArray.cuh</text>
</a>
</g>
</g>
<!-- Node1&#45;&gt;Node3 -->
<g id="edge25_Node000001_Node000003" class="edge">
<title>Node1&#45;&gt;Node3</title>
<g id="a_edge25_Node000001_Node000003"><a xlink:title=" ">
<path fill="none" stroke="#63b8ff" d="M777.68,-428.52C714.15,-413.89 635.41,-384.74 590,-327 571,-302.84 569.33,-264.95 570.01,-244.58"/>
<polygon fill="#63b8ff" stroke="#63b8ff" points="777.22,-432.01 787.74,-430.75 778.73,-425.17 777.22,-432.01"/>
</a>
</g>
</g>
<!-- Node4 -->
<g id="Node000004" class="node">
<title>Node4</title>
<g id="a_Node000004"><a xlink:href="NsAllen_8cuh.html" target="_top" xlink:title="Defines the NSAllen class, a Navier–Stokes solver using the Allen–Cahn phase&#45;field approach within th...">
<polygon fill="white" stroke="#666666" points="277.5,-107 144.5,-107 144.5,-66 277.5,-66 277.5,-107"/>
<text text-anchor="start" x="152.5" y="-95" font-family="Helvetica,sans-Serif" font-size="10.00">/home/runner/work/CLIP</text>
<text text-anchor="start" x="152.5" y="-84" font-family="Helvetica,sans-Serif" font-size="10.00">/CLIP/include/equation</text>
<text text-anchor="middle" x="211" y="-73" font-family="Helvetica,sans-Serif" font-size="10.00">/NsAllen.cuh</text>
</a>
</g>
</g>
<!-- Node1&#45;&gt;Node4 -->
<g id="edge39_Node000001_Node000004" class="edge">
<title>Node1&#45;&gt;Node4</title>
<g id="a_edge39_Node000001_Node000004"><a xlink:title=" ">
<path fill="none" stroke="#63b8ff" d="M777.71,-438.77C622.57,-431.59 329.89,-415.55 228,-393 122.33,-369.61 0,-415.72 0,-307.5 0,-307.5 0,-307.5 0,-228.5 0,-158.01 82.42,-120.55 144.24,-102.37"/>
<polygon fill="#63b8ff" stroke="#63b8ff" points="777.58,-442.27 787.73,-439.23 777.9,-435.28 777.58,-442.27"/>
</a>
</g>
</g>
<!-- Node6 -->
<g id="Node000006" class="node">
<title>Node6</title>
<g id="a_Node000006"><a xlink:href="main_8cu.html" target="_top" xlink:title="Main entry point for CLIP: CUDA Lattice Boltzmann Solver for Interfacial Phenomena.">
<polygon fill="white" stroke="#666666" points="1044.5,-30 911.5,-30 911.5,0 1044.5,0 1044.5,-30"/>
<text text-anchor="start" x="919.5" y="-18" font-family="Helvetica,sans-Serif" font-size="10.00">/home/runner/work/CLIP</text>
<text text-anchor="middle" x="978" y="-7" font-family="Helvetica,sans-Serif" font-size="10.00">/CLIP/src/main.cu</text>
</a>
</g>
</g>
<!-- Node1&#45;&gt;Node6 -->
<g id="edge55_Node000001_Node000006" class="edge">
<title>Node1&#45;&gt;Node6</title>
<g id="a_edge55_Node000001_Node000006"><a xlink:title=" ">
<path fill="none" stroke="#63b8ff" d="M976.39,-433.93C1169.36,-414.96 1576,-367.84 1576,-307.5 1576,-307.5 1576,-307.5 1576,-157 1576,-48.8 1200.44,-23.54 1044.57,-17.72"/>
<polygon fill="#63b8ff" stroke="#63b8ff" points="975.85,-430.46 966.24,-434.92 976.53,-437.43 975.85,-430.46"/>
</a>
</g>
</g>
<!-- Node7 -->
<g id="Node000007" class="node">
<title>Node7</title>
<g id="a_Node000007"><a xlink:href="CheckPointer_8cuh.html" target="_top" xlink:title="Defines the CheckPointer class for saving and restoring simulation state in the CLIP LBM framework.">
<polygon fill="white" stroke="#666666" points="984,-173 806,-173 806,-143 984,-143 984,-173"/>
<text text-anchor="start" x="814" y="-161" font-family="Helvetica,sans-Serif" font-size="10.00">/home/runner/work/CLIP</text>
<text text-anchor="middle" x="895" y="-150" font-family="Helvetica,sans-Serif" font-size="10.00">/CLIP/include/io/CheckPointer.cuh</text>
</a>
</g>
</g>
<!-- Node1&#45;&gt;Node7 -->
<g id="edge41_Node000001_Node000007" class="edge">
<title>Node1&#45;&gt;Node7</title>
<g id="a_edge41_Node000001_Node000007"><a xlink:title=" ">
<path fill="none" stroke="#63b8ff" d="M938.66,-424.72C953.4,-417.31 967.35,-407.06 976,-393 1000.55,-353.09 1020.64,-360.63 941,-209 933.76,-195.22 921.76,-182.35 911.83,-173.13"/>
<polygon fill="#63b8ff" stroke="#63b8ff" points="937.04,-421.61 929.42,-428.98 939.97,-427.97 937.04,-421.61"/>
</a>
</g>
</g>
<!-- Node9 -->
<g id="Node000009" class="node">
<title>Node9</title>
<g id="a_Node000009"><a xlink:href="VTSwriter_8cuh.html" target="_top" xlink:title="Defines the VTSwriter class, which writes CLIP simulation output in VTK Structured Grid (....">
<polygon fill="white" stroke="#666666" points="1347.5,-173 1186.5,-173 1186.5,-143 1347.5,-143 1347.5,-173"/>
<text text-anchor="start" x="1194.5" y="-161" font-family="Helvetica,sans-Serif" font-size="10.00">/home/runner/work/CLIP</text>
<text text-anchor="middle" x="1267" y="-150" font-family="Helvetica,sans-Serif" font-size="10.00">/CLIP/include/io/VTSwriter.cuh</text>
</a>
</g>
</g>
<!-- Node1&#45;&gt;Node9 -->
<g id="edge42_Node000001_Node000009" class="edge">
<title>Node1&#45;&gt;Node9</title>
<g id="a_edge42_Node000001_Node000009"><a xlink:title=" ">
<path fill="none" stroke="#63b8ff" d="M976.2,-433.37C1024.12,-426.25 1081.58,-413.99 1130,-393 1229.92,-349.68 1279.3,-346.91 1329,-250 1337.32,-233.79 1336.86,-225.44 1329,-209 1321.66,-193.66 1307.06,-181.51 1293.87,-173.04"/>
<polygon fill="#63b8ff" stroke="#63b8ff" points="975.53,-429.93 966.13,-434.82 976.52,-436.86 975.53,-429.93"/>
</a>
</g>
</g>
<!-- Node11 -->
<g id="Node000011" class="node">
<title>Node11</title>
<g id="a_Node000011"><a xlink:href="Solver_8cuh.html" target="_top" xlink:title="Declares the base Solver class that implements common boundary condition logic and field&#45;level utilit...">
<polygon fill="white" stroke="#666666" points="499.5,-173 334.5,-173 334.5,-143 499.5,-143 499.5,-173"/>
<text text-anchor="start" x="342.5" y="-161" font-family="Helvetica,sans-Serif" font-size="10.00">/home/runner/work/CLIP</text>
<text text-anchor="middle" x="417" y="-150" font-family="Helvetica,sans-Serif" font-size="10.00">/CLIP/include/solver/Solver.cuh</text>
</a>
</g>
</g>
<!-- Node1&#45;&gt;Node11 -->
<g id="edge43_Node000001_Node000011" class="edge">
<title>Node1&#45;&gt;Node11</title>
<g id="a_edge43_Node000001_Node000011"><a xlink:title=" ">
<path fill="none" stroke="#63b8ff" d="M777.63,-439.1C625.63,-430.68 347.13,-404.78 292,-327 251.01,-269.16 344.99,-201.96 392.11,-173.22"/>
<polygon fill="#63b8ff" stroke="#63b8ff" points="777.73,-442.61 787.91,-439.65 778.11,-435.62 777.73,-442.61"/>
</a>
</g>
</g>
<!-- Node13 -->
<g id="Node000013" class="node">
<title>Node13</title>
<g id="a_Node000013"><a xlink:href="Reporter_8cuh_source.html" target="_top" xlink:title=" ">
<polygon fill="white" stroke="#666666" points="1168.5,-173 1001.5,-173 1001.5,-143 1168.5,-143 1168.5,-173"/>
<text text-anchor="start" x="1009.5" y="-161" font-family="Helvetica,sans-Serif" font-size="10.00">/home/runner/work/CLIP</text>
<text text-anchor="middle" x="1085" y="-150" font-family="Helvetica,sans-Serif" font-size="10.00">/CLIP/include/utils/Reporter.cuh</text>
</a>
</g>
</g>
<!-- Node1&#45;&gt;Node13 -->
<g id="edge47_Node000001_Node000013" class="edge">
<title>Node1&#45;&gt;Node13</title>
<g id="a_edge47_Node000001_Node000013"><a xlink:title=" ">
<path fill="none" stroke="#63b8ff" d="M947.53,-425.43C966.19,-417.97 985,-407.52 999,-393 1061.78,-327.87 1079.37,-213.12 1083.72,-173.18"/>
<polygon fill="#63b8ff" stroke="#63b8ff" points="946.25,-422.17 938.11,-428.96 948.7,-428.73 946.25,-422.17"/>
</a>
</g>
</g>
<!-- Node17 -->
<g id="Node000017" class="node">
<title>Node17</title>
<g id="a_Node000017"><a xlink:href="Domain_8cuh.html" target="_top" xlink:title="Defines the Domain class for managing spatial extents, indexing, and boundary checks in the CLIP LBM ...">
<polygon fill="white" stroke="#666666" points="967,-393 787,-393 787,-363 967,-363 967,-393"/>
<text text-anchor="start" x="795" y="-381" font-family="Helvetica,sans-Serif" font-size="10.00">/home/runner/work/CLIP</text>
<text text-anchor="middle" x="877" y="-370" font-family="Helvetica,sans-Serif" font-size="10.00">/CLIP/include/domain/Domain.cuh</text>
</a>
</g>
</g>
<!-- Node1&#45;&gt;Node17 -->
<g id="edge26_Node000001_Node000017" class="edge">
<title>Node1&#45;&gt;Node17</title>
<g id="a_edge26_Node000001_Node000017"><a xlink:title=" ">
<path fill="none" stroke="#63b8ff" d="M877,-418.54C877,-409.96 877,-400.61 877,-393.16"/>
<polygon fill="#63b8ff" stroke="#63b8ff" points="873.5,-418.8 877,-428.8 880.5,-418.8 873.5,-418.8"/>
</a>
</g>
</g>
<!-- Node18 -->
<g id="Node000018" class="node">
<title>Node18</title>
<g id="a_Node000018"><a xlink:href="Geometry_8cuh.html" target="_top" xlink:title="Defines the Geometry class for managing embedded objects and generating signed distance functions (SD...">
<polygon fill="white" stroke="#666666" points="257.5,-250 124.5,-250 124.5,-209 257.5,-209 257.5,-250"/>
<text text-anchor="start" x="132.5" y="-238" font-family="Helvetica,sans-Serif" font-size="10.00">/home/runner/work/CLIP</text>
<text text-anchor="start" x="132.5" y="-227" font-family="Helvetica,sans-Serif" font-size="10.00">/CLIP/include/geometry</text>
<text text-anchor="middle" x="191" y="-216" font-family="Helvetica,sans-Serif" font-size="10.00">/Geometry.cuh</text>
</a>
</g>
</g>
<!-- Node1&#45;&gt;Node18 -->
<g id="edge40_Node000001_Node000018" class="edge">
<title>Node1&#45;&gt;Node18</title>
<g id="a_edge40_Node000001_Node000018"><a xlink:title=" ">
<path fill="none" stroke="#63b8ff" d="M777.86,-440.57C613.85,-435.74 299.94,-422.7 259,-393 211.84,-358.79 197.21,-285.51 192.82,-250.25"/>
<polygon fill="#63b8ff" stroke="#63b8ff" points="777.87,-444.08 787.97,-440.87 778.07,-437.08 777.87,-444.08"/>
</a>
</g>
</g>
<!-- Node21 -->
<g id="Node000021" class="node">
<title>Node21</title>
<g id="a_Node000021"><a xlink:href="WMRT_8cuh.html" target="_top" xlink:title="Implements the Weighted Multiple Relaxation Time (WMRT) conversion and reconstruction operators for t...">
<polygon fill="white" stroke="#666666" points="466.5,-321.5 301.5,-321.5 301.5,-291.5 466.5,-291.5 466.5,-321.5"/>
<text text-anchor="start" x="309.5" y="-309.5" font-family="Helvetica,sans-Serif" font-size="10.00">/home/runner/work/CLIP</text>
<text text-anchor="middle" x="384" y="-298.5" font-family="Helvetica,sans-Serif" font-size="10.00">/CLIP/include/solver/WMRT.cuh</text>
</a>
</g>
</g>
<!-- Node1&#45;&gt;Node21 -->
<g id="edge44_Node000001_Node000021" class="edge">
<title>Node1&#45;&gt;Node21</title>
<g id="a_edge44_Node000001_Node000021"><a xlink:title=" ">
<path fill="none" stroke="#63b8ff" d="M777.63,-435.32C713.53,-428.46 628.99,-415.82 557,-393 500.31,-375.03 439.07,-340.87 406.83,-321.62"/>
<polygon fill="#63b8ff" stroke="#63b8ff" points="777.43,-438.82 787.74,-436.37 778.15,-431.85 777.43,-438.82"/>
</a>
</g>
</g>
<!-- Node22 -->
<g id="Node000022" class="node">
<title>Node22</title>
<g id="a_Node000022"><a xlink:href="TimeInfo_8cuh.html" target="_top" xlink:title="Declares the TimeInfo class, which manages simulation time and step tracking in the CLIP LBM framewor...">
<polygon fill="white" stroke="#666666" points="1320,-244.5 1150,-244.5 1150,-214.5 1320,-214.5 1320,-244.5"/>
<text text-anchor="start" x="1158" y="-232.5" font-family="Helvetica,sans-Serif" font-size="10.00">/home/runner/work/CLIP</text>
<text text-anchor="middle" x="1235" y="-221.5" font-family="Helvetica,sans-Serif" font-size="10.00">/CLIP/include/utils/TimeInfo.cuh</text>
</a>
</g>
</g>
<!-- Node1&#45;&gt;Node22 -->
<g id="edge48_Node000001_Node000022" class="edge">
<title>Node1&#45;&gt;Node22</title>
<g id="a_edge48_Node000001_Node000022"><a xlink:title=" ">
<path fill="none" stroke="#63b8ff" d="M976.18,-434.43C1016.24,-427.55 1061.52,-415.19 1098,-393 1161.05,-354.65 1209.2,-277.04 1227.25,-244.92"/>
<polygon fill="#63b8ff" stroke="#63b8ff" points="975.43,-431.01 966.12,-436.06 976.55,-437.91 975.43,-431.01"/>
</a>
</g>
</g>
<!-- Node24 -->
<g id="Node000024" class="node">
<title>Node24</title>
<g id="a_Node000024"><a xlink:href="InputData_8cu.html" target="_top" xlink:title="Parses and stores simulation configuration parameters from a user&#45;defined config file.">
<polygon fill="white" stroke="#666666" points="1755.5,-393 1604.5,-393 1604.5,-363 1755.5,-363 1755.5,-393"/>
<text text-anchor="start" x="1612.5" y="-381" font-family="Helvetica,sans-Serif" font-size="10.00">/home/runner/work/CLIP</text>
<text text-anchor="middle" x="1680" y="-370" font-family="Helvetica,sans-Serif" font-size="10.00">/CLIP/src/input/InputData.cu</text>
</a>
</g>
</g>
<!-- Node1&#45;&gt;Node24 -->
<g id="edge54_Node000001_Node000024" class="edge">
<title>Node1&#45;&gt;Node24</title>
<g id="a_edge54_Node000001_Node000024"><a xlink:title=" ">
<path fill="none" stroke="#63b8ff" d="M976.28,-438.69C1114.25,-432.09 1371.66,-417.59 1590,-393 1594.71,-392.47 1599.56,-391.87 1604.44,-391.23"/>
<polygon fill="#63b8ff" stroke="#63b8ff" points="975.97,-435.2 966.14,-439.17 976.3,-442.19 975.97,-435.2"/>
</a>
</g>
</g>
<!-- Node2&#45;&gt;Node3 -->
<g id="edge2_Node000002_Node000003" class="edge">
<title>Node2&#45;&gt;Node3</title>
<g id="a_edge2_Node000002_Node000003"><a xlink:title=" ">
<path fill="none" stroke="#63b8ff" d="M633.06,-279.5C618.24,-267.79 601.32,-254.44 588.89,-244.63"/>
<polygon fill="#63b8ff" stroke="#63b8ff" points="631.02,-282.35 641.04,-285.79 635.36,-276.85 631.02,-282.35"/>
</a>
</g>
</g>
<!-- Node2&#45;&gt;Node6 -->
<g id="edge24_Node000002_Node000006" class="edge">
<title>Node2&#45;&gt;Node6</title>
<g id="a_edge24_Node000002_Node000006"><a xlink:title=" ">
<path fill="none" stroke="#63b8ff" d="M742.39,-285.19C792.86,-271.41 850.38,-254.84 854,-250 864.91,-235.4 862.8,-224.96 854,-209 839.54,-182.76 813.02,-198.32 797,-173 771.51,-132.7 759.91,-103.79 789,-66 804.06,-46.43 863.06,-32.96 911.18,-24.97"/>
<polygon fill="#63b8ff" stroke="#63b8ff" points="741.47,-281.81 732.74,-287.82 743.3,-288.57 741.47,-281.81"/>
</a>
</g>
</g>
<!-- Node2&#45;&gt;Node7 -->
<g id="edge21_Node000002_Node000007" class="edge">
<title>Node2&#45;&gt;Node7</title>
<g id="a_edge21_Node000002_Node000007"><a xlink:title=" ">
<path fill="none" stroke="#63b8ff" d="M742.7,-285.83C809.34,-272.33 845.56,-298.38 887,-250 905.37,-228.56 902.06,-192.94 898.34,-173.23"/>
<polygon fill="#63b8ff" stroke="#63b8ff" points="741.62,-282.49 732.65,-288.13 743.17,-289.32 741.62,-282.49"/>
</a>
</g>
</g>
<!-- Node2&#45;&gt;Node11 -->
<g id="edge22_Node000002_Node000011" class="edge">
<title>Node2&#45;&gt;Node11</title>
<g id="a_edge22_Node000002_Node000011"><a xlink:title=" ">
<path fill="none" stroke="#63b8ff" d="M589.39,-296.43C551.69,-288.9 507.31,-275.13 474,-250 447.36,-229.9 430.11,-193.42 422.14,-173.29"/>
<polygon fill="#63b8ff" stroke="#63b8ff" points="588.85,-299.89 599.33,-298.31 590.15,-293.01 588.85,-299.89"/>
</a>
</g>
</g>
<!-- Node16 -->
<g id="Node000016" class="node">
<title>Node16</title>
<g id="a_Node000016"><a xlink:href="Boundary_8cu.html" target="_top" xlink:title="Implements the Boundary class methods responsible for reading, parsing, and managing boundary conditi...">
<polygon fill="white" stroke="#666666" points="845.5,-244.5 676.5,-244.5 676.5,-214.5 845.5,-214.5 845.5,-244.5"/>
<text text-anchor="start" x="684.5" y="-232.5" font-family="Helvetica,sans-Serif" font-size="10.00">/home/runner/work/CLIP</text>
<text text-anchor="middle" x="761" y="-221.5" font-family="Helvetica,sans-Serif" font-size="10.00">/CLIP/src/boundary/Boundary.cu</text>
</a>
</g>
</g>
<!-- Node2&#45;&gt;Node16 -->
<g id="edge23_Node000002_Node000016" class="edge">
<title>Node2&#45;&gt;Node16</title>
<g id="a_edge23_Node000002_Node000016"><a xlink:title=" ">
<path fill="none" stroke="#63b8ff" d="M698.94,-279.5C713.76,-267.79 730.68,-254.44 743.11,-244.63"/>
<polygon fill="#63b8ff" stroke="#63b8ff" points="696.64,-276.85 690.96,-285.79 700.98,-282.35 696.64,-276.85"/>
</a>
</g>
</g>
<!-- Node3&#45;&gt;Node4 -->
<g id="edge3_Node000003_Node000004" class="edge">
<title>Node3&#45;&gt;Node4</title>
<g id="a_edge3_Node000003_Node000004"><a xlink:title=" ">
<path fill="none" stroke="#63b8ff" d="M560.21,-205.38C549.73,-185.59 531.89,-157.99 508,-143 488.73,-130.91 359.16,-109.71 277.65,-97.31"/>
<polygon fill="#63b8ff" stroke="#63b8ff" points="557.12,-207.04 564.76,-214.38 563.37,-203.88 557.12,-207.04"/>
</a>
</g>
</g>
<!-- Node3&#45;&gt;Node6 -->
<g id="edge20_Node000003_Node000006" class="edge">
<title>Node3&#45;&gt;Node6</title>
<g id="a_edge20_Node000003_Node000006"><a xlink:title=" ">
<path fill="none" stroke="#63b8ff" d="M647.71,-211.23C671.01,-202.88 695.15,-190.68 713,-173 749.41,-136.93 716.97,-99.22 756,-66 779.17,-46.28 854.8,-32.2 911.39,-24.1"/>
<polygon fill="#63b8ff" stroke="#63b8ff" points="646.49,-207.95 638.14,-214.47 648.74,-214.58 646.49,-207.95"/>
</a>
</g>
</g>
<!-- Node3&#45;&gt;Node7 -->
<g id="edge6_Node000003_Node000007" class="edge">
<title>Node3&#45;&gt;Node7</title>
<g id="a_edge6_Node000003_Node000007"><a xlink:title=" ">
<path fill="none" stroke="#63b8ff" d="M646.69,-212.26C702.14,-200.37 776.64,-184.39 829.53,-173.04"/>
<polygon fill="#63b8ff" stroke="#63b8ff" points="645.61,-208.92 636.57,-214.44 647.08,-215.76 645.61,-208.92"/>
</a>
</g>
</g>
<!-- Node3&#45;&gt;Node9 -->
<g id="edge9_Node000003_Node000009" class="edge">
<title>Node3&#45;&gt;Node9</title>
<g id="a_edge9_Node000003_Node000009"><a xlink:title=" ">
<path fill="none" stroke="#63b8ff" d="M644.64,-212.67C652.5,-211.29 660.4,-210.03 668,-209 893.18,-178.55 952.22,-198.68 1178,-173 1180.64,-172.7 1183.33,-172.38 1186.03,-172.04"/>
<polygon fill="#63b8ff" stroke="#63b8ff" points="643.93,-209.25 634.72,-214.48 645.19,-216.13 643.93,-209.25"/>
</a>
</g>
</g>
<!-- Node3&#45;&gt;Node11 -->
<g id="edge12_Node000003_Node000011" class="edge">
<title>Node3&#45;&gt;Node11</title>
<g id="a_edge12_Node000003_Node000011"><a xlink:title=" ">
<path fill="none" stroke="#63b8ff" d="M530.68,-210.31C504.88,-198.66 471.9,-183.78 448.12,-173.04"/>
<polygon fill="#63b8ff" stroke="#63b8ff" points="529.28,-213.51 539.84,-214.44 532.16,-207.13 529.28,-213.51"/>
</a>
</g>
</g>
<!-- Node3&#45;&gt;Node13 -->
<g id="edge16_Node000003_Node000013" class="edge">
<title>Node3&#45;&gt;Node13</title>
<g id="a_edge16_Node000003_Node000013"><a xlink:title=" ">
<path fill="none" stroke="#63b8ff" d="M646.48,-212.66C653.74,-211.33 661,-210.09 668,-209 811.6,-186.66 848.91,-191.94 993,-173 995.72,-172.64 998.49,-172.27 1001.28,-171.89"/>
<polygon fill="#63b8ff" stroke="#63b8ff" points="645.79,-209.22 636.6,-214.5 647.08,-216.1 645.79,-209.22"/>
</a>
</g>
</g>
<!-- Node15 -->
<g id="Node000015" class="node">
<title>Node15</title>
<g id="a_Node000015"><a xlink:href="DataArray_8cu.html" target="_top" xlink:title="Implements the DataArray class, responsible for memory management and data synchronization between ho...">
<polygon fill="white" stroke="#666666" points="704,-173 556,-173 556,-143 704,-143 704,-173"/>
<text text-anchor="start" x="564" y="-161" font-family="Helvetica,sans-Serif" font-size="10.00">/home/runner/work/CLIP</text>
<text text-anchor="middle" x="630" y="-150" font-family="Helvetica,sans-Serif" font-size="10.00">/CLIP/src/data/DataArray.cu</text>
</a>
</g>
</g>
<!-- Node3&#45;&gt;Node15 -->
<g id="edge19_Node000003_Node000015" class="edge">
<title>Node3&#45;&gt;Node15</title>
<g id="a_edge19_Node000003_Node000015"><a xlink:title=" ">
<path fill="none" stroke="#63b8ff" d="M589.65,-206.53C598.95,-195.57 609.93,-182.65 618.08,-173.04"/>
<polygon fill="#63b8ff" stroke="#63b8ff" points="586.74,-204.55 582.94,-214.44 592.08,-209.08 586.74,-204.55"/>
</a>
</g>
</g>
<!-- Node5 -->
<g id="Node000005" class="node">
<title>Node5</title>
<g id="a_Node000005"><a xlink:href="NsAllen_8cu.html" target="_top" xlink:title="Implementation of a two&#45;phase Lattice Boltzmann Method (LBM) solver using the Allen–Cahn phase&#45;field ...">
<polygon fill="white" stroke="#666666" points="357,-30 199,-30 199,0 357,0 357,-30"/>
<text text-anchor="start" x="207" y="-18" font-family="Helvetica,sans-Serif" font-size="10.00">/home/runner/work/CLIP</text>
<text text-anchor="middle" x="278" y="-7" font-family="Helvetica,sans-Serif" font-size="10.00">/CLIP/src/equation/NsAllen.cu</text>
</a>
</g>
</g>
<!-- Node4&#45;&gt;Node5 -->
<g id="edge4_Node000004_Node000005" class="edge">
<title>Node4&#45;&gt;Node5</title>
<g id="a_edge4_Node000004_Node000005"><a xlink:title=" ">
<path fill="none" stroke="#63b8ff" d="M236.98,-58.55C246.37,-48.81 256.58,-38.22 264.47,-30.04"/>
<polygon fill="#63b8ff" stroke="#63b8ff" points="234.44,-56.14 230.02,-65.77 239.48,-61 234.44,-56.14"/>
</a>
</g>
</g>
<!-- Node4&#45;&gt;Node6 -->
<g id="edge5_Node000004_Node000006" class="edge">
<title>Node4&#45;&gt;Node6</title>
<g id="a_edge5_Node000004_Node000006"><a xlink:title=" ">
<path fill="none" stroke="#63b8ff" d="M287.54,-66.73C289.04,-66.47 290.53,-66.23 292,-66 517.36,-30.9 788.31,-20.34 911.37,-17.25"/>
<polygon fill="#63b8ff" stroke="#63b8ff" points="286.77,-63.31 277.57,-68.56 288.04,-70.19 286.77,-63.31"/>
</a>
</g>
</g>
<!-- Node7&#45;&gt;Node6 -->
<g id="edge8_Node000007_Node000006" class="edge">
<title>Node7&#45;&gt;Node6</title>
<g id="a_edge8_Node000007_Node000006"><a xlink:title=" ">
<path fill="none" stroke="#63b8ff" d="M929.16,-137.17C940.24,-129.14 951.58,-118.92 959,-107 974.01,-82.88 977.36,-48.92 977.99,-30.04"/>
<polygon fill="#63b8ff" stroke="#63b8ff" points="927.09,-134.35 920.81,-142.88 931.04,-140.13 927.09,-134.35"/>
</a>
</g>
</g>
<!-- Node8 -->
<g id="Node000008" class="node">
<title>Node8</title>
<g id="a_Node000008"><a xlink:href="CheckPointer_8cu.html" target="_top" xlink:title="Handles checkpointing functionality for saving and restoring LBM simulation state.">
<polygon fill="white" stroke="#666666" points="949.5,-101.5 798.5,-101.5 798.5,-71.5 949.5,-71.5 949.5,-101.5"/>
<text text-anchor="start" x="806.5" y="-89.5" font-family="Helvetica,sans-Serif" font-size="10.00">/home/runner/work/CLIP</text>
<text text-anchor="middle" x="874" y="-78.5" font-family="Helvetica,sans-Serif" font-size="10.00">/CLIP/src/io/CheckPointer.cu</text>
</a>
</g>
</g>
<!-- Node7&#45;&gt;Node8 -->
<g id="edge7_Node000007_Node000008" class="edge">
<title>Node7&#45;&gt;Node8</title>
<g id="a_edge7_Node000007_Node000008"><a xlink:title=" ">
<path fill="none" stroke="#63b8ff" d="M887.77,-133.08C884.59,-122.56 880.97,-110.58 878.24,-101.54"/>
<polygon fill="#63b8ff" stroke="#63b8ff" points="884.51,-134.38 890.75,-142.94 891.21,-132.35 884.51,-134.38"/>
</a>
</g>
</g>
<!-- Node9&#45;&gt;Node6 -->
<g id="edge11_Node000009_Node000006" class="edge">
<title>Node9&#45;&gt;Node6</title>
<g id="a_edge11_Node000009_Node000006"><a xlink:title=" ">
<path fill="none" stroke="#63b8ff" d="M1312.69,-138.07C1325.45,-130.41 1337.79,-120.19 1345,-107 1353.74,-91.01 1356.98,-79.73 1345,-66 1306.78,-22.22 1139.58,-15.34 1044.58,-15.07"/>
<polygon fill="#63b8ff" stroke="#63b8ff" points="1310.89,-135.07 1303.84,-142.98 1314.29,-141.19 1310.89,-135.07"/>
</a>
</g>
</g>
<!-- Node10 -->
<g id="Node000010" class="node">
<title>Node10</title>
<g id="a_Node000010"><a xlink:href="VTSwriter_8cu.html" target="_top" xlink:title="Writes scalar and vector fields to .vts (VTK structured grid) files for ParaView visualization.">
<polygon fill="white" stroke="#666666" points="1336,-101.5 1202,-101.5 1202,-71.5 1336,-71.5 1336,-101.5"/>
<text text-anchor="start" x="1210" y="-89.5" font-family="Helvetica,sans-Serif" font-size="10.00">/home/runner/work/CLIP</text>
<text text-anchor="middle" x="1269" y="-78.5" font-family="Helvetica,sans-Serif" font-size="10.00">/CLIP/src/io/VTSwriter.cu</text>
</a>
</g>
</g>
<!-- Node9&#45;&gt;Node10 -->
<g id="edge10_Node000009_Node000010" class="edge">
<title>Node9&#45;&gt;Node10</title>
<g id="a_edge10_Node000009_Node000010"><a xlink:title=" ">
<path fill="none" stroke="#63b8ff" d="M1267.7,-132.75C1268,-122.31 1268.34,-110.49 1268.6,-101.54"/>
<polygon fill="#63b8ff" stroke="#63b8ff" points="1264.19,-132.84 1267.4,-142.94 1271.19,-133.04 1264.19,-132.84"/>
</a>
</g>
</g>
<!-- Node11&#45;&gt;Node4 -->
<g id="edge13_Node000011_Node000004" class="edge">
<title>Node11&#45;&gt;Node4</title>
<g id="a_edge13_Node000011_Node000004"><a xlink:title=" ">
<path fill="none" stroke="#63b8ff" d="M365.67,-139.68C336.32,-129.78 299.41,-117.33 269.02,-107.07"/>
<polygon fill="#63b8ff" stroke="#63b8ff" points="364.72,-143.06 375.31,-142.94 366.96,-136.42 364.72,-143.06"/>
</a>
</g>
</g>
<!-- Node11&#45;&gt;Node5 -->
<g id="edge14_Node000011_Node000005" class="edge">
<title>Node11&#45;&gt;Node5</title>
<g id="a_edge14_Node000011_Node000005"><a xlink:title=" ">
<path fill="none" stroke="#63b8ff" d="M393.48,-135.9C383.88,-127.12 372.76,-116.72 363,-107 336.5,-80.61 307,-48.33 290.65,-30.17"/>
<polygon fill="#63b8ff" stroke="#63b8ff" points="391.37,-138.72 401.12,-142.85 396.08,-133.54 391.37,-138.72"/>
</a>
</g>
</g>
<!-- Node12 -->
<g id="Node000012" class="node">
<title>Node12</title>
<g id="a_Node000012"><a xlink:href="Solver_8cu.html" target="_top" xlink:title="Core LBM solver class with all CUDA boundary condition kernels.">
<polygon fill="white" stroke="#666666" points="510,-101.5 372,-101.5 372,-71.5 510,-71.5 510,-101.5"/>
<text text-anchor="start" x="380" y="-89.5" font-family="Helvetica,sans-Serif" font-size="10.00">/home/runner/work/CLIP</text>
<text text-anchor="middle" x="441" y="-78.5" font-family="Helvetica,sans-Serif" font-size="10.00">/CLIP/src/solver/Solver.cu</text>
</a>
</g>
</g>
<!-- Node11&#45;&gt;Node12 -->
<g id="edge15_Node000011_Node000012" class="edge">
<title>Node11&#45;&gt;Node12</title>
<g id="a_edge15_Node000011_Node000012"><a xlink:title=" ">
<path fill="none" stroke="#63b8ff" d="M425.15,-133.4C428.81,-122.81 433,-110.68 436.15,-101.54"/>
<polygon fill="#63b8ff" stroke="#63b8ff" points="421.81,-132.34 421.86,-142.94 428.43,-134.63 421.81,-132.34"/>
</a>
</g>
</g>
<!-- Node13&#45;&gt;Node6 -->
<g id="edge17_Node000013_Node000006" class="edge">
<title>Node13&#45;&gt;Node6</title>
<g id="a_edge17_Node000013_Node000006"><a xlink:title=" ">
<path fill="none" stroke="#63b8ff" d="M1061.76,-135.9C1052.92,-127.34 1043.04,-117.1 1035,-107 1014.79,-81.63 995.72,-48.7 985.58,-30.22"/>
<polygon fill="#63b8ff" stroke="#63b8ff" points="1059.53,-138.61 1069.2,-142.95 1064.35,-133.53 1059.53,-138.61"/>
</a>
</g>
</g>
<!-- Node14 -->
<g id="Node000014" class="node">
<title>Node14</title>
<g id="a_Node000014"><a xlink:href="Reporter_8cu.html" target="_top" xlink:title="Reporting and diagnostics for CLIP simulations.">
<polygon fill="white" stroke="#666666" points="1184,-101.5 1044,-101.5 1044,-71.5 1184,-71.5 1184,-101.5"/>
<text text-anchor="start" x="1052" y="-89.5" font-family="Helvetica,sans-Serif" font-size="10.00">/home/runner/work/CLIP</text>
<text text-anchor="middle" x="1114" y="-78.5" font-family="Helvetica,sans-Serif" font-size="10.00">/CLIP/src/utils/Reporter.cu</text>
</a>
</g>
</g>
<!-- Node13&#45;&gt;Node14 -->
<g id="edge18_Node000013_Node000014" class="edge">
<title>Node13&#45;&gt;Node14</title>
<g id="a_edge18_Node000013_Node000014"><a xlink:title=" ">
<path fill="none" stroke="#63b8ff" d="M1094.85,-133.4C1099.26,-122.81 1104.33,-110.68 1108.14,-101.54"/>
<polygon fill="#63b8ff" stroke="#63b8ff" points="1091.49,-132.36 1090.87,-142.94 1097.95,-135.05 1091.49,-132.36"/>
</a>
</g>
</g>
<!-- Node17&#45;&gt;Node2 -->
<g id="edge27_Node000017_Node000002" class="edge">
<title>Node17&#45;&gt;Node2</title>
<g id="a_edge27_Node000017_Node000002"><a xlink:title=" ">
<path fill="none" stroke="#63b8ff" d="M824.42,-359.68C794.36,-349.78 756.56,-337.33 725.42,-327.07"/>
<polygon fill="#63b8ff" stroke="#63b8ff" points="823.71,-363.13 834.3,-362.94 825.9,-356.48 823.71,-363.13"/>
</a>
</g>
</g>
<!-- Node17&#45;&gt;Node3 -->
<g id="edge28_Node000017_Node000003" class="edge">
<title>Node17&#45;&gt;Node3</title>
<g id="a_edge28_Node000017_Node000003"><a xlink:title=" ">
<path fill="none" stroke="#63b8ff" d="M897.25,-355.21C913.26,-335.3 930.28,-306 913,-286 877.03,-244.36 722.22,-259.43 668,-250 658.44,-248.34 648.37,-246.46 638.49,-244.54"/>
<polygon fill="#63b8ff" stroke="#63b8ff" points="894.57,-352.96 890.79,-362.85 899.92,-357.48 894.57,-352.96"/>
</a>
</g>
</g>
<!-- Node17&#45;&gt;Node7 -->
<g id="edge34_Node000017_Node000007" class="edge">
<title>Node17&#45;&gt;Node7</title>
<g id="a_edge34_Node000017_Node000007"><a xlink:title=" ">
<path fill="none" stroke="#63b8ff" d="M906.97,-356.44C916.13,-348.42 925.08,-338.41 930,-327 953.25,-273.11 919.99,-202.67 903.42,-173.07"/>
<polygon fill="#63b8ff" stroke="#63b8ff" points="904.52,-353.92 898.96,-362.94 908.93,-359.35 904.52,-353.92"/>
</a>
</g>
</g>
<!-- Node17&#45;&gt;Node9 -->
<g id="edge35_Node000017_Node000009" class="edge">
<title>Node17&#45;&gt;Node9</title>
<g id="a_edge35_Node000017_Node000009"><a xlink:title=" ">
<path fill="none" stroke="#63b8ff" d="M919.11,-358.66C938.13,-349.84 960.63,-338.67 980,-327 1055.99,-281.22 1063.36,-251.93 1141,-209 1167.36,-194.42 1198.86,-181.92 1223.77,-173.07"/>
<polygon fill="#63b8ff" stroke="#63b8ff" points="917.44,-355.57 909.8,-362.91 920.35,-361.94 917.44,-355.57"/>
</a>
</g>
</g>
<!-- Node17&#45;&gt;Node11 -->
<g id="edge36_Node000017_Node000011" class="edge">
<title>Node17&#45;&gt;Node11</title>
<g id="a_edge36_Node000017_Node000011"><a xlink:title=" ">
<path fill="none" stroke="#63b8ff" d="M776.77,-367.17C720.78,-359.8 650.35,-347.38 590,-327 552.52,-314.35 546.34,-303.77 511,-286 478.32,-269.57 459.63,-278.73 437,-250 419.28,-227.51 416.51,-192.62 416.48,-173.22"/>
<polygon fill="#63b8ff" stroke="#63b8ff" points="776.32,-370.65 786.69,-368.45 777.21,-363.7 776.32,-370.65"/>
</a>
</g>
</g>
<!-- Node17&#45;&gt;Node13 -->
<g id="edge37_Node000017_Node000013" class="edge">
<title>Node17&#45;&gt;Node13</title>
<g id="a_edge37_Node000017_Node000013"><a xlink:title=" ">
<path fill="none" stroke="#63b8ff" d="M908.3,-357.25C920.9,-348.65 935.21,-338.02 947,-327 1001.6,-275.97 1054.29,-203.38 1075.37,-173.1"/>
<polygon fill="#63b8ff" stroke="#63b8ff" points="906.27,-354.39 899.9,-362.86 910.16,-360.21 906.27,-354.39"/>
</a>
</g>
</g>
<!-- Node17&#45;&gt;Node18 -->
<g id="edge29_Node000017_Node000018" class="edge">
<title>Node17&#45;&gt;Node18</title>
<g id="a_edge29_Node000017_Node000018"><a xlink:title=" ">
<path fill="none" stroke="#63b8ff" d="M776.42,-369.74C686.83,-362.05 563.26,-348.08 519,-327 494.87,-315.51 498.81,-298.14 475,-286 406.08,-250.85 317.3,-237.91 257.5,-233.17"/>
<polygon fill="#63b8ff" stroke="#63b8ff" points="776.36,-373.25 786.62,-370.6 776.95,-366.27 776.36,-373.25"/>
</a>
</g>
</g>
<!-- Node20 -->
<g id="Node000020" class="node">
<title>Node20</title>
<g id="a_Node000020"><a xlink:href="Domain_8cu.html" target="_top" xlink:title="Implements the Domain class, which sets up spatial grid extents, indexing, and ghost region boundarie...">
<polygon fill="white" stroke="#666666" points="903.5,-321.5 750.5,-321.5 750.5,-291.5 903.5,-291.5 903.5,-321.5"/>
<text text-anchor="start" x="758.5" y="-309.5" font-family="Helvetica,sans-Serif" font-size="10.00">/home/runner/work/CLIP</text>
<text text-anchor="middle" x="827" y="-298.5" font-family="Helvetica,sans-Serif" font-size="10.00">/CLIP/src/domain/Domain.cu</text>
</a>
</g>
</g>
<!-- Node17&#45;&gt;Node20 -->
<g id="edge38_Node000017_Node000020" class="edge">
<title>Node17&#45;&gt;Node20</title>
<g id="a_edge38_Node000017_Node000020"><a xlink:title=" ">
<path fill="none" stroke="#63b8ff" d="M860.96,-354.71C853.13,-343.82 843.94,-331.05 837.1,-321.54"/>
<polygon fill="#63b8ff" stroke="#63b8ff" points="858.2,-356.86 866.88,-362.94 863.88,-352.77 858.2,-356.86"/>
</a>
</g>
</g>
<!-- Node18&#45;&gt;Node4 -->
<g id="edge30_Node000018_Node000004" class="edge">
<title>Node18&#45;&gt;Node4</title>
<g id="a_edge30_Node000018_Node000004"><a xlink:title=" ">
<path fill="none" stroke="#63b8ff" d="M131.96,-204.09C103.99,-188.74 79.7,-167.28 95,-143 106.31,-125.06 125.2,-112.79 144.48,-104.45"/>
<polygon fill="#63b8ff" stroke="#63b8ff" points="130.64,-207.34 141.12,-208.85 133.86,-201.13 130.64,-207.34"/>
</a>
</g>
</g>
<!-- Node18&#45;&gt;Node6 -->
<g id="edge33_Node000018_Node000006" class="edge">
<title>Node18&#45;&gt;Node6</title>
<g id="a_edge33_Node000018_Node000006"><a xlink:title=" ">
<path fill="none" stroke="#63b8ff" d="M241.61,-204.13C256.8,-195.49 272.89,-184.92 286,-173 329.35,-133.59 311.98,-94.81 363,-66 409.84,-39.55 761.83,-23.82 911.25,-18.28"/>
<polygon fill="#63b8ff" stroke="#63b8ff" points="239.88,-201.09 232.81,-208.98 243.26,-207.22 239.88,-201.09"/>
</a>
</g>
</g>
<!-- Node18&#45;&gt;Node11 -->
<g id="edge31_Node000018_Node000011" class="edge">
<title>Node18&#45;&gt;Node11</title>
<g id="a_edge31_Node000018_Node000011"><a xlink:title=" ">
<path fill="none" stroke="#63b8ff" d="M264.33,-205.95C299.6,-195.1 340.77,-182.44 371.46,-173"/>
<polygon fill="#63b8ff" stroke="#63b8ff" points="263.08,-202.67 254.56,-208.96 265.14,-209.36 263.08,-202.67"/>
</a>
</g>
</g>
<!-- Node19 -->
<g id="Node000019" class="node">
<title>Node19</title>
<g id="a_Node000019"><a xlink:href="Geometry_8cu.html" target="_top" xlink:title="Reads, parses, and manages user&#45;defined geometries for use in LBM simulations.">
<polygon fill="white" stroke="#666666" points="277.5,-173 104.5,-173 104.5,-143 277.5,-143 277.5,-173"/>
<text text-anchor="start" x="112.5" y="-161" font-family="Helvetica,sans-Serif" font-size="10.00">/home/runner/work/CLIP</text>
<text text-anchor="middle" x="191" y="-150" font-family="Helvetica,sans-Serif" font-size="10.00">/CLIP/src/geometry/Geometry.cu</text>
</a>
</g>
</g>
<!-- Node18&#45;&gt;Node19 -->
<g id="edge32_Node000018_Node000019" class="edge">
<title>Node18&#45;&gt;Node19</title>
<g id="a_edge32_Node000018_Node000019"><a xlink:title=" ">
<path fill="none" stroke="#63b8ff" d="M191,-198.66C191,-189.76 191,-180.42 191,-173.04"/>
<polygon fill="#63b8ff" stroke="#63b8ff" points="187.5,-198.77 191,-208.77 194.5,-198.77 187.5,-198.77"/>
</a>
</g>
</g>
<!-- Node21&#45;&gt;Node3 -->
<g id="edge45_Node000021_Node000003" class="edge">
<title>Node21&#45;&gt;Node3</title>
<g id="a_edge45_Node000021_Node000003"><a xlink:title=" ">
<path fill="none" stroke="#63b8ff" d="M428.56,-287.63C461.46,-274.43 505.6,-256.73 535.98,-244.54"/>
<polygon fill="#63b8ff" stroke="#63b8ff" points="427.15,-284.42 419.17,-291.39 429.76,-290.92 427.15,-284.42"/>
</a>
</g>
</g>
<!-- Node21&#45;&gt;Node4 -->
<g id="edge46_Node000021_Node000004" class="edge">
<title>Node21&#45;&gt;Node4</title>
<g id="a_edge46_Node000021_Node000004"><a xlink:title=" ">
<path fill="none" stroke="#63b8ff" d="M291.29,-296.05C224.31,-287.47 141.21,-272.65 115,-250 77.81,-217.86 60.27,-184.25 87,-143 100.02,-122.91 122.21,-110.03 144.25,-101.79"/>
<polygon fill="#63b8ff" stroke="#63b8ff" points="291.11,-299.55 301.47,-297.32 291.98,-292.61 291.11,-299.55"/>
</a>
</g>
</g>
<!-- Node22&#45;&gt;Node6 -->
<g id="edge52_Node000022_Node000006" class="edge">
<title>Node22&#45;&gt;Node6</title>
<g id="a_edge52_Node000022_Node000006"><a xlink:title=" ">
<path fill="none" stroke="#63b8ff" d="M1306.54,-210.71C1325.91,-202.41 1344.86,-190.38 1357,-173 1384.26,-133.97 1393.42,-101.77 1362,-66 1341.43,-42.57 1149.05,-26.84 1044.65,-19.96"/>
<polygon fill="#63b8ff" stroke="#63b8ff" points="1305.03,-207.55 1297.02,-214.49 1307.61,-214.05 1305.03,-207.55"/>
</a>
</g>
</g>
<!-- Node22&#45;&gt;Node7 -->
<g id="edge49_Node000022_Node000007" class="edge">
<title>Node22&#45;&gt;Node7</title>
<g id="a_edge49_Node000022_Node000007"><a xlink:title=" ">
<path fill="none" stroke="#63b8ff" d="M1156.3,-212.41C1098.04,-200.5 1019.44,-184.44 963.7,-173.04"/>
<polygon fill="#63b8ff" stroke="#63b8ff" points="1155.7,-215.86 1166.2,-214.44 1157.1,-209 1155.7,-215.86"/>
</a>
</g>
</g>
<!-- Node22&#45;&gt;Node9 -->
<g id="edge50_Node000022_Node000009" class="edge">
<title>Node22&#45;&gt;Node9</title>
<g id="a_edge50_Node000022_Node000009"><a xlink:title=" ">
<path fill="none" stroke="#63b8ff" d="M1245.71,-205.23C1250.63,-194.56 1256.29,-182.27 1260.53,-173.04"/>
<polygon fill="#63b8ff" stroke="#63b8ff" points="1242.48,-203.89 1241.48,-214.44 1248.84,-206.82 1242.48,-203.89"/>
</a>
</g>
</g>
<!-- Node22&#45;&gt;Node13 -->
<g id="edge51_Node000022_Node000013" class="edge">
<title>Node22&#45;&gt;Node13</title>
<g id="a_edge51_Node000022_Node000013"><a xlink:title=" ">
<path fill="none" stroke="#63b8ff" d="M1195.4,-210.15C1170.32,-198.53 1138.37,-183.73 1115.31,-173.04"/>
<polygon fill="#63b8ff" stroke="#63b8ff" points="1194.1,-213.41 1204.65,-214.44 1197.04,-207.06 1194.1,-213.41"/>
</a>
</g>
</g>
<!-- Node23 -->
<g id="Node000023" class="node">
<title>Node23</title>
<g id="a_Node000023"><a xlink:href="TimeInfo_8cu.html" target="_top" xlink:title="Handles simulation time tracking in CLIP.">
<polygon fill="white" stroke="#666666" points="1547.5,-173 1404.5,-173 1404.5,-143 1547.5,-143 1547.5,-173"/>
<text text-anchor="start" x="1412.5" y="-161" font-family="Helvetica,sans-Serif" font-size="10.00">/home/runner/work/CLIP</text>
<text text-anchor="middle" x="1476" y="-150" font-family="Helvetica,sans-Serif" font-size="10.00">/CLIP/src/utils/TimeInfo.cu</text>
</a>
</g>
</g>
<!-- Node22&#45;&gt;Node23 -->
<g id="edge53_Node000022_Node000023" class="edge">
<title>Node22&#45;&gt;Node23</title>
<g id="a_edge53_Node000022_Node000023"><a xlink:title=" ">
<path fill="none" stroke="#63b8ff" d="M1293.62,-211.59C1334.61,-199.78 1388.69,-184.18 1427.3,-173.04"/>
<polygon fill="#63b8ff" stroke="#63b8ff" points="1292.41,-208.3 1283.77,-214.44 1294.35,-215.03 1292.41,-208.3"/>
</a>
</g>
</g>
</g>
</svg>

<g id="navigator" transform="translate(0 0)" fill="#404254">
  <rect fill="#f2f5e9" fill-opacity="0.5" stroke="#606060" stroke-width=".5" x="0" y="0" width="60" height="60"/>
  <use id="zoomplus" xlink:href="#zoomPlus" x="17" y="9" onmousedown="handleZoom(evt,'in')"/>
  <use id="zoomminus" xlink:href="#zoomMin" x="42" y="9" onmousedown="handleZoom(evt,'out')"/>
  <use id="reset" xlink:href="#resetDef" x="30" y="36" onmousedown="handleReset()"/>
   <use id="arrowup" xlink:href="#arrowUp" x="0" y="0" onmousedown="handlePan(0,-1)"/>
  <use id="arrowright" xlink:href="#arrowRight" x="0" y="0" onmousedown="handlePan(1,0)"/>
  <use id="arrowdown" xlink:href="#arrowDown" x="0" y="0" onmousedown="handlePan(0,1)"/>
  <use id="arrowleft" xlink:href="#arrowLeft" x="0" y="0" onmousedown="handlePan(-1,0)"/>
</g>
<svg viewBox="0 0 15 15" width="100%" height="30px" preserveAspectRatio="xMaxYMin meet">
 <g id="arrow_out" transform="scale(0.3 0.3)">
  <a xlink:href="InputData_8cuh__dep__incl_org.svg" target="_base">
   <rect id="button" ry="5" rx="5" y="6" x="6" height="38" width="38"
        fill="#f2f5e9" fill-opacity="0.5" stroke="#606060" stroke-width="1.0"/>
   <path id="arrow"
     d="M 11.500037,31.436501 C 11.940474,20.09759 22.043105,11.32322 32.158766,21.979434 L 37.068811,17.246167 C 37.068811,17.246167 37.088388,32 37.088388,32 L 22.160133,31.978069 C 22.160133,31.978069 26.997745,27.140456 26.997745,27.140456 C 18.528582,18.264221 13.291696,25.230495 11.500037,31.436501 z"
     style="fill:#404040;"/>
  </a>
 </g>
</svg>

<style type='text/css'>
<![CDATA[
[data-mouse-over-selected='false'] { opacity: 0.7; }
[data-mouse-over-selected='true']  { opacity: 1.0; }
]]>
</style>
<script type="application/ecmascript"><![CDATA[
document.addEventListener('DOMContentLoaded', (event) => {
  highlightEdges();
  highlightAdjacentNodes();
});
]]></script>
</svg>
