<?xml version="1.0" encoding="UTF-8" standalone="no"?>
<!DOCTYPE svg PUBLIC "-//W3C//DTD SVG 1.1//EN"
 "http://www.w3.org/Graphics/SVG/1.1/DTD/svg11.dtd">
<!-- Generated by graphviz version 2.43.0 (0)
 -->
<!-- Title: /home/runner/work/CLIP/CLIP/include/utils/Logger.cuh Pages: 1 -->
<svg width="1747pt" height="588pt"
 viewBox="0.00 0.00 1747.00 588.00" xmlns="http://www.w3.org/2000/svg" xmlns:xlink="http://www.w3.org/1999/xlink">
<g id="graph0" class="graph" transform="scale(1 1) rotate(0) translate(4 584)">
<title>/home/runner/work/CLIP/CLIP/include/utils/Logger.cuh</title>
<!-- Node1 -->
<g id="Node000001" class="node">
<title>Node1</title>
<g id="a_Node000001"><a xlink:title="Defines the Logger class for standardized colored console output and error handling in the CLIP frame...">
<polygon fill="#999999" stroke="#666666" points="1008,-580 850,-580 850,-550 1008,-550 1008,-580"/>
<text text-anchor="start" x="858" y="-568" font-family="Helvetica,sans-Serif" font-size="10.00">/home/runner/work/CLIP</text>
<text text-anchor="middle" x="929" y="-557" font-family="Helvetica,sans-Serif" font-size="10.00">/CLIP/include/utils/Logger.cuh</text>
</a>
</g>
</g>
<!-- Node2 -->
<g id="Node000002" class="node">
<title>Node2</title>
<g id="a_Node000002"><a xlink:href="includes_8h.html" target="_top" xlink:title="Common include header that provides core system libraries, CUDA headers, and project&#45;level dependenci...">
<polygon fill="white" stroke="#666666" points="1006.5,-514 851.5,-514 851.5,-484 1006.5,-484 1006.5,-514"/>
<text text-anchor="start" x="859.5" y="-502" font-family="Helvetica,sans-Serif" font-size="10.00">/home/runner/work/CLIP</text>
<text text-anchor="middle" x="929" y="-491" font-family="Helvetica,sans-Serif" font-size="10.00">/CLIP/include/utils/includes.h</text>
</a>
</g>
</g>
<!-- Node1&#45;&gt;Node2 -->
<g id="edge1_Node000001_Node000002" class="edge">
<title>Node1&#45;&gt;Node2</title>
<g id="a_edge1_Node000001_Node000002"><a xlink:title=" ">
<path fill="none" stroke="#63b8ff" d="M929,-539.54C929,-530.96 929,-521.61 929,-514.16"/>
<polygon fill="#63b8ff" stroke="#63b8ff" points="925.5,-539.8 929,-549.8 932.5,-539.8 925.5,-539.8"/>
</a>
</g>
</g>
<!-- Node3 -->
<g id="Node000003" class="node">
<title>Node3</title>
<g id="a_Node000003"><a xlink:href="Boundary_8cuh.html" target="_top" xlink:title="Defines the Boundary class for handling physical and computational boundary conditions in the CLIP LB...">
<polygon fill="white" stroke="#666666" points="910.5,-316 777.5,-316 777.5,-275 910.5,-275 910.5,-316"/>
<text text-anchor="start" x="785.5" y="-304" font-family="Helvetica,sans-Serif" font-size="10.00">/home/runner/work/CLIP</text>
<text text-anchor="start" x="785.5" y="-293" font-family="Helvetica,sans-Serif" font-size="10.00">/CLIP/include/boundary</text>
<text text-anchor="middle" x="844" y="-282" font-family="Helvetica,sans-Serif" font-size="10.00">/Boundary.cuh</text>
</a>
</g>
</g>
<!-- Node2&#45;&gt;Node3 -->
<g id="edge2_Node000002_Node000003" class="edge">
<title>Node2&#45;&gt;Node3</title>
<g id="a_edge2_Node000002_Node000003"><a xlink:title=" ">
<path fill="none" stroke="#63b8ff" d="M956.28,-477.47C991.46,-448.47 1044.69,-394.31 1014,-352 1007.51,-343.05 955.57,-326.86 910.79,-314.28"/>
<polygon fill="#63b8ff" stroke="#63b8ff" points="953.82,-474.95 948.21,-483.94 958.2,-480.41 953.82,-474.95"/>
</a>
</g>
</g>
<!-- Node4 -->
<g id="Node000004" class="node">
<title>Node4</title>
<g id="a_Node000004"><a xlink:href="DataArray_8cuh.html" target="_top" xlink:title="Defines the DataArray class for managing all host/device memory allocation, data transfer,...">
<polygon fill="white" stroke="#666666" points="961.5,-239 786.5,-239 786.5,-209 961.5,-209 961.5,-239"/>
<text text-anchor="start" x="794.5" y="-227" font-family="Helvetica,sans-Serif" font-size="10.00">/home/runner/work/CLIP</text>
<text text-anchor="middle" x="874" y="-216" font-family="Helvetica,sans-Serif" font-size="10.00">/CLIP/include/data/DataArray.cuh</text>
</a>
</g>
</g>
<!-- Node2&#45;&gt;Node4 -->
<g id="edge26_Node000002_Node000004" class="edge">
<title>Node2&#45;&gt;Node4</title>
<g id="a_edge26_Node000002_Node000004"><a xlink:title=" ">
<path fill="none" stroke="#63b8ff" d="M841.29,-489.31C787.12,-481.93 724.85,-469.08 708,-448 673.64,-405 647.38,-390.92 754,-275 769.66,-257.97 792.02,-246.57 813.2,-239.01"/>
<polygon fill="#63b8ff" stroke="#63b8ff" points="840.92,-492.79 851.29,-490.63 841.84,-485.85 840.92,-492.79"/>
</a>
</g>
</g>
<!-- Node5 -->
<g id="Node000005" class="node">
<title>Node5</title>
<g id="a_Node000005"><a xlink:href="NsAllen_8cuh.html" target="_top" xlink:title="Defines the NSAllen class, a Navier–Stokes solver using the Allen–Cahn phase&#45;field approach within th...">
<polygon fill="white" stroke="#666666" points="235.5,-107 102.5,-107 102.5,-66 235.5,-66 235.5,-107"/>
<text text-anchor="start" x="110.5" y="-95" font-family="Helvetica,sans-Serif" font-size="10.00">/home/runner/work/CLIP</text>
<text text-anchor="start" x="110.5" y="-84" font-family="Helvetica,sans-Serif" font-size="10.00">/CLIP/include/equation</text>
<text text-anchor="middle" x="169" y="-73" font-family="Helvetica,sans-Serif" font-size="10.00">/NsAllen.cuh</text>
</a>
</g>
</g>
<!-- Node2&#45;&gt;Node5 -->
<g id="edge40_Node000002_Node000005" class="edge">
<title>Node2&#45;&gt;Node5</title>
<g id="a_edge40_Node000002_Node000005"><a xlink:title=" ">
<path fill="none" stroke="#63b8ff" d="M841.17,-497.85C662,-496.66 260.29,-489.31 130,-448 65.33,-427.49 0,-435.84 0,-368 0,-368 0,-368 0,-223 0,-164.9 61.56,-127.57 110.37,-107.11"/>
<polygon fill="#63b8ff" stroke="#63b8ff" points="841.33,-501.35 851.35,-497.91 841.37,-494.35 841.33,-501.35"/>
</a>
</g>
</g>
<!-- Node7 -->
<g id="Node000007" class="node">
<title>Node7</title>
<g id="a_Node000007"><a xlink:href="main_8cu.html" target="_top" xlink:title="Main entry point for CLIP: CUDA Lattice Boltzmann Solver for Interfacial Phenomena.">
<polygon fill="white" stroke="#666666" points="1089.5,-30 956.5,-30 956.5,0 1089.5,0 1089.5,-30"/>
<text text-anchor="start" x="964.5" y="-18" font-family="Helvetica,sans-Serif" font-size="10.00">/home/runner/work/CLIP</text>
<text text-anchor="middle" x="1023" y="-7" font-family="Helvetica,sans-Serif" font-size="10.00">/CLIP/src/main.cu</text>
</a>
</g>
</g>
<!-- Node2&#45;&gt;Node7 -->
<g id="edge70_Node000002_Node000007" class="edge">
<title>Node2&#45;&gt;Node7</title>
<g id="a_edge70_Node000002_Node000007"><a xlink:title=" ">
<path fill="none" stroke="#63b8ff" d="M1017.17,-494.65C1165.4,-488.4 1458.11,-473.27 1558,-448 1643.27,-426.43 1739,-455.95 1739,-368 1739,-368 1739,-368 1739,-157 1739,-94.57 1689.66,-89.93 1632,-66 1535.49,-25.95 1226.88,-17.93 1089.75,-16.36"/>
<polygon fill="#63b8ff" stroke="#63b8ff" points="1016.6,-491.17 1006.75,-495.08 1016.89,-498.16 1016.6,-491.17"/>
</a>
</g>
</g>
<!-- Node8 -->
<g id="Node000008" class="node">
<title>Node8</title>
<g id="a_Node000008"><a xlink:href="CheckPointer_8cuh.html" target="_top" xlink:title="Defines the CheckPointer class for saving and restoring simulation state in the CLIP LBM framework.">
<polygon fill="white" stroke="#666666" points="1147,-173 969,-173 969,-143 1147,-143 1147,-173"/>
<text text-anchor="start" x="977" y="-161" font-family="Helvetica,sans-Serif" font-size="10.00">/home/runner/work/CLIP</text>
<text text-anchor="middle" x="1058" y="-150" font-family="Helvetica,sans-Serif" font-size="10.00">/CLIP/include/io/CheckPointer.cuh</text>
</a>
</g>
</g>
<!-- Node2&#45;&gt;Node8 -->
<g id="edge63_Node000002_Node000008" class="edge">
<title>Node2&#45;&gt;Node8</title>
<g id="a_edge63_Node000002_Node000008"><a xlink:title=" ">
<path fill="none" stroke="#63b8ff" d="M1016.64,-493.33C1092.71,-484.05 1198.5,-457.4 1250,-382 1308.21,-296.78 1155.01,-207.2 1087.79,-173.21"/>
<polygon fill="#63b8ff" stroke="#63b8ff" points="1016.12,-489.87 1006.58,-494.48 1016.91,-496.82 1016.12,-489.87"/>
</a>
</g>
</g>
<!-- Node10 -->
<g id="Node000010" class="node">
<title>Node10</title>
<g id="a_Node000010"><a xlink:href="VTSwriter_8cuh.html" target="_top" xlink:title="Defines the VTSwriter class, which writes CLIP simulation output in VTK Structured Grid (....">
<polygon fill="white" stroke="#666666" points="1326.5,-173 1165.5,-173 1165.5,-143 1326.5,-143 1326.5,-173"/>
<text text-anchor="start" x="1173.5" y="-161" font-family="Helvetica,sans-Serif" font-size="10.00">/home/runner/work/CLIP</text>
<text text-anchor="middle" x="1246" y="-150" font-family="Helvetica,sans-Serif" font-size="10.00">/CLIP/include/io/VTSwriter.cuh</text>
</a>
</g>
</g>
<!-- Node2&#45;&gt;Node10 -->
<g id="edge64_Node000002_Node000010" class="edge">
<title>Node2&#45;&gt;Node10</title>
<g id="a_edge64_Node000002_Node000010"><a xlink:title=" ">
<path fill="none" stroke="#63b8ff" d="M1016.76,-496.96C1182.93,-492.62 1527,-471.15 1527,-368 1527,-368 1527,-368 1527,-294.5 1527,-255.57 1535.94,-236.11 1508,-209 1494.91,-196.3 1398.76,-180.3 1326.7,-169.87"/>
<polygon fill="#63b8ff" stroke="#63b8ff" points="1016.48,-493.47 1006.56,-497.22 1016.65,-500.47 1016.48,-493.47"/>
</a>
</g>
</g>
<!-- Node12 -->
<g id="Node000012" class="node">
<title>Node12</title>
<g id="a_Node000012"><a xlink:href="Solver_8cuh.html" target="_top" xlink:title="Declares the base Solver class that implements common boundary condition logic and field&#45;level utilit...">
<polygon fill="white" stroke="#666666" points="383.5,-173 218.5,-173 218.5,-143 383.5,-143 383.5,-173"/>
<text text-anchor="start" x="226.5" y="-161" font-family="Helvetica,sans-Serif" font-size="10.00">/home/runner/work/CLIP</text>
<text text-anchor="middle" x="301" y="-150" font-family="Helvetica,sans-Serif" font-size="10.00">/CLIP/include/solver/Solver.cuh</text>
</a>
</g>
</g>
<!-- Node2&#45;&gt;Node12 -->
<g id="edge65_Node000002_Node000012" class="edge">
<title>Node2&#45;&gt;Node12</title>
<g id="a_edge65_Node000002_Node000012"><a xlink:title=" ">
<path fill="none" stroke="#63b8ff" d="M840.96,-497.56C724.73,-495.38 514.31,-485.93 339,-448 235.27,-425.56 114,-474.13 114,-368 114,-368 114,-368 114,-294.5 114,-228.25 191.92,-191.07 247.16,-173.03"/>
<polygon fill="#63b8ff" stroke="#63b8ff" points="841.16,-501.06 851.22,-497.73 841.28,-494.06 841.16,-501.06"/>
</a>
</g>
</g>
<!-- Node14 -->
<g id="Node000014" class="node">
<title>Node14</title>
<g id="a_Node000014"><a xlink:href="Reporter_8cuh_source.html" target="_top" xlink:title=" ">
<polygon fill="white" stroke="#666666" points="1711.5,-173 1544.5,-173 1544.5,-143 1711.5,-143 1711.5,-173"/>
<text text-anchor="start" x="1552.5" y="-161" font-family="Helvetica,sans-Serif" font-size="10.00">/home/runner/work/CLIP</text>
<text text-anchor="middle" x="1628" y="-150" font-family="Helvetica,sans-Serif" font-size="10.00">/CLIP/include/utils/Reporter.cuh</text>
</a>
</g>
</g>
<!-- Node2&#45;&gt;Node14 -->
<g id="edge67_Node000002_Node000014" class="edge">
<title>Node2&#45;&gt;Node14</title>
<g id="a_edge67_Node000002_Node000014"><a xlink:title=" ">
<path fill="none" stroke="#63b8ff" d="M1016.65,-493.57C1147.37,-486.35 1386.93,-470.53 1470,-448 1550.98,-426.03 1641,-451.91 1641,-368 1641,-368 1641,-368 1641,-294.5 1641,-250.07 1633.99,-197.82 1630.26,-173.2"/>
<polygon fill="#63b8ff" stroke="#63b8ff" points="1016.45,-490.08 1006.66,-494.12 1016.83,-497.07 1016.45,-490.08"/>
</a>
</g>
</g>
<!-- Node17 -->
<g id="Node000017" class="node">
<title>Node17</title>
<g id="a_Node000017"><a xlink:href="Boundary_8cu.html" target="_top" xlink:title="Implements the Boundary class methods responsible for reading, parsing, and managing boundary conditi...">
<polygon fill="white" stroke="#666666" points="730.5,-239 561.5,-239 561.5,-209 730.5,-209 730.5,-239"/>
<text text-anchor="start" x="569.5" y="-227" font-family="Helvetica,sans-Serif" font-size="10.00">/home/runner/work/CLIP</text>
<text text-anchor="middle" x="646" y="-216" font-family="Helvetica,sans-Serif" font-size="10.00">/CLIP/src/boundary/Boundary.cu</text>
</a>
</g>
</g>
<!-- Node2&#45;&gt;Node17 -->
<g id="edge69_Node000002_Node000017" class="edge">
<title>Node2&#45;&gt;Node17</title>
<g id="a_edge69_Node000002_Node000017"><a xlink:title=" ">
<path fill="none" stroke="#63b8ff" d="M841.31,-493.14C702.59,-483.29 443.17,-455.29 394,-382 386.57,-370.93 387.01,-363.35 394,-352 433.37,-288.07 515.91,-255.17 575.83,-239.06"/>
<polygon fill="#63b8ff" stroke="#63b8ff" points="841.27,-496.65 851.49,-493.85 841.76,-489.67 841.27,-496.65"/>
</a>
</g>
</g>
<!-- Node18 -->
<g id="Node000018" class="node">
<title>Node18</title>
<g id="a_Node000018"><a xlink:href="Domain_8cuh.html" target="_top" xlink:title="Defines the Domain class for managing spatial extents, indexing, and boundary checks in the CLIP LBM ...">
<polygon fill="white" stroke="#666666" points="1241,-382 1061,-382 1061,-352 1241,-352 1241,-382"/>
<text text-anchor="start" x="1069" y="-370" font-family="Helvetica,sans-Serif" font-size="10.00">/home/runner/work/CLIP</text>
<text text-anchor="middle" x="1151" y="-359" font-family="Helvetica,sans-Serif" font-size="10.00">/CLIP/include/domain/Domain.cuh</text>
</a>
</g>
</g>
<!-- Node2&#45;&gt;Node18 -->
<g id="edge27_Node000002_Node000018" class="edge">
<title>Node2&#45;&gt;Node18</title>
<g id="a_edge27_Node000002_Node000018"><a xlink:title=" ">
<path fill="none" stroke="#63b8ff" d="M978.36,-480.34C1000.03,-471.77 1025.41,-460.6 1047,-448 1080.64,-428.37 1115.74,-399.27 1135.34,-382.11"/>
<polygon fill="#63b8ff" stroke="#63b8ff" points="977.06,-477.09 969.01,-483.97 979.59,-483.62 977.06,-477.09"/>
</a>
</g>
</g>
<!-- Node19 -->
<g id="Node000019" class="node">
<title>Node19</title>
<g id="a_Node000019"><a xlink:href="Geometry_8cuh.html" target="_top" xlink:title="Defines the Geometry class for managing embedded objects and generating signed distance functions (SD...">
<polygon fill="white" stroke="#666666" points="409.5,-316 276.5,-316 276.5,-275 409.5,-275 409.5,-316"/>
<text text-anchor="start" x="284.5" y="-304" font-family="Helvetica,sans-Serif" font-size="10.00">/home/runner/work/CLIP</text>
<text text-anchor="start" x="284.5" y="-293" font-family="Helvetica,sans-Serif" font-size="10.00">/CLIP/include/geometry</text>
<text text-anchor="middle" x="343" y="-282" font-family="Helvetica,sans-Serif" font-size="10.00">/Geometry.cuh</text>
</a>
</g>
</g>
<!-- Node2&#45;&gt;Node19 -->
<g id="edge41_Node000002_Node000019" class="edge">
<title>Node2&#45;&gt;Node19</title>
<g id="a_edge41_Node000002_Node000019"><a xlink:title=" ">
<path fill="none" stroke="#63b8ff" d="M841.08,-496.25C690.17,-492.38 394.69,-480.68 361,-448 325.45,-413.51 332.23,-348.57 338.47,-316.07"/>
<polygon fill="#63b8ff" stroke="#63b8ff" points="841.17,-499.75 851.25,-496.5 841.34,-492.76 841.17,-499.75"/>
</a>
</g>
</g>
<!-- Node22 -->
<g id="Node000022" class="node">
<title>Node22</title>
<g id="a_Node000022"><a xlink:href="InputData_8cuh.html" target="_top" xlink:title="Defines the InputData class responsible for reading and storing simulation parameters in the CLIP LBM...">
<polygon fill="white" stroke="#666666" points="895,-448 717,-448 717,-418 895,-418 895,-448"/>
<text text-anchor="start" x="725" y="-436" font-family="Helvetica,sans-Serif" font-size="10.00">/home/runner/work/CLIP</text>
<text text-anchor="middle" x="806" y="-425" font-family="Helvetica,sans-Serif" font-size="10.00">/CLIP/include/input/InputData.cuh</text>
</a>
</g>
</g>
<!-- Node2&#45;&gt;Node22 -->
<g id="edge42_Node000002_Node000022" class="edge">
<title>Node2&#45;&gt;Node22</title>
<g id="a_edge42_Node000002_Node000022"><a xlink:title=" ">
<path fill="none" stroke="#63b8ff" d="M892.95,-479.24C873.75,-469.25 850.54,-457.18 832.93,-448.01"/>
<polygon fill="#63b8ff" stroke="#63b8ff" points="891.52,-482.44 902.01,-483.95 894.75,-476.23 891.52,-482.44"/>
</a>
</g>
</g>
<!-- Node23 -->
<g id="Node000023" class="node">
<title>Node23</title>
<g id="a_Node000023"><a xlink:href="WMRT_8cuh.html" target="_top" xlink:title="Implements the Weighted Multiple Relaxation Time (WMRT) conversion and reconstruction operators for t...">
<polygon fill="white" stroke="#666666" points="568.5,-382 403.5,-382 403.5,-352 568.5,-352 568.5,-382"/>
<text text-anchor="start" x="411.5" y="-370" font-family="Helvetica,sans-Serif" font-size="10.00">/home/runner/work/CLIP</text>
<text text-anchor="middle" x="486" y="-359" font-family="Helvetica,sans-Serif" font-size="10.00">/CLIP/include/solver/WMRT.cuh</text>
</a>
</g>
</g>
<!-- Node2&#45;&gt;Node23 -->
<g id="edge66_Node000002_Node000023" class="edge">
<title>Node2&#45;&gt;Node23</title>
<g id="a_edge66_Node000002_Node000023"><a xlink:title=" ">
<path fill="none" stroke="#63b8ff" d="M841.09,-492.49C778.25,-486.47 692.52,-473.94 621,-448 576.18,-431.74 529.55,-400.33 504.53,-382.08"/>
<polygon fill="#63b8ff" stroke="#63b8ff" points="841.09,-496 851.36,-493.44 841.73,-489.03 841.09,-496"/>
</a>
</g>
</g>
<!-- Node24 -->
<g id="Node000024" class="node">
<title>Node24</title>
<g id="a_Node000024"><a xlink:href="TimeInfo_8cuh.html" target="_top" xlink:title="Declares the TimeInfo class, which manages simulation time and step tracking in the CLIP LBM framewor...">
<polygon fill="white" stroke="#666666" points="1499,-239 1329,-239 1329,-209 1499,-209 1499,-239"/>
<text text-anchor="start" x="1337" y="-227" font-family="Helvetica,sans-Serif" font-size="10.00">/home/runner/work/CLIP</text>
<text text-anchor="middle" x="1414" y="-216" font-family="Helvetica,sans-Serif" font-size="10.00">/CLIP/include/utils/TimeInfo.cuh</text>
</a>
</g>
</g>
<!-- Node2&#45;&gt;Node24 -->
<g id="edge68_Node000002_Node000024" class="edge">
<title>Node2&#45;&gt;Node24</title>
<g id="a_edge68_Node000002_Node000024"><a xlink:title=" ">
<path fill="none" stroke="#63b8ff" d="M1016.82,-493.34C1114.22,-486.99 1264.32,-473.41 1315,-448 1381.28,-414.77 1397.85,-387.63 1417,-316 1424.06,-289.58 1420.21,-257.31 1416.97,-239.16"/>
<polygon fill="#63b8ff" stroke="#63b8ff" points="1016.44,-489.85 1006.68,-493.98 1016.88,-496.84 1016.44,-489.85"/>
</a>
</g>
</g>
<!-- Node3&#45;&gt;Node4 -->
<g id="edge3_Node000003_Node000004" class="edge">
<title>Node3&#45;&gt;Node4</title>
<g id="a_edge3_Node000003_Node000004"><a xlink:title=" ">
<path fill="none" stroke="#63b8ff" d="M856.5,-265.53C860.46,-256.37 864.65,-246.66 867.94,-239.04"/>
<polygon fill="#63b8ff" stroke="#63b8ff" points="853.27,-264.2 852.52,-274.77 859.69,-266.98 853.27,-264.2"/>
</a>
</g>
</g>
<!-- Node3&#45;&gt;Node7 -->
<g id="edge25_Node000003_Node000007" class="edge">
<title>Node3&#45;&gt;Node7</title>
<g id="a_edge25_Node000003_Node000007"><a xlink:title=" ">
<path fill="none" stroke="#63b8ff" d="M920.14,-277.55C940.02,-269.3 959.17,-257.08 971,-239 987.29,-214.1 950.4,-181.39 939,-107 936.24,-88.99 929.99,-81.84 939,-66 948.31,-49.62 965.34,-38.05 981.64,-30.19"/>
<polygon fill="#63b8ff" stroke="#63b8ff" points="918.75,-274.34 910.66,-281.18 921.25,-280.88 918.75,-274.34"/>
</a>
</g>
</g>
<!-- Node3&#45;&gt;Node8 -->
<g id="edge22_Node000003_Node000008" class="edge">
<title>Node3&#45;&gt;Node8</title>
<g id="a_edge22_Node000003_Node000008"><a xlink:title=" ">
<path fill="none" stroke="#63b8ff" d="M920.43,-278.8C948.68,-270.34 979.71,-257.68 1004,-239 1026.98,-221.33 1043.56,-191.01 1051.9,-173.2"/>
<polygon fill="#63b8ff" stroke="#63b8ff" points="919.22,-275.51 910.56,-281.62 921.14,-282.24 919.22,-275.51"/>
</a>
</g>
</g>
<!-- Node3&#45;&gt;Node12 -->
<g id="edge23_Node000003_Node000012" class="edge">
<title>Node3&#45;&gt;Node12</title>
<g id="a_edge23_Node000003_Node000012"><a xlink:title=" ">
<path fill="none" stroke="#63b8ff" d="M812.89,-268.2C783.83,-243.75 744.3,-210.82 740,-209 677.67,-182.59 492.61,-168.83 383.68,-162.83"/>
<polygon fill="#63b8ff" stroke="#63b8ff" points="810.86,-271.07 820.77,-274.84 815.37,-265.72 810.86,-271.07"/>
</a>
</g>
</g>
<!-- Node3&#45;&gt;Node17 -->
<g id="edge24_Node000003_Node000017" class="edge">
<title>Node3&#45;&gt;Node17</title>
<g id="a_edge24_Node000003_Node000017"><a xlink:title=" ">
<path fill="none" stroke="#63b8ff" d="M778.56,-271.53C747.93,-260.78 712.44,-248.32 685.9,-239"/>
<polygon fill="#63b8ff" stroke="#63b8ff" points="777.72,-274.95 788.32,-274.96 780.04,-268.34 777.72,-274.95"/>
</a>
</g>
</g>
<!-- Node4&#45;&gt;Node5 -->
<g id="edge4_Node000004_Node000005" class="edge">
<title>Node4&#45;&gt;Node5</title>
<g id="a_edge4_Node000004_Node000005"><a xlink:title=" ">
<path fill="none" stroke="#63b8ff" d="M790.95,-207.04C649.58,-179.87 364.93,-125.16 235.62,-100.31"/>
<polygon fill="#63b8ff" stroke="#63b8ff" points="790.4,-210.5 800.88,-208.95 791.72,-203.62 790.4,-210.5"/>
</a>
</g>
</g>
<!-- Node4&#45;&gt;Node7 -->
<g id="edge21_Node000004_Node000007" class="edge">
<title>Node4&#45;&gt;Node7</title>
<g id="a_edge21_Node000004_Node000007"><a xlink:title=" ">
<path fill="none" stroke="#63b8ff" d="M872.17,-198.27C871.04,-164.6 873.99,-104.16 905,-66 918.89,-48.91 939.69,-37.56 959.97,-30.06"/>
<polygon fill="#63b8ff" stroke="#63b8ff" points="868.69,-198.78 872.68,-208.59 875.69,-198.43 868.69,-198.78"/>
</a>
</g>
</g>
<!-- Node4&#45;&gt;Node8 -->
<g id="edge7_Node000004_Node000008" class="edge">
<title>Node4&#45;&gt;Node8</title>
<g id="a_edge7_Node000004_Node000008"><a xlink:title=" ">
<path fill="none" stroke="#63b8ff" d="M924.05,-205.59C953.47,-195.36 990.17,-182.59 1017.71,-173.01"/>
<polygon fill="#63b8ff" stroke="#63b8ff" points="922.67,-202.36 914.38,-208.95 924.97,-208.98 922.67,-202.36"/>
</a>
</g>
</g>
<!-- Node4&#45;&gt;Node10 -->
<g id="edge10_Node000004_Node000010" class="edge">
<title>Node4&#45;&gt;Node10</title>
<g id="a_edge10_Node000004_Node000010"><a xlink:title=" ">
<path fill="none" stroke="#63b8ff" d="M965.67,-207.23C1026.81,-196.71 1106.43,-183.01 1165.19,-172.9"/>
<polygon fill="#63b8ff" stroke="#63b8ff" points="964.9,-203.81 955.64,-208.95 966.09,-210.71 964.9,-203.81"/>
</a>
</g>
</g>
<!-- Node4&#45;&gt;Node12 -->
<g id="edge13_Node000004_Node000012" class="edge">
<title>Node4&#45;&gt;Node12</title>
<g id="a_edge13_Node000004_Node000012"><a xlink:title=" ">
<path fill="none" stroke="#63b8ff" d="M776.44,-209.55C774.95,-209.36 773.47,-209.18 772,-209 636.09,-192.46 477.73,-176.29 383.62,-167"/>
<polygon fill="#63b8ff" stroke="#63b8ff" points="776.03,-213.02 786.39,-210.8 776.91,-206.08 776.03,-213.02"/>
</a>
</g>
</g>
<!-- Node4&#45;&gt;Node14 -->
<g id="edge17_Node000004_Node000014" class="edge">
<title>Node4&#45;&gt;Node14</title>
<g id="a_edge17_Node000004_Node000014"><a xlink:title=" ">
<path fill="none" stroke="#63b8ff" d="M972.02,-217.92C1101.44,-210.68 1336.27,-195.71 1536,-173 1538.73,-172.69 1541.5,-172.36 1544.3,-172.01"/>
<polygon fill="#63b8ff" stroke="#63b8ff" points="971.53,-214.44 961.74,-218.49 971.92,-221.43 971.53,-214.44"/>
</a>
</g>
</g>
<!-- Node16 -->
<g id="Node000016" class="node">
<title>Node16</title>
<g id="a_Node000016"><a xlink:href="DataArray_8cu.html" target="_top" xlink:title="Implements the DataArray class, responsible for memory management and data synchronization between ho...">
<polygon fill="white" stroke="#666666" points="853,-173 705,-173 705,-143 853,-143 853,-173"/>
<text text-anchor="start" x="713" y="-161" font-family="Helvetica,sans-Serif" font-size="10.00">/home/runner/work/CLIP</text>
<text text-anchor="middle" x="779" y="-150" font-family="Helvetica,sans-Serif" font-size="10.00">/CLIP/src/data/DataArray.cu</text>
</a>
</g>
</g>
<!-- Node4&#45;&gt;Node16 -->
<g id="edge20_Node000004_Node000016" class="edge">
<title>Node4&#45;&gt;Node16</title>
<g id="a_edge20_Node000004_Node000016"><a xlink:title=" ">
<path fill="none" stroke="#63b8ff" d="M844.35,-203.03C829.98,-193.34 813.05,-181.94 800.02,-173.16"/>
<polygon fill="#63b8ff" stroke="#63b8ff" points="842.67,-206.11 852.92,-208.8 846.58,-200.31 842.67,-206.11"/>
</a>
</g>
</g>
<!-- Node6 -->
<g id="Node000006" class="node">
<title>Node6</title>
<g id="a_Node000006"><a xlink:href="NsAllen_8cu.html" target="_top" xlink:title="Implementation of a two&#45;phase Lattice Boltzmann Method (LBM) solver using the Allen–Cahn phase&#45;field ...">
<polygon fill="white" stroke="#666666" points="296,-30 138,-30 138,0 296,0 296,-30"/>
<text text-anchor="start" x="146" y="-18" font-family="Helvetica,sans-Serif" font-size="10.00">/home/runner/work/CLIP</text>
<text text-anchor="middle" x="217" y="-7" font-family="Helvetica,sans-Serif" font-size="10.00">/CLIP/src/equation/NsAllen.cu</text>
</a>
</g>
</g>
<!-- Node5&#45;&gt;Node6 -->
<g id="edge5_Node000005_Node000006" class="edge">
<title>Node5&#45;&gt;Node6</title>
<g id="a_edge5_Node000005_Node000006"><a xlink:title=" ">
<path fill="none" stroke="#63b8ff" d="M188.41,-57.4C194.91,-47.99 201.88,-37.9 207.3,-30.04"/>
<polygon fill="#63b8ff" stroke="#63b8ff" points="185.43,-55.55 182.63,-65.77 191.19,-59.53 185.43,-55.55"/>
</a>
</g>
</g>
<!-- Node5&#45;&gt;Node7 -->
<g id="edge6_Node000005_Node000007" class="edge">
<title>Node5&#45;&gt;Node7</title>
<g id="a_edge6_Node000005_Node000007"><a xlink:title=" ">
<path fill="none" stroke="#63b8ff" d="M245.64,-71.29C258.1,-69.3 270.89,-67.44 283,-66 530.42,-36.56 826.59,-23.06 956.46,-18.22"/>
<polygon fill="#63b8ff" stroke="#63b8ff" points="245.05,-67.84 235.75,-72.91 246.18,-74.75 245.05,-67.84"/>
</a>
</g>
</g>
<!-- Node8&#45;&gt;Node7 -->
<g id="edge9_Node000008_Node000007" class="edge">
<title>Node8&#45;&gt;Node7</title>
<g id="a_edge9_Node000008_Node000007"><a xlink:title=" ">
<path fill="none" stroke="#63b8ff" d="M1086.1,-136.32C1094.82,-128.25 1103.35,-118.23 1108,-107 1114.97,-90.16 1117.05,-81.82 1108,-66 1098.56,-49.5 1081.33,-37.91 1064.84,-30.07"/>
<polygon fill="#63b8ff" stroke="#63b8ff" points="1083.77,-133.71 1078.49,-142.89 1088.35,-139 1083.77,-133.71"/>
</a>
</g>
</g>
<!-- Node9 -->
<g id="Node000009" class="node">
<title>Node9</title>
<g id="a_Node000009"><a xlink:href="CheckPointer_8cu.html" target="_top" xlink:title="Handles checkpointing functionality for saving and restoring LBM simulation state.">
<polygon fill="white" stroke="#666666" points="1098.5,-101.5 947.5,-101.5 947.5,-71.5 1098.5,-71.5 1098.5,-101.5"/>
<text text-anchor="start" x="955.5" y="-89.5" font-family="Helvetica,sans-Serif" font-size="10.00">/home/runner/work/CLIP</text>
<text text-anchor="middle" x="1023" y="-78.5" font-family="Helvetica,sans-Serif" font-size="10.00">/CLIP/src/io/CheckPointer.cu</text>
</a>
</g>
</g>
<!-- Node8&#45;&gt;Node9 -->
<g id="edge8_Node000008_Node000009" class="edge">
<title>Node8&#45;&gt;Node9</title>
<g id="a_edge8_Node000008_Node000009"><a xlink:title=" ">
<path fill="none" stroke="#63b8ff" d="M1046.28,-133.73C1040.91,-123.06 1034.72,-110.77 1030.07,-101.54"/>
<polygon fill="#63b8ff" stroke="#63b8ff" points="1043.29,-135.58 1050.92,-142.94 1049.55,-132.43 1043.29,-135.58"/>
</a>
</g>
</g>
<!-- Node10&#45;&gt;Node7 -->
<g id="edge12_Node000010_Node000007" class="edge">
<title>Node10&#45;&gt;Node7</title>
<g id="a_edge12_Node000010_Node000007"><a xlink:title=" ">
<path fill="none" stroke="#63b8ff" d="M1275.42,-136.33C1284.4,-128.31 1293.18,-118.32 1298,-107 1305.14,-90.23 1309.68,-79.99 1298,-66 1271.96,-34.8 1162.27,-23.02 1089.54,-18.61"/>
<polygon fill="#63b8ff" stroke="#63b8ff" points="1273.02,-133.78 1267.56,-142.86 1277.49,-139.16 1273.02,-133.78"/>
</a>
</g>
</g>
<!-- Node11 -->
<g id="Node000011" class="node">
<title>Node11</title>
<g id="a_Node000011"><a xlink:href="VTSwriter_8cu.html" target="_top" xlink:title="Writes scalar and vector fields to .vts (VTK structured grid) files for ParaView visualization.">
<polygon fill="white" stroke="#666666" points="1289,-101.5 1155,-101.5 1155,-71.5 1289,-71.5 1289,-101.5"/>
<text text-anchor="start" x="1163" y="-89.5" font-family="Helvetica,sans-Serif" font-size="10.00">/home/runner/work/CLIP</text>
<text text-anchor="middle" x="1222" y="-78.5" font-family="Helvetica,sans-Serif" font-size="10.00">/CLIP/src/io/VTSwriter.cu</text>
</a>
</g>
</g>
<!-- Node10&#45;&gt;Node11 -->
<g id="edge11_Node000010_Node000011" class="edge">
<title>Node10&#45;&gt;Node11</title>
<g id="a_edge11_Node000010_Node000011"><a xlink:title=" ">
<path fill="none" stroke="#63b8ff" d="M1237.85,-133.4C1234.19,-122.81 1230,-110.68 1226.85,-101.54"/>
<polygon fill="#63b8ff" stroke="#63b8ff" points="1234.57,-134.63 1241.14,-142.94 1241.19,-132.34 1234.57,-134.63"/>
</a>
</g>
</g>
<!-- Node12&#45;&gt;Node5 -->
<g id="edge14_Node000012_Node000005" class="edge">
<title>Node12&#45;&gt;Node5</title>
<g id="a_edge14_Node000012_Node000005"><a xlink:title=" ">
<path fill="none" stroke="#63b8ff" d="M265.38,-138.24C247.05,-128.59 224.72,-116.84 206.18,-107.07"/>
<polygon fill="#63b8ff" stroke="#63b8ff" points="263.81,-141.37 274.29,-142.94 267.07,-135.18 263.81,-141.37"/>
</a>
</g>
</g>
<!-- Node12&#45;&gt;Node6 -->
<g id="edge15_Node000012_Node000006" class="edge">
<title>Node12&#45;&gt;Node6</title>
<g id="a_edge15_Node000012_Node000006"><a xlink:title=" ">
<path fill="none" stroke="#63b8ff" d="M287.44,-134.24C269.99,-104.95 240.18,-54.91 225.58,-30.4"/>
<polygon fill="#63b8ff" stroke="#63b8ff" points="284.51,-136.17 292.64,-142.96 290.53,-132.58 284.51,-136.17"/>
</a>
</g>
</g>
<!-- Node13 -->
<g id="Node000013" class="node">
<title>Node13</title>
<g id="a_Node000013"><a xlink:href="Solver_8cu.html" target="_top" xlink:title="Core LBM solver class with all CUDA boundary condition kernels.">
<polygon fill="white" stroke="#666666" points="430,-101.5 292,-101.5 292,-71.5 430,-71.5 430,-101.5"/>
<text text-anchor="start" x="300" y="-89.5" font-family="Helvetica,sans-Serif" font-size="10.00">/home/runner/work/CLIP</text>
<text text-anchor="middle" x="361" y="-78.5" font-family="Helvetica,sans-Serif" font-size="10.00">/CLIP/src/solver/Solver.cu</text>
</a>
</g>
</g>
<!-- Node12&#45;&gt;Node13 -->
<g id="edge16_Node000012_Node000013" class="edge">
<title>Node12&#45;&gt;Node13</title>
<g id="a_edge16_Node000012_Node000013"><a xlink:title=" ">
<path fill="none" stroke="#63b8ff" d="M319.69,-135.35C329.21,-124.33 340.5,-111.24 348.88,-101.54"/>
<polygon fill="#63b8ff" stroke="#63b8ff" points="317.03,-133.08 313.14,-142.94 322.33,-137.65 317.03,-133.08"/>
</a>
</g>
</g>
<!-- Node14&#45;&gt;Node7 -->
<g id="edge18_Node000014_Node000007" class="edge">
<title>Node14&#45;&gt;Node7</title>
<g id="a_edge18_Node000014_Node000007"><a xlink:title=" ">
<path fill="none" stroke="#63b8ff" d="M1630.22,-132.73C1630.67,-111.79 1627.52,-82.41 1609,-66 1570.81,-32.16 1235.04,-20.68 1089.64,-17.28"/>
<polygon fill="#63b8ff" stroke="#63b8ff" points="1626.72,-132.63 1629.72,-142.8 1633.71,-132.98 1626.72,-132.63"/>
</a>
</g>
</g>
<!-- Node15 -->
<g id="Node000015" class="node">
<title>Node15</title>
<g id="a_Node000015"><a xlink:href="Reporter_8cu.html" target="_top" xlink:title="Reporting and diagnostics for CLIP simulations.">
<polygon fill="white" stroke="#666666" points="1600,-101.5 1460,-101.5 1460,-71.5 1600,-71.5 1600,-101.5"/>
<text text-anchor="start" x="1468" y="-89.5" font-family="Helvetica,sans-Serif" font-size="10.00">/home/runner/work/CLIP</text>
<text text-anchor="middle" x="1530" y="-78.5" font-family="Helvetica,sans-Serif" font-size="10.00">/CLIP/src/utils/Reporter.cu</text>
</a>
</g>
</g>
<!-- Node14&#45;&gt;Node15 -->
<g id="edge19_Node000014_Node000015" class="edge">
<title>Node14&#45;&gt;Node15</title>
<g id="a_edge19_Node000014_Node000015"><a xlink:title=" ">
<path fill="none" stroke="#63b8ff" d="M1599.71,-136.94C1583.73,-125.6 1564.14,-111.71 1549.8,-101.54"/>
<polygon fill="#63b8ff" stroke="#63b8ff" points="1597.99,-140.01 1608.17,-142.94 1602.04,-134.3 1597.99,-140.01"/>
</a>
</g>
</g>
<!-- Node18&#45;&gt;Node3 -->
<g id="edge28_Node000018_Node000003" class="edge">
<title>Node18&#45;&gt;Node3</title>
<g id="a_edge28_Node000018_Node000003"><a xlink:title=" ">
<path fill="none" stroke="#63b8ff" d="M1076.37,-349.85C1032.29,-340.22 975.42,-327.64 925,-316 920.35,-314.93 915.55,-313.8 910.72,-312.67"/>
<polygon fill="#63b8ff" stroke="#63b8ff" points="1075.63,-353.27 1086.15,-351.99 1077.12,-346.43 1075.63,-353.27"/>
</a>
</g>
</g>
<!-- Node18&#45;&gt;Node4 -->
<g id="edge29_Node000018_Node000004" class="edge">
<title>Node18&#45;&gt;Node4</title>
<g id="a_edge29_Node000018_Node000004"><a xlink:title=" ">
<path fill="none" stroke="#63b8ff" d="M1086.19,-349.05C1059.12,-340.79 1027.79,-329.67 1001,-316 957.99,-294.06 913.39,-258.63 890.21,-239.09"/>
<polygon fill="#63b8ff" stroke="#63b8ff" points="1085.38,-352.46 1095.96,-351.96 1087.38,-345.75 1085.38,-352.46"/>
</a>
</g>
</g>
<!-- Node18&#45;&gt;Node8 -->
<g id="edge35_Node000018_Node000008" class="edge">
<title>Node18&#45;&gt;Node8</title>
<g id="a_edge35_Node000018_Node000008"><a xlink:title=" ">
<path fill="none" stroke="#63b8ff" d="M1074.73,-347.98C1059.06,-340.67 1044.47,-330.4 1035,-316 1024.98,-300.78 1027.11,-291.42 1035,-275 1046.1,-251.92 1068.9,-262.08 1080,-239 1090.48,-217.19 1077.73,-189.55 1067.73,-173.13"/>
<polygon fill="#63b8ff" stroke="#63b8ff" points="1073.47,-351.26 1084.05,-351.96 1076.22,-344.82 1073.47,-351.26"/>
</a>
</g>
</g>
<!-- Node18&#45;&gt;Node10 -->
<g id="edge36_Node000018_Node000010" class="edge">
<title>Node18&#45;&gt;Node10</title>
<g id="a_edge36_Node000018_Node000010"><a xlink:title=" ">
<path fill="none" stroke="#63b8ff" d="M1179.75,-345.44C1189.35,-337.27 1199.3,-327.15 1206,-316 1234.4,-268.75 1242.76,-201.82 1245.12,-173.04"/>
<polygon fill="#63b8ff" stroke="#63b8ff" points="1177.42,-342.82 1171.85,-351.83 1181.82,-348.26 1177.42,-342.82"/>
</a>
</g>
</g>
<!-- Node18&#45;&gt;Node12 -->
<g id="edge37_Node000018_Node000012" class="edge">
<title>Node18&#45;&gt;Node12</title>
<g id="a_edge37_Node000018_Node000012"><a xlink:title=" ">
<path fill="none" stroke="#63b8ff" d="M1050.7,-355.1C955.96,-344.39 820.88,-327.98 769,-316 683.62,-296.29 436,-207.88 339.83,-173.11"/>
<polygon fill="#63b8ff" stroke="#63b8ff" points="1050.56,-358.6 1060.89,-356.24 1051.35,-351.65 1050.56,-358.6"/>
</a>
</g>
</g>
<!-- Node18&#45;&gt;Node14 -->
<g id="edge38_Node000018_Node000014" class="edge">
<title>Node18&#45;&gt;Node14</title>
<g id="a_edge38_Node000018_Node000014"><a xlink:title=" ">
<path fill="none" stroke="#63b8ff" d="M1212.79,-349.08C1285.5,-328.03 1408.88,-288.72 1508,-239 1546.27,-219.8 1586.96,-190.56 1609.75,-173.25"/>
<polygon fill="#63b8ff" stroke="#63b8ff" points="1211.52,-345.8 1202.88,-351.92 1213.45,-352.53 1211.52,-345.8"/>
</a>
</g>
</g>
<!-- Node18&#45;&gt;Node19 -->
<g id="edge30_Node000018_Node000019" class="edge">
<title>Node18&#45;&gt;Node19</title>
<g id="a_edge30_Node000018_Node000019"><a xlink:title=" ">
<path fill="none" stroke="#63b8ff" d="M1050.49,-355.31C1038.2,-354.13 1025.82,-352.99 1014,-352 772.1,-331.66 710.29,-342.59 469,-316 449.64,-313.87 428.7,-310.9 409.55,-307.91"/>
<polygon fill="#63b8ff" stroke="#63b8ff" points="1050.48,-358.83 1060.77,-356.31 1051.16,-351.86 1050.48,-358.83"/>
</a>
</g>
</g>
<!-- Node21 -->
<g id="Node000021" class="node">
<title>Node21</title>
<g id="a_Node000021"><a xlink:href="Domain_8cu.html" target="_top" xlink:title="Implements the Domain class, which sets up spatial grid extents, indexing, and ghost region boundarie...">
<polygon fill="white" stroke="#666666" points="1196.5,-310.5 1043.5,-310.5 1043.5,-280.5 1196.5,-280.5 1196.5,-310.5"/>
<text text-anchor="start" x="1051.5" y="-298.5" font-family="Helvetica,sans-Serif" font-size="10.00">/home/runner/work/CLIP</text>
<text text-anchor="middle" x="1120" y="-287.5" font-family="Helvetica,sans-Serif" font-size="10.00">/CLIP/src/domain/Domain.cu</text>
</a>
</g>
</g>
<!-- Node18&#45;&gt;Node21 -->
<g id="edge39_Node000018_Node000021" class="edge">
<title>Node18&#45;&gt;Node21</title>
<g id="a_edge39_Node000018_Node000021"><a xlink:title=" ">
<path fill="none" stroke="#63b8ff" d="M1140.62,-342.73C1135.86,-332.06 1130.38,-319.77 1126.26,-310.54"/>
<polygon fill="#63b8ff" stroke="#63b8ff" points="1137.46,-344.23 1144.73,-351.94 1143.85,-341.38 1137.46,-344.23"/>
</a>
</g>
</g>
<!-- Node19&#45;&gt;Node5 -->
<g id="edge31_Node000019_Node000005" class="edge">
<title>Node19&#45;&gt;Node5</title>
<g id="a_edge31_Node000019_Node000005"><a xlink:title=" ">
<path fill="none" stroke="#63b8ff" d="M281.91,-270.3C266.52,-262.08 250.98,-251.69 239,-239 202.2,-200.03 182.03,-138.26 173.67,-107"/>
<polygon fill="#63b8ff" stroke="#63b8ff" points="280.43,-273.47 290.93,-274.89 283.61,-267.24 280.43,-273.47"/>
</a>
</g>
</g>
<!-- Node19&#45;&gt;Node7 -->
<g id="edge34_Node000019_Node000007" class="edge">
<title>Node19&#45;&gt;Node7</title>
<g id="a_edge34_Node000019_Node000007"><a xlink:title=" ">
<path fill="none" stroke="#63b8ff" d="M398.5,-270C412.98,-261.7 427.68,-251.34 439,-239 496.39,-176.43 450.71,-115.05 520,-66 554.87,-41.31 827.79,-25.25 956.39,-18.98"/>
<polygon fill="#63b8ff" stroke="#63b8ff" points="396.63,-267.03 389.54,-274.9 399.99,-273.17 396.63,-267.03"/>
</a>
</g>
</g>
<!-- Node19&#45;&gt;Node12 -->
<g id="edge32_Node000019_Node000012" class="edge">
<title>Node19&#45;&gt;Node12</title>
<g id="a_edge32_Node000019_Node000012"><a xlink:title=" ">
<path fill="none" stroke="#63b8ff" d="M278.59,-269.81C265.98,-261.92 254.39,-251.8 247,-239 240.34,-227.45 241.66,-221.22 247,-209 253.45,-194.25 266.63,-181.91 278.35,-173.17"/>
<polygon fill="#63b8ff" stroke="#63b8ff" points="277.03,-272.95 287.44,-274.92 280.53,-266.89 277.03,-272.95"/>
</a>
</g>
</g>
<!-- Node20 -->
<g id="Node000020" class="node">
<title>Node20</title>
<g id="a_Node000020"><a xlink:href="Geometry_8cu.html" target="_top" xlink:title="Reads, parses, and manages user&#45;defined geometries for use in LBM simulations.">
<polygon fill="white" stroke="#666666" points="429.5,-239 256.5,-239 256.5,-209 429.5,-209 429.5,-239"/>
<text text-anchor="start" x="264.5" y="-227" font-family="Helvetica,sans-Serif" font-size="10.00">/home/runner/work/CLIP</text>
<text text-anchor="middle" x="343" y="-216" font-family="Helvetica,sans-Serif" font-size="10.00">/CLIP/src/geometry/Geometry.cu</text>
</a>
</g>
</g>
<!-- Node19&#45;&gt;Node20 -->
<g id="edge33_Node000019_Node000020" class="edge">
<title>Node19&#45;&gt;Node20</title>
<g id="a_edge33_Node000019_Node000020"><a xlink:title=" ">
<path fill="none" stroke="#63b8ff" d="M343,-264.66C343,-255.76 343,-246.42 343,-239.04"/>
<polygon fill="#63b8ff" stroke="#63b8ff" points="339.5,-264.77 343,-274.77 346.5,-264.77 339.5,-264.77"/>
</a>
</g>
</g>
<!-- Node22&#45;&gt;Node3 -->
<g id="edge43_Node000022_Node000003" class="edge">
<title>Node22&#45;&gt;Node3</title>
<g id="a_edge43_Node000022_Node000003"><a xlink:title=" ">
<path fill="none" stroke="#63b8ff" d="M804.58,-407.55C804.36,-391.43 805.43,-370.04 811,-352 814.93,-339.25 822.34,-326.36 829.14,-316.22"/>
<polygon fill="#63b8ff" stroke="#63b8ff" points="801.09,-407.88 804.91,-417.77 808.09,-407.66 801.09,-407.88"/>
</a>
</g>
</g>
<!-- Node22&#45;&gt;Node4 -->
<g id="edge44_Node000022_Node000004" class="edge">
<title>Node22&#45;&gt;Node4</title>
<g id="a_edge44_Node000022_Node000004"><a xlink:title=" ">
<path fill="none" stroke="#63b8ff" d="M790.51,-409.11C770.8,-376.85 742.33,-317.24 769,-275 779.78,-257.93 798.16,-246.56 816.56,-239.05"/>
<polygon fill="#63b8ff" stroke="#63b8ff" points="787.72,-411.24 796.03,-417.82 793.63,-407.5 787.72,-411.24"/>
</a>
</g>
</g>
<!-- Node22&#45;&gt;Node5 -->
<g id="edge46_Node000022_Node000005" class="edge">
<title>Node22&#45;&gt;Node5</title>
<g id="a_edge46_Node000022_Node000005"><a xlink:title=" ">
<path fill="none" stroke="#63b8ff" d="M706.79,-428.6C541.67,-420.74 221.14,-395.41 146,-316 93.03,-260.02 110.37,-216.36 134,-143 138.16,-130.1 146.01,-117.2 153.23,-107.09"/>
<polygon fill="#63b8ff" stroke="#63b8ff" points="706.8,-432.1 716.95,-429.07 707.12,-425.11 706.8,-432.1"/>
</a>
</g>
</g>
<!-- Node22&#45;&gt;Node7 -->
<g id="edge62_Node000022_Node000007" class="edge">
<title>Node22&#45;&gt;Node7</title>
<g id="a_edge62_Node000022_Node000007"><a xlink:title=" ">
<path fill="none" stroke="#63b8ff" d="M773.74,-412.52C711.06,-373.91 576.88,-287.25 553,-239 547.09,-227.05 545.81,-220.23 553,-209 641.31,-70.98 848.91,-31.64 956.2,-20.45"/>
<polygon fill="#63b8ff" stroke="#63b8ff" points="772.09,-415.61 782.44,-417.86 775.75,-409.65 772.09,-415.61"/>
</a>
</g>
</g>
<!-- Node22&#45;&gt;Node8 -->
<g id="edge48_Node000022_Node000008" class="edge">
<title>Node22&#45;&gt;Node8</title>
<g id="a_edge48_Node000022_Node000008"><a xlink:title=" ">
<path fill="none" stroke="#63b8ff" d="M813,-407.9C819.08,-390.53 829.39,-367.52 845,-352 871.22,-325.93 888.04,-334.6 920,-316 971.89,-285.8 994.91,-286.98 1031,-239 1045.98,-219.09 1052.97,-190.34 1055.98,-173.28"/>
<polygon fill="#63b8ff" stroke="#63b8ff" points="809.52,-407.27 809.75,-417.86 816.18,-409.44 809.52,-407.27"/>
</a>
</g>
</g>
<!-- Node22&#45;&gt;Node10 -->
<g id="edge49_Node000022_Node000010" class="edge">
<title>Node22&#45;&gt;Node10</title>
<g id="a_edge49_Node000022_Node000010"><a xlink:title=" ">
<path fill="none" stroke="#63b8ff" d="M905.39,-426.99C1028.53,-419.84 1225.24,-404.99 1250,-382 1307.04,-329.06 1298.32,-283.84 1277,-209 1273.25,-195.84 1264.93,-182.76 1257.86,-173.28"/>
<polygon fill="#63b8ff" stroke="#63b8ff" points="904.96,-423.51 895.18,-427.57 905.36,-430.5 904.96,-423.51"/>
</a>
</g>
</g>
<!-- Node22&#45;&gt;Node12 -->
<g id="edge50_Node000022_Node000012" class="edge">
<title>Node22&#45;&gt;Node12</title>
<g id="a_edge50_Node000022_Node000012"><a xlink:title=" ">
<path fill="none" stroke="#63b8ff" d="M706.92,-416.38C675.06,-408.84 640.41,-397.86 611,-382 593.55,-372.59 596.05,-360.2 578,-352 451.32,-294.43 376.18,-402.26 267,-316 228.43,-285.53 217.79,-253.35 239,-209 246.34,-193.66 260.94,-181.51 274.13,-173.04"/>
<polygon fill="#63b8ff" stroke="#63b8ff" points="706.18,-419.81 716.71,-418.62 707.74,-412.98 706.18,-419.81"/>
</a>
</g>
</g>
<!-- Node22&#45;&gt;Node14 -->
<g id="edge54_Node000022_Node000014" class="edge">
<title>Node22&#45;&gt;Node14</title>
<g id="a_edge54_Node000022_Node000014"><a xlink:title=" ">
<path fill="none" stroke="#63b8ff" d="M905.61,-430.56C1046.5,-427.31 1296.09,-416.67 1379,-382 1491.7,-334.87 1587.41,-214.47 1617.88,-173.16"/>
<polygon fill="#63b8ff" stroke="#63b8ff" points="905.16,-427.07 895.24,-430.8 905.31,-434.07 905.16,-427.07"/>
</a>
</g>
</g>
<!-- Node22&#45;&gt;Node18 -->
<g id="edge45_Node000022_Node000018" class="edge">
<title>Node22&#45;&gt;Node18</title>
<g id="a_edge45_Node000022_Node000018"><a xlink:title=" ">
<path fill="none" stroke="#63b8ff" d="M891.68,-416.11C948.09,-405.64 1021.24,-392.07 1075.46,-382.01"/>
<polygon fill="#63b8ff" stroke="#63b8ff" points="890.91,-412.69 881.71,-417.95 892.18,-419.57 890.91,-412.69"/>
</a>
</g>
</g>
<!-- Node22&#45;&gt;Node19 -->
<g id="edge47_Node000022_Node000019" class="edge">
<title>Node22&#45;&gt;Node19</title>
<g id="a_edge47_Node000022_Node000019"><a xlink:title=" ">
<path fill="none" stroke="#63b8ff" d="M767.21,-413.58C728.4,-395.76 666.65,-369.02 611,-352 543.64,-331.4 464.42,-316.05 409.67,-306.77"/>
<polygon fill="#63b8ff" stroke="#63b8ff" points="766.02,-416.89 776.56,-417.91 768.96,-410.53 766.02,-416.89"/>
</a>
</g>
</g>
<!-- Node22&#45;&gt;Node23 -->
<g id="edge51_Node000022_Node000023" class="edge">
<title>Node22&#45;&gt;Node23</title>
<g id="a_edge51_Node000022_Node000023"><a xlink:title=" ">
<path fill="none" stroke="#63b8ff" d="M725.88,-415.98C673.65,-405.53 606.15,-392.03 556.06,-382.01"/>
<polygon fill="#63b8ff" stroke="#63b8ff" points="725.28,-419.43 735.77,-417.95 726.66,-412.56 725.28,-419.43"/>
</a>
</g>
</g>
<!-- Node22&#45;&gt;Node24 -->
<g id="edge55_Node000022_Node000024" class="edge">
<title>Node22&#45;&gt;Node24</title>
<g id="a_edge55_Node000022_Node000024"><a xlink:title=" ">
<path fill="none" stroke="#63b8ff" d="M905.17,-428.54C1053.13,-422.55 1318.12,-408.28 1353,-382 1399.71,-346.81 1410.67,-270.78 1413.23,-239.2"/>
<polygon fill="#63b8ff" stroke="#63b8ff" points="905.01,-425.05 895.16,-428.94 905.29,-432.04 905.01,-425.05"/>
</a>
</g>
</g>
<!-- Node26 -->
<g id="Node000026" class="node">
<title>Node26</title>
<g id="a_Node000026"><a xlink:href="InputData_8cu.html" target="_top" xlink:title="Parses and stores simulation configuration parameters from a user&#45;defined config file.">
<polygon fill="white" stroke="#666666" points="1004.5,-382 853.5,-382 853.5,-352 1004.5,-352 1004.5,-382"/>
<text text-anchor="start" x="861.5" y="-370" font-family="Helvetica,sans-Serif" font-size="10.00">/home/runner/work/CLIP</text>
<text text-anchor="middle" x="929" y="-359" font-family="Helvetica,sans-Serif" font-size="10.00">/CLIP/src/input/InputData.cu</text>
</a>
</g>
</g>
<!-- Node22&#45;&gt;Node26 -->
<g id="edge61_Node000022_Node000026" class="edge">
<title>Node22&#45;&gt;Node26</title>
<g id="a_edge61_Node000022_Node000026"><a xlink:title=" ">
<path fill="none" stroke="#63b8ff" d="M842.05,-413.24C861.25,-403.25 884.46,-391.18 902.07,-382.01"/>
<polygon fill="#63b8ff" stroke="#63b8ff" points="840.25,-410.23 832.99,-417.95 843.48,-416.44 840.25,-410.23"/>
</a>
</g>
</g>
<!-- Node23&#45;&gt;Node4 -->
<g id="edge52_Node000023_Node000004" class="edge">
<title>Node23&#45;&gt;Node4</title>
<g id="a_edge52_Node000023_Node000004"><a xlink:title=" ">
<path fill="none" stroke="#63b8ff" d="M509.94,-345.48C535.67,-324.52 578.61,-292.63 621,-275 673.61,-253.12 736.43,-240.64 786.31,-233.62"/>
<polygon fill="#63b8ff" stroke="#63b8ff" points="507.69,-342.8 502.21,-351.87 512.15,-348.19 507.69,-342.8"/>
</a>
</g>
</g>
<!-- Node23&#45;&gt;Node5 -->
<g id="edge53_Node000023_Node000005" class="edge">
<title>Node23&#45;&gt;Node5</title>
<g id="a_edge53_Node000023_Node000005"><a xlink:title=" ">
<path fill="none" stroke="#63b8ff" d="M393.39,-358.91C318.15,-351.65 219.24,-338.22 186,-316 152.47,-293.59 149.09,-277.77 138,-239 124.7,-192.54 145.43,-136.52 158.91,-107.35"/>
<polygon fill="#63b8ff" stroke="#63b8ff" points="393.09,-362.4 403.38,-359.85 393.75,-355.43 393.09,-362.4"/>
</a>
</g>
</g>
<!-- Node24&#45;&gt;Node7 -->
<g id="edge59_Node000024_Node000007" class="edge">
<title>Node24&#45;&gt;Node7</title>
<g id="a_edge59_Node000024_Node000007"><a xlink:title=" ">
<path fill="none" stroke="#63b8ff" d="M1395.69,-201.01C1388.89,-192.48 1381.31,-182.49 1375,-173 1344.81,-127.6 1359.54,-97.44 1315,-66 1279.6,-41.01 1164.3,-27.26 1089.61,-20.77"/>
<polygon fill="#63b8ff" stroke="#63b8ff" points="1393.13,-203.42 1402.14,-208.99 1398.57,-199.01 1393.13,-203.42"/>
</a>
</g>
</g>
<!-- Node24&#45;&gt;Node8 -->
<g id="edge56_Node000024_Node000008" class="edge">
<title>Node24&#45;&gt;Node8</title>
<g id="a_edge56_Node000024_Node000008"><a xlink:title=" ">
<path fill="none" stroke="#63b8ff" d="M1325.95,-207.17C1267.7,-196.7 1192.01,-183.09 1135.94,-173.01"/>
<polygon fill="#63b8ff" stroke="#63b8ff" points="1325.41,-210.63 1335.87,-208.95 1326.65,-203.74 1325.41,-210.63"/>
</a>
</g>
</g>
<!-- Node24&#45;&gt;Node10 -->
<g id="edge57_Node000024_Node000010" class="edge">
<title>Node24&#45;&gt;Node10</title>
<g id="a_edge57_Node000024_Node000010"><a xlink:title=" ">
<path fill="none" stroke="#63b8ff" d="M1367.6,-205.32C1340.86,-195.14 1307.71,-182.51 1282.78,-173.01"/>
<polygon fill="#63b8ff" stroke="#63b8ff" points="1366.54,-208.67 1377.13,-208.95 1369.03,-202.12 1366.54,-208.67"/>
</a>
</g>
</g>
<!-- Node24&#45;&gt;Node14 -->
<g id="edge58_Node000024_Node000014" class="edge">
<title>Node24&#45;&gt;Node14</title>
<g id="a_edge58_Node000024_Node000014"><a xlink:title=" ">
<path fill="none" stroke="#63b8ff" d="M1470.88,-205.99C1505.31,-195.69 1548.7,-182.72 1581.15,-173.01"/>
<polygon fill="#63b8ff" stroke="#63b8ff" points="1469.54,-202.74 1460.96,-208.95 1471.55,-209.44 1469.54,-202.74"/>
</a>
</g>
</g>
<!-- Node25 -->
<g id="Node000025" class="node">
<title>Node25</title>
<g id="a_Node000025"><a xlink:href="TimeInfo_8cu.html" target="_top" xlink:title="Handles simulation time tracking in CLIP.">
<polygon fill="white" stroke="#666666" points="1526.5,-173 1383.5,-173 1383.5,-143 1526.5,-143 1526.5,-173"/>
<text text-anchor="start" x="1391.5" y="-161" font-family="Helvetica,sans-Serif" font-size="10.00">/home/runner/work/CLIP</text>
<text text-anchor="middle" x="1455" y="-150" font-family="Helvetica,sans-Serif" font-size="10.00">/CLIP/src/utils/TimeInfo.cu</text>
</a>
</g>
</g>
<!-- Node24&#45;&gt;Node25 -->
<g id="edge60_Node000024_Node000025" class="edge">
<title>Node24&#45;&gt;Node25</title>
<g id="a_edge60_Node000024_Node000025"><a xlink:title=" ">
<path fill="none" stroke="#63b8ff" d="M1428.58,-200.24C1434.36,-191.21 1440.84,-181.11 1445.93,-173.16"/>
<polygon fill="#63b8ff" stroke="#63b8ff" points="1425.55,-198.49 1423.1,-208.8 1431.44,-202.26 1425.55,-198.49"/>
</a>
</g>
</g>
</g>
</svg>
