<?xml version="1.0" encoding="UTF-8" standalone="no"?>
<!DOCTYPE svg PUBLIC "-//W3C//DTD SVG 1.1//EN"
 "http://www.w3.org/Graphics/SVG/1.1/DTD/svg11.dtd">
<!-- Generated by graphviz version 2.43.0 (0)
 -->
<!-- Title: /home/runner/work/CLIP/CLIP/src/main.cu Pages: 1 -->
<svg width="1291pt" height="533pt"
 viewBox="0.00 0.00 1291.00 533.00" xmlns="http://www.w3.org/2000/svg" xmlns:xlink="http://www.w3.org/1999/xlink">
<g id="graph0" class="graph" transform="scale(1 1) rotate(0) translate(4 529)">
<title>/home/runner/work/CLIP/CLIP/src/main.cu</title>
<!-- Node1 -->
<g id="Node000001" class="node">
<title>Node1</title>
<g id="a_Node000001"><a xlink:title="Main entry point for CLIP: CUDA Lattice Boltzmann Solver for Interfacial Phenomena.">
<polygon fill="#999999" stroke="#666666" points="684.5,-525 551.5,-525 551.5,-495 684.5,-495 684.5,-525"/>
<text text-anchor="start" x="559.5" y="-513" font-family="Helvetica,sans-Serif" font-size="10.00">/home/runner/work/CLIP</text>
<text text-anchor="middle" x="618" y="-502" font-family="Helvetica,sans-Serif" font-size="10.00">/CLIP/src/main.cu</text>
</a>
</g>
</g>
<!-- Node2 -->
<g id="Node000002" class="node">
<title>Node2</title>
<g id="a_Node000002"><a xlink:href="InputData_8cuh.html" target="_top" xlink:title="Defines the InputData class responsible for reading and storing simulation parameters in the CLIP LBM...">
<polygon fill="white" stroke="#666666" points="593.5,-184 508.5,-184 508.5,-165 593.5,-165 593.5,-184"/>
<text text-anchor="middle" x="551" y="-172" font-family="Helvetica,sans-Serif" font-size="10.00">InputData.cuh</text>
</a>
</g>
</g>
<!-- Node1&#45;&gt;Node2 -->
<g id="edge1_Node000001_Node000002" class="edge">
<title>Node1&#45;&gt;Node2</title>
<g id="a_edge1_Node000001_Node000002"><a xlink:title=" ">
<path fill="none" stroke="#63b8ff" d="M617.57,-494.95C615.8,-440.48 608.72,-245.07 597,-220 591.6,-208.44 581.78,-198.3 572.6,-190.62"/>
<polygon fill="#63b8ff" stroke="#63b8ff" points="574.54,-187.69 564.5,-184.3 570.23,-193.21 574.54,-187.69"/>
</a>
</g>
</g>
<!-- Node3 -->
<g id="Node000003" class="node">
<title>Node3</title>
<g id="a_Node000003"><a xlink:href="includes_8h.html" target="_top" xlink:title="Common include header that provides core system libraries, CUDA headers, and project&#45;level dependenci...">
<polygon fill="white" stroke="#666666" points="686,-129 620,-129 620,-110 686,-110 686,-129"/>
<text text-anchor="middle" x="653" y="-117" font-family="Helvetica,sans-Serif" font-size="10.00">includes.h</text>
</a>
</g>
</g>
<!-- Node1&#45;&gt;Node3 -->
<g id="edge22_Node000001_Node000003" class="edge">
<title>Node1&#45;&gt;Node3</title>
<g id="a_edge22_Node000001_Node000003"><a xlink:title=" ">
<path fill="none" stroke="#63b8ff" d="M684.64,-507.57C819.91,-502.85 1114,-482.57 1114,-395.5 1114,-395.5 1114,-395.5 1114,-283.5 1114,-208.86 1062.26,-197.36 995,-165 943.11,-140.03 776.1,-127.46 696.27,-122.75"/>
<polygon fill="#63b8ff" stroke="#63b8ff" points="696.25,-119.25 686.07,-122.17 695.85,-126.23 696.25,-119.25"/>
</a>
</g>
</g>
<!-- Node20 -->
<g id="Node000020" class="node">
<title>Node20</title>
<g id="a_Node000020"><a xlink:href="TimeInfo_8cuh.html" target="_top" xlink:title="Declares the TimeInfo class, which manages simulation time and step tracking in the CLIP LBM framewor...">
<polygon fill="white" stroke="#666666" points="896,-349 816,-349 816,-330 896,-330 896,-349"/>
<text text-anchor="middle" x="856" y="-337" font-family="Helvetica,sans-Serif" font-size="10.00">TimeInfo.cuh</text>
</a>
</g>
</g>
<!-- Node1&#45;&gt;Node20 -->
<g id="edge23_Node000001_Node000020" class="edge">
<title>Node1&#45;&gt;Node20</title>
<g id="a_edge23_Node000001_Node000020"><a xlink:title=" ">
<path fill="none" stroke="#63b8ff" d="M678.87,-494.87C728.58,-480.24 797.08,-452.54 838,-404 848.5,-391.54 852.89,-373.33 854.72,-359.61"/>
<polygon fill="#63b8ff" stroke="#63b8ff" points="858.23,-359.65 855.73,-349.35 851.26,-358.96 858.23,-359.65"/>
</a>
</g>
</g>
<!-- Node21 -->
<g id="Node000021" class="node">
<title>Node21</title>
<g id="a_Node000021"><a xlink:href="NsAllen_8cuh.html" target="_top" xlink:title="Defines the NSAllen class, a Navier–Stokes solver using the Allen–Cahn phase&#45;field approach within th...">
<polygon fill="white" stroke="#666666" points="265,-459 191,-459 191,-440 265,-440 265,-459"/>
<text text-anchor="middle" x="228" y="-447" font-family="Helvetica,sans-Serif" font-size="10.00">NsAllen.cuh</text>
</a>
</g>
</g>
<!-- Node1&#45;&gt;Node21 -->
<g id="edge26_Node000001_Node000021" class="edge">
<title>Node1&#45;&gt;Node21</title>
<g id="a_edge26_Node000001_Node000021"><a xlink:title=" ">
<path fill="none" stroke="#63b8ff" d="M551.4,-499.01C472.87,-487.23 344.32,-467.95 275.32,-457.6"/>
<polygon fill="#63b8ff" stroke="#63b8ff" points="275.59,-454.1 265.18,-456.08 274.55,-461.02 275.59,-454.1"/>
</a>
</g>
</g>
<!-- Node23 -->
<g id="Node000023" class="node">
<title>Node23</title>
<g id="a_Node000023"><a xlink:href="Boundary_8cuh.html" target="_top" xlink:title="Defines the Boundary class for handling physical and computational boundary conditions in the CLIP LB...">
<polygon fill="white" stroke="#666666" points="376,-294 294,-294 294,-275 376,-275 376,-294"/>
<text text-anchor="middle" x="335" y="-282" font-family="Helvetica,sans-Serif" font-size="10.00">Boundary.cuh</text>
</a>
</g>
</g>
<!-- Node1&#45;&gt;Node23 -->
<g id="edge55_Node000001_Node000023" class="edge">
<title>Node1&#45;&gt;Node23</title>
<g id="a_edge55_Node000001_Node000023"><a xlink:title=" ">
<path fill="none" stroke="#63b8ff" d="M599.87,-494.68C549.01,-454.51 405.37,-341.08 353.76,-300.32"/>
<polygon fill="#63b8ff" stroke="#63b8ff" points="355.78,-297.45 345.76,-294 351.44,-302.95 355.78,-297.45"/>
</a>
</g>
</g>
<!-- Node25 -->
<g id="Node000025" class="node">
<title>Node25</title>
<g id="a_Node000025"><a xlink:href="DataArray_8cuh.html" target="_top" xlink:title="Defines the DataArray class for managing all host/device memory allocation, data transfer,...">
<polygon fill="white" stroke="#666666" points="560.5,-349 475.5,-349 475.5,-330 560.5,-330 560.5,-349"/>
<text text-anchor="middle" x="518" y="-337" font-family="Helvetica,sans-Serif" font-size="10.00">DataArray.cuh</text>
</a>
</g>
</g>
<!-- Node1&#45;&gt;Node25 -->
<g id="edge56_Node000001_Node000025" class="edge">
<title>Node1&#45;&gt;Node25</title>
<g id="a_edge56_Node000001_Node000025"><a xlink:title=" ">
<path fill="none" stroke="#63b8ff" d="M608.2,-494.73C601.49,-484.82 592.49,-471.24 585,-459 563.51,-423.88 540.24,-381.68 527.57,-358.3"/>
<polygon fill="#63b8ff" stroke="#63b8ff" points="530.51,-356.38 522.67,-349.24 524.35,-359.7 530.51,-356.38"/>
</a>
</g>
</g>
<!-- Node27 -->
<g id="Node000027" class="node">
<title>Node27</title>
<g id="a_Node000027"><a xlink:href="Geometry_8cuh.html" target="_top" xlink:title="Defines the Geometry class for managing embedded objects and generating signed distance functions (SD...">
<polygon fill="white" stroke="#666666" points="118,-294 34,-294 34,-275 118,-275 118,-294"/>
<text text-anchor="middle" x="76" y="-282" font-family="Helvetica,sans-Serif" font-size="10.00">Geometry.cuh</text>
</a>
</g>
</g>
<!-- Node1&#45;&gt;Node27 -->
<g id="edge77_Node000001_Node000027" class="edge">
<title>Node1&#45;&gt;Node27</title>
<g id="a_edge77_Node000001_Node000027"><a xlink:title=" ">
<path fill="none" stroke="#63b8ff" d="M551.29,-506.19C445.99,-500.94 246.55,-487.51 182,-459 123.18,-433.02 110.05,-409.41 88,-349 82.7,-334.49 79.63,-317.22 77.93,-304.36"/>
<polygon fill="#63b8ff" stroke="#63b8ff" points="81.4,-303.89 76.76,-294.37 74.44,-304.71 81.4,-303.89"/>
</a>
</g>
</g>
<!-- Node28 -->
<g id="Node000028" class="node">
<title>Node28</title>
<g id="a_Node000028"><a xlink:href="VTSwriter_8cuh.html" target="_top" xlink:title="Defines the VTSwriter class, which writes CLIP simulation output in VTK Structured Grid (....">
<polygon fill="white" stroke="#666666" points="829.5,-404 746.5,-404 746.5,-385 829.5,-385 829.5,-404"/>
<text text-anchor="middle" x="788" y="-392" font-family="Helvetica,sans-Serif" font-size="10.00">VTSwriter.cuh</text>
</a>
</g>
</g>
<!-- Node1&#45;&gt;Node28 -->
<g id="edge57_Node000001_Node000028" class="edge">
<title>Node1&#45;&gt;Node28</title>
<g id="a_edge57_Node000001_Node000028"><a xlink:title=" ">
<path fill="none" stroke="#63b8ff" d="M639.19,-494.85C671.73,-473.13 733.68,-431.77 766.45,-409.89"/>
<polygon fill="#63b8ff" stroke="#63b8ff" points="768.49,-412.73 774.86,-404.27 764.6,-406.91 768.49,-412.73"/>
</a>
</g>
</g>
<!-- Node29 -->
<g id="Node000029" class="node">
<title>Node29</title>
<g id="a_Node000029"><a xlink:href="Reporter_8cuh_source.html" target="_top" xlink:title=" ">
<polygon fill="white" stroke="#666666" points="964,-404 886,-404 886,-385 964,-385 964,-404"/>
<text text-anchor="middle" x="925" y="-392" font-family="Helvetica,sans-Serif" font-size="10.00">Reporter.cuh</text>
</a>
</g>
</g>
<!-- Node1&#45;&gt;Node29 -->
<g id="edge63_Node000001_Node000029" class="edge">
<title>Node1&#45;&gt;Node29</title>
<g id="a_edge63_Node000001_Node000029"><a xlink:title=" ">
<path fill="none" stroke="#63b8ff" d="M684.65,-507.93C738.56,-504.36 814.68,-492.96 872,-459 890.85,-447.83 906.06,-427.42 915.27,-412.75"/>
<polygon fill="#63b8ff" stroke="#63b8ff" points="918.32,-414.47 920.43,-404.09 912.3,-410.89 918.32,-414.47"/>
</a>
</g>
</g>
<!-- Node30 -->
<g id="Node000030" class="node">
<title>Node30</title>
<g id="a_Node000030"><a xlink:href="CheckPointer_8cuh.html" target="_top" xlink:title="Defines the CheckPointer class for saving and restoring simulation state in the CLIP LBM framework.">
<polygon fill="white" stroke="#666666" points="728.5,-404 627.5,-404 627.5,-385 728.5,-385 728.5,-404"/>
<text text-anchor="middle" x="678" y="-392" font-family="Helvetica,sans-Serif" font-size="10.00">CheckPointer.cuh</text>
</a>
</g>
</g>
<!-- Node1&#45;&gt;Node30 -->
<g id="edge70_Node000001_Node000030" class="edge">
<title>Node1&#45;&gt;Node30</title>
<g id="a_edge70_Node000001_Node000030"><a xlink:title=" ">
<path fill="none" stroke="#63b8ff" d="M625.6,-494.63C636.54,-473.93 656.71,-435.78 668.58,-413.32"/>
<polygon fill="#63b8ff" stroke="#63b8ff" points="671.81,-414.71 673.39,-404.23 665.62,-411.43 671.81,-414.71"/>
</a>
</g>
</g>
<!-- Node2&#45;&gt;Node3 -->
<g id="edge2_Node000002_Node000003" class="edge">
<title>Node2&#45;&gt;Node3</title>
<g id="a_edge2_Node000002_Node000003"><a xlink:title=" ">
<path fill="none" stroke="#63b8ff" d="M567.39,-164.98C583.57,-156.57 608.57,-143.59 627.38,-133.81"/>
<polygon fill="#63b8ff" stroke="#63b8ff" points="629.05,-136.89 636.31,-129.17 625.83,-130.68 629.05,-136.89"/>
</a>
</g>
</g>
<!-- Node4 -->
<g id="Node000004" class="node">
<title>Node4</title>
<g id="a_Node000004"><a xlink:title=" ">
<polygon fill="#e0e0e0" stroke="#999999" points="959,-19 899,-19 899,0 959,0 959,-19"/>
<text text-anchor="middle" x="929" y="-7" font-family="Helvetica,sans-Serif" font-size="10.00">iostream</text>
</a>
</g>
</g>
<!-- Node3&#45;&gt;Node4 -->
<g id="edge3_Node000003_Node000004" class="edge">
<title>Node3&#45;&gt;Node4</title>
<g id="a_edge3_Node000003_Node000004"><a xlink:title=" ">
<path fill="none" stroke="#63b8ff" d="M686.18,-118.49C754.41,-117.7 906.76,-111.64 939,-74 949.75,-61.45 944.72,-42.18 938.57,-28.15"/>
<polygon fill="#63b8ff" stroke="#63b8ff" points="941.64,-26.48 934.1,-19.04 935.36,-29.56 941.64,-26.48"/>
</a>
</g>
</g>
<!-- Node5 -->
<g id="Node000005" class="node">
<title>Node5</title>
<g id="a_Node000005"><a xlink:title=" ">
<polygon fill="#e0e0e0" stroke="#999999" points="930.5,-74 875.5,-74 875.5,-55 930.5,-55 930.5,-74"/>
<text text-anchor="middle" x="903" y="-62" font-family="Helvetica,sans-Serif" font-size="10.00">fstream</text>
</a>
</g>
</g>
<!-- Node3&#45;&gt;Node5 -->
<g id="edge4_Node000003_Node000005" class="edge">
<title>Node3&#45;&gt;Node5</title>
<g id="a_edge4_Node000003_Node000005"><a xlink:title=" ">
<path fill="none" stroke="#63b8ff" d="M686.25,-111.77C726.31,-103.61 795.92,-89.28 865.34,-74.11"/>
<polygon fill="#63b8ff" stroke="#63b8ff" points="866.11,-77.52 875.13,-71.96 864.62,-70.69 866.11,-77.52"/>
</a>
</g>
</g>
<!-- Node6 -->
<g id="Node000006" class="node">
<title>Node6</title>
<g id="a_Node000006"><a xlink:title=" ">
<polygon fill="#e0e0e0" stroke="#999999" points="98,-19 54,-19 54,0 98,0 98,-19"/>
<text text-anchor="middle" x="76" y="-7" font-family="Helvetica,sans-Serif" font-size="10.00">string</text>
</a>
</g>
</g>
<!-- Node3&#45;&gt;Node6 -->
<g id="edge5_Node000003_Node000006" class="edge">
<title>Node3&#45;&gt;Node6</title>
<g id="a_edge5_Node000003_Node000006"><a xlink:title=" ">
<path fill="none" stroke="#63b8ff" d="M619.77,-118C505.86,-116.01 135.86,-107.03 95,-74 81.87,-63.38 77.55,-44.07 76.25,-29.52"/>
<polygon fill="#63b8ff" stroke="#63b8ff" points="79.73,-28.95 75.75,-19.13 72.74,-29.29 79.73,-28.95"/>
</a>
</g>
</g>
<!-- Node7 -->
<g id="Node000007" class="node">
<title>Node7</title>
<g id="a_Node000007"><a xlink:title=" ">
<polygon fill="#e0e0e0" stroke="#999999" points="1043,-74 987,-74 987,-55 1043,-55 1043,-74"/>
<text text-anchor="middle" x="1015" y="-62" font-family="Helvetica,sans-Serif" font-size="10.00">sstream</text>
</a>
</g>
</g>
<!-- Node3&#45;&gt;Node7 -->
<g id="edge6_Node000003_Node000007" class="edge">
<title>Node3&#45;&gt;Node7</title>
<g id="a_edge6_Node000003_Node000007"><a xlink:title=" ">
<path fill="none" stroke="#63b8ff" d="M686.27,-114.56C744.54,-107.5 868.78,-91.78 973,-74 974.1,-73.81 975.22,-73.62 976.34,-73.42"/>
<polygon fill="#63b8ff" stroke="#63b8ff" points="977.39,-76.78 986.58,-71.5 976.1,-69.9 977.39,-76.78"/>
</a>
</g>
</g>
<!-- Node8 -->
<g id="Node000008" class="node">
<title>Node8</title>
<g id="a_Node000008"><a xlink:title=" ">
<polygon fill="#e0e0e0" stroke="#999999" points="1108.5,-74 1061.5,-74 1061.5,-55 1108.5,-55 1108.5,-74"/>
<text text-anchor="middle" x="1085" y="-62" font-family="Helvetica,sans-Serif" font-size="10.00">vector</text>
</a>
</g>
</g>
<!-- Node3&#45;&gt;Node8 -->
<g id="edge7_Node000003_Node000008" class="edge">
<title>Node3&#45;&gt;Node8</title>
<g id="a_edge7_Node000003_Node000008"><a xlink:title=" ">
<path fill="none" stroke="#63b8ff" d="M686.07,-116.4C753.11,-111.79 909.88,-99.31 1051.15,-73.88"/>
<polygon fill="#63b8ff" stroke="#63b8ff" points="1052.09,-77.27 1061.3,-72.03 1050.83,-70.39 1052.09,-77.27"/>
</a>
</g>
</g>
<!-- Node9 -->
<g id="Node000009" class="node">
<title>Node9</title>
<g id="a_Node000009"><a xlink:title=" ">
<polygon fill="#e0e0e0" stroke="#999999" points="1177,-74 1127,-74 1127,-55 1177,-55 1177,-74"/>
<text text-anchor="middle" x="1152" y="-62" font-family="Helvetica,sans-Serif" font-size="10.00">cstring</text>
</a>
</g>
</g>
<!-- Node3&#45;&gt;Node9 -->
<g id="edge8_Node000003_Node000009" class="edge">
<title>Node3&#45;&gt;Node9</title>
<g id="a_edge8_Node000003_Node000009"><a xlink:title=" ">
<path fill="none" stroke="#63b8ff" d="M686.12,-116.95C762.52,-113.02 956.8,-100.99 1117,-74 1117.1,-73.98 1117.2,-73.97 1117.3,-73.95"/>
<polygon fill="#63b8ff" stroke="#63b8ff" points="1117.72,-77.43 1126.85,-72.06 1116.36,-70.57 1117.72,-77.43"/>
</a>
</g>
</g>
<!-- Node10 -->
<g id="Node000010" class="node">
<title>Node10</title>
<g id="a_Node000010"><a xlink:title=" ">
<polygon fill="#e0e0e0" stroke="#999999" points="160,-74 104,-74 104,-55 160,-55 160,-74"/>
<text text-anchor="middle" x="132" y="-62" font-family="Helvetica,sans-Serif" font-size="10.00">iomanip</text>
</a>
</g>
</g>
<!-- Node3&#45;&gt;Node10 -->
<g id="edge9_Node000003_Node000010" class="edge">
<title>Node3&#45;&gt;Node10</title>
<g id="a_edge9_Node000003_Node000010"><a xlink:title=" ">
<path fill="none" stroke="#63b8ff" d="M619.95,-116.99C542.81,-113.15 344.84,-101.39 170.09,-73.96"/>
<polygon fill="#63b8ff" stroke="#63b8ff" points="170.63,-70.5 160.21,-72.39 169.53,-77.42 170.63,-70.5"/>
</a>
</g>
</g>
<!-- Node11 -->
<g id="Node000011" class="node">
<title>Node11</title>
<g id="a_Node000011"><a xlink:title=" ">
<polygon fill="#e0e0e0" stroke="#999999" points="246,-74 178,-74 178,-55 246,-55 246,-74"/>
<text text-anchor="middle" x="212" y="-62" font-family="Helvetica,sans-Serif" font-size="10.00">filesystem</text>
</a>
</g>
</g>
<!-- Node3&#45;&gt;Node11 -->
<g id="edge10_Node000003_Node000011" class="edge">
<title>Node3&#45;&gt;Node11</title>
<g id="a_edge10_Node000003_Node000011"><a xlink:title=" ">
<path fill="none" stroke="#63b8ff" d="M619.85,-115.74C553.03,-109.97 397.21,-95.5 256.34,-74.09"/>
<polygon fill="#63b8ff" stroke="#63b8ff" points="256.64,-70.59 246.22,-72.53 255.57,-77.51 256.64,-70.59"/>
</a>
</g>
</g>
<!-- Node12 -->
<g id="Node000012" class="node">
<title>Node12</title>
<g id="a_Node000012"><a xlink:title=" ">
<polygon fill="#e0e0e0" stroke="#999999" points="821.5,-19 756.5,-19 756.5,0 821.5,0 821.5,-19"/>
<text text-anchor="middle" x="789" y="-7" font-family="Helvetica,sans-Serif" font-size="10.00">stdexcept</text>
</a>
</g>
</g>
<!-- Node3&#45;&gt;Node12 -->
<g id="edge11_Node000003_Node000012" class="edge">
<title>Node3&#45;&gt;Node12</title>
<g id="a_edge11_Node000003_Node000012"><a xlink:title=" ">
<path fill="none" stroke="#63b8ff" d="M676.08,-109.99C694.63,-102.41 720.69,-90.04 740,-74 755.84,-60.84 769.73,-41.7 778.64,-27.87"/>
<polygon fill="#63b8ff" stroke="#63b8ff" points="781.66,-29.63 783.97,-19.29 775.72,-25.94 781.66,-29.63"/>
</a>
</g>
</g>
<!-- Node13 -->
<g id="Node000013" class="node">
<title>Node13</title>
<g id="a_Node000013"><a xlink:title=" ">
<polygon fill="#e0e0e0" stroke="#999999" points="328,-74 264,-74 264,-55 328,-55 328,-74"/>
<text text-anchor="middle" x="296" y="-62" font-family="Helvetica,sans-Serif" font-size="10.00">algorithm</text>
</a>
</g>
</g>
<!-- Node3&#45;&gt;Node13 -->
<g id="edge12_Node000003_Node000013" class="edge">
<title>Node3&#45;&gt;Node13</title>
<g id="a_edge12_Node000003_Node000013"><a xlink:title=" ">
<path fill="none" stroke="#63b8ff" d="M619.68,-114.53C563.68,-107.69 446.96,-92.78 338.34,-74.14"/>
<polygon fill="#63b8ff" stroke="#63b8ff" points="338.64,-70.64 328.19,-72.38 337.45,-77.53 338.64,-70.64"/>
</a>
</g>
</g>
<!-- Node14 -->
<g id="Node000014" class="node">
<title>Node14</title>
<g id="a_Node000014"><a xlink:title=" ">
<polygon fill="#e0e0e0" stroke="#999999" points="395.5,-74 346.5,-74 346.5,-55 395.5,-55 395.5,-74"/>
<text text-anchor="middle" x="371" y="-62" font-family="Helvetica,sans-Serif" font-size="10.00">cctype</text>
</a>
</g>
</g>
<!-- Node3&#45;&gt;Node14 -->
<g id="edge13_Node000003_Node000014" class="edge">
<title>Node3&#45;&gt;Node14</title>
<g id="a_edge13_Node000003_Node000014"><a xlink:title=" ">
<path fill="none" stroke="#63b8ff" d="M619.97,-113.3C574.12,-105.93 488.41,-91.57 405.65,-74.01"/>
<polygon fill="#63b8ff" stroke="#63b8ff" points="406.35,-70.58 395.84,-71.91 404.88,-77.43 406.35,-70.58"/>
</a>
</g>
</g>
<!-- Node15 -->
<g id="Node000015" class="node">
<title>Node15</title>
<g id="a_Node000015"><a xlink:title=" ">
<polygon fill="#e0e0e0" stroke="#999999" points="446,-74 414,-74 414,-55 446,-55 446,-74"/>
<text text-anchor="middle" x="430" y="-62" font-family="Helvetica,sans-Serif" font-size="10.00">set</text>
</a>
</g>
</g>
<!-- Node3&#45;&gt;Node15 -->
<g id="edge14_Node000003_Node000015" class="edge">
<title>Node3&#45;&gt;Node15</title>
<g id="a_edge14_Node000003_Node000015"><a xlink:title=" ">
<path fill="none" stroke="#63b8ff" d="M619.8,-112.17C582.18,-104.74 518.88,-91.51 455.77,-73.98"/>
<polygon fill="#63b8ff" stroke="#63b8ff" points="456.63,-70.58 446.06,-71.24 454.74,-77.32 456.63,-70.58"/>
</a>
</g>
</g>
<!-- Node16 -->
<g id="Node000016" class="node">
<title>Node16</title>
<g id="a_Node000016"><a xlink:title=" ">
<polygon fill="#e0e0e0" stroke="#999999" points="556,-74 464,-74 464,-55 556,-55 556,-74"/>
<text text-anchor="middle" x="510" y="-62" font-family="Helvetica,sans-Serif" font-size="10.00">cuda_runtime.h</text>
</a>
</g>
</g>
<!-- Node3&#45;&gt;Node16 -->
<g id="edge15_Node000003_Node000016" class="edge">
<title>Node3&#45;&gt;Node16</title>
<g id="a_edge15_Node000003_Node000016"><a xlink:title=" ">
<path fill="none" stroke="#63b8ff" d="M630.02,-109.98C606.5,-101.27 569.71,-87.63 543.06,-77.75"/>
<polygon fill="#63b8ff" stroke="#63b8ff" points="543.99,-74.36 533.39,-74.17 541.55,-80.93 543.99,-74.36"/>
</a>
</g>
</g>
<!-- Node17 -->
<g id="Node000017" class="node">
<title>Node17</title>
<g id="a_Node000017"><a xlink:title=" ">
<polygon fill="#e0e0e0" stroke="#999999" points="731.5,-74 574.5,-74 574.5,-55 731.5,-55 731.5,-74"/>
<text text-anchor="middle" x="653" y="-62" font-family="Helvetica,sans-Serif" font-size="10.00">device_launch_parameters.h</text>
</a>
</g>
</g>
<!-- Node3&#45;&gt;Node17 -->
<g id="edge16_Node000003_Node000017" class="edge">
<title>Node3&#45;&gt;Node17</title>
<g id="a_edge16_Node000003_Node000017"><a xlink:title=" ">
<path fill="none" stroke="#63b8ff" d="M653,-109.75C653,-102.8 653,-92.85 653,-84.13"/>
<polygon fill="#63b8ff" stroke="#63b8ff" points="656.5,-84.09 653,-74.09 649.5,-84.09 656.5,-84.09"/>
</a>
</g>
</g>
<!-- Node18 -->
<g id="Node000018" class="node">
<title>Node18</title>
<g id="a_Node000018"><a xlink:href="DataTypes_8cuh.html" target="_top" xlink:title="Core type definitions and macros for precision control, dimensionality, and indexing in CLIP.">
<polygon fill="white" stroke="#666666" points="1283,-74 1195,-74 1195,-55 1283,-55 1283,-74"/>
<text text-anchor="middle" x="1239" y="-62" font-family="Helvetica,sans-Serif" font-size="10.00">DataTypes.cuh</text>
</a>
</g>
</g>
<!-- Node3&#45;&gt;Node18 -->
<g id="edge17_Node000003_Node000018" class="edge">
<title>Node3&#45;&gt;Node18</title>
<g id="a_edge17_Node000003_Node000018"><a xlink:title=" ">
<path fill="none" stroke="#63b8ff" d="M686.15,-116.61C768.6,-111.72 989.77,-97.45 1184.65,-74.07"/>
<polygon fill="#63b8ff" stroke="#63b8ff" points="1185.28,-77.52 1194.79,-72.85 1184.44,-70.57 1185.28,-77.52"/>
</a>
</g>
</g>
<!-- Node19 -->
<g id="Node000019" class="node">
<title>Node19</title>
<g id="a_Node000019"><a xlink:href="Logger_8cuh.html" target="_top" xlink:title="Defines the Logger class for standardized colored console output and error handling in the CLIP frame...">
<polygon fill="white" stroke="#666666" points="857.5,-74 788.5,-74 788.5,-55 857.5,-55 857.5,-74"/>
<text text-anchor="middle" x="823" y="-62" font-family="Helvetica,sans-Serif" font-size="10.00">Logger.cuh</text>
</a>
</g>
</g>
<!-- Node3&#45;&gt;Node19 -->
<g id="edge18_Node000003_Node000019" class="edge">
<title>Node3&#45;&gt;Node19</title>
<g id="a_edge18_Node000003_Node000019"><a xlink:title=" ">
<path fill="none" stroke="#63b8ff" d="M680.31,-109.98C708.85,-101.09 753.83,-87.07 785.64,-77.15"/>
<polygon fill="#63b8ff" stroke="#63b8ff" points="786.97,-80.4 795.47,-74.08 784.88,-73.72 786.97,-80.4"/>
</a>
</g>
</g>
<!-- Node19&#45;&gt;Node4 -->
<g id="edge19_Node000019_Node000004" class="edge">
<title>Node19&#45;&gt;Node4</title>
<g id="a_edge19_Node000019_Node000004"><a xlink:title=" ">
<path fill="none" stroke="#63b8ff" d="M840.03,-54.98C856.93,-46.54 883.06,-33.47 902.64,-23.68"/>
<polygon fill="#63b8ff" stroke="#63b8ff" points="904.28,-26.77 911.66,-19.17 901.15,-20.51 904.28,-26.77"/>
</a>
</g>
</g>
<!-- Node19&#45;&gt;Node6 -->
<g id="edge20_Node000019_Node000006" class="edge">
<title>Node19&#45;&gt;Node6</title>
<g id="a_edge20_Node000019_Node000006"><a xlink:title=" ">
<path fill="none" stroke="#63b8ff" d="M788.3,-59.67C773.43,-58.1 755.88,-56.34 740,-55 497.51,-34.46 204.54,-17.6 108.32,-12.26"/>
<polygon fill="#63b8ff" stroke="#63b8ff" points="108.27,-8.75 98.09,-11.7 107.88,-15.74 108.27,-8.75"/>
</a>
</g>
</g>
<!-- Node19&#45;&gt;Node12 -->
<g id="edge21_Node000019_Node000012" class="edge">
<title>Node19&#45;&gt;Node12</title>
<g id="a_edge21_Node000019_Node000012"><a xlink:title=" ">
<path fill="none" stroke="#63b8ff" d="M817.39,-54.75C812.68,-47.42 805.83,-36.73 800.03,-27.7"/>
<polygon fill="#63b8ff" stroke="#63b8ff" points="802.86,-25.62 794.51,-19.09 796.96,-29.4 802.86,-25.62"/>
</a>
</g>
</g>
<!-- Node20&#45;&gt;Node2 -->
<g id="edge25_Node000020_Node000002" class="edge">
<title>Node20&#45;&gt;Node2</title>
<g id="a_edge25_Node000020_Node000002"><a xlink:title=" ">
<path fill="none" stroke="#63b8ff" d="M855.04,-329.93C853.22,-316.96 848.3,-292.06 836,-275 811.61,-241.18 798.1,-236.93 760,-220 709.63,-197.62 647.32,-186.23 603.9,-180.61"/>
<polygon fill="#63b8ff" stroke="#63b8ff" points="604.19,-177.12 593.84,-179.36 603.33,-184.06 604.19,-177.12"/>
</a>
</g>
</g>
<!-- Node20&#45;&gt;Node3 -->
<g id="edge24_Node000020_Node000003" class="edge">
<title>Node20&#45;&gt;Node3</title>
<g id="a_edge24_Node000020_Node000003"><a xlink:title=" ">
<path fill="none" stroke="#63b8ff" d="M863.89,-329.82C887.83,-302.43 955.45,-216.55 912,-165 884.93,-132.88 762.79,-123.94 696.36,-121.46"/>
<polygon fill="#63b8ff" stroke="#63b8ff" points="696.31,-117.95 686.2,-121.11 696.07,-124.95 696.31,-117.95"/>
</a>
</g>
</g>
<!-- Node21&#45;&gt;Node2 -->
<g id="edge28_Node000021_Node000002" class="edge">
<title>Node21&#45;&gt;Node2</title>
<g id="a_edge28_Node000021_Node000002"><a xlink:title=" ">
<path fill="none" stroke="#63b8ff" d="M228.46,-439.86C230.22,-413.28 238.33,-331.12 273,-275 292.54,-243.38 302.71,-236.53 336,-220 363.9,-206.14 443.83,-191.84 497.97,-183.31"/>
<polygon fill="#63b8ff" stroke="#63b8ff" points="498.75,-186.73 508.1,-181.73 497.68,-179.81 498.75,-186.73"/>
</a>
</g>
</g>
<!-- Node21&#45;&gt;Node3 -->
<g id="edge27_Node000021_Node000003" class="edge">
<title>Node21&#45;&gt;Node3</title>
<g id="a_edge27_Node000021_Node000003"><a xlink:title=" ">
<path fill="none" stroke="#63b8ff" d="M190.86,-447.29C126.25,-443 0,-423.94 0,-340.5 0,-340.5 0,-340.5 0,-228.5 0,-170.5 58.51,-181.88 114,-165 206.46,-136.87 498.76,-125.21 609.71,-121.72"/>
<polygon fill="#63b8ff" stroke="#63b8ff" points="609.98,-125.21 619.87,-121.4 609.77,-118.21 609.98,-125.21"/>
</a>
</g>
</g>
<!-- Node22 -->
<g id="Node000022" class="node">
<title>Node22</title>
<g id="a_Node000022"><a xlink:href="Solver_8cuh.html" target="_top" xlink:title="Declares the base Solver class that implements common boundary condition logic and field&#45;level utilit...">
<polygon fill="white" stroke="#666666" points="323.5,-404 256.5,-404 256.5,-385 323.5,-385 323.5,-404"/>
<text text-anchor="middle" x="290" y="-392" font-family="Helvetica,sans-Serif" font-size="10.00">Solver.cuh</text>
</a>
</g>
</g>
<!-- Node21&#45;&gt;Node22 -->
<g id="edge29_Node000021_Node000022" class="edge">
<title>Node21&#45;&gt;Node22</title>
<g id="a_edge29_Node000021_Node000022"><a xlink:title=" ">
<path fill="none" stroke="#63b8ff" d="M237.96,-439.98C247.13,-432.15 260.94,-420.34 272.03,-410.86"/>
<polygon fill="#63b8ff" stroke="#63b8ff" points="274.53,-413.33 279.86,-404.17 269.98,-408.01 274.53,-413.33"/>
</a>
</g>
</g>
<!-- Node21&#45;&gt;Node25 -->
<g id="edge52_Node000021_Node000025" class="edge">
<title>Node21&#45;&gt;Node25</title>
<g id="a_edge52_Node000021_Node000025"><a xlink:title=" ">
<path fill="none" stroke="#63b8ff" d="M251.24,-439.84C302.7,-420.68 426.36,-374.63 485.47,-352.62"/>
<polygon fill="#63b8ff" stroke="#63b8ff" points="486.9,-355.82 495.05,-349.05 484.46,-349.26 486.9,-355.82"/>
</a>
</g>
</g>
<!-- Node26 -->
<g id="Node000026" class="node">
<title>Node26</title>
<g id="a_Node000026"><a xlink:href="WMRT_8cuh.html" target="_top" xlink:title="Implements the Weighted Multiple Relaxation Time (WMRT) conversion and reconstruction operators for t...">
<polygon fill="white" stroke="#666666" points="285.5,-239 218.5,-239 218.5,-220 285.5,-220 285.5,-239"/>
<text text-anchor="middle" x="252" y="-227" font-family="Helvetica,sans-Serif" font-size="10.00">WMRT.cuh</text>
</a>
</g>
</g>
<!-- Node21&#45;&gt;Node26 -->
<g id="edge53_Node000021_Node000026" class="edge">
<title>Node21&#45;&gt;Node26</title>
<g id="a_edge53_Node000021_Node000026"><a xlink:title=" ">
<path fill="none" stroke="#63b8ff" d="M224.4,-439.82C220.94,-430.99 215.97,-416.81 214,-404 205.3,-347.33 194.16,-328.79 214,-275 218.06,-263.99 226.19,-253.86 233.9,-246.05"/>
<polygon fill="#63b8ff" stroke="#63b8ff" points="236.42,-248.48 241.29,-239.07 231.61,-243.39 236.42,-248.48"/>
</a>
</g>
</g>
<!-- Node21&#45;&gt;Node27 -->
<g id="edge54_Node000021_Node000027" class="edge">
<title>Node21&#45;&gt;Node27</title>
<g id="a_edge54_Node000021_Node000027"><a xlink:title=" ">
<path fill="none" stroke="#63b8ff" d="M200.06,-439.88C180.73,-432.77 155.45,-421.06 138,-404 108.49,-375.16 90.08,-329.26 81.57,-303.88"/>
<polygon fill="#63b8ff" stroke="#63b8ff" points="84.82,-302.54 78.44,-294.08 78.15,-304.67 84.82,-302.54"/>
</a>
</g>
</g>
<!-- Node22&#45;&gt;Node2 -->
<g id="edge31_Node000022_Node000002" class="edge">
<title>Node22&#45;&gt;Node2</title>
<g id="a_edge31_Node000022_Node000002"><a xlink:title=" ">
<path fill="none" stroke="#63b8ff" d="M286.41,-384.8C278.36,-363.79 261.38,-309.48 285,-275 310.33,-238.02 433.84,-203.38 503.31,-186.41"/>
<polygon fill="#63b8ff" stroke="#63b8ff" points="504.25,-189.78 513.15,-184.04 502.6,-182.98 504.25,-189.78"/>
</a>
</g>
</g>
<!-- Node22&#45;&gt;Node3 -->
<g id="edge30_Node000022_Node000003" class="edge">
<title>Node22&#45;&gt;Node3</title>
<g id="a_edge30_Node000022_Node000003"><a xlink:title=" ">
<path fill="none" stroke="#63b8ff" d="M282.68,-384.86C264.32,-362.55 216.59,-300.44 200,-239 188.28,-195.59 227.48,-182.27 269,-165 329.74,-139.74 522.62,-127.07 609.66,-122.52"/>
<polygon fill="#63b8ff" stroke="#63b8ff" points="609.92,-126.01 619.73,-122.01 609.56,-119.02 609.92,-126.01"/>
</a>
</g>
</g>
<!-- Node22&#45;&gt;Node23 -->
<g id="edge32_Node000022_Node000023" class="edge">
<title>Node22&#45;&gt;Node23</title>
<g id="a_edge32_Node000022_Node000023"><a xlink:title=" ">
<path fill="none" stroke="#63b8ff" d="M293.68,-384.66C301.04,-367.01 317.67,-327.09 327.44,-303.64"/>
<polygon fill="#63b8ff" stroke="#63b8ff" points="330.78,-304.74 331.39,-294.16 324.32,-302.04 330.78,-304.74"/>
</a>
</g>
</g>
<!-- Node24 -->
<g id="Node000024" class="node">
<title>Node24</title>
<g id="a_Node000024"><a xlink:href="Domain_8cuh.html" target="_top" xlink:title="Defines the Domain class for managing spatial extents, indexing, and boundary checks in the CLIP LBM ...">
<polygon fill="white" stroke="#666666" points="588.5,-239 513.5,-239 513.5,-220 588.5,-220 588.5,-239"/>
<text text-anchor="middle" x="551" y="-227" font-family="Helvetica,sans-Serif" font-size="10.00">Domain.cuh</text>
</a>
</g>
</g>
<!-- Node22&#45;&gt;Node24 -->
<g id="edge38_Node000022_Node000024" class="edge">
<title>Node22&#45;&gt;Node24</title>
<g id="a_edge38_Node000022_Node000024"><a xlink:title=" ">
<path fill="none" stroke="#63b8ff" d="M303.67,-384.97C346.11,-358.46 475.99,-277.35 528.56,-244.52"/>
<polygon fill="#63b8ff" stroke="#63b8ff" points="530.53,-247.41 537.16,-239.15 526.82,-241.47 530.53,-247.41"/>
</a>
</g>
</g>
<!-- Node22&#45;&gt;Node25 -->
<g id="edge39_Node000022_Node000025" class="edge">
<title>Node22&#45;&gt;Node25</title>
<g id="a_edge39_Node000022_Node000025"><a xlink:title=" ">
<path fill="none" stroke="#63b8ff" d="M323.64,-385.68C362.71,-376.6 427.41,-361.56 471.33,-351.35"/>
<polygon fill="#63b8ff" stroke="#63b8ff" points="472.25,-354.73 481.19,-349.06 470.66,-347.91 472.25,-354.73"/>
</a>
</g>
</g>
<!-- Node22&#45;&gt;Node27 -->
<g id="edge47_Node000022_Node000027" class="edge">
<title>Node22&#45;&gt;Node27</title>
<g id="a_edge47_Node000022_Node000027"><a xlink:title=" ">
<path fill="none" stroke="#63b8ff" d="M264.03,-384.98C240.51,-376.89 205.19,-363.79 176,-349 147.05,-334.33 115.78,-313.61 96.07,-299.88"/>
<polygon fill="#63b8ff" stroke="#63b8ff" points="98.06,-297 87.87,-294.11 94.03,-302.73 98.06,-297"/>
</a>
</g>
</g>
<!-- Node23&#45;&gt;Node2 -->
<g id="edge33_Node000023_Node000002" class="edge">
<title>Node23&#45;&gt;Node2</title>
<g id="a_edge33_Node000023_Node000002"><a xlink:title=" ">
<path fill="none" stroke="#63b8ff" d="M352.31,-274.84C390.08,-255.96 480.09,-210.96 524.83,-188.59"/>
<polygon fill="#63b8ff" stroke="#63b8ff" points="526.53,-191.65 533.91,-184.05 523.4,-185.39 526.53,-191.65"/>
</a>
</g>
</g>
<!-- Node23&#45;&gt;Node3 -->
<g id="edge34_Node000023_Node000003" class="edge">
<title>Node23&#45;&gt;Node3</title>
<g id="a_edge34_Node000023_Node000003"><a xlink:title=" ">
<path fill="none" stroke="#63b8ff" d="M293.65,-278.02C247.77,-270.19 183.37,-252.98 209,-220 258.1,-156.83 507.53,-131.33 609.48,-123.44"/>
<polygon fill="#63b8ff" stroke="#63b8ff" points="610.03,-126.91 619.74,-122.66 609.5,-119.93 610.03,-126.91"/>
</a>
</g>
</g>
<!-- Node23&#45;&gt;Node24 -->
<g id="edge35_Node000023_Node000024" class="edge">
<title>Node23&#45;&gt;Node24</title>
<g id="a_edge35_Node000023_Node000024"><a xlink:title=" ">
<path fill="none" stroke="#63b8ff" d="M369.7,-274.98C406.75,-265.89 465.59,-251.46 506.13,-241.51"/>
<polygon fill="#63b8ff" stroke="#63b8ff" points="507.15,-244.86 516.02,-239.08 505.48,-238.07 507.15,-244.86"/>
</a>
</g>
</g>
<!-- Node24&#45;&gt;Node2 -->
<g id="edge37_Node000024_Node000002" class="edge">
<title>Node24&#45;&gt;Node2</title>
<g id="a_edge37_Node000024_Node000002"><a xlink:title=" ">
<path fill="none" stroke="#63b8ff" d="M551,-219.75C551,-212.8 551,-202.85 551,-194.13"/>
<polygon fill="#63b8ff" stroke="#63b8ff" points="554.5,-194.09 551,-184.09 547.5,-194.09 554.5,-194.09"/>
</a>
</g>
</g>
<!-- Node24&#45;&gt;Node3 -->
<g id="edge36_Node000024_Node000003" class="edge">
<title>Node24&#45;&gt;Node3</title>
<g id="a_edge36_Node000024_Node000003"><a xlink:title=" ">
<path fill="none" stroke="#63b8ff" d="M562.05,-219.82C572.73,-211.21 589.14,-197.39 602,-184 616.32,-169.08 630.92,-150.48 640.81,-137.28"/>
<polygon fill="#63b8ff" stroke="#63b8ff" points="643.72,-139.24 646.84,-129.11 638.09,-135.08 643.72,-139.24"/>
</a>
</g>
</g>
<!-- Node25&#45;&gt;Node2 -->
<g id="edge41_Node000025_Node000002" class="edge">
<title>Node25&#45;&gt;Node2</title>
<g id="a_edge41_Node000025_Node000002"><a xlink:title=" ">
<path fill="none" stroke="#63b8ff" d="M514.06,-329.74C505.56,-309.49 487.54,-258.25 504,-220 509.15,-208.03 519.29,-197.76 528.83,-190.12"/>
<polygon fill="#63b8ff" stroke="#63b8ff" points="530.99,-192.88 536.93,-184.11 526.81,-187.26 530.99,-192.88"/>
</a>
</g>
</g>
<!-- Node25&#45;&gt;Node3 -->
<g id="edge40_Node000025_Node000003" class="edge">
<title>Node25&#45;&gt;Node3</title>
<g id="a_edge40_Node000025_Node000003"><a xlink:title=" ">
<path fill="none" stroke="#63b8ff" d="M525.82,-329.9C540.77,-313.18 573.99,-274.82 597,-239 611.82,-215.92 613.24,-208.78 625,-184 632.18,-168.86 639.82,-151.43 645.31,-138.67"/>
<polygon fill="#63b8ff" stroke="#63b8ff" points="648.64,-139.77 649.35,-129.2 642.2,-137.02 648.64,-139.77"/>
</a>
</g>
</g>
<!-- Node25&#45;&gt;Node23 -->
<g id="edge46_Node000025_Node000023" class="edge">
<title>Node25&#45;&gt;Node23</title>
<g id="a_edge46_Node000025_Node000023"><a xlink:title=" ">
<path fill="none" stroke="#63b8ff" d="M488.6,-329.98C457.61,-321.01 408.62,-306.82 374.33,-296.89"/>
<polygon fill="#63b8ff" stroke="#63b8ff" points="375.21,-293.5 364.63,-294.08 373.26,-300.23 375.21,-293.5"/>
</a>
</g>
</g>
<!-- Node25&#45;&gt;Node24 -->
<g id="edge42_Node000025_Node000024" class="edge">
<title>Node25&#45;&gt;Node24</title>
<g id="a_edge42_Node000025_Node000024"><a xlink:title=" ">
<path fill="none" stroke="#63b8ff" d="M520.7,-329.66C526.07,-312.09 538.18,-272.45 545.36,-248.95"/>
<polygon fill="#63b8ff" stroke="#63b8ff" points="548.78,-249.74 548.35,-239.16 542.08,-247.7 548.78,-249.74"/>
</a>
</g>
</g>
<!-- Node25&#45;&gt;Node26 -->
<g id="edge43_Node000025_Node000026" class="edge">
<title>Node25&#45;&gt;Node26</title>
<g id="a_edge43_Node000025_Node000026"><a xlink:title=" ">
<path fill="none" stroke="#63b8ff" d="M501.5,-329.81C476.64,-316.91 427.94,-292.36 385,-275 353.77,-262.38 317.46,-250.4 290.68,-242.06"/>
<polygon fill="#63b8ff" stroke="#63b8ff" points="291.49,-238.65 280.91,-239.05 289.43,-245.34 291.49,-238.65"/>
</a>
</g>
</g>
<!-- Node26&#45;&gt;Node2 -->
<g id="edge45_Node000026_Node000002" class="edge">
<title>Node26&#45;&gt;Node2</title>
<g id="a_edge45_Node000026_Node000002"><a xlink:title=" ">
<path fill="none" stroke="#63b8ff" d="M285.72,-222.52C337.51,-213.34 437.07,-195.69 498.4,-184.82"/>
<polygon fill="#63b8ff" stroke="#63b8ff" points="499.04,-188.26 508.28,-183.07 497.82,-181.37 499.04,-188.26"/>
</a>
</g>
</g>
<!-- Node26&#45;&gt;Node3 -->
<g id="edge44_Node000026_Node000003" class="edge">
<title>Node26&#45;&gt;Node3</title>
<g id="a_edge44_Node000026_Node000003"><a xlink:title=" ">
<path fill="none" stroke="#63b8ff" d="M283.8,-219.94C355.75,-200.56 530.99,-153.36 611.41,-131.7"/>
<polygon fill="#63b8ff" stroke="#63b8ff" points="612.45,-135.05 621.2,-129.07 610.63,-128.29 612.45,-135.05"/>
</a>
</g>
</g>
<!-- Node27&#45;&gt;Node2 -->
<g id="edge48_Node000027_Node000002" class="edge">
<title>Node27&#45;&gt;Node2</title>
<g id="a_edge48_Node000027_Node000002"><a xlink:title=" ">
<path fill="none" stroke="#63b8ff" d="M90.16,-274.88C113.83,-260.9 163.36,-233.49 209,-220 308.54,-190.58 430.09,-180.6 498.2,-177.22"/>
<polygon fill="#63b8ff" stroke="#63b8ff" points="498.43,-180.71 508.26,-176.75 498.11,-173.72 498.43,-180.71"/>
</a>
</g>
</g>
<!-- Node27&#45;&gt;Node3 -->
<g id="edge49_Node000027_Node000003" class="edge">
<title>Node27&#45;&gt;Node3</title>
<g id="a_edge49_Node000027_Node000003"><a xlink:title=" ">
<path fill="none" stroke="#63b8ff" d="M77.62,-274.74C82.3,-252.09 98.19,-191.51 138,-165 176.88,-139.11 493.2,-125.9 609.93,-121.87"/>
<polygon fill="#63b8ff" stroke="#63b8ff" points="610.07,-125.36 619.94,-121.53 609.83,-118.37 610.07,-125.36"/>
</a>
</g>
</g>
<!-- Node27&#45;&gt;Node6 -->
<g id="edge51_Node000027_Node000006" class="edge">
<title>Node27&#45;&gt;Node6</title>
<g id="a_edge51_Node000027_Node000006"><a xlink:title=" ">
<path fill="none" stroke="#63b8ff" d="M70.72,-274.9C60.27,-257.07 38,-214.46 38,-175.5 38,-175.5 38,-175.5 38,-118.5 38,-85.02 54.45,-48.84 65.7,-28.01"/>
<polygon fill="#63b8ff" stroke="#63b8ff" points="68.87,-29.53 70.72,-19.1 62.76,-26.1 68.87,-29.53"/>
</a>
</g>
</g>
<!-- Node27&#45;&gt;Node24 -->
<g id="edge50_Node000027_Node000024" class="edge">
<title>Node27&#45;&gt;Node24</title>
<g id="a_edge50_Node000027_Node000024"><a xlink:title=" ">
<path fill="none" stroke="#63b8ff" d="M118.15,-278.8C206.46,-268.94 410.36,-246.19 503.3,-235.82"/>
<polygon fill="#63b8ff" stroke="#63b8ff" points="503.72,-239.3 513.27,-234.71 502.94,-232.34 503.72,-239.3"/>
</a>
</g>
</g>
<!-- Node28&#45;&gt;Node2 -->
<g id="edge59_Node000028_Node000002" class="edge">
<title>Node28&#45;&gt;Node2</title>
<g id="a_edge59_Node000028_Node000002"><a xlink:title=" ">
<path fill="none" stroke="#63b8ff" d="M784.24,-384.94C771.62,-357.17 728.08,-268.54 666,-220 646.33,-204.62 620.71,-194.02 598.65,-187.03"/>
<polygon fill="#63b8ff" stroke="#63b8ff" points="599.38,-183.6 588.8,-184.07 597.37,-190.3 599.38,-183.6"/>
</a>
</g>
</g>
<!-- Node28&#45;&gt;Node3 -->
<g id="edge58_Node000028_Node000003" class="edge">
<title>Node28&#45;&gt;Node3</title>
<g id="a_edge58_Node000028_Node000003"><a xlink:title=" ">
<path fill="none" stroke="#63b8ff" d="M829.78,-387.2C854.82,-381.34 885.47,-370.16 905,-349 961.05,-288.25 988.44,-225.38 932,-165 900.74,-131.55 766.73,-123.22 696.43,-121.16"/>
<polygon fill="#63b8ff" stroke="#63b8ff" points="696.22,-117.66 686.13,-120.89 696.03,-124.66 696.22,-117.66"/>
</a>
</g>
</g>
<!-- Node28&#45;&gt;Node20 -->
<g id="edge62_Node000028_Node000020" class="edge">
<title>Node28&#45;&gt;Node20</title>
<g id="a_edge62_Node000028_Node000020"><a xlink:title=" ">
<path fill="none" stroke="#63b8ff" d="M798.93,-384.98C809.08,-377.07 824.42,-365.11 836.65,-355.58"/>
<polygon fill="#63b8ff" stroke="#63b8ff" points="839.14,-358.08 844.88,-349.17 834.84,-352.56 839.14,-358.08"/>
</a>
</g>
</g>
<!-- Node28&#45;&gt;Node24 -->
<g id="edge61_Node000028_Node000024" class="edge">
<title>Node28&#45;&gt;Node24</title>
<g id="a_edge61_Node000028_Node000024"><a xlink:title=" ">
<path fill="none" stroke="#63b8ff" d="M775.59,-384.97C737.21,-358.57 620.09,-278.02 571.98,-244.93"/>
<polygon fill="#63b8ff" stroke="#63b8ff" points="573.79,-241.93 563.57,-239.15 569.83,-247.7 573.79,-241.93"/>
</a>
</g>
</g>
<!-- Node28&#45;&gt;Node25 -->
<g id="edge60_Node000028_Node000025" class="edge">
<title>Node28&#45;&gt;Node25</title>
<g id="a_edge60_Node000028_Node000025"><a xlink:title=" ">
<path fill="none" stroke="#63b8ff" d="M746.4,-385.33C699.11,-376.05 621.83,-360.88 570.45,-350.8"/>
<polygon fill="#63b8ff" stroke="#63b8ff" points="571.02,-347.34 560.53,-348.85 569.67,-354.21 571.02,-347.34"/>
</a>
</g>
</g>
<!-- Node29&#45;&gt;Node2 -->
<g id="edge65_Node000029_Node000002" class="edge">
<title>Node29&#45;&gt;Node2</title>
<g id="a_edge65_Node000029_Node000002"><a xlink:title=" ">
<path fill="none" stroke="#63b8ff" d="M927.22,-384.79C929.98,-372.07 933.38,-347.99 925,-330 892.88,-261.09 862.79,-252.37 794,-220 732.82,-191.21 654.85,-181.01 603.96,-177.41"/>
<polygon fill="#63b8ff" stroke="#63b8ff" points="604.05,-173.91 593.84,-176.76 603.6,-180.9 604.05,-173.91"/>
</a>
</g>
</g>
<!-- Node29&#45;&gt;Node3 -->
<g id="edge64_Node000029_Node000003" class="edge">
<title>Node29&#45;&gt;Node3</title>
<g id="a_edge64_Node000029_Node000003"><a xlink:title=" ">
<path fill="none" stroke="#63b8ff" d="M945.99,-384.89C978.67,-369.93 1038,-335.84 1038,-285.5 1038,-285.5 1038,-285.5 1038,-228.5 1038,-181.7 997.16,-183.1 954,-165 867.6,-128.77 756.45,-121.38 696.31,-120.26"/>
<polygon fill="#63b8ff" stroke="#63b8ff" points="696.09,-116.76 686.04,-120.12 696,-123.76 696.09,-116.76"/>
</a>
</g>
</g>
<!-- Node29&#45;&gt;Node18 -->
<g id="edge66_Node000029_Node000018" class="edge">
<title>Node29&#45;&gt;Node18</title>
<g id="a_edge66_Node000029_Node000018"><a xlink:title=" ">
<path fill="none" stroke="#63b8ff" d="M955.64,-384.95C977.4,-377.81 1006.46,-366.04 1028,-349 1128.17,-269.74 1204.96,-131.9 1230.15,-83.18"/>
<polygon fill="#63b8ff" stroke="#63b8ff" points="1233.31,-84.68 1234.73,-74.19 1227.08,-81.51 1233.31,-84.68"/>
</a>
</g>
</g>
<!-- Node29&#45;&gt;Node20 -->
<g id="edge69_Node000029_Node000020" class="edge">
<title>Node29&#45;&gt;Node20</title>
<g id="a_edge69_Node000029_Node000020"><a xlink:title=" ">
<path fill="none" stroke="#63b8ff" d="M913.91,-384.98C903.51,-377 887.74,-364.88 875.28,-355.31"/>
<polygon fill="#63b8ff" stroke="#63b8ff" points="877.35,-352.49 867.29,-349.17 873.09,-358.04 877.35,-352.49"/>
</a>
</g>
</g>
<!-- Node29&#45;&gt;Node24 -->
<g id="edge68_Node000029_Node000024" class="edge">
<title>Node29&#45;&gt;Node24</title>
<g id="a_edge68_Node000029_Node000024"><a xlink:title=" ">
<path fill="none" stroke="#63b8ff" d="M924.77,-384.77C923.92,-371.13 920.27,-344.8 905,-330 820.51,-248.1 674.16,-232.55 598.83,-230.27"/>
<polygon fill="#63b8ff" stroke="#63b8ff" points="598.77,-226.77 588.69,-230.03 598.61,-233.77 598.77,-226.77"/>
</a>
</g>
</g>
<!-- Node29&#45;&gt;Node25 -->
<g id="edge67_Node000029_Node000025" class="edge">
<title>Node29&#45;&gt;Node25</title>
<g id="a_edge67_Node000029_Node000025"><a xlink:title=" ">
<path fill="none" stroke="#63b8ff" d="M885.98,-388.42C812.44,-378.84 653.33,-358.12 570.5,-347.34"/>
<polygon fill="#63b8ff" stroke="#63b8ff" points="570.92,-343.86 560.55,-346.04 570.01,-350.8 570.92,-343.86"/>
</a>
</g>
</g>
<!-- Node30&#45;&gt;Node2 -->
<g id="edge72_Node000030_Node000002" class="edge">
<title>Node30&#45;&gt;Node2</title>
<g id="a_edge72_Node000030_Node000002"><a xlink:title=" ">
<path fill="none" stroke="#63b8ff" d="M678.97,-384.83C681.55,-357.46 685.87,-271.64 646,-220 634.07,-204.55 615.48,-194.24 597.9,-187.47"/>
<polygon fill="#63b8ff" stroke="#63b8ff" points="598.88,-184.11 588.29,-184.06 596.54,-190.7 598.88,-184.11"/>
</a>
</g>
</g>
<!-- Node30&#45;&gt;Node3 -->
<g id="edge71_Node000030_Node000003" class="edge">
<title>Node30&#45;&gt;Node3</title>
<g id="a_edge71_Node000030_Node000003"><a xlink:title=" ">
<path fill="none" stroke="#63b8ff" d="M682.37,-384.91C686.56,-376.14 692.6,-362.01 695,-349 696.53,-340.7 695.53,-338.43 695,-330 690.45,-258.2 668.69,-174.95 658.41,-138.81"/>
<polygon fill="#63b8ff" stroke="#63b8ff" points="661.76,-137.8 655.62,-129.17 655.03,-139.75 661.76,-137.8"/>
</a>
</g>
</g>
<!-- Node30&#45;&gt;Node20 -->
<g id="edge75_Node000030_Node000020" class="edge">
<title>Node30&#45;&gt;Node20</title>
<g id="a_edge75_Node000030_Node000020"><a xlink:title=" ">
<path fill="none" stroke="#63b8ff" d="M706.6,-384.98C736.61,-376.05 783.98,-361.94 817.32,-352.02"/>
<polygon fill="#63b8ff" stroke="#63b8ff" points="818.59,-355.29 827.18,-349.08 816.59,-348.58 818.59,-355.29"/>
</a>
</g>
</g>
<!-- Node30&#45;&gt;Node23 -->
<g id="edge76_Node000030_Node000023" class="edge">
<title>Node30&#45;&gt;Node23</title>
<g id="a_edge76_Node000030_Node000023"><a xlink:title=" ">
<path fill="none" stroke="#63b8ff" d="M627.38,-386.45C583.84,-379.54 519.74,-367.35 466,-349 455.37,-345.37 396.32,-316.16 361.24,-298.64"/>
<polygon fill="#63b8ff" stroke="#63b8ff" points="362.54,-295.39 352.03,-294.05 359.42,-301.65 362.54,-295.39"/>
</a>
</g>
</g>
<!-- Node30&#45;&gt;Node24 -->
<g id="edge74_Node000030_Node000024" class="edge">
<title>Node30&#45;&gt;Node24</title>
<g id="a_edge74_Node000030_Node000024"><a xlink:title=" ">
<path fill="none" stroke="#63b8ff" d="M671.17,-384.74C650.93,-358.76 590.99,-281.83 564.2,-247.44"/>
<polygon fill="#63b8ff" stroke="#63b8ff" points="566.77,-245.04 557.86,-239.31 561.25,-249.35 566.77,-245.04"/>
</a>
</g>
</g>
<!-- Node30&#45;&gt;Node25 -->
<g id="edge73_Node000030_Node000025" class="edge">
<title>Node30&#45;&gt;Node25</title>
<g id="a_edge73_Node000030_Node000025"><a xlink:title=" ">
<path fill="none" stroke="#63b8ff" d="M652.29,-384.98C625.55,-376.13 583.47,-362.19 553.55,-352.28"/>
<polygon fill="#63b8ff" stroke="#63b8ff" points="554.5,-348.9 543.91,-349.08 552.3,-355.55 554.5,-348.9"/>
</a>
</g>
</g>
</g>
</svg>
