<?xml version="1.0" encoding="UTF-8" standalone="no"?>
<!DOCTYPE svg PUBLIC "-//W3C//DTD SVG 1.1//EN"
 "http://www.w3.org/Graphics/SVG/1.1/DTD/svg11.dtd">
<!-- Generated by graphviz version 2.43.0 (0)
 -->
<!-- Title: clip::KernelInitializeDistributions Pages: 1 -->
<svg width="385pt" height="64pt"
 viewBox="0.00 0.00 385.00 64.00" xmlns="http://www.w3.org/2000/svg" xmlns:xlink="http://www.w3.org/1999/xlink">
<g id="graph0" class="graph" transform="scale(1 1) rotate(0) translate(4 60)">
<title>clip::KernelInitializeDistributions</title>
<!-- Node1 -->
<g id="Node000001" class="node">
<title>Node1</title>
<g id="a_Node000001"><a xlink:title="Initializes device&#45;side distributions, density, pressure, velocity, and normals.">
<polygon fill="#999999" stroke="#666666" points="175,-37 0,-37 0,-18 175,-18 175,-37"/>
<text text-anchor="middle" x="87.5" y="-25" font-family="Helvetica,sans-Serif" font-size="10.00">clip::KernelInitializeDistributions</text>
</a>
</g>
</g>
<!-- Node1&#45;&gt;Node1 -->
<g id="edge3_Node000001_Node000001" class="edge">
<title>Node1&#45;&gt;Node1</title>
<g id="a_edge3_Node000001_Node000001"><a xlink:title=" ">
<path fill="none" stroke="#63b8ff" d="M55.75,-37.08C40.3,-45.73 50.89,-55 87.5,-55 113.24,-55 126.12,-50.42 126.12,-44.69"/>
<polygon fill="#63b8ff" stroke="#63b8ff" points="128.55,-42.16 119.25,-37.08 123.36,-46.85 128.55,-42.16"/>
</a>
</g>
</g>
<!-- Node2 -->
<g id="Node000002" class="node">
<title>Node2</title>
<g id="a_Node000002"><a xlink:href="classclip_1_1NSAllen.html#a7d6203503235ed233d07894a044a3373" target="_top" xlink:title="Computes equilibrium distribution for a given velocity set.">
<polygon fill="white" stroke="#666666" points="377,-56 211,-56 211,-37 377,-37 377,-56"/>
<text text-anchor="middle" x="294" y="-44" font-family="Helvetica,sans-Serif" font-size="10.00">clip::NSAllen::Equilibrium_new</text>
</a>
</g>
</g>
<!-- Node1&#45;&gt;Node2 -->
<g id="edge1_Node000001_Node000002" class="edge">
<title>Node1&#45;&gt;Node2</title>
<g id="a_edge1_Node000001_Node000002"><a xlink:title=" ">
<path fill="none" stroke="#63b8ff" d="M175.23,-35.56C183.58,-36.33 192.08,-37.12 200.5,-37.91"/>
<polygon fill="#63b8ff" stroke="#63b8ff" points="200.42,-41.41 210.7,-38.85 201.06,-34.44 200.42,-41.41"/>
</a>
</g>
</g>
<!-- Node3 -->
<g id="Node000003" class="node">
<title>Node3</title>
<g id="a_Node000003"><a xlink:href="classclip_1_1Domain.html#aefd93098e1eb64eab548417bdb281ebf" target="_top" xlink:title="Computes a flattened 1D index for multi&#45;DOF data.">
<polygon fill="white" stroke="#666666" points="357.5,-19 230.5,-19 230.5,0 357.5,0 357.5,-19"/>
<text text-anchor="middle" x="294" y="-7" font-family="Helvetica,sans-Serif" font-size="10.00">clip::Domain::getIndex</text>
</a>
</g>
</g>
<!-- Node1&#45;&gt;Node3 -->
<g id="edge2_Node000001_Node000003" class="edge">
<title>Node1&#45;&gt;Node3</title>
<g id="a_edge2_Node000001_Node000003"><a xlink:title=" ">
<path fill="none" stroke="#63b8ff" d="M175.23,-19.87C190.12,-18.56 205.46,-17.21 219.95,-15.93"/>
<polygon fill="#63b8ff" stroke="#63b8ff" points="220.67,-19.38 230.33,-15.02 220.06,-12.41 220.67,-19.38"/>
</a>
</g>
</g>
</g>
</svg>
