<?xml version="1.0" encoding="UTF-8" standalone="no"?>
<!DOCTYPE svg PUBLIC "-//W3C//DTD SVG 1.1//EN"
 "http://www.w3.org/Graphics/SVG/1.1/DTD/svg11.dtd">
<!-- Generated by graphviz version 2.43.0 (0)
 -->
<!-- Title: clip::kernelMacroscopicf Pages: 1 -->
<svg width="363pt" height="247pt"
 viewBox="0.00 0.00 363.00 246.50" xmlns="http://www.w3.org/2000/svg" xmlns:xlink="http://www.w3.org/1999/xlink">
<g id="graph0" class="graph" transform="scale(1 1) rotate(0) translate(4 242.5)">
<title>clip::kernelMacroscopicf</title>
<!-- Node1 -->
<g id="Node000001" class="node">
<title>Node1</title>
<g id="a_Node000001"><a xlink:title="Computes macroscopic velocity and pressure from f_post, including body forces.">
<polygon fill="#999999" stroke="#666666" points="134,-133.5 0,-133.5 0,-114.5 134,-114.5 134,-133.5"/>
<text text-anchor="middle" x="67" y="-121.5" font-family="Helvetica,sans-Serif" font-size="10.00">clip::kernelMacroscopicf</text>
</a>
</g>
</g>
<!-- Node1&#45;&gt;Node1 -->
<g id="edge5_Node000001_Node000001" class="edge">
<title>Node1&#45;&gt;Node1</title>
<g id="a_edge5_Node000001_Node000001"><a xlink:title=" ">
<path fill="none" stroke="#63b8ff" d="M37.1,-133.58C22.55,-142.23 32.52,-151.5 67,-151.5 90.71,-151.5 102.82,-147.12 103.36,-141.57"/>
<polygon fill="#63b8ff" stroke="#63b8ff" points="105.91,-139.16 96.9,-133.58 100.46,-143.56 105.91,-139.16"/>
</a>
</g>
</g>
<!-- Node2 -->
<g id="Node000002" class="node">
<title>Node2</title>
<g id="a_Node000002"><a xlink:href="classclip_1_1WMRT.html#a9df86c98becc466f03564b4a675c8668" target="_top" xlink:title="Converts a D2Q9 distribution function to weighted moment space.">
<polygon fill="white" stroke="#666666" points="355,-238.5 170,-238.5 170,-219.5 355,-219.5 355,-238.5"/>
<text text-anchor="middle" x="262.5" y="-226.5" font-family="Helvetica,sans-Serif" font-size="10.00">clip::WMRT::convertD2Q9Weighted</text>
</a>
</g>
</g>
<!-- Node1&#45;&gt;Node2 -->
<g id="edge1_Node000001_Node000002" class="edge">
<title>Node1&#45;&gt;Node2</title>
<g id="a_edge1_Node000001_Node000002"><a xlink:title=" ">
<path fill="none" stroke="#63b8ff" d="M76.19,-133.51C92.24,-151.5 129.8,-190.45 170,-210 175.02,-212.44 180.33,-214.57 185.78,-216.42"/>
<polygon fill="#63b8ff" stroke="#63b8ff" points="185.11,-219.87 195.7,-219.47 187.17,-213.18 185.11,-219.87"/>
</a>
</g>
</g>
<!-- Node3 -->
<g id="Node000003" class="node">
<title>Node3</title>
<g id="a_Node000003"><a xlink:href="classclip_1_1WMRT.html#a725eddc3bbd8e551891c6414a26c118f" target="_top" xlink:title="Converts a D3Q19 distribution function to weighted moment space.">
<polygon fill="white" stroke="#666666" points="335.5,-201 189.5,-201 189.5,-171 335.5,-171 335.5,-201"/>
<text text-anchor="start" x="197.5" y="-189" font-family="Helvetica,sans-Serif" font-size="10.00">clip::WMRT::convertD3Q19</text>
<text text-anchor="middle" x="262.5" y="-178" font-family="Helvetica,sans-Serif" font-size="10.00">Weighted</text>
</a>
</g>
</g>
<!-- Node1&#45;&gt;Node3 -->
<g id="edge2_Node000001_Node000003" class="edge">
<title>Node1&#45;&gt;Node3</title>
<g id="a_edge2_Node000001_Node000003"><a xlink:title=" ">
<path fill="none" stroke="#63b8ff" d="M91.67,-133.59C112.2,-141.72 142.8,-153.39 170,-162 176.78,-164.15 183.89,-166.25 191.01,-168.27"/>
<polygon fill="#63b8ff" stroke="#63b8ff" points="190.14,-171.66 200.72,-170.97 192.02,-164.92 190.14,-171.66"/>
</a>
</g>
</g>
<!-- Node4 -->
<g id="Node000004" class="node">
<title>Node4</title>
<g id="a_Node000004"><a xlink:href="classclip_1_1NSAllen.html#a7d6203503235ed233d07894a044a3373" target="_top" xlink:title="Computes equilibrium distribution for a given velocity set.">
<polygon fill="white" stroke="#666666" points="345.5,-152.5 179.5,-152.5 179.5,-133.5 345.5,-133.5 345.5,-152.5"/>
<text text-anchor="middle" x="262.5" y="-140.5" font-family="Helvetica,sans-Serif" font-size="10.00">clip::NSAllen::Equilibrium_new</text>
</a>
</g>
</g>
<!-- Node1&#45;&gt;Node4 -->
<g id="edge3_Node000001_Node000004" class="edge">
<title>Node1&#45;&gt;Node4</title>
<g id="a_edge3_Node000001_Node000004"><a xlink:title=" ">
<path fill="none" stroke="#63b8ff" d="M134.05,-130.49C145.43,-131.6 157.43,-132.78 169.35,-133.95"/>
<polygon fill="#63b8ff" stroke="#63b8ff" points="169.02,-137.44 179.32,-134.93 169.71,-130.47 169.02,-137.44"/>
</a>
</g>
</g>
<!-- Node5 -->
<g id="Node000005" class="node">
<title>Node5</title>
<g id="a_Node000005"><a xlink:href="classclip_1_1Domain.html#aefd93098e1eb64eab548417bdb281ebf" target="_top" xlink:title="Computes a flattened 1D index for multi&#45;DOF data.">
<polygon fill="white" stroke="#666666" points="326,-115.5 199,-115.5 199,-96.5 326,-96.5 326,-115.5"/>
<text text-anchor="middle" x="262.5" y="-103.5" font-family="Helvetica,sans-Serif" font-size="10.00">clip::Domain::getIndex</text>
</a>
</g>
</g>
<!-- Node1&#45;&gt;Node5 -->
<g id="edge4_Node000001_Node000005" class="edge">
<title>Node1&#45;&gt;Node5</title>
<g id="a_edge4_Node000001_Node000005"><a xlink:title=" ">
<path fill="none" stroke="#63b8ff" d="M134.05,-117.86C151.61,-116.22 170.68,-114.45 188.59,-112.78"/>
<polygon fill="#63b8ff" stroke="#63b8ff" points="189.05,-116.25 198.69,-111.84 188.4,-109.28 189.05,-116.25"/>
</a>
</g>
</g>
<!-- Node6 -->
<g id="Node000006" class="node">
<title>Node6</title>
<g id="a_Node000006"><a xlink:href="classclip_1_1WMRT.html#afddd1a7db9aa806852e3a5b224592504" target="_top" xlink:title="Reconstructs the D2Q9 distribution function from weighted moments.">
<polygon fill="white" stroke="#666666" points="337,-78 188,-78 188,-48 337,-48 337,-78"/>
<text text-anchor="start" x="196" y="-66" font-family="Helvetica,sans-Serif" font-size="10.00">clip::WMRT::reconvertD2Q9</text>
<text text-anchor="middle" x="262.5" y="-55" font-family="Helvetica,sans-Serif" font-size="10.00">Weighted</text>
</a>
</g>
</g>
<!-- Node1&#45;&gt;Node6 -->
<g id="edge6_Node000001_Node000006" class="edge">
<title>Node1&#45;&gt;Node6</title>
<g id="a_edge6_Node000001_Node000006"><a xlink:title=" ">
<path fill="none" stroke="#63b8ff" d="M93.4,-114.46C113.93,-106.88 143.65,-96.24 170,-88 177.71,-85.59 185.83,-83.18 193.91,-80.87"/>
<polygon fill="#63b8ff" stroke="#63b8ff" points="195.05,-84.19 203.72,-78.1 193.14,-77.45 195.05,-84.19"/>
</a>
</g>
</g>
<!-- Node7 -->
<g id="Node000007" class="node">
<title>Node7</title>
<g id="a_Node000007"><a xlink:href="classclip_1_1WMRT.html#ad7a8e23b0b6d2515e717a86f5fe3b145" target="_top" xlink:title="Reconstructs the D3Q19 distribution function from weighted moments.">
<polygon fill="white" stroke="#666666" points="340,-30 185,-30 185,0 340,0 340,-30"/>
<text text-anchor="start" x="193" y="-18" font-family="Helvetica,sans-Serif" font-size="10.00">clip::WMRT::reconvertD3Q19</text>
<text text-anchor="middle" x="262.5" y="-7" font-family="Helvetica,sans-Serif" font-size="10.00">Weighted</text>
</a>
</g>
</g>
<!-- Node1&#45;&gt;Node7 -->
<g id="edge7_Node000001_Node000007" class="edge">
<title>Node1&#45;&gt;Node7</title>
<g id="a_edge7_Node000001_Node000007"><a xlink:title=" ">
<path fill="none" stroke="#63b8ff" d="M76.82,-114.24C93.34,-96.55 130.86,-59.16 170,-39 173.7,-37.1 177.55,-35.33 181.51,-33.71"/>
<polygon fill="#63b8ff" stroke="#63b8ff" points="182.78,-36.97 190.88,-30.14 180.29,-30.43 182.78,-36.97"/>
</a>
</g>
</g>
</g>
</svg>
