<?xml version="1.0" encoding="UTF-8" standalone="no"?>
<!DOCTYPE svg PUBLIC "-//W3C//DTD SVG 1.1//EN"
 "http://www.w3.org/Graphics/SVG/1.1/DTD/svg11.dtd">
<!-- Generated by graphviz version 2.43.0 (0)
 -->
<!-- Title: clip::normal_FD Pages: 1 -->
<svg width="264pt" height="45pt"
 viewBox="0.00 0.00 264.00 45.00" xmlns="http://www.w3.org/2000/svg" xmlns:xlink="http://www.w3.org/1999/xlink">
<g id="graph0" class="graph" transform="scale(1 1) rotate(0) translate(4 41)">
<title>clip::normal_FD</title>
<!-- Node1 -->
<g id="Node000001" class="node">
<title>Node1</title>
<g id="a_Node000001"><a xlink:title="Computes normalized interface normals using finite difference of c.">
<polygon fill="#999999" stroke="#666666" points="93,-19 0,-19 0,0 93,0 93,-19"/>
<text text-anchor="middle" x="46.5" y="-7" font-family="Helvetica,sans-Serif" font-size="10.00">clip::normal_FD</text>
</a>
</g>
</g>
<!-- Node1&#45;&gt;Node1 -->
<g id="edge2_Node000001_Node000001" class="edge">
<title>Node1&#45;&gt;Node1</title>
<g id="a_edge2_Node000001_Node000001"><a xlink:title=" ">
<path fill="none" stroke="#63b8ff" d="M24,-19.08C13.05,-27.73 20.55,-37 46.5,-37 63.12,-37 72.18,-33.2 73.66,-28.19"/>
<polygon fill="#63b8ff" stroke="#63b8ff" points="76.67,-26.39 69,-19.08 70.44,-29.58 76.67,-26.39"/>
</a>
</g>
</g>
<!-- Node2 -->
<g id="Node000002" class="node">
<title>Node2</title>
<g id="a_Node000002"><a xlink:href="classclip_1_1Domain.html#aefd93098e1eb64eab548417bdb281ebf" target="_top" xlink:title="Computes a flattened 1D index for multi&#45;DOF data.">
<polygon fill="white" stroke="#666666" points="256,-19 129,-19 129,0 256,0 256,-19"/>
<text text-anchor="middle" x="192.5" y="-7" font-family="Helvetica,sans-Serif" font-size="10.00">clip::Domain::getIndex</text>
</a>
</g>
</g>
<!-- Node1&#45;&gt;Node2 -->
<g id="edge1_Node000001_Node000002" class="edge">
<title>Node1&#45;&gt;Node2</title>
<g id="a_edge1_Node000001_Node000002"><a xlink:title=" ">
<path fill="none" stroke="#63b8ff" d="M93.06,-9.5C101.24,-9.5 109.94,-9.5 118.65,-9.5"/>
<polygon fill="#63b8ff" stroke="#63b8ff" points="118.86,-13 128.86,-9.5 118.86,-6 118.86,-13"/>
</a>
</g>
</g>
</g>
</svg>
