<?xml version="1.0" encoding="UTF-8" standalone="no"?>
<!DOCTYPE svg PUBLIC "-//W3C//DTD SVG 1.1//EN"
 "http://www.w3.org/Graphics/SVG/1.1/DTD/svg11.dtd">
<!-- Generated by graphviz version 2.43.0 (0)
 -->
<!-- Title: /home/runner/work/CLIP/CLIP/src/equation/NsAllen.cu Pages: 1 -->
<svg width="1229pt" height="533pt"
 viewBox="0.00 0.00 1229.32 533.00" xmlns="http://www.w3.org/2000/svg" xmlns:xlink="http://www.w3.org/1999/xlink">
<g id="graph0" class="graph" transform="scale(1 1) rotate(0) translate(4 529)">
<title>/home/runner/work/CLIP/CLIP/src/equation/NsAllen.cu</title>
<!-- Node1 -->
<g id="Node000001" class="node">
<title>Node1</title>
<g id="a_Node000001"><a xlink:title="Implementation of a two&#45;phase Lattice Boltzmann Method (LBM) solver using the Allen–Cahn phase&#45;field ...">
<polygon fill="#999999" stroke="#666666" points="484,-525 326,-525 326,-495 484,-495 484,-525"/>
<text text-anchor="start" x="334" y="-513" font-family="Helvetica,sans-Serif" font-size="10.00">/home/runner/work/CLIP</text>
<text text-anchor="middle" x="405" y="-502" font-family="Helvetica,sans-Serif" font-size="10.00">/CLIP/src/equation/NsAllen.cu</text>
</a>
</g>
</g>
<!-- Node2 -->
<g id="Node000002" class="node">
<title>Node2</title>
<g id="a_Node000002"><a xlink:href="NsAllen_8cuh.html" target="_top" xlink:title="Defines the NSAllen class, a Navier–Stokes solver using the Allen–Cahn phase&#45;field approach within th...">
<polygon fill="white" stroke="#666666" points="478,-459 404,-459 404,-440 478,-440 478,-459"/>
<text text-anchor="middle" x="441" y="-447" font-family="Helvetica,sans-Serif" font-size="10.00">NsAllen.cuh</text>
</a>
</g>
</g>
<!-- Node1&#45;&gt;Node2 -->
<g id="edge1_Node000001_Node000002" class="edge">
<title>Node1&#45;&gt;Node2</title>
<g id="a_edge1_Node000001_Node000002"><a xlink:title=" ">
<path fill="none" stroke="#63b8ff" d="M413.71,-494.84C418.67,-486.78 424.93,-476.62 430.2,-468.06"/>
<polygon fill="#63b8ff" stroke="#63b8ff" points="433.35,-469.62 435.61,-459.27 427.38,-465.95 433.35,-469.62"/>
</a>
</g>
</g>
<!-- Node21 -->
<g id="Node000021" class="node">
<title>Node21</title>
<g id="a_Node000021"><a xlink:href="Solver_8cuh.html" target="_top" xlink:title="Declares the base Solver class that implements common boundary condition logic and field&#45;level utilit...">
<polygon fill="white" stroke="#666666" points="359.5,-404 292.5,-404 292.5,-385 359.5,-385 359.5,-404"/>
<text text-anchor="middle" x="326" y="-392" font-family="Helvetica,sans-Serif" font-size="10.00">Solver.cuh</text>
</a>
</g>
</g>
<!-- Node1&#45;&gt;Node21 -->
<g id="edge50_Node000001_Node000021" class="edge">
<title>Node1&#45;&gt;Node21</title>
<g id="a_edge50_Node000001_Node000021"><a xlink:title=" ">
<path fill="none" stroke="#63b8ff" d="M394.99,-494.63C380.46,-473.75 353.56,-435.09 337.99,-412.72"/>
<polygon fill="#63b8ff" stroke="#63b8ff" points="340.66,-410.44 332.08,-404.23 334.92,-414.44 340.66,-410.44"/>
</a>
</g>
</g>
<!-- Node3 -->
<g id="Node000003" class="node">
<title>Node3</title>
<g id="a_Node000003"><a xlink:href="includes_8h.html" target="_top" xlink:title="Common include header that provides core system libraries, CUDA headers, and project&#45;level dependenci...">
<polygon fill="white" stroke="#666666" points="535,-129 469,-129 469,-110 535,-110 535,-129"/>
<text text-anchor="middle" x="502" y="-117" font-family="Helvetica,sans-Serif" font-size="10.00">includes.h</text>
</a>
</g>
</g>
<!-- Node2&#45;&gt;Node3 -->
<g id="edge2_Node000002_Node000003" class="edge">
<title>Node2&#45;&gt;Node3</title>
<g id="a_edge2_Node000002_Node000003"><a xlink:title=" ">
<path fill="none" stroke="#63b8ff" d="M478.07,-446.94C541.49,-442.08 664,-422.12 664,-340.5 664,-340.5 664,-340.5 664,-228.5 664,-171.22 593.03,-142.45 545.03,-129.55"/>
<polygon fill="#63b8ff" stroke="#63b8ff" points="545.73,-126.11 535.17,-127.03 544,-132.89 545.73,-126.11"/>
</a>
</g>
</g>
<!-- Node20 -->
<g id="Node000020" class="node">
<title>Node20</title>
<g id="a_Node000020"><a xlink:href="InputData_8cuh.html" target="_top" xlink:title="Defines the InputData class responsible for reading and storing simulation parameters in the CLIP LBM...">
<polygon fill="white" stroke="#666666" points="450.5,-184 365.5,-184 365.5,-165 450.5,-165 450.5,-184"/>
<text text-anchor="middle" x="408" y="-172" font-family="Helvetica,sans-Serif" font-size="10.00">InputData.cuh</text>
</a>
</g>
</g>
<!-- Node2&#45;&gt;Node20 -->
<g id="edge22_Node000002_Node000020" class="edge">
<title>Node2&#45;&gt;Node20</title>
<g id="a_edge22_Node000002_Node000020"><a xlink:title=" ">
<path fill="none" stroke="#63b8ff" d="M449.07,-439.74C465.63,-420.7 501.24,-373.71 493,-330 483.28,-278.42 478.09,-264.35 450,-220 443.28,-209.39 433.81,-199.09 425.56,-191.08"/>
<polygon fill="#63b8ff" stroke="#63b8ff" points="427.86,-188.43 418.16,-184.16 423.08,-193.54 427.86,-188.43"/>
</a>
</g>
</g>
<!-- Node2&#45;&gt;Node21 -->
<g id="edge24_Node000002_Node000021" class="edge">
<title>Node2&#45;&gt;Node21</title>
<g id="a_edge24_Node000002_Node000021"><a xlink:title=" ">
<path fill="none" stroke="#63b8ff" d="M422.52,-439.98C404.02,-431.46 375.32,-418.23 354.02,-408.41"/>
<polygon fill="#63b8ff" stroke="#63b8ff" points="355.36,-405.18 344.81,-404.17 352.43,-411.53 355.36,-405.18"/>
</a>
</g>
</g>
<!-- Node24 -->
<g id="Node000024" class="node">
<title>Node24</title>
<g id="a_Node000024"><a xlink:href="DataArray_8cuh.html" target="_top" xlink:title="Defines the DataArray class for managing all host/device memory allocation, data transfer,...">
<polygon fill="white" stroke="#666666" points="483.5,-349 398.5,-349 398.5,-330 483.5,-330 483.5,-349"/>
<text text-anchor="middle" x="441" y="-337" font-family="Helvetica,sans-Serif" font-size="10.00">DataArray.cuh</text>
</a>
</g>
</g>
<!-- Node2&#45;&gt;Node24 -->
<g id="edge47_Node000002_Node000024" class="edge">
<title>Node2&#45;&gt;Node24</title>
<g id="a_edge47_Node000002_Node000024"><a xlink:title=" ">
<path fill="none" stroke="#63b8ff" d="M441,-439.66C441,-422.17 441,-382.8 441,-359.27"/>
<polygon fill="#63b8ff" stroke="#63b8ff" points="444.5,-359.16 441,-349.16 437.5,-359.16 444.5,-359.16"/>
</a>
</g>
</g>
<!-- Node25 -->
<g id="Node000025" class="node">
<title>Node25</title>
<g id="a_Node000025"><a xlink:href="WMRT_8cuh.html" target="_top" xlink:title="Implements the Weighted Multiple Relaxation Time (WMRT) conversion and reconstruction operators for t...">
<polygon fill="white" stroke="#666666" points="635.5,-239 568.5,-239 568.5,-220 635.5,-220 635.5,-239"/>
<text text-anchor="middle" x="602" y="-227" font-family="Helvetica,sans-Serif" font-size="10.00">WMRT.cuh</text>
</a>
</g>
</g>
<!-- Node2&#45;&gt;Node25 -->
<g id="edge48_Node000002_Node000025" class="edge">
<title>Node2&#45;&gt;Node25</title>
<g id="a_edge48_Node000002_Node000025"><a xlink:title=" ">
<path fill="none" stroke="#63b8ff" d="M478.25,-443.45C520.97,-436.8 587.07,-423.61 602,-404 637.06,-357.93 619.48,-283.24 608.53,-248.87"/>
<polygon fill="#63b8ff" stroke="#63b8ff" points="611.79,-247.58 605.29,-239.22 605.16,-249.81 611.79,-247.58"/>
</a>
</g>
</g>
<!-- Node26 -->
<g id="Node000026" class="node">
<title>Node26</title>
<g id="a_Node000026"><a xlink:href="Geometry_8cuh.html" target="_top" xlink:title="Defines the Geometry class for managing embedded objects and generating signed distance functions (SD...">
<polygon fill="white" stroke="#666666" points="232,-294 148,-294 148,-275 232,-275 232,-294"/>
<text text-anchor="middle" x="190" y="-282" font-family="Helvetica,sans-Serif" font-size="10.00">Geometry.cuh</text>
</a>
</g>
</g>
<!-- Node2&#45;&gt;Node26 -->
<g id="edge49_Node000002_Node000026" class="edge">
<title>Node2&#45;&gt;Node26</title>
<g id="a_edge49_Node000002_Node000026"><a xlink:title=" ">
<path fill="none" stroke="#63b8ff" d="M403.95,-442.93C370.92,-436.85 322.06,-425.04 284,-404 252.05,-386.34 245.33,-377.88 223,-349 212.21,-335.04 203.23,-317.02 197.38,-303.75"/>
<polygon fill="#63b8ff" stroke="#63b8ff" points="200.5,-302.14 193.38,-294.29 194.05,-304.86 200.5,-302.14"/>
</a>
</g>
</g>
<!-- Node4 -->
<g id="Node000004" class="node">
<title>Node4</title>
<g id="a_Node000004"><a xlink:title=" ">
<polygon fill="#e0e0e0" stroke="#999999" points="757,-19 697,-19 697,0 757,0 757,-19"/>
<text text-anchor="middle" x="727" y="-7" font-family="Helvetica,sans-Serif" font-size="10.00">iostream</text>
</a>
</g>
</g>
<!-- Node3&#45;&gt;Node4 -->
<g id="edge3_Node000003_Node000004" class="edge">
<title>Node3&#45;&gt;Node4</title>
<g id="a_edge3_Node000003_Node000004"><a xlink:title=" ">
<path fill="none" stroke="#63b8ff" d="M535.24,-117.68C673.03,-114.15 1193.37,-99.15 1217,-74 1222.78,-67.85 1222.69,-61.24 1217,-55 1186.9,-22.04 879.33,-13.24 767.43,-11.12"/>
<polygon fill="#63b8ff" stroke="#63b8ff" points="767.29,-7.61 757.23,-10.93 767.16,-14.61 767.29,-7.61"/>
</a>
</g>
</g>
<!-- Node5 -->
<g id="Node000005" class="node">
<title>Node5</title>
<g id="a_Node000005"><a xlink:title=" ">
<polygon fill="#e0e0e0" stroke="#999999" points="247.5,-74 192.5,-74 192.5,-55 247.5,-55 247.5,-74"/>
<text text-anchor="middle" x="220" y="-62" font-family="Helvetica,sans-Serif" font-size="10.00">fstream</text>
</a>
</g>
</g>
<!-- Node3&#45;&gt;Node5 -->
<g id="edge4_Node000003_Node000005" class="edge">
<title>Node3&#45;&gt;Node5</title>
<g id="a_edge4_Node000003_Node000005"><a xlink:title=" ">
<path fill="none" stroke="#63b8ff" d="M468.62,-112.94C423.22,-105.27 339.26,-90.69 257.77,-74.08"/>
<polygon fill="#63b8ff" stroke="#63b8ff" points="258.35,-70.62 247.85,-72.04 256.94,-77.48 258.35,-70.62"/>
</a>
</g>
</g>
<!-- Node6 -->
<g id="Node000006" class="node">
<title>Node6</title>
<g id="a_Node000006"><a xlink:title=" ">
<polygon fill="#e0e0e0" stroke="#999999" points="60,-19 16,-19 16,0 60,0 60,-19"/>
<text text-anchor="middle" x="38" y="-7" font-family="Helvetica,sans-Serif" font-size="10.00">string</text>
</a>
</g>
</g>
<!-- Node3&#45;&gt;Node6 -->
<g id="edge5_Node000003_Node000006" class="edge">
<title>Node3&#45;&gt;Node6</title>
<g id="a_edge5_Node000003_Node000006"><a xlink:title=" ">
<path fill="none" stroke="#63b8ff" d="M468.86,-117.29C371.08,-113.43 88.63,-100.1 57,-74 43.97,-63.25 39.64,-43.96 38.31,-29.45"/>
<polygon fill="#63b8ff" stroke="#63b8ff" points="41.79,-28.9 37.78,-19.09 34.8,-29.26 41.79,-28.9"/>
</a>
</g>
</g>
<!-- Node7 -->
<g id="Node000007" class="node">
<title>Node7</title>
<g id="a_Node000007"><a xlink:title=" ">
<polygon fill="#e0e0e0" stroke="#999999" points="322,-74 266,-74 266,-55 322,-55 322,-74"/>
<text text-anchor="middle" x="294" y="-62" font-family="Helvetica,sans-Serif" font-size="10.00">sstream</text>
</a>
</g>
</g>
<!-- Node3&#45;&gt;Node7 -->
<g id="edge6_Node000003_Node000007" class="edge">
<title>Node3&#45;&gt;Node7</title>
<g id="a_edge6_Node000003_Node000007"><a xlink:title=" ">
<path fill="none" stroke="#63b8ff" d="M468.58,-109.98C431.26,-100.48 370.99,-85.12 331.93,-75.17"/>
<polygon fill="#63b8ff" stroke="#63b8ff" points="332.56,-71.71 322,-72.63 330.83,-78.5 332.56,-71.71"/>
</a>
</g>
</g>
<!-- Node8 -->
<g id="Node000008" class="node">
<title>Node8</title>
<g id="a_Node000008"><a xlink:title=" ">
<polygon fill="#e0e0e0" stroke="#999999" points="387.5,-74 340.5,-74 340.5,-55 387.5,-55 387.5,-74"/>
<text text-anchor="middle" x="364" y="-62" font-family="Helvetica,sans-Serif" font-size="10.00">vector</text>
</a>
</g>
</g>
<!-- Node3&#45;&gt;Node8 -->
<g id="edge7_Node000003_Node000008" class="edge">
<title>Node3&#45;&gt;Node8</title>
<g id="a_edge7_Node000003_Node000008"><a xlink:title=" ">
<path fill="none" stroke="#63b8ff" d="M479.83,-109.98C457.23,-101.3 421.94,-87.75 396.25,-77.88"/>
<polygon fill="#63b8ff" stroke="#63b8ff" points="397.17,-74.49 386.58,-74.17 394.66,-81.02 397.17,-74.49"/>
</a>
</g>
</g>
<!-- Node9 -->
<g id="Node000009" class="node">
<title>Node9</title>
<g id="a_Node000009"><a xlink:title=" ">
<polygon fill="#e0e0e0" stroke="#999999" points="456,-74 406,-74 406,-55 456,-55 456,-74"/>
<text text-anchor="middle" x="431" y="-62" font-family="Helvetica,sans-Serif" font-size="10.00">cstring</text>
</a>
</g>
</g>
<!-- Node3&#45;&gt;Node9 -->
<g id="edge8_Node000003_Node000009" class="edge">
<title>Node3&#45;&gt;Node9</title>
<g id="a_edge8_Node000003_Node000009"><a xlink:title=" ">
<path fill="none" stroke="#63b8ff" d="M490.59,-109.98C479.89,-102 463.66,-89.88 450.84,-80.31"/>
<polygon fill="#63b8ff" stroke="#63b8ff" points="452.72,-77.35 442.61,-74.17 448.53,-82.96 452.72,-77.35"/>
</a>
</g>
</g>
<!-- Node10 -->
<g id="Node000010" class="node">
<title>Node10</title>
<g id="a_Node000010"><a xlink:title=" ">
<polygon fill="#e0e0e0" stroke="#999999" points="530,-74 474,-74 474,-55 530,-55 530,-74"/>
<text text-anchor="middle" x="502" y="-62" font-family="Helvetica,sans-Serif" font-size="10.00">iomanip</text>
</a>
</g>
</g>
<!-- Node3&#45;&gt;Node10 -->
<g id="edge9_Node000003_Node000010" class="edge">
<title>Node3&#45;&gt;Node10</title>
<g id="a_edge9_Node000003_Node000010"><a xlink:title=" ">
<path fill="none" stroke="#63b8ff" d="M502,-109.75C502,-102.8 502,-92.85 502,-84.13"/>
<polygon fill="#63b8ff" stroke="#63b8ff" points="505.5,-84.09 502,-74.09 498.5,-84.09 505.5,-84.09"/>
</a>
</g>
</g>
<!-- Node11 -->
<g id="Node000011" class="node">
<title>Node11</title>
<g id="a_Node000011"><a xlink:title=" ">
<polygon fill="#e0e0e0" stroke="#999999" points="616,-74 548,-74 548,-55 616,-55 616,-74"/>
<text text-anchor="middle" x="582" y="-62" font-family="Helvetica,sans-Serif" font-size="10.00">filesystem</text>
</a>
</g>
</g>
<!-- Node3&#45;&gt;Node11 -->
<g id="edge10_Node000003_Node000011" class="edge">
<title>Node3&#45;&gt;Node11</title>
<g id="a_edge10_Node000003_Node000011"><a xlink:title=" ">
<path fill="none" stroke="#63b8ff" d="M514.85,-109.98C527.14,-101.84 545.91,-89.41 560.48,-79.76"/>
<polygon fill="#63b8ff" stroke="#63b8ff" points="562.51,-82.61 568.91,-74.17 558.64,-76.78 562.51,-82.61"/>
</a>
</g>
</g>
<!-- Node12 -->
<g id="Node000012" class="node">
<title>Node12</title>
<g id="a_Node000012"><a xlink:title=" ">
<polygon fill="#e0e0e0" stroke="#999999" points="169.5,-19 104.5,-19 104.5,0 169.5,0 169.5,-19"/>
<text text-anchor="middle" x="137" y="-7" font-family="Helvetica,sans-Serif" font-size="10.00">stdexcept</text>
</a>
</g>
</g>
<!-- Node3&#45;&gt;Node12 -->
<g id="edge11_Node000003_Node000012" class="edge">
<title>Node3&#45;&gt;Node12</title>
<g id="a_edge11_Node000003_Node000012"><a xlink:title=" ">
<path fill="none" stroke="#63b8ff" d="M468.82,-117.08C397.39,-113.51 231.68,-102.34 184,-74 166.18,-63.41 153.02,-43.19 145.23,-28.41"/>
<polygon fill="#63b8ff" stroke="#63b8ff" points="148.26,-26.64 140.7,-19.22 141.99,-29.74 148.26,-26.64"/>
</a>
</g>
</g>
<!-- Node13 -->
<g id="Node000013" class="node">
<title>Node13</title>
<g id="a_Node000013"><a xlink:title=" ">
<polygon fill="#e0e0e0" stroke="#999999" points="698,-74 634,-74 634,-55 698,-55 698,-74"/>
<text text-anchor="middle" x="666" y="-62" font-family="Helvetica,sans-Serif" font-size="10.00">algorithm</text>
</a>
</g>
</g>
<!-- Node3&#45;&gt;Node13 -->
<g id="edge12_Node000003_Node000013" class="edge">
<title>Node3&#45;&gt;Node13</title>
<g id="a_edge12_Node000003_Node000013"><a xlink:title=" ">
<path fill="none" stroke="#63b8ff" d="M528.35,-109.98C555.76,-101.13 598.89,-87.19 629.56,-77.28"/>
<polygon fill="#63b8ff" stroke="#63b8ff" points="631,-80.49 639.44,-74.08 628.85,-73.83 631,-80.49"/>
</a>
</g>
</g>
<!-- Node14 -->
<g id="Node000014" class="node">
<title>Node14</title>
<g id="a_Node000014"><a xlink:title=" ">
<polygon fill="#e0e0e0" stroke="#999999" points="765.5,-74 716.5,-74 716.5,-55 765.5,-55 765.5,-74"/>
<text text-anchor="middle" x="741" y="-62" font-family="Helvetica,sans-Serif" font-size="10.00">cctype</text>
</a>
</g>
</g>
<!-- Node3&#45;&gt;Node14 -->
<g id="edge13_Node000003_Node000014" class="edge">
<title>Node3&#45;&gt;Node14</title>
<g id="a_edge13_Node000003_Node000014"><a xlink:title=" ">
<path fill="none" stroke="#63b8ff" d="M535.09,-111.65C573.77,-103.57 639.96,-89.51 706.35,-74.09"/>
<polygon fill="#63b8ff" stroke="#63b8ff" points="707.2,-77.49 716.14,-71.81 705.61,-70.67 707.2,-77.49"/>
</a>
</g>
</g>
<!-- Node15 -->
<g id="Node000015" class="node">
<title>Node15</title>
<g id="a_Node000015"><a xlink:title=" ">
<polygon fill="#e0e0e0" stroke="#999999" points="816,-74 784,-74 784,-55 816,-55 816,-74"/>
<text text-anchor="middle" x="800" y="-62" font-family="Helvetica,sans-Serif" font-size="10.00">set</text>
</a>
</g>
</g>
<!-- Node3&#45;&gt;Node15 -->
<g id="edge14_Node000003_Node000015" class="edge">
<title>Node3&#45;&gt;Node15</title>
<g id="a_edge14_Node000003_Node000015"><a xlink:title=" ">
<path fill="none" stroke="#63b8ff" d="M535.14,-114.9C585.05,-109.09 682.57,-96.23 774.01,-73.87"/>
<polygon fill="#63b8ff" stroke="#63b8ff" points="775.12,-77.2 783.98,-71.39 773.43,-70.41 775.12,-77.2"/>
</a>
</g>
</g>
<!-- Node16 -->
<g id="Node000016" class="node">
<title>Node16</title>
<g id="a_Node000016"><a xlink:title=" ">
<polygon fill="#e0e0e0" stroke="#999999" points="926,-74 834,-74 834,-55 926,-55 926,-74"/>
<text text-anchor="middle" x="880" y="-62" font-family="Helvetica,sans-Serif" font-size="10.00">cuda_runtime.h</text>
</a>
</g>
</g>
<!-- Node3&#45;&gt;Node16 -->
<g id="edge15_Node000003_Node000016" class="edge">
<title>Node3&#45;&gt;Node16</title>
<g id="a_edge15_Node000003_Node000016"><a xlink:title=" ">
<path fill="none" stroke="#63b8ff" d="M535.04,-114.13C591.82,-106.58 711.84,-90.45 823.69,-74.17"/>
<polygon fill="#63b8ff" stroke="#63b8ff" points="824.41,-77.6 833.79,-72.7 823.39,-70.68 824.41,-77.6"/>
</a>
</g>
</g>
<!-- Node17 -->
<g id="Node000017" class="node">
<title>Node17</title>
<g id="a_Node000017"><a xlink:title=" ">
<polygon fill="#e0e0e0" stroke="#999999" points="1101.5,-74 944.5,-74 944.5,-55 1101.5,-55 1101.5,-74"/>
<text text-anchor="middle" x="1023" y="-62" font-family="Helvetica,sans-Serif" font-size="10.00">device_launch_parameters.h</text>
</a>
</g>
</g>
<!-- Node3&#45;&gt;Node17 -->
<g id="edge16_Node000003_Node000017" class="edge">
<title>Node3&#45;&gt;Node17</title>
<g id="a_edge16_Node000003_Node000017"><a xlink:title=" ">
<path fill="none" stroke="#63b8ff" d="M535.38,-115.1C614.71,-107.03 816.65,-86.49 934.27,-74.53"/>
<polygon fill="#63b8ff" stroke="#63b8ff" points="934.74,-78 944.34,-73.5 934.04,-71.03 934.74,-78"/>
</a>
</g>
</g>
<!-- Node18 -->
<g id="Node000018" class="node">
<title>Node18</title>
<g id="a_Node000018"><a xlink:href="DataTypes_8cuh.html" target="_top" xlink:title="Core type definitions and macros for precision control, dimensionality, and indexing in CLIP.">
<polygon fill="white" stroke="#666666" points="1208,-74 1120,-74 1120,-55 1208,-55 1208,-74"/>
<text text-anchor="middle" x="1164" y="-62" font-family="Helvetica,sans-Serif" font-size="10.00">DataTypes.cuh</text>
</a>
</g>
</g>
<!-- Node3&#45;&gt;Node18 -->
<g id="edge17_Node000003_Node000018" class="edge">
<title>Node3&#45;&gt;Node18</title>
<g id="a_edge17_Node000003_Node000018"><a xlink:title=" ">
<path fill="none" stroke="#63b8ff" d="M535.1,-117.08C625.49,-113.01 884.25,-99.91 1109.76,-74.04"/>
<polygon fill="#63b8ff" stroke="#63b8ff" points="1110.26,-77.51 1119.79,-72.88 1109.46,-70.56 1110.26,-77.51"/>
</a>
</g>
</g>
<!-- Node19 -->
<g id="Node000019" class="node">
<title>Node19</title>
<g id="a_Node000019"><a xlink:href="Logger_8cuh.html" target="_top" xlink:title="Defines the Logger class for standardized colored console output and error handling in the CLIP frame...">
<polygon fill="white" stroke="#666666" points="135.5,-74 66.5,-74 66.5,-55 135.5,-55 135.5,-74"/>
<text text-anchor="middle" x="101" y="-62" font-family="Helvetica,sans-Serif" font-size="10.00">Logger.cuh</text>
</a>
</g>
</g>
<!-- Node3&#45;&gt;Node19 -->
<g id="edge18_Node000003_Node000019" class="edge">
<title>Node3&#45;&gt;Node19</title>
<g id="a_edge18_Node000003_Node000019"><a xlink:title=" ">
<path fill="none" stroke="#63b8ff" d="M468.93,-114.83C406.48,-107.8 266.96,-91.53 150,-74 148.53,-73.78 147.04,-73.55 145.54,-73.32"/>
<polygon fill="#63b8ff" stroke="#63b8ff" points="145.93,-69.83 135.5,-71.69 144.81,-76.74 145.93,-69.83"/>
</a>
</g>
</g>
<!-- Node19&#45;&gt;Node4 -->
<g id="edge19_Node000019_Node000004" class="edge">
<title>Node19&#45;&gt;Node4</title>
<g id="a_edge19_Node000019_Node000004"><a xlink:title=" ">
<path fill="none" stroke="#63b8ff" d="M135.71,-59.79C150.58,-58.24 168.13,-56.46 184,-55 372,-37.67 596.93,-20.31 686.92,-13.51"/>
<polygon fill="#63b8ff" stroke="#63b8ff" points="687.25,-16.99 696.96,-12.75 686.73,-10.01 687.25,-16.99"/>
</a>
</g>
</g>
<!-- Node19&#45;&gt;Node6 -->
<g id="edge20_Node000019_Node000006" class="edge">
<title>Node19&#45;&gt;Node6</title>
<g id="a_edge20_Node000019_Node000006"><a xlink:title=" ">
<path fill="none" stroke="#63b8ff" d="M90.88,-54.98C81.56,-47.15 67.53,-35.34 56.26,-25.86"/>
<polygon fill="#63b8ff" stroke="#63b8ff" points="58.21,-22.93 48.31,-19.17 53.71,-28.29 58.21,-22.93"/>
</a>
</g>
</g>
<!-- Node19&#45;&gt;Node12 -->
<g id="edge21_Node000019_Node000012" class="edge">
<title>Node19&#45;&gt;Node12</title>
<g id="a_edge21_Node000019_Node000012"><a xlink:title=" ">
<path fill="none" stroke="#63b8ff" d="M106.94,-54.75C111.98,-47.34 119.34,-36.5 125.51,-27.41"/>
<polygon fill="#63b8ff" stroke="#63b8ff" points="128.44,-29.33 131.17,-19.09 122.65,-25.39 128.44,-29.33"/>
</a>
</g>
</g>
<!-- Node20&#45;&gt;Node3 -->
<g id="edge23_Node000020_Node000003" class="edge">
<title>Node20&#45;&gt;Node3</title>
<g id="a_edge23_Node000020_Node000003"><a xlink:title=" ">
<path fill="none" stroke="#63b8ff" d="M423.1,-164.98C437.82,-156.69 460.42,-143.94 477.67,-134.22"/>
<polygon fill="#63b8ff" stroke="#63b8ff" points="479.63,-137.13 486.62,-129.17 476.19,-131.03 479.63,-137.13"/>
</a>
</g>
</g>
<!-- Node21&#45;&gt;Node3 -->
<g id="edge25_Node000021_Node000003" class="edge">
<title>Node21&#45;&gt;Node3</title>
<g id="a_edge25_Node000021_Node000003"><a xlink:title=" ">
<path fill="none" stroke="#63b8ff" d="M292.44,-391.02C234.07,-384.67 120,-362.43 120,-285.5 120,-285.5 120,-285.5 120,-228.5 120,-158.77 358.64,-131.8 458.68,-123.56"/>
<polygon fill="#63b8ff" stroke="#63b8ff" points="459.08,-127.04 468.77,-122.75 458.52,-120.06 459.08,-127.04"/>
</a>
</g>
</g>
<!-- Node21&#45;&gt;Node20 -->
<g id="edge26_Node000021_Node000020" class="edge">
<title>Node21&#45;&gt;Node20</title>
<g id="a_edge26_Node000021_Node000020"><a xlink:title=" ">
<path fill="none" stroke="#63b8ff" d="M327.34,-384.95C330.6,-365.14 339.82,-314.77 355,-275 366.53,-244.81 385.23,-212.18 397.06,-192.81"/>
<polygon fill="#63b8ff" stroke="#63b8ff" points="400.1,-194.54 402.4,-184.2 394.15,-190.85 400.1,-194.54"/>
</a>
</g>
</g>
<!-- Node22 -->
<g id="Node000022" class="node">
<title>Node22</title>
<g id="a_Node000022"><a xlink:href="Boundary_8cuh.html" target="_top" xlink:title="Defines the Boundary class for handling physical and computational boundary conditions in the CLIP LB...">
<polygon fill="white" stroke="#666666" points="446,-294 364,-294 364,-275 446,-275 446,-294"/>
<text text-anchor="middle" x="405" y="-282" font-family="Helvetica,sans-Serif" font-size="10.00">Boundary.cuh</text>
</a>
</g>
</g>
<!-- Node21&#45;&gt;Node22 -->
<g id="edge27_Node000021_Node000022" class="edge">
<title>Node21&#45;&gt;Node22</title>
<g id="a_edge27_Node000021_Node000022"><a xlink:title=" ">
<path fill="none" stroke="#63b8ff" d="M332.46,-384.66C345.61,-366.69 375.64,-325.64 392.65,-302.38"/>
<polygon fill="#63b8ff" stroke="#63b8ff" points="395.59,-304.3 398.67,-294.16 389.94,-300.16 395.59,-304.3"/>
</a>
</g>
</g>
<!-- Node23 -->
<g id="Node000023" class="node">
<title>Node23</title>
<g id="a_Node000023"><a xlink:href="Domain_8cuh.html" target="_top" xlink:title="Defines the Domain class for managing spatial extents, indexing, and boundary checks in the CLIP LBM ...">
<polygon fill="white" stroke="#666666" points="321.5,-239 246.5,-239 246.5,-220 321.5,-220 321.5,-239"/>
<text text-anchor="middle" x="284" y="-227" font-family="Helvetica,sans-Serif" font-size="10.00">Domain.cuh</text>
</a>
</g>
</g>
<!-- Node21&#45;&gt;Node23 -->
<g id="edge33_Node000021_Node000023" class="edge">
<title>Node21&#45;&gt;Node23</title>
<g id="a_edge33_Node000021_Node000023"><a xlink:title=" ">
<path fill="none" stroke="#63b8ff" d="M313.79,-384.86C303.65,-376.88 289.96,-364.01 284,-349 270.82,-315.83 275.51,-273.18 279.89,-249.15"/>
<polygon fill="#63b8ff" stroke="#63b8ff" points="283.35,-249.73 281.89,-239.24 276.48,-248.35 283.35,-249.73"/>
</a>
</g>
</g>
<!-- Node21&#45;&gt;Node24 -->
<g id="edge34_Node000021_Node000024" class="edge">
<title>Node21&#45;&gt;Node24</title>
<g id="a_edge34_Node000021_Node000024"><a xlink:title=" ">
<path fill="none" stroke="#63b8ff" d="M344.48,-384.98C362.98,-376.46 391.68,-363.23 412.98,-353.41"/>
<polygon fill="#63b8ff" stroke="#63b8ff" points="414.57,-356.53 422.19,-349.17 411.64,-350.18 414.57,-356.53"/>
</a>
</g>
</g>
<!-- Node21&#45;&gt;Node26 -->
<g id="edge42_Node000021_Node000026" class="edge">
<title>Node21&#45;&gt;Node26</title>
<g id="a_edge42_Node000021_Node000026"><a xlink:title=" ">
<path fill="none" stroke="#63b8ff" d="M306.43,-384.94C289.49,-377 264.82,-364.15 246,-349 228.91,-335.24 212.7,-315.93 202.17,-302.23"/>
<polygon fill="#63b8ff" stroke="#63b8ff" points="204.91,-300.05 196.11,-294.14 199.31,-304.25 204.91,-300.05"/>
</a>
</g>
</g>
<!-- Node22&#45;&gt;Node3 -->
<g id="edge29_Node000022_Node000003" class="edge">
<title>Node22&#45;&gt;Node3</title>
<g id="a_edge29_Node000022_Node000003"><a xlink:title=" ">
<path fill="none" stroke="#63b8ff" d="M410.22,-274.74C425.54,-248.98 470.68,-173.13 491.39,-138.33"/>
<polygon fill="#63b8ff" stroke="#63b8ff" points="494.65,-139.69 496.76,-129.31 488.64,-136.11 494.65,-139.69"/>
</a>
</g>
</g>
<!-- Node22&#45;&gt;Node20 -->
<g id="edge28_Node000022_Node000020" class="edge">
<title>Node22&#45;&gt;Node20</title>
<g id="a_edge28_Node000022_Node000020"><a xlink:title=" ">
<path fill="none" stroke="#63b8ff" d="M405.25,-274.66C405.73,-257.17 406.82,-217.8 407.48,-194.27"/>
<polygon fill="#63b8ff" stroke="#63b8ff" points="410.98,-194.25 407.76,-184.16 403.98,-194.06 410.98,-194.25"/>
</a>
</g>
</g>
<!-- Node22&#45;&gt;Node23 -->
<g id="edge30_Node000022_Node000023" class="edge">
<title>Node22&#45;&gt;Node23</title>
<g id="a_edge30_Node000022_Node000023"><a xlink:title=" ">
<path fill="none" stroke="#63b8ff" d="M385.56,-274.98C366.01,-266.42 335.62,-253.11 313.18,-243.28"/>
<polygon fill="#63b8ff" stroke="#63b8ff" points="314.36,-239.98 303.79,-239.17 311.55,-246.39 314.36,-239.98"/>
</a>
</g>
</g>
<!-- Node23&#45;&gt;Node3 -->
<g id="edge31_Node000023_Node000003" class="edge">
<title>Node23&#45;&gt;Node3</title>
<g id="a_edge31_Node000023_Node000003"><a xlink:title=" ">
<path fill="none" stroke="#63b8ff" d="M291.66,-219.82C304.09,-206.24 329.98,-180 357,-165 388.92,-147.28 428.8,-135.7 458.65,-128.81"/>
<polygon fill="#63b8ff" stroke="#63b8ff" points="459.76,-132.15 468.76,-126.56 458.24,-125.31 459.76,-132.15"/>
</a>
</g>
</g>
<!-- Node23&#45;&gt;Node20 -->
<g id="edge32_Node000023_Node000020" class="edge">
<title>Node23&#45;&gt;Node20</title>
<g id="a_edge32_Node000023_Node000020"><a xlink:title=" ">
<path fill="none" stroke="#63b8ff" d="M303.92,-219.98C324.05,-211.38 355.38,-197.99 378.41,-188.15"/>
<polygon fill="#63b8ff" stroke="#63b8ff" points="379.9,-191.32 387.71,-184.17 377.14,-184.88 379.9,-191.32"/>
</a>
</g>
</g>
<!-- Node24&#45;&gt;Node3 -->
<g id="edge35_Node000024_Node000003" class="edge">
<title>Node24&#45;&gt;Node3</title>
<g id="a_edge35_Node000024_Node000003"><a xlink:title=" ">
<path fill="none" stroke="#63b8ff" d="M447.85,-329.83C454.29,-321.23 463.72,-307.42 469,-294 490.09,-240.38 498,-171.99 500.72,-139.41"/>
<polygon fill="#63b8ff" stroke="#63b8ff" points="504.23,-139.35 501.49,-129.12 497.25,-138.82 504.23,-139.35"/>
</a>
</g>
</g>
<!-- Node24&#45;&gt;Node20 -->
<g id="edge36_Node000024_Node000020" class="edge">
<title>Node24&#45;&gt;Node20</title>
<g id="a_edge36_Node000024_Node000020"><a xlink:title=" ">
<path fill="none" stroke="#63b8ff" d="M445.33,-329.87C450.91,-317.65 459.4,-294.61 455,-275 448.1,-244.22 430.55,-211.76 418.96,-192.58"/>
<polygon fill="#63b8ff" stroke="#63b8ff" points="421.92,-190.72 413.67,-184.08 415.98,-194.42 421.92,-190.72"/>
</a>
</g>
</g>
<!-- Node24&#45;&gt;Node22 -->
<g id="edge41_Node000024_Node000022" class="edge">
<title>Node24&#45;&gt;Node22</title>
<g id="a_edge41_Node000024_Node000022"><a xlink:title=" ">
<path fill="none" stroke="#63b8ff" d="M435.06,-329.75C430.02,-322.34 422.66,-311.5 416.49,-302.41"/>
<polygon fill="#63b8ff" stroke="#63b8ff" points="419.35,-300.39 410.83,-294.09 413.56,-304.33 419.35,-300.39"/>
</a>
</g>
</g>
<!-- Node24&#45;&gt;Node23 -->
<g id="edge37_Node000024_Node000023" class="edge">
<title>Node24&#45;&gt;Node23</title>
<g id="a_edge37_Node000024_Node000023"><a xlink:title=" ">
<path fill="none" stroke="#63b8ff" d="M421.07,-329.93C403.11,-321.81 376.31,-308.69 355,-294 334.29,-279.72 313.12,-259.98 299.35,-246.32"/>
<polygon fill="#63b8ff" stroke="#63b8ff" points="301.68,-243.71 292.16,-239.07 296.71,-248.63 301.68,-243.71"/>
</a>
</g>
</g>
<!-- Node24&#45;&gt;Node25 -->
<g id="edge38_Node000024_Node000025" class="edge">
<title>Node24&#45;&gt;Node25</title>
<g id="a_edge38_Node000024_Node000025"><a xlink:title=" ">
<path fill="none" stroke="#63b8ff" d="M460.23,-329.88C477.9,-321.63 504.53,-308.35 526,-294 547.71,-279.49 570.41,-259.85 585.28,-246.27"/>
<polygon fill="#63b8ff" stroke="#63b8ff" points="587.72,-248.78 592.69,-239.42 582.97,-243.64 587.72,-248.78"/>
</a>
</g>
</g>
<!-- Node25&#45;&gt;Node3 -->
<g id="edge39_Node000025_Node000003" class="edge">
<title>Node25&#45;&gt;Node3</title>
<g id="a_edge39_Node000025_Node000003"><a xlink:title=" ">
<path fill="none" stroke="#63b8ff" d="M596.33,-219.82C587.85,-207.15 571.05,-183.11 554,-165 543.95,-154.32 531.5,-143.59 521.3,-135.35"/>
<polygon fill="#63b8ff" stroke="#63b8ff" points="523.38,-132.53 513.37,-129.06 519.03,-138.01 523.38,-132.53"/>
</a>
</g>
</g>
<!-- Node25&#45;&gt;Node20 -->
<g id="edge40_Node000025_Node000020" class="edge">
<title>Node25&#45;&gt;Node20</title>
<g id="a_edge40_Node000025_Node000020"><a xlink:title=" ">
<path fill="none" stroke="#63b8ff" d="M570.83,-219.98C537.84,-210.97 485.6,-196.7 449.23,-186.76"/>
<polygon fill="#63b8ff" stroke="#63b8ff" points="449.98,-183.34 439.41,-184.08 448.14,-190.09 449.98,-183.34"/>
</a>
</g>
</g>
<!-- Node26&#45;&gt;Node3 -->
<g id="edge44_Node000026_Node000003" class="edge">
<title>Node26&#45;&gt;Node3</title>
<g id="a_edge44_Node000026_Node000003"><a xlink:title=" ">
<path fill="none" stroke="#63b8ff" d="M191.24,-274.63C193.53,-261.27 199.57,-235.87 214,-220 278.38,-149.18 395.62,-128.77 458.84,-122.88"/>
<polygon fill="#63b8ff" stroke="#63b8ff" points="459.21,-126.36 468.87,-122.03 458.61,-119.39 459.21,-126.36"/>
</a>
</g>
</g>
<!-- Node26&#45;&gt;Node6 -->
<g id="edge46_Node000026_Node000006" class="edge">
<title>Node26&#45;&gt;Node6</title>
<g id="a_edge46_Node000026_Node000006"><a xlink:title=" ">
<path fill="none" stroke="#63b8ff" d="M147.83,-278.34C91.86,-268.87 0,-243.04 0,-175.5 0,-175.5 0,-175.5 0,-118.5 0,-85.02 16.45,-48.84 27.7,-28.01"/>
<polygon fill="#63b8ff" stroke="#63b8ff" points="30.87,-29.53 32.72,-19.1 24.76,-26.1 30.87,-29.53"/>
</a>
</g>
</g>
<!-- Node26&#45;&gt;Node20 -->
<g id="edge43_Node000026_Node000020" class="edge">
<title>Node26&#45;&gt;Node20</title>
<g id="a_edge43_Node000026_Node000020"><a xlink:title=" ">
<path fill="none" stroke="#63b8ff" d="M194.24,-274.61C201.32,-260.76 216.87,-234.14 238,-220 272.96,-196.6 319.58,-185.5 355.16,-180.24"/>
<polygon fill="#63b8ff" stroke="#63b8ff" points="355.91,-183.66 365.35,-178.84 354.96,-176.73 355.91,-183.66"/>
</a>
</g>
</g>
<!-- Node26&#45;&gt;Node23 -->
<g id="edge45_Node000026_Node000023" class="edge">
<title>Node26&#45;&gt;Node23</title>
<g id="a_edge45_Node000026_Node000023"><a xlink:title=" ">
<path fill="none" stroke="#63b8ff" d="M205.1,-274.98C219.82,-266.69 242.42,-253.94 259.67,-244.22"/>
<polygon fill="#63b8ff" stroke="#63b8ff" points="261.63,-247.13 268.62,-239.17 258.19,-241.03 261.63,-247.13"/>
</a>
</g>
</g>
</g>
</svg>
