<?xml version="1.0" encoding="UTF-8" standalone="no"?>
<!DOCTYPE svg PUBLIC "-//W3C//DTD SVG 1.1//EN"
 "http://www.w3.org/Graphics/SVG/1.1/DTD/svg11.dtd">
<!-- Generated by graphviz version 2.43.0 (0)
 -->
<!-- Title: clip::Chemical_Potential Pages: 1 -->
<svg width="305pt" height="45pt"
 viewBox="0.00 0.00 305.00 45.00" xmlns="http://www.w3.org/2000/svg" xmlns:xlink="http://www.w3.org/1999/xlink">
<g id="graph0" class="graph" transform="scale(1 1) rotate(0) translate(4 41)">
<title>clip::Chemical_Potential</title>
<!-- Node1 -->
<g id="Node000001" class="node">
<title>Node1</title>
<g id="a_Node000001"><a xlink:title="Computes chemical potential from current phase field using Allen–Cahn model.">
<polygon fill="#999999" stroke="#666666" points="134,-19 0,-19 0,0 134,0 134,-19"/>
<text text-anchor="middle" x="67" y="-7" font-family="Helvetica,sans-Serif" font-size="10.00">clip::Chemical_Potential</text>
</a>
</g>
</g>
<!-- Node1&#45;&gt;Node1 -->
<g id="edge1_Node000001_Node000001" class="edge">
<title>Node1&#45;&gt;Node1</title>
<g id="a_edge1_Node000001_Node000001"><a xlink:title=" ">
<path fill="none" stroke="#63b8ff" d="M41.41,-19.08C28.97,-27.73 37.5,-37 67,-37 86.36,-37 96.69,-33.01 97.99,-27.82"/>
<polygon fill="#63b8ff" stroke="#63b8ff" points="100.82,-25.75 92.59,-19.08 94.87,-29.43 100.82,-25.75"/>
</a>
</g>
</g>
<!-- Node2 -->
<g id="Node000002" class="node">
<title>Node2</title>
<g id="a_Node000002"><a xlink:href="classclip_1_1Domain.html#aefd93098e1eb64eab548417bdb281ebf" target="_top" xlink:title="Computes a flattened 1D index for multi&#45;DOF data.">
<polygon fill="white" stroke="#666666" points="297,-19 170,-19 170,0 297,0 297,-19"/>
<text text-anchor="middle" x="233.5" y="-7" font-family="Helvetica,sans-Serif" font-size="10.00">clip::Domain::getIndex</text>
</a>
</g>
</g>
<!-- Node1&#45;&gt;Node2 -->
<g id="edge2_Node000001_Node000002" class="edge">
<title>Node1&#45;&gt;Node2</title>
<g id="a_edge2_Node000001_Node000002"><a xlink:title=" ">
<path fill="none" stroke="#63b8ff" d="M134.43,-9.5C142.74,-9.5 151.27,-9.5 159.66,-9.5"/>
<polygon fill="#63b8ff" stroke="#63b8ff" points="159.81,-13 169.81,-9.5 159.81,-6 159.81,-13"/>
</a>
</g>
</g>
</g>
</svg>
