<?xml version="1.0" encoding="UTF-8" standalone="no"?>
<!DOCTYPE svg PUBLIC "-//W3C//DTD SVG 1.1//EN"
 "http://www.w3.org/Graphics/SVG/1.1/DTD/svg11.dtd">
<!-- Generated by graphviz version 2.43.0 (0)
 -->
<!-- Title: clip::kernelCollisionMRTf Pages: 1 -->
<svg width="366pt" height="247pt"
 viewBox="0.00 0.00 366.00 246.50" xmlns="http://www.w3.org/2000/svg" xmlns:xlink="http://www.w3.org/1999/xlink">

<svg id="main" version="1.1" xmlns="http://www.w3.org/2000/svg" xmlns:xlink="http://www.w3.org/1999/xlink" xml:space="preserve" onload="init(evt)">
<style type="text/css"><![CDATA[
.node, .edge {opacity: 0.7;}
.node.selected, .edge.selected {opacity: 1;}
.edge:hover path { stroke: red; }
.edge:hover polygon { stroke: red; fill: red; }
]]></style>
<script type="application/ecmascript" xlink:href="svg.min.js"/>
<svg id="graph" class="graph">
<g id="graph0" class="graph" transform="scale(1 1) rotate(0) translate(4 242.5)">
<title>clip::kernelCollisionMRTf</title>
<!-- Node1 -->
<g id="Node000001" class="node">
<title>Node1</title>
<g id="a_Node000001"><a xlink:title="Applies MRT collision operator for momentum distribution f, including force correction.">
<polygon fill="#999999" stroke="#666666" points="137,-133.5 0,-133.5 0,-114.5 137,-114.5 137,-133.5"/>
<text text-anchor="middle" x="68.5" y="-121.5" font-family="Helvetica,sans-Serif" font-size="10.00">clip::kernelCollisionMRTf</text>
</a>
</g>
</g>
<!-- Node1&#45;&gt;Node1 -->
<g id="edge5_Node000001_Node000001" class="edge">
<title>Node1&#45;&gt;Node1</title>
<g id="a_edge5_Node000001_Node000001"><a xlink:title=" ">
<path fill="none" stroke="#63b8ff" d="M38.29,-133.58C23.59,-142.23 33.66,-151.5 68.5,-151.5 92.99,-151.5 105.24,-146.92 105.25,-141.19"/>
<polygon fill="#63b8ff" stroke="#63b8ff" points="107.88,-138.88 98.71,-133.58 102.57,-143.45 107.88,-138.88"/>
</a>
</g>
</g>
<!-- Node2 -->
<g id="Node000002" class="node">
<title>Node2</title>
<g id="a_Node000002"><a xlink:href="classclip_1_1WMRT.html#a9df86c98becc466f03564b4a675c8668" target="_top" xlink:title="Converts a D2Q9 distribution function to weighted moment space.">
<polygon fill="white" stroke="#666666" points="358,-238.5 173,-238.5 173,-219.5 358,-219.5 358,-238.5"/>
<text text-anchor="middle" x="265.5" y="-226.5" font-family="Helvetica,sans-Serif" font-size="10.00">clip::WMRT::convertD2Q9Weighted</text>
</a>
</g>
</g>
<!-- Node1&#45;&gt;Node2 -->
<g id="edge1_Node000001_Node000002" class="edge">
<title>Node1&#45;&gt;Node2</title>
<g id="a_edge1_Node000001_Node000002"><a xlink:title=" ">
<path fill="none" stroke="#63b8ff" d="M77.84,-133.51C94.18,-151.49 132.38,-190.43 173,-210 178.02,-212.42 183.35,-214.53 188.8,-216.38"/>
<polygon fill="#63b8ff" stroke="#63b8ff" points="188.14,-219.84 198.72,-219.42 190.19,-213.14 188.14,-219.84"/>
</a>
</g>
</g>
<!-- Node3 -->
<g id="Node000003" class="node">
<title>Node3</title>
<g id="a_Node000003"><a xlink:href="classclip_1_1WMRT.html#a725eddc3bbd8e551891c6414a26c118f" target="_top" xlink:title="Converts a D3Q19 distribution function to weighted moment space.">
<polygon fill="white" stroke="#666666" points="338.5,-201 192.5,-201 192.5,-171 338.5,-171 338.5,-201"/>
<text text-anchor="start" x="200.5" y="-189" font-family="Helvetica,sans-Serif" font-size="10.00">clip::WMRT::convertD3Q19</text>
<text text-anchor="middle" x="265.5" y="-178" font-family="Helvetica,sans-Serif" font-size="10.00">Weighted</text>
</a>
</g>
</g>
<!-- Node1&#45;&gt;Node3 -->
<g id="edge2_Node000001_Node000003" class="edge">
<title>Node1&#45;&gt;Node3</title>
<g id="a_edge2_Node000001_Node000003"><a xlink:title=" ">
<path fill="none" stroke="#63b8ff" d="M93.53,-133.56C114.37,-141.68 145.42,-153.34 173,-162 179.79,-164.13 186.9,-166.23 194.02,-168.24"/>
<polygon fill="#63b8ff" stroke="#63b8ff" points="193.16,-171.63 203.73,-170.93 195.03,-164.89 193.16,-171.63"/>
</a>
</g>
</g>
<!-- Node4 -->
<g id="Node000004" class="node">
<title>Node4</title>
<g id="a_Node000004"><a xlink:href="classclip_1_1NSAllen.html#a7d6203503235ed233d07894a044a3373" target="_top" xlink:title="Computes equilibrium distribution for a given velocity set.">
<polygon fill="white" stroke="#666666" points="348.5,-152.5 182.5,-152.5 182.5,-133.5 348.5,-133.5 348.5,-152.5"/>
<text text-anchor="middle" x="265.5" y="-140.5" font-family="Helvetica,sans-Serif" font-size="10.00">clip::NSAllen::Equilibrium_new</text>
</a>
</g>
</g>
<!-- Node1&#45;&gt;Node4 -->
<g id="edge3_Node000001_Node000004" class="edge">
<title>Node1&#45;&gt;Node4</title>
<g id="a_edge3_Node000001_Node000004"><a xlink:title=" ">
<path fill="none" stroke="#63b8ff" d="M137.15,-130.59C148.38,-131.69 160.2,-132.84 171.92,-133.98"/>
<polygon fill="#63b8ff" stroke="#63b8ff" points="171.89,-137.49 182.18,-134.98 172.56,-130.53 171.89,-137.49"/>
</a>
</g>
</g>
<!-- Node5 -->
<g id="Node000005" class="node">
<title>Node5</title>
<g id="a_Node000005"><a xlink:href="classclip_1_1Domain.html#aefd93098e1eb64eab548417bdb281ebf" target="_top" xlink:title="Computes a flattened 1D index for multi&#45;DOF data.">
<polygon fill="white" stroke="#666666" points="329,-115.5 202,-115.5 202,-96.5 329,-96.5 329,-115.5"/>
<text text-anchor="middle" x="265.5" y="-103.5" font-family="Helvetica,sans-Serif" font-size="10.00">clip::Domain::getIndex</text>
</a>
</g>
</g>
<!-- Node1&#45;&gt;Node5 -->
<g id="edge4_Node000001_Node000005" class="edge">
<title>Node1&#45;&gt;Node5</title>
<g id="a_edge4_Node000001_Node000005"><a xlink:title=" ">
<path fill="none" stroke="#63b8ff" d="M137.15,-117.75C154.8,-116.13 173.89,-114.36 191.78,-112.71"/>
<polygon fill="#63b8ff" stroke="#63b8ff" points="192.24,-116.19 201.87,-111.78 191.59,-109.21 192.24,-116.19"/>
</a>
</g>
</g>
<!-- Node6 -->
<g id="Node000006" class="node">
<title>Node6</title>
<g id="a_Node000006"><a xlink:href="classclip_1_1WMRT.html#afddd1a7db9aa806852e3a5b224592504" target="_top" xlink:title="Reconstructs the D2Q9 distribution function from weighted moments.">
<polygon fill="white" stroke="#666666" points="340,-78 191,-78 191,-48 340,-48 340,-78"/>
<text text-anchor="start" x="199" y="-66" font-family="Helvetica,sans-Serif" font-size="10.00">clip::WMRT::reconvertD2Q9</text>
<text text-anchor="middle" x="265.5" y="-55" font-family="Helvetica,sans-Serif" font-size="10.00">Weighted</text>
</a>
</g>
</g>
<!-- Node1&#45;&gt;Node6 -->
<g id="edge6_Node000001_Node000006" class="edge">
<title>Node1&#45;&gt;Node6</title>
<g id="a_edge6_Node000001_Node000006"><a xlink:title=" ">
<path fill="none" stroke="#63b8ff" d="M95.28,-114.48C116.13,-106.92 146.29,-96.28 173,-88 180.91,-85.55 189.25,-83.09 197.54,-80.73"/>
<polygon fill="#63b8ff" stroke="#63b8ff" points="198.54,-84.08 207.22,-78.01 196.64,-77.35 198.54,-84.08"/>
</a>
</g>
</g>
<!-- Node7 -->
<g id="Node000007" class="node">
<title>Node7</title>
<g id="a_Node000007"><a xlink:href="classclip_1_1WMRT.html#ad7a8e23b0b6d2515e717a86f5fe3b145" target="_top" xlink:title="Reconstructs the D3Q19 distribution function from weighted moments.">
<polygon fill="white" stroke="#666666" points="343,-30 188,-30 188,0 343,0 343,-30"/>
<text text-anchor="start" x="196" y="-18" font-family="Helvetica,sans-Serif" font-size="10.00">clip::WMRT::reconvertD3Q19</text>
<text text-anchor="middle" x="265.5" y="-7" font-family="Helvetica,sans-Serif" font-size="10.00">Weighted</text>
</a>
</g>
</g>
<!-- Node1&#45;&gt;Node7 -->
<g id="edge7_Node000001_Node000007" class="edge">
<title>Node1&#45;&gt;Node7</title>
<g id="a_edge7_Node000001_Node000007"><a xlink:title=" ">
<path fill="none" stroke="#63b8ff" d="M78.48,-114.25C95.3,-96.57 133.45,-59.19 173,-39 176.78,-37.07 180.74,-35.28 184.79,-33.63"/>
<polygon fill="#63b8ff" stroke="#63b8ff" points="186.26,-36.82 194.38,-30.02 183.79,-30.27 186.26,-36.82"/>
</a>
</g>
</g>
</g>
</svg>
</svg>

<style type='text/css'>
<![CDATA[
[data-mouse-over-selected='false'] { opacity: 0.7; }
[data-mouse-over-selected='true']  { opacity: 1.0; }
]]>
</style>
<script type="application/ecmascript"><![CDATA[
document.addEventListener('DOMContentLoaded', (event) => {
  highlightEdges();
  highlightAdjacentNodes();
});
]]></script>
</svg>
