<?xml version="1.0" encoding="UTF-8" standalone="no"?>
<!DOCTYPE svg PUBLIC "-//W3C//DTD SVG 1.1//EN"
 "http://www.w3.org/Graphics/SVG/1.1/DTD/svg11.dtd">
<!-- Generated by graphviz version 2.43.0 (0)
 -->
<!-- Title: /home/runner/work/CLIP/CLIP/include/equation/NsAllen.cuh Pages: 1 -->
<!--zoomable 489 -->

<svg id="main" version="1.1" xmlns="http://www.w3.org/2000/svg" xmlns:xlink="http://www.w3.org/1999/xlink" xml:space="preserve" onload="init(evt)">
<style type="text/css"><![CDATA[
.node, .edge {opacity: 0.7;}
.node.selected, .edge.selected {opacity: 1;}
.edge:hover path { stroke: red; }
.edge:hover polygon { stroke: red; fill: red; }
]]></style>

<defs>
  <circle id="rim" cx="0" cy="0" r="7"/>
  <circle id="rim2" cx="0" cy="0" r="3.5"/>
  <g id="zoomPlus">
    <use xlink:href="#rim" fill="#404040"><set attributeName="fill" to="#808080" begin="zoomplus.mouseover" end="zoomplus.mouseout"/></use>
    <path d="M-4,0h8M0,-4v8" fill="none" stroke="white" stroke-width="1.5" pointer-events="none"/>
  </g>
  <g id="zoomMin">
    <use xlink:href="#rim" fill="#404040"><set attributeName="fill" to="#808080" begin="zoomminus.mouseover" end="zoomminus.mouseout"/></use>
    <path d="M-4,0h8" fill="none" stroke="white" stroke-width="1.5" pointer-events="none"/>
  </g>
  <g id="arrowUp" transform="translate(30 24)">
    <use xlink:href="#rim"/>
    <path pointer-events="none" fill="none" stroke="white" stroke-width="1.5" d="M0,-3.0v7 M-2.5,-0.5L0,-3.0L2.5,-0.5"/>
  </g>
  <g id="arrowRight" transform="rotate(90) translate(36 -43)">
    <use xlink:href="#rim"/>
    <path pointer-events="none" fill="none" stroke="white" stroke-width="1.5" d="M0,-3.0v7 M-2.5,-0.5L0,-3.0L2.5,-0.5"/>
  </g>
  <g id="arrowDown" transform="rotate(180) translate(-30 -48)">
    <use xlink:href="#rim"/>
    <path pointer-events="none" fill="none" stroke="white" stroke-width="1.5" d="M0,-3.0v7 M-2.5,-0.5L0,-3.0L2.5,-0.5"/>
  </g>
  <g id="arrowLeft" transform="rotate(270) translate(-36 17)">
    <use xlink:href="#rim"/>
    <path pointer-events="none" fill="none" stroke="white" stroke-width="1.5" d="M0,-3.0v7 M-2.5,-0.5L0,-3.0L2.5,-0.5"/>
  </g>
  <g id="resetDef">
    <use xlink:href="#rim2" fill="#404040"><set attributeName="fill" to="#808080" begin="reset.mouseover" end="reset.mouseout"/></use>
  </g>
</defs>
<script type="application/ecmascript">
var viewWidth = 1238;
var viewHeight = 489;
var sectionId = 'dynsection-0';
</script>
<script type="application/ecmascript" xlink:href="svg.min.js"/>
<svg id="graph" class="graph">
<g id="viewport">
<title>/home/runner/work/CLIP/CLIP/include/equation/NsAllen.cuh</title>
<!-- Node1 -->
<g id="Node000001" class="node">
<title>Node1</title>
<g id="a_Node000001"><a xlink:title="Defines the NSAllen class, a Navier–Stokes solver using the Allen–Cahn phase&#45;field approach within th...">
<polygon fill="#999999" stroke="#666666" points="903.5,-481 770.5,-481 770.5,-440 903.5,-440 903.5,-481"/>
<text text-anchor="start" x="778.5" y="-469" font-family="Helvetica,sans-Serif" font-size="10.00">/home/runner/work/CLIP</text>
<text text-anchor="start" x="778.5" y="-458" font-family="Helvetica,sans-Serif" font-size="10.00">/CLIP/include/equation</text>
<text text-anchor="middle" x="837" y="-447" font-family="Helvetica,sans-Serif" font-size="10.00">/NsAllen.cuh</text>
</a>
</g>
</g>
<!-- Node2 -->
<g id="Node000002" class="node">
<title>Node2</title>
<g id="a_Node000002"><a xlink:href="includes_8h.html" target="_top" xlink:title="Common include header that provides core system libraries, CUDA headers, and project&#45;level dependenci...">
<polygon fill="white" stroke="#666666" points="829,-129 763,-129 763,-110 829,-110 829,-129"/>
<text text-anchor="middle" x="796" y="-117" font-family="Helvetica,sans-Serif" font-size="10.00">includes.h</text>
</a>
</g>
</g>
<!-- Node1&#45;&gt;Node2 -->
<g id="edge1_Node000001_Node000002" class="edge">
<title>Node1&#45;&gt;Node2</title>
<g id="a_edge1_Node000001_Node000002"><a xlink:title=" ">
<path fill="none" stroke="#63b8ff" d="M903.76,-451.95C1010.57,-438 1208,-403.66 1208,-340.5 1208,-340.5 1208,-340.5 1208,-228.5 1208,-152.82 944.62,-129.12 839.03,-122.66"/>
<polygon fill="#63b8ff" stroke="#63b8ff" points="839.21,-119.16 829.02,-122.07 838.8,-126.15 839.21,-119.16"/>
</a>
</g>
</g>
<!-- Node19 -->
<g id="Node000019" class="node">
<title>Node19</title>
<g id="a_Node000019"><a xlink:href="InputData_8cuh.html" target="_top" xlink:title="Defines the InputData class responsible for reading and storing simulation parameters in the CLIP LBM...">
<polygon fill="white" stroke="#666666" points="838.5,-184 753.5,-184 753.5,-165 838.5,-165 838.5,-184"/>
<text text-anchor="middle" x="796" y="-172" font-family="Helvetica,sans-Serif" font-size="10.00">InputData.cuh</text>
</a>
</g>
</g>
<!-- Node1&#45;&gt;Node19 -->
<g id="edge21_Node000001_Node000019" class="edge">
<title>Node1&#45;&gt;Node19</title>
<g id="a_edge21_Node000001_Node000019"><a xlink:title=" ">
<path fill="none" stroke="#63b8ff" d="M791.92,-439.93C756.72,-421.93 710.34,-391.57 689,-349 658.18,-287.53 735.79,-219.42 774.98,-190.16"/>
<polygon fill="#63b8ff" stroke="#63b8ff" points="777.13,-192.93 783.15,-184.21 773.01,-187.27 777.13,-192.93"/>
</a>
</g>
</g>
<!-- Node20 -->
<g id="Node000020" class="node">
<title>Node20</title>
<g id="a_Node000020"><a xlink:href="Solver_8cuh.html" target="_top" xlink:title="Declares the base Solver class that implements common boundary condition logic and field&#45;level utilit...">
<polygon fill="white" stroke="#666666" points="898.5,-404 831.5,-404 831.5,-385 898.5,-385 898.5,-404"/>
<text text-anchor="middle" x="865" y="-392" font-family="Helvetica,sans-Serif" font-size="10.00">Solver.cuh</text>
</a>
</g>
</g>
<!-- Node1&#45;&gt;Node20 -->
<g id="edge23_Node000001_Node000020" class="edge">
<title>Node1&#45;&gt;Node20</title>
<g id="a_edge23_Node000001_Node000020"><a xlink:title=" ">
<path fill="none" stroke="#63b8ff" d="M845.55,-439.95C849.22,-431.58 853.47,-421.85 857.06,-413.64"/>
<polygon fill="#63b8ff" stroke="#63b8ff" points="860.37,-414.83 861.17,-404.26 853.95,-412.02 860.37,-414.83"/>
</a>
</g>
</g>
<!-- Node23 -->
<g id="Node000023" class="node">
<title>Node23</title>
<g id="a_Node000023"><a xlink:href="DataArray_8cuh.html" target="_top" xlink:title="Defines the DataArray class for managing all host/device memory allocation, data transfer,...">
<polygon fill="white" stroke="#666666" points="782.5,-349 697.5,-349 697.5,-330 782.5,-330 782.5,-349"/>
<text text-anchor="middle" x="740" y="-337" font-family="Helvetica,sans-Serif" font-size="10.00">DataArray.cuh</text>
</a>
</g>
</g>
<!-- Node1&#45;&gt;Node23 -->
<g id="edge46_Node000001_Node000023" class="edge">
<title>Node1&#45;&gt;Node23</title>
<g id="a_edge46_Node000001_Node000023"><a xlink:title=" ">
<path fill="none" stroke="#63b8ff" d="M820.98,-439.85C802.16,-416.76 771.26,-378.84 753.56,-357.14"/>
<polygon fill="#63b8ff" stroke="#63b8ff" points="756.1,-354.71 747.07,-349.18 750.68,-359.14 756.1,-354.71"/>
</a>
</g>
</g>
<!-- Node24 -->
<g id="Node000024" class="node">
<title>Node24</title>
<g id="a_Node000024"><a xlink:href="WMRT_8cuh.html" target="_top" xlink:title="Implements the Weighted Multiple Relaxation Time (WMRT) conversion and reconstruction operators for t...">
<polygon fill="white" stroke="#666666" points="653.5,-239 586.5,-239 586.5,-220 653.5,-220 653.5,-239"/>
<text text-anchor="middle" x="620" y="-227" font-family="Helvetica,sans-Serif" font-size="10.00">WMRT.cuh</text>
</a>
</g>
</g>
<!-- Node1&#45;&gt;Node24 -->
<g id="edge47_Node000001_Node000024" class="edge">
<title>Node1&#45;&gt;Node24</title>
<g id="a_edge47_Node000001_Node000024"><a xlink:title=" ">
<path fill="none" stroke="#63b8ff" d="M770.31,-450.19C716.79,-441.23 647.76,-425.82 630,-404 593.39,-359.03 606.12,-283.79 614.73,-249.08"/>
<polygon fill="#63b8ff" stroke="#63b8ff" points="618.14,-249.89 617.32,-239.32 611.37,-248.09 618.14,-249.89"/>
</a>
</g>
</g>
<!-- Node25 -->
<g id="Node000025" class="node">
<title>Node25</title>
<g id="a_Node000025"><a xlink:href="Geometry_8cuh.html" target="_top" xlink:title="Defines the Geometry class for managing embedded objects and generating signed distance functions (SD...">
<polygon fill="white" stroke="#666666" points="1122,-294 1038,-294 1038,-275 1122,-275 1122,-294"/>
<text text-anchor="middle" x="1080" y="-282" font-family="Helvetica,sans-Serif" font-size="10.00">Geometry.cuh</text>
</a>
</g>
</g>
<!-- Node1&#45;&gt;Node25 -->
<g id="edge48_Node000001_Node000025" class="edge">
<title>Node1&#45;&gt;Node25</title>
<g id="a_edge48_Node000001_Node000025"><a xlink:title=" ">
<path fill="none" stroke="#63b8ff" d="M896.46,-439.84C942.54,-422.12 1005.5,-392.17 1048,-349 1060.44,-336.37 1068.99,-317.92 1074.1,-304.17"/>
<polygon fill="#63b8ff" stroke="#63b8ff" points="1077.54,-304.93 1077.48,-294.34 1070.92,-302.66 1077.54,-304.93"/>
</a>
</g>
</g>
<!-- Node3 -->
<g id="Node000003" class="node">
<title>Node3</title>
<g id="a_Node000003"><a xlink:title=" ">
<polygon fill="#e0e0e0" stroke="#999999" points="1003,-19 943,-19 943,0 1003,0 1003,-19"/>
<text text-anchor="middle" x="973" y="-7" font-family="Helvetica,sans-Serif" font-size="10.00">iostream</text>
</a>
</g>
</g>
<!-- Node2&#45;&gt;Node3 -->
<g id="edge2_Node000002_Node000003" class="edge">
<title>Node2&#45;&gt;Node3</title>
<g id="a_edge2_Node000002_Node000003"><a xlink:title=" ">
<path fill="none" stroke="#63b8ff" d="M829.17,-112.28C856.3,-105.99 894.68,-94.24 923,-74 940.07,-61.8 954.25,-42.2 963.1,-27.99"/>
<polygon fill="#63b8ff" stroke="#63b8ff" points="966.24,-29.57 968.34,-19.18 960.22,-25.99 966.24,-29.57"/>
</a>
</g>
</g>
<!-- Node4 -->
<g id="Node000004" class="node">
<title>Node4</title>
<g id="a_Node000004"><a xlink:title=" ">
<polygon fill="#e0e0e0" stroke="#999999" points="913.5,-74 858.5,-74 858.5,-55 913.5,-55 913.5,-74"/>
<text text-anchor="middle" x="886" y="-62" font-family="Helvetica,sans-Serif" font-size="10.00">fstream</text>
</a>
</g>
</g>
<!-- Node2&#45;&gt;Node4 -->
<g id="edge3_Node000002_Node000004" class="edge">
<title>Node2&#45;&gt;Node4</title>
<g id="a_edge3_Node000002_Node000004"><a xlink:title=" ">
<path fill="none" stroke="#63b8ff" d="M810.46,-109.98C824.42,-101.77 845.79,-89.18 862.25,-79.49"/>
<polygon fill="#63b8ff" stroke="#63b8ff" points="864.44,-82.26 871.28,-74.17 860.88,-76.23 864.44,-82.26"/>
</a>
</g>
</g>
<!-- Node5 -->
<g id="Node000005" class="node">
<title>Node5</title>
<g id="a_Node000005"><a xlink:title=" ">
<polygon fill="#e0e0e0" stroke="#999999" points="1230,-19 1186,-19 1186,0 1230,0 1230,-19"/>
<text text-anchor="middle" x="1208" y="-7" font-family="Helvetica,sans-Serif" font-size="10.00">string</text>
</a>
</g>
</g>
<!-- Node2&#45;&gt;Node5 -->
<g id="edge4_Node000002_Node000005" class="edge">
<title>Node2&#45;&gt;Node5</title>
<g id="a_edge4_Node000002_Node000005"><a xlink:title=" ">
<path fill="none" stroke="#63b8ff" d="M829.06,-116.83C918.7,-112 1161.58,-96.93 1189,-74 1201.96,-63.17 1206.3,-43.88 1207.65,-29.4"/>
<polygon fill="#63b8ff" stroke="#63b8ff" points="1211.16,-29.24 1208.2,-19.07 1204.17,-28.87 1211.16,-29.24"/>
</a>
</g>
</g>
<!-- Node6 -->
<g id="Node000006" class="node">
<title>Node6</title>
<g id="a_Node000006"><a xlink:title=" ">
<polygon fill="#e0e0e0" stroke="#999999" points="1114,-74 1058,-74 1058,-55 1114,-55 1114,-74"/>
<text text-anchor="middle" x="1086" y="-62" font-family="Helvetica,sans-Serif" font-size="10.00">sstream</text>
</a>
</g>
</g>
<!-- Node2&#45;&gt;Node6 -->
<g id="edge5_Node000002_Node000006" class="edge">
<title>Node2&#45;&gt;Node6</title>
<g id="a_edge5_Node000002_Node000006"><a xlink:title=" ">
<path fill="none" stroke="#63b8ff" d="M829.26,-113.21C875.88,-105.68 963.54,-91.07 1047.76,-74.17"/>
<polygon fill="#63b8ff" stroke="#63b8ff" points="1048.64,-77.56 1057.75,-72.15 1047.26,-70.7 1048.64,-77.56"/>
</a>
</g>
</g>
<!-- Node7 -->
<g id="Node000007" class="node">
<title>Node7</title>
<g id="a_Node000007"><a xlink:title=" ">
<polygon fill="#e0e0e0" stroke="#999999" points="1179.5,-74 1132.5,-74 1132.5,-55 1179.5,-55 1179.5,-74"/>
<text text-anchor="middle" x="1156" y="-62" font-family="Helvetica,sans-Serif" font-size="10.00">vector</text>
</a>
</g>
</g>
<!-- Node2&#45;&gt;Node7 -->
<g id="edge6_Node000002_Node000007" class="edge">
<title>Node2&#45;&gt;Node7</title>
<g id="a_edge6_Node000002_Node000007"><a xlink:title=" ">
<path fill="none" stroke="#63b8ff" d="M829.16,-115.28C886.79,-109.41 1009.26,-95.7 1122.41,-73.89"/>
<polygon fill="#63b8ff" stroke="#63b8ff" points="1123.14,-77.31 1132.28,-71.96 1121.8,-70.44 1123.14,-77.31"/>
</a>
</g>
</g>
<!-- Node8 -->
<g id="Node000008" class="node">
<title>Node8</title>
<g id="a_Node000008"><a xlink:title=" ">
<polygon fill="#e0e0e0" stroke="#999999" points="50,-74 0,-74 0,-55 50,-55 50,-74"/>
<text text-anchor="middle" x="25" y="-62" font-family="Helvetica,sans-Serif" font-size="10.00">cstring</text>
</a>
</g>
</g>
<!-- Node2&#45;&gt;Node8 -->
<g id="edge7_Node000002_Node000008" class="edge">
<title>Node2&#45;&gt;Node8</title>
<g id="a_edge7_Node000002_Node000008"><a xlink:title=" ">
<path fill="none" stroke="#63b8ff" d="M762.71,-118.67C659.58,-118.74 336.25,-115.5 60.35,-73.9"/>
<polygon fill="#63b8ff" stroke="#63b8ff" points="60.56,-70.39 50.15,-72.34 59.5,-77.31 60.56,-70.39"/>
</a>
</g>
</g>
<!-- Node9 -->
<g id="Node000009" class="node">
<title>Node9</title>
<g id="a_Node000009"><a xlink:title=" ">
<polygon fill="#e0e0e0" stroke="#999999" points="124,-74 68,-74 68,-55 124,-55 124,-74"/>
<text text-anchor="middle" x="96" y="-62" font-family="Helvetica,sans-Serif" font-size="10.00">iomanip</text>
</a>
</g>
</g>
<!-- Node2&#45;&gt;Node9 -->
<g id="edge8_Node000002_Node000009" class="edge">
<title>Node2&#45;&gt;Node9</title>
<g id="a_edge8_Node000002_Node000009"><a xlink:title=" ">
<path fill="none" stroke="#63b8ff" d="M762.69,-118.13C666.6,-116.67 380.63,-109.54 134.41,-73.96"/>
<polygon fill="#63b8ff" stroke="#63b8ff" points="134.6,-70.45 124.19,-72.46 133.58,-77.37 134.6,-70.45"/>
</a>
</g>
</g>
<!-- Node10 -->
<g id="Node000010" class="node">
<title>Node10</title>
<g id="a_Node000010"><a xlink:title=" ">
<polygon fill="#e0e0e0" stroke="#999999" points="210,-74 142,-74 142,-55 210,-55 210,-74"/>
<text text-anchor="middle" x="176" y="-62" font-family="Helvetica,sans-Serif" font-size="10.00">filesystem</text>
</a>
</g>
</g>
<!-- Node2&#45;&gt;Node10 -->
<g id="edge9_Node000002_Node000010" class="edge">
<title>Node2&#45;&gt;Node10</title>
<g id="a_edge9_Node000002_Node000010"><a xlink:title=" ">
<path fill="none" stroke="#63b8ff" d="M763,-117.06C675.09,-112.99 428.04,-99.94 224,-74 222.72,-73.84 221.43,-73.67 220.13,-73.48"/>
<polygon fill="#63b8ff" stroke="#63b8ff" points="220.44,-69.99 210.03,-71.95 219.39,-76.91 220.44,-69.99"/>
</a>
</g>
</g>
<!-- Node11 -->
<g id="Node000011" class="node">
<title>Node11</title>
<g id="a_Node000011"><a xlink:title=" ">
<polygon fill="#e0e0e0" stroke="#999999" points="613.5,-19 548.5,-19 548.5,0 613.5,0 613.5,-19"/>
<text text-anchor="middle" x="581" y="-7" font-family="Helvetica,sans-Serif" font-size="10.00">stdexcept</text>
</a>
</g>
</g>
<!-- Node2&#45;&gt;Node11 -->
<g id="edge10_Node000002_Node000011" class="edge">
<title>Node2&#45;&gt;Node11</title>
<g id="a_edge10_Node000002_Node000011"><a xlink:title=" ">
<path fill="none" stroke="#63b8ff" d="M762.76,-118.31C650.62,-117.32 291.31,-111.26 257,-74 251.28,-67.79 251.45,-61.36 257,-55 292.98,-13.74 458.61,-9.39 538.14,-9.75"/>
<polygon fill="#63b8ff" stroke="#63b8ff" points="538.29,-13.26 548.31,-9.83 538.34,-6.26 538.29,-13.26"/>
</a>
</g>
</g>
<!-- Node12 -->
<g id="Node000012" class="node">
<title>Node12</title>
<g id="a_Node000012"><a xlink:title=" ">
<polygon fill="#e0e0e0" stroke="#999999" points="330,-74 266,-74 266,-55 330,-55 330,-74"/>
<text text-anchor="middle" x="298" y="-62" font-family="Helvetica,sans-Serif" font-size="10.00">algorithm</text>
</a>
</g>
</g>
<!-- Node2&#45;&gt;Node12 -->
<g id="edge11_Node000002_Node000012" class="edge">
<title>Node2&#45;&gt;Node12</title>
<g id="a_edge11_Node000002_Node000012"><a xlink:title=" ">
<path fill="none" stroke="#63b8ff" d="M762.95,-116.44C687.63,-111.49 497.53,-97.56 340,-74 339.9,-73.98 339.8,-73.97 339.7,-73.95"/>
<polygon fill="#63b8ff" stroke="#63b8ff" points="340.48,-70.54 330.04,-72.34 339.33,-77.44 340.48,-70.54"/>
</a>
</g>
</g>
<!-- Node13 -->
<g id="Node000013" class="node">
<title>Node13</title>
<g id="a_Node000013"><a xlink:title=" ">
<polygon fill="#e0e0e0" stroke="#999999" points="397.5,-74 348.5,-74 348.5,-55 397.5,-55 397.5,-74"/>
<text text-anchor="middle" x="373" y="-62" font-family="Helvetica,sans-Serif" font-size="10.00">cctype</text>
</a>
</g>
</g>
<!-- Node2&#45;&gt;Node13 -->
<g id="edge12_Node000002_Node000013" class="edge">
<title>Node2&#45;&gt;Node13</title>
<g id="a_edge12_Node000002_Node000013"><a xlink:title=" ">
<path fill="none" stroke="#63b8ff" d="M763,-116.19C697.24,-111.28 545.11,-98.34 407.67,-73.88"/>
<polygon fill="#63b8ff" stroke="#63b8ff" points="408.26,-70.43 397.8,-72.1 407.02,-77.32 408.26,-70.43"/>
</a>
</g>
</g>
<!-- Node14 -->
<g id="Node000014" class="node">
<title>Node14</title>
<g id="a_Node000014"><a xlink:title=" ">
<polygon fill="#e0e0e0" stroke="#999999" points="448,-74 416,-74 416,-55 448,-55 448,-74"/>
<text text-anchor="middle" x="432" y="-62" font-family="Helvetica,sans-Serif" font-size="10.00">set</text>
</a>
</g>
</g>
<!-- Node2&#45;&gt;Node14 -->
<g id="edge13_Node000002_Node000014" class="edge">
<title>Node2&#45;&gt;Node14</title>
<g id="a_edge13_Node000002_Node000014"><a xlink:title=" ">
<path fill="none" stroke="#63b8ff" d="M762.89,-116.33C703.45,-111.97 574.71,-100.41 457.83,-73.75"/>
<polygon fill="#63b8ff" stroke="#63b8ff" points="458.54,-70.32 448,-71.46 456.95,-77.13 458.54,-70.32"/>
</a>
</g>
</g>
<!-- Node15 -->
<g id="Node000015" class="node">
<title>Node15</title>
<g id="a_Node000015"><a xlink:title=" ">
<polygon fill="#e0e0e0" stroke="#999999" points="558,-74 466,-74 466,-55 558,-55 558,-74"/>
<text text-anchor="middle" x="512" y="-62" font-family="Helvetica,sans-Serif" font-size="10.00">cuda_runtime.h</text>
</a>
</g>
</g>
<!-- Node2&#45;&gt;Node15 -->
<g id="edge14_Node000002_Node000015" class="edge">
<title>Node2&#45;&gt;Node15</title>
<g id="a_edge14_Node000002_Node000015"><a xlink:title=" ">
<path fill="none" stroke="#63b8ff" d="M762.87,-112.32C714.97,-103.38 625.77,-86.73 567.66,-75.89"/>
<polygon fill="#63b8ff" stroke="#63b8ff" points="568.02,-72.39 557.55,-74 566.74,-79.28 568.02,-72.39"/>
</a>
</g>
</g>
<!-- Node16 -->
<g id="Node000016" class="node">
<title>Node16</title>
<g id="a_Node000016"><a xlink:title=" ">
<polygon fill="#e0e0e0" stroke="#999999" points="733.5,-74 576.5,-74 576.5,-55 733.5,-55 733.5,-74"/>
<text text-anchor="middle" x="655" y="-62" font-family="Helvetica,sans-Serif" font-size="10.00">device_launch_parameters.h</text>
</a>
</g>
</g>
<!-- Node2&#45;&gt;Node16 -->
<g id="edge15_Node000002_Node000016" class="edge">
<title>Node2&#45;&gt;Node16</title>
<g id="a_edge15_Node000002_Node000016"><a xlink:title=" ">
<path fill="none" stroke="#63b8ff" d="M773.35,-109.98C750.15,-101.27 713.88,-87.63 687.6,-77.75"/>
<polygon fill="#63b8ff" stroke="#63b8ff" points="688.66,-74.41 678.07,-74.17 686.2,-80.97 688.66,-74.41"/>
</a>
</g>
</g>
<!-- Node17 -->
<g id="Node000017" class="node">
<title>Node17</title>
<g id="a_Node000017"><a xlink:href="DataTypes_8cuh.html" target="_top" xlink:title="Core type definitions and macros for precision control, dimensionality, and indexing in CLIP.">
<polygon fill="white" stroke="#666666" points="840,-74 752,-74 752,-55 840,-55 840,-74"/>
<text text-anchor="middle" x="796" y="-62" font-family="Helvetica,sans-Serif" font-size="10.00">DataTypes.cuh</text>
</a>
</g>
</g>
<!-- Node2&#45;&gt;Node17 -->
<g id="edge16_Node000002_Node000017" class="edge">
<title>Node2&#45;&gt;Node17</title>
<g id="a_edge16_Node000002_Node000017"><a xlink:title=" ">
<path fill="none" stroke="#63b8ff" d="M796,-109.75C796,-102.8 796,-92.85 796,-84.13"/>
<polygon fill="#63b8ff" stroke="#63b8ff" points="799.5,-84.09 796,-74.09 792.5,-84.09 799.5,-84.09"/>
</a>
</g>
</g>
<!-- Node18 -->
<g id="Node000018" class="node">
<title>Node18</title>
<g id="a_Node000018"><a xlink:href="Logger_8cuh.html" target="_top" xlink:title="Defines the Logger class for standardized colored console output and error handling in the CLIP frame...">
<polygon fill="white" stroke="#666666" points="1039.5,-74 970.5,-74 970.5,-55 1039.5,-55 1039.5,-74"/>
<text text-anchor="middle" x="1005" y="-62" font-family="Helvetica,sans-Serif" font-size="10.00">Logger.cuh</text>
</a>
</g>
</g>
<!-- Node2&#45;&gt;Node18 -->
<g id="edge17_Node000002_Node000018" class="edge">
<title>Node2&#45;&gt;Node18</title>
<g id="a_edge17_Node000002_Node000018"><a xlink:title=" ">
<path fill="none" stroke="#63b8ff" d="M829.12,-110.1C864.91,-101.03 922.09,-86.52 961.49,-76.53"/>
<polygon fill="#63b8ff" stroke="#63b8ff" points="962.51,-79.88 971.35,-74.03 960.79,-73.1 962.51,-79.88"/>
</a>
</g>
</g>
<!-- Node18&#45;&gt;Node3 -->
<g id="edge18_Node000018_Node000003" class="edge">
<title>Node18&#45;&gt;Node3</title>
<g id="a_edge18_Node000018_Node000003"><a xlink:title=" ">
<path fill="none" stroke="#63b8ff" d="M999.72,-54.75C995.29,-47.42 988.84,-36.73 983.38,-27.7"/>
<polygon fill="#63b8ff" stroke="#63b8ff" points="986.35,-25.84 978.19,-19.09 980.36,-29.46 986.35,-25.84"/>
</a>
</g>
</g>
<!-- Node18&#45;&gt;Node5 -->
<g id="edge19_Node000018_Node000005" class="edge">
<title>Node18&#45;&gt;Node5</title>
<g id="a_edge19_Node000018_Node000005"><a xlink:title=" ">
<path fill="none" stroke="#63b8ff" d="M1037.62,-54.98C1075.62,-45.06 1138.03,-28.77 1175.84,-18.9"/>
<polygon fill="#63b8ff" stroke="#63b8ff" points="1177.02,-22.21 1185.81,-16.29 1175.25,-15.43 1177.02,-22.21"/>
</a>
</g>
</g>
<!-- Node18&#45;&gt;Node11 -->
<g id="edge20_Node000018_Node000011" class="edge">
<title>Node18&#45;&gt;Node11</title>
<g id="a_edge20_Node000018_Node000011"><a xlink:title=" ">
<path fill="none" stroke="#63b8ff" d="M970.3,-59.16C893.12,-49.52 707.45,-26.31 623.49,-15.81"/>
<polygon fill="#63b8ff" stroke="#63b8ff" points="623.89,-12.33 613.54,-14.57 623.02,-19.28 623.89,-12.33"/>
</a>
</g>
</g>
<!-- Node19&#45;&gt;Node2 -->
<g id="edge22_Node000019_Node000002" class="edge">
<title>Node19&#45;&gt;Node2</title>
<g id="a_edge22_Node000019_Node000002"><a xlink:title=" ">
<path fill="none" stroke="#63b8ff" d="M796,-164.75C796,-157.8 796,-147.85 796,-139.13"/>
<polygon fill="#63b8ff" stroke="#63b8ff" points="799.5,-139.09 796,-129.09 792.5,-139.09 799.5,-139.09"/>
</a>
</g>
</g>
<!-- Node20&#45;&gt;Node2 -->
<g id="edge24_Node000020_Node000002" class="edge">
<title>Node20&#45;&gt;Node2</title>
<g id="a_edge24_Node000020_Node000002"><a xlink:title=" ">
<path fill="none" stroke="#63b8ff" d="M879.17,-385C917.8,-360.67 1019.81,-288.17 985,-220 956.95,-165.08 885.59,-139.53 839.02,-128.36"/>
<polygon fill="#63b8ff" stroke="#63b8ff" points="839.73,-124.93 829.2,-126.13 838.18,-131.76 839.73,-124.93"/>
</a>
</g>
</g>
<!-- Node20&#45;&gt;Node19 -->
<g id="edge25_Node000020_Node000019" class="edge">
<title>Node20&#45;&gt;Node19</title>
<g id="a_edge25_Node000020_Node000019"><a xlink:title=" ">
<path fill="none" stroke="#63b8ff" d="M859.49,-384.84C849.06,-368.03 826.46,-329.51 815,-294 803.94,-259.75 799.16,-217.77 797.21,-194.08"/>
<polygon fill="#63b8ff" stroke="#63b8ff" points="800.7,-193.76 796.47,-184.04 793.72,-194.27 800.7,-193.76"/>
</a>
</g>
</g>
<!-- Node21 -->
<g id="Node000021" class="node">
<title>Node21</title>
<g id="a_Node000021"><a xlink:href="Boundary_8cuh.html" target="_top" xlink:title="Defines the Boundary class for handling physical and computational boundary conditions in the CLIP LB...">
<polygon fill="white" stroke="#666666" points="906,-294 824,-294 824,-275 906,-275 906,-294"/>
<text text-anchor="middle" x="865" y="-282" font-family="Helvetica,sans-Serif" font-size="10.00">Boundary.cuh</text>
</a>
</g>
</g>
<!-- Node20&#45;&gt;Node21 -->
<g id="edge26_Node000020_Node000021" class="edge">
<title>Node20&#45;&gt;Node21</title>
<g id="a_edge26_Node000020_Node000021"><a xlink:title=" ">
<path fill="none" stroke="#63b8ff" d="M865,-384.66C865,-367.17 865,-327.8 865,-304.27"/>
<polygon fill="#63b8ff" stroke="#63b8ff" points="868.5,-304.16 865,-294.16 861.5,-304.16 868.5,-304.16"/>
</a>
</g>
</g>
<!-- Node22 -->
<g id="Node000022" class="node">
<title>Node22</title>
<g id="a_Node000022"><a xlink:href="Domain_8cuh.html" target="_top" xlink:title="Defines the Domain class for managing spatial extents, indexing, and boundary checks in the CLIP LBM ...">
<polygon fill="white" stroke="#666666" points="975.5,-239 900.5,-239 900.5,-220 975.5,-220 975.5,-239"/>
<text text-anchor="middle" x="938" y="-227" font-family="Helvetica,sans-Serif" font-size="10.00">Domain.cuh</text>
</a>
</g>
</g>
<!-- Node20&#45;&gt;Node22 -->
<g id="edge32_Node000020_Node000022" class="edge">
<title>Node20&#45;&gt;Node22</title>
<g id="a_edge32_Node000020_Node000022"><a xlink:title=" ">
<path fill="none" stroke="#63b8ff" d="M873.72,-384.89C889.39,-368.77 921.92,-332.16 935,-294 939.93,-279.63 940.42,-262.35 939.83,-249.45"/>
<polygon fill="#63b8ff" stroke="#63b8ff" points="943.31,-249.14 939.11,-239.42 936.33,-249.64 943.31,-249.14"/>
</a>
</g>
</g>
<!-- Node20&#45;&gt;Node23 -->
<g id="edge33_Node000020_Node000023" class="edge">
<title>Node20&#45;&gt;Node23</title>
<g id="a_edge33_Node000020_Node000023"><a xlink:title=" ">
<path fill="none" stroke="#63b8ff" d="M844.92,-384.98C824.63,-376.38 793.04,-362.99 769.83,-353.15"/>
<polygon fill="#63b8ff" stroke="#63b8ff" points="771.02,-349.85 760.45,-349.17 768.29,-356.3 771.02,-349.85"/>
</a>
</g>
</g>
<!-- Node20&#45;&gt;Node25 -->
<g id="edge41_Node000020_Node000025" class="edge">
<title>Node20&#45;&gt;Node25</title>
<g id="a_edge41_Node000020_Node000025"><a xlink:title=" ">
<path fill="none" stroke="#63b8ff" d="M898.6,-389.75C932.43,-384.74 985.03,-373.46 1024,-349 1042.79,-337.21 1058.89,-317.25 1068.94,-302.85"/>
<polygon fill="#63b8ff" stroke="#63b8ff" points="1071.99,-304.59 1074.64,-294.33 1066.17,-300.7 1071.99,-304.59"/>
</a>
</g>
</g>
<!-- Node21&#45;&gt;Node2 -->
<g id="edge28_Node000021_Node000002" class="edge">
<title>Node21&#45;&gt;Node2</title>
<g id="a_edge28_Node000021_Node000002"><a xlink:title=" ">
<path fill="none" stroke="#63b8ff" d="M865.75,-274.82C867.12,-254.3 868.23,-201.79 848,-165 841.29,-152.8 829.83,-142.44 819.37,-134.8"/>
<polygon fill="#63b8ff" stroke="#63b8ff" points="821.18,-131.8 810.95,-129.04 817.22,-137.57 821.18,-131.8"/>
</a>
</g>
</g>
<!-- Node21&#45;&gt;Node19 -->
<g id="edge27_Node000021_Node000019" class="edge">
<title>Node21&#45;&gt;Node19</title>
<g id="a_edge27_Node000021_Node000019"><a xlink:title=" ">
<path fill="none" stroke="#63b8ff" d="M859.35,-274.66C847.92,-256.77 821.88,-216 806.98,-192.69"/>
<polygon fill="#63b8ff" stroke="#63b8ff" points="809.87,-190.7 801.53,-184.16 803.97,-194.47 809.87,-190.7"/>
</a>
</g>
</g>
<!-- Node21&#45;&gt;Node22 -->
<g id="edge29_Node000021_Node000022" class="edge">
<title>Node21&#45;&gt;Node22</title>
<g id="a_edge29_Node000021_Node000022"><a xlink:title=" ">
<path fill="none" stroke="#63b8ff" d="M876.73,-274.98C887.73,-267 904.42,-254.88 917.6,-245.31"/>
<polygon fill="#63b8ff" stroke="#63b8ff" points="920.02,-247.88 926.06,-239.17 915.91,-242.21 920.02,-247.88"/>
</a>
</g>
</g>
<!-- Node22&#45;&gt;Node2 -->
<g id="edge30_Node000022_Node000002" class="edge">
<title>Node22&#45;&gt;Node2</title>
<g id="a_edge30_Node000022_Node000002"><a xlink:title=" ">
<path fill="none" stroke="#63b8ff" d="M932.56,-219.7C924.02,-206.43 906.3,-181.14 886,-165 868.96,-151.45 847.13,-140.53 829.24,-132.9"/>
<polygon fill="#63b8ff" stroke="#63b8ff" points="830.34,-129.57 819.76,-129 827.68,-136.04 830.34,-129.57"/>
</a>
</g>
</g>
<!-- Node22&#45;&gt;Node19 -->
<g id="edge31_Node000022_Node000019" class="edge">
<title>Node22&#45;&gt;Node19</title>
<g id="a_edge31_Node000022_Node000019"><a xlink:title=" ">
<path fill="none" stroke="#63b8ff" d="M915.19,-219.98C891.83,-211.27 855.3,-197.63 828.83,-187.75"/>
<polygon fill="#63b8ff" stroke="#63b8ff" points="829.82,-184.39 819.23,-184.17 827.37,-190.95 829.82,-184.39"/>
</a>
</g>
</g>
<!-- Node23&#45;&gt;Node2 -->
<g id="edge34_Node000023_Node000002" class="edge">
<title>Node23&#45;&gt;Node2</title>
<g id="a_edge34_Node000023_Node000002"><a xlink:title=" ">
<path fill="none" stroke="#63b8ff" d="M737.89,-329.63C732.06,-303.08 717.86,-222.5 745,-165 750.8,-152.71 761.77,-142.45 772.05,-134.88"/>
<polygon fill="#63b8ff" stroke="#63b8ff" points="774.11,-137.71 780.39,-129.18 770.16,-131.93 774.11,-137.71"/>
</a>
</g>
</g>
<!-- Node23&#45;&gt;Node19 -->
<g id="edge35_Node000023_Node000019" class="edge">
<title>Node23&#45;&gt;Node19</title>
<g id="a_edge35_Node000023_Node000019"><a xlink:title=" ">
<path fill="none" stroke="#63b8ff" d="M743.01,-329.74C751.82,-304.09 777.69,-228.78 789.72,-193.78"/>
<polygon fill="#63b8ff" stroke="#63b8ff" points="793.04,-194.9 792.97,-184.31 786.41,-192.63 793.04,-194.9"/>
</a>
</g>
</g>
<!-- Node23&#45;&gt;Node21 -->
<g id="edge40_Node000023_Node000021" class="edge">
<title>Node23&#45;&gt;Node21</title>
<g id="a_edge40_Node000023_Node000021"><a xlink:title=" ">
<path fill="none" stroke="#63b8ff" d="M760.08,-329.98C780.37,-321.38 811.96,-307.99 835.17,-298.15"/>
<polygon fill="#63b8ff" stroke="#63b8ff" points="836.71,-301.3 844.55,-294.17 833.98,-294.85 836.71,-301.3"/>
</a>
</g>
</g>
<!-- Node23&#45;&gt;Node22 -->
<g id="edge36_Node000023_Node000022" class="edge">
<title>Node23&#45;&gt;Node22</title>
<g id="a_edge36_Node000023_Node000022"><a xlink:title=" ">
<path fill="none" stroke="#63b8ff" d="M782.66,-338.47C821.7,-336.18 878.76,-326.84 915,-294 927.62,-282.57 933.32,-263.68 935.89,-249.47"/>
<polygon fill="#63b8ff" stroke="#63b8ff" points="939.4,-249.7 937.36,-239.31 932.47,-248.7 939.4,-249.7"/>
</a>
</g>
</g>
<!-- Node23&#45;&gt;Node24 -->
<g id="edge37_Node000023_Node000024" class="edge">
<title>Node23&#45;&gt;Node24</title>
<g id="a_edge37_Node000023_Node000024"><a xlink:title=" ">
<path fill="none" stroke="#63b8ff" d="M730.18,-329.66C709.77,-311.3 662.57,-268.81 637.07,-245.87"/>
<polygon fill="#63b8ff" stroke="#63b8ff" points="639.39,-243.25 629.62,-239.16 634.71,-248.45 639.39,-243.25"/>
</a>
</g>
</g>
<!-- Node24&#45;&gt;Node2 -->
<g id="edge38_Node000024_Node000002" class="edge">
<title>Node24&#45;&gt;Node2</title>
<g id="a_edge38_Node000024_Node000002"><a xlink:title=" ">
<path fill="none" stroke="#63b8ff" d="M624.38,-219.81C631.64,-206.22 647.44,-179.96 668,-165 693.11,-146.73 726.35,-135.47 752.66,-128.85"/>
<polygon fill="#63b8ff" stroke="#63b8ff" points="753.82,-132.17 762.74,-126.45 752.2,-125.36 753.82,-132.17"/>
</a>
</g>
</g>
<!-- Node24&#45;&gt;Node19 -->
<g id="edge39_Node000024_Node000019" class="edge">
<title>Node24&#45;&gt;Node19</title>
<g id="a_edge39_Node000024_Node000019"><a xlink:title=" ">
<path fill="none" stroke="#63b8ff" d="M648.28,-219.98C677.95,-211.05 724.79,-196.94 757.75,-187.02"/>
<polygon fill="#63b8ff" stroke="#63b8ff" points="758.93,-190.32 767.5,-184.08 756.92,-183.61 758.93,-190.32"/>
</a>
</g>
</g>
<!-- Node25&#45;&gt;Node2 -->
<g id="edge43_Node000025_Node000002" class="edge">
<title>Node25&#45;&gt;Node2</title>
<g id="a_edge43_Node000025_Node000002"><a xlink:title=" ">
<path fill="none" stroke="#63b8ff" d="M1081.2,-274.83C1083.7,-252.93 1086.89,-194.96 1056,-165 1025.81,-135.72 905.1,-125.55 839.3,-122.14"/>
<polygon fill="#63b8ff" stroke="#63b8ff" points="839.4,-118.64 829.24,-121.65 839.06,-125.63 839.4,-118.64"/>
</a>
</g>
</g>
<!-- Node25&#45;&gt;Node5 -->
<g id="edge45_Node000025_Node000005" class="edge">
<title>Node25&#45;&gt;Node5</title>
<g id="a_edge45_Node000025_Node000005"><a xlink:title=" ">
<path fill="none" stroke="#63b8ff" d="M1087.94,-274.78C1112.05,-247.62 1184.33,-161.13 1209,-74 1213.14,-59.4 1212.53,-42.13 1211.09,-29.3"/>
<polygon fill="#63b8ff" stroke="#63b8ff" points="1214.55,-28.76 1209.71,-19.33 1207.62,-29.72 1214.55,-28.76"/>
</a>
</g>
</g>
<!-- Node25&#45;&gt;Node19 -->
<g id="edge42_Node000025_Node000019" class="edge">
<title>Node25&#45;&gt;Node19</title>
<g id="a_edge42_Node000025_Node000019"><a xlink:title=" ">
<path fill="none" stroke="#63b8ff" d="M1069.9,-274.93C1053.28,-261.28 1018.66,-234.64 985,-220 941.02,-200.87 887.54,-189.26 848.71,-182.72"/>
<polygon fill="#63b8ff" stroke="#63b8ff" points="849.1,-179.24 838.67,-181.08 847.98,-186.14 849.1,-179.24"/>
</a>
</g>
</g>
<!-- Node25&#45;&gt;Node22 -->
<g id="edge44_Node000025_Node000022" class="edge">
<title>Node25&#45;&gt;Node22</title>
<g id="a_edge44_Node000025_Node000022"><a xlink:title=" ">
<path fill="none" stroke="#63b8ff" d="M1057.19,-274.98C1033.83,-266.27 997.3,-252.63 970.83,-242.75"/>
<polygon fill="#63b8ff" stroke="#63b8ff" points="971.82,-239.39 961.23,-239.17 969.37,-245.95 971.82,-239.39"/>
</a>
</g>
</g>
</g>
</svg>

<g id="navigator" transform="translate(0 0)" fill="#404254">
  <rect fill="#f2f5e9" fill-opacity="0.5" stroke="#606060" stroke-width=".5" x="0" y="0" width="60" height="60"/>
  <use id="zoomplus" xlink:href="#zoomPlus" x="17" y="9" onmousedown="handleZoom(evt,'in')"/>
  <use id="zoomminus" xlink:href="#zoomMin" x="42" y="9" onmousedown="handleZoom(evt,'out')"/>
  <use id="reset" xlink:href="#resetDef" x="30" y="36" onmousedown="handleReset()"/>
   <use id="arrowup" xlink:href="#arrowUp" x="0" y="0" onmousedown="handlePan(0,-1)"/>
  <use id="arrowright" xlink:href="#arrowRight" x="0" y="0" onmousedown="handlePan(1,0)"/>
  <use id="arrowdown" xlink:href="#arrowDown" x="0" y="0" onmousedown="handlePan(0,1)"/>
  <use id="arrowleft" xlink:href="#arrowLeft" x="0" y="0" onmousedown="handlePan(-1,0)"/>
</g>
<svg viewBox="0 0 15 15" width="100%" height="30px" preserveAspectRatio="xMaxYMin meet">
 <g id="arrow_out" transform="scale(0.3 0.3)">
  <a xlink:href="NsAllen_8cuh__incl_org.svg" target="_base">
   <rect id="button" ry="5" rx="5" y="6" x="6" height="38" width="38"
        fill="#f2f5e9" fill-opacity="0.5" stroke="#606060" stroke-width="1.0"/>
   <path id="arrow"
     d="M 11.500037,31.436501 C 11.940474,20.09759 22.043105,11.32322 32.158766,21.979434 L 37.068811,17.246167 C 37.068811,17.246167 37.088388,32 37.088388,32 L 22.160133,31.978069 C 22.160133,31.978069 26.997745,27.140456 26.997745,27.140456 C 18.528582,18.264221 13.291696,25.230495 11.500037,31.436501 z"
     style="fill:#404040;"/>
  </a>
 </g>
</svg>

<style type='text/css'>
<![CDATA[
[data-mouse-over-selected='false'] { opacity: 0.7; }
[data-mouse-over-selected='true']  { opacity: 1.0; }
]]>
</style>
<script type="application/ecmascript"><![CDATA[
document.addEventListener('DOMContentLoaded', (event) => {
  highlightEdges();
  highlightAdjacentNodes();
});
]]></script>
</svg>
