<?xml version="1.0" encoding="UTF-8" standalone="no"?>
<!DOCTYPE svg PUBLIC "-//W3C//DTD SVG 1.1//EN"
 "http://www.w3.org/Graphics/SVG/1.1/DTD/svg11.dtd">
<!-- Generated by graphviz version 2.43.0 (0)
 -->
<!-- Title: /home/runner/work/CLIP/CLIP/src/utils/Reporter.cu Pages: 1 -->
<svg width="1204pt" height="478pt"
 viewBox="0.00 0.00 1203.52 478.00" xmlns="http://www.w3.org/2000/svg" xmlns:xlink="http://www.w3.org/1999/xlink">
<g id="graph0" class="graph" transform="scale(1 1) rotate(0) translate(4 474)">
<title>/home/runner/work/CLIP/CLIP/src/utils/Reporter.cu</title>
<!-- Node1 -->
<g id="Node000001" class="node">
<title>Node1</title>
<g id="a_Node000001"><a xlink:title="Reporting and diagnostics for CLIP simulations.">
<polygon fill="#999999" stroke="#666666" points="765.52,-470 625.52,-470 625.52,-440 765.52,-440 765.52,-470"/>
<text text-anchor="start" x="633.52" y="-458" font-family="Helvetica,sans-Serif" font-size="10.00">/home/runner/work/CLIP</text>
<text text-anchor="middle" x="695.52" y="-447" font-family="Helvetica,sans-Serif" font-size="10.00">/CLIP/src/utils/Reporter.cu</text>
</a>
</g>
</g>
<!-- Node2 -->
<g id="Node000002" class="node">
<title>Node2</title>
<g id="a_Node000002"><a xlink:href="Reporter_8cuh_source.html" target="_top" xlink:title=" ">
<polygon fill="white" stroke="#666666" points="734.52,-404 656.52,-404 656.52,-385 734.52,-385 734.52,-404"/>
<text text-anchor="middle" x="695.52" y="-392" font-family="Helvetica,sans-Serif" font-size="10.00">Reporter.cuh</text>
</a>
</g>
</g>
<!-- Node1&#45;&gt;Node2 -->
<g id="edge1_Node000001_Node000002" class="edge">
<title>Node1&#45;&gt;Node2</title>
<g id="a_edge1_Node000001_Node000002"><a xlink:title=" ">
<path fill="none" stroke="#63b8ff" d="M695.52,-439.84C695.52,-432.21 695.52,-422.7 695.52,-414.45"/>
<polygon fill="#63b8ff" stroke="#63b8ff" points="699.02,-414.27 695.52,-404.27 692.02,-414.27 699.02,-414.27"/>
</a>
</g>
</g>
<!-- Node3 -->
<g id="Node000003" class="node">
<title>Node3</title>
<g id="a_Node000003"><a xlink:href="includes_8h.html" target="_top" xlink:title="Common include header that provides core system libraries, CUDA headers, and project&#45;level dependenci...">
<polygon fill="white" stroke="#666666" points="597.52,-129 531.52,-129 531.52,-110 597.52,-110 597.52,-129"/>
<text text-anchor="middle" x="564.52" y="-117" font-family="Helvetica,sans-Serif" font-size="10.00">includes.h</text>
</a>
</g>
</g>
<!-- Node2&#45;&gt;Node3 -->
<g id="edge2_Node000002_Node000003" class="edge">
<title>Node2&#45;&gt;Node3</title>
<g id="a_edge2_Node000002_Node000003"><a xlink:title=" ">
<path fill="none" stroke="#63b8ff" d="M717.99,-384.92C752.23,-370.22 813.52,-336.74 813.52,-285.5 813.52,-285.5 813.52,-285.5 813.52,-228.5 813.52,-139.8 678.88,-123.15 607.61,-120.55"/>
<polygon fill="#63b8ff" stroke="#63b8ff" points="607.68,-117.05 597.58,-120.26 607.48,-124.05 607.68,-117.05"/>
</a>
</g>
</g>
<!-- Node18 -->
<g id="Node000018" class="node">
<title>Node18</title>
<g id="a_Node000018"><a xlink:href="DataTypes_8cuh.html" target="_top" xlink:title="Core type definitions and macros for precision control, dimensionality, and indexing in CLIP.">
<polygon fill="white" stroke="#666666" points="1195.52,-74 1107.52,-74 1107.52,-55 1195.52,-55 1195.52,-74"/>
<text text-anchor="middle" x="1151.52" y="-62" font-family="Helvetica,sans-Serif" font-size="10.00">DataTypes.cuh</text>
</a>
</g>
</g>
<!-- Node2&#45;&gt;Node18 -->
<g id="edge24_Node000002_Node000018" class="edge">
<title>Node2&#45;&gt;Node18</title>
<g id="a_edge24_Node000002_Node000018"><a xlink:title=" ">
<path fill="none" stroke="#63b8ff" d="M734.52,-388.42C818.43,-376.4 1008.52,-342.84 1008.52,-285.5 1008.52,-285.5 1008.52,-285.5 1008.52,-173.5 1008.52,-122.12 1068.02,-92.09 1110.26,-77.24"/>
<polygon fill="#63b8ff" stroke="#63b8ff" points="1111.41,-80.55 1119.78,-74.05 1109.19,-73.91 1111.41,-80.55"/>
</a>
</g>
</g>
<!-- Node20 -->
<g id="Node000020" class="node">
<title>Node20</title>
<g id="a_Node000020"><a xlink:href="InputData_8cuh.html" target="_top" xlink:title="Defines the InputData class responsible for reading and storing simulation parameters in the CLIP LBM...">
<polygon fill="white" stroke="#666666" points="517.02,-184 432.02,-184 432.02,-165 517.02,-165 517.02,-184"/>
<text text-anchor="middle" x="474.52" y="-172" font-family="Helvetica,sans-Serif" font-size="10.00">InputData.cuh</text>
</a>
</g>
</g>
<!-- Node2&#45;&gt;Node20 -->
<g id="edge22_Node000002_Node000020" class="edge">
<title>Node2&#45;&gt;Node20</title>
<g id="a_edge22_Node000002_Node000020"><a xlink:title=" ">
<path fill="none" stroke="#63b8ff" d="M656.28,-393.73C614.5,-392.01 548.48,-383.43 504.52,-349 457.56,-312.22 462.87,-279.46 467.52,-220 468.18,-211.52 469.54,-202.22 470.89,-194.32"/>
<polygon fill="#63b8ff" stroke="#63b8ff" points="474.36,-194.78 472.71,-184.32 467.48,-193.53 474.36,-194.78"/>
</a>
</g>
</g>
<!-- Node21 -->
<g id="Node000021" class="node">
<title>Node21</title>
<g id="a_Node000021"><a xlink:href="DataArray_8cuh.html" target="_top" xlink:title="Defines the DataArray class for managing all host/device memory allocation, data transfer,...">
<polygon fill="white" stroke="#666666" points="599.02,-349 514.02,-349 514.02,-330 599.02,-330 599.02,-349"/>
<text text-anchor="middle" x="556.52" y="-337" font-family="Helvetica,sans-Serif" font-size="10.00">DataArray.cuh</text>
</a>
</g>
</g>
<!-- Node2&#45;&gt;Node21 -->
<g id="edge25_Node000002_Node000021" class="edge">
<title>Node2&#45;&gt;Node21</title>
<g id="a_edge25_Node000002_Node000021"><a xlink:title=" ">
<path fill="none" stroke="#63b8ff" d="M673.18,-384.98C650.32,-376.27 614.56,-362.63 588.65,-352.75"/>
<polygon fill="#63b8ff" stroke="#63b8ff" points="589.85,-349.46 579.25,-349.17 587.35,-356 589.85,-349.46"/>
</a>
</g>
</g>
<!-- Node22 -->
<g id="Node000022" class="node">
<title>Node22</title>
<g id="a_Node000022"><a xlink:href="Domain_8cuh.html" target="_top" xlink:title="Defines the Domain class for managing spatial extents, indexing, and boundary checks in the CLIP LBM ...">
<polygon fill="white" stroke="#666666" points="649.02,-239 574.02,-239 574.02,-220 649.02,-220 649.02,-239"/>
<text text-anchor="middle" x="611.52" y="-227" font-family="Helvetica,sans-Serif" font-size="10.00">Domain.cuh</text>
</a>
</g>
</g>
<!-- Node2&#45;&gt;Node22 -->
<g id="edge38_Node000002_Node000022" class="edge">
<title>Node2&#45;&gt;Node22</title>
<g id="a_edge38_Node000002_Node000022"><a xlink:title=" ">
<path fill="none" stroke="#63b8ff" d="M691,-384.74C677.72,-358.98 638.64,-283.13 620.7,-248.33"/>
<polygon fill="#63b8ff" stroke="#63b8ff" points="623.75,-246.59 616.05,-239.31 617.52,-249.8 623.75,-246.59"/>
</a>
</g>
</g>
<!-- Node25 -->
<g id="Node000025" class="node">
<title>Node25</title>
<g id="a_Node000025"><a xlink:href="TimeInfo_8cuh.html" target="_top" xlink:title="Declares the TimeInfo class, which manages simulation time and step tracking in the CLIP LBM framewor...">
<polygon fill="white" stroke="#666666" points="785.52,-239 705.52,-239 705.52,-220 785.52,-220 785.52,-239"/>
<text text-anchor="middle" x="745.52" y="-227" font-family="Helvetica,sans-Serif" font-size="10.00">TimeInfo.cuh</text>
</a>
</g>
</g>
<!-- Node2&#45;&gt;Node25 -->
<g id="edge39_Node000002_Node000025" class="edge">
<title>Node2&#45;&gt;Node25</title>
<g id="a_edge39_Node000002_Node000025"><a xlink:title=" ">
<path fill="none" stroke="#63b8ff" d="M698.2,-384.74C706.04,-359.2 728.97,-284.43 739.77,-249.23"/>
<polygon fill="#63b8ff" stroke="#63b8ff" points="743.23,-249.89 742.81,-239.31 736.54,-247.84 743.23,-249.89"/>
</a>
</g>
</g>
<!-- Node4 -->
<g id="Node000004" class="node">
<title>Node4</title>
<g id="a_Node000004"><a xlink:title=" ">
<polygon fill="#e0e0e0" stroke="#999999" points="478.52,-19 418.52,-19 418.52,0 478.52,0 478.52,-19"/>
<text text-anchor="middle" x="448.52" y="-7" font-family="Helvetica,sans-Serif" font-size="10.00">iostream</text>
</a>
</g>
</g>
<!-- Node3&#45;&gt;Node4 -->
<g id="edge3_Node000003_Node000004" class="edge">
<title>Node3&#45;&gt;Node4</title>
<g id="a_edge3_Node000003_Node000004"><a xlink:title=" ">
<path fill="none" stroke="#63b8ff" d="M531.31,-118.41C416.62,-117.75 42.2,-112.64 6.52,-74 -49.13,-13.74 289.23,-9.71 408.24,-10.13"/>
<polygon fill="#63b8ff" stroke="#63b8ff" points="408.38,-13.63 418.4,-10.18 408.42,-6.63 408.38,-13.63"/>
</a>
</g>
</g>
<!-- Node5 -->
<g id="Node000005" class="node">
<title>Node5</title>
<g id="a_Node000005"><a xlink:title=" ">
<polygon fill="#e0e0e0" stroke="#999999" points="71.02,-74 16.02,-74 16.02,-55 71.02,-55 71.02,-74"/>
<text text-anchor="middle" x="43.52" y="-62" font-family="Helvetica,sans-Serif" font-size="10.00">fstream</text>
</a>
</g>
</g>
<!-- Node3&#45;&gt;Node5 -->
<g id="edge4_Node000003_Node000005" class="edge">
<title>Node3&#45;&gt;Node5</title>
<g id="a_edge4_Node000003_Node000005"><a xlink:title=" ">
<path fill="none" stroke="#63b8ff" d="M531.46,-116.99C454.33,-113.15 256.35,-101.39 81.22,-73.88"/>
<polygon fill="#63b8ff" stroke="#63b8ff" points="81.74,-70.42 71.32,-72.31 80.64,-77.34 81.74,-70.42"/>
</a>
</g>
</g>
<!-- Node6 -->
<g id="Node000006" class="node">
<title>Node6</title>
<g id="a_Node000006"><a xlink:title=" ">
<polygon fill="#e0e0e0" stroke="#999999" points="988.52,-19 944.52,-19 944.52,0 988.52,0 988.52,-19"/>
<text text-anchor="middle" x="966.52" y="-7" font-family="Helvetica,sans-Serif" font-size="10.00">string</text>
</a>
</g>
</g>
<!-- Node3&#45;&gt;Node6 -->
<g id="edge5_Node000003_Node000006" class="edge">
<title>Node3&#45;&gt;Node6</title>
<g id="a_edge5_Node000003_Node000006"><a xlink:title=" ">
<path fill="none" stroke="#63b8ff" d="M597.72,-118.43C678.11,-117.64 880.56,-111.86 934.52,-74 949.49,-63.49 957.86,-43.86 962.24,-29.2"/>
<polygon fill="#63b8ff" stroke="#63b8ff" points="965.71,-29.75 964.86,-19.19 958.94,-27.98 965.71,-29.75"/>
</a>
</g>
</g>
<!-- Node7 -->
<g id="Node000007" class="node">
<title>Node7</title>
<g id="a_Node000007"><a xlink:title=" ">
<polygon fill="#e0e0e0" stroke="#999999" points="145.52,-74 89.52,-74 89.52,-55 145.52,-55 145.52,-74"/>
<text text-anchor="middle" x="117.52" y="-62" font-family="Helvetica,sans-Serif" font-size="10.00">sstream</text>
</a>
</g>
</g>
<!-- Node3&#45;&gt;Node7 -->
<g id="edge6_Node000003_Node000007" class="edge">
<title>Node3&#45;&gt;Node7</title>
<g id="a_edge6_Node000003_Node000007"><a xlink:title=" ">
<path fill="none" stroke="#63b8ff" d="M531.38,-116.23C462.99,-111.27 301.09,-98.05 155.72,-74.02"/>
<polygon fill="#63b8ff" stroke="#63b8ff" points="156.17,-70.54 145.73,-72.34 155.01,-77.45 156.17,-70.54"/>
</a>
</g>
</g>
<!-- Node8 -->
<g id="Node000008" class="node">
<title>Node8</title>
<g id="a_Node000008"><a xlink:title=" ">
<polygon fill="#e0e0e0" stroke="#999999" points="211.02,-74 164.02,-74 164.02,-55 211.02,-55 211.02,-74"/>
<text text-anchor="middle" x="187.52" y="-62" font-family="Helvetica,sans-Serif" font-size="10.00">vector</text>
</a>
</g>
</g>
<!-- Node3&#45;&gt;Node8 -->
<g id="edge7_Node000003_Node000008" class="edge">
<title>Node3&#45;&gt;Node8</title>
<g id="a_edge7_Node000003_Node000008"><a xlink:title=" ">
<path fill="none" stroke="#63b8ff" d="M531.09,-115.56C471.05,-109.98 340.83,-96.53 221.28,-73.91"/>
<polygon fill="#63b8ff" stroke="#63b8ff" points="221.71,-70.43 211.23,-71.98 220.39,-77.3 221.71,-70.43"/>
</a>
</g>
</g>
<!-- Node9 -->
<g id="Node000009" class="node">
<title>Node9</title>
<g id="a_Node000009"><a xlink:title=" ">
<polygon fill="#e0e0e0" stroke="#999999" points="279.52,-74 229.52,-74 229.52,-55 279.52,-55 279.52,-74"/>
<text text-anchor="middle" x="254.52" y="-62" font-family="Helvetica,sans-Serif" font-size="10.00">cstring</text>
</a>
</g>
</g>
<!-- Node3&#45;&gt;Node9 -->
<g id="edge8_Node000003_Node000009" class="edge">
<title>Node3&#45;&gt;Node9</title>
<g id="a_edge8_Node000003_Node000009"><a xlink:title=" ">
<path fill="none" stroke="#63b8ff" d="M531.21,-114.06C480.95,-107.17 382.55,-92.88 289.56,-74.07"/>
<polygon fill="#63b8ff" stroke="#63b8ff" points="290.21,-70.63 279.71,-72.05 288.81,-77.49 290.21,-70.63"/>
</a>
</g>
</g>
<!-- Node10 -->
<g id="Node000010" class="node">
<title>Node10</title>
<g id="a_Node000010"><a xlink:title=" ">
<polygon fill="#e0e0e0" stroke="#999999" points="353.52,-74 297.52,-74 297.52,-55 353.52,-55 353.52,-74"/>
<text text-anchor="middle" x="325.52" y="-62" font-family="Helvetica,sans-Serif" font-size="10.00">iomanip</text>
</a>
</g>
</g>
<!-- Node3&#45;&gt;Node10 -->
<g id="edge9_Node000003_Node000010" class="edge">
<title>Node3&#45;&gt;Node10</title>
<g id="a_edge9_Node000003_Node000010"><a xlink:title=" ">
<path fill="none" stroke="#63b8ff" d="M531.25,-111.27C493.16,-102.96 428.6,-88.83 363.77,-74.27"/>
<polygon fill="#63b8ff" stroke="#63b8ff" points="364.32,-70.8 353.79,-72.02 362.78,-77.63 364.32,-70.8"/>
</a>
</g>
</g>
<!-- Node11 -->
<g id="Node000011" class="node">
<title>Node11</title>
<g id="a_Node000011"><a xlink:title=" ">
<polygon fill="#e0e0e0" stroke="#999999" points="439.52,-74 371.52,-74 371.52,-55 439.52,-55 439.52,-74"/>
<text text-anchor="middle" x="405.52" y="-62" font-family="Helvetica,sans-Serif" font-size="10.00">filesystem</text>
</a>
</g>
</g>
<!-- Node3&#45;&gt;Node11 -->
<g id="edge10_Node000003_Node000011" class="edge">
<title>Node3&#45;&gt;Node11</title>
<g id="a_edge10_Node000003_Node000011"><a xlink:title=" ">
<path fill="none" stroke="#63b8ff" d="M538.97,-109.98C512.39,-101.13 470.58,-87.19 440.84,-77.28"/>
<polygon fill="#63b8ff" stroke="#63b8ff" points="441.86,-73.92 431.26,-74.08 439.64,-80.56 441.86,-73.92"/>
</a>
</g>
</g>
<!-- Node12 -->
<g id="Node000012" class="node">
<title>Node12</title>
<g id="a_Node000012"><a xlink:title=" ">
<polygon fill="#e0e0e0" stroke="#999999" points="1098.02,-19 1033.02,-19 1033.02,0 1098.02,0 1098.02,-19"/>
<text text-anchor="middle" x="1065.52" y="-7" font-family="Helvetica,sans-Serif" font-size="10.00">stdexcept</text>
</a>
</g>
</g>
<!-- Node3&#45;&gt;Node12 -->
<g id="edge11_Node000003_Node000012" class="edge">
<title>Node3&#45;&gt;Node12</title>
<g id="a_edge11_Node000003_Node000012"><a xlink:title=" ">
<path fill="none" stroke="#63b8ff" d="M597.56,-117.96C703.24,-115.89 1027.99,-106.88 1060.52,-74 1071.81,-62.59 1071.9,-43.69 1069.86,-29.48"/>
<polygon fill="#63b8ff" stroke="#63b8ff" points="1073.24,-28.49 1067.95,-19.31 1066.36,-29.79 1073.24,-28.49"/>
</a>
</g>
</g>
<!-- Node13 -->
<g id="Node000013" class="node">
<title>Node13</title>
<g id="a_Node000013"><a xlink:title=" ">
<polygon fill="#e0e0e0" stroke="#999999" points="521.52,-74 457.52,-74 457.52,-55 521.52,-55 521.52,-74"/>
<text text-anchor="middle" x="489.52" y="-62" font-family="Helvetica,sans-Serif" font-size="10.00">algorithm</text>
</a>
</g>
</g>
<!-- Node3&#45;&gt;Node13 -->
<g id="edge12_Node000003_Node000013" class="edge">
<title>Node3&#45;&gt;Node13</title>
<g id="a_edge12_Node000003_Node000013"><a xlink:title=" ">
<path fill="none" stroke="#63b8ff" d="M552.47,-109.98C541.05,-101.92 523.68,-89.65 510.08,-80.03"/>
<polygon fill="#63b8ff" stroke="#63b8ff" points="511.97,-77.08 501.79,-74.17 507.93,-82.8 511.97,-77.08"/>
</a>
</g>
</g>
<!-- Node14 -->
<g id="Node000014" class="node">
<title>Node14</title>
<g id="a_Node000014"><a xlink:title=" ">
<polygon fill="#e0e0e0" stroke="#999999" points="589.02,-74 540.02,-74 540.02,-55 589.02,-55 589.02,-74"/>
<text text-anchor="middle" x="564.52" y="-62" font-family="Helvetica,sans-Serif" font-size="10.00">cctype</text>
</a>
</g>
</g>
<!-- Node3&#45;&gt;Node14 -->
<g id="edge13_Node000003_Node000014" class="edge">
<title>Node3&#45;&gt;Node14</title>
<g id="a_edge13_Node000003_Node000014"><a xlink:title=" ">
<path fill="none" stroke="#63b8ff" d="M564.52,-109.75C564.52,-102.8 564.52,-92.85 564.52,-84.13"/>
<polygon fill="#63b8ff" stroke="#63b8ff" points="568.02,-84.09 564.52,-74.09 561.02,-84.09 568.02,-84.09"/>
</a>
</g>
</g>
<!-- Node15 -->
<g id="Node000015" class="node">
<title>Node15</title>
<g id="a_Node000015"><a xlink:title=" ">
<polygon fill="#e0e0e0" stroke="#999999" points="639.52,-74 607.52,-74 607.52,-55 639.52,-55 639.52,-74"/>
<text text-anchor="middle" x="623.52" y="-62" font-family="Helvetica,sans-Serif" font-size="10.00">set</text>
</a>
</g>
</g>
<!-- Node3&#45;&gt;Node15 -->
<g id="edge14_Node000003_Node000015" class="edge">
<title>Node3&#45;&gt;Node15</title>
<g id="a_edge14_Node000003_Node000015"><a xlink:title=" ">
<path fill="none" stroke="#63b8ff" d="M574,-109.98C582.72,-102.15 595.86,-90.34 606.41,-80.86"/>
<polygon fill="#63b8ff" stroke="#63b8ff" points="608.76,-83.46 613.86,-74.17 604.09,-78.25 608.76,-83.46"/>
</a>
</g>
</g>
<!-- Node16 -->
<g id="Node000016" class="node">
<title>Node16</title>
<g id="a_Node000016"><a xlink:title=" ">
<polygon fill="#e0e0e0" stroke="#999999" points="749.52,-74 657.52,-74 657.52,-55 749.52,-55 749.52,-74"/>
<text text-anchor="middle" x="703.52" y="-62" font-family="Helvetica,sans-Serif" font-size="10.00">cuda_runtime.h</text>
</a>
</g>
</g>
<!-- Node3&#45;&gt;Node16 -->
<g id="edge15_Node000003_Node000016" class="edge">
<title>Node3&#45;&gt;Node16</title>
<g id="a_edge15_Node000003_Node000016"><a xlink:title=" ">
<path fill="none" stroke="#63b8ff" d="M586.85,-109.98C609.71,-101.27 645.47,-87.63 671.38,-77.75"/>
<polygon fill="#63b8ff" stroke="#63b8ff" points="672.68,-81 680.78,-74.17 670.19,-74.46 672.68,-81"/>
</a>
</g>
</g>
<!-- Node17 -->
<g id="Node000017" class="node">
<title>Node17</title>
<g id="a_Node000017"><a xlink:title=" ">
<polygon fill="#e0e0e0" stroke="#999999" points="925.02,-74 768.02,-74 768.02,-55 925.02,-55 925.02,-74"/>
<text text-anchor="middle" x="846.52" y="-62" font-family="Helvetica,sans-Serif" font-size="10.00">device_launch_parameters.h</text>
</a>
</g>
</g>
<!-- Node3&#45;&gt;Node17 -->
<g id="edge16_Node000003_Node000017" class="edge">
<title>Node3&#45;&gt;Node17</title>
<g id="a_edge16_Node000003_Node000017"><a xlink:title=" ">
<path fill="none" stroke="#63b8ff" d="M597.69,-112.26C645.22,-103.33 733.27,-86.78 790.87,-75.96"/>
<polygon fill="#63b8ff" stroke="#63b8ff" points="791.71,-79.36 800.9,-74.07 790.42,-72.48 791.71,-79.36"/>
</a>
</g>
</g>
<!-- Node3&#45;&gt;Node18 -->
<g id="edge17_Node000003_Node000018" class="edge">
<title>Node3&#45;&gt;Node18</title>
<g id="a_edge17_Node000003_Node000018"><a xlink:title=" ">
<path fill="none" stroke="#63b8ff" d="M597.7,-116.42C681.16,-111.04 906.51,-95.55 1093.52,-74 1094.63,-73.87 1095.75,-73.74 1096.88,-73.6"/>
<polygon fill="#63b8ff" stroke="#63b8ff" points="1097.74,-77.02 1107.22,-72.28 1096.86,-70.08 1097.74,-77.02"/>
</a>
</g>
</g>
<!-- Node19 -->
<g id="Node000019" class="node">
<title>Node19</title>
<g id="a_Node000019"><a xlink:href="Logger_8cuh.html" target="_top" xlink:title="Defines the Logger class for standardized colored console output and error handling in the CLIP frame...">
<polygon fill="white" stroke="#666666" points="1051.02,-74 982.02,-74 982.02,-55 1051.02,-55 1051.02,-74"/>
<text text-anchor="middle" x="1016.52" y="-62" font-family="Helvetica,sans-Serif" font-size="10.00">Logger.cuh</text>
</a>
</g>
</g>
<!-- Node3&#45;&gt;Node19 -->
<g id="edge18_Node000003_Node000019" class="edge">
<title>Node3&#45;&gt;Node19</title>
<g id="a_edge18_Node000003_Node000019"><a xlink:title=" ">
<path fill="none" stroke="#63b8ff" d="M597.78,-115.53C666.84,-109.21 830.74,-93.4 967.52,-74 968.81,-73.82 970.13,-73.62 971.46,-73.43"/>
<polygon fill="#63b8ff" stroke="#63b8ff" points="972.43,-76.82 981.76,-71.8 971.34,-69.9 972.43,-76.82"/>
</a>
</g>
</g>
<!-- Node19&#45;&gt;Node4 -->
<g id="edge19_Node000019_Node000004" class="edge">
<title>Node19&#45;&gt;Node4</title>
<g id="a_edge19_Node000019_Node000004"><a xlink:title=" ">
<path fill="none" stroke="#63b8ff" d="M981.81,-59.81C967.21,-58.28 950.04,-56.52 934.52,-55 769.14,-38.86 571.93,-21.33 488.71,-14.02"/>
<polygon fill="#63b8ff" stroke="#63b8ff" points="488.94,-10.52 478.67,-13.13 488.33,-17.5 488.94,-10.52"/>
</a>
</g>
</g>
<!-- Node19&#45;&gt;Node6 -->
<g id="edge20_Node000019_Node000006" class="edge">
<title>Node19&#45;&gt;Node6</title>
<g id="a_edge20_Node000019_Node000006"><a xlink:title=" ">
<path fill="none" stroke="#63b8ff" d="M1008.26,-54.75C1001.05,-47.11 990.41,-35.82 981.67,-26.56"/>
<polygon fill="#63b8ff" stroke="#63b8ff" points="984.03,-23.96 974.62,-19.09 978.94,-28.76 984.03,-23.96"/>
</a>
</g>
</g>
<!-- Node19&#45;&gt;Node12 -->
<g id="edge21_Node000019_Node000012" class="edge">
<title>Node19&#45;&gt;Node12</title>
<g id="a_edge21_Node000019_Node000012"><a xlink:title=" ">
<path fill="none" stroke="#63b8ff" d="M1024.61,-54.75C1031.67,-47.11 1042.1,-35.82 1050.66,-26.56"/>
<polygon fill="#63b8ff" stroke="#63b8ff" points="1053.36,-28.81 1057.58,-19.09 1048.22,-24.06 1053.36,-28.81"/>
</a>
</g>
</g>
<!-- Node20&#45;&gt;Node3 -->
<g id="edge23_Node000020_Node000003" class="edge">
<title>Node20&#45;&gt;Node3</title>
<g id="a_edge23_Node000020_Node000003"><a xlink:title=" ">
<path fill="none" stroke="#63b8ff" d="M488.98,-164.98C502.93,-156.77 524.31,-144.18 540.77,-134.49"/>
<polygon fill="#63b8ff" stroke="#63b8ff" points="542.95,-137.26 549.79,-129.17 539.4,-131.23 542.95,-137.26"/>
</a>
</g>
</g>
<!-- Node21&#45;&gt;Node3 -->
<g id="edge26_Node000021_Node000003" class="edge">
<title>Node21&#45;&gt;Node3</title>
<g id="a_edge26_Node000021_Node000003"><a xlink:title=" ">
<path fill="none" stroke="#63b8ff" d="M571.34,-329.83C595.17,-314.88 641.01,-281.7 657.52,-239 674.41,-195.3 622.11,-154.73 589.19,-134.31"/>
<polygon fill="#63b8ff" stroke="#63b8ff" points="590.87,-131.23 580.49,-129.1 587.27,-137.24 590.87,-131.23"/>
</a>
</g>
</g>
<!-- Node21&#45;&gt;Node20 -->
<g id="edge27_Node000021_Node000020" class="edge">
<title>Node21&#45;&gt;Node20</title>
<g id="a_edge27_Node000021_Node000020"><a xlink:title=" ">
<path fill="none" stroke="#63b8ff" d="M534.02,-329.87C518.55,-322.69 498.99,-310.91 488.52,-294 469.4,-263.13 469.9,-219 472.11,-194.22"/>
<polygon fill="#63b8ff" stroke="#63b8ff" points="475.62,-194.36 473.22,-184.04 468.66,-193.6 475.62,-194.36"/>
</a>
</g>
</g>
<!-- Node21&#45;&gt;Node22 -->
<g id="edge28_Node000021_Node000022" class="edge">
<title>Node21&#45;&gt;Node22</title>
<g id="a_edge28_Node000021_Node000022"><a xlink:title=" ">
<path fill="none" stroke="#63b8ff" d="M563.91,-329.78C570.96,-321.13 581.5,-307.3 588.52,-294 596.21,-279.42 602.39,-261.69 606.4,-248.68"/>
<polygon fill="#63b8ff" stroke="#63b8ff" points="609.77,-249.61 609.24,-239.03 603.06,-247.64 609.77,-249.61"/>
</a>
</g>
</g>
<!-- Node23 -->
<g id="Node000023" class="node">
<title>Node23</title>
<g id="a_Node000023"><a xlink:href="WMRT_8cuh.html" target="_top" xlink:title="Implements the Weighted Multiple Relaxation Time (WMRT) conversion and reconstruction operators for t...">
<polygon fill="white" stroke="#666666" points="384.02,-239 317.02,-239 317.02,-220 384.02,-220 384.02,-239"/>
<text text-anchor="middle" x="350.52" y="-227" font-family="Helvetica,sans-Serif" font-size="10.00">WMRT.cuh</text>
</a>
</g>
</g>
<!-- Node21&#45;&gt;Node23 -->
<g id="edge31_Node000021_Node000023" class="edge">
<title>Node21&#45;&gt;Node23</title>
<g id="a_edge31_Node000021_Node000023"><a xlink:title=" ">
<path fill="none" stroke="#63b8ff" d="M534.86,-329.91C514.15,-321.47 482.21,-307.88 455.52,-294 425.71,-278.51 392.79,-258.01 371.9,-244.55"/>
<polygon fill="#63b8ff" stroke="#63b8ff" points="373.76,-241.58 363.46,-239.08 369.95,-247.46 373.76,-241.58"/>
</a>
</g>
</g>
<!-- Node24 -->
<g id="Node000024" class="node">
<title>Node24</title>
<g id="a_Node000024"><a xlink:href="Boundary_8cuh.html" target="_top" xlink:title="Defines the Boundary class for handling physical and computational boundary conditions in the CLIP LB...">
<polygon fill="white" stroke="#666666" points="579.52,-294 497.52,-294 497.52,-275 579.52,-275 579.52,-294"/>
<text text-anchor="middle" x="538.52" y="-282" font-family="Helvetica,sans-Serif" font-size="10.00">Boundary.cuh</text>
</a>
</g>
</g>
<!-- Node21&#45;&gt;Node24 -->
<g id="edge34_Node000021_Node000024" class="edge">
<title>Node21&#45;&gt;Node24</title>
<g id="a_edge34_Node000021_Node000024"><a xlink:title=" ">
<path fill="none" stroke="#63b8ff" d="M553.54,-329.75C551.16,-322.72 547.73,-312.62 544.75,-303.84"/>
<polygon fill="#63b8ff" stroke="#63b8ff" points="547.96,-302.43 541.43,-294.09 541.33,-304.68 547.96,-302.43"/>
</a>
</g>
</g>
<!-- Node22&#45;&gt;Node3 -->
<g id="edge29_Node000022_Node000003" class="edge">
<title>Node22&#45;&gt;Node3</title>
<g id="a_edge29_Node000022_Node000003"><a xlink:title=" ">
<path fill="none" stroke="#63b8ff" d="M607.67,-219.66C599.99,-202.01 582.61,-162.09 572.41,-138.64"/>
<polygon fill="#63b8ff" stroke="#63b8ff" points="575.48,-136.93 568.28,-129.16 569.06,-139.72 575.48,-136.93"/>
</a>
</g>
</g>
<!-- Node22&#45;&gt;Node20 -->
<g id="edge30_Node000022_Node000020" class="edge">
<title>Node22&#45;&gt;Node20</title>
<g id="a_edge30_Node000022_Node000020"><a xlink:title=" ">
<path fill="none" stroke="#63b8ff" d="M589.5,-219.98C567.07,-211.3 532.03,-197.75 506.53,-187.88"/>
<polygon fill="#63b8ff" stroke="#63b8ff" points="507.52,-184.51 496.93,-184.17 504.99,-191.04 507.52,-184.51"/>
</a>
</g>
</g>
<!-- Node23&#45;&gt;Node3 -->
<g id="edge32_Node000023_Node000003" class="edge">
<title>Node23&#45;&gt;Node3</title>
<g id="a_edge32_Node000023_Node000003"><a xlink:title=" ">
<path fill="none" stroke="#63b8ff" d="M358.06,-219.83C370.29,-206.27 395.8,-180.06 422.52,-165 453.52,-147.53 492.28,-135.97 521.46,-129.03"/>
<polygon fill="#63b8ff" stroke="#63b8ff" points="522.39,-132.4 531.36,-126.76 520.83,-125.58 522.39,-132.4"/>
</a>
</g>
</g>
<!-- Node23&#45;&gt;Node20 -->
<g id="edge33_Node000023_Node000020" class="edge">
<title>Node23&#45;&gt;Node20</title>
<g id="a_edge33_Node000023_Node000020"><a xlink:title=" ">
<path fill="none" stroke="#63b8ff" d="M370.44,-219.98C390.57,-211.38 421.9,-197.99 444.93,-188.15"/>
<polygon fill="#63b8ff" stroke="#63b8ff" points="446.41,-191.32 454.23,-184.17 443.66,-184.88 446.41,-191.32"/>
</a>
</g>
</g>
<!-- Node24&#45;&gt;Node3 -->
<g id="edge36_Node000024_Node000003" class="edge">
<title>Node24&#45;&gt;Node3</title>
<g id="a_edge36_Node000024_Node000003"><a xlink:title=" ">
<path fill="none" stroke="#63b8ff" d="M539.91,-274.74C543.99,-249.2 555.91,-174.43 561.53,-139.23"/>
<polygon fill="#63b8ff" stroke="#63b8ff" points="564.99,-139.73 563.11,-129.31 558.08,-138.63 564.99,-139.73"/>
</a>
</g>
</g>
<!-- Node24&#45;&gt;Node20 -->
<g id="edge35_Node000024_Node000020" class="edge">
<title>Node24&#45;&gt;Node20</title>
<g id="a_edge35_Node000024_Node000020"><a xlink:title=" ">
<path fill="none" stroke="#63b8ff" d="M533.28,-274.66C522.73,-256.85 498.73,-216.37 484.89,-193.01"/>
<polygon fill="#63b8ff" stroke="#63b8ff" points="487.76,-190.98 479.65,-184.16 481.73,-194.55 487.76,-190.98"/>
</a>
</g>
</g>
<!-- Node24&#45;&gt;Node22 -->
<g id="edge37_Node000024_Node000022" class="edge">
<title>Node24&#45;&gt;Node22</title>
<g id="a_edge37_Node000024_Node000022"><a xlink:title=" ">
<path fill="none" stroke="#63b8ff" d="M550.24,-274.98C561.25,-267 577.94,-254.88 591.12,-245.31"/>
<polygon fill="#63b8ff" stroke="#63b8ff" points="593.54,-247.88 599.57,-239.17 589.43,-242.21 593.54,-247.88"/>
</a>
</g>
</g>
<!-- Node25&#45;&gt;Node3 -->
<g id="edge40_Node000025_Node000003" class="edge">
<title>Node25&#45;&gt;Node3</title>
<g id="a_edge40_Node000025_Node000003"><a xlink:title=" ">
<path fill="none" stroke="#63b8ff" d="M740.31,-219.83C731.76,-206.28 713.47,-180.07 691.52,-165 666.26,-147.67 633.57,-136.42 607.68,-129.56"/>
<polygon fill="#63b8ff" stroke="#63b8ff" points="608.31,-126.11 597.76,-127.06 606.6,-132.9 608.31,-126.11"/>
</a>
</g>
</g>
<!-- Node25&#45;&gt;Node20 -->
<g id="edge41_Node000025_Node000020" class="edge">
<title>Node25&#45;&gt;Node20</title>
<g id="a_edge41_Node000025_Node000020"><a xlink:title=" ">
<path fill="none" stroke="#63b8ff" d="M705.24,-220.62C657.96,-211.38 579.42,-196.02 527.31,-185.82"/>
<polygon fill="#63b8ff" stroke="#63b8ff" points="527.74,-182.34 517.25,-183.86 526.4,-189.21 527.74,-182.34"/>
</a>
</g>
</g>
</g>
</svg>
