<?xml version="1.0" encoding="UTF-8" standalone="no"?>
<!DOCTYPE svg PUBLIC "-//W3C//DTD SVG 1.1//EN"
 "http://www.w3.org/Graphics/SVG/1.1/DTD/svg11.dtd">
<!-- Generated by graphviz version 2.43.0 (0)
 -->
<!-- Title: /home/runner/work/CLIP/CLIP/include/solver/Solver.cuh Pages: 1 -->
<svg width="1268pt" height="423pt"
 viewBox="0.00 0.00 1267.50 423.00" xmlns="http://www.w3.org/2000/svg" xmlns:xlink="http://www.w3.org/1999/xlink">
<g id="graph0" class="graph" transform="scale(1 1) rotate(0) translate(4 419)">
<title>/home/runner/work/CLIP/CLIP/include/solver/Solver.cuh</title>
<!-- Node1 -->
<g id="Node000001" class="node">
<title>Node1</title>
<g id="a_Node000001"><a xlink:title="Declares the base Solver class that implements common boundary condition logic and field&#45;level utilit...">
<polygon fill="#999999" stroke="#666666" points="889,-415 724,-415 724,-385 889,-385 889,-415"/>
<text text-anchor="start" x="732" y="-403" font-family="Helvetica,sans-Serif" font-size="10.00">/home/runner/work/CLIP</text>
<text text-anchor="middle" x="806.5" y="-392" font-family="Helvetica,sans-Serif" font-size="10.00">/CLIP/include/solver/Solver.cuh</text>
</a>
</g>
</g>
<!-- Node2 -->
<g id="Node000002" class="node">
<title>Node2</title>
<g id="a_Node000002"><a xlink:href="includes_8h.html" target="_top" xlink:title="Common include header that provides core system libraries, CUDA headers, and project&#45;level dependenci...">
<polygon fill="white" stroke="#666666" points="657.5,-129 591.5,-129 591.5,-110 657.5,-110 657.5,-129"/>
<text text-anchor="middle" x="624.5" y="-117" font-family="Helvetica,sans-Serif" font-size="10.00">includes.h</text>
</a>
</g>
</g>
<!-- Node1&#45;&gt;Node2 -->
<g id="edge1_Node000001_Node000002" class="edge">
<title>Node1&#45;&gt;Node2</title>
<g id="a_edge1_Node000001_Node000002"><a xlink:title=" ">
<path fill="none" stroke="#63b8ff" d="M889.32,-389.88C996.46,-375.73 1169.5,-343.85 1169.5,-285.5 1169.5,-285.5 1169.5,-285.5 1169.5,-228.5 1169.5,-126.47 797.32,-119.32 668.08,-119.91"/>
<polygon fill="#63b8ff" stroke="#63b8ff" points="667.75,-116.41 657.77,-119.98 667.79,-123.41 667.75,-116.41"/>
</a>
</g>
</g>
<!-- Node19 -->
<g id="Node000019" class="node">
<title>Node19</title>
<g id="a_Node000019"><a xlink:href="InputData_8cuh.html" target="_top" xlink:title="Defines the InputData class responsible for reading and storing simulation parameters in the CLIP LBM...">
<polygon fill="white" stroke="#666666" points="720,-184 635,-184 635,-165 720,-165 720,-184"/>
<text text-anchor="middle" x="677.5" y="-172" font-family="Helvetica,sans-Serif" font-size="10.00">InputData.cuh</text>
</a>
</g>
</g>
<!-- Node1&#45;&gt;Node19 -->
<g id="edge21_Node000001_Node000019" class="edge">
<title>Node1&#45;&gt;Node19</title>
<g id="a_edge21_Node000001_Node000019"><a xlink:title=" ">
<path fill="none" stroke="#63b8ff" d="M735.77,-385C687.47,-371.13 627.82,-344.36 602.5,-294 582.78,-254.77 628.06,-212 656.55,-190.15"/>
<polygon fill="#63b8ff" stroke="#63b8ff" points="658.81,-192.83 664.76,-184.07 654.65,-187.21 658.81,-192.83"/>
</a>
</g>
</g>
<!-- Node20 -->
<g id="Node000020" class="node">
<title>Node20</title>
<g id="a_Node000020"><a xlink:href="Boundary_8cuh.html" target="_top" xlink:title="Defines the Boundary class for handling physical and computational boundary conditions in the CLIP LB...">
<polygon fill="white" stroke="#666666" points="693.5,-294 611.5,-294 611.5,-275 693.5,-275 693.5,-294"/>
<text text-anchor="middle" x="652.5" y="-282" font-family="Helvetica,sans-Serif" font-size="10.00">Boundary.cuh</text>
</a>
</g>
</g>
<!-- Node1&#45;&gt;Node20 -->
<g id="edge23_Node000001_Node000020" class="edge">
<title>Node1&#45;&gt;Node20</title>
<g id="a_edge23_Node000001_Node000020"><a xlink:title=" ">
<path fill="none" stroke="#63b8ff" d="M764.38,-384.95C743.46,-376.63 718.63,-364.64 699.5,-349 683.95,-336.29 670.81,-317.34 662.41,-303.45"/>
<polygon fill="#63b8ff" stroke="#63b8ff" points="665.21,-301.29 657.17,-294.39 659.15,-304.8 665.21,-301.29"/>
</a>
</g>
</g>
<!-- Node21 -->
<g id="Node000021" class="node">
<title>Node21</title>
<g id="a_Node000021"><a xlink:href="Domain_8cuh.html" target="_top" xlink:title="Defines the Domain class for managing spatial extents, indexing, and boundary checks in the CLIP LBM ...">
<polygon fill="white" stroke="#666666" points="875,-239 800,-239 800,-220 875,-220 875,-239"/>
<text text-anchor="middle" x="837.5" y="-227" font-family="Helvetica,sans-Serif" font-size="10.00">Domain.cuh</text>
</a>
</g>
</g>
<!-- Node1&#45;&gt;Node21 -->
<g id="edge29_Node000001_Node000021" class="edge">
<title>Node1&#45;&gt;Node21</title>
<g id="a_edge29_Node000001_Node000021"><a xlink:title=" ">
<path fill="none" stroke="#63b8ff" d="M809.09,-384.92C814.66,-354.65 827.78,-283.35 834.05,-249.27"/>
<polygon fill="#63b8ff" stroke="#63b8ff" points="837.52,-249.72 835.89,-239.25 830.64,-248.46 837.52,-249.72"/>
</a>
</g>
</g>
<!-- Node22 -->
<g id="Node000022" class="node">
<title>Node22</title>
<g id="a_Node000022"><a xlink:href="DataArray_8cuh.html" target="_top" xlink:title="Defines the DataArray class for managing all host/device memory allocation, data transfer,...">
<polygon fill="white" stroke="#666666" points="793,-349 708,-349 708,-330 793,-330 793,-349"/>
<text text-anchor="middle" x="750.5" y="-337" font-family="Helvetica,sans-Serif" font-size="10.00">DataArray.cuh</text>
</a>
</g>
</g>
<!-- Node1&#45;&gt;Node22 -->
<g id="edge30_Node000001_Node000022" class="edge">
<title>Node1&#45;&gt;Node22</title>
<g id="a_edge30_Node000001_Node000022"><a xlink:title=" ">
<path fill="none" stroke="#63b8ff" d="M792.94,-384.84C784.82,-376.35 774.45,-365.52 766,-356.69"/>
<polygon fill="#63b8ff" stroke="#63b8ff" points="768.33,-354.07 758.89,-349.27 763.28,-358.91 768.33,-354.07"/>
</a>
</g>
</g>
<!-- Node24 -->
<g id="Node000024" class="node">
<title>Node24</title>
<g id="a_Node000024"><a xlink:href="Geometry_8cuh.html" target="_top" xlink:title="Defines the Geometry class for managing embedded objects and generating signed distance functions (SD...">
<polygon fill="white" stroke="#666666" points="947.5,-294 863.5,-294 863.5,-275 947.5,-275 947.5,-294"/>
<text text-anchor="middle" x="905.5" y="-282" font-family="Helvetica,sans-Serif" font-size="10.00">Geometry.cuh</text>
</a>
</g>
</g>
<!-- Node1&#45;&gt;Node24 -->
<g id="edge38_Node000001_Node000024" class="edge">
<title>Node1&#45;&gt;Node24</title>
<g id="a_edge38_Node000001_Node000024"><a xlink:title=" ">
<path fill="none" stroke="#63b8ff" d="M819.04,-384.63C837.49,-363.47 871.87,-324.05 891.26,-301.83"/>
<polygon fill="#63b8ff" stroke="#63b8ff" points="893.95,-304.07 897.89,-294.23 888.67,-299.46 893.95,-304.07"/>
</a>
</g>
</g>
<!-- Node3 -->
<g id="Node000003" class="node">
<title>Node3</title>
<g id="a_Node000003"><a xlink:title=" ">
<polygon fill="#e0e0e0" stroke="#999999" points="1259.5,-19 1199.5,-19 1199.5,0 1259.5,0 1259.5,-19"/>
<text text-anchor="middle" x="1229.5" y="-7" font-family="Helvetica,sans-Serif" font-size="10.00">iostream</text>
</a>
</g>
</g>
<!-- Node2&#45;&gt;Node3 -->
<g id="edge2_Node000002_Node000003" class="edge">
<title>Node2&#45;&gt;Node3</title>
<g id="a_edge2_Node000002_Node000003"><a xlink:title=" ">
<path fill="none" stroke="#63b8ff" d="M657.77,-117.58C771.89,-114.2 1142.9,-101.21 1188.5,-74 1205.37,-63.93 1216.52,-43.93 1222.88,-29.05"/>
<polygon fill="#63b8ff" stroke="#63b8ff" points="1226.3,-29.93 1226.68,-19.34 1219.78,-27.38 1226.3,-29.93"/>
</a>
</g>
</g>
<!-- Node4 -->
<g id="Node000004" class="node">
<title>Node4</title>
<g id="a_Node000004"><a xlink:title=" ">
<polygon fill="#e0e0e0" stroke="#999999" points="55,-74 0,-74 0,-55 55,-55 55,-74"/>
<text text-anchor="middle" x="27.5" y="-62" font-family="Helvetica,sans-Serif" font-size="10.00">fstream</text>
</a>
</g>
</g>
<!-- Node2&#45;&gt;Node4 -->
<g id="edge3_Node000002_Node000004" class="edge">
<title>Node2&#45;&gt;Node4</title>
<g id="a_edge3_Node000002_Node000004"><a xlink:title=" ">
<path fill="none" stroke="#63b8ff" d="M591.19,-117.22C504.74,-113.6 266.2,-101.69 69.5,-74 68.22,-73.82 66.91,-73.62 65.6,-73.42"/>
<polygon fill="#63b8ff" stroke="#63b8ff" points="65.89,-69.91 55.43,-71.64 64.68,-76.81 65.89,-69.91"/>
</a>
</g>
</g>
<!-- Node5 -->
<g id="Node000005" class="node">
<title>Node5</title>
<g id="a_Node000005"><a xlink:title=" ">
<polygon fill="#e0e0e0" stroke="#999999" points="1166.5,-19 1122.5,-19 1122.5,0 1166.5,0 1166.5,-19"/>
<text text-anchor="middle" x="1144.5" y="-7" font-family="Helvetica,sans-Serif" font-size="10.00">string</text>
</a>
</g>
</g>
<!-- Node2&#45;&gt;Node5 -->
<g id="edge4_Node000002_Node000005" class="edge">
<title>Node2&#45;&gt;Node5</title>
<g id="a_edge4_Node000002_Node000005"><a xlink:title=" ">
<path fill="none" stroke="#63b8ff" d="M591.36,-112.81C547.97,-104.02 480.55,-84.97 508.5,-55 549.95,-10.55 988.37,-9.62 1112.13,-10.25"/>
<polygon fill="#63b8ff" stroke="#63b8ff" points="1112.44,-13.75 1122.46,-10.31 1112.48,-6.75 1112.44,-13.75"/>
</a>
</g>
</g>
<!-- Node6 -->
<g id="Node000006" class="node">
<title>Node6</title>
<g id="a_Node000006"><a xlink:title=" ">
<polygon fill="#e0e0e0" stroke="#999999" points="167.5,-74 111.5,-74 111.5,-55 167.5,-55 167.5,-74"/>
<text text-anchor="middle" x="139.5" y="-62" font-family="Helvetica,sans-Serif" font-size="10.00">sstream</text>
</a>
</g>
</g>
<!-- Node2&#45;&gt;Node6 -->
<g id="edge5_Node000002_Node000006" class="edge">
<title>Node2&#45;&gt;Node6</title>
<g id="a_edge5_Node000002_Node000006"><a xlink:title=" ">
<path fill="none" stroke="#63b8ff" d="M591.43,-116.66C518.49,-112.28 338.17,-99.77 177.76,-74"/>
<polygon fill="#63b8ff" stroke="#63b8ff" points="178.14,-70.52 167.71,-72.37 177.02,-77.43 178.14,-70.52"/>
</a>
</g>
</g>
<!-- Node7 -->
<g id="Node000007" class="node">
<title>Node7</title>
<g id="a_Node000007"><a xlink:title=" ">
<polygon fill="#e0e0e0" stroke="#999999" points="233,-74 186,-74 186,-55 233,-55 233,-74"/>
<text text-anchor="middle" x="209.5" y="-62" font-family="Helvetica,sans-Serif" font-size="10.00">vector</text>
</a>
</g>
</g>
<!-- Node2&#45;&gt;Node7 -->
<g id="edge6_Node000002_Node000007" class="edge">
<title>Node2&#45;&gt;Node7</title>
<g id="a_edge6_Node000002_Node000007"><a xlink:title=" ">
<path fill="none" stroke="#63b8ff" d="M591.32,-116.16C526.37,-111.26 377.82,-98.44 243.28,-73.88"/>
<polygon fill="#63b8ff" stroke="#63b8ff" points="243.68,-70.4 233.21,-72.02 242.4,-77.28 243.68,-70.4"/>
</a>
</g>
</g>
<!-- Node8 -->
<g id="Node000008" class="node">
<title>Node8</title>
<g id="a_Node000008"><a xlink:title=" ">
<polygon fill="#e0e0e0" stroke="#999999" points="301.5,-74 251.5,-74 251.5,-55 301.5,-55 301.5,-74"/>
<text text-anchor="middle" x="276.5" y="-62" font-family="Helvetica,sans-Serif" font-size="10.00">cstring</text>
</a>
</g>
</g>
<!-- Node2&#45;&gt;Node8 -->
<g id="edge7_Node000002_Node000008" class="edge">
<title>Node2&#45;&gt;Node8</title>
<g id="a_edge7_Node000002_Node000008"><a xlink:title=" ">
<path fill="none" stroke="#63b8ff" d="M591.31,-114.95C535.55,-108.73 419.4,-94.72 311.74,-74.06"/>
<polygon fill="#63b8ff" stroke="#63b8ff" points="312.17,-70.58 301.69,-72.11 310.83,-77.45 312.17,-70.58"/>
</a>
</g>
</g>
<!-- Node9 -->
<g id="Node000009" class="node">
<title>Node9</title>
<g id="a_Node000009"><a xlink:title=" ">
<polygon fill="#e0e0e0" stroke="#999999" points="375.5,-74 319.5,-74 319.5,-55 375.5,-55 375.5,-74"/>
<text text-anchor="middle" x="347.5" y="-62" font-family="Helvetica,sans-Serif" font-size="10.00">iomanip</text>
</a>
</g>
</g>
<!-- Node2&#45;&gt;Node9 -->
<g id="edge8_Node000002_Node000009" class="edge">
<title>Node2&#45;&gt;Node9</title>
<g id="a_edge8_Node000002_Node000009"><a xlink:title=" ">
<path fill="none" stroke="#63b8ff" d="M591.42,-112.82C546.95,-105.1 465.21,-90.54 385.91,-74.22"/>
<polygon fill="#63b8ff" stroke="#63b8ff" points="386.26,-70.72 375.75,-72.12 384.84,-77.58 386.26,-70.72"/>
</a>
</g>
</g>
<!-- Node10 -->
<g id="Node000010" class="node">
<title>Node10</title>
<g id="a_Node000010"><a xlink:title=" ">
<polygon fill="#e0e0e0" stroke="#999999" points="461.5,-74 393.5,-74 393.5,-55 461.5,-55 461.5,-74"/>
<text text-anchor="middle" x="427.5" y="-62" font-family="Helvetica,sans-Serif" font-size="10.00">filesystem</text>
</a>
</g>
</g>
<!-- Node2&#45;&gt;Node10 -->
<g id="edge9_Node000002_Node000010" class="edge">
<title>Node2&#45;&gt;Node10</title>
<g id="a_edge9_Node000002_Node000010"><a xlink:title=" ">
<path fill="none" stroke="#63b8ff" d="M592.85,-109.98C559.34,-100.97 506.3,-86.7 469.36,-76.76"/>
<polygon fill="#63b8ff" stroke="#63b8ff" points="469.97,-73.3 459.4,-74.08 468.15,-80.06 469.97,-73.3"/>
</a>
</g>
</g>
<!-- Node11 -->
<g id="Node000011" class="node">
<title>Node11</title>
<g id="a_Node000011"><a xlink:title=" ">
<polygon fill="#e0e0e0" stroke="#999999" points="610,-19 545,-19 545,0 610,0 610,-19"/>
<text text-anchor="middle" x="577.5" y="-7" font-family="Helvetica,sans-Serif" font-size="10.00">stdexcept</text>
</a>
</g>
</g>
<!-- Node2&#45;&gt;Node11 -->
<g id="edge10_Node000002_Node000011" class="edge">
<title>Node2&#45;&gt;Node11</title>
<g id="a_edge10_Node000002_Node000011"><a xlink:title=" ">
<path fill="none" stroke="#63b8ff" d="M591.17,-118.21C481.28,-116.92 135.57,-110.01 102.5,-74 96.79,-67.78 96.81,-61.24 102.5,-55 131.3,-23.37 422.94,-13.81 534.46,-11.3"/>
<polygon fill="#63b8ff" stroke="#63b8ff" points="534.75,-14.79 544.67,-11.08 534.6,-7.8 534.75,-14.79"/>
</a>
</g>
</g>
<!-- Node12 -->
<g id="Node000012" class="node">
<title>Node12</title>
<g id="a_Node000012"><a xlink:title=" ">
<polygon fill="#e0e0e0" stroke="#999999" points="581.5,-74 517.5,-74 517.5,-55 581.5,-55 581.5,-74"/>
<text text-anchor="middle" x="549.5" y="-62" font-family="Helvetica,sans-Serif" font-size="10.00">algorithm</text>
</a>
</g>
</g>
<!-- Node2&#45;&gt;Node12 -->
<g id="edge11_Node000002_Node000012" class="edge">
<title>Node2&#45;&gt;Node12</title>
<g id="a_edge11_Node000002_Node000012"><a xlink:title=" ">
<path fill="none" stroke="#63b8ff" d="M612.45,-109.98C601.04,-101.92 583.67,-89.65 570.07,-80.03"/>
<polygon fill="#63b8ff" stroke="#63b8ff" points="571.96,-77.08 561.77,-74.17 567.92,-82.8 571.96,-77.08"/>
</a>
</g>
</g>
<!-- Node13 -->
<g id="Node000013" class="node">
<title>Node13</title>
<g id="a_Node000013"><a xlink:title=" ">
<polygon fill="#e0e0e0" stroke="#999999" points="649,-74 600,-74 600,-55 649,-55 649,-74"/>
<text text-anchor="middle" x="624.5" y="-62" font-family="Helvetica,sans-Serif" font-size="10.00">cctype</text>
</a>
</g>
</g>
<!-- Node2&#45;&gt;Node13 -->
<g id="edge12_Node000002_Node000013" class="edge">
<title>Node2&#45;&gt;Node13</title>
<g id="a_edge12_Node000002_Node000013"><a xlink:title=" ">
<path fill="none" stroke="#63b8ff" d="M624.5,-109.75C624.5,-102.8 624.5,-92.85 624.5,-84.13"/>
<polygon fill="#63b8ff" stroke="#63b8ff" points="628,-84.09 624.5,-74.09 621,-84.09 628,-84.09"/>
</a>
</g>
</g>
<!-- Node14 -->
<g id="Node000014" class="node">
<title>Node14</title>
<g id="a_Node000014"><a xlink:title=" ">
<polygon fill="#e0e0e0" stroke="#999999" points="699.5,-74 667.5,-74 667.5,-55 699.5,-55 699.5,-74"/>
<text text-anchor="middle" x="683.5" y="-62" font-family="Helvetica,sans-Serif" font-size="10.00">set</text>
</a>
</g>
</g>
<!-- Node2&#45;&gt;Node14 -->
<g id="edge13_Node000002_Node000014" class="edge">
<title>Node2&#45;&gt;Node14</title>
<g id="a_edge13_Node000002_Node000014"><a xlink:title=" ">
<path fill="none" stroke="#63b8ff" d="M633.98,-109.98C642.7,-102.15 655.84,-90.34 666.4,-80.86"/>
<polygon fill="#63b8ff" stroke="#63b8ff" points="668.75,-83.46 673.85,-74.17 664.07,-78.25 668.75,-83.46"/>
</a>
</g>
</g>
<!-- Node15 -->
<g id="Node000015" class="node">
<title>Node15</title>
<g id="a_Node000015"><a xlink:title=" ">
<polygon fill="#e0e0e0" stroke="#999999" points="809.5,-74 717.5,-74 717.5,-55 809.5,-55 809.5,-74"/>
<text text-anchor="middle" x="763.5" y="-62" font-family="Helvetica,sans-Serif" font-size="10.00">cuda_runtime.h</text>
</a>
</g>
</g>
<!-- Node2&#45;&gt;Node15 -->
<g id="edge14_Node000002_Node000015" class="edge">
<title>Node2&#45;&gt;Node15</title>
<g id="a_edge14_Node000002_Node000015"><a xlink:title=" ">
<path fill="none" stroke="#63b8ff" d="M646.83,-109.98C669.7,-101.27 705.46,-87.63 731.36,-77.75"/>
<polygon fill="#63b8ff" stroke="#63b8ff" points="732.66,-81 740.76,-74.17 730.17,-74.46 732.66,-81"/>
</a>
</g>
</g>
<!-- Node16 -->
<g id="Node000016" class="node">
<title>Node16</title>
<g id="a_Node000016"><a xlink:title=" ">
<polygon fill="#e0e0e0" stroke="#999999" points="985,-74 828,-74 828,-55 985,-55 985,-74"/>
<text text-anchor="middle" x="906.5" y="-62" font-family="Helvetica,sans-Serif" font-size="10.00">device_launch_parameters.h</text>
</a>
</g>
</g>
<!-- Node2&#45;&gt;Node16 -->
<g id="edge15_Node000002_Node000016" class="edge">
<title>Node2&#45;&gt;Node16</title>
<g id="a_edge15_Node000002_Node000016"><a xlink:title=" ">
<path fill="none" stroke="#63b8ff" d="M657.68,-112.26C705.2,-103.33 793.26,-86.78 850.85,-75.96"/>
<polygon fill="#63b8ff" stroke="#63b8ff" points="851.7,-79.36 860.88,-74.07 850.41,-72.48 851.7,-79.36"/>
</a>
</g>
</g>
<!-- Node17 -->
<g id="Node000017" class="node">
<title>Node17</title>
<g id="a_Node000017"><a xlink:href="DataTypes_8cuh.html" target="_top" xlink:title="Core type definitions and macros for precision control, dimensionality, and indexing in CLIP.">
<polygon fill="white" stroke="#666666" points="1091.5,-74 1003.5,-74 1003.5,-55 1091.5,-55 1091.5,-74"/>
<text text-anchor="middle" x="1047.5" y="-62" font-family="Helvetica,sans-Serif" font-size="10.00">DataTypes.cuh</text>
</a>
</g>
</g>
<!-- Node2&#45;&gt;Node17 -->
<g id="edge16_Node000002_Node000017" class="edge">
<title>Node2&#45;&gt;Node17</title>
<g id="a_edge16_Node000002_Node000017"><a xlink:title=" ">
<path fill="none" stroke="#63b8ff" d="M657.72,-114.95C720.93,-108.09 863.06,-92.22 993.13,-74.14"/>
<polygon fill="#63b8ff" stroke="#63b8ff" points="993.85,-77.58 1003.27,-72.73 992.88,-70.64 993.85,-77.58"/>
</a>
</g>
</g>
<!-- Node18 -->
<g id="Node000018" class="node">
<title>Node18</title>
<g id="a_Node000018"><a xlink:href="Logger_8cuh.html" target="_top" xlink:title="Defines the Logger class for standardized colored console output and error handling in the CLIP frame...">
<polygon fill="white" stroke="#666666" points="1179,-74 1110,-74 1110,-55 1179,-55 1179,-74"/>
<text text-anchor="middle" x="1144.5" y="-62" font-family="Helvetica,sans-Serif" font-size="10.00">Logger.cuh</text>
</a>
</g>
</g>
<!-- Node2&#45;&gt;Node18 -->
<g id="edge17_Node000002_Node000018" class="edge">
<title>Node2&#45;&gt;Node18</title>
<g id="a_edge17_Node000002_Node000018"><a xlink:title=" ">
<path fill="none" stroke="#63b8ff" d="M657.52,-116.53C733.63,-111.74 927.37,-98.2 1099.94,-73.93"/>
<polygon fill="#63b8ff" stroke="#63b8ff" points="1100.56,-77.37 1109.97,-72.5 1099.57,-70.44 1100.56,-77.37"/>
</a>
</g>
</g>
<!-- Node18&#45;&gt;Node3 -->
<g id="edge18_Node000018_Node000003" class="edge">
<title>Node18&#45;&gt;Node3</title>
<g id="a_edge18_Node000018_Node000003"><a xlink:title=" ">
<path fill="none" stroke="#63b8ff" d="M1158.16,-54.98C1171.34,-46.77 1191.53,-34.18 1207.07,-24.49"/>
<polygon fill="#63b8ff" stroke="#63b8ff" points="1208.96,-27.43 1215.59,-19.17 1205.26,-21.49 1208.96,-27.43"/>
</a>
</g>
</g>
<!-- Node18&#45;&gt;Node5 -->
<g id="edge19_Node000018_Node000005" class="edge">
<title>Node18&#45;&gt;Node5</title>
<g id="a_edge19_Node000018_Node000005"><a xlink:title=" ">
<path fill="none" stroke="#63b8ff" d="M1144.5,-54.75C1144.5,-47.8 1144.5,-37.85 1144.5,-29.13"/>
<polygon fill="#63b8ff" stroke="#63b8ff" points="1148,-29.09 1144.5,-19.09 1141,-29.09 1148,-29.09"/>
</a>
</g>
</g>
<!-- Node18&#45;&gt;Node11 -->
<g id="edge20_Node000018_Node000011" class="edge">
<title>Node18&#45;&gt;Node11</title>
<g id="a_edge20_Node000018_Node000011"><a xlink:title=" ">
<path fill="none" stroke="#63b8ff" d="M1109.97,-56.47C1106.78,-55.93 1103.58,-55.43 1100.5,-55 922.94,-30.37 709.45,-17.32 620.09,-12.59"/>
<polygon fill="#63b8ff" stroke="#63b8ff" points="620.24,-9.09 610.07,-12.07 619.88,-16.08 620.24,-9.09"/>
</a>
</g>
</g>
<!-- Node19&#45;&gt;Node2 -->
<g id="edge22_Node000019_Node000002" class="edge">
<title>Node19&#45;&gt;Node2</title>
<g id="a_edge22_Node000019_Node000002"><a xlink:title=" ">
<path fill="none" stroke="#63b8ff" d="M668.75,-164.75C661.03,-157.03 649.6,-145.6 640.28,-136.28"/>
<polygon fill="#63b8ff" stroke="#63b8ff" points="642.64,-133.69 633.09,-129.09 637.69,-138.64 642.64,-133.69"/>
</a>
</g>
</g>
<!-- Node20&#45;&gt;Node2 -->
<g id="edge25_Node000020_Node000002" class="edge">
<title>Node20&#45;&gt;Node2</title>
<g id="a_edge25_Node000020_Node000002"><a xlink:title=" ">
<path fill="none" stroke="#63b8ff" d="M649.54,-274.85C643.83,-257.75 631.45,-218.28 626.5,-184 624.35,-169.12 623.92,-152.09 623.99,-139.41"/>
<polygon fill="#63b8ff" stroke="#63b8ff" points="627.5,-139.24 624.16,-129.18 620.5,-139.12 627.5,-139.24"/>
</a>
</g>
</g>
<!-- Node20&#45;&gt;Node19 -->
<g id="edge24_Node000020_Node000019" class="edge">
<title>Node20&#45;&gt;Node19</title>
<g id="a_edge24_Node000020_Node000019"><a xlink:title=" ">
<path fill="none" stroke="#63b8ff" d="M654.55,-274.66C658.61,-257.09 667.79,-217.45 673.23,-193.95"/>
<polygon fill="#63b8ff" stroke="#63b8ff" points="676.65,-194.69 675.5,-184.16 669.83,-193.11 676.65,-194.69"/>
</a>
</g>
</g>
<!-- Node20&#45;&gt;Node21 -->
<g id="edge26_Node000020_Node000021" class="edge">
<title>Node20&#45;&gt;Node21</title>
<g id="a_edge26_Node000020_Node000021"><a xlink:title=" ">
<path fill="none" stroke="#63b8ff" d="M682.22,-274.98C713.55,-266.01 763.07,-251.82 797.74,-241.89"/>
<polygon fill="#63b8ff" stroke="#63b8ff" points="798.89,-245.2 807.54,-239.08 796.97,-238.47 798.89,-245.2"/>
</a>
</g>
</g>
<!-- Node21&#45;&gt;Node2 -->
<g id="edge27_Node000021_Node000002" class="edge">
<title>Node21&#45;&gt;Node2</title>
<g id="a_edge27_Node000021_Node000002"><a xlink:title=" ">
<path fill="none" stroke="#63b8ff" d="M827.42,-219.88C811.53,-206.63 779.28,-181.11 748.5,-165 721.96,-151.11 690.13,-139.79 665.36,-132.04"/>
<polygon fill="#63b8ff" stroke="#63b8ff" points="666.14,-128.62 655.55,-129.04 664.09,-135.31 666.14,-128.62"/>
</a>
</g>
</g>
<!-- Node21&#45;&gt;Node19 -->
<g id="edge28_Node000021_Node000019" class="edge">
<title>Node21&#45;&gt;Node19</title>
<g id="a_edge28_Node000021_Node000019"><a xlink:title=" ">
<path fill="none" stroke="#63b8ff" d="M811.79,-219.98C785.05,-211.13 742.97,-197.19 713.05,-187.28"/>
<polygon fill="#63b8ff" stroke="#63b8ff" points="714,-183.9 703.41,-184.08 711.8,-190.55 714,-183.9"/>
</a>
</g>
</g>
<!-- Node22&#45;&gt;Node2 -->
<g id="edge31_Node000022_Node000002" class="edge">
<title>Node22&#45;&gt;Node2</title>
<g id="a_edge31_Node000022_Node000002"><a xlink:title=" ">
<path fill="none" stroke="#63b8ff" d="M707.74,-338.54C673.2,-336.02 626.51,-326.3 602.5,-294 567.53,-246.97 597.8,-172.22 614.81,-138.29"/>
<polygon fill="#63b8ff" stroke="#63b8ff" points="618.06,-139.63 619.58,-129.15 611.85,-136.4 618.06,-139.63"/>
</a>
</g>
</g>
<!-- Node22&#45;&gt;Node19 -->
<g id="edge32_Node000022_Node000019" class="edge">
<title>Node22&#45;&gt;Node19</title>
<g id="a_edge32_Node000022_Node000019"><a xlink:title=" ">
<path fill="none" stroke="#63b8ff" d="M746.58,-329.74C735.09,-304.09 701.36,-228.78 685.69,-193.78"/>
<polygon fill="#63b8ff" stroke="#63b8ff" points="688.73,-192 681.44,-184.31 682.34,-194.86 688.73,-192"/>
</a>
</g>
</g>
<!-- Node22&#45;&gt;Node20 -->
<g id="edge37_Node000022_Node000020" class="edge">
<title>Node22&#45;&gt;Node20</title>
<g id="a_edge37_Node000022_Node000020"><a xlink:title=" ">
<path fill="none" stroke="#63b8ff" d="M734.75,-329.98C719.27,-321.61 695.41,-308.7 677.36,-298.95"/>
<polygon fill="#63b8ff" stroke="#63b8ff" points="678.99,-295.85 668.53,-294.17 675.66,-302.01 678.99,-295.85"/>
</a>
</g>
</g>
<!-- Node22&#45;&gt;Node21 -->
<g id="edge33_Node000022_Node000021" class="edge">
<title>Node22&#45;&gt;Node21</title>
<g id="a_edge33_Node000022_Node000021"><a xlink:title=" ">
<path fill="none" stroke="#63b8ff" d="M757.62,-329.66C772.16,-311.61 805.46,-270.28 824.15,-247.08"/>
<polygon fill="#63b8ff" stroke="#63b8ff" points="826.98,-249.14 830.53,-239.16 821.53,-244.75 826.98,-249.14"/>
</a>
</g>
</g>
<!-- Node23 -->
<g id="Node000023" class="node">
<title>Node23</title>
<g id="a_Node000023"><a xlink:href="WMRT_8cuh.html" target="_top" xlink:title="Implements the Weighted Multiple Relaxation Time (WMRT) conversion and reconstruction operators for t...">
<polygon fill="white" stroke="#666666" points="782,-239 715,-239 715,-220 782,-220 782,-239"/>
<text text-anchor="middle" x="748.5" y="-227" font-family="Helvetica,sans-Serif" font-size="10.00">WMRT.cuh</text>
</a>
</g>
</g>
<!-- Node22&#45;&gt;Node23 -->
<g id="edge34_Node000022_Node000023" class="edge">
<title>Node22&#45;&gt;Node23</title>
<g id="a_edge34_Node000022_Node000023"><a xlink:title=" ">
<path fill="none" stroke="#63b8ff" d="M750.34,-329.66C750.01,-312.17 749.28,-272.8 748.85,-249.27"/>
<polygon fill="#63b8ff" stroke="#63b8ff" points="752.34,-249.09 748.66,-239.16 745.35,-249.22 752.34,-249.09"/>
</a>
</g>
</g>
<!-- Node23&#45;&gt;Node2 -->
<g id="edge35_Node000023_Node000002" class="edge">
<title>Node23&#45;&gt;Node2</title>
<g id="a_edge35_Node000023_Node000002"><a xlink:title=" ">
<path fill="none" stroke="#63b8ff" d="M748.19,-220C747.26,-206.68 743.63,-180.77 729.5,-165 713.42,-147.05 688.9,-136.11 667.59,-129.57"/>
<polygon fill="#63b8ff" stroke="#63b8ff" points="668.33,-126.14 657.75,-126.78 666.42,-132.87 668.33,-126.14"/>
</a>
</g>
</g>
<!-- Node23&#45;&gt;Node19 -->
<g id="edge36_Node000023_Node000019" class="edge">
<title>Node23&#45;&gt;Node19</title>
<g id="a_edge36_Node000023_Node000019"><a xlink:title=" ">
<path fill="none" stroke="#63b8ff" d="M737.09,-219.98C726.39,-212 710.16,-199.88 697.34,-190.31"/>
<polygon fill="#63b8ff" stroke="#63b8ff" points="699.22,-187.35 689.11,-184.17 695.03,-192.96 699.22,-187.35"/>
</a>
</g>
</g>
<!-- Node24&#45;&gt;Node2 -->
<g id="edge40_Node000024_Node000002" class="edge">
<title>Node24&#45;&gt;Node2</title>
<g id="a_edge40_Node000024_Node000002"><a xlink:title=" ">
<path fill="none" stroke="#63b8ff" d="M908.09,-274.83C911.45,-261.74 915.65,-236.69 904.5,-220 852.38,-141.98 732.99,-124.6 668.22,-121.07"/>
<polygon fill="#63b8ff" stroke="#63b8ff" points="668.08,-117.56 657.93,-120.6 667.76,-124.55 668.08,-117.56"/>
</a>
</g>
</g>
<!-- Node24&#45;&gt;Node5 -->
<g id="edge42_Node000024_Node000005" class="edge">
<title>Node24&#45;&gt;Node5</title>
<g id="a_edge42_Node000024_Node000005"><a xlink:title=" ">
<path fill="none" stroke="#63b8ff" d="M928.84,-274.86C985.99,-252.28 1132.38,-185.36 1188.5,-74 1197.46,-56.21 1181.22,-37.69 1166,-25.28"/>
<polygon fill="#63b8ff" stroke="#63b8ff" points="1167.89,-22.32 1157.82,-19.05 1163.66,-27.89 1167.89,-22.32"/>
</a>
</g>
</g>
<!-- Node24&#45;&gt;Node19 -->
<g id="edge39_Node000024_Node000019" class="edge">
<title>Node24&#45;&gt;Node19</title>
<g id="a_edge39_Node000024_Node000019"><a xlink:title=" ">
<path fill="none" stroke="#63b8ff" d="M905.22,-274.64C904.29,-260.83 900.4,-234.27 884.5,-220 862.14,-199.93 783.94,-187.35 730.32,-180.87"/>
<polygon fill="#63b8ff" stroke="#63b8ff" points="730.62,-177.38 720.28,-179.7 729.81,-184.34 730.62,-177.38"/>
</a>
</g>
</g>
<!-- Node24&#45;&gt;Node21 -->
<g id="edge41_Node000024_Node000021" class="edge">
<title>Node24&#45;&gt;Node21</title>
<g id="a_edge41_Node000024_Node000021"><a xlink:title=" ">
<path fill="none" stroke="#63b8ff" d="M894.57,-274.98C884.42,-267.07 869.08,-255.11 856.85,-245.58"/>
<polygon fill="#63b8ff" stroke="#63b8ff" points="858.66,-242.56 848.62,-239.17 854.36,-248.08 858.66,-242.56"/>
</a>
</g>
</g>
</g>
</svg>
