<?xml version="1.0" encoding="UTF-8" standalone="no"?>
<!DOCTYPE svg PUBLIC "-//W3C//DTD SVG 1.1//EN"
 "http://www.w3.org/Graphics/SVG/1.1/DTD/svg11.dtd">
<!-- Generated by graphviz version 2.43.0 (0)
 -->
<!-- Title: clip::kernelFreeConvect Pages: 1 -->
<svg width="302pt" height="45pt"
 viewBox="0.00 0.00 302.00 45.00" xmlns="http://www.w3.org/2000/svg" xmlns:xlink="http://www.w3.org/1999/xlink">
<g id="graph0" class="graph" transform="scale(1 1) rotate(0) translate(4 41)">
<title>clip::kernelFreeConvect</title>
<!-- Node1 -->
<g id="Node000001" class="node">
<title>Node1</title>
<g id="a_Node000001"><a xlink:title="Implements free&#45;convective outlet boundary (do&#45;nothing).">
<polygon fill="#999999" stroke="#666666" points="131,-19 0,-19 0,0 131,0 131,-19"/>
<text text-anchor="middle" x="65.5" y="-7" font-family="Helvetica,sans-Serif" font-size="10.00">clip::kernelFreeConvect</text>
</a>
</g>
</g>
<!-- Node1&#45;&gt;Node1 -->
<g id="edge2_Node000001_Node000001" class="edge">
<title>Node1&#45;&gt;Node1</title>
<g id="a_edge2_Node000001_Node000001"><a xlink:title=" ">
<path fill="none" stroke="#63b8ff" d="M40.22,-19.08C27.93,-27.73 36.35,-37 65.5,-37 84.63,-37 94.83,-33.01 96.11,-27.82"/>
<polygon fill="#63b8ff" stroke="#63b8ff" points="98.98,-25.79 90.78,-19.08 93,-29.44 98.98,-25.79"/>
</a>
</g>
</g>
<!-- Node2 -->
<g id="Node000002" class="node">
<title>Node2</title>
<g id="a_Node000002"><a xlink:href="classclip_1_1Domain.html#aefd93098e1eb64eab548417bdb281ebf" target="_top" xlink:title="Computes a flattened 1D index for multi&#45;DOF data.">
<polygon fill="white" stroke="#666666" points="294,-19 167,-19 167,0 294,0 294,-19"/>
<text text-anchor="middle" x="230.5" y="-7" font-family="Helvetica,sans-Serif" font-size="10.00">clip::Domain::getIndex</text>
</a>
</g>
</g>
<!-- Node1&#45;&gt;Node2 -->
<g id="edge1_Node000001_Node000002" class="edge">
<title>Node1&#45;&gt;Node2</title>
<g id="a_edge1_Node000001_Node000002"><a xlink:title=" ">
<path fill="none" stroke="#63b8ff" d="M131.39,-9.5C139.72,-9.5 148.3,-9.5 156.74,-9.5"/>
<polygon fill="#63b8ff" stroke="#63b8ff" points="156.96,-13 166.96,-9.5 156.96,-6 156.96,-13"/>
</a>
</g>
</g>
</g>
</svg>
