<?xml version="1.0" encoding="UTF-8" standalone="no"?>
<!DOCTYPE svg PUBLIC "-//W3C//DTD SVG 1.1//EN"
 "http://www.w3.org/Graphics/SVG/1.1/DTD/svg11.dtd">
<!-- Generated by graphviz version 2.43.0 (0)
 -->
<!-- Title: clip::kernelFullBouncBack Pages: 1 -->
<svg width="312pt" height="45pt"
 viewBox="0.00 0.00 312.00 45.00" xmlns="http://www.w3.org/2000/svg" xmlns:xlink="http://www.w3.org/1999/xlink">
<g id="graph0" class="graph" transform="scale(1 1) rotate(0) translate(4 41)">
<title>clip::kernelFullBouncBack</title>
<!-- Node1 -->
<g id="Node000001" class="node">
<title>Node1</title>
<g id="a_Node000001"><a xlink:title="Applies full bounce&#45;back for walls (legacy implementation).">
<polygon fill="#999999" stroke="#666666" points="141,-19 0,-19 0,0 141,0 141,-19"/>
<text text-anchor="middle" x="70.5" y="-7" font-family="Helvetica,sans-Serif" font-size="10.00">clip::kernelFullBouncBack</text>
</a>
</g>
</g>
<!-- Node1&#45;&gt;Node1 -->
<g id="edge2_Node000001_Node000001" class="edge">
<title>Node1&#45;&gt;Node1</title>
<g id="a_edge2_Node000001_Node000001"><a xlink:title=" ">
<path fill="none" stroke="#63b8ff" d="M44.3,-19.08C31.55,-27.73 40.29,-37 70.5,-37 90.8,-37 101.4,-32.82 102.31,-27.45"/>
<polygon fill="#63b8ff" stroke="#63b8ff" points="105.18,-25.44 96.7,-19.08 99.36,-29.34 105.18,-25.44"/>
</a>
</g>
</g>
<!-- Node2 -->
<g id="Node000002" class="node">
<title>Node2</title>
<g id="a_Node000002"><a xlink:href="classclip_1_1Domain.html#aefd93098e1eb64eab548417bdb281ebf" target="_top" xlink:title="Computes a flattened 1D index for multi&#45;DOF data.">
<polygon fill="white" stroke="#666666" points="304,-19 177,-19 177,0 304,0 304,-19"/>
<text text-anchor="middle" x="240.5" y="-7" font-family="Helvetica,sans-Serif" font-size="10.00">clip::Domain::getIndex</text>
</a>
</g>
</g>
<!-- Node1&#45;&gt;Node2 -->
<g id="edge1_Node000001_Node000002" class="edge">
<title>Node1&#45;&gt;Node2</title>
<g id="a_edge1_Node000001_Node000002"><a xlink:title=" ">
<path fill="none" stroke="#63b8ff" d="M141.29,-9.5C149.68,-9.5 158.27,-9.5 166.71,-9.5"/>
<polygon fill="#63b8ff" stroke="#63b8ff" points="166.9,-13 176.9,-9.5 166.9,-6 166.9,-13"/>
</a>
</g>
</g>
</g>
</svg>
