<?xml version="1.0" encoding="UTF-8" standalone="no"?>
<!DOCTYPE svg PUBLIC "-//W3C//DTD SVG 1.1//EN"
 "http://www.w3.org/Graphics/SVG/1.1/DTD/svg11.dtd">
<!-- Generated by graphviz version 2.43.0 (0)
 -->
<!-- Title: /home/runner/work/CLIP/CLIP/include/utils/TimeInfo.cuh Pages: 1 -->
<svg width="779pt" height="170pt"
 viewBox="0.00 0.00 779.00 170.00" xmlns="http://www.w3.org/2000/svg" xmlns:xlink="http://www.w3.org/1999/xlink">
<g id="graph0" class="graph" transform="scale(1 1) rotate(0) translate(4 166)">
<title>/home/runner/work/CLIP/CLIP/include/utils/TimeInfo.cuh</title>
<!-- Node1 -->
<g id="Node000001" class="node">
<title>Node1</title>
<g id="a_Node000001"><a xlink:title="Declares the TimeInfo class, which manages simulation time and step tracking in the CLIP LBM framewor...">
<polygon fill="#999999" stroke="#666666" points="429.5,-162 259.5,-162 259.5,-132 429.5,-132 429.5,-162"/>
<text text-anchor="start" x="267.5" y="-150" font-family="Helvetica,sans-Serif" font-size="10.00">/home/runner/work/CLIP</text>
<text text-anchor="middle" x="344.5" y="-139" font-family="Helvetica,sans-Serif" font-size="10.00">/CLIP/include/utils/TimeInfo.cuh</text>
</a>
</g>
</g>
<!-- Node2 -->
<g id="Node000002" class="node">
<title>Node2</title>
<g id="a_Node000002"><a xlink:href="CheckPointer_8cuh.html" target="_top" xlink:title="Defines the CheckPointer class for saving and restoring simulation state in the CLIP LBM framework.">
<polygon fill="white" stroke="#666666" points="207.5,-96 29.5,-96 29.5,-66 207.5,-66 207.5,-96"/>
<text text-anchor="start" x="37.5" y="-84" font-family="Helvetica,sans-Serif" font-size="10.00">/home/runner/work/CLIP</text>
<text text-anchor="middle" x="118.5" y="-73" font-family="Helvetica,sans-Serif" font-size="10.00">/CLIP/include/io/CheckPointer.cuh</text>
</a>
</g>
</g>
<!-- Node1&#45;&gt;Node2 -->
<g id="edge1_Node000001_Node000002" class="edge">
<title>Node1&#45;&gt;Node2</title>
<g id="a_edge1_Node000001_Node000002"><a xlink:title=" ">
<path fill="none" stroke="#63b8ff" d="M284.9,-129.12C248.46,-118.8 202.4,-105.76 167.98,-96.01"/>
<polygon fill="#63b8ff" stroke="#63b8ff" points="284.33,-132.6 294.9,-131.95 286.24,-125.86 284.33,-132.6"/>
</a>
</g>
</g>
<!-- Node4 -->
<g id="Node000004" class="node">
<title>Node4</title>
<g id="a_Node000004"><a xlink:href="main_8cu.html" target="_top" xlink:title="Main entry point for CLIP: CUDA Lattice Boltzmann Solver for Interfacial Phenomena.">
<polygon fill="white" stroke="#666666" points="302,-30 169,-30 169,0 302,0 302,-30"/>
<text text-anchor="start" x="177" y="-18" font-family="Helvetica,sans-Serif" font-size="10.00">/home/runner/work/CLIP</text>
<text text-anchor="middle" x="235.5" y="-7" font-family="Helvetica,sans-Serif" font-size="10.00">/CLIP/src/main.cu</text>
</a>
</g>
</g>
<!-- Node1&#45;&gt;Node4 -->
<g id="edge10_Node000001_Node000004" class="edge">
<title>Node1&#45;&gt;Node4</title>
<g id="a_edge10_Node000001_Node000004"><a xlink:title=" ">
<path fill="none" stroke="#63b8ff" d="M294.37,-127.46C279.61,-119.78 264.69,-109.45 254.5,-96 239.76,-76.54 236.23,-47.39 235.52,-30.17"/>
<polygon fill="#63b8ff" stroke="#63b8ff" points="292.98,-130.68 303.51,-131.91 296.05,-124.38 292.98,-130.68"/>
</a>
</g>
</g>
<!-- Node5 -->
<g id="Node000005" class="node">
<title>Node5</title>
<g id="a_Node000005"><a xlink:href="VTSwriter_8cuh.html" target="_top" xlink:title="Defines the VTSwriter class, which writes CLIP simulation output in VTK Structured Grid (....">
<polygon fill="white" stroke="#666666" points="425,-96 264,-96 264,-66 425,-66 425,-96"/>
<text text-anchor="start" x="272" y="-84" font-family="Helvetica,sans-Serif" font-size="10.00">/home/runner/work/CLIP</text>
<text text-anchor="middle" x="344.5" y="-73" font-family="Helvetica,sans-Serif" font-size="10.00">/CLIP/include/io/VTSwriter.cuh</text>
</a>
</g>
</g>
<!-- Node1&#45;&gt;Node5 -->
<g id="edge4_Node000001_Node000005" class="edge">
<title>Node1&#45;&gt;Node5</title>
<g id="a_edge4_Node000001_Node000005"><a xlink:title=" ">
<path fill="none" stroke="#63b8ff" d="M344.5,-121.54C344.5,-112.96 344.5,-103.61 344.5,-96.16"/>
<polygon fill="#63b8ff" stroke="#63b8ff" points="341,-121.8 344.5,-131.8 348,-121.8 341,-121.8"/>
</a>
</g>
</g>
<!-- Node7 -->
<g id="Node000007" class="node">
<title>Node7</title>
<g id="a_Node000007"><a xlink:href="Reporter_8cuh_source.html" target="_top" xlink:title=" ">
<polygon fill="white" stroke="#666666" points="610,-96 443,-96 443,-66 610,-66 610,-96"/>
<text text-anchor="start" x="451" y="-84" font-family="Helvetica,sans-Serif" font-size="10.00">/home/runner/work/CLIP</text>
<text text-anchor="middle" x="526.5" y="-73" font-family="Helvetica,sans-Serif" font-size="10.00">/CLIP/include/utils/Reporter.cuh</text>
</a>
</g>
</g>
<!-- Node1&#45;&gt;Node7 -->
<g id="edge7_Node000001_Node000007" class="edge">
<title>Node1&#45;&gt;Node7</title>
<g id="a_edge7_Node000001_Node000007"><a xlink:title=" ">
<path fill="none" stroke="#63b8ff" d="M394.01,-128.59C423.11,-118.36 459.41,-105.59 486.65,-96.01"/>
<polygon fill="#63b8ff" stroke="#63b8ff" points="392.71,-125.34 384.44,-131.95 395.04,-131.94 392.71,-125.34"/>
</a>
</g>
</g>
<!-- Node9 -->
<g id="Node000009" class="node">
<title>Node9</title>
<g id="a_Node000009"><a xlink:href="TimeInfo_8cu.html" target="_top" xlink:title="Handles simulation time tracking in CLIP.">
<polygon fill="white" stroke="#666666" points="771,-96 628,-96 628,-66 771,-66 771,-96"/>
<text text-anchor="start" x="636" y="-84" font-family="Helvetica,sans-Serif" font-size="10.00">/home/runner/work/CLIP</text>
<text text-anchor="middle" x="699.5" y="-73" font-family="Helvetica,sans-Serif" font-size="10.00">/CLIP/src/utils/TimeInfo.cu</text>
</a>
</g>
</g>
<!-- Node1&#45;&gt;Node9 -->
<g id="edge11_Node000001_Node000009" class="edge">
<title>Node1&#45;&gt;Node9</title>
<g id="a_edge11_Node000001_Node000009"><a xlink:title=" ">
<path fill="none" stroke="#63b8ff" d="M432.28,-130.17C492.49,-119.32 571.39,-105.1 627.81,-94.92"/>
<polygon fill="#63b8ff" stroke="#63b8ff" points="431.63,-126.74 422.41,-131.95 432.87,-133.63 431.63,-126.74"/>
</a>
</g>
</g>
<!-- Node3 -->
<g id="Node000003" class="node">
<title>Node3</title>
<g id="a_Node000003"><a xlink:href="CheckPointer_8cu.html" target="_top" xlink:title="Handles checkpointing functionality for saving and restoring LBM simulation state.">
<polygon fill="white" stroke="#666666" points="151,-30 0,-30 0,0 151,0 151,-30"/>
<text text-anchor="start" x="8" y="-18" font-family="Helvetica,sans-Serif" font-size="10.00">/home/runner/work/CLIP</text>
<text text-anchor="middle" x="75.5" y="-7" font-family="Helvetica,sans-Serif" font-size="10.00">/CLIP/src/io/CheckPointer.cu</text>
</a>
</g>
</g>
<!-- Node2&#45;&gt;Node3 -->
<g id="edge2_Node000002_Node000003" class="edge">
<title>Node2&#45;&gt;Node3</title>
<g id="a_edge2_Node000002_Node000003"><a xlink:title=" ">
<path fill="none" stroke="#63b8ff" d="M103.21,-57.24C97.14,-48.21 90.36,-38.11 85.02,-30.16"/>
<polygon fill="#63b8ff" stroke="#63b8ff" points="100.47,-59.45 108.96,-65.8 106.29,-55.54 100.47,-59.45"/>
</a>
</g>
</g>
<!-- Node2&#45;&gt;Node4 -->
<g id="edge3_Node000002_Node000004" class="edge">
<title>Node2&#45;&gt;Node4</title>
<g id="a_edge3_Node000002_Node000004"><a xlink:title=" ">
<path fill="none" stroke="#63b8ff" d="M153.29,-60.97C171.45,-51.03 193.28,-39.09 209.88,-30.01"/>
<polygon fill="#63b8ff" stroke="#63b8ff" points="151.27,-58.09 144.18,-65.95 154.63,-64.23 151.27,-58.09"/>
</a>
</g>
</g>
<!-- Node5&#45;&gt;Node4 -->
<g id="edge6_Node000005_Node000004" class="edge">
<title>Node5&#45;&gt;Node4</title>
<g id="a_edge6_Node000005_Node000004"><a xlink:title=" ">
<path fill="none" stroke="#63b8ff" d="M311.62,-60.69C294.79,-50.82 274.69,-39.01 259.36,-30.01"/>
<polygon fill="#63b8ff" stroke="#63b8ff" points="310.18,-63.91 320.58,-65.95 313.73,-57.87 310.18,-63.91"/>
</a>
</g>
</g>
<!-- Node6 -->
<g id="Node000006" class="node">
<title>Node6</title>
<g id="a_Node000006"><a xlink:href="VTSwriter_8cu.html" target="_top" xlink:title="Writes scalar and vector fields to .vts (VTK structured grid) files for ParaView visualization.">
<polygon fill="white" stroke="#666666" points="454.5,-30 320.5,-30 320.5,0 454.5,0 454.5,-30"/>
<text text-anchor="start" x="328.5" y="-18" font-family="Helvetica,sans-Serif" font-size="10.00">/home/runner/work/CLIP</text>
<text text-anchor="middle" x="387.5" y="-7" font-family="Helvetica,sans-Serif" font-size="10.00">/CLIP/src/io/VTSwriter.cu</text>
</a>
</g>
</g>
<!-- Node5&#45;&gt;Node6 -->
<g id="edge5_Node000005_Node000006" class="edge">
<title>Node5&#45;&gt;Node6</title>
<g id="a_edge5_Node000005_Node000006"><a xlink:title=" ">
<path fill="none" stroke="#63b8ff" d="M359.79,-57.24C365.86,-48.21 372.64,-38.11 377.98,-30.16"/>
<polygon fill="#63b8ff" stroke="#63b8ff" points="356.71,-55.54 354.04,-65.8 362.53,-59.45 356.71,-55.54"/>
</a>
</g>
</g>
<!-- Node7&#45;&gt;Node4 -->
<g id="edge8_Node000007_Node000004" class="edge">
<title>Node7&#45;&gt;Node4</title>
<g id="a_edge8_Node000007_Node000004"><a xlink:title=" ">
<path fill="none" stroke="#63b8ff" d="M452.75,-63.78C405.38,-53.36 344.47,-39.97 299.21,-30.01"/>
<polygon fill="#63b8ff" stroke="#63b8ff" points="452.12,-67.23 462.64,-65.95 453.62,-60.39 452.12,-67.23"/>
</a>
</g>
</g>
<!-- Node8 -->
<g id="Node000008" class="node">
<title>Node8</title>
<g id="a_Node000008"><a xlink:href="Reporter_8cu.html" target="_top" xlink:title="Reporting and diagnostics for CLIP simulations.">
<polygon fill="white" stroke="#666666" points="612.5,-30 472.5,-30 472.5,0 612.5,0 612.5,-30"/>
<text text-anchor="start" x="480.5" y="-18" font-family="Helvetica,sans-Serif" font-size="10.00">/home/runner/work/CLIP</text>
<text text-anchor="middle" x="542.5" y="-7" font-family="Helvetica,sans-Serif" font-size="10.00">/CLIP/src/utils/Reporter.cu</text>
</a>
</g>
</g>
<!-- Node7&#45;&gt;Node8 -->
<g id="edge9_Node000007_Node000008" class="edge">
<title>Node7&#45;&gt;Node8</title>
<g id="a_edge9_Node000007_Node000008"><a xlink:title=" ">
<path fill="none" stroke="#63b8ff" d="M532.54,-55.83C534.71,-47.17 537.08,-37.7 538.96,-30.16"/>
<polygon fill="#63b8ff" stroke="#63b8ff" points="529.08,-55.25 530.05,-65.8 535.87,-56.94 529.08,-55.25"/>
</a>
</g>
</g>
</g>
</svg>
