<?xml version="1.0" encoding="UTF-8" standalone="no"?>
<!DOCTYPE svg PUBLIC "-//W3C//DTD SVG 1.1//EN"
 "http://www.w3.org/Graphics/SVG/1.1/DTD/svg11.dtd">
<!-- Generated by graphviz version 2.43.0 (0)
 -->
<!-- Title: /home/runner/work/CLIP/CLIP/include/utils/TimeInfo.cuh Pages: 1 -->
<!--zoomable 170 -->

<svg id="main" version="1.1" xmlns="http://www.w3.org/2000/svg" xmlns:xlink="http://www.w3.org/1999/xlink" xml:space="preserve" onload="init(evt)">
<style type="text/css"><![CDATA[
.node, .edge {opacity: 0.7;}
.node.selected, .edge.selected {opacity: 1;}
.edge:hover path { stroke: red; }
.edge:hover polygon { stroke: red; fill: red; }
]]></style>

<defs>
  <circle id="rim" cx="0" cy="0" r="7"/>
  <circle id="rim2" cx="0" cy="0" r="3.5"/>
  <g id="zoomPlus">
    <use xlink:href="#rim" fill="#404040"><set attributeName="fill" to="#808080" begin="zoomplus.mouseover" end="zoomplus.mouseout"/></use>
    <path d="M-4,0h8M0,-4v8" fill="none" stroke="white" stroke-width="1.5" pointer-events="none"/>
  </g>
  <g id="zoomMin">
    <use xlink:href="#rim" fill="#404040"><set attributeName="fill" to="#808080" begin="zoomminus.mouseover" end="zoomminus.mouseout"/></use>
    <path d="M-4,0h8" fill="none" stroke="white" stroke-width="1.5" pointer-events="none"/>
  </g>
  <g id="arrowUp" transform="translate(30 24)">
    <use xlink:href="#rim"/>
    <path pointer-events="none" fill="none" stroke="white" stroke-width="1.5" d="M0,-3.0v7 M-2.5,-0.5L0,-3.0L2.5,-0.5"/>
  </g>
  <g id="arrowRight" transform="rotate(90) translate(36 -43)">
    <use xlink:href="#rim"/>
    <path pointer-events="none" fill="none" stroke="white" stroke-width="1.5" d="M0,-3.0v7 M-2.5,-0.5L0,-3.0L2.5,-0.5"/>
  </g>
  <g id="arrowDown" transform="rotate(180) translate(-30 -48)">
    <use xlink:href="#rim"/>
    <path pointer-events="none" fill="none" stroke="white" stroke-width="1.5" d="M0,-3.0v7 M-2.5,-0.5L0,-3.0L2.5,-0.5"/>
  </g>
  <g id="arrowLeft" transform="rotate(270) translate(-36 17)">
    <use xlink:href="#rim"/>
    <path pointer-events="none" fill="none" stroke="white" stroke-width="1.5" d="M0,-3.0v7 M-2.5,-0.5L0,-3.0L2.5,-0.5"/>
  </g>
  <g id="resetDef">
    <use xlink:href="#rim2" fill="#404040"><set attributeName="fill" to="#808080" begin="reset.mouseover" end="reset.mouseout"/></use>
  </g>
</defs>
<script type="application/ecmascript">
var viewWidth = 779;
var viewHeight = 170;
var sectionId = 'dynsection-1';
</script>
<script type="application/ecmascript" xlink:href="svg.min.js"/>
<svg id="graph" class="graph">
<g id="viewport">
<title>/home/runner/work/CLIP/CLIP/include/utils/TimeInfo.cuh</title>
<!-- Node1 -->
<g id="Node000001" class="node">
<title>Node1</title>
<g id="a_Node000001"><a xlink:title="Declares the TimeInfo class, which manages simulation time and step tracking in the CLIP LBM framewor...">
<polygon fill="#999999" stroke="#666666" points="429.5,-162 259.5,-162 259.5,-132 429.5,-132 429.5,-162"/>
<text text-anchor="start" x="267.5" y="-150" font-family="Helvetica,sans-Serif" font-size="10.00">/home/runner/work/CLIP</text>
<text text-anchor="middle" x="344.5" y="-139" font-family="Helvetica,sans-Serif" font-size="10.00">/CLIP/include/utils/TimeInfo.cuh</text>
</a>
</g>
</g>
<!-- Node2 -->
<g id="Node000002" class="node">
<title>Node2</title>
<g id="a_Node000002"><a xlink:href="CheckPointer_8cuh.html" target="_top" xlink:title="Defines the CheckPointer class for saving and restoring simulation state in the CLIP LBM framework.">
<polygon fill="white" stroke="#666666" points="207.5,-96 29.5,-96 29.5,-66 207.5,-66 207.5,-96"/>
<text text-anchor="start" x="37.5" y="-84" font-family="Helvetica,sans-Serif" font-size="10.00">/home/runner/work/CLIP</text>
<text text-anchor="middle" x="118.5" y="-73" font-family="Helvetica,sans-Serif" font-size="10.00">/CLIP/include/io/CheckPointer.cuh</text>
</a>
</g>
</g>
<!-- Node1&#45;&gt;Node2 -->
<g id="edge1_Node000001_Node000002" class="edge">
<title>Node1&#45;&gt;Node2</title>
<g id="a_edge1_Node000001_Node000002"><a xlink:title=" ">
<path fill="none" stroke="#63b8ff" d="M284.9,-129.12C248.46,-118.8 202.4,-105.76 167.98,-96.01"/>
<polygon fill="#63b8ff" stroke="#63b8ff" points="284.33,-132.6 294.9,-131.95 286.24,-125.86 284.33,-132.6"/>
</a>
</g>
</g>
<!-- Node4 -->
<g id="Node000004" class="node">
<title>Node4</title>
<g id="a_Node000004"><a xlink:href="main_8cu.html" target="_top" xlink:title="Main entry point for CLIP: CUDA Lattice Boltzmann Solver for Interfacial Phenomena.">
<polygon fill="white" stroke="#666666" points="302,-30 169,-30 169,0 302,0 302,-30"/>
<text text-anchor="start" x="177" y="-18" font-family="Helvetica,sans-Serif" font-size="10.00">/home/runner/work/CLIP</text>
<text text-anchor="middle" x="235.5" y="-7" font-family="Helvetica,sans-Serif" font-size="10.00">/CLIP/src/main.cu</text>
</a>
</g>
</g>
<!-- Node1&#45;&gt;Node4 -->
<g id="edge10_Node000001_Node000004" class="edge">
<title>Node1&#45;&gt;Node4</title>
<g id="a_edge10_Node000001_Node000004"><a xlink:title=" ">
<path fill="none" stroke="#63b8ff" d="M294.37,-127.46C279.61,-119.78 264.69,-109.45 254.5,-96 239.76,-76.54 236.23,-47.39 235.52,-30.17"/>
<polygon fill="#63b8ff" stroke="#63b8ff" points="292.98,-130.68 303.51,-131.91 296.05,-124.38 292.98,-130.68"/>
</a>
</g>
</g>
<!-- Node5 -->
<g id="Node000005" class="node">
<title>Node5</title>
<g id="a_Node000005"><a xlink:href="VTSwriter_8cuh.html" target="_top" xlink:title="Defines the VTSwriter class, which writes CLIP simulation output in VTK Structured Grid (....">
<polygon fill="white" stroke="#666666" points="425,-96 264,-96 264,-66 425,-66 425,-96"/>
<text text-anchor="start" x="272" y="-84" font-family="Helvetica,sans-Serif" font-size="10.00">/home/runner/work/CLIP</text>
<text text-anchor="middle" x="344.5" y="-73" font-family="Helvetica,sans-Serif" font-size="10.00">/CLIP/include/io/VTSwriter.cuh</text>
</a>
</g>
</g>
<!-- Node1&#45;&gt;Node5 -->
<g id="edge4_Node000001_Node000005" class="edge">
<title>Node1&#45;&gt;Node5</title>
<g id="a_edge4_Node000001_Node000005"><a xlink:title=" ">
<path fill="none" stroke="#63b8ff" d="M344.5,-121.54C344.5,-112.96 344.5,-103.61 344.5,-96.16"/>
<polygon fill="#63b8ff" stroke="#63b8ff" points="341,-121.8 344.5,-131.8 348,-121.8 341,-121.8"/>
</a>
</g>
</g>
<!-- Node7 -->
<g id="Node000007" class="node">
<title>Node7</title>
<g id="a_Node000007"><a xlink:href="Reporter_8cuh_source.html" target="_top" xlink:title=" ">
<polygon fill="white" stroke="#666666" points="610,-96 443,-96 443,-66 610,-66 610,-96"/>
<text text-anchor="start" x="451" y="-84" font-family="Helvetica,sans-Serif" font-size="10.00">/home/runner/work/CLIP</text>
<text text-anchor="middle" x="526.5" y="-73" font-family="Helvetica,sans-Serif" font-size="10.00">/CLIP/include/utils/Reporter.cuh</text>
</a>
</g>
</g>
<!-- Node1&#45;&gt;Node7 -->
<g id="edge7_Node000001_Node000007" class="edge">
<title>Node1&#45;&gt;Node7</title>
<g id="a_edge7_Node000001_Node000007"><a xlink:title=" ">
<path fill="none" stroke="#63b8ff" d="M394.01,-128.59C423.11,-118.36 459.41,-105.59 486.65,-96.01"/>
<polygon fill="#63b8ff" stroke="#63b8ff" points="392.71,-125.34 384.44,-131.95 395.04,-131.94 392.71,-125.34"/>
</a>
</g>
</g>
<!-- Node9 -->
<g id="Node000009" class="node">
<title>Node9</title>
<g id="a_Node000009"><a xlink:href="TimeInfo_8cu.html" target="_top" xlink:title="Handles simulation time tracking in CLIP.">
<polygon fill="white" stroke="#666666" points="771,-96 628,-96 628,-66 771,-66 771,-96"/>
<text text-anchor="start" x="636" y="-84" font-family="Helvetica,sans-Serif" font-size="10.00">/home/runner/work/CLIP</text>
<text text-anchor="middle" x="699.5" y="-73" font-family="Helvetica,sans-Serif" font-size="10.00">/CLIP/src/utils/TimeInfo.cu</text>
</a>
</g>
</g>
<!-- Node1&#45;&gt;Node9 -->
<g id="edge11_Node000001_Node000009" class="edge">
<title>Node1&#45;&gt;Node9</title>
<g id="a_edge11_Node000001_Node000009"><a xlink:title=" ">
<path fill="none" stroke="#63b8ff" d="M432.28,-130.17C492.49,-119.32 571.39,-105.1 627.81,-94.92"/>
<polygon fill="#63b8ff" stroke="#63b8ff" points="431.63,-126.74 422.41,-131.95 432.87,-133.63 431.63,-126.74"/>
</a>
</g>
</g>
<!-- Node3 -->
<g id="Node000003" class="node">
<title>Node3</title>
<g id="a_Node000003"><a xlink:href="CheckPointer_8cu.html" target="_top" xlink:title="Handles checkpointing functionality for saving and restoring LBM simulation state.">
<polygon fill="white" stroke="#666666" points="151,-30 0,-30 0,0 151,0 151,-30"/>
<text text-anchor="start" x="8" y="-18" font-family="Helvetica,sans-Serif" font-size="10.00">/home/runner/work/CLIP</text>
<text text-anchor="middle" x="75.5" y="-7" font-family="Helvetica,sans-Serif" font-size="10.00">/CLIP/src/io/CheckPointer.cu</text>
</a>
</g>
</g>
<!-- Node2&#45;&gt;Node3 -->
<g id="edge2_Node000002_Node000003" class="edge">
<title>Node2&#45;&gt;Node3</title>
<g id="a_edge2_Node000002_Node000003"><a xlink:title=" ">
<path fill="none" stroke="#63b8ff" d="M103.21,-57.24C97.14,-48.21 90.36,-38.11 85.02,-30.16"/>
<polygon fill="#63b8ff" stroke="#63b8ff" points="100.47,-59.45 108.96,-65.8 106.29,-55.54 100.47,-59.45"/>
</a>
</g>
</g>
<!-- Node2&#45;&gt;Node4 -->
<g id="edge3_Node000002_Node000004" class="edge">
<title>Node2&#45;&gt;Node4</title>
<g id="a_edge3_Node000002_Node000004"><a xlink:title=" ">
<path fill="none" stroke="#63b8ff" d="M153.29,-60.97C171.45,-51.03 193.28,-39.09 209.88,-30.01"/>
<polygon fill="#63b8ff" stroke="#63b8ff" points="151.27,-58.09 144.18,-65.95 154.63,-64.23 151.27,-58.09"/>
</a>
</g>
</g>
<!-- Node5&#45;&gt;Node4 -->
<g id="edge6_Node000005_Node000004" class="edge">
<title>Node5&#45;&gt;Node4</title>
<g id="a_edge6_Node000005_Node000004"><a xlink:title=" ">
<path fill="none" stroke="#63b8ff" d="M311.62,-60.69C294.79,-50.82 274.69,-39.01 259.36,-30.01"/>
<polygon fill="#63b8ff" stroke="#63b8ff" points="310.18,-63.91 320.58,-65.95 313.73,-57.87 310.18,-63.91"/>
</a>
</g>
</g>
<!-- Node6 -->
<g id="Node000006" class="node">
<title>Node6</title>
<g id="a_Node000006"><a xlink:href="VTSwriter_8cu.html" target="_top" xlink:title="Writes scalar and vector fields to .vts (VTK structured grid) files for ParaView visualization.">
<polygon fill="white" stroke="#666666" points="454.5,-30 320.5,-30 320.5,0 454.5,0 454.5,-30"/>
<text text-anchor="start" x="328.5" y="-18" font-family="Helvetica,sans-Serif" font-size="10.00">/home/runner/work/CLIP</text>
<text text-anchor="middle" x="387.5" y="-7" font-family="Helvetica,sans-Serif" font-size="10.00">/CLIP/src/io/VTSwriter.cu</text>
</a>
</g>
</g>
<!-- Node5&#45;&gt;Node6 -->
<g id="edge5_Node000005_Node000006" class="edge">
<title>Node5&#45;&gt;Node6</title>
<g id="a_edge5_Node000005_Node000006"><a xlink:title=" ">
<path fill="none" stroke="#63b8ff" d="M359.79,-57.24C365.86,-48.21 372.64,-38.11 377.98,-30.16"/>
<polygon fill="#63b8ff" stroke="#63b8ff" points="356.71,-55.54 354.04,-65.8 362.53,-59.45 356.71,-55.54"/>
</a>
</g>
</g>
<!-- Node7&#45;&gt;Node4 -->
<g id="edge8_Node000007_Node000004" class="edge">
<title>Node7&#45;&gt;Node4</title>
<g id="a_edge8_Node000007_Node000004"><a xlink:title=" ">
<path fill="none" stroke="#63b8ff" d="M452.75,-63.78C405.38,-53.36 344.47,-39.97 299.21,-30.01"/>
<polygon fill="#63b8ff" stroke="#63b8ff" points="452.12,-67.23 462.64,-65.95 453.62,-60.39 452.12,-67.23"/>
</a>
</g>
</g>
<!-- Node8 -->
<g id="Node000008" class="node">
<title>Node8</title>
<g id="a_Node000008"><a xlink:href="Reporter_8cu.html" target="_top" xlink:title="Reporting and diagnostics for CLIP simulations.">
<polygon fill="white" stroke="#666666" points="612.5,-30 472.5,-30 472.5,0 612.5,0 612.5,-30"/>
<text text-anchor="start" x="480.5" y="-18" font-family="Helvetica,sans-Serif" font-size="10.00">/home/runner/work/CLIP</text>
<text text-anchor="middle" x="542.5" y="-7" font-family="Helvetica,sans-Serif" font-size="10.00">/CLIP/src/utils/Reporter.cu</text>
</a>
</g>
</g>
<!-- Node7&#45;&gt;Node8 -->
<g id="edge9_Node000007_Node000008" class="edge">
<title>Node7&#45;&gt;Node8</title>
<g id="a_edge9_Node000007_Node000008"><a xlink:title=" ">
<path fill="none" stroke="#63b8ff" d="M532.54,-55.83C534.71,-47.17 537.08,-37.7 538.96,-30.16"/>
<polygon fill="#63b8ff" stroke="#63b8ff" points="529.08,-55.25 530.05,-65.8 535.87,-56.94 529.08,-55.25"/>
</a>
</g>
</g>
</g>
</svg>

<g id="navigator" transform="translate(0 0)" fill="#404254">
  <rect fill="#f2f5e9" fill-opacity="0.5" stroke="#606060" stroke-width=".5" x="0" y="0" width="60" height="60"/>
  <use id="zoomplus" xlink:href="#zoomPlus" x="17" y="9" onmousedown="handleZoom(evt,'in')"/>
  <use id="zoomminus" xlink:href="#zoomMin" x="42" y="9" onmousedown="handleZoom(evt,'out')"/>
  <use id="reset" xlink:href="#resetDef" x="30" y="36" onmousedown="handleReset()"/>
   <use id="arrowup" xlink:href="#arrowUp" x="0" y="0" onmousedown="handlePan(0,-1)"/>
  <use id="arrowright" xlink:href="#arrowRight" x="0" y="0" onmousedown="handlePan(1,0)"/>
  <use id="arrowdown" xlink:href="#arrowDown" x="0" y="0" onmousedown="handlePan(0,1)"/>
  <use id="arrowleft" xlink:href="#arrowLeft" x="0" y="0" onmousedown="handlePan(-1,0)"/>
</g>
<svg viewBox="0 0 15 15" width="100%" height="30px" preserveAspectRatio="xMaxYMin meet">
 <g id="arrow_out" transform="scale(0.3 0.3)">
  <a xlink:href="TimeInfo_8cuh__dep__incl_org.svg" target="_base">
   <rect id="button" ry="5" rx="5" y="6" x="6" height="38" width="38"
        fill="#f2f5e9" fill-opacity="0.5" stroke="#606060" stroke-width="1.0"/>
   <path id="arrow"
     d="M 11.500037,31.436501 C 11.940474,20.09759 22.043105,11.32322 32.158766,21.979434 L 37.068811,17.246167 C 37.068811,17.246167 37.088388,32 37.088388,32 L 22.160133,31.978069 C 22.160133,31.978069 26.997745,27.140456 26.997745,27.140456 C 18.528582,18.264221 13.291696,25.230495 11.500037,31.436501 z"
     style="fill:#404040;"/>
  </a>
 </g>
</svg>

<style type='text/css'>
<![CDATA[
[data-mouse-over-selected='false'] { opacity: 0.7; }
[data-mouse-over-selected='true']  { opacity: 1.0; }
]]>
</style>
<script type="application/ecmascript"><![CDATA[
document.addEventListener('DOMContentLoaded', (event) => {
  highlightEdges();
  highlightAdjacentNodes();
});
]]></script>
</svg>
