<?xml version="1.0" encoding="UTF-8" standalone="no"?>
<!DOCTYPE svg PUBLIC "-//W3C//DTD SVG 1.1//EN"
 "http://www.w3.org/Graphics/SVG/1.1/DTD/svg11.dtd">
<!-- Generated by graphviz version 2.43.0 (0)
 -->
<!-- Title: /home/runner/work/CLIP/CLIP/include/io/VTSwriter.cuh Pages: 1 -->
<svg width="1236pt" height="423pt"
 viewBox="0.00 0.00 1236.00 423.00" xmlns="http://www.w3.org/2000/svg" xmlns:xlink="http://www.w3.org/1999/xlink">
<g id="graph0" class="graph" transform="scale(1 1) rotate(0) translate(4 419)">
<title>/home/runner/work/CLIP/CLIP/include/io/VTSwriter.cuh</title>
<!-- Node1 -->
<g id="Node000001" class="node">
<title>Node1</title>
<g id="a_Node000001"><a xlink:title="Defines the VTSwriter class, which writes CLIP simulation output in VTK Structured Grid (....">
<polygon fill="#999999" stroke="#666666" points="571.5,-415 410.5,-415 410.5,-385 571.5,-385 571.5,-415"/>
<text text-anchor="start" x="418.5" y="-403" font-family="Helvetica,sans-Serif" font-size="10.00">/home/runner/work/CLIP</text>
<text text-anchor="middle" x="491" y="-392" font-family="Helvetica,sans-Serif" font-size="10.00">/CLIP/include/io/VTSwriter.cuh</text>
</a>
</g>
</g>
<!-- Node2 -->
<g id="Node000002" class="node">
<title>Node2</title>
<g id="a_Node000002"><a xlink:href="includes_8h.html" target="_top" xlink:title="Common include header that provides core system libraries, CUDA headers, and project&#45;level dependenci...">
<polygon fill="white" stroke="#666666" points="519,-129 453,-129 453,-110 519,-110 519,-129"/>
<text text-anchor="middle" x="486" y="-117" font-family="Helvetica,sans-Serif" font-size="10.00">includes.h</text>
</a>
</g>
</g>
<!-- Node1&#45;&gt;Node2 -->
<g id="edge1_Node000001_Node000002" class="edge">
<title>Node1&#45;&gt;Node2</title>
<g id="a_edge1_Node000001_Node000002"><a xlink:title=" ">
<path fill="none" stroke="#63b8ff" d="M420.77,-384.99C369.16,-370.12 308,-340.83 308,-285.5 308,-285.5 308,-285.5 308,-228.5 308,-165.64 390.14,-138.34 442.83,-127.3"/>
<polygon fill="#63b8ff" stroke="#63b8ff" points="443.8,-130.68 452.94,-125.31 442.45,-123.81 443.8,-130.68"/>
</a>
</g>
</g>
<!-- Node19 -->
<g id="Node000019" class="node">
<title>Node19</title>
<g id="a_Node000019"><a xlink:href="InputData_8cuh.html" target="_top" xlink:title="Defines the InputData class responsible for reading and storing simulation parameters in the CLIP LBM...">
<polygon fill="white" stroke="#666666" points="599.5,-184 514.5,-184 514.5,-165 599.5,-165 599.5,-184"/>
<text text-anchor="middle" x="557" y="-172" font-family="Helvetica,sans-Serif" font-size="10.00">InputData.cuh</text>
</a>
</g>
</g>
<!-- Node1&#45;&gt;Node19 -->
<g id="edge21_Node000001_Node000019" class="edge">
<title>Node1&#45;&gt;Node19</title>
<g id="a_edge21_Node000001_Node000019"><a xlink:title=" ">
<path fill="none" stroke="#63b8ff" d="M516.83,-384.99C557.57,-361.21 635.29,-308.69 666,-239 678.62,-210.36 643.19,-193.91 609.42,-184.96"/>
<polygon fill="#63b8ff" stroke="#63b8ff" points="610.06,-181.52 599.52,-182.53 608.39,-188.31 610.06,-181.52"/>
</a>
</g>
</g>
<!-- Node20 -->
<g id="Node000020" class="node">
<title>Node20</title>
<g id="a_Node000020"><a xlink:href="DataArray_8cuh.html" target="_top" xlink:title="Defines the DataArray class for managing all host/device memory allocation, data transfer,...">
<polygon fill="white" stroke="#666666" points="533.5,-349 448.5,-349 448.5,-330 533.5,-330 533.5,-349"/>
<text text-anchor="middle" x="491" y="-337" font-family="Helvetica,sans-Serif" font-size="10.00">DataArray.cuh</text>
</a>
</g>
</g>
<!-- Node1&#45;&gt;Node20 -->
<g id="edge23_Node000001_Node000020" class="edge">
<title>Node1&#45;&gt;Node20</title>
<g id="a_edge23_Node000001_Node000020"><a xlink:title=" ">
<path fill="none" stroke="#63b8ff" d="M491,-384.84C491,-377.21 491,-367.7 491,-359.45"/>
<polygon fill="#63b8ff" stroke="#63b8ff" points="494.5,-359.27 491,-349.27 487.5,-359.27 494.5,-359.27"/>
</a>
</g>
</g>
<!-- Node21 -->
<g id="Node000021" class="node">
<title>Node21</title>
<g id="a_Node000021"><a xlink:href="Domain_8cuh.html" target="_top" xlink:title="Defines the Domain class for managing spatial extents, indexing, and boundary checks in the CLIP LBM ...">
<polygon fill="white" stroke="#666666" points="457.5,-239 382.5,-239 382.5,-220 457.5,-220 457.5,-239"/>
<text text-anchor="middle" x="420" y="-227" font-family="Helvetica,sans-Serif" font-size="10.00">Domain.cuh</text>
</a>
</g>
</g>
<!-- Node1&#45;&gt;Node21 -->
<g id="edge36_Node000001_Node000021" class="edge">
<title>Node1&#45;&gt;Node21</title>
<g id="a_edge36_Node000001_Node000021"><a xlink:title=" ">
<path fill="none" stroke="#63b8ff" d="M471.29,-384.96C460.11,-375.95 446.82,-363.28 439,-349 421.54,-317.13 419.05,-273.7 419.24,-249.24"/>
<polygon fill="#63b8ff" stroke="#63b8ff" points="422.74,-249.25 419.48,-239.17 415.74,-249.08 422.74,-249.25"/>
</a>
</g>
</g>
<!-- Node24 -->
<g id="Node000024" class="node">
<title>Node24</title>
<g id="a_Node000024"><a xlink:href="TimeInfo_8cuh.html" target="_top" xlink:title="Declares the TimeInfo class, which manages simulation time and step tracking in the CLIP LBM framewor...">
<polygon fill="white" stroke="#666666" points="794,-239 714,-239 714,-220 794,-220 794,-239"/>
<text text-anchor="middle" x="754" y="-227" font-family="Helvetica,sans-Serif" font-size="10.00">TimeInfo.cuh</text>
</a>
</g>
</g>
<!-- Node1&#45;&gt;Node24 -->
<g id="edge37_Node000001_Node000024" class="edge">
<title>Node1&#45;&gt;Node24</title>
<g id="a_edge37_Node000001_Node000024"><a xlink:title=" ">
<path fill="none" stroke="#63b8ff" d="M571.66,-396.32C613.94,-391.11 664.22,-378.47 700,-349 731.3,-323.22 745.25,-275.39 750.8,-249.06"/>
<polygon fill="#63b8ff" stroke="#63b8ff" points="754.24,-249.71 752.68,-239.23 747.36,-248.39 754.24,-249.71"/>
</a>
</g>
</g>
<!-- Node3 -->
<g id="Node000003" class="node">
<title>Node3</title>
<g id="a_Node000003"><a xlink:title=" ">
<polygon fill="#e0e0e0" stroke="#999999" points="60,-19 0,-19 0,0 60,0 60,-19"/>
<text text-anchor="middle" x="30" y="-7" font-family="Helvetica,sans-Serif" font-size="10.00">iostream</text>
</a>
</g>
</g>
<!-- Node2&#45;&gt;Node3 -->
<g id="edge2_Node000002_Node000003" class="edge">
<title>Node2&#45;&gt;Node3</title>
<g id="a_edge2_Node000002_Node000003"><a xlink:title=" ">
<path fill="none" stroke="#63b8ff" d="M452.92,-118.7C365.66,-118.67 131.64,-114.68 68,-74 51.8,-63.64 41.55,-43.69 35.84,-28.9"/>
<polygon fill="#63b8ff" stroke="#63b8ff" points="39.07,-27.54 32.45,-19.26 32.46,-29.85 39.07,-27.54"/>
</a>
</g>
</g>
<!-- Node4 -->
<g id="Node000004" class="node">
<title>Node4</title>
<g id="a_Node000004"><a xlink:title=" ">
<polygon fill="#e0e0e0" stroke="#999999" points="267.5,-74 212.5,-74 212.5,-55 267.5,-55 267.5,-74"/>
<text text-anchor="middle" x="240" y="-62" font-family="Helvetica,sans-Serif" font-size="10.00">fstream</text>
</a>
</g>
</g>
<!-- Node2&#45;&gt;Node4 -->
<g id="edge3_Node000002_Node000004" class="edge">
<title>Node2&#45;&gt;Node4</title>
<g id="a_edge3_Node000002_Node000004"><a xlink:title=" ">
<path fill="none" stroke="#63b8ff" d="M452.66,-111.57C413.32,-103.36 345.66,-89.12 277.87,-74.16"/>
<polygon fill="#63b8ff" stroke="#63b8ff" points="278.39,-70.69 267.87,-71.95 276.88,-77.53 278.39,-70.69"/>
</a>
</g>
</g>
<!-- Node5 -->
<g id="Node000005" class="node">
<title>Node5</title>
<g id="a_Node000005"><a xlink:title=" ">
<polygon fill="#e0e0e0" stroke="#999999" points="127,-19 83,-19 83,0 127,0 127,-19"/>
<text text-anchor="middle" x="105" y="-7" font-family="Helvetica,sans-Serif" font-size="10.00">string</text>
</a>
</g>
</g>
<!-- Node2&#45;&gt;Node5 -->
<g id="edge4_Node000002_Node000005" class="edge">
<title>Node2&#45;&gt;Node5</title>
<g id="a_edge4_Node000002_Node000005"><a xlink:title=" ">
<path fill="none" stroke="#63b8ff" d="M452.89,-117.38C359.99,-113.92 101.98,-101.85 77,-74 64.76,-60.36 76.96,-40.5 88.87,-26.64"/>
<polygon fill="#63b8ff" stroke="#63b8ff" points="91.46,-28.99 95.66,-19.26 86.31,-24.24 91.46,-28.99"/>
</a>
</g>
</g>
<!-- Node6 -->
<g id="Node000006" class="node">
<title>Node6</title>
<g id="a_Node000006"><a xlink:title=" ">
<polygon fill="#e0e0e0" stroke="#999999" points="342,-74 286,-74 286,-55 342,-55 342,-74"/>
<text text-anchor="middle" x="314" y="-62" font-family="Helvetica,sans-Serif" font-size="10.00">sstream</text>
</a>
</g>
</g>
<!-- Node2&#45;&gt;Node6 -->
<g id="edge5_Node000002_Node000006" class="edge">
<title>Node2&#45;&gt;Node6</title>
<g id="a_edge5_Node000002_Node000006"><a xlink:title=" ">
<path fill="none" stroke="#63b8ff" d="M458.37,-109.98C429.49,-101.09 383.99,-87.07 351.8,-77.15"/>
<polygon fill="#63b8ff" stroke="#63b8ff" points="352.44,-73.68 341.85,-74.08 350.38,-80.37 352.44,-73.68"/>
</a>
</g>
</g>
<!-- Node7 -->
<g id="Node000007" class="node">
<title>Node7</title>
<g id="a_Node000007"><a xlink:title=" ">
<polygon fill="#e0e0e0" stroke="#999999" points="407.5,-74 360.5,-74 360.5,-55 407.5,-55 407.5,-74"/>
<text text-anchor="middle" x="384" y="-62" font-family="Helvetica,sans-Serif" font-size="10.00">vector</text>
</a>
</g>
</g>
<!-- Node2&#45;&gt;Node7 -->
<g id="edge6_Node000002_Node000007" class="edge">
<title>Node2&#45;&gt;Node7</title>
<g id="a_edge6_Node000002_Node000007"><a xlink:title=" ">
<path fill="none" stroke="#63b8ff" d="M469.61,-109.98C453.43,-101.57 428.43,-88.59 409.62,-78.81"/>
<polygon fill="#63b8ff" stroke="#63b8ff" points="411.17,-75.68 400.69,-74.17 407.95,-81.89 411.17,-75.68"/>
</a>
</g>
</g>
<!-- Node8 -->
<g id="Node000008" class="node">
<title>Node8</title>
<g id="a_Node000008"><a xlink:title=" ">
<polygon fill="#e0e0e0" stroke="#999999" points="476,-74 426,-74 426,-55 476,-55 476,-74"/>
<text text-anchor="middle" x="451" y="-62" font-family="Helvetica,sans-Serif" font-size="10.00">cstring</text>
</a>
</g>
</g>
<!-- Node2&#45;&gt;Node8 -->
<g id="edge7_Node000002_Node000008" class="edge">
<title>Node2&#45;&gt;Node8</title>
<g id="a_edge7_Node000002_Node000008"><a xlink:title=" ">
<path fill="none" stroke="#63b8ff" d="M480.22,-109.75C475.38,-102.42 468.32,-91.73 462.36,-82.7"/>
<polygon fill="#63b8ff" stroke="#63b8ff" points="465.1,-80.5 456.67,-74.09 459.26,-84.36 465.1,-80.5"/>
</a>
</g>
</g>
<!-- Node9 -->
<g id="Node000009" class="node">
<title>Node9</title>
<g id="a_Node000009"><a xlink:title=" ">
<polygon fill="#e0e0e0" stroke="#999999" points="550,-74 494,-74 494,-55 550,-55 550,-74"/>
<text text-anchor="middle" x="522" y="-62" font-family="Helvetica,sans-Serif" font-size="10.00">iomanip</text>
</a>
</g>
</g>
<!-- Node2&#45;&gt;Node9 -->
<g id="edge8_Node000002_Node000009" class="edge">
<title>Node2&#45;&gt;Node9</title>
<g id="a_edge8_Node000002_Node000009"><a xlink:title=" ">
<path fill="none" stroke="#63b8ff" d="M491.94,-109.75C496.98,-102.34 504.34,-91.5 510.51,-82.41"/>
<polygon fill="#63b8ff" stroke="#63b8ff" points="513.44,-84.33 516.17,-74.09 507.65,-80.39 513.44,-84.33"/>
</a>
</g>
</g>
<!-- Node10 -->
<g id="Node000010" class="node">
<title>Node10</title>
<g id="a_Node000010"><a xlink:title=" ">
<polygon fill="#e0e0e0" stroke="#999999" points="636,-74 568,-74 568,-55 636,-55 636,-74"/>
<text text-anchor="middle" x="602" y="-62" font-family="Helvetica,sans-Serif" font-size="10.00">filesystem</text>
</a>
</g>
</g>
<!-- Node2&#45;&gt;Node10 -->
<g id="edge9_Node000002_Node000010" class="edge">
<title>Node2&#45;&gt;Node10</title>
<g id="a_edge9_Node000002_Node000010"><a xlink:title=" ">
<path fill="none" stroke="#63b8ff" d="M504.64,-109.98C523.3,-101.46 552.25,-88.23 573.74,-78.41"/>
<polygon fill="#63b8ff" stroke="#63b8ff" points="575.38,-81.51 583.02,-74.17 572.47,-75.14 575.38,-81.51"/>
</a>
</g>
</g>
<!-- Node11 -->
<g id="Node000011" class="node">
<title>Node11</title>
<g id="a_Node000011"><a xlink:title=" ">
<polygon fill="#e0e0e0" stroke="#999999" points="213.5,-19 148.5,-19 148.5,0 213.5,0 213.5,-19"/>
<text text-anchor="middle" x="181" y="-7" font-family="Helvetica,sans-Serif" font-size="10.00">stdexcept</text>
</a>
</g>
</g>
<!-- Node2&#45;&gt;Node11 -->
<g id="edge10_Node000002_Node000011" class="edge">
<title>Node2&#45;&gt;Node11</title>
<g id="a_edge10_Node000002_Node000011"><a xlink:title=" ">
<path fill="none" stroke="#63b8ff" d="M452.81,-117.47C386.41,-114.74 240.38,-105.27 203,-74 189.87,-63.01 184.56,-43.75 182.42,-29.32"/>
<polygon fill="#63b8ff" stroke="#63b8ff" points="185.87,-28.59 181.3,-19.02 178.91,-29.34 185.87,-28.59"/>
</a>
</g>
</g>
<!-- Node12 -->
<g id="Node000012" class="node">
<title>Node12</title>
<g id="a_Node000012"><a xlink:title=" ">
<polygon fill="#e0e0e0" stroke="#999999" points="718,-74 654,-74 654,-55 718,-55 718,-74"/>
<text text-anchor="middle" x="686" y="-62" font-family="Helvetica,sans-Serif" font-size="10.00">algorithm</text>
</a>
</g>
</g>
<!-- Node2&#45;&gt;Node12 -->
<g id="edge11_Node000002_Node000012" class="edge">
<title>Node2&#45;&gt;Node12</title>
<g id="a_edge11_Node000002_Node000012"><a xlink:title=" ">
<path fill="none" stroke="#63b8ff" d="M518.13,-109.98C552.25,-100.94 606.32,-86.62 643.83,-76.67"/>
<polygon fill="#63b8ff" stroke="#63b8ff" points="645.18,-79.94 653.95,-73.99 643.38,-73.17 645.18,-79.94"/>
</a>
</g>
</g>
<!-- Node13 -->
<g id="Node000013" class="node">
<title>Node13</title>
<g id="a_Node000013"><a xlink:title=" ">
<polygon fill="#e0e0e0" stroke="#999999" points="785.5,-74 736.5,-74 736.5,-55 785.5,-55 785.5,-74"/>
<text text-anchor="middle" x="761" y="-62" font-family="Helvetica,sans-Serif" font-size="10.00">cctype</text>
</a>
</g>
</g>
<!-- Node2&#45;&gt;Node13 -->
<g id="edge12_Node000002_Node000013" class="edge">
<title>Node2&#45;&gt;Node13</title>
<g id="a_edge12_Node000002_Node000013"><a xlink:title=" ">
<path fill="none" stroke="#63b8ff" d="M519.27,-113.03C563.97,-105.54 646.1,-91.26 725.93,-74.11"/>
<polygon fill="#63b8ff" stroke="#63b8ff" points="727.13,-77.44 736.16,-71.9 725.65,-70.6 727.13,-77.44"/>
</a>
</g>
</g>
<!-- Node14 -->
<g id="Node000014" class="node">
<title>Node14</title>
<g id="a_Node000014"><a xlink:title=" ">
<polygon fill="#e0e0e0" stroke="#999999" points="836,-74 804,-74 804,-55 836,-55 836,-74"/>
<text text-anchor="middle" x="820" y="-62" font-family="Helvetica,sans-Serif" font-size="10.00">set</text>
</a>
</g>
</g>
<!-- Node2&#45;&gt;Node14 -->
<g id="edge13_Node000002_Node000014" class="edge">
<title>Node2&#45;&gt;Node14</title>
<g id="a_edge13_Node000002_Node000014"><a xlink:title=" ">
<path fill="none" stroke="#63b8ff" d="M519.17,-115.6C575.99,-110.22 695.36,-97.07 794,-74 794.1,-73.98 794.2,-73.95 794.3,-73.93"/>
<polygon fill="#63b8ff" stroke="#63b8ff" points="795.21,-77.31 803.9,-71.24 793.32,-70.57 795.21,-77.31"/>
</a>
</g>
</g>
<!-- Node15 -->
<g id="Node000015" class="node">
<title>Node15</title>
<g id="a_Node000015"><a xlink:title=" ">
<polygon fill="#e0e0e0" stroke="#999999" points="946,-74 854,-74 854,-55 946,-55 946,-74"/>
<text text-anchor="middle" x="900" y="-62" font-family="Helvetica,sans-Serif" font-size="10.00">cuda_runtime.h</text>
</a>
</g>
</g>
<!-- Node2&#45;&gt;Node15 -->
<g id="edge14_Node000002_Node000015" class="edge">
<title>Node2&#45;&gt;Node15</title>
<g id="a_edge14_Node000002_Node000015"><a xlink:title=" ">
<path fill="none" stroke="#63b8ff" d="M519.2,-114.72C580.93,-107.62 717.79,-91.55 843.61,-74.16"/>
<polygon fill="#63b8ff" stroke="#63b8ff" points="844.38,-77.58 853.8,-72.74 843.41,-70.65 844.38,-77.58"/>
</a>
</g>
</g>
<!-- Node16 -->
<g id="Node000016" class="node">
<title>Node16</title>
<g id="a_Node000016"><a xlink:title=" ">
<polygon fill="#e0e0e0" stroke="#999999" points="1121.5,-74 964.5,-74 964.5,-55 1121.5,-55 1121.5,-74"/>
<text text-anchor="middle" x="1043" y="-62" font-family="Helvetica,sans-Serif" font-size="10.00">device_launch_parameters.h</text>
</a>
</g>
</g>
<!-- Node2&#45;&gt;Node16 -->
<g id="edge15_Node000002_Node000016" class="edge">
<title>Node2&#45;&gt;Node16</title>
<g id="a_edge15_Node000002_Node000016"><a xlink:title=" ">
<path fill="none" stroke="#63b8ff" d="M519.27,-115.36C594.55,-108.26 783.96,-90.36 954.17,-74.08"/>
<polygon fill="#63b8ff" stroke="#63b8ff" points="954.7,-77.54 964.32,-73.11 954.03,-70.58 954.7,-77.54"/>
</a>
</g>
</g>
<!-- Node17 -->
<g id="Node000017" class="node">
<title>Node17</title>
<g id="a_Node000017"><a xlink:href="DataTypes_8cuh.html" target="_top" xlink:title="Core type definitions and macros for precision control, dimensionality, and indexing in CLIP.">
<polygon fill="white" stroke="#666666" points="1228,-74 1140,-74 1140,-55 1228,-55 1228,-74"/>
<text text-anchor="middle" x="1184" y="-62" font-family="Helvetica,sans-Serif" font-size="10.00">DataTypes.cuh</text>
</a>
</g>
</g>
<!-- Node2&#45;&gt;Node17 -->
<g id="edge16_Node000002_Node000017" class="edge">
<title>Node2&#45;&gt;Node17</title>
<g id="a_edge16_Node000002_Node000017"><a xlink:title=" ">
<path fill="none" stroke="#63b8ff" d="M519.33,-117.26C613.53,-113.54 889.95,-101.05 1129.84,-74.03"/>
<polygon fill="#63b8ff" stroke="#63b8ff" points="1130.25,-77.5 1139.79,-72.9 1129.46,-70.55 1130.25,-77.5"/>
</a>
</g>
</g>
<!-- Node18 -->
<g id="Node000018" class="node">
<title>Node18</title>
<g id="a_Node000018"><a xlink:href="Logger_8cuh.html" target="_top" xlink:title="Defines the Logger class for standardized colored console output and error handling in the CLIP frame...">
<polygon fill="white" stroke="#666666" points="155.5,-74 86.5,-74 86.5,-55 155.5,-55 155.5,-74"/>
<text text-anchor="middle" x="121" y="-62" font-family="Helvetica,sans-Serif" font-size="10.00">Logger.cuh</text>
</a>
</g>
</g>
<!-- Node2&#45;&gt;Node18 -->
<g id="edge17_Node000002_Node000018" class="edge">
<title>Node2&#45;&gt;Node18</title>
<g id="a_edge17_Node000002_Node000018"><a xlink:title=" ">
<path fill="none" stroke="#63b8ff" d="M452.74,-114.17C395.08,-106.59 272.89,-90.17 170,-74 168.53,-73.77 167.04,-73.53 165.54,-73.29"/>
<polygon fill="#63b8ff" stroke="#63b8ff" points="165.95,-69.81 155.51,-71.63 164.8,-76.71 165.95,-69.81"/>
</a>
</g>
</g>
<!-- Node18&#45;&gt;Node3 -->
<g id="edge18_Node000018_Node000003" class="edge">
<title>Node18&#45;&gt;Node3</title>
<g id="a_edge18_Node000018_Node000003"><a xlink:title=" ">
<path fill="none" stroke="#63b8ff" d="M106.38,-54.98C92.14,-46.69 70.25,-33.94 53.55,-24.22"/>
<polygon fill="#63b8ff" stroke="#63b8ff" points="55.29,-21.18 44.89,-19.17 51.77,-27.23 55.29,-21.18"/>
</a>
</g>
</g>
<!-- Node18&#45;&gt;Node5 -->
<g id="edge19_Node000018_Node000005" class="edge">
<title>Node18&#45;&gt;Node5</title>
<g id="a_edge19_Node000018_Node000005"><a xlink:title=" ">
<path fill="none" stroke="#63b8ff" d="M118.36,-54.75C116.24,-47.72 113.19,-37.62 110.54,-28.84"/>
<polygon fill="#63b8ff" stroke="#63b8ff" points="113.83,-27.65 107.59,-19.09 107.13,-29.67 113.83,-27.65"/>
</a>
</g>
</g>
<!-- Node18&#45;&gt;Node11 -->
<g id="edge20_Node000018_Node000011" class="edge">
<title>Node18&#45;&gt;Node11</title>
<g id="a_edge20_Node000018_Node000011"><a xlink:title=" ">
<path fill="none" stroke="#63b8ff" d="M130.64,-54.98C139.51,-47.15 152.87,-35.34 163.61,-25.86"/>
<polygon fill="#63b8ff" stroke="#63b8ff" points="166.01,-28.41 171.18,-19.17 161.37,-23.17 166.01,-28.41"/>
</a>
</g>
</g>
<!-- Node19&#45;&gt;Node2 -->
<g id="edge22_Node000019_Node000002" class="edge">
<title>Node19&#45;&gt;Node2</title>
<g id="a_edge22_Node000019_Node000002"><a xlink:title=" ">
<path fill="none" stroke="#63b8ff" d="M545.59,-164.98C534.89,-157 518.66,-144.88 505.84,-135.31"/>
<polygon fill="#63b8ff" stroke="#63b8ff" points="507.72,-132.35 497.61,-129.17 503.53,-137.96 507.72,-132.35"/>
</a>
</g>
</g>
<!-- Node20&#45;&gt;Node2 -->
<g id="edge24_Node000020_Node000002" class="edge">
<title>Node20&#45;&gt;Node2</title>
<g id="a_edge24_Node000020_Node000002"><a xlink:title=" ">
<path fill="none" stroke="#63b8ff" d="M472.26,-329.89C444,-315.68 391.77,-284.31 373,-239 353.5,-191.93 416.69,-152.69 456.34,-133.38"/>
<polygon fill="#63b8ff" stroke="#63b8ff" points="458.05,-136.44 465.61,-129.02 455.07,-130.11 458.05,-136.44"/>
</a>
</g>
</g>
<!-- Node20&#45;&gt;Node19 -->
<g id="edge25_Node000020_Node000019" class="edge">
<title>Node20&#45;&gt;Node19</title>
<g id="a_edge25_Node000020_Node000019"><a xlink:title=" ">
<path fill="none" stroke="#63b8ff" d="M505.41,-329.85C517.05,-322.02 532.81,-309.39 541,-294 558,-262.04 559.26,-218.64 558.34,-194.21"/>
<polygon fill="#63b8ff" stroke="#63b8ff" points="561.83,-193.95 557.79,-184.15 554.84,-194.33 561.83,-193.95"/>
</a>
</g>
</g>
<!-- Node20&#45;&gt;Node21 -->
<g id="edge26_Node000020_Node000021" class="edge">
<title>Node20&#45;&gt;Node21</title>
<g id="a_edge26_Node000020_Node000021"><a xlink:title=" ">
<path fill="none" stroke="#63b8ff" d="M477.75,-329.74C466.51,-321.68 450.7,-308.76 441,-294 432.03,-280.35 426.58,-262.54 423.49,-249.25"/>
<polygon fill="#63b8ff" stroke="#63b8ff" points="426.89,-248.42 421.42,-239.35 420.04,-249.85 426.89,-248.42"/>
</a>
</g>
</g>
<!-- Node22 -->
<g id="Node000022" class="node">
<title>Node22</title>
<g id="a_Node000022"><a xlink:href="WMRT_8cuh.html" target="_top" xlink:title="Implements the Weighted Multiple Relaxation Time (WMRT) conversion and reconstruction operators for t...">
<polygon fill="white" stroke="#666666" points="657.5,-239 590.5,-239 590.5,-220 657.5,-220 657.5,-239"/>
<text text-anchor="middle" x="624" y="-227" font-family="Helvetica,sans-Serif" font-size="10.00">WMRT.cuh</text>
</a>
</g>
</g>
<!-- Node20&#45;&gt;Node22 -->
<g id="edge29_Node000020_Node000022" class="edge">
<title>Node20&#45;&gt;Node22</title>
<g id="a_edge29_Node000020_Node000022"><a xlink:title=" ">
<path fill="none" stroke="#63b8ff" d="M513.58,-329.93C531.72,-322.32 557.19,-309.94 576,-294 591.59,-280.79 605.19,-261.65 613.89,-247.84"/>
<polygon fill="#63b8ff" stroke="#63b8ff" points="616.89,-249.64 619.1,-239.27 610.91,-246 616.89,-249.64"/>
</a>
</g>
</g>
<!-- Node23 -->
<g id="Node000023" class="node">
<title>Node23</title>
<g id="a_Node000023"><a xlink:href="Boundary_8cuh.html" target="_top" xlink:title="Defines the Boundary class for handling physical and computational boundary conditions in the CLIP LB...">
<polygon fill="white" stroke="#666666" points="532,-294 450,-294 450,-275 532,-275 532,-294"/>
<text text-anchor="middle" x="491" y="-282" font-family="Helvetica,sans-Serif" font-size="10.00">Boundary.cuh</text>
</a>
</g>
</g>
<!-- Node20&#45;&gt;Node23 -->
<g id="edge32_Node000020_Node000023" class="edge">
<title>Node20&#45;&gt;Node23</title>
<g id="a_edge32_Node000020_Node000023"><a xlink:title=" ">
<path fill="none" stroke="#63b8ff" d="M491,-329.75C491,-322.8 491,-312.85 491,-304.13"/>
<polygon fill="#63b8ff" stroke="#63b8ff" points="494.5,-304.09 491,-294.09 487.5,-304.09 494.5,-304.09"/>
</a>
</g>
</g>
<!-- Node21&#45;&gt;Node2 -->
<g id="edge27_Node000021_Node000002" class="edge">
<title>Node21&#45;&gt;Node2</title>
<g id="a_edge27_Node000021_Node000002"><a xlink:title=" ">
<path fill="none" stroke="#63b8ff" d="M425.4,-219.66C436.33,-201.77 461.25,-161 475.49,-137.69"/>
<polygon fill="#63b8ff" stroke="#63b8ff" points="478.48,-139.52 480.71,-129.16 472.51,-135.87 478.48,-139.52"/>
</a>
</g>
</g>
<!-- Node21&#45;&gt;Node19 -->
<g id="edge28_Node000021_Node000019" class="edge">
<title>Node21&#45;&gt;Node19</title>
<g id="a_edge28_Node000021_Node000019"><a xlink:title=" ">
<path fill="none" stroke="#63b8ff" d="M442.01,-219.98C464.45,-211.3 499.48,-197.75 524.99,-187.88"/>
<polygon fill="#63b8ff" stroke="#63b8ff" points="526.52,-191.04 534.59,-184.17 524,-184.51 526.52,-191.04"/>
</a>
</g>
</g>
<!-- Node22&#45;&gt;Node2 -->
<g id="edge30_Node000022_Node000002" class="edge">
<title>Node22&#45;&gt;Node2</title>
<g id="a_edge30_Node000022_Node000002"><a xlink:title=" ">
<path fill="none" stroke="#63b8ff" d="M624.24,-219.94C624.15,-206.54 622.01,-180.53 608,-165 587.87,-142.68 555.62,-131.54 529.34,-125.99"/>
<polygon fill="#63b8ff" stroke="#63b8ff" points="529.71,-122.5 519.23,-124.06 528.39,-129.37 529.71,-122.5"/>
</a>
</g>
</g>
<!-- Node22&#45;&gt;Node19 -->
<g id="edge31_Node000022_Node000019" class="edge">
<title>Node22&#45;&gt;Node19</title>
<g id="a_edge31_Node000022_Node000019"><a xlink:title=" ">
<path fill="none" stroke="#63b8ff" d="M613.24,-219.98C603.23,-212.07 588.11,-200.11 576.07,-190.58"/>
<polygon fill="#63b8ff" stroke="#63b8ff" points="577.97,-187.63 567.96,-184.17 573.63,-193.12 577.97,-187.63"/>
</a>
</g>
</g>
<!-- Node23&#45;&gt;Node2 -->
<g id="edge34_Node000023_Node000002" class="edge">
<title>Node23&#45;&gt;Node2</title>
<g id="a_edge34_Node000023_Node000002"><a xlink:title=" ">
<path fill="none" stroke="#63b8ff" d="M490.73,-274.74C489.95,-249.31 487.67,-175.08 486.59,-139.69"/>
<polygon fill="#63b8ff" stroke="#63b8ff" points="490.08,-139.19 486.27,-129.31 483.08,-139.41 490.08,-139.19"/>
</a>
</g>
</g>
<!-- Node23&#45;&gt;Node19 -->
<g id="edge33_Node000023_Node000019" class="edge">
<title>Node23&#45;&gt;Node19</title>
<g id="a_edge33_Node000023_Node000019"><a xlink:title=" ">
<path fill="none" stroke="#63b8ff" d="M496.4,-274.66C507.33,-256.77 532.25,-216 546.49,-192.69"/>
<polygon fill="#63b8ff" stroke="#63b8ff" points="549.48,-194.52 551.71,-184.16 543.51,-190.87 549.48,-194.52"/>
</a>
</g>
</g>
<!-- Node23&#45;&gt;Node21 -->
<g id="edge35_Node000023_Node000021" class="edge">
<title>Node23&#45;&gt;Node21</title>
<g id="a_edge35_Node000023_Node000021"><a xlink:title=" ">
<path fill="none" stroke="#63b8ff" d="M479.59,-274.98C468.89,-267 452.66,-254.88 439.84,-245.31"/>
<polygon fill="#63b8ff" stroke="#63b8ff" points="441.72,-242.35 431.61,-239.17 437.53,-247.96 441.72,-242.35"/>
</a>
</g>
</g>
<!-- Node24&#45;&gt;Node2 -->
<g id="edge38_Node000024_Node000002" class="edge">
<title>Node24&#45;&gt;Node2</title>
<g id="a_edge38_Node000024_Node000002"><a xlink:title=" ">
<path fill="none" stroke="#63b8ff" d="M738.86,-219.85C715.57,-206.78 669.31,-181.75 628,-165 595.13,-151.67 556.66,-139.84 528.07,-131.73"/>
<polygon fill="#63b8ff" stroke="#63b8ff" points="528.96,-128.35 518.39,-129.02 527.08,-135.09 528.96,-128.35"/>
</a>
</g>
</g>
<!-- Node24&#45;&gt;Node19 -->
<g id="edge39_Node000024_Node000019" class="edge">
<title>Node24&#45;&gt;Node19</title>
<g id="a_edge39_Node000024_Node000019"><a xlink:title=" ">
<path fill="none" stroke="#63b8ff" d="M722.35,-219.98C688.84,-210.97 635.8,-196.7 598.86,-186.76"/>
<polygon fill="#63b8ff" stroke="#63b8ff" points="599.47,-183.3 588.9,-184.08 597.65,-190.06 599.47,-183.3"/>
</a>
</g>
</g>
</g>
</svg>
