<?xml version="1.0" encoding="UTF-8" standalone="no"?>
<!DOCTYPE svg PUBLIC "-//W3C//DTD SVG 1.1//EN"
 "http://www.w3.org/Graphics/SVG/1.1/DTD/svg11.dtd">
<!-- Generated by graphviz version 2.43.0 (0)
 -->
<!-- Title: /home/runner/work/CLIP/CLIP/include/solver/WMRT.cuh Pages: 1 -->
<svg width="1001pt" height="313pt"
 viewBox="0.00 0.00 1000.73 313.00" xmlns="http://www.w3.org/2000/svg" xmlns:xlink="http://www.w3.org/1999/xlink">
<g id="graph0" class="graph" transform="scale(1 1) rotate(0) translate(4 309)">
<title>/home/runner/work/CLIP/CLIP/include/solver/WMRT.cuh</title>
<!-- Node1 -->
<g id="Node000001" class="node">
<title>Node1</title>
<g id="a_Node000001"><a xlink:title="Implements the Weighted Multiple Relaxation Time (WMRT) conversion and reconstruction operators for t...">
<polygon fill="#999999" stroke="#666666" points="716.2,-305 551.2,-305 551.2,-275 716.2,-275 716.2,-305"/>
<text text-anchor="start" x="559.2" y="-293" font-family="Helvetica,sans-Serif" font-size="10.00">/home/runner/work/CLIP</text>
<text text-anchor="middle" x="633.7" y="-282" font-family="Helvetica,sans-Serif" font-size="10.00">/CLIP/include/solver/WMRT.cuh</text>
</a>
</g>
</g>
<!-- Node2 -->
<g id="Node000002" class="node">
<title>Node2</title>
<g id="a_Node000002"><a xlink:href="DataArray_8cuh.html" target="_top" xlink:title="Defines the DataArray class for managing all host/device memory allocation, data transfer,...">
<polygon fill="white" stroke="#666666" points="648.2,-239 473.2,-239 473.2,-209 648.2,-209 648.2,-239"/>
<text text-anchor="start" x="481.2" y="-227" font-family="Helvetica,sans-Serif" font-size="10.00">/home/runner/work/CLIP</text>
<text text-anchor="middle" x="560.7" y="-216" font-family="Helvetica,sans-Serif" font-size="10.00">/CLIP/include/data/DataArray.cuh</text>
</a>
</g>
</g>
<!-- Node1&#45;&gt;Node2 -->
<g id="edge1_Node000001_Node000002" class="edge">
<title>Node1&#45;&gt;Node2</title>
<g id="a_edge1_Node000001_Node000002"><a xlink:title=" ">
<path fill="none" stroke="#63b8ff" d="M609.98,-268.2C599.14,-258.7 586.59,-247.69 576.86,-239.16"/>
<polygon fill="#63b8ff" stroke="#63b8ff" points="607.68,-270.84 617.5,-274.8 612.29,-265.57 607.68,-270.84"/>
</a>
</g>
</g>
<!-- Node3 -->
<g id="Node000003" class="node">
<title>Node3</title>
<g id="a_Node000003"><a xlink:href="NsAllen_8cuh.html" target="_top" xlink:title="Defines the NSAllen class, a Navier–Stokes solver using the Allen–Cahn phase&#45;field approach within th...">
<polygon fill="white" stroke="#666666" points="820.2,-107 687.2,-107 687.2,-66 820.2,-66 820.2,-107"/>
<text text-anchor="start" x="695.2" y="-95" font-family="Helvetica,sans-Serif" font-size="10.00">/home/runner/work/CLIP</text>
<text text-anchor="start" x="695.2" y="-84" font-family="Helvetica,sans-Serif" font-size="10.00">/CLIP/include/equation</text>
<text text-anchor="middle" x="753.7" y="-73" font-family="Helvetica,sans-Serif" font-size="10.00">/NsAllen.cuh</text>
</a>
</g>
</g>
<!-- Node1&#45;&gt;Node3 -->
<g id="edge20_Node000001_Node000003" class="edge">
<title>Node1&#45;&gt;Node3</title>
<g id="a_edge20_Node000001_Node000003"><a xlink:title=" ">
<path fill="none" stroke="#63b8ff" d="M666.73,-269.42C696.82,-249.47 739.28,-215.46 757.7,-173 766.87,-151.87 763.47,-124.98 759.36,-107.06"/>
<polygon fill="#63b8ff" stroke="#63b8ff" points="664.72,-266.55 658.21,-274.92 668.51,-272.44 664.72,-266.55"/>
</a>
</g>
</g>
<!-- Node2&#45;&gt;Node3 -->
<g id="edge2_Node000002_Node000003" class="edge">
<title>Node2&#45;&gt;Node3</title>
<g id="a_edge2_Node000002_Node000003"><a xlink:title=" ">
<path fill="none" stroke="#63b8ff" d="M658.4,-214.26C686.81,-207.11 715.57,-194.61 735.7,-173 752.25,-155.24 755.14,-126.28 754.99,-107.06"/>
<polygon fill="#63b8ff" stroke="#63b8ff" points="657.34,-210.92 648.38,-216.58 658.91,-217.74 657.34,-210.92"/>
</a>
</g>
</g>
<!-- Node5 -->
<g id="Node000005" class="node">
<title>Node5</title>
<g id="a_Node000005"><a xlink:href="main_8cu.html" target="_top" xlink:title="Main entry point for CLIP: CUDA Lattice Boltzmann Solver for Interfacial Phenomena.">
<polygon fill="white" stroke="#666666" points="463.2,-30 330.2,-30 330.2,0 463.2,0 463.2,-30"/>
<text text-anchor="start" x="338.2" y="-18" font-family="Helvetica,sans-Serif" font-size="10.00">/home/runner/work/CLIP</text>
<text text-anchor="middle" x="396.7" y="-7" font-family="Helvetica,sans-Serif" font-size="10.00">/CLIP/src/main.cu</text>
</a>
</g>
</g>
<!-- Node2&#45;&gt;Node5 -->
<g id="edge19_Node000002_Node000005" class="edge">
<title>Node2&#45;&gt;Node5</title>
<g id="a_edge19_Node000002_Node000005"><a xlink:title=" ">
<path fill="none" stroke="#63b8ff" d="M462.79,-221.13C312.62,-217.25 39.58,-205.71 9.7,-173 -15.23,-145.71 13.7,-86 38.7,-66 82.44,-31.01 239.24,-20.51 330.16,-17.35"/>
<polygon fill="#63b8ff" stroke="#63b8ff" points="462.85,-224.64 472.94,-221.39 463.03,-217.64 462.85,-224.64"/>
</a>
</g>
</g>
<!-- Node6 -->
<g id="Node000006" class="node">
<title>Node6</title>
<g id="a_Node000006"><a xlink:href="CheckPointer_8cuh.html" target="_top" xlink:title="Defines the CheckPointer class for saving and restoring simulation state in the CLIP LBM framework.">
<polygon fill="white" stroke="#666666" points="381.7,-173 203.7,-173 203.7,-143 381.7,-143 381.7,-173"/>
<text text-anchor="start" x="211.7" y="-161" font-family="Helvetica,sans-Serif" font-size="10.00">/home/runner/work/CLIP</text>
<text text-anchor="middle" x="292.7" y="-150" font-family="Helvetica,sans-Serif" font-size="10.00">/CLIP/include/io/CheckPointer.cuh</text>
</a>
</g>
</g>
<!-- Node2&#45;&gt;Node6 -->
<g id="edge5_Node000002_Node000006" class="edge">
<title>Node2&#45;&gt;Node6</title>
<g id="a_edge5_Node000002_Node000006"><a xlink:title=" ">
<path fill="none" stroke="#63b8ff" d="M491.96,-206.58C448.45,-196.19 392.8,-182.9 351.38,-173.01"/>
<polygon fill="#63b8ff" stroke="#63b8ff" points="491.35,-210.04 501.89,-208.95 492.98,-203.23 491.35,-210.04"/>
</a>
</g>
</g>
<!-- Node8 -->
<g id="Node000008" class="node">
<title>Node8</title>
<g id="a_Node000008"><a xlink:href="VTSwriter_8cuh.html" target="_top" xlink:title="Defines the VTSwriter class, which writes CLIP simulation output in VTK Structured Grid (....">
<polygon fill="white" stroke="#666666" points="727.2,-173 566.2,-173 566.2,-143 727.2,-143 727.2,-173"/>
<text text-anchor="start" x="574.2" y="-161" font-family="Helvetica,sans-Serif" font-size="10.00">/home/runner/work/CLIP</text>
<text text-anchor="middle" x="646.7" y="-150" font-family="Helvetica,sans-Serif" font-size="10.00">/CLIP/include/io/VTSwriter.cuh</text>
</a>
</g>
</g>
<!-- Node2&#45;&gt;Node8 -->
<g id="edge8_Node000002_Node000008" class="edge">
<title>Node2&#45;&gt;Node8</title>
<g id="a_edge8_Node000002_Node000008"><a xlink:title=" ">
<path fill="none" stroke="#63b8ff" d="M587.91,-202.75C600.84,-193.13 615.99,-181.86 627.67,-173.16"/>
<polygon fill="#63b8ff" stroke="#63b8ff" points="585.72,-200.02 579.79,-208.8 589.9,-205.63 585.72,-200.02"/>
</a>
</g>
</g>
<!-- Node10 -->
<g id="Node000010" class="node">
<title>Node10</title>
<g id="a_Node000010"><a xlink:href="Solver_8cuh.html" target="_top" xlink:title="Declares the base Solver class that implements common boundary condition logic and field&#45;level utilit...">
<polygon fill="white" stroke="#666666" points="989.2,-173 824.2,-173 824.2,-143 989.2,-143 989.2,-173"/>
<text text-anchor="start" x="832.2" y="-161" font-family="Helvetica,sans-Serif" font-size="10.00">/home/runner/work/CLIP</text>
<text text-anchor="middle" x="906.7" y="-150" font-family="Helvetica,sans-Serif" font-size="10.00">/CLIP/include/solver/Solver.cuh</text>
</a>
</g>
</g>
<!-- Node2&#45;&gt;Node10 -->
<g id="edge11_Node000002_Node000010" class="edge">
<title>Node2&#45;&gt;Node10</title>
<g id="a_edge11_Node000002_Node000010"><a xlink:title=" ">
<path fill="none" stroke="#63b8ff" d="M646.63,-207.11C703.2,-196.64 776.57,-183.07 830.95,-173.01"/>
<polygon fill="#63b8ff" stroke="#63b8ff" points="645.83,-203.69 636.63,-208.95 647.1,-210.58 645.83,-203.69"/>
</a>
</g>
</g>
<!-- Node12 -->
<g id="Node000012" class="node">
<title>Node12</title>
<g id="a_Node000012"><a xlink:href="Reporter_8cuh_source.html" target="_top" xlink:title=" ">
<polygon fill="white" stroke="#666666" points="186.2,-173 19.2,-173 19.2,-143 186.2,-143 186.2,-173"/>
<text text-anchor="start" x="27.2" y="-161" font-family="Helvetica,sans-Serif" font-size="10.00">/home/runner/work/CLIP</text>
<text text-anchor="middle" x="102.7" y="-150" font-family="Helvetica,sans-Serif" font-size="10.00">/CLIP/include/utils/Reporter.cuh</text>
</a>
</g>
</g>
<!-- Node2&#45;&gt;Node12 -->
<g id="edge15_Node000002_Node000012" class="edge">
<title>Node2&#45;&gt;Node12</title>
<g id="a_edge15_Node000002_Node000012"><a xlink:title=" ">
<path fill="none" stroke="#63b8ff" d="M462.82,-210.04C389.07,-200.18 285.49,-186.11 194.7,-173 191.99,-172.61 189.22,-172.21 186.43,-171.8"/>
<polygon fill="#63b8ff" stroke="#63b8ff" points="462.64,-213.55 473.02,-211.4 463.57,-206.61 462.64,-213.55"/>
</a>
</g>
</g>
<!-- Node14 -->
<g id="Node000014" class="node">
<title>Node14</title>
<g id="a_Node000014"><a xlink:href="DataArray_8cu.html" target="_top" xlink:title="Implements the DataArray class, responsible for memory management and data synchronization between ho...">
<polygon fill="white" stroke="#666666" points="547.7,-173 399.7,-173 399.7,-143 547.7,-143 547.7,-173"/>
<text text-anchor="start" x="407.7" y="-161" font-family="Helvetica,sans-Serif" font-size="10.00">/home/runner/work/CLIP</text>
<text text-anchor="middle" x="473.7" y="-150" font-family="Helvetica,sans-Serif" font-size="10.00">/CLIP/src/data/DataArray.cu</text>
</a>
</g>
</g>
<!-- Node2&#45;&gt;Node14 -->
<g id="edge18_Node000002_Node000014" class="edge">
<title>Node2&#45;&gt;Node14</title>
<g id="a_edge18_Node000002_Node000014"><a xlink:title=" ">
<path fill="none" stroke="#63b8ff" d="M533.18,-202.75C520.1,-193.13 504.77,-181.86 492.96,-173.16"/>
<polygon fill="#63b8ff" stroke="#63b8ff" points="531.27,-205.69 541.4,-208.8 535.41,-200.05 531.27,-205.69"/>
</a>
</g>
</g>
<!-- Node4 -->
<g id="Node000004" class="node">
<title>Node4</title>
<g id="a_Node000004"><a xlink:href="NsAllen_8cu.html" target="_top" xlink:title="Implementation of a two&#45;phase Lattice Boltzmann Method (LBM) solver using the Allen–Cahn phase&#45;field ...">
<polygon fill="white" stroke="#666666" points="957.7,-30 799.7,-30 799.7,0 957.7,0 957.7,-30"/>
<text text-anchor="start" x="807.7" y="-18" font-family="Helvetica,sans-Serif" font-size="10.00">/home/runner/work/CLIP</text>
<text text-anchor="middle" x="878.7" y="-7" font-family="Helvetica,sans-Serif" font-size="10.00">/CLIP/src/equation/NsAllen.cu</text>
</a>
</g>
</g>
<!-- Node3&#45;&gt;Node4 -->
<g id="edge3_Node000003_Node000004" class="edge">
<title>Node3&#45;&gt;Node4</title>
<g id="a_edge3_Node000003_Node000004"><a xlink:title=" ">
<path fill="none" stroke="#63b8ff" d="M797.77,-61C816.37,-50.66 837.37,-38.98 853.32,-30.11"/>
<polygon fill="#63b8ff" stroke="#63b8ff" points="795.89,-58.04 788.86,-65.96 799.3,-64.15 795.89,-58.04"/>
</a>
</g>
</g>
<!-- Node3&#45;&gt;Node5 -->
<g id="edge4_Node000003_Node000005" class="edge">
<title>Node3&#45;&gt;Node5</title>
<g id="a_edge4_Node000003_Node000005"><a xlink:title=" ">
<path fill="none" stroke="#63b8ff" d="M677.16,-69.33C671.59,-68.19 666.06,-67.07 660.7,-66 593.57,-52.61 516.65,-38.14 463.23,-28.23"/>
<polygon fill="#63b8ff" stroke="#63b8ff" points="676.69,-72.8 687.19,-71.39 678.1,-65.95 676.69,-72.8"/>
</a>
</g>
</g>
<!-- Node6&#45;&gt;Node5 -->
<g id="edge7_Node000006_Node000005" class="edge">
<title>Node6&#45;&gt;Node5</title>
<g id="a_edge7_Node000006_Node000005"><a xlink:title=" ">
<path fill="none" stroke="#63b8ff" d="M339.32,-138.1C353.22,-130.36 367.25,-120.1 376.7,-107 393.46,-83.78 396.61,-49.17 396.95,-30.02"/>
<polygon fill="#63b8ff" stroke="#63b8ff" points="337.51,-135.1 330.26,-142.82 340.74,-141.3 337.51,-135.1"/>
</a>
</g>
</g>
<!-- Node7 -->
<g id="Node000007" class="node">
<title>Node7</title>
<g id="a_Node000007"><a xlink:href="CheckPointer_8cu.html" target="_top" xlink:title="Handles checkpointing functionality for saving and restoring LBM simulation state.">
<polygon fill="white" stroke="#666666" points="368.2,-101.5 217.2,-101.5 217.2,-71.5 368.2,-71.5 368.2,-101.5"/>
<text text-anchor="start" x="225.2" y="-89.5" font-family="Helvetica,sans-Serif" font-size="10.00">/home/runner/work/CLIP</text>
<text text-anchor="middle" x="292.7" y="-78.5" font-family="Helvetica,sans-Serif" font-size="10.00">/CLIP/src/io/CheckPointer.cu</text>
</a>
</g>
</g>
<!-- Node6&#45;&gt;Node7 -->
<g id="edge6_Node000006_Node000007" class="edge">
<title>Node6&#45;&gt;Node7</title>
<g id="a_edge6_Node000006_Node000007"><a xlink:title=" ">
<path fill="none" stroke="#63b8ff" d="M292.7,-132.75C292.7,-122.31 292.7,-110.49 292.7,-101.54"/>
<polygon fill="#63b8ff" stroke="#63b8ff" points="289.2,-132.94 292.7,-142.94 296.2,-132.94 289.2,-132.94"/>
</a>
</g>
</g>
<!-- Node8&#45;&gt;Node5 -->
<g id="edge10_Node000008_Node000005" class="edge">
<title>Node8&#45;&gt;Node5</title>
<g id="a_edge10_Node000008_Node000005"><a xlink:title=" ">
<path fill="none" stroke="#63b8ff" d="M648.4,-132.66C648.43,-112.12 644.96,-83.38 627.7,-66 605.01,-43.14 523.27,-29.51 463.44,-22.39"/>
<polygon fill="#63b8ff" stroke="#63b8ff" points="644.9,-132.72 648.1,-142.82 651.9,-132.93 644.9,-132.72"/>
</a>
</g>
</g>
<!-- Node9 -->
<g id="Node000009" class="node">
<title>Node9</title>
<g id="a_Node000009"><a xlink:href="VTSwriter_8cu.html" target="_top" xlink:title="Writes scalar and vector fields to .vts (VTK structured grid) files for ParaView visualization.">
<polygon fill="white" stroke="#666666" points="618.7,-101.5 484.7,-101.5 484.7,-71.5 618.7,-71.5 618.7,-101.5"/>
<text text-anchor="start" x="492.7" y="-89.5" font-family="Helvetica,sans-Serif" font-size="10.00">/home/runner/work/CLIP</text>
<text text-anchor="middle" x="551.7" y="-78.5" font-family="Helvetica,sans-Serif" font-size="10.00">/CLIP/src/io/VTSwriter.cu</text>
</a>
</g>
</g>
<!-- Node8&#45;&gt;Node9 -->
<g id="edge9_Node000008_Node000009" class="edge">
<title>Node8&#45;&gt;Node9</title>
<g id="a_edge9_Node000008_Node000009"><a xlink:title=" ">
<path fill="none" stroke="#63b8ff" d="M619.28,-136.94C603.79,-125.6 584.8,-111.71 570.9,-101.54"/>
<polygon fill="#63b8ff" stroke="#63b8ff" points="617.34,-139.86 627.48,-142.94 621.47,-134.21 617.34,-139.86"/>
</a>
</g>
</g>
<!-- Node10&#45;&gt;Node3 -->
<g id="edge12_Node000010_Node000003" class="edge">
<title>Node10&#45;&gt;Node3</title>
<g id="a_edge12_Node000010_Node000003"><a xlink:title=" ">
<path fill="none" stroke="#63b8ff" d="M866.57,-138.77C845.12,-129.02 818.68,-117.02 796.79,-107.07"/>
<polygon fill="#63b8ff" stroke="#63b8ff" points="865.19,-141.99 875.74,-142.94 868.08,-135.61 865.19,-141.99"/>
</a>
</g>
</g>
<!-- Node10&#45;&gt;Node4 -->
<g id="edge13_Node000010_Node000004" class="edge">
<title>Node10&#45;&gt;Node4</title>
<g id="a_edge13_Node000010_Node000004"><a xlink:title=" ">
<path fill="none" stroke="#63b8ff" d="M953.3,-137.99C966.11,-130.36 978.45,-120.17 985.7,-107 994.49,-91.04 995.49,-81.37 985.7,-66 974.8,-48.88 956.33,-37.52 937.78,-30.03"/>
<polygon fill="#63b8ff" stroke="#63b8ff" points="951.5,-134.99 944.42,-142.88 954.87,-141.12 951.5,-134.99"/>
</a>
</g>
</g>
<!-- Node11 -->
<g id="Node000011" class="node">
<title>Node11</title>
<g id="a_Node000011"><a xlink:href="Solver_8cu.html" target="_top" xlink:title="Core LBM solver class with all CUDA boundary condition kernels.">
<polygon fill="white" stroke="#666666" points="976.7,-101.5 838.7,-101.5 838.7,-71.5 976.7,-71.5 976.7,-101.5"/>
<text text-anchor="start" x="846.7" y="-89.5" font-family="Helvetica,sans-Serif" font-size="10.00">/home/runner/work/CLIP</text>
<text text-anchor="middle" x="907.7" y="-78.5" font-family="Helvetica,sans-Serif" font-size="10.00">/CLIP/src/solver/Solver.cu</text>
</a>
</g>
</g>
<!-- Node10&#45;&gt;Node11 -->
<g id="edge14_Node000010_Node000011" class="edge">
<title>Node10&#45;&gt;Node11</title>
<g id="a_edge14_Node000010_Node000011"><a xlink:title=" ">
<path fill="none" stroke="#63b8ff" d="M907.05,-132.75C907.2,-122.31 907.37,-110.49 907.5,-101.54"/>
<polygon fill="#63b8ff" stroke="#63b8ff" points="903.55,-132.89 906.91,-142.94 910.55,-132.99 903.55,-132.89"/>
</a>
</g>
</g>
<!-- Node12&#45;&gt;Node5 -->
<g id="edge16_Node000012_Node000005" class="edge">
<title>Node12&#45;&gt;Node5</title>
<g id="a_edge16_Node000012_Node000005"><a xlink:title=" ">
<path fill="none" stroke="#63b8ff" d="M72.73,-136.44C63.57,-128.42 54.63,-118.41 49.7,-107 42.49,-90.27 37.77,-79.77 49.7,-66 85.22,-25 239.51,-16.85 329.95,-15.69"/>
<polygon fill="#63b8ff" stroke="#63b8ff" points="70.77,-139.35 80.74,-142.94 75.19,-133.92 70.77,-139.35"/>
</a>
</g>
</g>
<!-- Node13 -->
<g id="Node000013" class="node">
<title>Node13</title>
<g id="a_Node000013"><a xlink:href="Reporter_8cu.html" target="_top" xlink:title="Reporting and diagnostics for CLIP simulations.">
<polygon fill="white" stroke="#666666" points="198.7,-101.5 58.7,-101.5 58.7,-71.5 198.7,-71.5 198.7,-101.5"/>
<text text-anchor="start" x="66.7" y="-89.5" font-family="Helvetica,sans-Serif" font-size="10.00">/home/runner/work/CLIP</text>
<text text-anchor="middle" x="128.7" y="-78.5" font-family="Helvetica,sans-Serif" font-size="10.00">/CLIP/src/utils/Reporter.cu</text>
</a>
</g>
</g>
<!-- Node12&#45;&gt;Node13 -->
<g id="edge17_Node000012_Node000013" class="edge">
<title>Node12&#45;&gt;Node13</title>
<g id="a_edge17_Node000012_Node000013"><a xlink:title=" ">
<path fill="none" stroke="#63b8ff" d="M111.53,-133.4C115.49,-122.81 120.03,-110.68 123.45,-101.54"/>
<polygon fill="#63b8ff" stroke="#63b8ff" points="108.19,-132.34 107.97,-142.94 114.75,-134.8 108.19,-132.34"/>
</a>
</g>
</g>
</g>
</svg>
